<?xml version="1.0" standalone="no"?>
<!DOCTYPE svg PUBLIC "-//W3C//DTD SVG 1.1//EN" "http://www.w3.org/Graphics/SVG/1.1/DTD/svg11.dtd" >
<svg xmlns="http://www.w3.org/2000/svg" xmlns:xlink="http://www.w3.org/1999/xlink" version="1.1">
<metadata>
Created by FontForge 20170731 at Thu Mar  7 20:23:02 2013
 By Aleksey,,,
Copyright (c) 2008 by Nathanael Bonnell. All rights reserved.
</metadata>
<defs>
<font id="NewtSerifBold-Italic" horiz-adv-x="477" >
  <font-face 
    font-family="Newt Serif Bold"
    font-weight="400"
    font-style="italic"
    font-stretch="normal"
    units-per-em="1000"
    panose-1="2 0 5 5 8 0 0 9 0 4"
    ascent="705"
    descent="-295"
    x-height="437"
    cap-height="606"
    bbox="-226.053 -288 1091.04 860.781"
    underline-thickness="46"
    underline-position="-234"
    slope="-13"
    unicode-range="U+0020-FB02"
  />
<missing-glyph horiz-adv-x="582" 
d="M478 293q0 -102 18.5 -177t40.5 -97q9 -10 4 -18t-20 -4l-35 8q-63 14 -162 14q-48 0 -89 -4t-63 -8t-38.5 -7.5t-23 -3t-9.5 6.5q-2 5 3.5 13.5t14.5 27.5t18.5 47t16.5 82.5t7 124.5q0 195 -43 259l-17 25q-7 9 -3 17t21 5q79 -23 201 -23q56 0 108.5 6.5t77 12
t25.5 4.5t4 -3.5t3 -4v-6t-4 -12t-11 -18.5q-21 -31 -33 -114.5t-12 -152.5zM190 418q0 -31 18 -47t37 -16q14 0 32 4.5t30 12t9 14.5q-6 7 -22 0q-24 -4 -40 9t-16 35q0 26 19.5 46.5t56.5 20.5q40 0 60 -23t20 -50q0 -29 -13 -51.5t-43 -50.5q-18 -17 -25.5 -25.5
t-18.5 -32.5t-11 -52q0 -18 10 -18q12 0 13.5 14.5t9 41t29.5 47.5q11 11 47 38q72 56 57 117q-16 68 -124 68q-51 0 -93 -30.5t-42 -71.5zM258 95q0 -31 37 -31q13 0 28 9t15 29q0 12 -10.5 19t-25.5 7q-17 0 -30.5 -9.5t-13.5 -23.5z" />
    <glyph glyph-name=".notdef" horiz-adv-x="582" 
d="M478 293q0 -102 18.5 -177t40.5 -97q9 -10 4 -18t-20 -4l-35 8q-63 14 -162 14q-48 0 -89 -4t-63 -8t-38.5 -7.5t-23 -3t-9.5 6.5q-2 5 3.5 13.5t14.5 27.5t18.5 47t16.5 82.5t7 124.5q0 195 -43 259l-17 25q-7 9 -3 17t21 5q79 -23 201 -23q56 0 108.5 6.5t77 12
t25.5 4.5t4 -3.5t3 -4v-6t-4 -12t-11 -18.5q-21 -31 -33 -114.5t-12 -152.5zM190 418q0 -31 18 -47t37 -16q14 0 32 4.5t30 12t9 14.5q-6 7 -22 0q-24 -4 -40 9t-16 35q0 26 19.5 46.5t56.5 20.5q40 0 60 -23t20 -50q0 -29 -13 -51.5t-43 -50.5q-18 -17 -25.5 -25.5
t-18.5 -32.5t-11 -52q0 -18 10 -18q12 0 13.5 14.5t9 41t29.5 47.5q11 11 47 38q72 56 57 117q-16 68 -124 68q-51 0 -93 -30.5t-42 -71.5zM258 95q0 -31 37 -31q13 0 28 9t15 29q0 12 -10.5 19t-25.5 7q-17 0 -30.5 -9.5t-13.5 -23.5z" />
    <glyph glyph-name=".null" horiz-adv-x="0" 
 />
    <glyph glyph-name="nonmarkingreturn" horiz-adv-x="333" 
 />
    <glyph glyph-name="space" unicode=" " horiz-adv-x="237" 
 />
    <glyph glyph-name="exclam" unicode="!" horiz-adv-x="314" 
d="M184 585q2 16 9 23t21 12q48 15 118 12q13 -1 19.5 -9.5t2.5 -24.5q-5 -15 -43 -81t-48 -89q-52 -127 -79 -226q-8 -24 -36 -29q-13 -4 -19 6t-4 24q39 197 42 222q17 158 17 160zM124 122q27 2 49.5 -11.5t22.5 -38.5q0 -38 -23 -56.5t-53 -23.5q-38 -3 -58 14.5
t-20 43.5q0 30 25.5 50t56.5 22z" />
    <glyph glyph-name="quotedbl" unicode="&#x22;" horiz-adv-x="371" 
d="M249 616q29 0 14 -38q-6 -15 -39.5 -79t-45.5 -106q-3 -13 -16 -20.5t-23 -8.5q-27 0 -20 29q5 27 6.5 63t0.5 62t0 53q1 14 6 22t9 10t16 6q22 7 92 7zM434 616q28 0 15 -38q-4 -11 -38.5 -76.5t-46.5 -108.5q-3 -13 -16.5 -20.5t-23.5 -8.5q-25 0 -20 29q5 27 6.5 63
t0.5 62t0 53q1 14 6.5 22t9.5 9.5t16 6.5q21 7 91 7z" />
    <glyph glyph-name="numbersign" unicode="#" horiz-adv-x="472" 
d="M69 428q20 23 48 23h40q4 0 6.5 0.5t4 1.5t2 3.5t1 4t1 5t1.5 5.5l30 120q5 22 34 26q8 3 15.5 -2.5t3.5 -22.5q0 -1 -3.5 -15t-9.5 -42t-12 -57q-5 -15 -3.5 -19t16.5 -4q72 0 103 3q10 1 13.5 5t6.5 18q6 22 14.5 59.5t11.5 50.5q5 22 35 26q3 1 8.5 0.5t9.5 -7.5
t2 -18q0 -1 -3 -14.5t-9.5 -41t-12.5 -55.5q-4 -12 -3 -15t14 -3q9 2 28 2q13 3 19 4t14 1t11 -3.5t2 -10.5q-2 -8 -15 -25t-26 -23t-40 -6q-15 0 -18.5 -3.5t-7.5 -18.5q-16 -66 -32 -141q-4 -13 -3 -15.5t13 -2.5q14 0 32 3q21 5 34 4.5t10 -13.5q-2 -8 -14 -22.5
t-25 -19.5q-27 -16 -43 -16q-14 0 -19.5 -5t-9.5 -22q-9 -54 -15 -74q-9 -39 -20 -48q-13 -11 -60 -18q-14 -3 -5 25q14 25 29 82q3 10 8 45q3 8 1 11.5t-15 3.5q-54 -2 -90 -2q-13 -1 -17 -4t-6 -17q-12 -57 -18 -78q-10 -41 -18 -48q-14 -11 -59 -18q-6 -1 -8.5 0.5
t-1.5 7t1.5 7l2.5 7.5q1 2 1 3q7 14 17.5 47.5t10.5 34.5q5 14 9 39v4v5t-0.5 4.5t-3 4t-5.5 1.5h-47q-16 -1 -20 8t4 20q15 27 47 27h25q5 0 9 1t6.5 3t3.5 3.5t2 4.5l2 4q8 30 18.5 77t18.5 77q0 18 -9 19q-23 1 -54 0q-16 -1 -21.5 7t2.5 22zM209 380q-8 -34 -18.5 -82.5
t-16.5 -72.5q-2 -11 -0.5 -12.5t13.5 -1.5q66 2 98 4q13 1 16 4t6 18l36 143q3 14 1.5 17t-12.5 3q-68 0 -101 -1q-18 0 -22 -19z" />
    <glyph glyph-name="dollar" unicode="$" horiz-adv-x="374" 
d="M-6 125q1 26 29.5 54t59.5 43q7 3 17 3t15 -3q4 -2 5.5 -10t-1.5 -13q-12 -21 -10 -50q4 -36 55 -36q61 0 64 52q1 23 -13 45t-26.5 32.5t-48.5 35.5l-12 9q-34 25 -45.5 56t-5.5 80q4 39 43.5 77.5t91.5 47.5q18 5 21.5 8t10.5 21l12 40q8 24 35 29q13 4 19 -6t4 -24
l-9 -44q-3 -18 -1 -20.5t19 -6.5q36 -7 52 -21.5t14 -31.5q-3 -18 -20.5 -39.5t-49.5 -35.5q-22 -10 -32 -5q-12 3 -9 23q2 24 -9.5 40.5t-33.5 16.5q-27 0 -41 -13t-15 -33q0 -11 4.5 -21t18.5 -22.5t22.5 -19t30.5 -22.5q59 -43 73.5 -81t2.5 -95q-8 -39 -41 -74.5
t-85 -52.5q-3 -1 -17 -4t-19 -7.5t-8 -16.5q-10 -32 -14 -43q-8 -25 -35 -30q-13 -3 -19 7t-4 23l8 42q3 12 -3 17.5t-24 11.5q-25 9 -37.5 14t-26 19.5t-12.5 33.5z" />
    <glyph glyph-name="percent" unicode="%" horiz-adv-x="778" 
d="M150 221q-49 0 -73 34t-21 84q0 32 13.5 75t30.5 73q38 64 86.5 98t86.5 34q43 0 65.5 -31.5t20.5 -92.5q-1 -29 -14 -71t-31 -72q-26 -47 -75.5 -89t-88.5 -42zM221 520q-17 0 -32.5 -31.5t-20.5 -90.5q-3 -45 4 -58t23 -13q24 0 36 33t16 100q2 60 -26 60zM163 -27
q-15 4 -12 18t28 47q103 135 354 497q33 48 46 73q6 9 21.5 8.5t17.5 -11.5q5 -33 -8 -76q-8 -30 -36 -66q-18 -22 -86.5 -111.5t-150.5 -197.5t-107 -141q-39 -49 -67 -40zM547 -19q-49 0 -73 34.5t-21 84.5q0 31 13.5 74t30.5 74q38 63 86.5 97.5t86.5 34.5
q43 0 65.5 -31.5t21.5 -92.5q-1 -30 -14.5 -71.5t-31.5 -71.5q-27 -48 -75.5 -90t-88.5 -42zM618 281q-17 0 -32.5 -31.5t-19.5 -90.5q-3 -45 4 -58t23 -13q43 0 52 133q2 60 -27 60z" />
    <glyph glyph-name="ampersand" unicode="&#x26;" horiz-adv-x="483" 
d="M227 -8q-185 0 -185 147q0 72 55.5 130.5t120.5 78.5q14 6 14 11q0 9 -16 12q-31 9 -45 26t-14 51q1 67 75 114t159 47q49 0 89.5 -19t39.5 -61q-1 -26 -22 -49t-48 -36q-36 -14 -50 -8q-6 3 -8 11t3 17q12 20 13 40q1 18 -8.5 30.5t-35.5 12.5q-29 0 -49 -23.5
t-22 -63.5q-4 -63 41 -63q27 0 39 2q10 1 14 -10t-1 -23q-14 -28 -34 -29q-75 -4 -120.5 -57t-45.5 -131q0 -43 18.5 -67t48.5 -24q37 0 56 21.5t21 53.5q1 15 -10.5 26t-37.5 2q-25 -9 -34 -7q-3 2 -6 5.5t-4.5 12t4.5 19.5q14 27 57.5 53.5t72.5 26.5q54 0 78.5 -22.5
t21.5 -70.5q-3 -73 -83 -129.5t-162 -56.5z" />
    <glyph glyph-name="quotesingle" unicode="'" horiz-adv-x="186" 
d="M249 616q29 0 14 -38q-6 -15 -39.5 -79t-45.5 -106q-3 -13 -16 -20.5t-23 -8.5q-27 0 -20 29q5 27 6.5 63t0.5 62t0 53q1 14 6 22t9 10t16 6q22 7 92 7z" />
    <glyph glyph-name="parenleft" unicode="(" horiz-adv-x="290" 
d="M353 635q10 -18 -15 -43q-58 -51 -103.5 -156t-56.5 -215q-10 -57 -6.5 -133t21.5 -115q12 -18 -4 -34q-8 -5 -27 2t-31 18q-47 38 -71.5 114.5t-12.5 168.5q19 120 88 221t150 157q16 11 38 16.5t30 -1.5z" />
    <glyph glyph-name="parenright" unicode=")" horiz-adv-x="290" 
d="M3 -56q-10 18 16 43q57 51 102.5 156t56.5 215q10 58 6.5 133.5t-21.5 114.5q-12 18 5 35q7 4 26 -3.5t31 -17.5q47 -38 71.5 -114.5t12.5 -167.5q-19 -121 -87.5 -222t-150.5 -157q-16 -11 -38 -16.5t-30 1.5z" />
    <glyph glyph-name="asterisk" unicode="*" horiz-adv-x="412" 
d="M332 509q-11 -21 -21 -49q-2 -8 2 -11.5t13 -1.5q70 16 91 27q27 14 36 -1.5t-1 -41.5q-15 -45 -62 -45q-7 0 -29 2.5t-36 2.5q-17 0 -9 -18q19 -39 65 -83q21 -17 15 -36t-43 -18q-55 0 -74 49q-3 7 -8.5 29t-10.5 34q-5 16 -21 6q-55 -34 -91 -70q-21 -21 -34 -12
t-15 34q-2 48 33 66q8 5 33 13t34 12q17 8 2 21q-26 18 -99 41q-14 5 -18.5 13t-1 16.5t10.5 16t16 12.5q45 22 80 -4q30 -28 47 -47q14 -12 17 9q10 50 5 99q-2 22 11 24.5t39 -10.5q51 -24 24 -79z" />
    <glyph glyph-name="plus" unicode="+" horiz-adv-x="455" 
d="M72 261q-15 0 -20 9.5t1 21.5q9 20 45 20l110 3q12 1 15.5 4.5t6.5 15.5q2 10 10 41.5t13 54.5q6 28 37 41q10 6 16.5 -0.5t4.5 -23.5q-18 -73 -26 -109q-2 -14 0.5 -18t12.5 -3l93 9q3 0 8 1t8 1.5t7.5 1t6.5 0.5t5.5 -0.5t4.5 -1.5t3 -2.5t1.5 -4t-0.5 -5.5
q-3 -8 -14.5 -24.5t-23.5 -22.5q-12 -7 -39 -7q-31 0 -66 -1q-12 -1 -16.5 -5.5t-8.5 -18.5q-6 -18 -11.5 -43.5t-7.5 -31.5q-6 -26 -15 -38q-8 -11 -27.5 -19t-27.5 -8q-16 0 -4 31l6 15q4 17 9 32.5t11 33t10 29.5q7 23 -16 23q-54 -1 -122 -1z" />
    <glyph glyph-name="comma" unicode="," horiz-adv-x="267" 
d="M-6 -165q33 22 54.5 53t28.5 59q3 18 -3 36t-21 20q-20 0 -23 6q-6 12 0 25q14 23 44 49t51 26q35 0 49.5 -32t3.5 -72q-37 -116 -159 -207q-11 -6 -22 -4.5t-16 9.5q-3 6 1.5 16.5t11.5 15.5z" />
    <glyph glyph-name="hyphen" unicode="-" horiz-adv-x="305" 
d="M77 298q1 0 64.5 6t89.5 16q31 11 35.5 -1.5t-9.5 -33.5q-28 -55 -75 -56q-60 -2 -118 -2q-17 0 -22.5 11t1.5 25q13 30 34 35z" />
    <glyph glyph-name="period" unicode="." horiz-adv-x="252" 
d="M107 122q27 2 49.5 -11.5t22.5 -38.5q0 -38 -22.5 -56.5t-52.5 -23.5q-39 -3 -59 14.5t-20 43.5q0 30 25.5 50t56.5 22z" />
    <glyph glyph-name="slash" unicode="/" horiz-adv-x="380" 
d="M-1 -27q-15 4 -12 18t28 47q103 135 354 497q33 48 46 73q6 9 21.5 8.5t17.5 -11.5q5 -33 -8 -76q-7 -27 -36 -66q-18 -22 -86.5 -111.5t-150.5 -197.5t-107 -141q-39 -49 -67 -40z" />
    <glyph glyph-name="zero" unicode="0" horiz-adv-x="517" 
d="M339 619q88 0 131 -69.5t27 -174.5q-29 -197 -108.5 -293t-182.5 -96q-43 0 -75 18.5t-48 46.5t-26.5 61.5t-10 63.5t1.5 53q20 179 109.5 284.5t181.5 105.5zM327 540q-9 0 -17.5 -3t-24 -17.5t-29.5 -39.5t-30 -75t-28 -117q-12 -63 -14.5 -108.5t0.5 -67.5t11.5 -34.5
t15 -14.5t15.5 -2q38 0 66 58t55 207q37 214 -20 214z" />
    <glyph glyph-name="one" unicode="1" horiz-adv-x="417" 
d="M123 -9q-16 -3 -24.5 7.5t-2.5 30.5q21 52 67.5 199.5t62.5 208.5q4 13 -2 16.5t-16 -5.5q-13 -11 -29.5 -28.5t-35 -39t-21.5 -25.5q-10 -11 -27 -6t-22 17q-12 33 16 54q84 64 142 130q3 3 11.5 12.5t16 17.5t10.5 12q7 9 48.5 15.5t62.5 6.5q18 0 21.5 -12.5
t-5.5 -39.5q-75 -247 -121 -497q-1 -3 -1.5 -7.5t-1 -7t-1.5 -6t-1.5 -5.5t-2 -5.5t-3 -5t-4 -4.5t-5.5 -5t-6.5 -4t-8.5 -4q-37 -14 -117 -20z" />
    <glyph glyph-name="two" unicode="2" horiz-adv-x="549" 
d="M245 659q9 -2 13.5 -8.5t1.5 -14.5q-6 -11 -3 -29.5t18 -18.5q21 0 70 12t74 12q109 0 95 -81q-10 -61 -37.5 -107.5t-98.5 -119.5q-23 -23 -41 -39.5t-27.5 -24t-32.5 -26t-38 -30.5q-13 -12 -4 -17q4 -3 10 0q19 6 48 6t58 -19q24 -19 53 -19q37 0 53 37q12 28 35 28
t23 -31q0 -45 -56 -113t-120 -68q-26 0 -44 17q-46 39 -101 39q-98 0 -143 -36q-14 -10 -31.5 -14.5t-29.5 3.5q-11 11 2 47q14 35 41.5 68.5t53.5 40.5q25 7 40.5 16t42.5 30q108 82 147 125q58 63 58 113q0 18 -10.5 28.5t-29.5 10.5q-22 0 -71 -13.5t-78 -13.5
q-27 0 -37.5 25t-3.5 61q5 24 24 56t33 47q21 24 43 21z" />
    <glyph glyph-name="three" unicode="3" horiz-adv-x="503" 
d="M117 -7q-54 0 -84 19t-30 54q0 33 31 69.5t65 46.5q21 4 29 -4t2 -30q-6 -30 6.5 -48t42.5 -18q51 0 97 28.5t46 72.5q0 45 -24.5 58.5t-72.5 12.5q-49 -1 -61.5 13.5t0.5 43.5q21 62 60 68q57 5 90.5 24.5t33.5 50.5q0 35 -35 35q-26 0 -64 -9t-65 -9q-41 0 -57.5 19.5
t-14.5 60.5q3 46 44 93q7 10 20 16.5t23 3.5q10 -2 14 -14t-1 -15q-8 -15 -9.5 -24t3.5 -12.5t9 -4.5t11 -1q27 0 69 11q33 10 84 10t74 -28t18 -57q-15 -89 -96 -144q-18 -13 -22 -19.5t1 -8.5t19 -3q42 -5 58.5 -39.5t13.5 -78.5q-5 -85 -105.5 -164t-222.5 -79z" />
    <glyph glyph-name="four" unicode="4" horiz-adv-x="610" 
d="M506 613q31 1 36.5 -17.5t-11.5 -56.5q-8 -21 -36 -124.5t-35 -148.5q0 -7 5.5 -8.5t29.5 -1.5q29 0 56 35q16 21 34 14q17 -7 13 -24q-30 -84 -59 -114q-21 -21 -35 -21q-8 0 -22.5 3t-21.5 3q-12 0 -19 -8t-13 -30q-10 -42 -10 -72q3 -35 -19 -52q-15 -14 -64 -22
t-72 -8q-22 0 -22 23q0 9 9.5 34.5t16.5 36.5q11 27 24 88q1 9 -3.5 15t-17 8.5t-23 3t-29.5 0.5q-29 0 -72.5 -8t-71.5 -8q-37 0 -37 31q0 52 51 103q148 132 247 225q1 2 12 14t19 22.5t12 18.5q19 37 128 46zM363 428q3 14 -5.5 15t-19.5 -9q-118 -99 -161 -144
q-9 -12 -5.5 -14.5t16.5 -2.5q9 0 25 3t24 3q37 0 56 -6q10 -3 15.5 0t11.5 17q32 88 43 138z" />
    <glyph glyph-name="five" unicode="5" horiz-adv-x="488" 
d="M456 650q8 -3 12.5 -15t0.5 -25q-2 -8 -22 -55t-24 -55q-22 -39 -85 -39q-43 0 -95 29q-29 13 -39 -8q-9 -19 -15 -38q-7 -23 21 -27q59 -14 112 -33q62 -26 95.5 -60t33.5 -91q0 -86 -89.5 -165.5t-207.5 -79.5q-136 0 -136 75q0 26 22.5 55t59.5 50q28 17 45 7
q12 -7 7 -34q-11 -76 49 -76q45 0 87 28t42 88q0 51 -56 78q-59 27 -184 56q-14 2 -18 16t4 28q14 23 56 114t52 110q7 18 15.5 23t34.5 5q18 0 72 -14q26 -8 51 -8q23 0 36.5 8.5t23.5 32.5q9 27 39 20z" />
    <glyph glyph-name="six" unicode="6" horiz-adv-x="511" 
d="M458 609q4 -7 3 -15.5t-15 -20.5t-37 -21q-100 -37 -160.5 -122.5t-67.5 -201.5q-11 -158 59 -158q34 0 58.5 46t29.5 112q7 91 -29 91q-18 0 -27 -4q-27 -11 -35 7q-7 17 23 42q39 34 97 34q51 0 80 -36t29 -89q-1 -69 -29 -126t-69 -90.5t-84 -51.5t-79 -18
q-68 0 -115 55t-45 145q1 73 31.5 143t80 123t108 92.5t120.5 61.5q22 8 44 9t29 -7z" />
    <glyph glyph-name="seven" unicode="7" horiz-adv-x="443" 
d="M104 -33q-17 -2 -27.5 7t-10.5 34q0 46 57.5 147.5t106.5 169.5t95 127q13 17 5.5 24.5t-33.5 0.5q-104 -26 -147 -26q-64 0 -64 72q0 25 15.5 59t37.5 60q7 9 19.5 15.5t21.5 3.5q16 -6 12 -28q-5 -16 -2 -26.5t24 -15.5t69 -5q25 0 48 2.5t37 5t46.5 9.5t53.5 11
q25 6 37 -10t-2 -29q-101 -105 -185.5 -256t-82.5 -247q1 -34 -5 -46t-23 -24q-12 -9 -47 -20.5t-56 -14.5z" />
    <glyph glyph-name="eight" unicode="8" horiz-adv-x="511" 
d="M204 -16q-78 0 -127.5 36.5t-49.5 102.5q0 112 103 164q10 5 13 7t9 7t3.5 10.5t-10.5 12.5q-13 10 -23 34t-9 54q2 82 80 139.5t159 57.5q61 0 103 -29t42 -84q0 -49 -20.5 -77.5t-64.5 -56.5q-11 -7 -14 -11t-0.5 -8.5t13.5 -11.5q62 -40 55 -126q-7 -95 -86 -158
t-176 -63zM253 66q14 0 29 3.5t32.5 12.5t29 27.5t11.5 44.5q0 14 -2.5 25.5t-10 21t-12.5 15.5t-19.5 13.5t-20.5 10.5t-26 11.5t-27 11.5q-25 10 -41 -2l-6 -5q-5 -4 -6.5 -5.5t-7 -6.5t-8 -8.5t-7 -9.5t-6.5 -12t-5 -14t-4 -17t-1 -19q0 -42 32.5 -70t75.5 -28zM361 396
q26 24 26 67q0 26 -22.5 46t-56.5 20q-38 0 -60 -18t-22 -50q0 -19 15.5 -34.5t28.5 -22.5t42 -19q6 -3 10.5 -4.5t8 -2.5t7 0t5 1t4.5 2.5t4 3.5l5 5t5 6z" />
    <glyph glyph-name="nine" unicode="9" horiz-adv-x="511" 
d="M64 -14q-4 7 -3 15.5t15 20.5t37 21q101 37 164.5 126.5t70.5 204.5q6 81 -5.5 119.5t-47.5 38.5q-38 0 -64 -45.5t-31 -112.5q-7 -91 31 -91q16 0 27 4q10 5 20 3t14 -11q7 -17 -23 -42q-40 -33 -96 -33q-51 0 -80.5 36t-29.5 89q1 69 28.5 126t68 90.5t83 51.5t78.5 18
q68 0 116.5 -55t47.5 -145q-1 -77 -34.5 -149.5t-86.5 -126t-111.5 -92t-115.5 -59.5q-22 -8 -44.5 -8.5t-28.5 6.5z" />
    <glyph glyph-name="colon" unicode=":" horiz-adv-x="267" 
d="M107 122q27 2 49.5 -11.5t22.5 -38.5q0 -38 -22.5 -56.5t-52.5 -23.5q-39 -3 -59 14.5t-20 43.5q0 30 25.5 50t56.5 22zM166 421q27 2 49.5 -12t22.5 -39q0 -37 -23 -55.5t-53 -23.5q-38 -3 -58 14t-20 43q0 31 25 51t57 22z" />
    <glyph glyph-name="semicolon" unicode=";" horiz-adv-x="267" 
d="M163 421q27 2 50 -12t23 -39q0 -66 -76 -79q-39 -3 -58.5 14t-19.5 43q0 31 25 51t56 22zM-15 -165q32 22 54 53.5t28 58.5q4 18 -2 36t-21 20q-20 0 -23 6q-6 12 0 25q12 22 43 48.5t52 26.5q35 0 49.5 -32t2.5 -72q-37 -116 -159 -207q-10 -6 -21 -4.5t-16 9.5
q-4 6 1 16.5t12 15.5z" />
    <glyph glyph-name="less" unicode="&#x3c;" horiz-adv-x="362" 
d="M66 257q183 92 215 111q11 5 45 32q4 4 8 6t7.5 3t6 -1.5t2.5 -7.5q1 -8 -4.5 -30.5t-9.5 -28.5q-20 -23 -47 -35q-18 -8 -52 -23t-60.5 -27t-46.5 -22q-11 -9 -5 -17q14 -14 141 -92q14 -9 13.5 -21.5t-12.5 -21.5q-22 -14 -35 -5q-8 5 -45 27.5t-85.5 51.5t-64.5 39
q-11 6 -2 26q0 1 2.5 5.5t3 5.5t2.5 4.5t3 4.5t3.5 4t4.5 4.5t5 3.5t7 4z" />
    <glyph glyph-name="equal" unicode="=" horiz-adv-x="488" 
d="M105 277q-44 0 -20 29q20 25 46 25q138 2 292 13q37 6 41 2q3 -4 1 -10q-1 -9 -11.5 -26.5t-23.5 -23.5q-13 -7 -40 -7q-24 0 -143 -1t-142 -1zM63 112q-44 0 -20 29q20 25 46 25q138 2 291 13q39 6 42 2q3 -3 1 -10q-1 -9 -11.5 -26.5t-23.5 -23.5q-13 -7 -40 -7
q-24 0 -143 -1t-142 -1z" />
    <glyph glyph-name="greater" unicode="&#x3e;" horiz-adv-x="362" 
d="M302 230q-195 -99 -214 -111q-4 -2 -13 -8.5t-19 -14t-13 -9.5q-5 -5 -10.5 -8t-9.5 -1t-4 9q-1 7 4.5 29t9.5 30q15 19 47 34q16 8 74.5 34t83.5 39q14 7 5 16q-7 7 -61.5 42.5t-78.5 49.5q-14 9 -13.5 21.5t12.5 21.5q23 15 34 6q7 -6 45 -28.5t86 -51t65 -39.5
q10 -6 1 -26q-11 -24 -31 -35z" />
    <glyph glyph-name="question" unicode="?" horiz-adv-x="465" 
d="M204 167q-14 -3 -22.5 5.5t-7.5 19.5q9 70 83 119q61 40 85.5 78t27.5 98q0 21 -16.5 40.5t-42.5 19.5q-40 0 -65 -19.5t-25 -50.5t15 -41q4 -3 9.5 -6t7 -4.5t3 -3.5t2.5 -6q4 -10 -14 -23q-29 -22 -66 -22t-61.5 19t-24.5 58q0 55 73 112t167 57q58 0 96.5 -13.5
t53.5 -35.5t20 -38t5 -33q1 -58 -40 -107.5t-126 -98.5q-97 -56 -104 -99q-1 -10 -11 -16.5t-22 -8.5zM184 122q27 2 49.5 -11.5t22.5 -38.5q0 -67 -76 -80q-38 -3 -58 14.5t-20 43.5q0 30 25.5 50t56.5 22z" />
    <glyph glyph-name="at" unicode="@" horiz-adv-x="869" 
d="M559 640q57 0 103.5 -12t85.5 -38t60.5 -71t21.5 -107q0 -89 -35.5 -172t-100.5 -143q-122 -110 -192 -110q-36 0 -50.5 20.5t-12 45t13.5 51.5q7 19 2 22q-11 5 -24 -9q-73 -86 -112 -111q-37 -25 -69.5 -7.5t-32.5 66.5q0 106 48 205q25 51 70 92t93 65q33 16 76 10
q32 -5 62 -19q12 -5 37 10q31 19 46 32q30 22 45 15q18 -10 9 -27q-50 -77 -60 -102q-44 -111 -55 -184q-6 -37 11 -37q27 2 58 26q55 41 87.5 112.5t32.5 141.5q0 96 -62 140.5t-165 44.5q-98 0 -193.5 -59.5t-158 -162.5t-65.5 -219q-1 -74 17.5 -131t47.5 -90t69 -54.5
t76 -28.5t74 -7q83 0 162 31t110 64q19 19 35 3q12 -12 -4 -34q-44 -53 -143.5 -96t-203.5 -43q-57 0 -112 17t-106 53t-82 102t-31 153q0 130 68.5 257t189.5 211t259 84zM392 145q34 30 69 86q22 32 37 87q8 31 -6 41q-18 12 -32 13q-32 1 -57 -40q-47 -74 -52 -162
q-2 -25 10.5 -33.5t30.5 8.5z" />
    <glyph glyph-name="A" unicode="A" horiz-adv-x="701" 
d="M510 602q10 -87 37 -266.5t32 -199.5q5 -28 9.5 -40.5t18 -24.5t38.5 -20q7 -2 12 -11t5 -16q-1 -9 -8.5 -18t-21.5 -8q-64 5 -253 -1q-8 0 -14 7t-6 14q0 21 14 25q50 14 51 46q3 25 -7 70q-3 10 -21 14q-23 4 -84 4t-78 -2q-34 -2 -42 -15q-25 -38 -30 -66
q-4 -16 9.5 -30t34.5 -18q8 -1 15.5 -9.5t5.5 -16.5q-2 -9 -13.5 -15.5t-23.5 -5.5q-32 3 -87 3t-84 -2q-11 -1 -20 0t-15 4t-6 7q2 18 15 35t37 38.5t26 23.5q56 62 140 173t139 195q21 33 32 62q8 22 37.5 42.5t60.5 33.5q43 17 45 -12zM371 407q-6 0 -32 -37
q-70 -100 -81 -118q-16 -23 11 -25q36 -2 124 -1q11 0 15 5t3 20q-7 58 -21 127q-6 29 -19 29z" />
    <glyph glyph-name="B" unicode="B" horiz-adv-x="640" 
d="M192 460q9 48 2 67q-6 17 -50 15q-12 -1 -19 6.5t-7 17.5t8 20.5t24 11.5q90 12 213 12q22 0 36 -0.5t41 -1.5t45.5 -4t43 -8t40.5 -13t31 -19t21 -27.5t4 -36.5q-6 -73 -114 -117q-15 -6 -12 -15t21 -9q47 -1 71 -32.5t24 -77.5q-2 -86 -88.5 -173t-205.5 -87
q-54 0 -115.5 10t-90.5 33q-24 16 -7 77q14 60 41.5 172t42.5 179zM262 118q-5 -31 5.5 -48.5t54.5 -17.5q55 0 89.5 47.5t42.5 125.5q4 43 -11 63t-56 19q-32 -1 -39 6.5t3 30.5q4 9 7 13.5t12.5 9t25.5 6.5q24 2 43 28.5t26 73.5q6 46 -13 63t-59 17q-20 0 -27.5 -9
t-13.5 -32q-60 -220 -90 -396z" />
    <glyph glyph-name="C" unicode="C" horiz-adv-x="560" 
d="M260 -11q-53 0 -93 21t-60 54.5t-29.5 69t-8.5 71.5q3 166 115.5 288t243.5 122q85 0 114 -24t24 -62q-4 -35 -28.5 -67t-66.5 -48q-26 -11 -41 -4q-5 2 -6.5 12.5t3.5 19.5q15 22 5 57.5t-42 35.5q-17 0 -36 -6t-44.5 -26t-45 -51.5t-33 -88.5t-13.5 -130q0 -72 31 -109
t72 -37q40 0 80 13.5t64 35.5q9 10 25.5 11.5t22.5 -3.5q8 -5 7 -16.5t-9 -20.5q-112 -118 -251 -118z" />
    <glyph glyph-name="D" unicode="D" horiz-adv-x="671" 
d="M120 569q0 9 11.5 19.5t26.5 11.5q85 9 205 9q73 0 118 -5q75 -9 123.5 -63.5t48.5 -141.5q0 -101 -50 -196t-132.5 -154t-170.5 -59q-48 0 -102.5 10.5t-82.5 32.5q-24 15 -7 76q16 69 44 182t41 166q11 33 5 60t-41 26q-17 -1 -27 7.5t-10 18.5zM353 513
q-66 -237 -92 -398q-1 -14 -0.5 -26.5t13 -21t38.5 -8.5q78 0 125.5 88.5t66.5 222.5q25 176 -112 176q-20 -1 -27 -7t-12 -26z" />
    <glyph glyph-name="E" unicode="E" horiz-adv-x="511" 
d="M224 -8q-95 0 -140.5 36.5t-43.5 110.5q1 73 45 122.5t114 68.5q18 4 18 13q0 10 -16 14q-37 7 -56 32.5t-17 66.5q5 71 84.5 114.5t173.5 43.5q24 0 46 -2.5t47 -9.5t39.5 -22t12.5 -37q-2 -27 -26 -54t-61 -39q-31 -11 -43 -4q-4 3 -6 10.5t3 15.5q12 19 13 46
q2 39 -47 39q-38 0 -66.5 -23t-32.5 -69q-4 -44 16 -68t50 -26q27 -3 38 -1q13 1 17.5 -9.5t-4.5 -29.5q-14 -28 -37 -30q-71 -4 -114.5 -39.5t-43.5 -99.5q0 -37 20.5 -61t54.5 -24q73 0 142 69q6 6 19 9.5t26 -1.5q20 -12 5 -33q-35 -55 -104 -92t-126 -37z" />
    <glyph glyph-name="F" unicode="F" horiz-adv-x="618" 
d="M135 587q1 9 12 17t32 5q30 -2 148 -2q47 0 173 4t130 4q40 0 53.5 -15.5t10.5 -37.5q-4 -25 -19.5 -59t-38.5 -53q-33 -22 -43 -18q-16 5 -11 25q9 39 -9.5 66t-49.5 29q-108 8 -136 0q-21 -6 -26 -23q-24 -70 -37 -134q-8 -31 -3.5 -41t33.5 -10q91 0 119 70
q4 10 14.5 15t17.5 3q22 -5 15 -29q-14 -38 -49 -179q-2 -9 -10.5 -15.5t-19.5 -6.5q-10 0 -16.5 6t-5.5 15q7 27 -18.5 46t-68.5 19q-17 0 -23.5 -5.5t-10.5 -19.5q-22 -74 -33 -138q-6 -50 29 -64q33 -15 31 -37q-2 -9 -14 -17.5t-27 -6.5q-59 7 -272 -2q-7 -1 -12 5.5
t-4 15.5q0 12 17 23.5t30 13.5q43 6 69 68q10 25 47 176.5t44 188.5q8 57 -59 70q-8 1 -10 12.5t1 15.5z" />
    <glyph glyph-name="G" unicode="G" horiz-adv-x="626" 
d="M387 537q-18 0 -38.5 -5.5t-48 -25t-49 -49.5t-36.5 -85t-15 -126q0 -89 37.5 -136.5t82.5 -48.5q39 0 64 36t27 81q1 46 -16.5 61t-68.5 19q-10 0 -23 9t-13 21q0 8 10.5 14.5t26.5 5.5q48 -3 141 -2t116 4q15 1 22.5 -7.5t7.5 -15.5q-1 -9 -9.5 -17.5t-16.5 -8.5
q-12 0 -19.5 -2t-11.5 -3.5t-5 -6t-1 -5.5t2 -8l2 -7q4 -19 -1 -44q-19 -96 -96.5 -146.5t-183.5 -50.5q-58 0 -104 24.5t-70.5 62t-36.5 76.5t-12 75q4 166 117.5 277.5t256.5 111.5q89 0 131.5 -25.5t37.5 -60.5q-4 -35 -29 -66.5t-66 -48.5q-28 -11 -44 -4
q-5 2 -6.5 12.5t3.5 19.5q15 27 -4.5 61t-60.5 34z" />
    <glyph glyph-name="H" unicode="H" horiz-adv-x="810" 
d="M624 487q5 58 -59 70q-8 2 -10 13t1 15q1 9 12 17t32 6q22 -3 118 -3t137 3q15 1 20.5 -6.5t3.5 -19.5q-9 -23 -29 -26q-33 -7 -50 -23t-29 -50q-6 -17 -43 -167.5t-42 -190.5q-6 -50 29 -64q33 -15 31 -37q-2 -9 -14 -17.5t-27 -6.5q-59 7 -272 -2q-7 -1 -12 5.5
t-4 15.5q0 12 17 23.5t30 13.5q43 6 69 68q6 15 41 153q5 20 1.5 25.5t-20.5 5.5h-223q-14 0 -22 -5.5t-13 -25.5q-27 -111 -32 -152q-6 -50 29 -64q33 -15 31 -37q-2 -9 -14 -17.5t-27 -6.5q-59 7 -272 -2q-7 -1 -12 5.5t-4 15.5q0 12 17 23.5t30 13.5q43 6 69 68
q10 25 47 176t44 187q8 57 -59 70q-8 2 -10 13t1 15q1 9 12 17t32 6q23 -3 118.5 -3t136.5 3q15 1 20.5 -6.5t3.5 -19.5q-7 -23 -29 -26q-33 -6 -49 -22.5t-30 -50.5q-8 -21 -23 -85q-3 -18 3 -23t22 -5h213q18 0 26.5 8t13.5 29q17 62 19 80z" />
    <glyph glyph-name="I" unicode="I" horiz-adv-x="388" 
d="M434 606q15 1 20 -6.5t3 -19.5q-8 -23 -29 -26q-33 -7 -50 -23t-29 -50q-8 -25 -43.5 -171t-40.5 -185q-6 -50 29 -64q33 -15 31 -37q-2 -9 -14 -17.5t-27 -6.5q-59 7 -272 -2q-7 -1 -12 5.5t-4 15.5q0 12 17 23.5t30 13.5q43 6 69 68q10 26 48.5 179t41.5 183
q2 20 -3.5 34t-18.5 21t-19.5 9.5t-17.5 5.5q-8 1 -10 12t1 15q6 27 44 23q22 -2 118 -2t138 2z" />
    <glyph glyph-name="J" unicode="J" horiz-adv-x="366" 
d="M173 606q22 -2 118 -2t137 2q15 1 20.5 -6.5t3.5 -19.5q-8 -23 -29 -26q-33 -7 -50 -23t-29 -50q-1 -4 -11 -47t-25.5 -106.5t-28.5 -108.5q-20 -65 -55 -149q-57 -134 -148.5 -220.5t-169.5 -86.5q-52 0 -82 20t-29 56q0 57 65 102q21 15 39.5 19t24.5 1q10 -3 13.5 -16
t-2.5 -25q-14 -25 -7 -48t34 -20q29 2 55.5 33.5t58.5 127.5q24 68 53 181q52 197 68 292q4 25 -9.5 42t-23.5 20.5t-26 7.5q-8 1 -10 12t1 15q1 9 12 17t32 6z" />
    <glyph glyph-name="K" unicode="K" horiz-adv-x="778" 
d="M178 608q23 -3 119 -3t137 3q15 1 20.5 -6.5t3.5 -19.5q-3 -9 -11 -17.5t-18 -9.5q-33 -7 -50 -23t-29 -50q-28 -85 -39 -149q-2 -7 5.5 -10.5t14.5 3.5q104 98 210 192q114 96 176 96q35 0 52 -13t17 -43q0 -17 -11 -51.5t-24 -53.5q-29 -41 -54 -37q-15 2 -20 23
q-9 32 -33 32q-46 0 -87 -26q-45 -30 -101 -85q-12 -12 -3 -33q34 -84 104 -179q45 -60 103 -60q24 0 60 11q7 3 17 0t14 -13q2 -7 -3 -19t-16 -18q-87 -57 -161 -57q-54 0 -82 16.5t-49 46.5q-32 45 -50 78.5t-53 109.5q-13 26 -27 15q-18 -12 -21 -28q-15 -48 -23 -105
q-6 -50 29 -64q33 -15 31 -37q-2 -9 -14 -17.5t-27 -6.5q-59 7 -273 -2q-7 -1 -12 5.5t-4 15.5q0 12 17 23.5t30 13.5q43 6 69 68q10 27 49 180t42 183q6 58 -52 69q-11 3 -15.5 11.5t-1.5 17.5q7 27 44 23z" />
    <glyph glyph-name="L" unicode="L" horiz-adv-x="624" 
d="M179 609q23 -3 118.5 -3t136.5 3q29 0 24 -27q-3 -8 -11 -16t-18 -10q-33 -6 -49.5 -22t-29.5 -50q-5 -12 -37.5 -146.5t-48.5 -207.5q-7 -28 -3.5 -41t24.5 -19q36 -11 97 -3q59 7 106.5 41t70.5 83q11 25 34 23q10 -1 14.5 -12.5t-2.5 -33.5q-41 -129 -108 -165
q-28 -9 -58 -6q-24 2 -61 4.5t-50.5 3.5t-52 2t-66.5 0q-24 0 -104.5 -4.5t-92.5 -4.5q-7 -1 -12 5.5t-4 15.5q0 12 17 23.5t30 13.5q43 6 69 68q10 25 47 176t44 188q8 57 -59 70q-8 2 -10 13t1 15q1 9 12 17t32 6z" />
    <glyph glyph-name="M" unicode="M" horiz-adv-x="1023" 
d="M187 585q1 9 13 15.5t23 6.5q129 0 149 -4q28 -6 49 -28.5t24 -50.5q3 -22 24.5 -168t24.5 -178q1 -8 9.5 -9t15.5 9q50 76 183 322q56 101 162 106q27 2 115 2q10 0 14.5 -8.5t3.5 -18.5q-1 -7 -10 -16t-14 -11q-37 -9 -50.5 -25.5t-15.5 -47.5q-9 -114 -5 -362
q0 -32 9 -45.5t36 -20.5q10 -3 19 -12.5t8 -20.5q-1 -10 -10.5 -17t-23.5 -5q-54 6 -128 6t-122 -4q-14 -1 -24 6t-10 17q0 23 23 30q63 22 68 69q8 103 6 296q0 10 -4 12t-9 -1.5t-9 -10.5q-19 -30 -94.5 -164t-113.5 -212q-11 -20 -22 -26q-16 -9 -54 -18.5t-61 -9.5
q-7 0 -11.5 2t-7.5 6.5t-4.5 9t-2 12t-1 12.5t0 13t0.5 11q0 150 -42 358q-6 32 -25 0q-10 -22 -48 -101t-58 -129q-19 -49 -16 -83q3 -36 40 -46q24 -7 26 -32q0 -8 -10.5 -16t-22.5 -7q-33 4 -89 4t-84 -2q-30 -3 -35 13q-2 7 5.5 18.5t22 28.5t21.5 27q41 58 112 186.5
t92 186.5q30 84 -44 93q-10 1 -15.5 11.5t-2.5 20.5z" />
    <glyph glyph-name="N" unicode="N" horiz-adv-x="740" 
d="M99 592q12 17 39 17q82 0 139 -11q173 -41 286 -389q9 -27 19 -27q3 -1 7 6t7 16q41 174 44 270q1 27 -9 43t-24 22t-46 16q-14 4 -20 13t-3 17q0 1 1 3t1.5 3.5t1.5 4t2.5 4l4 4t5 3t6 2t8 1t10.5 -0.5q76 -9 163 -1q15 1 28 -10t0 -32l-5 -6q-5 -5 -9.5 -10.5
t-10.5 -14t-11 -20.5t-9 -26q-55 -199 -98 -436q0 -3 -1 -7t-1 -6t-1 -5.5t-1.5 -5l-1.5 -4.5t-2 -4t-2 -3t-3 -3l-4 -2t-5 -2q-42 -12 -114 -15q-32 -2 -32 25q-1 64 -31 158.5t-71.5 170.5t-74.5 91q-25 12 -32 -11q-2 -8 -13.5 -63t-21.5 -106.5t-15 -91.5
q-13 -100 53 -113q9 -1 19 -11t9 -21t-15.5 -19t-27.5 -6q-58 5 -181 -2q-13 0 -16 8.5t1 20t12 21.5q32 45 41 65q49 113 104 367q4 17 1.5 28.5t-7 19.5t-14 13t-20 8.5t-24.5 7.5q-2 0 -4 0.5t-4 1.5q-36 10 -27 34z" />
    <glyph glyph-name="O" unicode="O" horiz-adv-x="692" 
d="M428 614q121 0 183 -72.5t60 -172.5q-3 -94 -48 -182t-125.5 -146t-175.5 -58q-58 0 -103 17.5t-71.5 43.5t-43.5 61.5t-23 67t-6 63.5q0 90 49 177.5t131.5 144t172.5 56.5zM224 260q-9 -98 22.5 -148.5t83.5 -50.5q28 0 56.5 14.5t58 45t51 90t27.5 138.5
q6 83 -23 134.5t-89 51.5q-57 0 -116 -71.5t-71 -203.5z" />
    <glyph glyph-name="P" unicode="P" horiz-adv-x="633" 
d="M178 609q30 -5 124 -5q38 0 106.5 1.5t89.5 1.5q72 1 117 -39.5t41 -103.5q-7 -100 -93 -159t-190 -59q-15 0 -23 10.5t-3 22.5q12 27 38 27q95 0 117 133q18 111 -80 111q-31 0 -44.5 -8t-19.5 -29q-21 -72 -54.5 -211t-38.5 -177q-6 -50 29 -64q33 -15 31 -37
q-2 -9 -14 -17.5t-27 -6.5q-59 7 -272 -2q-7 -1 -12 5.5t-4 15.5q0 14 15 24t32 13q43 6 69 68q10 25 46.5 175.5t43.5 188.5q8 58 -55 70q-8 2 -11.5 12t-1.5 16q7 27 44 23z" />
    <glyph glyph-name="Q" unicode="Q" horiz-adv-x="688" 
d="M423 614q122 0 184 -72.5t60 -172.5q-3 -94 -48 -182t-126 -146t-175 -58q-34 0 -39 -2.5t-30 -27.5q-7 -7 -5 -13t12 -7q34 -6 55.5 -13t53.5 -20t51 -20q36 -12 68 -12q61 0 114 64q22 27 46 20q10 -2 12 -16.5t-3 -21.5q-44 -82 -102 -134q-46 -39 -78 -39
q-17 0 -35 2.5t-39.5 9t-31.5 10t-36 14t-30 11.5q-93 34 -161 31q-8 0 -47.5 -10t-74.5 -14q-90 -10 -90 23q0 10 17 41.5t26 42.5q7 9 10.5 12.5t10 6.5t17.5 5q50 10 87 13q32 2 64 16q19 10 30 23q18 17 17.5 20.5t-21.5 14.5q-62 34 -88.5 96t-26.5 127
q0 90 48.5 177.5t131 144t172.5 56.5zM220 260q-5 -55 6.5 -106t26.5 -66q12 -12 18 -12t14 13q12 17 42 77q12 28 37 23q9 -2 14.5 -13t0.5 -20q-36 -70 -41 -76q-7 -11 -3 -14.5t16 -0.5q60 15 108.5 84t59.5 200q6 82 -23 132.5t-89 50.5q-57 0 -116 -70t-71 -202z" />
    <glyph glyph-name="R" unicode="R" horiz-adv-x="698" 
d="M174 609q60 -5 124 -5q36 0 101 2t95 2q71 1 116.5 -39.5t41.5 -103.5q-3 -39 -17.5 -68.5t-41.5 -49.5t-48 -31t-56 -24q-13 -5 -15.5 -12t1.5 -24q17 -83 60 -124t86 -33q35 6 46 -7q5 -6 4 -16.5t-9 -15.5q-76 -44 -121 -56q-73 -18 -112 23q-42 46 -68.5 116.5
t-26.5 133.5q0 21 25 28q53 10 91 44t47 91q20 111 -79 111q-31 0 -44.5 -8t-19.5 -30q-20 -67 -54 -207.5t-39 -180.5q-6 -50 29 -64q33 -15 31 -37q-2 -9 -14.5 -17.5t-27.5 -6.5q-58 7 -271 -2q-8 -1 -12.5 5.5t-3.5 15.5q0 14 15 24t32 13q43 6 69 68q10 25 46.5 176
t43.5 189q8 58 -55 70q-9 1 -12 11.5t-1 16.5q1 9 12 17t32 5z" />
    <glyph glyph-name="S" unicode="S" 
d="M192 -8q-58 0 -107.5 26t-49.5 79q2 33 30.5 63.5t65.5 47.5q9 4 22 4t19 -4q4 -4 6 -12.5t-3 -17.5q-14 -22 -11 -60q5 -50 68 -50q34 0 56 18.5t23 50.5q1 23 -3 40t-21.5 36.5t-28.5 29t-45 35.5q-6 5 -10 8q-86 67 -73 175q7 59 65.5 107.5t136.5 48.5
q73 1 114.5 -21t41.5 -53q0 -22 -17 -47.5t-46 -41.5q-30 -17 -40 -10q-15 5 -12 29q2 29 -12.5 53.5t-41.5 24.5q-33 0 -54.5 -17.5t-22.5 -41.5q0 -44 96 -118q107 -89 91 -206q-10 -68 -71.5 -122t-165.5 -54z" />
    <glyph glyph-name="T" unicode="T" horiz-adv-x="620" 
d="M170 610q15 15 66 4q72 -11 208 -10q37 0 105.5 5t74.5 5q39 0 55 -16.5t13 -37.5q-11 -89 -68 -143q-29 -26 -46 -25q-10 1 -12 12.5t2 18.5q50 129 -64 129q-17 1 -24.5 -3t-12.5 -21q-85 -341 -93 -403q-6 -51 43 -64q34 -11 31 -37q-2 -9 -14 -17.5t-27 -6.5
q-60 7 -287 -2q-7 -1 -11.5 5.5t-4.5 15.5q0 12 17 23.5t31 13.5q43 6 69 68q18 50 99 398q6 21 -9 25q-8 4 -28 2q-41 -3 -87 -43t-66 -84q-13 -26 -37 -23q-9 1 -13 12t2 34q11 40 39 92t49 73z" />
    <glyph glyph-name="U" unicode="U" horiz-adv-x="781" 
d="M399 606q15 1 20.5 -6.5t3.5 -19.5q-10 -23 -29 -26q-33 -7 -50 -23t-29 -50q-16 -46 -39.5 -140t-28.5 -135q-7 -52 10 -82.5t74 -30.5q126 0 180 177q39 140 52 216q3 19 -2.5 33t-18.5 21.5t-20 10t-18 5.5q-8 1 -10 12t1 15q2 9 13 17t32 6q22 -2 117.5 -2t137.5 2
q15 1 20.5 -6.5t2.5 -19.5q-8 -23 -28 -26q-34 -7 -50.5 -23t-29.5 -50q-15 -46 -36.5 -145.5t-24.5 -141.5q-4 -56 15.5 -88.5t56.5 -25.5q14 3 23 -4t11 -15q1 -7 -4 -17.5t-14 -14.5q-24 -11 -76 -25t-83 -14q-51 0 -65 24t-9 70q1 11 -2 14.5t-9 0.5t-14 -11
q-88 -94 -216 -94q-90 0 -133.5 55t-27.5 155q5 30 33 138t33 144q2 20 -4 34t-18.5 21t-19 9.5t-17.5 5.5q-14 2 -10 27q2 9 13 17t32 6q22 -2 117.5 -2t137.5 2z" />
    <glyph glyph-name="V" unicode="V" horiz-adv-x="673" 
d="M109 581q0 8 9.5 19t27.5 8q26 -3 104.5 -4t112.5 4q21 3 30.5 -4.5t10.5 -16.5t-9 -19.5t-22 -13.5q-27 -9 -37 -23.5t-4 -50.5q15 -92 36 -305q2 -21 16 -9l12 15q46 74 89 127q4 6 21 27.5t22 28.5t17 24.5t16.5 27.5t9 23.5t5.5 25.5q1 24 -12.5 34.5t-41.5 3.5
q-23 -6 -29 18q-3 13 16 32t35 29q56 34 99 34q33 -1 57 -22t21 -56q-1 -28 -6 -47t-21.5 -42t-29 -37t-49.5 -51.5t-64 -66.5q-63 -68 -115 -153q-28 -46 -36 -75q-7 -29 -35 -48q-22 -16 -80 -22q-29 -3 -37.5 10t-10.5 57q-12 243 -49 425q-10 56 -58 68q-7 2 -14 10
t-7 15z" />
    <glyph glyph-name="W" unicode="W" horiz-adv-x="989" 
d="M432 581q0 8 9 19t27 8q26 -3 98.5 -4t106.5 4q21 3 30.5 -4.5t10.5 -16.5t-6 -19t-19 -14q-44 -16 -34 -74q6 -35 10 -75.5t9.5 -110.5t9.5 -119q2 -20 16 -10q6 5 13 16q46 74 88 127q4 5 18.5 24t19 24.5t16 21t15.5 23.5t10 20.5t8.5 23t3.5 20.5q2 24 -12 34.5
t-42 3.5q-24 -6 -28 18q-3 13 15.5 32.5t34.5 28.5q56 34 100 34q32 -1 56.5 -22t21.5 -56q-1 -28 -6 -47.5t-21.5 -42t-29.5 -36.5t-50 -51.5t-64 -66.5q-70 -78 -114 -153q-30 -49 -37 -75q-7 -30 -34 -48q-24 -16 -81 -22q-29 -3 -37.5 10.5t-10.5 56.5q-9 162 -10 175
q-2 19 -5.5 19.5t-15.5 -14.5q-17 -21 -73 -102q-30 -53 -36 -75q-7 -30 -34 -48q-24 -16 -81 -22q-29 -3 -37.5 10.5t-10.5 56.5q-12 252 -49 425q-8 52 -71 68q-7 2 -14 10t-7 15q0 8 9.5 19t27.5 8q26 -3 101.5 -4t109.5 4q21 3 30.5 -4.5t10.5 -16.5t-9 -19.5t-22 -13.5
q-17 -6 -21.5 -21t0.5 -53q16 -99 35 -305q1 -9 5 -12.5t11 0.5t14 16q19 30 55.5 77.5t46.5 61.5q16 23 13 49q-7 79 -16 121q-5 32 -18.5 45.5t-39.5 22.5q-7 2 -14 10t-6 15z" />
    <glyph glyph-name="X" unicode="X" horiz-adv-x="801" 
d="M-7 13q-2 22 36 41q73 37 140.5 87.5t153.5 148.5q16 19 11 50q-3 16 -10.5 35.5t-13.5 32t-18 35.5t-16 30q-22 42 -45 57t-68 15q-10 0 -24 7.5t-14 15.5q0 12 16.5 24.5t52.5 14.5q116 4 165 0q21 -3 32.5 -11.5t12.5 -13t2 -13.5q10 -69 38 -151q8 -19 25 -5
q66 59 89 115q22 50 44.5 65.5t64.5 13.5q57 -2 112 0q29 2 32 -20q0 -9 -10.5 -18.5t-27.5 -13.5q-63 -17 -141.5 -77t-134.5 -124q-13 -15 -15 -20.5t2 -25.5q11 -42 41.5 -96.5t61.5 -89.5q48 -55 129 -34q30 6 37 -21q7 -18 -27 -37q-32 -15 -84 -27.5t-86 -12.5
q-53 3 -87 53q-9 14 -16 24.5t-13.5 21.5t-10.5 17t-9.5 17t-7 14.5t-7 17t-7 17.5t-8 21.5t-9.5 24.5q-9 24 -32 3q-79 -82 -98 -139q-12 -35 -12 -64q0 -27 -51 -19q-74 10 -168 -2q-8 -1 -17 4t-10 12z" />
    <glyph glyph-name="Y" unicode="Y" horiz-adv-x="648" 
d="M282 608q28 0 38.5 -8.5t17.5 -33.5q33 -122 69 -202q13 -22 35 3q13 15 61 50q55 38 57 69q1 22 -14 31t-36 3q-22 -6 -27 18q-3 12 9.5 27t26.5 23q45 29 96 29q32 -1 55.5 -21t21.5 -51q-3 -40 -27.5 -67t-75.5 -61q-4 -2 -17.5 -11t-20 -13.5t-19 -13.5t-21.5 -16
t-20 -16.5t-20 -19.5q-30 -29 -46 -86q-23 -84 -25 -131q-3 -24 2.5 -34t24.5 -18q38 -16 35 -35q-2 -11 -13 -18.5t-27 -5.5q-53 6 -257 -2q-9 -1 -17 7t-7 19q2 12 16.5 20t27.5 10q50 7 71 56q18 57 36 154q8 44 -14 88q-47 112 -85 161q-17 23 -28 31t-35 12
q-15 2 -22.5 10.5t-5.5 16.5q4 26 34 26h146z" />
    <glyph glyph-name="Z" unicode="Z" horiz-adv-x="702" 
d="M24 4q-2 42 17 86t42 49q31 7 79 41q92 64 126.5 89t85.5 69.5t102 99.5q20 21 -10 24q-20 1 -86 13t-108 11q-62 -2 -62 -44q0 -10 20 -39q5 -8 -1.5 -18.5t-17.5 -14.5q-12 -6 -31 3t-34 35q-22 37 -22 73q0 56 44.5 95t134.5 39q66 0 131 -13q70 -14 123 -14
q11 0 31 5t28 11q21 14 42.5 5t9.5 -31q-8 -17 -54 -76.5t-63 -76.5q-6 -5 -31 -30t-30 -29.5t-26 -24.5t-27.5 -26t-25 -23t-28.5 -24.5t-28 -22.5t-33 -25.5t-34 -24.5t-40 -28q-6 -5 -7.5 -10t2.5 -6.5t10 0.5q31 10 73 10q33 0 75 -15q66 -20 93 -20q80 0 117 45
q29 34 47 28q10 -1 15 -11.5t-2 -33.5q-24 -66 -79.5 -116.5t-104.5 -50.5q-16 0 -29.5 1t-26.5 4.5t-19 5t-19.5 7t-17.5 6.5q-46 18 -106 18q-75 0 -132 -21q-45 -20 -81 -20q-30 0 -32 16z" />
    <glyph glyph-name="bracketleft" unicode="[" horiz-adv-x="328" 
d="M388 637q9 0 13 -9.5t2 -18.5q-2 -8 -11.5 -16t-17.5 -8q-6 -1 -35.5 -3.5t-35.5 -3.5q-12 -1 -17 -6t-10 -20q-40 -138 -144 -569q-4 -10 -2 -14t13 -5q42 -7 72 -7q8 0 14.5 -8t4.5 -17q-2 -8 -11 -17.5t-21 -9.5q-5 0 -95 1t-98 1q-12 0 -19.5 9t-3.5 22
q7 28 69.5 266t101.5 396q3 14 12.5 25t24.5 11q5 0 97 0.5t97 0.5z" />
    <glyph glyph-name="backslash" unicode="\" horiz-adv-x="418" 
d="M138 626q30 2 45 -41l157 -464q3 -7 11 -22.5t12.5 -28.5t3.5 -25q-3 -19 -45 -61q-8 -7 -15.5 0t-14 26.5t-8.5 28.5t-5 22q-13 53 -73 243t-83 257q-11 35 -7 48.5t22 16.5z" />
    <glyph glyph-name="bracketright" unicode="]" horiz-adv-x="328" 
d="M-7 -95q-9 0 -13 10t-2 19q2 8 12 15.5t18 7.5q6 1 35 3.5t35 3.5q12 1 17 6t10 20q40 138 144 569q4 10 2 14t-13 5q-42 7 -72 7q-8 0 -14 8t-5 17q2 8 11.5 17.5t20.5 9.5q5 0 95 -1t98 -1q12 0 19.5 -9t4.5 -22q-151 -577 -172 -662q-6 -35 -37 -35q-4 0 -96.5 -1
t-97.5 -1z" />
    <glyph glyph-name="asciicircum" unicode="^" horiz-adv-x="488" 
d="M266 530q-132 -162 -142 -176q-14 -18 -42 -14q-8 1 -11 6t-0.5 13t9 18.5t17.5 24.5q13 14 76 92.5t93 117.5q12 15 31 20q10 3 14 -1.5t8 -20.5q9 -27 22 -58t23.5 -55.5t12.5 -29.5q2 -7 9 -22.5t11.5 -28.5t4.5 -22q0 -12 -9 -29.5t-18 -26.5q-4 -5 -13 -3.5t-11 8.5
l-15 51q-22 77 -46 139q-3 6 -10.5 5t-13.5 -8z" />
    <glyph glyph-name="underscore" unicode="_" horiz-adv-x="448" 
d="M-3 -76q-16 0 -22.5 6.5t-1.5 16.5q16 22 46 22q191 3 322 15q36 4 40 1q5 -3 5 -11q0 -6 -10 -20t-21 -21q-12 -7 -39 -7q-96 -2 -319 -2z" />
    <glyph glyph-name="grave" unicode="`" horiz-adv-x="488" 
d="M304 511q-37 26 -73 59t-49 53q-5 7 -4.5 19t10.5 17q16 9 92 16q11 1 18 -8.5t8 -17.5q7 -55 39 -122q3 -4 0.5 -12t-8.5 -12q-14 -5 -33 8z" />
    <glyph glyph-name="a" unicode="a" horiz-adv-x="532" 
d="M236 427q12 6 36 9.5t43 0.5q31 -5 61 -19q13 -4 37 10q26 15 47 32q29 22 44 15q19 -10 9 -27q-49 -76 -59 -102q-44 -111 -55 -184q-6 -37 11 -37q21 2 48 25q8 6 20.5 4.5t18.5 -9.5q4 -6 2.5 -17.5t-8.5 -19.5q-33 -42 -85.5 -81.5t-93.5 -39.5q-27 0 -42 11.5
t-17.5 30t0 37.5t10.5 38q9 19 2 22q-10 6 -23 -9q-20 -23 -59 -60t-60 -51q-38 -25 -70 -7.5t-32 66.5q0 104 51 203q28 51 73 93.5t91 65.5zM205 146q27 24 67 85q19 29 37 87q8 31 -7 41q-16 12 -32 13q-32 1 -59 -41q-46 -74 -49 -161q-2 -25 11.5 -32.5t31.5 8.5z" />
    <glyph glyph-name="b" unicode="b" horiz-adv-x="487" 
d="M98 670q74 28 171 31q18 1 27 -10t7 -27q-3 -45 -19 -103q-33 -123 -70 -235l1 1q-7 -20 -2 -23q11 -7 24 9q19 25 55 62t59 51q38 25 75.5 6t37.5 -67q0 -103 -57 -205q-37 -68 -102.5 -118t-120.5 -49q-78 0 -112 57t-17 134q14 63 45.5 185t46.5 192q6 17 5.5 34
t-14.5 21q-1 3 -17.5 0.5t-26.5 -2.5q-13 -1 -18.5 6.5t-5.5 16.5q0 22 28 33zM279 284q-34 -28 -64.5 -71t-40.5 -86q-13 -54 35 -60q28 -3 56 39q55 83 64 159q4 31 -11 35t-39 -16z" />
    <glyph glyph-name="c" unicode="c" horiz-adv-x="382" 
d="M241 360q-12 0 -30 -24t-33.5 -70t-16.5 -95q-1 -36 12.5 -56.5t27.5 -20.5q35 0 77 36q9 8 21.5 9.5t16.5 -3.5q15 -17 -5 -40q-28 -32 -85 -70t-95 -38q-46 0 -73 37t-24 101q3 86 61 176.5t143 127.5q25 11 60.5 11t48.5 -7q31 -15 28 -51q-4 -26 -29 -54.5t-50 -38.5
q-19 -7 -33 4q-4 4 -4 10t2 14.5t2 12.5q2 29 -22 29z" />
    <glyph glyph-name="d" unicode="d" horiz-adv-x="532" 
d="M399 162q-6 -37 11 -37q21 2 48 25q18 14 34 -4q10 -16 -7 -37q-35 -43 -83.5 -81.5t-89.5 -38.5q-84 0 -49 115q7 19 2 22q-10 6 -23 -9q-19 -23 -58.5 -60t-61.5 -51q-38 -25 -70.5 -7.5t-32.5 66.5q0 110 50 204q29 53 75.5 95.5t91.5 62.5q37 16 77 10q5 -1 11.5 -3
t9 -2.5t6 0t5.5 3.5t5 9q29 65 36 117q8 48 -16 55q-1 3 -17.5 0.5t-26.5 -2.5q-25 -1 -25 23q0 22 29 33q74 28 171 31q19 1 31 -10.5t10 -26.5q-2 -31 -23 -103q-4 -13 -35.5 -109t-46.5 -146q-30 -95 -38 -144zM203 145q32 30 69 86q19 29 37 87q8 31 -7 41
q-16 12 -32 13q-34 2 -60 -40q-45 -74 -52 -161q-1 -25 12.5 -34t32.5 8z" />
    <glyph glyph-name="e" unicode="e" horiz-adv-x="384" 
d="M159 169q-1 -35 11.5 -55t26.5 -20q38 0 78 38q9 8 22.5 8.5t18.5 -5.5q16 -17 -5 -41q-28 -32 -87 -69t-99 -37q-48 0 -73 36.5t-23 101.5q2 85 59 175t143 127q28 12 62 12.5t59 -15.5t21 -49q-8 -67 -83 -118q-62 -42 -109 -60q-13 -5 -17 -9.5t-5 -19.5zM231 360
q-7 0 -17.5 -9t-23.5 -31t-20 -52q-3 -12 3.5 -14.5t12.5 1.5q33 14 51 34.5t21 39.5q2 31 -27 31z" />
    <glyph glyph-name="f" unicode="f" horiz-adv-x="353" 
d="M-104 -80q10 -5 7 -24q-1 -16 -1 -29.5t6 -22t20 -8.5q35 0 67.5 38.5t53.5 103.5q41 149 74 349q6 37 -20 41h-12t-15 1q-8 1 -10 11t4 26q12 24 39 25h9.5t10 0.5t8.5 2t8.5 5t5.5 8.5q25 67 56 117t59 77t59.5 43.5t52.5 21t42 4.5q64 0 84 -19.5t19 -49.5
q0 -24 -26 -59.5t-68 -55.5q-25 -13 -41 -2q-4 2 -5 12.5t3 18.5q12 20 12 50t-21 30q-64 0 -101 -175q-3 -10 -1 -18t16 -8q34 -2 79 3q7 0 18.5 1.5t15.5 2t11 -0.5q6 -1 10 -7t2 -11q-13 -39 -27 -52q-1 -1 -5.5 -4l-6 -4t-7 -3.5t-9 -1.5t-11.5 1q-76 8 -77 8
q-15 0 -21 -18q-6 -23 -31 -120t-33 -123q-34 -108 -79.5 -187.5t-128.5 -143.5q-71 -53 -142 -53q-33 0 -54 20.5t-21 49.5q-1 28 17 60t47 55q15 11 32.5 15t25.5 -1z" />
    <glyph glyph-name="g" unicode="g" horiz-adv-x="493" 
d="M317 437q32 -5 62 -19q12 -5 37 10q34 21 46 32q30 22 45 15q18 -10 9 -27q-50 -77 -60 -102q-45 -118 -54 -179q-8 -58 10 -157q12 -62 -16.5 -118t-81 -92.5t-116.5 -58t-125 -21.5q-89 0 -133.5 29t-44.5 67q0 44 35 79.5t85 54.5q32 12 47 0q6 -5 8 -14.5t-4 -17.5
q-24 -31 -24 -73q0 -49 72 -49q64 0 101 31q42 35 52 76.5t-2 94.5q-8 58 3 106q5 20 0 22q-11 5 -24 -9q-20 -24 -58.5 -60.5t-60.5 -50.5q-37 -26 -71.5 -8.5t-34.5 66.5q0 98 58 206q27 51 72 92t92 65q33 16 76 10zM202 145q43 39 72 86q22 32 37 87q8 31 -6 41
q-18 12 -32 13q-32 1 -58 -40q-48 -76 -53 -162q-2 -25 10 -33.5t30 8.5z" />
    <glyph glyph-name="h" unicode="h" horiz-adv-x="569" 
d="M508 380q-4 -28 -35 -105t-40 -112q-11 -38 9 -36q21 2 48 25q8 7 20.5 4.5t18.5 -10.5q5 -5 3 -17t-9 -20q-34 -42 -86 -81t-93 -39q-74 0 -62 78q4 34 13.5 64t23.5 65.5t21 60.5q7 23 -1.5 30.5t-34.5 -12.5q-51 -43 -84 -97.5t-65 -131.5q-9 -21 -43.5 -36.5
t-63.5 -19.5q-20 -2 -28.5 7t-0.5 32q84 238 151 532q6 17 5.5 34t-14.5 21q-1 3 -17.5 0.5t-26.5 -2.5q-13 -1 -18.5 6.5t-5.5 16.5q0 22 28 33q74 28 171 31q18 1 26.5 -9.5t7.5 -27.5q-6 -50 -20 -103q-45 -167 -80 -263q-2 -12 5.5 -14t16.5 9q41 50 104 100t112 50
q21 0 34.5 -16.5t9.5 -46.5z" />
    <glyph glyph-name="i" unicode="i" horiz-adv-x="343" 
d="M306 146q5 -5 3 -17t-9 -20q-34 -42 -86 -81t-93 -39q-70 0 -60 78q7 47 29.5 112t30.5 93q9 34 -11 34t-41 -16q-17 -12 -38 0q-5 4 -4.5 17t7.5 20q41 41 91 71t84 41q33 10 57 -6.5t14 -57.5q-8 -34 -36.5 -104t-35.5 -108q-8 -41 11 -39q21 2 48 24q8 7 20.5 6.5
t18.5 -8.5zM373 581q-2 -30 -35 -52t-68 -22q-20 0 -30.5 12t-8.5 31q3 36 29 60t62 24q24 0 38 -14.5t13 -38.5z" />
    <glyph glyph-name="j" unicode="j" horiz-adv-x="328" 
d="M52 328q41 42 88.5 71t80.5 40q32 10 57 -6.5t16 -57.5q-12 -53 -54 -180q-29 -83 -65 -179q-53 -142 -134 -218.5t-154 -76.5q-42 0 -70 20t-31 55q-4 57 62 102q21 15 39.5 19t24.5 1q10 -3 13.5 -16t-2.5 -25q-13 -28 -13 -43q0 -30 34 -28q27 3 47.5 34t53.5 130
q50 138 91 302q8 36 -11 36q-17 0 -37 -14q-19 -15 -38 -3q-6 4 -5 17.5t7 19.5zM383 581q-2 -30 -34.5 -52t-67.5 -22q-20 0 -30.5 12t-8.5 31q2 36 27.5 60t62.5 24q23 0 37.5 -14.5t13.5 -38.5z" />
    <glyph glyph-name="k" unicode="k" horiz-adv-x="561" 
d="M121 670q74 28 171 31q18 1 26.5 -9.5t7.5 -27.5q-6 -50 -20 -103q-48 -180 -76 -258q-2 -7 1 -11t9 -2.5t12 8.5q36 46 100 92.5t110 46.5q43 0 60.5 -21t17.5 -43q0 -44 -38 -84t-90 -70q-25 -14 -23 -34q2 -33 23 -53q22 -19 39 -14q19 5 36 18q14 8 24 6.5t14 -6.5
q4 -4 2.5 -19t-9.5 -22q-58 -61 -135 -94q-59 -28 -80 6q-37 57 -33 155q2 27 21 38q51 27 81 53t30 58q0 18 -25 18q-27 0 -53 -22.5t-67 -72.5q-50 -63 -102 -188q-9 -21 -43.5 -36.5t-63.5 -19.5q-20 -2 -28.5 7t-0.5 32q84 238 151 532q6 17 5.5 34t-14.5 21
q-1 3 -17.5 0.5t-26.5 -2.5q-13 -1 -18.5 6.5t-5.5 16.5q0 22 28 33z" />
    <glyph glyph-name="l" unicode="l" horiz-adv-x="326" 
d="M104 -11q-70 0 -62 77q6 66 39 168q75 238 94 327q5 17 3 31t-17 18q-12 4 -39 3q-24 -1 -24 24q0 12 7.5 22.5t20.5 11.5q31 2 85.5 15t85.5 15q13 1 23 -10.5t9 -26.5q-1 -34 -20 -103q-13 -49 -63.5 -206t-55.5 -192q-6 -38 11 -36q21 1 48 25q8 7 20.5 4.5
t19.5 -10.5q4 -5 2 -17t-9 -20q-34 -42 -86 -81t-92 -39z" />
    <glyph glyph-name="m" unicode="m" horiz-adv-x="843" 
d="M35 327q41 41 91 71t84 41q33 10 57.5 -6.5t14.5 -57.5q-6 -22 -28 -78q-5 -15 2.5 -19.5t17.5 7.5q126 159 212 154q44 -2 38 -58q-8 -49 -25 -93q-1 -11 6.5 -12t16.5 9q128 158 215 155q21 -1 32 -16.5t7 -41.5q-4 -29 -33 -107.5t-37 -111.5q-5 -19 -2 -28t11 -8
q25 2 48 23q8 7 21 5.5t19 -9.5q5 -5 2.5 -17t-9.5 -20q-31 -40 -86.5 -80t-96.5 -40q-73 0 -61 78q5 34 14 63t22.5 63t20.5 59q10 30 -4.5 33t-37.5 -17q-73 -61 -133 -222q-8 -21 -43 -36.5t-64 -19.5q-20 -3 -30 7t-2 32q46 127 71 223q9 31 -5 33.5t-38 -17.5
q-30 -25 -57 -66t-41.5 -71t-37.5 -85q-9 -21 -43.5 -36.5t-63.5 -19.5q-20 -2 -29 7.5t0 31.5q49 127 72 243q6 35 -14 35q-17 0 -39 -16q-23 -15 -38 -1q-7 5 -5.5 17.5t8.5 19.5z" />
    <glyph glyph-name="n" unicode="n" horiz-adv-x="597" 
d="M210 439q33 10 57.5 -6.5t14.5 -57.5q-6 -22 -28 -78q-5 -15 2.5 -19.5t17.5 7.5q130 157 213 154q20 0 35.5 -19t10.5 -46q-7 -37 -35.5 -106.5t-37.5 -104.5q-11 -38 9 -36q21 2 48 25q8 7 20.5 4.5t18.5 -10.5q5 -5 3 -17t-9 -20q-33 -41 -87.5 -80.5t-95.5 -39.5
q-74 0 -62 78q6 44 30 106.5t29 78.5q7 22 -4 29t-37 -13q-19 -15 -35 -34.5t-26 -31.5t-23.5 -39.5t-17 -35t-18 -42.5t-16.5 -39q-9 -21 -43.5 -36.5t-63.5 -19.5q-20 -2 -29 7.5t0 31.5q49 127 72 243q6 34 -14 34q-17 0 -39 -16q-22 -14 -38 0q-7 5 -5.5 17.5t8.5 19.5
q41 41 91 71t84 41z" />
    <glyph glyph-name="o" unicode="o" horiz-adv-x="404" 
d="M131 -8q-61 0 -87.5 39t-23.5 94q1 36 16.5 84t35.5 82q42 72 98.5 111.5t99.5 39.5q48 0 75.5 -34.5t26.5 -106.5q-1 -35 -16 -80.5t-35 -79.5q-31 -53 -88 -101t-102 -48zM215 341q-19 -1 -40.5 -42t-25.5 -106q-6 -98 34 -96q48 1 64 153q4 43 -3.5 67.5t-28.5 23.5z
" />
    <glyph glyph-name="p" unicode="p" horiz-adv-x="540" 
d="M401 430q37 25 70.5 6.5t37.5 -67.5q3 -48 -13.5 -108t-41.5 -108q-56 -103 -162 -146q-43 -17 -71 -10q-15 4 -22.5 0t-11.5 -20q-22 -69 -41 -115q-19 -41 -53 -70q-69 -62 -101 -72q-21 -9 -27 12q-5 17 14 44q33 48 57 120q62 179 96 371q3 16 -2.5 28.5t-14.5 12.5
q-19 0 -43 -17q-16 -12 -37 1q-6 4 -5 17.5t7 19.5q42 42 89.5 71.5t81.5 39.5q33 10 57.5 -5.5t14.5 -57.5q-2 -9 -8.5 -27t-7.5 -20q-7 -19 -1 -23q13 -3 24 9q77 90 114 114zM324 287q-39 -36 -67 -84q-18 -30 -36 -89q-9 -32 5 -42q16 -11 34 -11q28 1 53 40
q51 82 57 161q1 32 -13 38t-33 -13z" />
    <glyph glyph-name="q" unicode="q" horiz-adv-x="492" 
d="M238 427q35 16 77 10q31 -5 61 -19q13 -4 37 10q26 15 47 32q29 22 44 15q19 -10 9 -27q-25 -38 -53 -102q-39 -86 -84.5 -244.5t-55.5 -243.5q-2 -13 4 -20.5t14 -7.5q25 0 42 9q9 5 21.5 3.5t18.5 -8.5q14 -18 -9 -39q-86 -73 -174 -73q-30 0 -44 16.5t-13.5 40.5
t1.5 50q2 31 31.5 129t50.5 146q9 19 2 22q-10 6 -23 -9q-71 -83 -114 -111q-38 -26 -73 -8t-35 67q0 105 55 203q29 51 74 93.5t89 65.5zM201 145q37 34 71 86q19 29 37 87q8 31 -7 41q-16 12 -32 13t-34 -11t-29 -31q-45 -75 -50 -164q-2 -25 12 -31.5t32 10.5z" />
    <glyph glyph-name="r" unicode="r" horiz-adv-x="449" 
d="M208 439q32 9 54 -6.5t12 -57.5q-17 -61 -24 -78q-6 -15 4 -19.5t18 9.5q61 101 95 131q26 24 49 24q27 0 39 -16.5t12 -36.5q0 -36 -11 -74t-27 -60q-21 -29 -43 -25q-15 2 -11 24q6 35 -19 35q-33 0 -71 -50q-49 -62 -89 -193q-7 -21 -40.5 -36.5t-63.5 -19.5
q-20 -2 -29 7t-1 32q45 125 61 243q4 32 -14 32q-17 0 -39 -15q-21 -14 -38 1q-7 5 -5.5 17.5t8.5 19.5q41 41 90 71.5t83 40.5z" />
    <glyph glyph-name="s" unicode="s" horiz-adv-x="338" 
d="M86 -10q-34 0 -52.5 21t-18.5 42q0 46 36 84q16 18 33 13q9 -4 11 -18q2 -16 17.5 -30t33.5 -14q26 0 40.5 23.5t14.5 61.5q0 56 -31 106q-5 7 -13 6.5t-13 -6.5l-33 -41q-21 -25 -52 -6q-11 7 -12.5 24t12.5 29q73 57 169 182q12 16 30 8q20 -10 16 -27q-12 -38 4 -78
q29 -76 26 -134q-4 -98 -74.5 -172t-143.5 -74z" />
    <glyph glyph-name="t" unicode="t" horiz-adv-x="337" 
d="M104 -8q-37 0 -50 29.5t-8 71.5q12 93 64 244q10 26 -8 29h-13.5t-16.5 1q-8 1 -11 9.5t4 25.5q14 28 44 29q34 2 50 18q50 47 83 109q4 8 15 14.5t20 5.5q7 -1 13.5 -9t4.5 -13q-24 -68 -33 -103q-6 -19 13 -19q27 -2 41 0q7 0 22.5 1t18.5 0q13 -2 8 -19
q-8 -32 -28 -46q-18 -14 -39 -11q-32 5 -41 5q-12 0 -21 -18q-30 -65 -50 -166q-14 -75 25 -62q17 5 47 24q11 6 20.5 5t13.5 -6q12 -15 -4 -36q-29 -34 -87 -73.5t-97 -39.5z" />
    <glyph glyph-name="u" unicode="u" horiz-adv-x="607" 
d="M568 147q5 -5 2.5 -17t-9.5 -20q-30 -40 -83 -80t-94 -40q-70 0 -62 78q7 44 14 66q4 16 -4 20t-16 -8q-38 -56 -89 -105t-97 -50q-28 -1 -46.5 23t-14.5 57q5 39 27 106.5t27 91.5q7 32 -11 32q-20 0 -41 -15q-17 -12 -38 1q-6 4 -5.5 17.5t7.5 19.5q40 42 89 71.5
t84 40.5q33 10 56.5 -6t15.5 -58q-6 -32 -14.5 -62t-21 -69t-19.5 -62q-4 -12 -0.5 -23t14.5 -12.5t33 18.5q59 53 129 223q9 21 45 36.5t66 19.5q22 3 36.5 -5.5t3.5 -28.5q-18 -33 -46.5 -113t-38.5 -130q-3 -18 1 -29t13 -10q16 0 47 27q9 7 21 5t19 -10z" />
    <glyph glyph-name="v" unicode="v" horiz-adv-x="492" 
d="M33 327q41 41 91 71t84 41q33 9 55.5 -7t12.5 -57q-8 -32 -34 -103.5t-33 -116.5q-4 -24 3 -42.5t29 -18.5q34 0 75.5 59.5t52.5 107.5q4 20 -2.5 40t-23.5 21q-23 2 -26 8q-7 12 -1 28q15 25 49 54t58 29q39 0 55 -35t3 -80q-37 -122 -155 -252q-73 -82 -153 -82
q-55 0 -80.5 44t-7.5 114q4 15 16.5 56.5t18.5 65.5q9 33 -11 33q-16 0 -41 -15q-24 -16 -38 0q-5 4 -4 17.5t7 19.5z" />
    <glyph glyph-name="w" unicode="w" horiz-adv-x="750" 
d="M207 436q33 10 56.5 -6t15.5 -58q-6 -35 -52 -189q-4 -13 -3 -27.5t10 -20.5t30 14q69 62 128 236q7 21 38.5 36.5t59.5 19.5q21 3 37.5 -8t6.5 -31q-16 -30 -36.5 -101t-32.5 -139q-4 -24 4.5 -43t30.5 -19q35 0 75 57.5t50 105.5q4 20 -2 40t-23 22q-23 3 -25 7
q-7 14 -1 28q15 26 49 55t59 29q39 0 54 -35t2 -81q-36 -122 -156 -254q-25 -30 -66 -56t-86 -26q-53 0 -77.5 41t-13.5 104q3 14 -4.5 17.5t-16.5 -8.5q-4 -5 -13 -16t-12.5 -15.5t-10.5 -13t-12.5 -14.5t-14 -14.5l-17.5 -17.5t-21 -20q-39 -36 -75.5 -43t-56 12.5
t-15.5 55.5q5 40 26 112.5t26 96.5q6 32 -11 32q-20 0 -41 -15q-17 -12 -38 1q-6 4 -5.5 17.5t7.5 19.5q40 42 89 71.5t84 40.5z" />
    <glyph glyph-name="x" unicode="x" horiz-adv-x="547" 
d="M58 290q-6 3 -4.5 16t9.5 22q23 28 57 57t62 43q27 13 52 -3q25 -14 42 -47.5t13 -65.5q-2 -18 6 -18q6 0 17 18q30 47 77 86t92 39q22 0 38 -14.5t16 -40.5q0 -16 -11.5 -39t-24.5 -35q-20 -18 -29 -15q-10 2 -14 18q-1 5 -8.5 10t-16.5 5q-31 0 -61 -31t-38 -73
q-8 -40 14 -75.5t55 -35.5q24 0 56 26q17 17 34 7q5 -2 7 -11.5t-2 -16.5q-46 -66 -120 -109q-54 -32 -106 7q-16 12 -24.5 40.5t-2.5 61.5q2 7 0 14.5t-6 7.5q-7 0 -16 -18q-24 -43 -74.5 -85.5t-101.5 -42.5q-23 0 -37 14.5t-15 37.5q-1 21 13 46.5t34 42.5q11 11 22 6
q7 -3 10 -21q6 -25 33 -25q30 0 56.5 31.5t31.5 78.5q5 41 -15 71t-53 30q-13 0 -29 -13q-13 -7 -23 -6t-15 5z" />
    <glyph glyph-name="y" unicode="y" horiz-adv-x="562" 
d="M207 436q33 10 57.5 -6t16.5 -58q-6 -31 -15 -62t-22 -68.5t-20 -62.5q-7 -22 1.5 -32.5t38.5 13.5q66 59 134 225q9 21 45 36.5t65 19.5q22 3 37 -5.5t4 -28.5q-19 -33 -47.5 -113t-38.5 -130q-15 -62 6 -154q15 -80 -37 -149t-137 -105t-173 -36q-210 0 -210 96
q0 44 35 79.5t85 54.5q32 12 47 0q6 -5 7.5 -14.5t-4.5 -17.5q-23 -32 -23 -72q0 -27 24 -41.5t60 -14.5q95 0 146 58.5t37 149.5q-11 65 11 136q5 15 -3 19.5t-18 -7.5q-21 -28 -34.5 -44.5t-41.5 -47t-55.5 -46.5t-52.5 -17q-29 -1 -45.5 23.5t-11.5 58.5q4 34 25 101.5
t26 95.5q6 32 -11 32q-21 0 -43 -16q-17 -12 -38 1q-6 4 -5.5 17.5t6.5 19.5q41 42 89.5 72t82.5 40z" />
    <glyph glyph-name="z" unicode="z" horiz-adv-x="498" 
d="M8 8q0 40 41 86t77 56q24 6 41 18q19 14 26.5 19.5t15.5 11.5t14.5 12t12 11t19.5 18.5t26 24.5q6 7 3.5 13t-8.5 5q-36 -3 -63 12q-22 11 -38 11q-26 0 -61 -46q-15 -19 -36 -13q-11 3 -15 13t-1 19q18 46 59.5 100.5t73.5 54.5q26 0 58 -22q44 -32 74 -32q63 0 103 38
q27 28 45 21q7 -2 11 -11t-1 -21q-39 -62 -73 -94q-102 -93 -155 -136q-16 -13 4 -17q19 -3 44 -20q27 -18 52 -18q24 0 36 8t34 33q14 18 34 12q7 -2 12 -13t-1 -19q-9 -22 -42.5 -62.5t-59.5 -61.5q-23 -18 -34.5 -24t-26.5 -6q-25 0 -63 33q-16 12 -24.5 17t-26 10.5
t-40.5 5.5q-34 0 -85 -50q-27 -24 -44 -22q-18 5 -18 25z" />
    <glyph glyph-name="braceleft" unicode="{" horiz-adv-x="285" 
d="M315 646q22 0 22 -26q-8 -17 -36 -27q-31 -13 -43 -58q-5 -22 2 -80t-1 -91q-5 -21 -24 -37.5t-20 -20.5q-1 -5 5 -9.5t10.5 -14.5t0.5 -27q-5 -25 -38 -84.5t-41 -84.5q-3 -9 -4.5 -17t-2 -13.5t0.5 -10.5l1.5 -7.5t2.5 -6t2.5 -4l3.5 -3.5l2 -2q3 -3 8.5 -8t8.5 -7.5
t5 -6.5t1 -8q-7 -27 -45 -27q-51 0 -87.5 27.5t-25.5 72.5q8 35 72 94.5t72 93.5q2 10 -5 15t-20.5 5.5t-26.5 0t-27 -2t-17 -1.5q-8 0 -9.5 15.5t3.5 24.5q16 38 28 38q6 0 26 -4t34.5 -5.5t29 6t18.5 26.5q5 21 -14.5 49.5t-38 61.5t-10.5 64q12 49 70.5 74.5t106.5 25.5z
" />
    <glyph glyph-name="bar" unicode="|" horiz-adv-x="275" 
d="M122 -25v586q-2 24 8 38q5 11 26 20t30 9q4 0 6.5 -1t4 -3.5t2.5 -5t0.5 -7.5t-0.5 -8.5t-1 -10t-1 -10.5q-10 -106 -16 -590q0 -24 -29 -42q-30 -16 -30 25z" />
    <glyph glyph-name="braceright" unicode="}" horiz-adv-x="285" 
d="M41 -35q-23 0 -23 26q5 18 33 29q37 14 47 57q5 21 -2 83.5t2 95.5q5 21 24 37t20 20q1 5 -5 10t-11 14.5t-1 26.5q6 25 38.5 80t40.5 81q3 9 4.5 17t2 13.5t-0.5 10.5l-1.5 7.5t-2.5 6t-2.5 4t-3.5 2.5l-2 3q-3 3 -8.5 8t-8.5 7.5t-5 7t-1 8.5q7 26 45 26
q51 0 87.5 -27.5t25.5 -72.5q-5 -23 -26.5 -47.5t-45 -42.5t-45 -42.5t-26.5 -47.5q-2 -10 5 -15t20.5 -5.5t26.5 0t27 2t17 1.5q8 0 9.5 -15t-3.5 -24q-16 -39 -29 -39q-6 0 -25.5 4t-34 5.5t-29 -6t-18.5 -26.5q-4 -16 7 -39t26 -43.5t25 -48t4 -52.5q-8 -34 -43.5 -58
t-70.5 -33t-63 -9z" />
    <glyph glyph-name="asciitilde" unicode="~" horiz-adv-x="427" 
d="M7 200q-15 21 21 50q35 30 71 48t56 18q28 0 80 -19q38 -14 70 -14q39 0 67 20q29 22 46 11q6 -4 6 -15.5t-9 -22.5q-28 -31 -73.5 -58t-76.5 -27q-28 0 -76 16q-49 18 -71 18q-30 0 -80 -31q-22 -9 -31 6z" />
    <glyph glyph-name="uni00A0" unicode="&#xa0;" horiz-adv-x="237" 
 />
    <glyph glyph-name="exclamdown" unicode="&#xa1;" horiz-adv-x="314" 
d="M150 -151q-5 -26 -30 -34q-53 -16 -118 -13q-14 1 -20.5 10t-2.5 25q4 14 42.5 80t48.5 90q49 120 80 225q7 23 35 30q13 3 19 -7t4 -24q-37 -190 -41 -222q-2 -11 -9 -83t-8 -77zM210 312q-28 -1 -50.5 12.5t-22.5 38.5q0 66 76 79q39 3 58.5 -14t19.5 -43
q0 -31 -25 -50.5t-56 -22.5z" />
    <glyph glyph-name="cent" unicode="&#xa2;" horiz-adv-x="395" 
d="M242 360q-12 0 -30 -24t-34.5 -70t-18.5 -95q-1 -35 13.5 -56t29.5 -21q34 0 70 32q10 8 22 9.5t17 -4.5q16 -17 -6 -39q-40 -42 -106 -79q-22 -14 -27 -21q-3 -5 -7 -15q-20 -50 -29 -77q-7 -23 -37 -30q-13 -3 -18.5 7t-2.5 24q4 19 18 67q3 11 3 15.5t-1 6.5t-8 5.5
t-13 7.5q-44 32 -41 123q3 86 60.5 176.5t142.5 127.5q18 7 22 10.5t10 19.5q16 40 27 73q9 24 37 29q13 3 18.5 -6.5t2.5 -23.5q-12 -45 -20 -77q0 -2 -1 -4q-4 -11 1 -14q2 0 5 -2q2 -1 3 -1q32 -15 28 -51q-3 -26 -27.5 -54.5t-50.5 -38.5q-20 -7 -34 4q-5 1 -2 17t3 20
q0 29 -19 29z" />
    <glyph glyph-name="sterling" unicode="&#xa3;" horiz-adv-x="581" 
d="M226 273h-50q-40 0 -23 28q6 12 15.5 16t30.5 4q20 0 10 15q-5 6 -14.5 15t-12.5 13q-39 51 -39 89q0 47 46 85.5t101 56.5t97 18q158 0 158 -63q0 -24 -28 -53.5t-66 -47.5q-23 -10 -36 -5q-15 7 -8 30q18 77 -43 77q-33 0 -53.5 -22.5t-20.5 -66.5q0 -22 8.5 -39
t31.5 -48q18 -22 28 -39q2 -4 3.5 -6t3.5 -2.5t3 -0.5h5.5h6.5q5 1 21.5 3t37.5 4q5 0 11.5 1t10.5 1.5t8.5 1t7 0t5 -2t3.5 -4.5t1 -7q0 -7 -9.5 -21t-21.5 -19q-13 -10 -39 -10h-30q-16 -1 -16 -14q-2 -9 -9 -17.5t-19 -16.5t-21 -13.5t-25 -14.5t-22 -12q-6 -4 -6.5 -9.5
t3.5 -7.5t10 0q23 7 48 7t53 -19q26 -20 47 -20q38 0 54 37q15 30 38 30q21 0 21 -32q0 -47 -53.5 -115.5t-118.5 -68.5q-32 0 -50 17q-46 40 -90 40q-98 0 -147 -37q-13 -10 -31 -14.5t-30 3.5q-2 2 -3.5 4.5t-2.5 5t-0.5 6t0.5 5t1 6t2 6.5t2.5 7.5t2.5 7.5q16 36 43 70
t53 41q46 12 85 42q37 25 37 56q0 19 -16 19z" />
    <glyph glyph-name="currency" unicode="&#xa4;" horiz-adv-x="488" 
d="M122 438q22 -16 31 -20q7 -5 16 0q51 30 107 30q63 0 105 -27q6 -4 19 0q4 2 30 17q13 6 24.5 5.5t16.5 -4.5q7 -5 4.5 -16t-11.5 -16l-13.5 -9t-17.5 -12q-10 -6 -5 -16q13 -29 10 -67q-6 -46 -31 -69q-5 -8 0 -13q19 -20 31 -29q15 -12 -3 -30q-17 -15 -35 -2
q-6 4 -14.5 11t-14.5 10q-12 7 -23 -1q-40 -25 -102 -25q-54 0 -102 24q-7 5 -20 0q-3 -1 -36 -19q-21 -12 -37 4q-15 15 6 30q4 3 17 12t20 15q8 6 4 15q-16 19 -11 65q3 40 24 64q7 12 1 18q-5 5 -14.5 12t-12.5 10q-9 8 -8 18t9 15q19 11 36 0zM146 301q-5 -45 21.5 -71
t84.5 -26q56 0 89 26.5t38 70.5q4 42 -23 69.5t-84 27.5q-51 0 -86 -27.5t-40 -69.5z" />
    <glyph glyph-name="yen" unicode="&#xa5;" horiz-adv-x="564" 
d="M136 608h146q28 0 38.5 -8.5t17.5 -33.5q33 -122 69 -202q13 -22 35 3q13 15 61 50q55 38 57 69q1 22 -14 31t-36 3q-22 -6 -27 18q-3 12 9.5 27t26.5 23q45 29 96 29q32 -1 55.5 -21t21.5 -51q-3 -40 -27.5 -67t-75.5 -61q-9 -7 -30.5 -20.5t-41 -27.5t-35.5 -29
q-9 -7 -9 -12.5t12 -5.5q4 0 18 2.5t22 2.5q37 6 41 3q5 -3 2 -11q-2 -9 -12.5 -26.5t-22.5 -23.5q-14 -6 -41 -6q-8 -1 -37 -1q-10 0 -14 -0.5t-8.5 -5t-7.5 -15.5l-9 -36q-2 -15 0 -17t18 -1q35 2 53 6q21 5 34 4.5t9 -13.5q-1 -8 -12 -26t-23 -23q-14 -7 -40 -7
q-3 0 -14 -0.5t-18 -0.5h-4q-8 0 -11 -0.5t-5 -4t-3 -12.5q-4 -24 1.5 -34t25.5 -18q38 -16 35 -35q-2 -11 -13 -18.5t-27 -5.5q-53 6 -257 -2q-9 -1 -17 7t-7 19q2 12 16.5 20t27.5 10q50 7 71 56q0 3 1 6.5t-5 6.5t-18 3h-64q-45 0 -20 30q21 24 46 24q40 0 57 1
q15 0 18.5 3t7.5 19q6 26 8 38q6 20 -15 20h-64q-44 0 -20 30q19 24 46 24q6 0 20 0.5t20 0.5q20 0 4 36q-47 112 -85 161q-17 23 -28 31t-35 12q-15 2 -22.5 10.5t-5.5 16.5q4 26 34 26z" />
    <glyph glyph-name="brokenbar" unicode="&#xa6;" horiz-adv-x="309" 
d="M123 231q5 10 26 17t30 7q13 0 14 -13.5t-3 -32.5q-12 -134 -12 -217q0 -25 -30 -42q-29 -16 -29 25q0 2 -1 48t-2 99.5t-1 71.5q-2 24 8 37zM125 596q5 10 25.5 17t30.5 7q12 0 13 -13t-2 -33q-14 -154 -14 -215q0 -25 -30 -42q-29 -16 -29 25q0 2 -0.5 47.5t-1 98
t-0.5 70.5q-2 24 8 38z" />
    <glyph glyph-name="section" unicode="&#xa7;" horiz-adv-x="418" 
d="M264 480q-11 2 -10 23q2 23 -10 39.5t-34 16.5q-26 0 -40 -13t-14 -33q0 -46 82 -77q70 -27 95 -66.5t15 -94.5q-4 -19 -20.5 -51t-43.5 -55q-15 -13 -15.5 -14t7.5 -20q16 -37 7 -82q-10 -47 -65 -88.5t-123 -41.5q-20 0 -41 2t-46 8t-40 19t-13 32q9 47 68 75
q21 10 32 4q11 -4 10 -23q-2 -22 12.5 -39t36.5 -17q28 0 47 13.5t19 31.5q0 46 -82 78q-70 27 -94.5 66.5t-12.5 94.5q12 64 70 107q4 3 6.5 5.5t2.5 5.5t-1 4.5t-3.5 6.5t-4.5 8q-18 30 -8 85q10 48 59.5 89t117.5 41q20 0 40 -2t44.5 -8t38 -19t11.5 -32q-7 -47 -68 -75
q-22 -10 -32 -4zM250 234q6 22 -18.5 46.5t-92.5 60.5q-16 7 -29 -3q-14 -14 -18 -31q-6 -26 19.5 -50t89.5 -58q23 -9 34 7q10 14 15 28z" />
    <glyph glyph-name="dieresis" unicode="&#xa8;" horiz-adv-x="488" 
d="M311 603q-2 -30 -30 -55t-56 -25q-37 0 -32 43q3 36 25.5 60t52.5 24q44 0 40 -47zM486 603q-2 -30 -31.5 -55t-58.5 -25q-33 0 -30 43q3 36 26 60t54 24q43 0 40 -47z" />
    <glyph glyph-name="copyright" unicode="&#xa9;" horiz-adv-x="673" 
d="M39 285q13 133 120.5 230.5t232.5 97.5q123 0 202.5 -80.5t67.5 -225.5q-12 -130 -114 -228t-227 -98q-127 0 -210 81.5t-72 222.5zM97 287q-10 -111 50.5 -182t178.5 -71q109 0 189 80t90 195q10 117 -47.5 184t-170.5 67q-110 0 -195 -78.5t-95 -194.5zM309 82
q-71 0 -108.5 46.5t-35.5 99.5q2 116 79.5 200t167.5 84q60 0 81.5 -19t17.5 -47q-3 -22 -23 -43t-49 -33q-21 -6 -29 -3q-5 2 -6 9t3 13q11 15 6 37.5t-27 22.5q-37 0 -71.5 -47.5t-34.5 -154.5q0 -47 23 -71t48 -24q57 0 98 37q6 7 18.5 8.5t17.5 -1.5q5 -4 4.5 -14.5
t-6.5 -17.5q-76 -82 -174 -82z" />
    <glyph glyph-name="ordfeminine" unicode="&#xaa;" horiz-adv-x="426" 
d="M54 109q-13 0 -16.5 7.5t2.5 17.5q14 29 34 29q226 4 334 15q4 0 9 1t8 1.5t7 1t6 0t4 -2t2.5 -4.5t0.5 -7q0 -7 -9 -25.5t-18 -23.5q-11 -9 -32 -9q-20 0 -166.5 -0.5t-165.5 -0.5zM258 614q24 15 64 10q30 -5 57 -16q11 -5 31 7q38 27 39 28q26 18 38 13q16 -10 8 -23
q-42 -67 -51 -87q-35 -86 -47 -156q-2 -17 0 -24.5t10 -6.5q16 0 41 21q7 5 17.5 3.5t15.5 -8.5q11 -11 -5 -32q-28 -34 -74.5 -68t-80.5 -34q-31 0 -43.5 17.5t-10 38t11.5 43.5q7 16 1 19q-9 5 -20 -8q-56 -67 -98 -94q-32 -22 -61 -6.5t-29 56.5q0 86 46 174
q21 43 60 78.5t80 54.5zM236 388q59 57 78 128q7 27 -5 35q-16 10 -28 10q-24 1 -45 -32q-30 -49 -32 -120q-2 -22 7 -28.5t25 7.5z" />
    <glyph glyph-name="guillemotleft" unicode="&#xab;" horiz-adv-x="435" 
d="M237 388q7 -9 4 -20.5t-11 -21.5q-49 -59 -72 -99q-13 -24 -8 -46q4 -31 23 -90q9 -26 -9 -36q-20 -14 -39 14q-29 45 -87 109q-18 20 12 52q14 14 67.5 61.5t71.5 64.5q12 12 27.5 15t20.5 -3zM426 388q7 -9 4 -20.5t-12 -21.5q-54 -68 -71 -99q-13 -21 -9 -46
q6 -34 24 -90q8 -25 -9 -36q-20 -14 -39 14q-35 53 -88 109q-17 22 12 52q14 13 67.5 61t72.5 65q12 12 27 15t21 -3z" />
    <glyph glyph-name="logicalnot" unicode="&#xac;" horiz-adv-x="463" 
d="M74 269q-16 0 -22 9.5t1 19.5q20 25 45 25q158 2 283 14q19 1 29.5 -4.5t12 -12t0.5 -12.5q0 -2 -8 -31t-17 -63t-11 -49q-1 -16 -21 -21q-29 -7 -34 -8q-9 -1 -14.5 3.5t-2.5 14.5q14 46 26 99q3 18 -13 18q-37 0 -136.5 -1t-117.5 -1z" />
    <glyph glyph-name="uni00AD" unicode="&#xad;" horiz-adv-x="0" 
d="M-57 298q2 0 65 6t89 16q30 11 34 -1.5t-9 -33.5q-28 -55 -75 -56q-60 -2 -118 -2q-17 0 -22.5 11t1.5 25q15 30 35 35z" />
    <glyph glyph-name="registered" unicode="&#xae;" horiz-adv-x="673" 
d="M27 285q7 87 63.5 166t138 125.5t162.5 46.5q135 0 214 -84.5t67 -231.5q-12 -130 -121.5 -233t-234.5 -103q-137 0 -220 85.5t-69 228.5zM85 287q-11 -125 55.5 -194.5t184.5 -69.5q109 0 195 85.5t96 200.5q10 116 -53.5 189.5t-176.5 73.5q-109 0 -200 -84.5
t-101 -200.5zM226 484q6 18 37 15q31 -2 80 0t78 1q41 0 72.5 -21t31.5 -60q0 -58 -75 -87q-10 -5 -13.5 -9.5t-2.5 -16.5q15 -131 75 -128q18 1 23 -8q5 -13 -10 -22q-22 -13 -58 -23q-49 -9 -69 15q-43 45 -43 176q0 22 16 22q58 2 70 74q2 20 -15 34.5t-45 13.5
q-17 0 -22.5 -6t-11.5 -25q-3 -9 -48 -218q-9 -41 15 -53q14 -6 14 -17q0 -8 -9 -13.5t-21 -4.5q-57 6 -128 -3q-10 0 -16.5 4.5t-4.5 11.5q0 18 28 28q18 7 23 13t13 29q14 40 52 217q3 26 0.5 31.5t-15.5 9.5q-9 2 -15.5 8t-5.5 12z" />
    <glyph glyph-name="macron" unicode="&#xaf;" horiz-adv-x="488" 
d="M210 515q-18 0 -24 5t1 23q15 29 43 29q138 2 199 8q5 0 11 1t10 1.5t8.5 0.5t7.5 -0.5t5 -2t3 -4t1 -6.5q0 -8 -9.5 -25.5t-21.5 -23.5q-11 -7 -38 -7q-29 -1 -107 0t-89 1z" />
    <glyph glyph-name="degree" unicode="&#xb0;" horiz-adv-x="318" 
d="M92 484q2 52 41 87t88 35q52 0 81.5 -31t27.5 -84q-2 -49 -37.5 -85.5t-86.5 -36.5q-53 0 -84 30t-30 85zM157 484q-1 -26 13 -41t38 -15q28 0 44.5 17.5t16.5 45.5q1 20 -11.5 38.5t-41.5 18.5q-22 0 -40 -16.5t-19 -47.5z" />
    <glyph glyph-name="plusminus" unicode="&#xb1;" horiz-adv-x="465" 
d="M87 287q-15 0 -20.5 11.5t1.5 21.5q14 21 46 21q88 2 101 2q12 2 16.5 5.5t6.5 15.5l18 70q8 28 38 42q10 4 16.5 -2.5t3.5 -22.5l-19 -83q-4 -14 -2 -17t13 -3q47 0 99 8q38 6 42 0q2 -3 1 -9q-2 -9 -13 -26.5t-23 -23.5t-39 -6q-6 0 -29.5 -1t-43.5 -2q-12 -1 -15.5 -4
t-6.5 -13q0 -1 -0.5 -1.5t-0.5 -1.5q-8 -24 -12 -53q-2 -22 -16 -38q-8 -10 -28 -19t-28 -9q-17 0 -4 37q2 5 3 8q20 50 26 76q4 12 0.5 15t-15.5 3q-32 0 -70.5 -0.5t-45.5 -0.5zM45 61q-15 0 -21.5 7t-1.5 17q13 28 43 28q130 1 288 14q4 0 9 1t8 1.5t7 0.5h6.5h5t4.5 -1
t3.5 -2.5t2 -4t0.5 -5.5q0 -7 -10 -23.5t-20 -21.5q-12 -8 -38 -8q-147 -3 -286 -3z" />
    <glyph glyph-name="twosuperior" unicode="&#xb2;" horiz-adv-x="339" 
d="M206 643q6 -1 11 -5t3 -9q-5 -7 -3 -19t13 -12q13 0 44.5 7.5t47.5 7.5q33 0 49 -12.5t12 -39.5q-7 -43 -22.5 -72.5t-61.5 -72.5q-19 -18 -30 -27.5t-26 -20.5t-29 -22q-4 -3 -4.5 -6.5t2 -4.5t6.5 0q23 13 55 -8q14 -12 33 -12q24 0 34 23q11 18 25 18q8 0 14.5 -6
t6.5 -13q0 -29 -40.5 -79t-82.5 -50q-16 0 -27 11q-31 25 -65 25q-60 0 -92 -23q-28 -19 -39 -7q-7 7 2 30q9 21 31 49.5t38 33.5q25 6 53 29q121 88 121 134q0 25 -26 25q-15 0 -46 -8.5t-50 -8.5q-31 0 -22 55q3 16 17 41.5t22 35.5q14 14 26 13z" />
    <glyph glyph-name="threesuperior" unicode="&#xb3;" horiz-adv-x="324" 
d="M136 195q-36 0 -56.5 13t-20.5 36t23.5 49.5t47.5 33.5q13 2 20 -3q6 -4 4 -22q-5 -40 30 -40t63 16.5t28 45.5q0 30 -17.5 38t-51.5 7q-33 -1 -41 8.5t1 29.5q17 52 44 53q34 4 58.5 17t24.5 27q0 12 -5 16.5t-19 4.5q-17 0 -42.5 -6t-44.5 -6q-52 0 -49 60q2 31 30 63
q5 6 16 10.5t18 3.5q7 -2 9.5 -9.5t-0.5 -10.5q-16 -28 12 -28q13 0 40 7q21 6 57 6q35 0 53 -19t14 -39q-4 -25 -16.5 -44t-21 -26t-27.5 -20q-16 -13 -14 -15.5t19 -5.5q49 -10 37 -87q-11 -67 -74 -115.5t-149 -48.5z" />
    <glyph glyph-name="acute" unicode="&#xb4;" horiz-adv-x="488" 
d="M433 662q8 2 15 -3t7 -13q1 -14 -20 -26q-80 -41 -161 -101q-27 -19 -42 -14q-6 2 -9.5 10t3.5 20q44 55 69 95q9 14 26 21q3 1 112 11z" />
    <glyph glyph-name="mu" unicode="&#xb5;" horiz-adv-x="585" 
d="M375 385q9 21 45.5 36.5t66.5 19.5q22 3 37 -5.5t4 -28.5q-19 -33 -47.5 -113t-38.5 -130q-3 -18 1 -29t12 -10q17 0 48 27q8 7 20.5 5t19.5 -10q4 -5 2 -17t-9 -20q-31 -41 -83.5 -80.5t-93.5 -39.5q-69 0 -61 78q4 28 13 66q4 16 -3 20t-17 -8q-8 -10 -20.5 -26.5
t-20 -25.5t-22.5 -25t-34 -34q-26 -26 -63 -39q-8 -3 -21.5 -4t-19.5 -5t-8 -16q-1 -5 -3 -22t-3 -26q-2 -10 -3 -81.5t-2 -78.5q-5 -26 -31 -34q-51 -16 -115 -13q-14 1 -20.5 10t-2.5 25q5 15 36.5 81t40.5 89q7 16 24.5 58t29 71.5t19.5 56.5q10 31 27.5 89t32.5 105
t31 84q9 21 43 36.5t62 19.5q22 3 37 -5.5t4 -28.5q-18 -30 -43.5 -101.5t-40.5 -126.5q-4 -13 -2 -23.5t12 -12.5t32 18q28 25 55.5 71.5t39 72t33.5 80.5z" />
    <glyph glyph-name="mu" unicode="&#x3bc;" horiz-adv-x="585" 
d="M375 385q9 21 45.5 36.5t66.5 19.5q22 3 37 -5.5t4 -28.5q-19 -33 -47.5 -113t-38.5 -130q-3 -18 1 -29t12 -10q17 0 48 27q8 7 20.5 5t19.5 -10q4 -5 2 -17t-9 -20q-31 -41 -83.5 -80.5t-93.5 -39.5q-69 0 -61 78q4 28 13 66q4 16 -3 20t-17 -8q-8 -10 -20.5 -26.5
t-20 -25.5t-22.5 -25t-34 -34q-26 -26 -63 -39q-8 -3 -21.5 -4t-19.5 -5t-8 -16q-1 -5 -3 -22t-3 -26q-2 -10 -3 -81.5t-2 -78.5q-5 -26 -31 -34q-51 -16 -115 -13q-14 1 -20.5 10t-2.5 25q5 15 36.5 81t40.5 89q7 16 24.5 58t29 71.5t19.5 56.5q10 31 27.5 89t32.5 105
t31 84q9 21 43 36.5t62 19.5q22 3 37 -5.5t4 -28.5q-18 -30 -43.5 -101.5t-40.5 -126.5q-4 -13 -2 -23.5t12 -12.5t32 18q28 25 55.5 71.5t39 72t33.5 80.5z" />
    <glyph glyph-name="paragraph" unicode="&#xb6;" horiz-adv-x="488" 
d="M386 593q15 0 57 -1.5t56 -1.5q19 0 41.5 3.5t36.5 3.5q9 0 14.5 -9t2.5 -16q-2 -6 -13 -15.5t-19 -10.5q-54 -8 -71 -74q-31 -105 -54.5 -230.5t-24.5 -215.5q1 -9 0.5 -14t-3.5 -7t-11 -5q-22 -8 -62 -8q-9 0 -10.5 3.5t-0.5 23.5q5 88 119 493q5 23 -13 23
q-20 0 -26 -16q-35 -88 -74.5 -251t-45.5 -235q-1 -4 -1 -12.5t-3 -12t-13 -6.5q-7 -3 -16.5 -4t-22 -2t-19.5 -2q-18 -1 -21 6.5t3 26.5q10 40 18.5 67.5t23.5 70t25 72.5q2 9 -3 13.5t-14 2.5q-56 -24 -103 -24q-41 0 -68.5 30.5t-24.5 85.5q4 73 55 131t126 87.5
t159 29.5z" />
    <glyph glyph-name="periodcentered" unicode="&#xb7;" horiz-adv-x="184" 
d="M98 229q-31 0 -47.5 17.5t-16.5 48.5q0 26 21.5 48.5t57.5 22.5q27 0 43.5 -15.5t16.5 -39.5q0 -40 -23 -61t-52 -21z" />
    <glyph glyph-name="cedilla" unicode="&#xb8;" horiz-adv-x="488" 
d="M155 -195q17 14 21.5 32.5t-5.5 35.5q-31 46 40 104q34 29 48.5 36.5t27.5 -0.5q21 -13 -7 -41q-12 -12 -16 -22t-4 -14t6.5 -17t7.5 -17q4 -11 4.5 -21.5t-2 -19.5t-9.5 -19.5t-14 -18.5t-20 -20t-22 -20t-26 -21q-45 -37 -60 -10q-13 20 30 53z" />
    <glyph glyph-name="onesuperior" unicode="&#xb9;" horiz-adv-x="247" 
d="M103 203q-11 -2 -16.5 5t-1.5 21q15 36 46.5 129t41.5 131q1 9 -4 11t-12 -4q-11 -9 -56 -61q-5 -7 -16 0t-14 15q-9 25 10 40q60 45 93 82l25 27q5 6 40 10.5t53 4.5q22 0 11 -34q-48 -158 -80 -328q-4 -24 -13 -30q-5 -3 -12 -6q-28 -9 -95 -13z" />
    <glyph glyph-name="ordmasculine" unicode="&#xba;" horiz-adv-x="393" 
d="M49 112q-31 0 -14 33q12 26 35 26q119 2 212 15q3 0 7 1t7 1.5t6 0.5h5h4.5t3.5 -1t2 -2.5t1.5 -4t0.5 -5.5q0 -7 -9.5 -27.5t-17.5 -26.5q-10 -8 -34 -8q-20 0 -105 -1t-104 -1zM172 242q-47 0 -69.5 32t-20.5 80q0 65 43 141q36 60 81.5 92t81.5 32q40 0 61.5 -30
t20.5 -87q-3 -64 -43 -136q-26 -45 -72 -84.5t-83 -39.5zM238 527q-15 0 -30.5 -31t-18.5 -86q-6 -68 26 -68q43 0 49 127q2 58 -26 58z" />
    <glyph glyph-name="guillemotright" unicode="&#xbb;" horiz-adv-x="435" 
d="M225 75q-7 9 -4 20.5t11 21.5q49 59 72 99q13 24 8 46q-4 31 -23 90q-8 25 9 36q20 14 39 -14q29 -45 87 -109q18 -20 -12 -52q-14 -14 -67.5 -61.5t-71.5 -64.5q-12 -12 -27.5 -15t-20.5 3zM36 75q-15 14 8 42q54 68 71 99q13 21 9 46q-6 34 -24 90q-8 24 9 36
q21 13 39 -14q35 -53 88 -109q17 -22 -12 -52q-16 -15 -69.5 -62.5t-70.5 -63.5q-12 -12 -27 -15t-21 3z" />
    <glyph glyph-name="onequarter" unicode="&#xbc;" horiz-adv-x="801" 
d="M726 403q39 3 16 -49q-5 -13 -23.5 -81.5t-22.5 -98.5q0 -4 3.5 -5t19.5 -1q18 0 37 22q4 6 12 8.5t14 0.5q5 -1 8.5 -7.5t1.5 -10.5q-16 -47 -42 -72q-14 -14 -25 -14q-5 0 -15 1.5t-15 1.5q-14 0 -21 -24q-6 -26 -6 -48q2 -25 -13 -34q-10 -10 -50 -15.5t-58 -5.5
q-14 0 -14 16q0 13 17 47q8 20 16 58q1 6 -2 10t-11 5.5t-15.5 2t-19.5 0.5q-19 0 -48 -5.5t-47 -5.5q-25 0 -25 21q0 36 34 68q7 6 45.5 41.5t73 67t44.5 40.5q25 25 30 36q7 14 39.5 21.5t61.5 8.5zM92 203q-11 -2 -16.5 5t-1.5 21q15 36 46.5 129t41.5 131q1 9 -4 11
t-12 -4q-11 -9 -56 -61q-5 -7 -16 0t-14 15q-9 25 10 40q60 45 93 82l26 27q4 6 39.5 10.5t52.5 4.5q22 0 11 -34q-48 -158 -80 -328q-4 -24 -13 -30q-5 -3 -12 -6q-28 -9 -95 -13zM131 -27q-15 4 -12 18t28 47q103 135 354 497q33 48 46 73q6 9 21.5 8.5t17.5 -11.5
q5 -33 -8 -76q-8 -30 -36 -66q-18 -22 -86.5 -111.5t-150.5 -197.5t-107 -141q-39 -49 -67 -40zM611 271q2 9 -3.5 10t-12.5 -6q-9 -7 -31 -25.5t-35.5 -30.5t-30.5 -29q-11 -12 7 -12q7 0 17 2.5t16 2.5q17 0 29 -5q7 -2 10.5 0.5t7.5 11.5q20 51 26 81z" />
    <glyph glyph-name="onehalf" unicode="&#xbd;" horiz-adv-x="814" 
d="M607 421q6 -1 11 -5.5t2 -8.5q-4 -8 -2.5 -20t12.5 -12q14 0 45 8t48 8q33 0 49 -13t12 -39q-8 -44 -23.5 -73.5t-61.5 -71.5q-19 -19 -29.5 -27.5t-26.5 -20.5t-29 -22q-3 -3 -3.5 -6.5t2 -5t6.5 0.5q23 13 54 -9q17 -11 34 -11q24 0 34 22q2 6 9 12.5t16 6.5q8 0 14 -6
t6 -14q0 -29 -40 -78.5t-82 -49.5q-16 0 -28 11q-33 25 -64 25q-61 0 -92 -24q-9 -6 -20 -8.5t-19 2.5q-7 7 2 30q9 21 31 49.5t38 32.5q26 8 53 30q120 87 120 134q0 25 -25 25q-15 0 -46 -8.5t-50 -8.5q-31 0 -22 55q3 16 17.5 42.5t21.5 33.5q12 15 26 14zM92 203
q-11 -2 -16.5 5t-1.5 21q15 36 46.5 129t41.5 131q1 9 -4 11t-12 -4q-11 -9 -56 -61q-5 -7 -16 0t-14 15q-9 25 10 40q60 45 93 82l26 27q4 6 39.5 10.5t52.5 4.5q22 0 11 -34q-48 -158 -80 -328q-4 -24 -13 -30q-5 -3 -12 -6q-28 -9 -95 -13zM131 -27q-15 4 -12 18t28 47
q103 135 354 497q33 48 46 73q6 9 21.5 8.5t17.5 -11.5q5 -33 -8 -76q-8 -30 -36 -66q-18 -22 -86.5 -111.5t-150.5 -197.5t-107 -141q-39 -49 -67 -40z" />
    <glyph glyph-name="threequarters" unicode="&#xbe;" horiz-adv-x="862" 
d="M113 195q-37 0 -57.5 13t-20.5 36t24 49.5t47 33.5q14 2 20 -3q6 -4 4 -22q-5 -40 31 -40q35 0 63 16.5t28 45.5q0 30 -17.5 38t-51.5 7t-42 8.5t1 29.5q18 52 44 53q34 4 58.5 17t24.5 27q0 12 -5 16.5t-18 4.5q-18 0 -43.5 -6t-44.5 -6q-51 0 -49 60q2 30 31 63
q5 6 15.5 10.5t17.5 3.5q7 -2 9.5 -9t0.5 -11q-17 -28 11 -28q13 0 40 7q22 6 57 6t53 -19t15 -39q-5 -25 -17 -43.5t-21 -26t-27 -20.5q-9 -6 -13 -10t-0.5 -6t6 -2.5t11.5 -2.5q50 -10 38 -87q-11 -67 -74 -115.5t-149 -48.5zM790 403q39 3 16 -49q-5 -13 -23.5 -81.5
t-22.5 -98.5q0 -4 3.5 -5t19.5 -1q18 0 37 22q4 6 12 8.5t14 0.5q5 -1 8.5 -7.5t1.5 -10.5q-16 -47 -42 -72q-14 -14 -25 -14q-5 0 -15 1.5t-15 1.5q-14 0 -21 -24q-7 -30 -7 -48q3 -25 -12 -34q-10 -10 -50 -15.5t-58 -5.5q-14 0 -14 16q0 13 17 47q8 20 16 58q1 6 -2 10
t-11 5.5t-15.5 2t-19.5 0.5q-19 0 -48 -5.5t-47 -5.5q-25 0 -25 21q0 36 34 68q7 6 45.5 41.5t73 67t44.5 40.5q25 25 30 36q7 14 39.5 21.5t61.5 8.5zM675 271q2 9 -3.5 10t-12.5 -6q-9 -7 -31 -25.5t-35.5 -30.5t-30.5 -29q-11 -12 7 -12q7 0 17 2.5t16 2.5q17 0 29 -5
q7 -2 10.5 0.5t7.5 11.5q20 51 26 81zM195 -27q-15 4 -12 18t28 47q103 135 354 497q33 48 46 73q6 9 21.5 8.5t17.5 -11.5q5 -33 -8 -76q-8 -30 -36 -66q-18 -22 -86.5 -111.5t-150.5 -197.5t-107 -141q-39 -49 -67 -40z" />
    <glyph glyph-name="questiondown" unicode="&#xbf;" horiz-adv-x="465" 
d="M289 264q14 3 22.5 -6t6.5 -19q-9 -71 -82 -119q-61 -40 -86 -78t-27 -98q-1 -21 15.5 -40.5t43.5 -19.5q40 0 65 19.5t25 50.5q0 30 -15 41q-4 3 -9.5 6t-7 4.5l-3.5 3.5t-3 6q-3 10 14 23q29 22 66 22t62 -19t25 -58q0 -55 -73 -112t-168 -57q-47 0 -81 10t-51.5 23
t-27.5 31.5t-12 30.5t-2 25q-1 58 39.5 107.5t126.5 98.5q45 26 73 53t30 46q3 21 34 25zM309 309q-27 -2 -49.5 11.5t-22.5 38.5q0 67 75 80q39 3 59 -14.5t20 -43.5q0 -30 -25.5 -50t-56.5 -22z" />
    <glyph glyph-name="Agrave" unicode="&#xc0;" horiz-adv-x="701" 
d="M510 602q10 -87 37 -266.5t32 -199.5q5 -28 9.5 -40.5t18 -24.5t38.5 -20q7 -2 12 -11t5 -16q-1 -9 -8.5 -18t-21.5 -8q-64 5 -253 -1q-8 0 -14 7t-6 14q0 21 14 25q50 14 51 46q3 25 -7 70q-3 10 -21 14q-23 4 -84 4t-78 -2q-34 -2 -42 -15q-25 -38 -30 -66
q-4 -16 9.5 -30t34.5 -18q8 -1 15.5 -9.5t5.5 -16.5q-2 -9 -13.5 -15.5t-23.5 -5.5q-32 3 -87 3t-84 -2q-11 -1 -20 0t-15 4t-6 7q2 18 15 35t37 38.5t26 23.5q56 62 140 173t139 195q21 33 32 62q8 22 37.5 42.5t60.5 33.5q43 17 45 -12zM371 407q-6 0 -32 -37
q-70 -100 -81 -118q-16 -23 11 -25q36 -2 124 -1q11 0 15 5t3 20q-7 58 -21 127q-6 29 -19 29zM453 654q-4 2 -15 8.5t-15 8.5t-13.5 7.5t-13.5 8l-12 7.5l-12 7.5t-10.5 7t-10.5 8t-8 8t-8 8.5q-7 7 -5.5 19.5t11.5 16.5q9 4 40 9t48 5q11 0 18.5 -8t9.5 -16q6 -26 37 -89
q3 -4 0.5 -12t-8.5 -12q-10 -3 -33 8z" />
    <glyph glyph-name="Aacute" unicode="&#xc1;" horiz-adv-x="701" 
d="M510 602q10 -87 37 -266.5t32 -199.5q5 -28 9.5 -40.5t18 -24.5t38.5 -20q7 -2 12 -11t5 -16q-1 -9 -8.5 -18t-21.5 -8q-64 5 -253 -1q-8 0 -14 7t-6 14q0 21 14 25q50 14 51 46q3 25 -7 70q-3 10 -21 14q-23 4 -84 4t-78 -2q-34 -2 -42 -15q-25 -38 -30 -66
q-4 -16 9.5 -30t34.5 -18q8 -1 15.5 -9.5t5.5 -16.5q-2 -9 -13.5 -15.5t-23.5 -5.5q-32 3 -87 3t-84 -2q-11 -1 -20 0t-15 4t-6 7q2 18 15 35t37 38.5t26 23.5q56 62 140 173t139 195q21 33 32 62q8 22 37.5 42.5t60.5 33.5q43 17 45 -12zM371 407q-6 0 -32 -37
q-70 -100 -81 -118q-16 -23 11 -25q36 -2 124 -1q11 0 15 5t3 20q-7 58 -21 127q-6 29 -19 29zM641 783q8 1 14.5 -5t6.5 -12q1 -6 -6.5 -14.5t-13.5 -11.5q-85 -42 -133 -73q-25 -18 -41 -13q-6 2 -9 9.5t4 18.5q11 14 27.5 38.5t20.5 30.5q14 16 25 20q7 2 53 6.5t52 5.5z
" />
    <glyph glyph-name="Acircumflex" unicode="&#xc2;" horiz-adv-x="701" 
d="M510 602q10 -87 37 -266.5t32 -199.5q5 -28 9.5 -40.5t18 -24.5t38.5 -20q7 -2 12 -11t5 -16q-1 -9 -8.5 -18t-21.5 -8q-64 5 -253 -1q-8 0 -14 7t-6 14q0 21 14 25q50 14 51 46q3 25 -7 70q-3 10 -21 14q-23 4 -84 4t-78 -2q-34 -2 -42 -15q-25 -38 -30 -66
q-4 -16 9.5 -30t34.5 -18q8 -1 15.5 -9.5t5.5 -16.5q-2 -9 -13.5 -15.5t-23.5 -5.5q-32 3 -87 3t-84 -2q-11 -1 -20 0t-15 4t-6 7q2 18 15 35t37 38.5t26 23.5q56 62 140 173t139 195q21 33 32 62q8 22 37.5 42.5t60.5 33.5q43 17 45 -12zM524 782q27 4 32 -22
q3 -22 18 -52.5t17 -37.5q10 -22 -16 -33q-16 -6 -35 15l-27 21q-18 12 -45 2q-35 -13 -61 -29q-26 -19 -42 -3q-17 19 16 45q11 6 40.5 29.5t39.5 34.5q22 22 63 30zM371 407q-6 0 -32 -37q-70 -100 -81 -118q-16 -23 11 -25q36 -2 124 -1q11 0 15 5t3 20q-7 58 -21 127
q-6 29 -19 29z" />
    <glyph glyph-name="Atilde" unicode="&#xc3;" horiz-adv-x="701" 
d="M510 602q10 -87 37 -266.5t32 -199.5q5 -28 9.5 -40.5t18 -24.5t38.5 -20q7 -2 12 -11t5 -16q-1 -9 -8.5 -18t-21.5 -8q-64 5 -253 -1q-8 0 -14 7t-6 14q0 21 14 25q50 14 51 46q3 25 -7 70q-3 10 -21 14q-23 4 -84 4t-78 -2q-34 -2 -42 -15q-25 -38 -30 -66
q-4 -16 9.5 -30t34.5 -18q8 -1 15.5 -9.5t5.5 -16.5q-2 -9 -13.5 -15.5t-23.5 -5.5q-32 3 -87 3t-84 -2q-11 -1 -20 0t-15 4t-6 7q2 18 15 35t37 38.5t26 23.5q56 62 140 173t139 195q21 33 32 62q8 22 37.5 42.5t60.5 33.5q43 17 45 -12zM371 407q-6 0 -32 -37
q-70 -100 -81 -118q-16 -23 11 -25q36 -2 124 -1q11 0 15 5t3 20q-7 58 -21 127q-6 29 -19 29zM415 674q-25 -19 -36 -23.5t-23 2.5q-22 19 20 54q23 19 35.5 29t31 21.5t31 15t27.5 2.5t28 -9q2 -1 9 -5.5t9 -5.5t8 -3.5t8.5 -2.5t8.5 -0.5t10 1.5t10 4.5t12 7.5
q34 25 45 17q23 -17 -29 -69q-90 -85 -137 -42q-33 33 -68 6z" />
    <glyph glyph-name="Adieresis" unicode="&#xc4;" horiz-adv-x="701" 
d="M510 602q10 -87 37 -266.5t32 -199.5q5 -28 9.5 -40.5t18 -24.5t38.5 -20q7 -2 12 -11t5 -16q-1 -9 -8.5 -18t-21.5 -8q-64 5 -253 -1q-8 0 -14 7t-6 14q0 21 14 25q50 14 51 46q3 25 -7 70q-3 10 -21 14q-23 4 -84 4t-78 -2q-34 -2 -42 -15q-25 -38 -30 -66
q-4 -16 9.5 -30t34.5 -18q8 -1 15.5 -9.5t5.5 -16.5q-2 -9 -13.5 -15.5t-23.5 -5.5q-32 3 -87 3t-84 -2q-11 -1 -20 0t-15 4t-6 7q2 18 15 35t37 38.5t26 23.5q56 62 140 173t139 195q21 33 32 62q8 22 37.5 42.5t60.5 33.5q43 17 45 -12zM371 407q-6 0 -32 -37
q-70 -100 -81 -118q-16 -23 11 -25q36 -2 124 -1q11 0 15 5t3 20q-7 58 -21 127q-6 29 -19 29zM476 729q-3 -30 -31 -55t-56 -25q-37 0 -32 43q3 36 25.5 60t52.5 24q44 0 41 -47zM650 729q-2 -29 -31.5 -54.5t-58.5 -25.5q-32 0 -30 43q3 36 26 60t54 24q43 0 40 -47z" />
    <glyph glyph-name="Aring" unicode="&#xc5;" horiz-adv-x="701" 
d="M508 595q9 -85 37 -261t34 -198q5 -28 9.5 -40.5t18 -24.5t38.5 -20q7 -2 12 -11t5 -16q-1 -9 -8.5 -18t-21.5 -8q-64 5 -253 -1q-8 0 -14 7t-6 14q0 21 14 25q50 14 51 46q3 25 -7 70q-3 10 -21 14q-23 4 -84 4t-78 -2q-34 -2 -42 -15q-25 -38 -30 -66q-4 -16 9.5 -30
t34.5 -18q8 -1 15.5 -9.5t5.5 -16.5q-2 -9 -13.5 -15.5t-23.5 -5.5q-32 3 -87 3t-84 -2q-11 -1 -20 0t-15 4t-6 7q2 18 15 35t37 38.5t26 23.5q57 63 140 172t137 190q25 38 32 61q15 40 99 77q43 15 44 -13zM371 407q-6 0 -32 -37q-70 -100 -81 -118q-16 -23 11 -25
q36 -2 124 -1q11 0 15 5t3 20q-7 58 -21 127q-6 29 -19 29zM516 783q103 0 103 -64q0 -43 -44.5 -65t-93.5 -21q-58 0 -81 20.5t-23 46.5q0 36 43.5 59.5t95.5 23.5zM503 738q-19 0 -31 -11t-12 -26q0 -11 8.5 -17.5t21.5 -6.5q42 0 42 35q0 12 -8.5 19t-20.5 7z" />
    <glyph glyph-name="AE" unicode="&#xc6;" horiz-adv-x="1018" 
d="M506 609q28 -2 147 -2q47 0 173.5 4t130.5 4q39 0 53 -15.5t10 -37.5q-3 -25 -18.5 -60t-37.5 -53q-30 -23 -43 -19q-16 5 -11 25q9 39 -10 67t-51 30q-109 8 -135 0q-21 -5 -26 -23q-24 -70 -37 -134q-9 -31 -4.5 -41t33.5 -10q91 0 120 70q4 10 14.5 15t17.5 3
q22 -5 15 -29q-21 -57 -49 -179q-6 -22 -30 -22q-10 0 -17 6t-5 15q7 27 -18.5 46t-68.5 19q-17 0 -23.5 -5.5t-10.5 -19.5q-14 -42 -34 -133q-8 -28 -4.5 -41t24.5 -19q17 -5 65 -5t79 4q58 7 103 39.5t68 82.5q11 25 34 23q10 -1 14.5 -12.5t-2.5 -33.5
q-41 -129 -108 -165q-28 -9 -58 -6q-183 12 -271 10q-24 0 -104 -4.5t-93 -4.5q-7 -1 -11.5 5.5t-4.5 15.5q0 12 17 23.5t31 13.5q47 7 69 68l3 9t3 8t2 7t1 7v5.5t-2 5t-4 3.5t-6.5 2.5t-9.5 0.5q-137 0 -146 -1q-33 -2 -47 -15q-30 -28 -48 -62q-9 -16 -2.5 -30t27.5 -18
q8 -1 15 -10t3 -16q-11 -24 -32 -21q-31 3 -91.5 3t-90.5 -2q-15 -1 -24 1.5t-10 7.5t1 11q7 17 25.5 33.5t43.5 32.5t32 22q75 61 192 172.5t197 195.5q1 1 10.5 9.5t15.5 15t12.5 15.5t6 16.5t-8.5 12.5q-6 4 -36 14q-14 2 -10 28q2 9 13 17t32 5zM327 252q-20 -23 5 -25
q56 -3 108 -2q21 0 25 4.5t10 26.5l31 131q9 38 0 38q-6 0 -22 -16q-63 -60 -157 -157z" />
    <glyph glyph-name="Ccedilla" unicode="&#xc7;" horiz-adv-x="560" 
d="M168 -212q16 14 19.5 33.5t-8.5 35.5q-33 43 42 115q12 11 9.5 14.5t-20.5 7.5q-52 12 -85.5 49t-45 78t-10.5 84q3 166 115.5 288t243.5 122q86 0 115 -24t24 -62q-4 -35 -29 -66.5t-67 -48.5q-26 -11 -41 -4q-5 2 -6.5 12.5t3.5 19.5q15 22 5 57.5t-42 35.5
q-17 0 -36 -6t-44.5 -26t-45 -51.5t-33 -88.5t-13.5 -130q0 -72 31 -109t72 -37q40 0 80 13.5t64 35.5q9 10 25.5 11.5t22.5 -3.5q8 -5 7 -16.5t-9 -20.5q-87 -93 -188 -112q-17 -4 -23 -8t-18 -19q-8 -9 -12.5 -16.5t-3.5 -16.5t1.5 -12.5t6.5 -15t7 -14.5q16 -33 -7 -67
t-76 -79q-22 -20 -34 -23.5t-22 8.5q-14 20 26 56z" />
    <glyph glyph-name="Egrave" unicode="&#xc8;" horiz-adv-x="511" 
d="M224 -8q-95 0 -140.5 36.5t-43.5 110.5q1 73 45 122.5t114 68.5q18 4 18 13q0 10 -16 14q-37 7 -56 32.5t-17 66.5q5 71 84.5 114.5t173.5 43.5q24 0 46 -2.5t47 -9.5t39.5 -22t12.5 -37q-2 -27 -26 -54t-61 -39q-31 -11 -43 -4q-4 3 -6 10.5t3 15.5q12 19 13 46
q2 39 -47 39q-38 0 -66.5 -23t-32.5 -69q-4 -44 16 -68t50 -26q27 -3 38 -1q13 1 17.5 -9.5t-4.5 -29.5q-14 -28 -37 -30q-71 -4 -114.5 -39.5t-43.5 -99.5q0 -37 20.5 -61t54.5 -24q73 0 142 69q6 6 19 9.5t26 -1.5q20 -12 5 -33q-35 -55 -104 -92t-126 -37zM375 654
q-95 52 -118 79q-7 7 -5.5 19.5t11.5 16.5q8 4 39 9t49 5q11 0 18.5 -8t9.5 -16q5 -23 37 -89q6 -17 -9 -24q-11 -4 -32 8z" />
    <glyph glyph-name="Eacute" unicode="&#xc9;" horiz-adv-x="511" 
d="M224 -8q-95 0 -140.5 36.5t-43.5 110.5q1 73 45 122.5t114 68.5q18 4 18 13q0 10 -16 14q-37 7 -56 32.5t-17 66.5q5 71 84.5 114.5t173.5 43.5q24 0 46 -2.5t47 -9.5t39.5 -22t12.5 -37q-2 -27 -26 -54t-61 -39q-31 -11 -43 -4q-4 3 -6 10.5t3 15.5q12 19 13 46
q2 39 -47 39q-38 0 -66.5 -23t-32.5 -69q-4 -44 16 -68t50 -26q27 -3 38 -1q13 1 17.5 -9.5t-4.5 -29.5q-14 -28 -37 -30q-71 -4 -114.5 -39.5t-43.5 -99.5q0 -37 20.5 -61t54.5 -24q73 0 142 69q6 6 19 9.5t26 -1.5q20 -12 5 -33q-35 -55 -104 -92t-126 -37zM537 783
q8 1 14 -4.5t6 -12.5q1 -6 -6 -14.5t-13 -11.5q-89 -44 -133 -73q-25 -18 -41 -13q-6 2 -9 9.5t4 18.5q11 14 27.5 38.5t20.5 30.5q11 15 25 20q7 2 53 6.5t52 5.5z" />
    <glyph glyph-name="Ecircumflex" unicode="&#xca;" horiz-adv-x="511" 
d="M224 -8q-95 0 -140.5 36.5t-43.5 110.5q1 73 45 122.5t114 68.5q18 4 18 13q0 10 -16 14q-37 7 -56 32.5t-17 66.5q5 71 84.5 114.5t173.5 43.5q24 0 46 -2.5t47 -9.5t39.5 -22t12.5 -37q-2 -27 -26 -54t-61 -39q-31 -11 -43 -4q-4 3 -6 10.5t3 15.5q12 19 13 46
q2 39 -47 39q-38 0 -66.5 -23t-32.5 -69q-4 -44 16 -68t50 -26q27 -3 38 -1q13 1 17.5 -9.5t-4.5 -29.5q-14 -28 -37 -30q-71 -4 -114.5 -39.5t-43.5 -99.5q0 -37 20.5 -61t54.5 -24q73 0 142 69q6 6 19 9.5t26 -1.5q20 -12 5 -33q-35 -55 -104 -92t-126 -37zM435 782
q28 4 32 -22q4 -22 19 -52t17 -38q10 -22 -16 -33q-15 -6 -36 15q-10 9 -27 21q-18 12 -44 2q-35 -13 -61 -29q-27 -18 -42 -3q-17 19 16 45q10 6 39.5 29.5t40.5 34.5q22 22 62 30z" />
    <glyph glyph-name="Edieresis" unicode="&#xcb;" horiz-adv-x="511" 
d="M224 -8q-95 0 -140.5 36.5t-43.5 110.5q1 73 45 122.5t114 68.5q18 4 18 13q0 10 -16 14q-37 7 -56 32.5t-17 66.5q5 71 84.5 114.5t173.5 43.5q24 0 46 -2.5t47 -9.5t39.5 -22t12.5 -37q-2 -27 -26 -54t-61 -39q-31 -11 -43 -4q-4 3 -6 10.5t3 15.5q12 19 13 46
q2 39 -47 39q-38 0 -66.5 -23t-32.5 -69q-4 -44 16 -68t50 -26q27 -3 38 -1q13 1 17.5 -9.5t-4.5 -29.5q-14 -28 -37 -30q-71 -4 -114.5 -39.5t-43.5 -99.5q0 -37 20.5 -61t54.5 -24q73 0 142 69q6 6 19 9.5t26 -1.5q20 -12 5 -33q-35 -55 -104 -92t-126 -37zM363 729
q-3 -30 -31 -55t-56 -25q-35 0 -32 43q3 36 25.5 60t52.5 24q44 0 41 -47zM537 729q-1 -29 -31 -54.5t-59 -25.5q-32 0 -29 43q2 36 25 60t54 24q44 0 40 -47z" />
    <glyph glyph-name="Igrave" unicode="&#xcc;" horiz-adv-x="388" 
d="M434 606q15 1 20 -6.5t3 -19.5q-8 -23 -29 -26q-33 -7 -50 -23t-29 -50q-8 -25 -43.5 -171t-40.5 -185q-6 -50 29 -64q33 -15 31 -37q-2 -9 -14 -17.5t-27 -6.5q-59 7 -272 -2q-7 -1 -12 5.5t-4 15.5q0 12 17 23.5t30 13.5q43 6 69 68q10 26 48.5 179t41.5 183
q2 20 -3.5 34t-18.5 21t-19.5 9.5t-17.5 5.5q-8 1 -10 12t1 15q6 27 44 23q22 -2 118 -2t138 2zM322 654q-95 52 -118 79q-7 7 -5.5 19.5t11.5 16.5q8 4 39 9t49 5q11 0 18.5 -8t9.5 -16q5 -23 37 -89q6 -17 -9 -24q-11 -4 -32 8z" />
    <glyph glyph-name="Iacute" unicode="&#xcd;" horiz-adv-x="388" 
d="M434 606q15 1 20 -6.5t3 -19.5q-8 -23 -29 -26q-33 -7 -50 -23t-29 -50q-8 -25 -43.5 -171t-40.5 -185q-6 -50 29 -64q33 -15 31 -37q-2 -9 -14 -17.5t-27 -6.5q-59 7 -272 -2q-7 -1 -12 5.5t-4 15.5q0 12 17 23.5t30 13.5q43 6 69 68q10 26 48.5 179t41.5 183
q2 20 -3.5 34t-18.5 21t-19.5 9.5t-17.5 5.5q-8 1 -10 12t1 15q6 27 44 23q22 -2 118 -2t138 2zM450 783q8 1 14.5 -5t6.5 -12q1 -7 -6 -15.5t-14 -10.5q-57 -21 -135 -73q-25 -18 -42 -13q-6 2 -8.5 9.5t3.5 18.5q10 12 48 69q14 16 26 20q7 2 54 6.5t53 5.5z" />
    <glyph glyph-name="Icircumflex" unicode="&#xce;" horiz-adv-x="388" 
d="M434 606q15 1 20 -6.5t3 -19.5q-8 -23 -29 -26q-33 -7 -50 -23t-29 -50q-8 -25 -43.5 -171t-40.5 -185q-6 -50 29 -64q33 -15 31 -37q-2 -9 -14 -17.5t-27 -6.5q-59 7 -272 -2q-7 -1 -12 5.5t-4 15.5q0 12 17 23.5t30 13.5q43 6 69 68q10 26 48.5 179t41.5 183
q2 20 -3.5 34t-18.5 21t-19.5 9.5t-17.5 5.5q-8 1 -10 12t1 15q6 27 44 23q22 -2 118 -2t138 2zM364 782q27 4 32 -22q3 -22 18 -52.5t17 -37.5q10 -22 -16 -33q-16 -6 -35 15q-4 4 -8.5 7.5t-10 7.5t-8.5 6q-18 12 -45 2q-35 -13 -61 -29q-26 -19 -42 -3q-17 19 16 45
q11 6 40.5 29.5t39.5 34.5q22 22 63 30z" />
    <glyph glyph-name="Idieresis" unicode="&#xcf;" horiz-adv-x="388" 
d="M434 606q15 1 20 -6.5t3 -19.5q-8 -23 -29 -26q-33 -7 -50 -23t-29 -50q-8 -25 -43.5 -171t-40.5 -185q-6 -50 29 -64q33 -15 31 -37q-2 -9 -14 -17.5t-27 -6.5q-59 7 -272 -2q-7 -1 -12 5.5t-4 15.5q0 12 17 23.5t30 13.5q43 6 69 68q10 26 48.5 179t41.5 183
q2 20 -3.5 34t-18.5 21t-19.5 9.5t-17.5 5.5q-8 1 -10 12t1 15q6 27 44 23q22 -2 118 -2t138 2zM311 729q-3 -30 -31 -55t-56 -25q-37 0 -32 43q3 36 25.5 60t52.5 24q44 0 41 -47zM485 729q-2 -29 -31.5 -54.5t-58.5 -25.5q-32 0 -30 43q3 36 26 60t54 24q43 0 40 -47z" />
    <glyph glyph-name="Eth" unicode="&#xd0;" horiz-adv-x="671" 
d="M155 600q83 9 204 9q74 0 119 -5q75 -9 123.5 -63.5t48.5 -141.5q0 -101 -50 -196t-132.5 -154t-171.5 -59q-48 0 -102.5 10.5t-81.5 32.5q-24 15 -8 76l39 162q6 29 -16 29h-25q-19 0 -25 5t1 22q9 17 18 22.5t25 5.5q21 0 33 5t13.5 8.5t3.5 11.5l18 77q5 20 6 33
t-1 27t-12 20.5t-29 5.5q-17 -1 -26.5 7.5t-9.5 18.5q0 9 11.5 19.5t26.5 11.5zM349 513q-6 -25 -17.5 -67t-16.5 -60q-4 -17 -1 -20t21 -2l57 6q4 0 11 1l10.5 1.5t8 1t7 0t5 -2t3.5 -4.5t1 -7q0 -8 -9.5 -26.5t-21.5 -24.5q-11 -7 -38 -7q-10 -1 -44 -1q-15 0 -19.5 -0.5
t-9 -5.5t-6.5 -16q-21 -97 -32 -164q-5 -25 4 -40.5t47 -15.5q78 0 125.5 88.5t66.5 222.5q24 176 -112 176q-21 -1 -28 -7t-12 -26z" />
    <glyph glyph-name="Ntilde" unicode="&#xd1;" horiz-adv-x="740" 
d="M406 674q-25 -19 -36.5 -23.5t-22.5 2.5q-22 19 20 54q23 19 35.5 29t31 21.5t31 15t27.5 2.5t28 -9q1 -1 7.5 -5t8 -4.5t7 -3.5t8 -3t7.5 -1.5t8.5 0t8.5 2.5t9.5 4l10.5 7q33 24 45 17q22 -17 -30 -69q-89 -85 -136 -42q-33 33 -68 6zM99 592q12 17 39 17q82 0 139 -11
q173 -41 286 -389q9 -27 19 -27q3 -1 7 6t7 16q41 174 44 270q1 27 -9 43t-24 22t-46 16q-14 4 -20 13t-3 17q0 1 1 3t1.5 3.5t1.5 4t2.5 4l4 4t5 3t6 2t8 1t10.5 -0.5q76 -9 163 -1q15 1 28 -10t0 -32l-5 -6q-5 -5 -9.5 -10.5t-10.5 -14t-11 -20.5t-9 -26
q-55 -199 -98 -436q0 -3 -1 -7t-1 -6t-1 -5.5t-1.5 -5l-1.5 -4.5t-2 -4t-2 -3t-3 -3l-4 -2t-5 -2q-42 -12 -114 -15q-32 -2 -32 25q-1 64 -31 158.5t-71.5 170.5t-74.5 91q-25 12 -32 -11q-2 -8 -13.5 -63t-21.5 -106.5t-15 -91.5q-13 -100 53 -113q9 -1 19 -11t9 -21
t-15.5 -19t-27.5 -6q-58 5 -181 -2q-13 0 -16 8.5t1 20t12 21.5q32 45 41 65q49 113 104 367q4 17 1.5 28.5t-7 19.5t-14 13t-20 8.5t-24.5 7.5q-2 0 -4 0.5t-4 1.5q-36 10 -27 34z" />
    <glyph glyph-name="Ograve" unicode="&#xd2;" horiz-adv-x="692" 
d="M427 614q122 0 184 -72.5t60 -172.5q-3 -94 -48 -182t-126 -146t-175 -58q-72 0 -123.5 25t-76.5 66t-36 80.5t-11 81.5q0 90 48.5 177.5t131 144t172.5 56.5zM224 260q-9 -98 22.5 -148.5t83.5 -50.5q28 0 56.5 14.5t58 45t51 90t27.5 138.5q6 83 -23 134.5t-89 51.5
q-57 0 -116 -71.5t-71 -203.5zM455 654q-95 53 -118 79q-6 6 -4.5 19t10.5 17t40 9t49 5q11 0 18.5 -8.5t8.5 -15.5q6 -26 37 -89q3 -4 0.5 -12t-8.5 -12q-10 -4 -33 8z" />
    <glyph glyph-name="Oacute" unicode="&#xd3;" horiz-adv-x="692" 
d="M427 614q122 0 184 -72.5t60 -172.5q-3 -94 -48 -182t-126 -146t-175 -58q-72 0 -123.5 25t-76.5 66t-36 80.5t-11 81.5q0 90 48.5 177.5t131 144t172.5 56.5zM224 260q-9 -98 22.5 -148.5t83.5 -50.5q28 0 56.5 14.5t58 45t51 90t27.5 138.5q6 83 -23 134.5t-89 51.5
q-57 0 -116 -71.5t-71 -203.5zM598 783q8 1 14 -4.5t6 -12.5q1 -6 -6 -14.5t-13 -11.5q-85 -42 -133 -73q-25 -18 -41 -13q-6 2 -9 9.5t4 18.5q11 14 27.5 38.5t20.5 30.5q14 16 25 20q7 2 53 6.5t52 5.5z" />
    <glyph glyph-name="Ocircumflex" unicode="&#xd4;" horiz-adv-x="692" 
d="M427 614q122 0 184 -72.5t60 -172.5q-3 -94 -48 -182t-126 -146t-175 -58q-72 0 -123.5 25t-76.5 66t-36 80.5t-11 81.5q0 90 48.5 177.5t131 144t172.5 56.5zM224 260q-9 -98 22.5 -148.5t83.5 -50.5q28 0 56.5 14.5t58 45t51 90t27.5 138.5q6 82 -23 132.5t-89 50.5
q-57 0 -116 -70t-71 -202zM497 782q28 4 32 -22q4 -22 19 -52t17 -38q10 -22 -16 -33q-15 -6 -36 15q-10 9 -27 21t-44 2q-35 -13 -61 -29q-27 -18 -42 -3q-17 19 16 45q11 6 40.5 30t39.5 34q22 22 62 30z" />
    <glyph glyph-name="Otilde" unicode="&#xd5;" horiz-adv-x="692" 
d="M427 614q122 0 184 -72.5t60 -172.5q-3 -94 -48 -182t-126 -146t-175 -58q-72 0 -123.5 25t-76.5 66t-36 80.5t-11 81.5q0 90 48.5 177.5t131 144t172.5 56.5zM224 260q-9 -98 22.5 -148.5t83.5 -50.5q28 0 56.5 14.5t58 45t51 90t27.5 138.5q6 82 -23 132.5t-89 50.5
q-57 0 -116 -70t-71 -202zM374 674q-25 -19 -36 -23.5t-23 2.5q-12 12 -7 24t28 30q22 18 35 28.5t31 22t31 15.5t28 2.5t28 -9.5q1 -1 8.5 -5.5t9 -5t8 -3.5t8.5 -3t8 -0.5t10 1.5t10.5 4.5t12.5 7.5q33 25 44 17q23 -17 -29 -69q-89 -85 -136 -42q-34 33 -69 6z" />
    <glyph glyph-name="Odieresis" unicode="&#xd6;" horiz-adv-x="692" 
d="M427 614q122 0 184 -72.5t60 -172.5q-3 -94 -48 -182t-126 -146t-175 -58q-72 0 -123.5 25t-76.5 66t-36 80.5t-11 81.5q0 90 48.5 177.5t131 144t172.5 56.5zM224 260q-9 -98 22.5 -148.5t83.5 -50.5q28 0 56.5 14.5t58 45t51 90t27.5 138.5q6 82 -23 132.5t-89 50.5
q-57 0 -116 -70t-71 -202zM437 729q-3 -30 -31 -55t-56 -25q-37 0 -32 43q3 36 25.5 60t52.5 24q44 0 41 -47zM611 729q-2 -29 -31.5 -54.5t-58.5 -25.5q-32 0 -30 43q3 36 26 60t54 24q43 0 40 -47z" />
    <glyph glyph-name="multiply" unicode="&#xd7;" horiz-adv-x="488" 
d="M412 146q8 -13 0 -28t-21 -20q-26 -7 -38 6q-12 16 -39.5 58t-47.5 65q-8 10 -21 1q-25 -20 -75.5 -62.5t-81.5 -67.5q-21 -17 -44 -2q-9 5 -9 14t4 16t9 12q17 15 69.5 57.5t86.5 72.5q14 14 5 25q-76 85 -111 132q-5 10 -1 18.5t11 12.5q8 5 20.5 8t19.5 -2
q81 -98 110 -133q7 -8 23 1q122 107 144 129q11 11 25.5 13t23.5 -4t8 -16q-3 -46 -20 -57q-101 -75 -141 -110q-15 -9 -4 -22q18 -20 35 -41.5t34.5 -43.5t25.5 -32z" />
    <glyph glyph-name="Oslash" unicode="&#xd8;" horiz-adv-x="692" 
d="M25 -3q-16 8 -9.5 23t42.5 46l10 8q11 7 12 8.5t7.5 8.5t7 11.5t1 12t-2.5 15.5q-18 48 -18 106q0 90 49 177.5t131.5 144t172.5 56.5q80 0 137 -35q3 -2 8 -5t6 -4t4.5 -3t4.5 -2h4t4.5 1.5t4.5 3.5t6 5l7 7q23 21 38 41q8 9 25.5 4.5t16.5 -16.5q-2 -37 -27 -84
q-4 -9 -10 -18t-7 -12t0 -10t6 -20q17 -47 15 -98q-3 -94 -48 -182t-125.5 -146t-175.5 -58q-101 0 -165 52q-7 6 -12 9t-9.5 2t-7 -2.5t-9 -7.5t-10.5 -10q-28 -23 -53 -30t-31 1zM330 61q28 0 56.5 14.5t58 45t51 90t27.5 138.5q2 25 -1 28.5t-21 -9.5q-18 -15 -244 -213
q-17 -14 -18.5 -18t6.5 -23q30 -53 85 -53zM224 260q-2 -28 1.5 -33t21.5 10q73 67 235 220q16 15 17.5 21t-12.5 23q-29 34 -76 34q-57 0 -116 -71.5t-71 -203.5z" />
    <glyph glyph-name="Ugrave" unicode="&#xd9;" horiz-adv-x="781" 
d="M399 606q15 1 20.5 -6.5t3.5 -19.5q-10 -23 -29 -26q-33 -7 -50 -23t-29 -50q-16 -49 -39.5 -142t-28.5 -133q-7 -52 10 -82.5t74 -30.5q126 0 180 177q36 124 52 216q10 53 -59 70q-8 1 -10 12t1 15q2 9 13 17t32 6q22 -2 117.5 -2t137.5 2q15 1 20.5 -6.5t2.5 -19.5
q-8 -23 -28 -26q-34 -6 -50 -22t-29 -51q-16 -46 -37.5 -145t-24.5 -142q-4 -56 16 -88.5t57 -25.5q14 3 23 -4.5t10 -14.5t-4 -17.5t-14 -14.5q-24 -11 -76 -25t-83 -14q-51 0 -64.5 24t-9.5 70q1 11 -2 14.5t-9 0.5t-14 -11q-88 -94 -215 -94q-91 0 -134.5 55t-27.5 155
q5 30 33 138t33 144q2 20 -3.5 34t-18.5 21t-19.5 9.5t-17.5 5.5q-8 1 -10 12t1 15q1 9 12 17t32 6q22 -2 118 -2t137 2zM452 654q-95 53 -118 79q-6 6 -4.5 19t10.5 17t40 9t49 5q11 0 18.5 -8.5t8.5 -15.5q6 -26 37 -89q3 -4 0.5 -12t-8.5 -12q-10 -4 -33 8z" />
    <glyph glyph-name="Uacute" unicode="&#xda;" horiz-adv-x="781" 
d="M399 606q15 1 20.5 -6.5t3.5 -19.5q-10 -23 -29 -26q-33 -7 -50 -23t-29 -50q-16 -49 -39.5 -142t-28.5 -133q-7 -52 10 -82.5t74 -30.5q126 0 180 177q36 124 52 216q10 53 -59 70q-8 1 -10 12t1 15q2 9 13 17t32 6q22 -2 117.5 -2t137.5 2q15 1 20.5 -6.5t2.5 -19.5
q-8 -23 -28 -26q-34 -6 -50 -22t-29 -51q-16 -46 -37.5 -145t-24.5 -142q-4 -56 16 -88.5t57 -25.5q14 3 23 -4.5t10 -14.5t-4 -17.5t-14 -14.5q-24 -11 -76 -25t-83 -14q-51 0 -64.5 24t-9.5 70q1 11 -2 14.5t-9 0.5t-14 -11q-88 -94 -215 -94q-91 0 -134.5 55t-27.5 155
q5 30 33 138t33 144q2 20 -3.5 34t-18.5 21t-19.5 9.5t-17.5 5.5q-8 1 -10 12t1 15q1 9 12 17t32 6q22 -2 118 -2t137 2zM635 783q8 1 14 -5t6 -12q1 -6 -6 -14.5t-13 -11.5q-84 -41 -133 -73q-25 -18 -42 -13q-6 2 -8.5 9.5t3.5 18.5q10 12 48 69q14 16 26 20q6 2 105 12z
" />
    <glyph glyph-name="Ucircumflex" unicode="&#xdb;" horiz-adv-x="781" 
d="M399 606q15 1 20.5 -6.5t3.5 -19.5q-10 -23 -29 -26q-33 -7 -50 -23t-29 -50q-16 -49 -39.5 -142t-28.5 -133q-7 -52 10 -82.5t74 -30.5q126 0 180 177q36 124 52 216q10 53 -59 70q-8 1 -10 12t1 15q2 9 13 17t32 6q22 -2 117.5 -2t137.5 2q15 1 20.5 -6.5t2.5 -19.5
q-8 -23 -28 -26q-34 -6 -50 -22t-29 -51q-16 -46 -37.5 -145t-24.5 -142q-4 -56 16 -88.5t57 -25.5q14 3 23 -4.5t10 -14.5t-4 -17.5t-14 -14.5q-24 -11 -76 -25t-83 -14q-51 0 -64.5 24t-9.5 70q1 11 -2 14.5t-9 0.5t-14 -11q-88 -94 -215 -94q-91 0 -134.5 55t-27.5 155
q5 30 33 138t33 144q2 20 -3.5 34t-18.5 21t-19.5 9.5t-17.5 5.5q-8 1 -10 12t1 15q1 9 12 17t32 6q22 -2 118 -2t137 2zM525 782q28 4 32 -22q4 -22 19 -52t17 -38q10 -22 -16 -33q-15 -6 -36 15q-6 6 -26 21q-18 12 -45 2q-35 -13 -61 -29q-27 -18 -42 -3q-17 19 16 45
q11 6 40.5 29.5t39.5 34.5q22 22 62 30z" />
    <glyph glyph-name="Udieresis" unicode="&#xdc;" horiz-adv-x="781" 
d="M399 606q15 1 20.5 -6.5t3.5 -19.5q-8 -23 -29 -26q-33 -7 -50 -23t-29 -50q-15 -47 -38.5 -140.5t-29.5 -134.5q-7 -52 10 -82.5t74 -30.5q129 0 180 177q39 134 52 216q3 19 -2 33t-18 21.5t-20 10t-18 5.5q-14 2 -10 27q2 9 13 17t32 6q22 -2 117.5 -2t137.5 2
q15 1 20.5 -6.5t3.5 -19.5q-10 -23 -29 -26q-33 -7 -50 -23t-29 -50q-15 -46 -36.5 -145t-25.5 -142q-4 -56 16 -88.5t57 -25.5q14 3 23 -4.5t10 -14.5t-4 -17.5t-14 -14.5q-23 -11 -75 -25t-83 -14q-51 0 -65 24t-9 70q1 11 -2.5 14.5t-9.5 0.5t-14 -11q-88 -94 -215 -94
q-91 0 -134.5 55t-27.5 155q5 30 33 138t33 144q2 20 -3.5 34t-18.5 21t-19.5 9.5t-17.5 5.5q-8 1 -10 12t1 15q1 9 12 17t32 6q22 -2 118 -2t137 2zM468 729q-3 -30 -31 -55t-56 -25q-37 0 -32 43q3 36 25.5 60t52.5 24q44 0 41 -47zM642 729q-2 -29 -31.5 -54.5
t-58.5 -25.5q-32 0 -30 43q3 36 26 60t54 24q43 0 40 -47z" />
    <glyph glyph-name="Yacute" unicode="&#xdd;" horiz-adv-x="648" 
d="M282 608q28 0 38.5 -8.5t17.5 -33.5q33 -122 69 -202q13 -22 35 3q13 15 61 50q55 38 57 69q1 22 -14 31t-36 3q-22 -6 -27 18q-3 12 9.5 27t26.5 23q45 29 96 29q32 -1 55.5 -21t21.5 -51q-3 -40 -27.5 -67t-75.5 -61q-4 -2 -17.5 -11t-20 -13.5t-19 -13.5t-21.5 -16
t-20 -16.5t-20 -19.5q-30 -29 -46 -86q-23 -84 -25 -131q-3 -24 2.5 -34t24.5 -18q38 -16 35 -35q-2 -11 -13 -18.5t-27 -5.5q-53 6 -257 -2q-9 -1 -17 7t-7 19q2 12 16.5 20t27.5 10q50 7 71 56q18 57 36 154q8 44 -14 88q-47 112 -85 161q-17 23 -28 31t-35 12
q-15 2 -22.5 10.5t-5.5 16.5q4 26 34 26h146zM616 783q8 1 14 -5t6 -12q1 -6 -6 -14.5t-13 -11.5q-89 -44 -133 -73q-25 -18 -41 -13q-6 2 -9 9.5t4 18.5q11 14 27.5 38.5t20.5 30.5q14 16 25 20q7 2 105 12z" />
    <glyph glyph-name="Thorn" unicode="&#xde;" horiz-adv-x="641" 
d="M178 606q22 -2 118 -2t138 2q15 1 20 -6.5t3 -19.5q-8 -23 -29 -26q-56 -11 -75 -47q-2 -4 -3 -7t0 -4.5t2 -2.5t4 -1.5t4.5 -0.5h6h5.5q30 1 97 1q71 1 116 -39.5t41 -103.5q-7 -100 -92.5 -159t-190.5 -59q-15 0 -23 11t-3 23q13 27 38 27q97 0 117 133q18 110 -80 110
q-31 0 -44 -7.5t-20 -29.5q-56 -202 -63 -273q-6 -50 29 -64q33 -15 31 -37q-2 -9 -14 -17.5t-27 -6.5q-59 7 -272 -2q-7 -1 -12 5.5t-4 15.5q0 12 17 23.5t30 13.5q43 6 69 68q10 26 48.5 179t41.5 183q6 55 -56 70q-8 1 -11 11t-1 16q6 27 44 23z" />
    <glyph glyph-name="germandbls" unicode="&#xdf;" horiz-adv-x="588" 
d="M322 -10q-34 0 -52 21t-18 42q0 47 35 84q18 18 34 13q9 -4 11 -18q2 -16 17.5 -30t32.5 -14q27 0 42 23.5t15 61.5q0 53 -75 126q-4 4 -12 11t-11 10.5t-9 9.5t-8 9.5t-4.5 9t-1.5 9.5t2.5 9t6 10t11.5 11q31 24 65 63q21 24 33.5 50t14 48.5t-4 40.5t-19 28.5
t-32.5 10.5q-81 0 -116 -169q-45 -237 -80 -355q-34 -108 -79.5 -187.5t-128.5 -143.5q-71 -53 -142 -53q-33 0 -54 20.5t-21 49.5q-1 28 17 60t47 55q15 11 32.5 15t25.5 -1q10 -5 7 -24q-1 -16 -1 -29.5t6 -22t20 -8.5q35 0 67.5 38.5t53.5 103.5q41 149 74 349
q6 37 -20 41h-12t-15 1q-8 1 -10 11t4 26q12 24 39 25h9.5t10 0.5t8.5 2t8.5 5t5.5 8.5q24 67 57.5 117t64.5 77t65.5 43.5t57.5 21t44 4.5q41 0 70.5 -9t43.5 -22.5t22.5 -30t7 -31.5t-1.5 -26q-4 -25 -16.5 -48.5t-33 -46t-31.5 -33t-33 -29.5q-13 -14 -10 -23t19 -23
q65 -55 62 -152q-4 -98 -73.5 -172t-143.5 -74z" />
    <glyph glyph-name="agrave" unicode="&#xe0;" horiz-adv-x="532" 
d="M339 511q-36 26 -72 58.5t-50 53.5q-5 7 -4 19t10 17q17 9 93 16q11 1 17.5 -8.5t7.5 -17.5q8 -59 39 -122q3 -4 0.5 -12t-8.5 -12q-13 -5 -33 8zM236 427q12 6 36 9.5t43 0.5q31 -5 61 -19q13 -4 37 10q26 15 47 32q29 22 44 15q19 -10 9 -27q-49 -76 -59 -102
q-44 -111 -55 -184q-6 -37 11 -37q21 2 48 25q8 6 20.5 4.5t18.5 -9.5q4 -6 2.5 -17.5t-8.5 -19.5q-33 -42 -85.5 -81.5t-93.5 -39.5q-27 0 -42 11.5t-17.5 30t0 37.5t10.5 38q9 19 2 22q-10 6 -23 -9q-20 -23 -59 -60t-60 -51q-38 -25 -70 -7.5t-32 66.5q0 104 51 203
q28 51 73 93.5t91 65.5zM205 146q27 24 67 85q19 29 37 87q8 31 -7 41q-16 12 -32 13q-32 1 -59 -41q-46 -74 -49 -161q-2 -25 11.5 -32.5t31.5 8.5z" />
    <glyph glyph-name="aacute" unicode="&#xe1;" horiz-adv-x="532" 
d="M527 662q9 1 15.5 -3.5t6.5 -12.5q3 -13 -20 -26q-80 -41 -161 -101q-27 -19 -41 -14q-7 2 -10 10t4 20q46 57 68 95q9 14 26 21q3 1 112 11zM236 427q12 6 36 9.5t43 0.5q31 -5 61 -19q13 -4 37 10q26 15 47 32q29 22 44 15q19 -10 9 -27q-49 -76 -59 -102
q-44 -111 -55 -184q-6 -37 11 -37q21 2 48 25q8 6 20.5 4.5t18.5 -9.5q4 -6 2.5 -17.5t-8.5 -19.5q-33 -42 -85.5 -81.5t-93.5 -39.5q-27 0 -42 11.5t-17.5 30t0 37.5t10.5 38q9 19 2 22q-10 6 -23 -9q-20 -23 -59 -60t-60 -51q-38 -25 -70 -7.5t-32 66.5q0 104 51 203
q28 51 73 93.5t91 65.5zM205 146q27 24 67 85q19 29 37 87q8 31 -7 41q-16 12 -32 13q-32 1 -59 -41q-46 -74 -49 -161q-2 -25 11.5 -32.5t31.5 8.5z" />
    <glyph glyph-name="acircumflex" unicode="&#xe2;" horiz-adv-x="532" 
d="M422 669q25 7 32 -23q4 -23 15 -59t12 -39q11 -22 -16 -33q-13 -5 -35 14q-5 4 -27 22q-18 12 -44 2q-35 -13 -61 -29q-27 -18 -42 -3q-19 17 16 45q11 6 46.5 32.5t45.5 36.5q25 25 58 34zM236 427q12 6 36 9.5t43 0.5q31 -5 61 -19q13 -4 37 10q26 15 47 32
q29 22 44 15q19 -10 9 -27q-49 -76 -59 -102q-44 -111 -55 -184q-6 -37 11 -37q21 2 48 25q8 6 20.5 4.5t18.5 -9.5q4 -6 2.5 -17.5t-8.5 -19.5q-33 -42 -85.5 -81.5t-93.5 -39.5q-27 0 -42 11.5t-17.5 30t0 37.5t10.5 38q9 19 2 22q-10 6 -23 -9q-20 -23 -59 -60t-60 -51
q-38 -25 -70 -7.5t-32 66.5q0 104 51 203q28 51 73 93.5t91 65.5zM205 146q27 24 67 85q19 29 37 87q8 31 -7 41q-16 12 -32 13q-32 1 -59 -41q-46 -74 -49 -161q-2 -25 11.5 -32.5t31.5 8.5z" />
    <glyph glyph-name="atilde" unicode="&#xe3;" horiz-adv-x="532" 
d="M294 556q-25 -19 -36.5 -23.5t-22.5 2.5q-22 19 20 54q23 19 35.5 29t31 21.5t31 15t27.5 2.5t28 -9q2 -1 9 -5.5t9 -5.5t8 -3.5t8.5 -2.5t8.5 -0.5t10 1.5t10 4.5t12 7.5q34 26 45 17q23 -17 -30 -68q-89 -87 -136 -42q-15 14 -33 15.5t-35 -10.5zM236 427q12 6 36 9.5
t43 0.5q31 -5 61 -19q13 -4 37 10q26 15 47 32q29 22 44 15q19 -10 9 -27q-49 -76 -59 -102q-44 -111 -55 -184q-6 -37 11 -37q21 2 48 25q8 6 20.5 4.5t18.5 -9.5q4 -6 2.5 -17.5t-8.5 -19.5q-33 -42 -85.5 -81.5t-93.5 -39.5q-27 0 -42 11.5t-17.5 30t0 37.5t10.5 38
q9 19 2 22q-10 6 -23 -9q-20 -23 -59 -60t-60 -51q-38 -25 -70 -7.5t-32 66.5q0 104 51 203q28 51 73 93.5t91 65.5zM205 146q27 24 67 85q19 29 37 87q8 31 -7 41q-16 12 -32 13q-32 1 -59 -41q-46 -74 -49 -161q-2 -25 11.5 -32.5t31.5 8.5z" />
    <glyph glyph-name="adieresis" unicode="&#xe4;" horiz-adv-x="532" 
d="M354 603q-2 -30 -30 -55t-56 -25q-37 0 -32 43q3 36 25.5 60t52.5 24q44 0 40 -47zM529 603q-2 -30 -31.5 -55t-58.5 -25q-33 0 -30 43q2 36 25.5 60t54.5 24q43 0 40 -47zM236 427q12 6 36 9.5t43 0.5q31 -5 61 -19q13 -4 37 10q26 15 47 32q29 22 44 15q19 -10 9 -27
q-49 -76 -59 -102q-44 -111 -55 -184q-6 -37 11 -37q21 2 48 25q8 6 20.5 4.5t18.5 -9.5q4 -6 2.5 -17.5t-8.5 -19.5q-33 -42 -85.5 -81.5t-93.5 -39.5q-27 0 -42 11.5t-17.5 30t0 37.5t10.5 38q9 19 2 22q-10 6 -23 -9q-20 -23 -59 -60t-60 -51q-38 -25 -70 -7.5t-32 66.5
q0 104 51 203q28 51 73 93.5t91 65.5zM205 146q27 24 67 85q19 29 37 87q8 31 -7 41q-16 12 -32 13q-32 1 -59 -41q-46 -74 -49 -161q-2 -25 11.5 -32.5t31.5 8.5z" />
    <glyph glyph-name="aring" unicode="&#xe5;" horiz-adv-x="532" 
d="M370 668q54 0 78 -20.5t24 -50.5q0 -46 -45 -73t-93 -27q-58 0 -80.5 23.5t-22.5 50.5q0 40 44 68.5t95 28.5zM360 624q-16 0 -31 -13t-15 -37q0 -32 29 -32q19 0 31 14.5t12 34.5q0 33 -26 33zM236 427q12 6 36 9.5t43 0.5q31 -5 61 -19q13 -4 37 10q26 15 47 32
q29 22 44 15q19 -10 9 -27q-49 -76 -59 -102q-44 -111 -55 -184q-6 -37 11 -37q21 2 48 25q8 6 20.5 4.5t18.5 -9.5q4 -6 2.5 -17.5t-8.5 -19.5q-33 -42 -85.5 -81.5t-93.5 -39.5q-27 0 -42 11.5t-17.5 30t0 37.5t10.5 38q9 19 2 22q-10 6 -23 -9q-20 -23 -59 -60t-60 -51
q-38 -25 -70 -7.5t-32 66.5q0 104 51 203q28 51 73 93.5t91 65.5zM205 146q27 24 67 85q19 29 37 87q8 31 -7 41q-16 12 -32 13q-32 1 -59 -41q-46 -74 -49 -161q-2 -25 11.5 -32.5t31.5 8.5z" />
    <glyph glyph-name="ae" unicode="&#xe6;" horiz-adv-x="608" 
d="M381 158q-3 -35 11 -49.5t30 -14.5q36 0 74 36q9 8 21.5 9.5t17.5 -4.5q15 -17 -6 -40q-32 -32 -88 -69.5t-92 -37.5q-37 0 -62 27t-26 72q0 3 -2.5 5t-8.5 0.5t-13 -6.5q-102 -73 -114 -80q-39 -25 -70.5 -7.5t-31.5 66.5q0 100 51 202q26 52 68.5 93.5t87.5 63.5
q33 18 77 13q29 -5 57 -28q23 -20 41 -10q34 19 55 29q28 12 61 12.5t57.5 -15.5t20.5 -49q-8 -63 -81 -115q-39 -28 -112 -68q-21 -11 -23 -35zM195 127l36 24q20 14 25.5 23t15.5 41q19 56 50 104q10 17 -9.5 33t-41.5 17q-40 2 -65 -37q-42 -67 -47 -162q-2 -27 7 -40
t29 -3zM458 360q-14 0 -34.5 -28.5t-26.5 -63.5q-3 -15 3.5 -17.5t12.5 1.5q33 15 52 37.5t21 41.5q2 13 -6 21t-22 8z" />
    <glyph glyph-name="ccedilla" unicode="&#xe7;" horiz-adv-x="382" 
d="M262 294q-3 7 -3.5 10.5t2 13.5t2.5 13q0 29 -23 29q-12 0 -30 -24t-33.5 -70t-16.5 -95q-1 -36 12.5 -56.5t27.5 -20.5q37 0 77 36q10 8 22 9.5t17 -3.5q14 -17 -6 -40q-20 -22 -58 -51.5t-74 -44.5q-14 -6 -26 -24q-10 -13 -12 -23t-0.5 -14.5t8 -15t9.5 -16.5
q6 -12 6.5 -24t-4.5 -24t-11 -22.5t-19 -25t-23.5 -24.5t-28.5 -27q-44 -39 -60 -14q-13 20 27 55q17 15 20 34t-9 35q-34 44 33 107q4 4 6 7.5t2.5 5.5t-2.5 5t-4.5 4t-7.5 4.5t-8 4.5q-20 12 -31.5 44.5t-9.5 73.5q3 86 61 176.5t143 127.5q25 11 60.5 11t48.5 -7
q31 -15 28 -51q-3 -25 -28 -54t-51 -39q-19 -7 -33 4z" />
    <glyph glyph-name="egrave" unicode="&#xe8;" horiz-adv-x="384" 
d="M295 511q-36 26 -72 58.5t-50 53.5q-5 7 -4 19t10 17q19 10 93 16q11 1 17.5 -8.5t7.5 -17.5q8 -56 40 -122q6 -17 -9 -24q-13 -5 -33 8zM159 169q-1 -35 11.5 -55t26.5 -20q38 0 78 38q9 8 22.5 8.5t18.5 -5.5q16 -17 -5 -41q-28 -32 -87 -69t-99 -37q-48 0 -73 36.5
t-23 101.5q2 85 59 175t143 127q28 12 62 12.5t59 -15.5t21 -49q-8 -67 -83 -118q-62 -42 -109 -60q-13 -5 -17 -9.5t-5 -19.5zM231 360q-7 0 -17.5 -9t-23.5 -31t-20 -52q-3 -12 3.5 -14.5t12.5 1.5q33 14 51 34.5t21 39.5q2 31 -27 31z" />
    <glyph glyph-name="eacute" unicode="&#xe9;" horiz-adv-x="384" 
d="M473 662q9 1 15.5 -3.5t6.5 -12.5q2 -12 -19 -26q-79 -40 -162 -101q-27 -19 -41 -14q-7 2 -10 10t4 20q46 57 68 95q9 14 26 21q3 1 112 11zM159 169q-1 -35 11.5 -55t26.5 -20q38 0 78 38q9 8 22.5 8.5t18.5 -5.5q16 -17 -5 -41q-28 -32 -87 -69t-99 -37
q-48 0 -73 36.5t-23 101.5q2 85 59 175t143 127q28 12 62 12.5t59 -15.5t21 -49q-8 -67 -83 -118q-62 -42 -109 -60q-13 -5 -17 -9.5t-5 -19.5zM231 360q-7 0 -17.5 -9t-23.5 -31t-20 -52q-3 -12 3.5 -14.5t12.5 1.5q33 14 51 34.5t21 39.5q2 31 -27 31z" />
    <glyph glyph-name="ecircumflex" unicode="&#xea;" horiz-adv-x="384" 
d="M356 669q27 8 32 -23q3 -17 8 -35t11.5 -37.5l8.5 -25.5q10 -22 -16 -33q-18 -7 -36 14q-6 7 -14 12.5t-12 9.5q-15 14 -45 2q-35 -13 -61 -29q-27 -18 -42 -3q-18 18 16 45q12 6 47.5 32.5t44.5 36.5q25 25 58 34zM159 169q-1 -35 11.5 -55t26.5 -20q38 0 78 38
q9 8 22.5 8.5t18.5 -5.5q16 -17 -5 -41q-28 -32 -87 -69t-99 -37q-48 0 -73 36.5t-23 101.5q2 85 59 175t143 127q28 12 62 12.5t59 -15.5t21 -49q-8 -67 -83 -118q-62 -42 -109 -60q-13 -5 -17 -9.5t-5 -19.5zM231 360q-7 0 -17.5 -9t-23.5 -31t-20 -52q-3 -12 3.5 -14.5
t12.5 1.5q33 14 51 34.5t21 39.5q2 31 -27 31z" />
    <glyph glyph-name="edieresis" unicode="&#xeb;" horiz-adv-x="384" 
d="M285 594q-3 -30 -31 -55t-56 -25q-37 0 -32 43q3 36 25.5 60t52.5 24q44 0 41 -47zM459 594q-2 -29 -31.5 -54.5t-58.5 -25.5q-32 0 -30 43q3 36 26 60t54 24q43 0 40 -47zM159 169q-1 -35 11.5 -55t26.5 -20q38 0 78 38q9 8 22.5 8.5t18.5 -5.5q16 -17 -5 -41
q-28 -32 -87 -69t-99 -37q-48 0 -73 36.5t-23 101.5q2 85 59 175t143 127q28 12 62 12.5t59 -15.5t21 -49q-8 -67 -83 -118q-62 -42 -109 -60q-13 -5 -17 -9.5t-5 -19.5zM231 360q-7 0 -17.5 -9t-23.5 -31t-20 -52q-3 -12 3.5 -14.5t12.5 1.5q33 14 51 34.5t21 39.5
q2 31 -27 31z" />
    <glyph glyph-name="igrave" unicode="&#xec;" horiz-adv-x="343" 
d="M231 511q-37 26 -73 59t-49 53q-5 7 -4.5 19t9.5 17q19 10 93 16q11 1 17.5 -8.5t7.5 -17.5q8 -56 40 -122q6 -17 -9 -24q-13 -5 -32 8zM306 146q5 -5 3 -17t-9 -20q-34 -42 -86 -81t-93 -39q-70 0 -60 78q7 47 29.5 112t30.5 93q9 34 -11 34t-41 -16q-17 -12 -38 0
q-5 4 -4.5 17t7.5 20q41 41 91 71t84 41q33 10 57 -6.5t14 -57.5q-8 -34 -36.5 -104t-35.5 -108q-8 -41 11 -39q21 2 48 24q8 7 20.5 6.5t18.5 -8.5z" />
    <glyph glyph-name="iacute" unicode="&#xed;" horiz-adv-x="343" 
d="M434 662q8 1 14.5 -3.5t6.5 -12.5q3 -14 -19 -26q-77 -40 -162 -101q-26 -19 -41 -14q-7 2 -10 10t4 20q46 57 68 95q9 14 27 21q3 1 112 11zM306 146q5 -5 3 -17t-9 -20q-34 -42 -86 -81t-93 -39q-70 0 -60 78q7 47 29.5 112t30.5 93q9 34 -11 34t-41 -16q-17 -12 -38 0
q-5 4 -4.5 17t7.5 20q41 41 91 71t84 41q33 10 57 -6.5t14 -57.5q-8 -34 -36.5 -104t-35.5 -108q-8 -41 11 -39q21 2 48 24q8 7 20.5 6.5t18.5 -8.5z" />
    <glyph glyph-name="icircumflex" unicode="&#xee;" horiz-adv-x="343" 
d="M298 669q27 8 32 -23q3 -17 8 -35t11.5 -37.5l8.5 -25.5q10 -22 -16 -33q-18 -7 -36 14q-6 7 -15 13t-12 9q-14 14 -44 2q-35 -13 -61 -29q-27 -18 -42 -3q-18 18 16 45q11 6 46.5 32.5t45.5 36.5q25 25 58 34zM306 146q5 -5 3 -17t-9 -20q-34 -42 -86 -81t-93 -39
q-70 0 -60 78q7 47 29.5 112t30.5 93q9 34 -11 34t-41 -16q-17 -12 -38 0q-5 4 -4.5 17t7.5 20q41 41 91 71t84 41q33 10 57 -6.5t14 -57.5q-8 -34 -36.5 -104t-35.5 -108q-8 -41 11 -39q21 2 48 24q8 7 20.5 6.5t18.5 -8.5z" />
    <glyph glyph-name="idieresis" unicode="&#xef;" horiz-adv-x="343" 
d="M248 603q-2 -30 -30 -55t-56 -25q-37 0 -32 43q3 36 25.5 60t52.5 24q44 0 40 -47zM423 603q-2 -30 -32 -55t-59 -25q-32 0 -29 43q2 36 25.5 60t54.5 24q43 0 40 -47zM306 146q5 -5 3 -17t-9 -20q-34 -42 -86 -81t-93 -39q-70 0 -60 78q7 47 29.5 112t30.5 93
q9 34 -11 34t-41 -16q-17 -12 -38 0q-5 4 -4.5 17t7.5 20q41 41 91 71t84 41q33 10 57 -6.5t14 -57.5q-8 -34 -36.5 -104t-35.5 -108q-8 -41 11 -39q21 2 48 24q8 7 20.5 6.5t18.5 -8.5z" />
    <glyph glyph-name="eth" unicode="&#xf0;" horiz-adv-x="443" 
d="M112 639q-5 4 -1.5 17.5t14.5 16.5q3 1 22.5 6.5t29.5 8t29.5 7.5t32.5 7.5t28.5 4.5t27.5 1.5t20 -2.5q9 -3 18.5 -13.5t14 -19t12.5 -24.5l10 -20q8 -19 23 -9q22 14 32 -0.5t3 -29.5q-9 -24 -25 -29q-14 -6 -8 -21q19 -53 19 -141q-1 -133 -63.5 -237.5t-165.5 -165.5
q-18 -10 -40.5 -9t-39.5 10q-26 13 -44.5 46.5t-18.5 71.5q0 93 46 174t125 137q34 20 48 9q19 -18 -16 -49q-74 -66 -83 -180q-1 -22 6 -48t18 -41q20 -27 59 12q41 42 52.5 95t11.5 140q0 88 -31 152q-11 20 -37 15q-48 -9 -95 -21q-27 -7 -42 12q-9 8 -2.5 18.5
t28.5 16.5q86 22 88 23q27 8 19 22q-26 40 -85 23q-29 -8 -40 14z" />
    <glyph glyph-name="ntilde" unicode="&#xf1;" horiz-adv-x="597" 
d="M322 541q-25 -19 -36 -23.5t-23 2.5q-12 12 -7 24t28 30q22 18 35 28.5t31 22t31 15.5t28 2.5t28 -9.5q1 -1 8.5 -5.5t9 -5t8 -3.5t8.5 -3t8 -0.5t10 1.5t10.5 4.5t12.5 7.5q33 25 44 17q23 -17 -29 -69q-89 -85 -136 -42q-34 33 -69 6zM210 439q33 10 57.5 -6.5
t14.5 -57.5q-6 -22 -28 -78q-5 -15 2.5 -19.5t17.5 7.5q130 157 213 154q20 0 35.5 -19t10.5 -46q-7 -37 -35.5 -106.5t-37.5 -104.5q-11 -38 9 -36q21 2 48 25q8 7 20.5 4.5t18.5 -10.5q5 -5 3 -17t-9 -20q-33 -41 -87.5 -80.5t-95.5 -39.5q-74 0 -62 78q6 44 30 106.5
t29 78.5q7 22 -4 29t-37 -13q-19 -15 -35 -34.5t-26 -31.5t-23.5 -39.5t-17 -35t-18 -42.5t-16.5 -39q-9 -21 -43.5 -36.5t-63.5 -19.5q-20 -2 -29 7.5t0 31.5q49 127 72 243q6 34 -14 34q-17 0 -39 -16q-22 -14 -38 0q-7 5 -5.5 17.5t8.5 19.5q41 41 91 71t84 41z" />
    <glyph glyph-name="ograve" unicode="&#xf2;" horiz-adv-x="404" 
d="M267 511q-37 26 -73 59t-49 53q-5 7 -4.5 19t10.5 17q16 9 92 16q11 1 18 -8.5t8 -17.5q7 -55 39 -122q3 -4 0.5 -12t-8.5 -12q-14 -5 -33 8zM131 -8q-61 0 -87.5 39t-23.5 94q1 36 16.5 84t35.5 82q42 72 98.5 111.5t99.5 39.5q48 0 75.5 -34.5t26.5 -106.5
q-1 -35 -16 -80.5t-35 -79.5q-31 -53 -88 -101t-102 -48zM215 341q-19 -1 -40.5 -42t-25.5 -106q-6 -98 34 -96q48 1 64 153q4 43 -3.5 67.5t-28.5 23.5z" />
    <glyph glyph-name="oacute" unicode="&#xf3;" horiz-adv-x="404" 
d="M455 662q9 1 15.5 -3.5t6.5 -12.5q3 -14 -19 -26q-77 -40 -162 -101q-26 -19 -41 -14q-7 2 -10 10t4 20q46 57 68 95q9 13 26 21q7 2 29 4.5t50 4.5t33 2zM131 -8q-61 0 -87.5 39t-23.5 94q1 36 16.5 84t35.5 82q42 72 98.5 111.5t99.5 39.5q48 0 75.5 -34.5t26.5 -106.5
q-1 -35 -16 -80.5t-35 -79.5q-31 -53 -88 -101t-102 -48zM215 341q-19 -1 -40.5 -42t-25.5 -106q-6 -98 34 -96q48 1 64 153q4 43 -3.5 67.5t-28.5 23.5z" />
    <glyph glyph-name="ocircumflex" unicode="&#xf4;" horiz-adv-x="404" 
d="M338 669q25 7 32 -23q4 -23 15 -59t12 -39q11 -22 -16 -33q-17 -7 -35 14q-6 7 -14.5 12.5t-12.5 9.5q-14 13 -45 2q-9 -3 -32 -14t-28 -15q-27 -18 -42 -3q-19 17 16 45q12 7 47 33t44 36q26 26 59 34zM131 -8q-61 0 -87.5 39t-23.5 94q1 36 16.5 84t35.5 82
q42 72 98.5 111.5t99.5 39.5q48 0 75.5 -34.5t26.5 -106.5q-1 -35 -16 -80.5t-35 -79.5q-31 -53 -88 -101t-102 -48zM215 341q-19 -1 -40.5 -42t-25.5 -106q-6 -98 34 -96q48 1 64 153q4 43 -3.5 67.5t-28.5 23.5z" />
    <glyph glyph-name="otilde" unicode="&#xf5;" horiz-adv-x="404" 
d="M216 530q-25 -19 -36 -23.5t-23 2.5q-12 12 -7 24t28 30q22 18 35 28.5t31 22t31 15.5t28 2.5t28 -9.5q1 -1 8.5 -5.5t9 -5t8 -3.5t8.5 -3t8 -0.5t10 1.5t10.5 4.5t12.5 7.5q33 25 44 17q23 -17 -29 -69q-89 -85 -136 -42q-34 33 -69 6zM131 -8q-61 0 -87.5 39t-23.5 94
q1 36 16.5 84t35.5 82q42 72 98.5 111.5t99.5 39.5q48 0 75.5 -34.5t26.5 -106.5q-1 -35 -16 -80.5t-35 -79.5q-31 -53 -88 -101t-102 -48zM215 341q-19 -1 -40.5 -42t-25.5 -106q-6 -98 34 -96q48 1 64 153q4 43 -3.5 67.5t-28.5 23.5z" />
    <glyph glyph-name="odieresis" unicode="&#xf6;" horiz-adv-x="404" 
d="M268 603q-3 -30 -31 -55t-56 -25q-37 0 -32 43q3 36 25.5 60t52.5 24q44 0 41 -47zM442 603q-2 -30 -31.5 -55t-58.5 -25q-32 0 -30 43q3 36 26 60t54 24q43 0 40 -47zM131 -8q-61 0 -87.5 39t-23.5 94q1 36 16.5 84t35.5 82q42 72 98.5 111.5t99.5 39.5q48 0 75.5 -34.5
t26.5 -106.5q-1 -35 -16 -80.5t-35 -79.5q-31 -53 -88 -101t-102 -48zM215 341q-19 -1 -40.5 -42t-25.5 -106q-6 -98 34 -96q48 1 64 153q4 43 -3.5 67.5t-28.5 23.5z" />
    <glyph glyph-name="divide" unicode="&#xf7;" horiz-adv-x="466" 
d="M286 472q22 0 35.5 -10t9.5 -27q-6 -26 -28.5 -40.5t-46.5 -14.5q-54 0 -43 45q3 21 27.5 34t45.5 13zM78 257q-19 0 -24.5 5t1.5 23q9 17 17.5 22t25.5 5q151 2 288 15q4 0 11 1l10.5 1.5t8 1t7 0t5 -2t3.5 -4.5t1 -7q0 -7 -9.5 -26t-20.5 -25q-12 -7 -39 -7
q-98 -2 -285 -2zM219 190q22 0 35 -10t9 -27q-6 -27 -28 -41t-46 -14q-54 0 -43 45q4 22 28 34.5t45 12.5z" />
    <glyph glyph-name="oslash" unicode="&#xf8;" horiz-adv-x="404" 
d="M-7 -7q-7 4 -6.5 11.5t9.5 20t26 27.5q4 3 5.5 6.5t1.5 5t-1.5 7.5t-2.5 9q-5 21 -3 45q1 36 17 85t36 83q42 72 98 110.5t100 38.5q28 0 50 -16q10 -7 19 2q5 6 26 36q4 6 16 4.5t13 -9.5q2 -25 -10 -58q-6 -17 -16 -29q-4 -6 -5 -9.5t0.5 -10.5t1.5 -11q3 -22 2 -40
q-1 -34 -16.5 -79.5t-35.5 -80.5q-30 -53 -86.5 -101t-101.5 -48q-41 0 -68 21q-10 11 -19 2q-29 -27 -50 -22zM212 345q-18 0 -40.5 -35.5t-27.5 -93.5q-2 -15 4 -15.5t11 7.5q9 11 36 40t40 47q6 9 1 22q-7 28 -24 28zM183 92q25 0 42 33.5t21 89.5q0 7 -1.5 9.5t-5 1
t-8.5 -5.5q-7 -9 -70 -76q-12 -12 -7 -24q12 -28 29 -28z" />
    <glyph glyph-name="ugrave" unicode="&#xf9;" horiz-adv-x="607" 
d="M341 511q-37 26 -73 59t-49 53q-5 7 -4.5 19t10.5 17q16 9 92 16q11 1 18 -8.5t8 -17.5q7 -55 39 -122q3 -4 0.5 -12t-8.5 -12q-14 -5 -33 8zM568 147q5 -5 2.5 -17t-9.5 -20q-30 -40 -83 -80t-94 -40q-70 0 -62 78q7 44 14 66q4 16 -4 20t-16 -8q-38 -56 -89 -105
t-97 -50q-28 -1 -46.5 23t-14.5 57q5 39 27 106.5t27 91.5q7 32 -11 32q-20 0 -41 -15q-17 -12 -38 1q-6 4 -5.5 17.5t7.5 19.5q40 42 89 71.5t84 40.5q33 10 56.5 -6t15.5 -58q-6 -32 -14.5 -62t-21 -69t-19.5 -62q-4 -12 -0.5 -23t14.5 -12.5t33 18.5q59 53 129 223
q9 21 45 36.5t66 19.5q22 3 36.5 -5.5t3.5 -28.5q-18 -33 -46.5 -113t-38.5 -130q-3 -18 1 -29t13 -10q16 0 47 27q9 7 21 5t19 -10z" />
    <glyph glyph-name="uacute" unicode="&#xfa;" horiz-adv-x="607" 
d="M541 662q9 1 15.5 -3.5t6.5 -12.5q3 -14 -19 -26q-77 -40 -162 -101q-26 -19 -41 -14q-7 2 -10 10t4 20q46 57 68 95q9 13 26 21q3 1 112 11zM568 147q5 -5 2.5 -17t-9.5 -20q-30 -40 -83 -80t-94 -40q-70 0 -62 78q7 44 14 66q4 16 -4 20t-16 -8q-38 -56 -89 -105
t-97 -50q-28 -1 -46.5 23t-14.5 57q5 39 27 106.5t27 91.5q7 32 -11 32q-20 0 -41 -15q-17 -12 -38 1q-6 4 -5.5 17.5t7.5 19.5q40 42 89 71.5t84 40.5q33 10 56.5 -6t15.5 -58q-6 -32 -14.5 -62t-21 -69t-19.5 -62q-4 -12 -0.5 -23t14.5 -12.5t33 18.5q59 53 129 223
q9 21 45 36.5t66 19.5q22 3 36.5 -5.5t3.5 -28.5q-18 -33 -46.5 -113t-38.5 -130q-3 -18 1 -29t13 -10q16 0 47 27q9 7 21 5t19 -10z" />
    <glyph glyph-name="ucircumflex" unicode="&#xfb;" horiz-adv-x="607" 
d="M438 669q25 7 32 -23q4 -23 15 -59t12 -39q11 -22 -16 -33q-17 -7 -35 14q-6 7 -14.5 12.5t-12.5 9.5q-15 13 -44 2q-35 -13 -61 -29q-27 -18 -42 -3q-19 17 16 45q11 6 46.5 32.5t45.5 36.5q25 25 58 34zM568 147q5 -5 2.5 -17t-9.5 -20q-30 -40 -83 -80t-94 -40
q-70 0 -62 78q7 44 14 66q4 16 -4 20t-16 -8q-38 -56 -89 -105t-97 -50q-28 -1 -46.5 23t-14.5 57q5 39 27 106.5t27 91.5q7 32 -11 32q-20 0 -41 -15q-17 -12 -38 1q-6 4 -5.5 17.5t7.5 19.5q40 42 89 71.5t84 40.5q33 10 56.5 -6t15.5 -58q-6 -32 -14.5 -62t-21 -69
t-19.5 -62q-4 -12 -0.5 -23t14.5 -12.5t33 18.5q59 53 129 223q9 21 45 36.5t66 19.5q22 3 36.5 -5.5t3.5 -28.5q-18 -33 -46.5 -113t-38.5 -130q-3 -18 1 -29t13 -10q16 0 47 27q9 7 21 5t19 -10z" />
    <glyph glyph-name="udieresis" unicode="&#xfc;" horiz-adv-x="607" 
d="M370 603q-3 -30 -31 -55t-56 -25q-37 0 -32 43q3 36 25.5 60t52.5 24q44 0 41 -47zM544 603q-2 -30 -31.5 -55t-58.5 -25q-32 0 -30 43q3 36 26 60t54 24q43 0 40 -47zM568 147q5 -5 2.5 -17t-9.5 -20q-30 -40 -83 -80t-94 -40q-70 0 -62 78q7 44 14 66q4 16 -4 20
t-16 -8q-38 -56 -89 -105t-97 -50q-28 -1 -46.5 23t-14.5 57q5 39 27 106.5t27 91.5q7 32 -11 32q-20 0 -41 -15q-17 -12 -38 1q-6 4 -5.5 17.5t7.5 19.5q40 42 89 71.5t84 40.5q33 10 56.5 -6t15.5 -58q-6 -32 -14.5 -62t-21 -69t-19.5 -62q-4 -12 -0.5 -23t14.5 -12.5
t33 18.5q59 53 129 223q9 21 45 36.5t66 19.5q22 3 36.5 -5.5t3.5 -28.5q-18 -33 -46.5 -113t-38.5 -130q-3 -18 1 -29t13 -10q16 0 47 27q9 7 21 5t19 -10z" />
    <glyph glyph-name="yacute" unicode="&#xfd;" horiz-adv-x="562" 
d="M554 662q9 1 15.5 -3.5t6.5 -12.5q1 -14 -20 -26q-80 -41 -161 -101q-27 -19 -41 -14q-7 2 -10 10t4 20q46 57 68 95q9 14 26 21q3 1 112 11zM207 436q33 10 57.5 -6t16.5 -58q-6 -31 -15 -62t-22 -68.5t-20 -62.5q-7 -22 1.5 -32.5t38.5 13.5q66 59 134 225
q9 21 45 36.5t65 19.5q22 3 37 -5.5t4 -28.5q-19 -33 -47.5 -113t-38.5 -130q-15 -62 6 -154q15 -80 -37 -149t-137 -105t-173 -36q-210 0 -210 96q0 44 35 79.5t85 54.5q32 12 47 0q6 -5 7.5 -14.5t-4.5 -17.5q-23 -32 -23 -72q0 -27 24 -41.5t60 -14.5q95 0 146 58.5
t37 149.5q-11 65 11 136q5 15 -3 19.5t-18 -7.5q-21 -28 -34.5 -44.5t-41.5 -47t-55.5 -46.5t-52.5 -17q-29 -1 -45.5 23.5t-11.5 58.5q4 34 25 101.5t26 95.5q6 32 -11 32q-21 0 -43 -16q-17 -12 -38 1q-6 4 -5.5 17.5t6.5 19.5q41 42 89.5 72t82.5 40z" />
    <glyph glyph-name="thorn" unicode="&#xfe;" horiz-adv-x="501" 
d="M115 671q31 2 85.5 15t85.5 15q13 1 23 -10.5t9 -26.5q-1 -34 -20 -103q-9 -32 -34.5 -109t-37.5 -120q-6 -19 3 -21q8 -5 21 9q21 24 56.5 59t57.5 49q38 25 72.5 7t34.5 -66q0 -52 -15 -112.5t-40 -103.5q-30 -51 -73.5 -89t-89.5 -57q-43 -17 -70 -10q-16 4 -23.5 0
t-11.5 -20q-17 -52 -46 -125q-12 -26 -46 -57q-74 -65 -107 -75q-21 -9 -27 12q-6 18 14 43q31 42 57 121q79 233 171 665q5 17 3 31t-17 18q-12 4 -39 3q-24 -1 -24 24q0 12 7.5 22.5t20.5 11.5zM288 286q-41 -29 -67 -78q-24 -44 -38 -94q-10 -33 5 -43q14 -10 31 -9
q28 1 53 40q48 76 55 164q3 28 -7.5 32.5t-31.5 -12.5z" />
    <glyph glyph-name="ydieresis" unicode="&#xff;" horiz-adv-x="562" 
d="M373 603q-2 -30 -30 -55t-57 -25q-35 0 -32 43q3 36 25.5 60t52.5 24q44 0 41 -47zM547 603q-1 -30 -30.5 -55t-59.5 -25q-32 0 -29 43q2 36 25 60t55 24q43 0 39 -47zM207 436q33 10 57.5 -6t16.5 -58q-6 -31 -15 -62t-22 -68.5t-20 -62.5q-7 -22 1.5 -32.5t38.5 13.5
q66 59 134 225q9 21 45 36.5t65 19.5q22 3 37 -5.5t4 -28.5q-19 -33 -47.5 -113t-38.5 -130q-15 -62 6 -154q15 -80 -37 -149t-137 -105t-173 -36q-210 0 -210 96q0 44 35 79.5t85 54.5q32 12 47 0q6 -5 7.5 -14.5t-4.5 -17.5q-23 -32 -23 -72q0 -27 24 -41.5t60 -14.5
q95 0 146 58.5t37 149.5q-11 65 11 136q5 15 -3 19.5t-18 -7.5q-21 -28 -34.5 -44.5t-41.5 -47t-55.5 -46.5t-52.5 -17q-29 -1 -45.5 23.5t-11.5 58.5q4 34 25 101.5t26 95.5q6 32 -11 32q-21 0 -43 -16q-17 -12 -38 1q-6 4 -5.5 17.5t6.5 19.5q41 42 89.5 72t82.5 40z" />
    <glyph glyph-name="Amacron" unicode="&#x100;" horiz-adv-x="701" 
d="M510 602q10 -87 37 -266.5t32 -199.5q5 -28 9.5 -40.5t18 -24.5t38.5 -20q7 -2 12 -11t5 -16q-1 -9 -8.5 -18t-21.5 -8q-64 5 -253 -1q-8 0 -14 7t-6 14q0 21 14 25q50 14 51 46q3 25 -7 70q-3 10 -21 14q-23 4 -84 4t-78 -2q-34 -2 -42 -15q-25 -38 -30 -66
q-4 -16 9.5 -30t34.5 -18q8 -1 15.5 -9.5t5.5 -16.5q-2 -9 -13.5 -15.5t-23.5 -5.5q-32 3 -87 3t-84 -2q-11 -1 -20 0t-15 4t-6 7q2 18 15 35t37 38.5t26 23.5q56 62 140 173t139 195q21 33 32 62q8 22 37.5 42.5t60.5 33.5q43 17 45 -12zM371 407q-6 0 -32 -37
q-70 -100 -81 -118q-16 -23 11 -25q36 -2 124 -1q11 0 15 5t3 20q-7 58 -21 127q-6 29 -19 29zM369 669q-19 0 -25 5t1 23q9 17 18 23t25 6q138 2 200 8q3 0 8 1t8 1.5t7 0.5h6.5h5.5t4.5 -1t3 -2.5t2 -4t0.5 -5.5q0 -8 -9.5 -25.5t-20.5 -23.5q-12 -7 -39 -7
q-25 0 -98.5 0.5t-96.5 0.5z" />
    <glyph glyph-name="amacron" unicode="&#x101;" horiz-adv-x="532" 
d="M223 515q-19 0 -25 5t1 23q16 29 43 29q138 2 200 8q5 0 11 1t10 1.5t8.5 0.5t7 -0.5t4.5 -2t3 -4t1 -6.5q0 -8 -9 -25.5t-21 -23.5q-12 -7 -39 -7q-28 -1 -106.5 0t-88.5 1zM236 427q12 6 36 9.5t43 0.5q31 -5 61 -19q13 -4 37 10q26 15 47 32q29 22 44 15q19 -10 9 -27
q-49 -76 -59 -102q-44 -111 -55 -184q-6 -37 11 -37q21 2 48 25q8 6 20.5 4.5t18.5 -9.5q4 -6 2.5 -17.5t-8.5 -19.5q-33 -42 -85.5 -81.5t-93.5 -39.5q-27 0 -42 11.5t-17.5 30t0 37.5t10.5 38q9 19 2 22q-10 6 -23 -9q-20 -23 -59 -60t-60 -51q-38 -25 -70 -7.5t-32 66.5
q0 104 51 203q28 51 73 93.5t91 65.5zM205 146q27 24 67 85q19 29 37 87q8 31 -7 41q-16 12 -32 13q-32 1 -59 -41q-46 -74 -49 -161q-2 -25 11.5 -32.5t31.5 8.5z" />
    <glyph glyph-name="Abreve" unicode="&#x102;" horiz-adv-x="701" 
d="M510 602q10 -87 37 -266.5t32 -199.5q5 -28 9.5 -40.5t18 -24.5t38.5 -20q7 -2 12 -11t5 -16q-1 -9 -8.5 -18t-21.5 -8q-64 5 -253 -1q-8 0 -14 7t-6 14q0 21 14 25q50 14 51 46q3 25 -7 70q-3 10 -21 14q-23 4 -84 4t-78 -2q-34 -2 -42 -15q-25 -38 -30 -66
q-4 -16 9.5 -30t34.5 -18q8 -1 15.5 -9.5t5.5 -16.5q-2 -9 -13.5 -15.5t-23.5 -5.5q-32 3 -87 3t-84 -2q-11 -1 -20 0t-15 4t-6 7q2 18 15 35t37 38.5t26 23.5q56 62 140 173t139 195q21 33 32 62q8 22 37.5 42.5t60.5 33.5q43 17 45 -12zM371 407q-6 0 -32 -37
q-70 -100 -81 -118q-16 -23 11 -25q36 -2 124 -1q11 0 15 5t3 20q-7 58 -21 127q-6 29 -19 29zM609 795q8 -2 11.5 -9.5t-0.5 -18.5q-16 -50 -56 -78t-83 -28q-48 0 -68.5 30t-16.5 69q4 32 28 35q15 2 25 -16q16 -26 53 -26q11 0 19 1t13.5 2t11.5 4.5t8.5 5t9.5 7t9 7.5
q21 16 36 15z" />
    <glyph glyph-name="abreve" unicode="&#x103;" horiz-adv-x="532" 
d="M449 635q8 -2 11.5 -9.5t-0.5 -18.5q-17 -50 -56.5 -80t-81.5 -30q-48 0 -67 31.5t-15 71.5q4 32 28 36q8 1 15 -5t9 -12q9 -30 51 -30q12 0 21.5 1.5t17.5 5.5t11.5 6t12 9.5t10.5 8.5q19 16 33 15zM236 427q12 6 36 9.5t43 0.5q31 -5 61 -19q13 -4 37 10q26 15 47 32
q29 22 44 15q19 -10 9 -27q-49 -76 -59 -102q-44 -111 -55 -184q-6 -37 11 -37q21 2 48 25q8 6 20.5 4.5t18.5 -9.5q4 -6 2.5 -17.5t-8.5 -19.5q-33 -42 -85.5 -81.5t-93.5 -39.5q-27 0 -42 11.5t-17.5 30t0 37.5t10.5 38q9 19 2 22q-10 6 -23 -9q-20 -23 -59 -60t-60 -51
q-38 -25 -70 -7.5t-32 66.5q0 104 51 203q28 51 73 93.5t91 65.5zM205 146q27 24 67 85q19 29 37 87q8 31 -7 41q-16 12 -32 13q-32 1 -59 -41q-46 -74 -49 -161q-2 -25 11.5 -32.5t31.5 8.5z" />
    <glyph glyph-name="Aogonek" unicode="&#x104;" horiz-adv-x="701" 
d="M556 -136q4 -7 -0.5 -19t-14.5 -21q-18 -17 -45 -29.5t-47 -12.5q-46 0 -64 21t-18 60q0 50 88 121q5 4 5 7.5t-4.5 5.5t-13.5 2l-63 -2q-8 0 -14 7t-6 14q0 21 14 25q50 14 51 46q3 25 -7 70q-3 10 -21 14q-23 4 -84 4t-78 -2q-34 -2 -42 -15q-25 -38 -30 -66
q-4 -16 9.5 -30t34.5 -18q8 -1 15.5 -9.5t5.5 -16.5q-2 -9 -13.5 -15.5t-23.5 -5.5q-32 3 -87 3t-84 -2q-11 -1 -20 0t-15 4t-6 7q2 18 15 35t37 38.5t26 23.5q56 62 140 173t139 195q21 33 32 62q8 22 37.5 42.5t60.5 33.5q43 17 45 -12q10 -87 37 -266.5t32 -199.5
q5 -28 9.5 -40.5t18 -24.5t38.5 -20q7 -2 12 -11t5 -16q-1 -9 -8.5 -18t-21.5 -8q-30 2 -56 2q-30 0 -41 -12q-53 -51 -53 -91q0 -27 18 -27q14 0 29 5q17 3 27 -11zM371 407q-6 0 -32 -37q-70 -100 -81 -118q-16 -23 11 -25q36 -2 124 -1q11 0 15 5t3 20q-7 58 -21 127
q-6 29 -19 29z" />
    <glyph glyph-name="aogonek" unicode="&#x105;" horiz-adv-x="532" 
d="M513 448q-49 -76 -59 -102q-44 -111 -55 -184q-6 -37 11 -37q21 2 48 25q8 6 20.5 4.5t18.5 -9.5q4 -6 2.5 -17.5t-8.5 -19.5q-52 -66 -128 -111q-28 -17 -47 -46.5t-19 -53.5q0 -27 18 -27q14 0 29 5q17 3 26 -11q4 -7 0 -19t-14 -21q-18 -17 -45 -29.5t-47 -12.5
q-46 0 -64 21t-18 60q0 47 80 118q8 7 8.5 11.5t-5.5 11t-8 10.5q-17 32 6 90q9 19 2 22q-10 6 -23 -9q-20 -23 -59 -60t-60 -51q-38 -25 -70 -7.5t-32 66.5q0 104 51 203q28 51 73 93.5t91 65.5q12 6 36 9.5t43 0.5q31 -5 61 -19q13 -4 37 10q26 15 47 32q29 22 44 15
q19 -10 9 -27zM205 146q27 24 67 85q19 29 37 87q8 31 -7 41q-16 12 -32 13q-32 1 -59 -41q-46 -74 -49 -161q-2 -25 11.5 -32.5t31.5 8.5z" />
    <glyph glyph-name="Cacute" unicode="&#x106;" horiz-adv-x="560" 
d="M260 -11q-53 0 -93 21t-60 54.5t-29.5 69t-8.5 71.5q3 166 115.5 288t243.5 122q86 0 115 -24t24 -62q-4 -35 -29 -66.5t-67 -48.5q-26 -11 -41 -4q-5 2 -6.5 12.5t3.5 19.5q15 22 5 57.5t-42 35.5q-17 0 -36 -6t-44.5 -26t-45 -51.5t-33 -88.5t-13.5 -130q0 -72 31 -109
t72 -37q40 0 80 13.5t64 35.5q9 10 25.5 11.5t22.5 -3.5q8 -5 7 -16.5t-9 -20.5q-112 -118 -251 -118zM540 783q8 1 14 -4.5t6 -12.5q1 -6 -6 -14.5t-13 -11.5q-84 -41 -133 -73q-25 -18 -42 -13q-6 2 -9 9.5t4 18.5q12 14 28.5 39t19.5 30q14 16 25 20q8 2 54 6.5t52 5.5z
" />
    <glyph glyph-name="cacute" unicode="&#x107;" horiz-adv-x="382" 
d="M441 651q9 1 15.5 -4t6.5 -13q1 -6 -6 -14t-13 -11q-78 -41 -162 -101q-26 -20 -41 -15q-7 2 -10 10.5t4 20.5q46 57 68 95q11 15 26 20q6 2 29 4.5t49 4.5t34 3zM241 360q-12 0 -30 -24t-33.5 -70t-16.5 -95q-1 -36 12.5 -56.5t27.5 -20.5q35 0 77 36q9 8 21.5 9.5
t16.5 -3.5q15 -17 -5 -40q-28 -32 -85 -70t-95 -38q-46 0 -73 37t-24 101q3 86 61 176.5t143 127.5q25 11 60.5 11t48.5 -7q31 -15 28 -51q-4 -26 -29 -54.5t-50 -38.5q-19 -7 -33 4q-4 4 -4 10t2 14.5t2 12.5q2 29 -22 29z" />
    <glyph glyph-name="Ccircumflex" unicode="&#x108;" horiz-adv-x="560" 
d="M260 -11q-53 0 -93 21t-60 54.5t-29.5 69t-8.5 71.5q3 166 115.5 288t243.5 122q86 0 115 -24t24 -62q-4 -35 -29 -66.5t-67 -48.5q-26 -11 -41 -4q-5 2 -6.5 12.5t3.5 19.5q15 22 5 57.5t-42 35.5q-22 0 -48.5 -14t-55.5 -45t-48.5 -94.5t-19.5 -148.5q0 -72 31 -109
t72 -37q40 0 80 13.5t64 35.5q9 10 25.5 11.5t22.5 -3.5q8 -5 7 -16.5t-9 -20.5q-112 -118 -251 -118zM461 795q28 4 32 -22q4 -22 19 -52t17 -38q10 -22 -16 -33q-14 -5 -36 14q-11 9 -27 21q-17 14 -44 3q-31 -11 -61 -30q-27 -17 -42 -2q-18 18 16 44q11 7 41 31t39 33
q23 23 62 31z" />
    <glyph glyph-name="ccircumflex" unicode="&#x109;" horiz-adv-x="382" 
d="M356 661q27 8 32 -24q0 -3 28 -97q10 -22 -16 -33q-18 -7 -36 14q-6 7 -14.5 13t-11.5 8q-16 14 -45 3q-48 -22 -61 -30q-27 -17 -42 -2q-18 18 16 44q12 7 47.5 33.5t44.5 35.5q27 27 58 35zM241 360q-12 0 -30 -24t-33.5 -70t-16.5 -95q-1 -36 12.5 -56.5t27.5 -20.5
q35 0 77 36q9 8 21.5 9.5t16.5 -3.5q15 -17 -5 -40q-28 -32 -85 -70t-95 -38q-46 0 -73 37t-24 101q3 86 61 176.5t143 127.5q25 11 60.5 11t48.5 -7q31 -15 28 -51q-4 -26 -29 -54.5t-50 -38.5q-19 -7 -33 4q-4 4 -4 10t2 14.5t2 12.5q2 29 -22 29z" />
    <glyph glyph-name="Cdotaccent" unicode="&#x10a;" horiz-adv-x="560" 
d="M260 -11q-53 0 -93 21t-60 54.5t-29.5 69t-8.5 71.5q3 166 115.5 288t243.5 122q86 0 115 -24t24 -62q-4 -35 -29 -66.5t-67 -48.5q-26 -11 -41 -4q-5 2 -6.5 12.5t3.5 19.5q15 22 5 57.5t-42 35.5q-17 0 -36 -6t-44.5 -26t-45 -51.5t-33 -88.5t-13.5 -130q0 -72 31 -109
t72 -37q40 0 80 13.5t64 35.5q9 10 25.5 11.5t22.5 -3.5q8 -5 7 -16.5t-9 -20.5q-112 -118 -251 -118zM513 742q-3 -29 -34 -51.5t-66 -22.5q-20 0 -32 12.5t-11 31.5q4 37 29.5 60t62.5 23q24 0 38 -14.5t13 -38.5z" />
    <glyph glyph-name="cdotaccent" unicode="&#x10b;" horiz-adv-x="382" 
d="M378 581q-2 -30 -33.5 -52t-65.5 -22q-20 0 -32.5 12.5t-10.5 31.5q3 36 29 59.5t62 23.5q24 0 38 -14.5t13 -38.5zM241 360q-12 0 -30 -24t-33.5 -70t-16.5 -95q-1 -36 12.5 -56.5t27.5 -20.5q35 0 77 36q9 8 21.5 9.5t16.5 -3.5q15 -17 -5 -40q-28 -32 -85 -70t-95 -38
q-46 0 -73 37t-24 101q3 86 61 176.5t143 127.5q25 11 60.5 11t48.5 -7q31 -15 28 -51q-4 -26 -29 -54.5t-50 -38.5q-19 -7 -33 4q-4 4 -4 10t2 14.5t2 12.5q2 29 -22 29z" />
    <glyph glyph-name="Ccaron" unicode="&#x10c;" horiz-adv-x="560" 
d="M260 -11q-53 0 -93 21t-60 54.5t-29.5 69t-8.5 71.5q3 166 115.5 288t243.5 122q86 0 115 -24t24 -62q-4 -35 -29 -66.5t-67 -48.5q-26 -11 -41 -4q-5 2 -6.5 12.5t3.5 19.5q15 22 5 57.5t-42 35.5q-17 0 -36 -6t-44.5 -26t-45 -51.5t-33 -88.5t-13.5 -130q0 -72 31 -109
t72 -37q40 0 80 13.5t64 35.5q9 10 25.5 11.5t22.5 -3.5q8 -5 7 -16.5t-9 -20.5q-112 -118 -251 -118zM403 664q-15 -2 -22 3t-10 19q-3 22 -18 50.5t-17 36.5q-9 19 16 30q18 7 35 -12q4 -4 8.5 -7.5t10 -7.5t8.5 -6q18 -12 45 -2q45 16 60 27q27 19 43 3q17 -17 -16 -43
q-12 -6 -41.5 -28.5t-38.5 -32.5q-22 -22 -63 -30z" />
    <glyph glyph-name="ccaron" unicode="&#x10d;" horiz-adv-x="382" 
d="M288 505q-27 -8 -32 24q-4 21 -16 55t-14 42q-11 22 16 33q13 5 35 -14q13 -12 27 -21q18 -13 44 -3q39 14 61 30q27 17 42 2q19 -17 -16 -44q-12 -8 -46 -34t-43 -35q-27 -27 -58 -35zM241 360q-12 0 -30 -24t-33.5 -70t-16.5 -95q-1 -36 12.5 -56.5t27.5 -20.5
q35 0 77 36q9 8 21.5 9.5t16.5 -3.5q15 -17 -5 -40q-28 -32 -85 -70t-95 -38q-46 0 -73 37t-24 101q3 86 61 176.5t143 127.5q25 11 60.5 11t48.5 -7q31 -15 28 -51q-4 -26 -29 -54.5t-50 -38.5q-19 -7 -33 4q-4 4 -4 10t2 14.5t2 12.5q2 29 -22 29z" />
    <glyph glyph-name="Dcaron" unicode="&#x10e;" horiz-adv-x="671" 
d="M120 569q0 9 11.5 19.5t26.5 11.5q85 9 205 9q73 0 118 -5q75 -9 123.5 -63.5t48.5 -141.5q0 -101 -50 -196t-132.5 -154t-170.5 -59q-48 0 -102.5 10.5t-82.5 32.5q-24 15 -7 76q16 69 44 182t41 166q11 33 5 60t-41 26q-17 -1 -27 7.5t-10 18.5zM353 513
q-66 -237 -92 -398q-1 -14 -0.5 -26.5t13 -21t38.5 -8.5q78 0 125.5 88.5t66.5 222.5q25 176 -112 176q-20 -1 -27 -7t-12 -26zM439 664q-15 -2 -22 3t-10 19q-3 22 -18 50.5t-17 36.5q-9 19 16 30q18 7 35 -12l27 -21q18 -12 45 -2q43 15 61 27q26 19 42 3q17 -17 -16 -43
q-12 -6 -41.5 -28.5t-38.5 -32.5q-22 -22 -63 -30z" />
    <glyph glyph-name="dcaron" unicode="&#x10f;" horiz-adv-x="532" 
d="M399 162q-6 -37 11 -37q21 2 48 25q18 14 34 -4q10 -16 -7 -37q-35 -43 -83.5 -81.5t-89.5 -38.5q-84 0 -49 115q7 19 2 22q-10 6 -23 -9q-19 -23 -58.5 -60t-61.5 -51q-38 -25 -70.5 -7.5t-32.5 66.5q0 110 50 204q29 53 75.5 95.5t91.5 62.5q37 16 77 10q5 -1 11.5 -3
t9 -2.5t6 0t5.5 3.5t5 9q29 65 36 117q8 48 -16 55q-1 3 -17.5 0.5t-26.5 -2.5q-25 -1 -25 23q0 22 29 33q74 28 171 31q19 1 31 -10.5t10 -26.5q-2 -31 -23 -103q-4 -13 -35.5 -109t-46.5 -146q-30 -95 -38 -144zM203 145q32 30 69 86q19 29 37 87q8 31 -7 41
q-16 12 -32 13q-34 2 -60 -40q-45 -74 -52 -161q-1 -25 12.5 -34t32.5 8zM600 517q30 24 37 46q9 28 -25 33q-21 3 -22 7q-8 11 0 24q14 28 47 51.5t56 23.5q35 0 48.5 -25t5.5 -68q-5 -31 -40 -68.5t-79 -59.5q-25 -13 -36 2q-12 18 8 34z" />
    <glyph glyph-name="Dcroat" unicode="&#x110;" horiz-adv-x="671" 
d="M155 600q83 9 204 9q74 0 119 -5q75 -9 123.5 -63.5t48.5 -141.5q0 -101 -50 -196t-132.5 -154t-171.5 -59q-48 0 -102.5 10.5t-81.5 32.5q-24 15 -8 76l39 162q6 29 -16 29h-25q-19 0 -25 5t1 22q9 17 18 22.5t25 5.5q21 0 33 5t13.5 8.5t3.5 11.5l18 77q5 20 6 33
t-1 27t-12 20.5t-29 5.5q-17 -1 -26.5 7.5t-9.5 18.5q0 9 11.5 19.5t26.5 11.5zM349 513q-6 -25 -17.5 -67t-16.5 -60q-4 -17 -1 -20t21 -2l57 6q4 0 11 1l10.5 1.5t8 1t7 0t5 -2t3.5 -4.5t1 -7q0 -8 -9.5 -26.5t-21.5 -24.5q-11 -7 -38 -7q-10 -1 -44 -1q-15 0 -19.5 -0.5
t-9 -5.5t-6.5 -16q-21 -97 -32 -164q-5 -25 4 -40.5t47 -15.5q78 0 125.5 88.5t66.5 222.5q24 176 -112 176q-21 -1 -28 -7t-12 -26z" />
    <glyph glyph-name="dcroat" unicode="&#x111;" horiz-adv-x="532" 
d="M330 670q74 28 171 31q19 1 31 -10.5t10 -26.5q-2 -26 -14 -71q-7 -16 -6.5 -23.5t18.5 -4.5q27 2 37 4q36 4 40 1q5 -3 5 -11t-9.5 -26.5t-20.5 -24.5q-12 -7 -39 -7q-3 0 -13.5 -0.5t-17.5 -0.5h-5q-16 0 -20 -7q-2 -3 -4 -12q-36 -109 -56 -175q-30 -95 -38 -144
q-6 -37 11 -37q21 2 48 25q18 14 34 -4q10 -16 -7 -37q-35 -43 -83.5 -81.5t-89.5 -38.5q-84 0 -49 115q7 19 2 22q-10 6 -23 -9q-19 -23 -58.5 -60t-61.5 -51q-38 -25 -70.5 -7.5t-32.5 66.5q0 110 50 204q29 53 75.5 95.5t91.5 62.5q37 16 77 10q5 -1 11.5 -3t9 -2.5
t5.5 0t5.5 3.5t5.5 9q10 23 12 29q2 5 2 10.5t-3 10t-9 4.5h-64q-39 0 -24 28q9 17 18 22.5t25 5.5q42 0 61 1q11 0 15 2.5t4 13.5q6 39 -17 45q-1 3 -17.5 0.5t-26.5 -2.5q-25 -1 -25 23q0 22 29 33zM203 145q32 30 69 86q19 29 37 87q8 31 -7 41q-16 12 -32 13
q-34 2 -60 -40q-45 -74 -52 -161q-1 -25 12.5 -34t32.5 8z" />
    <glyph glyph-name="Emacron" unicode="&#x112;" horiz-adv-x="511" 
d="M224 -8q-95 0 -140.5 36.5t-43.5 110.5q1 73 45 122.5t114 68.5q18 4 18 13q0 10 -16 14q-37 7 -56 32.5t-17 66.5q5 71 84.5 114.5t173.5 43.5q24 0 46 -2.5t47 -9.5t39.5 -22t12.5 -37q-2 -27 -26 -54t-61 -39q-31 -11 -43 -4q-4 3 -6 10.5t3 15.5q12 19 13 46
q2 39 -47 39q-38 0 -66.5 -23t-32.5 -69q-4 -44 16 -68t50 -26q27 -3 38 -1q13 1 17.5 -9.5t-4.5 -29.5q-14 -28 -37 -30q-71 -4 -114.5 -39.5t-43.5 -99.5q0 -37 20.5 -61t54.5 -24q73 0 142 69q6 6 19 9.5t26 -1.5q20 -12 5 -33q-35 -55 -104 -92t-126 -37zM266 669
q-19 0 -25 5t1 23q9 17 18 23t25 6q138 2 200 8q36 4 40 1q5 -3 5 -11t-9 -25.5t-21 -23.5q-12 -7 -39 -7q-25 0 -98.5 0.5t-96.5 0.5z" />
    <glyph glyph-name="emacron" unicode="&#x113;" horiz-adv-x="384" 
d="M181 509q-19 0 -25 5t1 23q9 17 18 23t25 6q120 2 185 8q36 4 40 1q5 -3 5 -11t-9 -25.5t-21 -23.5q-12 -7 -39 -7q-25 0 -91 0.5t-89 0.5zM159 169q-1 -35 11.5 -55t26.5 -20q38 0 78 38q9 8 22.5 8.5t18.5 -5.5q16 -17 -5 -41q-28 -32 -87 -69t-99 -37q-48 0 -73 36.5
t-23 101.5q2 85 59 175t143 127q28 12 62 12.5t59 -15.5t21 -49q-8 -67 -83 -118q-62 -42 -109 -60q-13 -5 -17 -9.5t-5 -19.5zM231 360q-7 0 -17.5 -9t-23.5 -31t-20 -52q-3 -12 3.5 -14.5t12.5 1.5q33 14 51 34.5t21 39.5q2 31 -27 31z" />
    <glyph glyph-name="Ebreve" unicode="&#x114;" horiz-adv-x="511" 
d="M224 -8q-95 0 -140.5 36.5t-43.5 110.5q1 73 45 122.5t114 68.5q18 4 18 13q0 10 -16 14q-37 7 -56 32.5t-17 66.5q5 71 84.5 114.5t173.5 43.5q24 0 46 -2.5t47 -9.5t39.5 -22t12.5 -37q-2 -27 -26 -54t-61 -39q-31 -11 -43 -4q-4 3 -6 10.5t3 15.5q12 19 13 46
q2 39 -47 39q-38 0 -66.5 -23t-32.5 -69q-4 -44 16 -68t50 -26q27 -3 38 -1q13 1 17.5 -9.5t-4.5 -29.5q-14 -28 -37 -30q-71 -4 -114.5 -39.5t-43.5 -99.5q0 -37 20.5 -61t54.5 -24q73 0 142 69q6 6 19 9.5t26 -1.5q20 -12 5 -33q-35 -55 -104 -92t-126 -37zM508 795
q8 -2 12 -10t0 -18q-16 -50 -56 -78t-83 -28q-48 0 -68.5 30t-16.5 69q4 32 28 35q14 2 24 -16q17 -26 54 -26q10 0 18.5 1t13.5 2t12 5t8.5 5t9.5 7t9 7q21 16 35 15z" />
    <glyph glyph-name="ebreve" unicode="&#x115;" horiz-adv-x="384" 
d="M399 632q19 -4 11 -28q-17 -50 -56.5 -78.5t-80.5 -28.5q-48 0 -67 30.5t-15 70.5q4 31 27 35q17 3 24 -17q9 -29 51 -29q10 0 19 1.5t14.5 2.5t13 5.5t9.5 6t10 8t9 7.5q19 16 31 14zM159 169q-1 -35 11.5 -55t26.5 -20q38 0 78 38q9 8 22.5 8.5t18.5 -5.5
q16 -17 -5 -41q-28 -32 -87 -69t-99 -37q-48 0 -73 36.5t-23 101.5q2 85 59 175t143 127q28 12 62 12.5t59 -15.5t21 -49q-8 -67 -83 -118q-62 -42 -109 -60q-13 -5 -17 -9.5t-5 -19.5zM231 360q-7 0 -17.5 -9t-23.5 -31t-20 -52q-3 -12 3.5 -14.5t12.5 1.5q33 14 51 34.5
t21 39.5q2 31 -27 31z" />
    <glyph glyph-name="Edotaccent" unicode="&#x116;" horiz-adv-x="511" 
d="M224 -8q-95 0 -140.5 36.5t-43.5 110.5q1 73 45 122.5t114 68.5q18 4 18 13q0 10 -16 14q-37 7 -56 32.5t-17 66.5q5 71 84.5 114.5t173.5 43.5q24 0 46 -2.5t47 -9.5t39.5 -22t12.5 -37q-2 -27 -26 -54t-61 -39q-31 -11 -43 -4q-4 3 -6 10.5t3 15.5q12 19 13 46
q2 39 -47 39q-38 0 -66.5 -23t-32.5 -69q-4 -44 16 -68t50 -26q27 -3 38 -1q13 1 17.5 -9.5t-4.5 -29.5q-14 -28 -37 -30q-71 -4 -114.5 -39.5t-43.5 -99.5q0 -37 20.5 -61t54.5 -24q73 0 142 69q6 6 19 9.5t26 -1.5q20 -12 5 -33q-35 -55 -104 -92t-126 -37zM470 742
q-3 -29 -34 -51.5t-66 -22.5q-20 0 -32 12.5t-11 31.5q4 37 29.5 60t62.5 23q23 0 37.5 -14.5t13.5 -38.5z" />
    <glyph glyph-name="edotaccent" unicode="&#x117;" horiz-adv-x="384" 
d="M373 581q-2 -30 -33.5 -52t-65.5 -22q-20 0 -32.5 12.5t-10.5 31.5q3 36 29 59.5t62 23.5q24 0 38 -14.5t13 -38.5zM159 169q-1 -35 11.5 -55t26.5 -20q38 0 78 38q9 8 22.5 8.5t18.5 -5.5q16 -17 -5 -41q-28 -32 -87 -69t-99 -37q-48 0 -73 36.5t-23 101.5q2 85 59 175
t143 127q28 12 62 12.5t59 -15.5t21 -49q-8 -67 -83 -118q-62 -42 -109 -60q-13 -5 -17 -9.5t-5 -19.5zM231 360q-7 0 -17.5 -9t-23.5 -31t-20 -52q-3 -12 3.5 -14.5t12.5 1.5q33 14 51 34.5t21 39.5q2 31 -27 31z" />
    <glyph glyph-name="Eogonek" unicode="&#x118;" horiz-adv-x="511" 
d="M279 -136q4 -7 -0.5 -19t-14.5 -21q-18 -17 -45 -29.5t-46 -12.5q-47 0 -65 21t-18 60q0 46 76 113q19 17 -8 21q-121 24 -118 142q2 73 45.5 122.5t113.5 68.5q8 1 13.5 5.5t5.5 7.5q0 10 -16 14q-38 7 -57 33t-16 66q5 71 84.5 114.5t173.5 43.5q24 0 46 -2.5t47 -9.5
t39.5 -22t12.5 -37q-2 -27 -26 -54t-62 -39q-29 -11 -42 -4q-5 3 -6.5 10.5t3.5 15.5q12 19 13 46q0 39 -48 39q-38 0 -66 -23t-32 -69q-4 -44 16 -68t50 -26q28 -3 38 -1q13 1 17.5 -9.5t-4.5 -29.5q-14 -27 -37 -30q-71 -4 -114.5 -39.5t-43.5 -99.5q0 -37 20.5 -61
t54.5 -24q73 0 142 69q6 6 19 9.5t26 -1.5q20 -12 5 -33q-53 -81 -162 -117q-33 -10 -36 -16q-52 -52 -52 -91q0 -27 18 -27q12 0 30 5q16 3 26 -11z" />
    <glyph glyph-name="eogonek" unicode="&#x119;" horiz-adv-x="384" 
d="M233 428q28 12 62 12.5t59 -15.5t21 -49q-8 -67 -83 -118q-62 -42 -109 -60q-13 -5 -17 -9.5t-5 -19.5q-2 -35 10.5 -55t27.5 -20q38 0 78 38q9 8 22.5 8.5t17.5 -5.5q17 -17 -4 -41q-41 -46 -118 -85q-26 -13 -48 -51t-22 -61q0 -27 19 -27q14 0 29 5q17 3 26 -11
q4 -7 0 -19t-14 -21q-18 -17 -45 -29.5t-47 -12.5q-84 0 -84 81q0 48 74 114q13 13 -7 26q-48 32 -46 123q3 85 60 175t143 127zM233 360q-7 0 -17.5 -9t-23.5 -31t-20 -52q-3 -12 3 -14.5t13 1.5q33 14 51 34.5t20 39.5q4 31 -26 31z" />
    <glyph glyph-name="Ecaron" unicode="&#x11a;" horiz-adv-x="511" 
d="M224 -8q-95 0 -140.5 36.5t-43.5 110.5q1 73 45 122.5t114 68.5q18 4 18 13q0 10 -16 14q-37 7 -56 32.5t-17 66.5q5 71 84.5 114.5t173.5 43.5q24 0 46 -2.5t47 -9.5t39.5 -22t12.5 -37q-2 -27 -26 -54t-61 -39q-31 -11 -43 -4q-4 3 -6 10.5t3 15.5q12 19 13 46
q2 39 -47 39q-38 0 -66.5 -23t-32.5 -69q-4 -44 16 -68t50 -26q27 -3 38 -1q13 1 17.5 -9.5t-4.5 -29.5q-14 -28 -37 -30q-71 -4 -114.5 -39.5t-43.5 -99.5q0 -37 20.5 -61t54.5 -24q73 0 142 69q6 6 19 9.5t26 -1.5q20 -12 5 -33q-35 -55 -104 -92t-126 -37zM377 664
q-28 -4 -32 22q-4 21 -18.5 49t-16.5 38q-10 19 16 30q18 7 35 -12l27 -21q18 -12 45 -2q45 16 60 27q27 18 42 3q19 -16 -16 -43q-11 -6 -40.5 -28.5t-39.5 -32.5q-22 -22 -62 -30z" />
    <glyph glyph-name="ecaron" unicode="&#x11b;" horiz-adv-x="384" 
d="M273 514q-27 -8 -32 24q-4 22 -17 57.5t-14 40.5q-10 21 16 32q16 6 36 -14q10 -9 27 -21q19 -13 44 -3q48 22 61 30q27 17 42 2q18 -18 -16 -44q-12 -8 -46 -34t-43 -35q-24 -23 -58 -35zM159 169q-1 -35 11.5 -55t26.5 -20q38 0 78 38q9 8 22.5 8.5t18.5 -5.5
q16 -17 -5 -41q-28 -32 -87 -69t-99 -37q-48 0 -73 36.5t-23 101.5q2 85 59 175t143 127q28 12 62 12.5t59 -15.5t21 -49q-8 -67 -83 -118q-62 -42 -109 -60q-13 -5 -17 -9.5t-5 -19.5zM231 360q-7 0 -17.5 -9t-23.5 -31t-20 -52q-3 -12 3.5 -14.5t12.5 1.5q33 14 51 34.5
t21 39.5q2 31 -27 31z" />
    <glyph glyph-name="Gcircumflex" unicode="&#x11c;" horiz-adv-x="626" 
d="M387 537q-18 0 -38.5 -5.5t-48 -25t-49 -49.5t-36.5 -85t-15 -126q0 -89 37.5 -136.5t82.5 -48.5q39 0 64 36t27 81q1 46 -16.5 61t-68.5 19q-10 0 -23 9t-13 21q0 8 10.5 14.5t26.5 5.5q48 -3 141 -2t116 4q15 1 22.5 -7.5t7.5 -15.5q-1 -9 -9.5 -17.5t-16.5 -8.5
q-12 0 -19.5 -2t-11.5 -3.5t-5 -6t-1 -5.5t2 -8l2 -7q4 -19 -1 -44q-19 -96 -96.5 -146.5t-183.5 -50.5q-58 0 -104 24.5t-70.5 62t-36.5 76.5t-12 75q4 166 117.5 277.5t256.5 111.5q89 0 131.5 -25.5t37.5 -60.5q-4 -35 -29 -66.5t-66 -48.5q-28 -11 -44 -4
q-5 2 -6.5 12.5t3.5 19.5q15 27 -4.5 61t-60.5 34zM456 795q28 4 32 -22q4 -22 19 -52t17 -38q10 -22 -16 -33q-14 -5 -36 14q-11 9 -27 21q-17 14 -44 3q-31 -11 -61 -30q-27 -17 -42 -2q-18 18 16 44q36 23 80 64q23 23 62 31z" />
    <glyph glyph-name="gcircumflex" unicode="&#x11d;" horiz-adv-x="493" 
d="M387 669q27 8 32 -23q3 -17 8 -35t11.5 -37.5l8.5 -25.5q10 -22 -16 -33q-19 -7 -35 14q-6 7 -14.5 12.5t-12.5 9.5q-14 13 -45 2q-35 -13 -61 -29q-26 -19 -42 -3q-18 18 16 45q12 6 47.5 32.5t44.5 36.5q25 25 58 34zM317 437q32 -5 62 -19q12 -5 37 10q34 21 46 32
q30 22 45 15q18 -10 9 -27q-50 -77 -60 -102q-45 -118 -54 -179q-8 -58 10 -157q12 -62 -16.5 -118t-81 -92.5t-116.5 -58t-125 -21.5q-89 0 -133.5 29t-44.5 67q0 44 35 79.5t85 54.5q32 12 47 0q6 -5 8 -14.5t-4 -17.5q-24 -31 -24 -73q0 -49 72 -49q64 0 101 31
q42 35 52 76.5t-2 94.5q-8 58 3 106q5 20 0 22q-11 5 -24 -9q-20 -24 -58.5 -60.5t-60.5 -50.5q-37 -26 -71.5 -8.5t-34.5 66.5q0 98 58 206q27 51 72 92t92 65q33 16 76 10zM202 145q43 39 72 86q22 32 37 87q8 31 -6 41q-18 12 -32 13q-32 1 -58 -40q-48 -76 -53 -162
q-2 -25 10 -33.5t30 8.5z" />
    <glyph glyph-name="Gbreve" unicode="&#x11e;" horiz-adv-x="626" 
d="M387 537q-18 0 -39 -5.5t-48.5 -25t-48.5 -49.5t-36 -85t-15 -126q0 -89 37.5 -136.5t82.5 -48.5q39 0 64 36t27 81q1 45 -17 60.5t-68 19.5q-10 0 -23.5 9t-12.5 21q0 8 10.5 14.5t25.5 5.5q49 -3 142 -2t116 4q15 1 22 -7t7 -16q0 -9 -8.5 -17.5t-17.5 -8.5
q-11 0 -18.5 -2t-11.5 -3.5t-5 -6t-1 -5.5t2 -8l2 -7q4 -19 -1 -44q-19 -96 -96.5 -146.5t-183.5 -50.5q-59 0 -104.5 24.5t-70.5 62t-37 76.5t-11 75q2 110 57.5 201t140 139.5t176.5 48.5q88 0 131 -25.5t38 -60.5q-4 -35 -29 -66.5t-66 -48.5q-29 -11 -44 -4
q-5 2 -6.5 12.5t3.5 19.5q15 28 -5 61.5t-60 33.5zM539 795q8 -2 11.5 -9.5t-0.5 -18.5q-16 -50 -56 -78t-83 -28q-48 0 -68.5 30t-16.5 69q4 32 28 35q15 2 25 -16q16 -26 53 -26q11 0 19 1t13.5 2t11.5 4.5t8.5 5t9.5 7t9 7.5q21 16 36 15z" />
    <glyph glyph-name="gbreve" unicode="&#x11f;" horiz-adv-x="493" 
d="M453 632q19 -4 11 -28q-17 -50 -56.5 -78.5t-80.5 -28.5q-48 0 -67 30.5t-15 70.5q4 31 27 35q8 1 14.5 -4.5t8.5 -12.5q10 -29 52 -29q10 0 19 1.5t14.5 2.5t13 5.5t9.5 6t10 8t9 7.5q18 16 31 14zM317 437q32 -5 62 -19q12 -5 37 10q34 21 46 32q30 22 45 15
q18 -10 9 -27q-50 -77 -60 -102q-45 -118 -54 -179q-8 -58 10 -157q12 -62 -16.5 -118t-81 -92.5t-116.5 -58t-125 -21.5q-89 0 -133.5 29t-44.5 67q0 44 35 79.5t85 54.5q32 12 47 0q6 -5 8 -14.5t-4 -17.5q-24 -31 -24 -73q0 -49 72 -49q64 0 101 31q42 35 52 76.5
t-2 94.5q-8 58 3 106q5 20 0 22q-11 5 -24 -9q-20 -24 -58.5 -60.5t-60.5 -50.5q-37 -26 -71.5 -8.5t-34.5 66.5q0 98 58 206q27 51 72 92t92 65q33 16 76 10zM202 145q43 39 72 86q22 32 37 87q8 31 -6 41q-18 12 -32 13q-32 1 -58 -40q-48 -76 -53 -162q-2 -25 10 -33.5
t30 8.5z" />
    <glyph glyph-name="Gdotaccent" unicode="&#x120;" horiz-adv-x="626" 
d="M387 537q-18 0 -38.5 -5.5t-48 -25t-49 -49.5t-36.5 -85t-15 -126q0 -89 37.5 -136.5t82.5 -48.5q39 0 64 36t27 81q1 46 -16.5 61t-68.5 19q-10 0 -23 9t-13 21q0 8 10.5 14.5t26.5 5.5q48 -3 141 -2t116 4q15 1 22.5 -7.5t7.5 -15.5q-1 -9 -9.5 -17.5t-16.5 -8.5
q-12 0 -19.5 -2t-11.5 -3.5t-5 -6t-1 -5.5t2 -8l2 -7q4 -19 -1 -44q-19 -96 -96.5 -146.5t-183.5 -50.5q-58 0 -104 24.5t-70.5 62t-36.5 76.5t-12 75q4 166 117.5 277.5t256.5 111.5q89 0 131.5 -25.5t37.5 -60.5q-4 -35 -29 -66.5t-66 -48.5q-28 -11 -44 -4
q-5 2 -6.5 12.5t3.5 19.5q15 27 -4.5 61t-60.5 34zM493 742q-2 -29 -33 -51.5t-66 -22.5q-20 0 -32.5 12.5t-10.5 31.5q3 37 29 60t63 23q23 0 37.5 -14.5t12.5 -38.5z" />
    <glyph glyph-name="gdotaccent" unicode="&#x121;" horiz-adv-x="493" 
d="M427 581q-3 -30 -34 -52t-66 -22q-20 0 -32 12.5t-10 31.5q3 36 28.5 59.5t62.5 23.5q24 0 38 -14.5t13 -38.5zM317 437q32 -5 62 -19q12 -5 37 10q34 21 46 32q30 22 45 15q18 -10 9 -27q-50 -77 -60 -102q-45 -118 -54 -179q-8 -58 10 -157q12 -62 -16.5 -118
t-81 -92.5t-116.5 -58t-125 -21.5q-89 0 -133.5 29t-44.5 67q0 44 35 79.5t85 54.5q32 12 47 0q6 -5 8 -14.5t-4 -17.5q-24 -31 -24 -73q0 -49 72 -49q64 0 101 31q42 35 52 76.5t-2 94.5q-8 58 3 106q5 20 0 22q-11 5 -24 -9q-20 -24 -58.5 -60.5t-60.5 -50.5
q-37 -26 -71.5 -8.5t-34.5 66.5q0 98 58 206q27 51 72 92t92 65q33 16 76 10zM202 145q43 39 72 86q22 32 37 87q8 31 -6 41q-18 12 -32 13q-32 1 -58 -40q-48 -76 -53 -162q-2 -25 10 -33.5t30 8.5z" />
    <glyph glyph-name="Gcommaaccent" unicode="&#x122;" horiz-adv-x="626" 
d="M387 537q-18 0 -38.5 -5.5t-48 -25t-49 -49.5t-36.5 -85t-15 -126q0 -89 37.5 -136.5t82.5 -48.5q39 0 64 36t27 81q1 46 -16.5 61t-68.5 19q-10 0 -23 9t-13 21q0 8 10.5 14.5t26.5 5.5q48 -3 141 -2t116 4q15 1 22.5 -7.5t7.5 -15.5q-1 -9 -9.5 -17.5t-16.5 -8.5
q-12 0 -19.5 -2t-11.5 -3.5t-5 -6t-1 -5.5t2 -8l2 -7q4 -19 -1 -44q-19 -96 -96.5 -146.5t-183.5 -50.5q-58 0 -104 24.5t-70.5 62t-36.5 76.5t-12 75q4 166 117.5 277.5t256.5 111.5q89 0 131.5 -25.5t37.5 -60.5q-4 -35 -29 -66.5t-66 -48.5q-28 -11 -44 -4
q-5 2 -6.5 12.5t3.5 19.5q15 27 -4.5 61t-60.5 34zM184 -282q-3 2 -4.5 7t0.5 13.5t9 17.5q43 47 37 81q-2 18 -32 12q-18 -3 -23 5q-9 13 14 47q18 24 47 40.5t53 16.5q56 0 57 -61q0 -78 -98 -161q-21 -18 -39 -22t-21 4z" />
    <glyph glyph-name="gcommaaccent" unicode="&#x123;" horiz-adv-x="493" 
d="M448 733q3 -1 4.5 -6t-0.5 -14t-11 -18q-49 -49 -45 -81q3 -19 32 -12q19 3 24 -4q9 -14 -14 -47q-18 -25 -47 -41.5t-53 -16.5q-56 0 -57 61q0 75 108 161q43 36 59 18zM317 437q32 -5 62 -19q12 -5 37 10q34 21 46 32q30 22 45 15q18 -10 9 -27q-50 -77 -60 -102
q-45 -118 -54 -179q-8 -58 10 -157q12 -62 -16.5 -118t-81 -92.5t-116.5 -58t-125 -21.5q-89 0 -133.5 29t-44.5 67q0 44 35 79.5t85 54.5q32 12 47 0q6 -5 8 -14.5t-4 -17.5q-24 -31 -24 -73q0 -49 72 -49q64 0 101 31q42 35 52 76.5t-2 94.5q-8 58 3 106q5 20 0 22
q-11 5 -24 -9q-20 -24 -58.5 -60.5t-60.5 -50.5q-37 -26 -71.5 -8.5t-34.5 66.5q0 98 58 206q27 51 72 92t92 65q33 16 76 10zM202 145q43 39 72 86q22 32 37 87q8 31 -6 41q-18 12 -32 13q-32 1 -58 -40q-48 -76 -53 -162q-2 -25 10 -33.5t30 8.5z" />
    <glyph glyph-name="Hcircumflex" unicode="&#x124;" horiz-adv-x="810" 
d="M624 487q5 58 -59 70q-8 2 -10 13t1 15q1 9 12 17t32 6q22 -3 118 -3t137 3q15 1 20.5 -6.5t3.5 -19.5q-9 -23 -29 -26q-33 -7 -50 -23t-29 -50q-6 -17 -43 -167.5t-42 -190.5q-6 -50 29 -64q33 -15 31 -37q-2 -9 -14 -17.5t-27 -6.5q-59 7 -272 -2q-7 -1 -12 5.5
t-4 15.5q0 12 17 23.5t30 13.5q43 6 69 68q6 15 41 153q5 20 1.5 25.5t-20.5 5.5h-223q-14 0 -22 -5.5t-13 -25.5q-27 -111 -32 -152q-6 -50 29 -64q33 -15 31 -37q-2 -9 -14 -17.5t-27 -6.5q-59 7 -272 -2q-7 -1 -12 5.5t-4 15.5q0 12 17 23.5t30 13.5q43 6 69 68
q10 25 47 176t44 187q8 57 -59 70q-8 2 -10 13t1 15q1 9 12 17t32 6q23 -3 118.5 -3t136.5 3q15 1 20.5 -6.5t3.5 -19.5q-7 -23 -29 -26q-33 -6 -49 -22.5t-30 -50.5q-8 -21 -23 -85q-3 -18 3 -23t22 -5h213q18 0 26.5 8t13.5 29q17 62 19 80zM572 795q28 4 32 -22
q4 -22 19 -52t17 -38q10 -22 -16 -33q-14 -5 -36 14q-10 9 -27 21q-17 14 -44 3q-31 -11 -61 -30q-27 -17 -42 -2q-18 18 16 44q11 7 41 31t39 33q23 23 62 31z" />
    <glyph glyph-name="hcircumflex" unicode="&#x125;" horiz-adv-x="569" 
d="M308 860q28 5 32 -22q4 -21 18.5 -50.5t16.5 -39.5q12 -22 -16 -33q-14 -6 -35 15q-4 4 -8.5 7.5t-10 7.5t-8.5 6q-18 12 -45 2q-9 -3 -32 -14t-28 -15q-27 -17 -42 -3q-18 18 16 45q10 6 39.5 29.5t40.5 34.5q25 25 62 30zM508 380q-4 -28 -35 -105t-40 -112
q-11 -38 9 -36q21 2 48 25q8 7 20.5 4.5t18.5 -10.5q5 -5 3 -17t-9 -20q-34 -42 -86 -81t-93 -39q-74 0 -62 78q4 34 13.5 64t23.5 65.5t21 60.5q7 23 -1.5 30.5t-34.5 -12.5q-51 -43 -84 -97.5t-65 -131.5q-9 -21 -43.5 -36.5t-63.5 -19.5q-20 -2 -28.5 7t-0.5 32
q84 238 151 532q6 17 5.5 34t-14.5 21q-1 3 -17.5 0.5t-26.5 -2.5q-13 -1 -18.5 6.5t-5.5 16.5q0 22 28 33q74 28 171 31q18 1 26.5 -9.5t7.5 -27.5q-6 -50 -20 -103q-45 -167 -80 -263q-2 -12 5.5 -14t16.5 9q41 50 104 100t112 50q21 0 34.5 -16.5t9.5 -46.5z" />
    <glyph glyph-name="Hbar" unicode="&#x126;" horiz-adv-x="810" 
d="M174 430h-44q-18 0 -24 5t1 23q9 17 18.5 22.5t24.5 5.5h39q18 0 15 20q-5 39 -60 51q-8 2 -10 13t1 15q1 9 12 17t32 6q23 -3 118.5 -3t136.5 3q15 1 20.5 -6.5t3.5 -19.5q-7 -23 -29 -26q-47 -9 -69 -49q-8 -15 -6.5 -17.5t18.5 -2.5q158 0 232 1q11 0 13.5 0.5t6 4.5
t-0.5 13q-6 40 -58 51q-8 2 -10 13t1 15q1 9 12 17t32 6q22 -3 118 -3t137 3q15 1 20.5 -6.5t3.5 -19.5q-9 -23 -29 -26q-48 -9 -68 -48q-5 -10 -0.5 -13t17.5 -2q1 0 5 0.5t5 0.5q36 4 40 1q5 -3 5 -11t-9 -23t-21 -22q-12 -6 -39 -6q-13 0 -17.5 -1t-9 -6.5t-8.5 -18.5
q-56 -215 -64 -282q-6 -50 29 -64q33 -15 31 -37q-2 -9 -14 -17.5t-27 -6.5q-59 7 -272 -2q-7 -1 -12 5.5t-4 15.5q0 12 17 23.5t30 13.5q43 6 69 68q6 15 41 153q5 20 1.5 25.5t-20.5 5.5h-223q-14 0 -22 -5.5t-13 -25.5q-27 -111 -32 -152q-6 -50 29 -64q33 -15 31 -37
q-2 -9 -14 -17.5t-27 -6.5q-59 7 -272 -2q-7 -1 -12 5.5t-4 15.5q0 12 17 23.5t30 13.5q43 6 69 68q16 40 73 284q5 22 -11 22zM327 398q-3 -18 3 -23t22 -5h213q18 0 26.5 8t13.5 29q8 24 -15 24q-157 0 -234 -1q-19 0 -22 -4.5t-7 -27.5z" />
    <glyph glyph-name="hbar" unicode="&#x127;" horiz-adv-x="569" 
d="M121 670q74 28 171 31q18 1 26.5 -9.5t7.5 -27.5q-6 -51 -15 -87q-2 -13 1 -17t15 -3q50 4 73 7q5 0 11 1t10 1.5t8.5 0.5t7 -0.5t4.5 -2t3 -4t1 -6.5q0 -8 -9 -26.5t-21 -24.5q-12 -7 -39 -7h-27.5t-35.5 -1q-17 0 -21.5 -3t-9.5 -19q-39 -129 -56 -175q-2 -12 5.5 -14
t16.5 9q41 50 104 100t112 50q21 0 34.5 -16.5t9.5 -46.5q-4 -28 -35 -105t-40 -112q-11 -38 9 -36q21 2 48 25q8 7 20.5 4.5t18.5 -10.5q5 -5 3 -17t-9 -20q-34 -42 -86 -81t-93 -39q-74 0 -62 78q4 34 13.5 64t23.5 65.5t21 60.5q7 23 -1.5 30.5t-34.5 -12.5
q-51 -43 -84 -97.5t-65 -131.5q-9 -21 -43.5 -36.5t-63.5 -19.5q-20 -2 -28.5 7t-0.5 32q77 217 129 440q6 24 -14 24h-42q-19 0 -25 5t1 23q9 17 18 22.5t25 5.5h38q19 0 21 12q6 17 5.5 34t-14.5 21q-1 3 -17.5 0.5t-26.5 -2.5q-13 -1 -18.5 6.5t-5.5 16.5q0 22 28 33z
" />
    <glyph glyph-name="Itilde" unicode="&#x128;" horiz-adv-x="388" 
d="M434 606q15 1 20 -6.5t3 -19.5q-8 -23 -29 -26q-33 -7 -50 -23t-29 -50q-8 -25 -43.5 -171t-40.5 -185q-6 -50 29 -64q33 -15 31 -37q-2 -9 -14 -17.5t-27 -6.5q-59 7 -272 -2q-7 -1 -12 5.5t-4 15.5q0 12 17 23.5t30 13.5q43 6 69 68q10 26 48.5 179t41.5 183
q2 20 -3.5 34t-18.5 21t-19.5 9.5t-17.5 5.5q-8 1 -10 12t1 15q6 27 44 23q22 -2 118 -2t138 2zM247 674q-26 -19 -37 -23.5t-22 2.5q-23 20 20 54q23 19 35.5 29t31 21.5t31 15t27.5 2.5t28 -9q1 -1 7.5 -5t8 -4.5t7 -3.5t8 -3t7.5 -1.5t8.5 0t8.5 2.5t9.5 4l10.5 7
q33 24 45 17q22 -17 -30 -69q-89 -85 -136 -42q-34 32 -68 6z" />
    <glyph glyph-name="itilde" unicode="&#x129;" horiz-adv-x="343" 
d="M189 543q-25 -19 -36 -23.5t-23 2.5q-21 19 21 54q22 18 35 28.5t31 21.5t31 15t28 3t28 -9q2 -1 10 -6t10 -6t8.5 -4t10.5 -2.5t10 1t12.5 4t13.5 8.5q34 25 44 17q25 -16 -29 -68q-89 -87 -136 -42q-34 33 -69 6zM306 146q5 -5 3 -17t-9 -20q-34 -42 -86 -81t-93 -39
q-70 0 -60 78q7 47 29.5 112t30.5 93q9 34 -11 34t-41 -16q-17 -12 -38 0q-5 4 -4.5 17t7.5 20q41 41 91 71t84 41q33 10 57 -6.5t14 -57.5q-8 -34 -36.5 -104t-35.5 -108q-8 -41 11 -39q21 2 48 24q8 7 20.5 6.5t18.5 -8.5z" />
    <glyph glyph-name="Imacron" unicode="&#x12a;" horiz-adv-x="388" 
d="M434 606q15 1 20 -6.5t3 -19.5q-8 -23 -29 -26q-33 -7 -50 -23t-29 -50q-8 -25 -43.5 -171t-40.5 -185q-6 -50 29 -64q33 -15 31 -37q-2 -9 -14 -17.5t-27 -6.5q-59 7 -272 -2q-7 -1 -12 5.5t-4 15.5q0 12 17 23.5t30 13.5q43 6 69 68q10 26 48.5 179t41.5 183
q2 20 -3.5 34t-18.5 21t-19.5 9.5t-17.5 5.5q-8 1 -10 12t1 15q6 27 44 23q22 -2 118 -2t138 2zM206 669q-19 0 -24.5 5t1.5 23q9 17 18 23t25 6q137 2 199 8q4 0 9 1t8 1.5t7 0.5h6.5h5t4.5 -1t3.5 -2.5t2 -4t0.5 -5.5q0 -8 -9.5 -25.5t-21.5 -23.5q-12 -7 -38 -7
q-25 0 -99 0.5t-97 0.5z" />
    <glyph glyph-name="imacron" unicode="&#x12b;" horiz-adv-x="343" 
d="M135 509q-19 0 -25 5t1 23q9 17 18 23t25 6q121 2 184 8q4 0 9 1t8 1.5t7 0.5h6.5h5.5t4.5 -1t3 -2.5t2 -4t0.5 -5.5q0 -8 -9.5 -25.5t-20.5 -23.5q-12 -7 -39 -7q-25 0 -91 0.5t-89 0.5zM306 146q5 -5 3 -17t-9 -20q-34 -42 -86 -81t-93 -39q-70 0 -60 78q7 47 29.5 112
t30.5 93q9 34 -11 34t-41 -16q-17 -12 -38 0q-5 4 -4.5 17t7.5 20q41 41 91 71t84 41q33 10 57 -6.5t14 -57.5q-8 -34 -36.5 -104t-35.5 -108q-8 -41 11 -39q21 2 48 24q8 7 20.5 6.5t18.5 -8.5z" />
    <glyph glyph-name="Ibreve" unicode="&#x12c;" horiz-adv-x="388" 
d="M434 606q15 1 20 -6.5t3 -19.5q-8 -23 -29 -26q-33 -7 -50 -23t-29 -50q-8 -25 -43.5 -171t-40.5 -185q-6 -50 29 -64q33 -15 31 -37q-2 -9 -14 -17.5t-27 -6.5q-59 7 -272 -2q-7 -1 -12 5.5t-4 15.5q0 12 17 23.5t30 13.5q43 6 69 68q10 26 48.5 179t41.5 183
q2 20 -3.5 34t-18.5 21t-19.5 9.5t-17.5 5.5q-8 1 -10 12t1 15q6 27 44 23q22 -2 118 -2t138 2zM434 792q8 -2 12 -9.5t0 -18.5q-16 -50 -56.5 -78t-82.5 -28q-48 0 -68.5 30.5t-16.5 69.5q4 31 28 35q13 2 24 -16q17 -26 53 -26q11 0 19.5 1t13.5 2t12 5t8.5 4.5t9.5 7
t9 7.5q21 16 35 14z" />
    <glyph glyph-name="ibreve" unicode="&#x12d;" horiz-adv-x="343" 
d="M361 632q19 -4 11 -28q-17 -50 -56.5 -78.5t-80.5 -28.5q-48 0 -67 30.5t-15 70.5q4 31 27 35q17 3 24 -17q9 -29 51 -29q10 0 19 1.5t14.5 2.5t13 5.5t9.5 6t10 8t9 7.5q21 16 31 14zM306 146q5 -5 3 -17t-9 -20q-34 -42 -86 -81t-93 -39q-70 0 -60 78q7 47 29.5 112
t30.5 93q9 34 -11 34t-41 -16q-17 -12 -38 0q-5 4 -4.5 17t7.5 20q41 41 91 71t84 41q33 10 57 -6.5t14 -57.5q-8 -34 -36.5 -104t-35.5 -108q-8 -41 11 -39q21 2 48 24q8 7 20.5 6.5t18.5 -8.5z" />
    <glyph glyph-name="Iogonek" unicode="&#x12e;" horiz-adv-x="388" 
d="M206 -136q4 -7 0 -19t-14 -21q-18 -17 -45 -29.5t-47 -12.5q-46 0 -64 21t-18 60q0 51 86 122q11 7 9.5 12t-20.5 5q-80 -4 -81 -4q-7 -1 -12 5.5t-4 15.5q0 12 17 23.5t30 13.5q43 6 69 68q10 26 48.5 179t41.5 183q2 20 -3.5 34t-18.5 21t-19.5 9.5t-17.5 5.5
q-8 1 -10 12t1 15q6 27 44 23q22 -2 118 -2t138 2q15 1 20 -6.5t3 -19.5q-8 -23 -29 -26q-33 -7 -50 -23t-29 -50q-8 -25 -43.5 -171t-40.5 -185q-6 -50 29 -64q33 -15 31 -37q-2 -9 -14 -17.5t-27 -6.5q-21 3 -55 3q-4 0 -11 0.5t-10 0t-7.5 -1.5t-7.5 -3.5t-7 -7.5
q-53 -53 -53 -94q0 -27 18 -27q11 0 29 5q17 3 26 -11z" />
    <glyph glyph-name="iogonek" unicode="&#x12f;" horiz-adv-x="343" 
d="M35 327q42 41 91.5 71t83.5 41q33 10 57.5 -6.5t14.5 -57.5q-8 -33 -36.5 -103t-35.5 -109q-8 -41 11 -39q21 2 48 24q7 7 20 6.5t19 -8.5q5 -5 2.5 -17t-9.5 -20q-48 -62 -116 -102q-28 -19 -50 -53t-22 -57q0 -27 17 -27q12 0 30 5q17 3 26 -11q10 -16 -14 -40
q-19 -18 -45.5 -30t-46.5 -12q-47 0 -65 21t-18 60q0 48 74 112q17 17 4 30q-18 18 -12 62q5 36 14 66.5t23 68.5t23 70q9 34 -11 34t-41 -16q-18 -12 -38 0q-6 4 -5 17t7 20zM375 581q-3 -30 -35.5 -52t-67.5 -22q-20 0 -30.5 12t-9.5 31q4 36 29.5 60t62.5 24
q23 0 37.5 -14.5t13.5 -38.5z" />
    <glyph glyph-name="Idotaccent" unicode="&#x130;" horiz-adv-x="388" 
d="M434 606q15 1 20 -6.5t3 -19.5q-8 -23 -29 -26q-33 -7 -50 -23t-29 -50q-8 -25 -43.5 -171t-40.5 -185q-6 -50 29 -64q33 -15 31 -37q-2 -9 -14 -17.5t-27 -6.5q-59 7 -272 -2q-7 -1 -12 5.5t-4 15.5q0 12 17 23.5t30 13.5q43 6 69 68q10 26 48.5 179t41.5 183
q2 20 -3.5 34t-18.5 21t-19.5 9.5t-17.5 5.5q-8 1 -10 12t1 15q6 27 44 23q22 -2 118 -2t138 2zM407 742q-2 -29 -33 -51.5t-66 -22.5q-20 0 -32 12.5t-11 31.5q3 37 29 60t63 23q23 0 37.5 -14.5t12.5 -38.5z" />
    <glyph glyph-name="dotlessi" unicode="&#x131;" horiz-adv-x="343" 
d="M306 146q5 -5 3 -17t-9 -20q-34 -42 -86 -81t-93 -39q-70 0 -60 78q7 47 29.5 112t30.5 93q9 34 -11 34t-41 -16q-17 -12 -38 0q-5 4 -4.5 17t7.5 20q41 41 91 71t84 41q33 10 57 -6.5t14 -57.5q-8 -34 -36.5 -104t-35.5 -108q-8 -41 11 -39q21 2 48 24q8 7 20.5 6.5
t18.5 -8.5z" />
    <glyph glyph-name="IJ" unicode="&#x132;" horiz-adv-x="747" 
d="M434 606q15 1 20 -6.5t3 -19.5q-8 -23 -29 -26q-33 -7 -50 -23t-29 -50q-8 -25 -43.5 -171t-40.5 -185q-6 -50 29 -64q33 -15 31 -37q-2 -9 -14 -17.5t-27 -6.5q-59 7 -272 -2q-7 -1 -12 5.5t-4 15.5q0 12 17 23.5t30 13.5q43 6 69 68q10 26 48.5 179t41.5 183
q2 20 -3.5 34t-18.5 21t-19.5 9.5t-17.5 5.5q-8 1 -10 12t1 15q6 27 44 23q22 -2 118 -2t138 2zM554 606q22 -2 117.5 -2t137.5 2q15 1 20.5 -6.5t2.5 -19.5q-8 -23 -28 -26q-33 -7 -50 -23t-29 -50q-1 -4 -11.5 -47t-26 -106.5t-28.5 -108.5q-16 -56 -55 -149
q-57 -134 -148.5 -220.5t-169.5 -86.5q-51 0 -81.5 20t-29.5 56q1 58 66 102q42 29 64 20q10 -3 13 -16t-2 -25q-14 -25 -7.5 -48t34.5 -20q29 2 55 33.5t58 127.5q24 68 53 181q52 197 68 292q3 19 -2.5 33t-18 21.5t-19.5 10t-18 5.5q-14 2 -10 27q2 9 13 17t32 6z" />
    <glyph glyph-name="ij" unicode="&#x133;" horiz-adv-x="652" 
d="M373 581q-2 -30 -35 -52t-68 -22q-20 0 -30.5 12t-8.5 31q3 36 29 60t62 24q24 0 38 -14.5t13 -38.5zM706 581q-1 -30 -34 -52t-68 -22q-20 0 -30.5 12t-8.5 31q2 36 27.5 60t62.5 24q23 0 37.5 -14.5t13.5 -38.5zM306 146q5 -5 3 -17t-9 -20q-34 -42 -86 -81t-93 -39
q-70 0 -60 78q7 47 29.5 112t30.5 93q9 34 -11 34t-41 -16q-17 -12 -38 0q-5 4 -4.5 17t7.5 20q41 41 91 71t84 41q33 10 57 -6.5t14 -57.5q-8 -34 -36.5 -104t-35.5 -108q-8 -41 11 -39q21 2 48 24q8 7 20.5 6.5t18.5 -8.5zM375 328q41 42 88.5 71.5t81.5 39.5
q32 10 56.5 -6.5t15.5 -57.5q-10 -46 -54 -180q-29 -83 -65 -179q-53 -142 -134 -218.5t-154 -76.5q-42 0 -70 20t-31 55q-4 56 63 102q42 29 64 20q10 -3 13 -16t-2 -25q-14 -26 -14 -43q0 -30 34 -28q27 3 48 34t54 130q48 136 91 302q8 36 -12 36q-17 0 -37 -14
q-19 -15 -38 -3q-6 4 -5 17.5t7 19.5z" />
    <glyph glyph-name="Jcircumflex" unicode="&#x134;" horiz-adv-x="366" 
d="M173 606q22 -2 118 -2t137 2q15 1 20.5 -6.5t3.5 -19.5q-8 -23 -29 -26q-33 -7 -50 -23t-29 -50q-1 -4 -11 -47t-25.5 -106.5t-28.5 -108.5q-20 -65 -55 -149q-57 -134 -148.5 -220.5t-169.5 -86.5q-52 0 -82 20t-29 56q0 57 65 102q21 15 39.5 19t24.5 1q10 -3 13.5 -16
t-2.5 -25q-14 -25 -7 -48t34 -20q29 2 55.5 33.5t58.5 127.5q24 68 53 181q52 197 68 292q4 25 -9.5 42t-23.5 20.5t-26 7.5q-8 1 -10 12t1 15q1 9 12 17t32 6zM355 795q28 4 32 -22q4 -22 19 -52t17 -38q10 -22 -16 -33q-14 -5 -36 14q-10 9 -27 21q-18 13 -44 3
q-31 -11 -61 -30q-27 -17 -42 -2q-18 18 16 44q36 23 80 64q23 23 62 31z" />
    <glyph glyph-name="jcircumflex" unicode="&#x135;" horiz-adv-x="328" 
d="M304 669q25 7 32 -23q3 -17 8 -35t11.5 -37.5l8.5 -25.5q10 -22 -16 -33q-18 -7 -36 14q-6 7 -15 13t-12 9q-15 13 -44 2q-35 -13 -61 -29q-27 -18 -42 -3q-18 18 16 45q11 6 46.5 32.5t45.5 36.5q25 25 58 34zM52 328q41 42 88.5 71t80.5 40q32 10 57 -6.5t16 -57.5
q-12 -53 -54 -180q-29 -83 -65 -179q-53 -142 -134 -218.5t-154 -76.5q-42 0 -70 20t-31 55q-4 57 62 102q21 15 39.5 19t24.5 1q10 -3 13.5 -16t-2.5 -25q-13 -28 -13 -43q0 -30 34 -28q27 3 47.5 34t53.5 130q50 138 91 302q8 36 -11 36q-17 0 -37 -14q-19 -15 -38 -3
q-6 4 -5 17.5t7 19.5z" />
    <glyph glyph-name="Kcommaaccent" unicode="&#x136;" horiz-adv-x="778" 
d="M178 608q23 -3 119 -3t137 3q15 1 20.5 -6.5t3.5 -19.5q-3 -9 -11 -17.5t-18 -9.5q-33 -7 -50 -23t-29 -50q-28 -85 -39 -149q-2 -7 5.5 -10.5t14.5 3.5q104 98 210 192q114 96 176 96q35 0 52 -13t17 -43q0 -17 -11 -51.5t-24 -53.5q-29 -41 -54 -37q-15 2 -20 23
q-9 32 -33 32q-46 0 -87 -26q-45 -30 -101 -85q-12 -12 -3 -33q34 -84 104 -179q45 -60 103 -60q24 0 60 11q7 3 17 0t14 -13q2 -7 -3 -19t-16 -18q-87 -57 -161 -57q-54 0 -82 16.5t-49 46.5q-32 45 -50 78.5t-53 109.5q-13 26 -27 15q-18 -12 -21 -28q-15 -48 -23 -105
q-6 -50 29 -64q33 -15 31 -37q-2 -9 -14 -17.5t-27 -6.5q-59 7 -273 -2q-7 -1 -12 5.5t-4 15.5q0 12 17 23.5t30 13.5q43 6 69 68q10 27 49 180t42 183q6 58 -52 69q-11 3 -15.5 11.5t-1.5 17.5q7 27 44 23zM266 -282q-3 2 -4.5 7t0 13.5t9.5 17.5q42 46 37 81q-2 18 -32 12
q-18 -3 -23 5q-9 13 14 47q17 24 46.5 40.5t53.5 16.5q56 0 56 -61q0 -78 -97 -161q-21 -18 -39 -22t-21 4z" />
    <glyph glyph-name="kcommaaccent" unicode="&#x137;" horiz-adv-x="561" 
d="M110 -282q-3 2 -4.5 7t0 13.5t9.5 17.5q43 47 37 81q-2 18 -32 12q-18 -3 -23 5q-9 13 14 47q18 24 47 40.5t53 16.5q56 0 57 -61q0 -77 -98 -161q-21 -18 -39 -22t-21 4zM121 670q74 28 171 31q18 1 26.5 -9.5t7.5 -27.5q-6 -50 -20 -103q-48 -180 -76 -258q-2 -7 1 -11
t9 -2.5t12 8.5q36 46 100 92.5t110 46.5q43 0 60.5 -21t17.5 -43q0 -44 -38 -84t-90 -70q-25 -14 -23 -34q2 -33 23 -53q22 -19 39 -14q19 5 36 18q14 8 24 6.5t14 -6.5q4 -4 2.5 -19t-9.5 -22q-58 -61 -135 -94q-59 -28 -80 6q-37 57 -33 155q2 27 21 38q51 27 81 53t30 58
q0 18 -25 18q-27 0 -53 -22.5t-67 -72.5q-50 -63 -102 -188q-9 -21 -43.5 -36.5t-63.5 -19.5q-20 -2 -28.5 7t-0.5 32q84 238 151 532q6 17 5.5 34t-14.5 21q-1 3 -17.5 0.5t-26.5 -2.5q-13 -1 -18.5 6.5t-5.5 16.5q0 22 28 33z" />
    <glyph glyph-name="kgreenlandic" unicode="&#x138;" horiz-adv-x="579" 
d="M516 444q53 0 53 -51q0 -26 -16.5 -63t-40.5 -58q-7 -6 -16.5 -7t-14.5 4q-8 4 -4 23q6 13 1.5 28t-22.5 15q-36 0 -74 -38q-12 -13 -13.5 -25.5t1.5 -24.5q4 -53 46 -120q10 -15 28 -15q22 0 45 21q11 9 23.5 10.5t17.5 -4.5q6 -5 5 -18t-9 -21q-2 -2 -15 -15.5
t-17 -17.5t-15.5 -15t-19 -17.5t-19 -15t-22.5 -15.5q-22 -14 -51 -14q-26 0 -40 16q-20 19 -37.5 66t-24.5 103q0 18 -7 18q-3 0 -6 -3q-11 -9 -15 -21q-8 -16 -13.5 -35t-12.5 -45t-12 -43q-7 -21 -42 -36.5t-65 -19.5q-20 -2 -29 7t-1 32q45 125 61 243q4 32 -14 32
q-17 0 -39 -15q-21 -14 -38 1q-7 5 -5.5 17.5t8.5 19.5q41 41 91 71t84 41q32 9 54 -6.5t12 -57.5q-17 -66 -21 -78q-12 -32 -2 -35q6 -3 26 13q6 5 31.5 29t41 37.5t42 36t45.5 34.5t40.5 22t36.5 10z" />
    <glyph glyph-name="Lacute" unicode="&#x139;" horiz-adv-x="624" 
d="M179 609q23 -3 118.5 -3t136.5 3q29 0 24 -27q-3 -8 -11 -16t-18 -10q-33 -6 -49.5 -22t-29.5 -50q-5 -12 -37.5 -146.5t-48.5 -207.5q-7 -28 -3.5 -41t24.5 -19q36 -11 97 -3q59 7 106.5 41t70.5 83q11 25 34 23q10 -1 14.5 -12.5t-2.5 -33.5q-41 -129 -108 -165
q-28 -9 -58 -6q-24 2 -61 4.5t-50.5 3.5t-52 2t-66.5 0q-24 0 -104.5 -4.5t-92.5 -4.5q-7 -1 -12 5.5t-4 15.5q0 12 17 23.5t30 13.5q43 6 69 68q10 25 47 176t44 188q8 57 -59 70q-8 2 -10 13t1 15q1 9 12 17t32 6zM434 783q8 1 14.5 -5t6.5 -12q1 -6 -6.5 -14.5
t-13.5 -11.5q-85 -42 -133 -73q-25 -18 -41 -13q-6 2 -9 9.5t4 18.5q11 14 27.5 38.5t20.5 30.5q14 16 25 20q7 2 53 6.5t52 5.5z" />
    <glyph glyph-name="lacute" unicode="&#x13a;" horiz-adv-x="326" 
d="M104 -11q-70 0 -62 77q6 66 39 168q76 240 92 320q5 17 3 31t-17 18q-12 3 -39 2q-13 -1 -18.5 7t-5.5 18q0 11 8 21.5t21 11.5q31 2 84.5 15.5t85.5 15.5q13 0 23 -11.5t9 -25.5q0 -29 -20 -103q-13 -51 -62.5 -203.5t-54.5 -187.5q-6 -38 11 -36q21 1 48 25
q8 7 20.5 4.5t19.5 -10.5q4 -5 2 -17t-9 -20q-34 -42 -86 -81t-92 -39zM410 839q8 1 14 -4.5t6 -12.5q3 -13 -19 -26q-20 -10 -68 -28.5t-74 -33.5q-27 -17 -41 -13q-6 2 -9 9.5t4 18.5q9 12 25 29.5t25 29.5q13 17 25 20q6 2 28.5 4t50.5 4t33 3z" />
    <glyph glyph-name="Lcommaaccent" unicode="&#x13b;" horiz-adv-x="624" 
d="M179 609q23 -3 118.5 -3t136.5 3q29 0 24 -27q-3 -8 -11 -16t-18 -10q-33 -6 -49.5 -22t-29.5 -50q-5 -12 -37.5 -146.5t-48.5 -207.5q-7 -28 -3.5 -41t24.5 -19q36 -11 97 -3q59 7 106.5 41t70.5 83q11 25 34 23q10 -1 14.5 -12.5t-2.5 -33.5q-41 -129 -108 -165
q-28 -9 -58 -6q-24 2 -61 4.5t-50.5 3.5t-52 2t-66.5 0q-24 0 -104.5 -4.5t-92.5 -4.5q-7 -1 -12 5.5t-4 15.5q0 12 17 23.5t30 13.5q43 6 69 68q10 25 47 176t44 188q8 57 -59 70q-8 2 -10 13t1 15q1 9 12 17t32 6zM192 -282q-3 2 -4.5 7t0 13.5t9.5 17.5q42 46 37 81
q-3 19 -32 12q-18 -3 -24 5q-8 14 15 47q17 24 46.5 40.5t53.5 16.5q55 0 56 -61q0 -78 -97 -161q-21 -18 -39 -22t-21 4z" />
    <glyph glyph-name="lcommaaccent" unicode="&#x13c;" horiz-adv-x="326" 
d="M101 -11q-71 0 -61 77q6 64 38 168q78 247 95 327q9 42 -15 49q-12 4 -38 3q-13 -1 -19 7t-6 17q0 12 8 22.5t21 11.5q31 2 85 15t86 15q13 1 22.5 -10.5t9.5 -26.5q-1 -30 -21 -103q-13 -48 -62.5 -205.5t-55.5 -192.5q-6 -38 11 -36q21 2 48 25q8 7 20.5 4.5
t18.5 -10.5q5 -5 2.5 -17t-9.5 -20q-33 -41 -85 -80.5t-93 -39.5zM-4 -282q-3 2 -4.5 7t0 13.5t9.5 17.5q42 46 37 81q-3 19 -32 12q-18 -3 -24 5q-8 14 15 47q17 24 46.5 40.5t53.5 16.5q55 0 56 -61q0 -78 -97 -161q-44 -36 -60 -18z" />
    <glyph glyph-name="Lcaron" unicode="&#x13d;" horiz-adv-x="624" 
d="M179 609q23 -3 118.5 -3t136.5 3q29 0 24 -27q-3 -8 -11 -16t-18 -10q-33 -6 -49.5 -22t-29.5 -50q-5 -12 -37.5 -146.5t-48.5 -207.5q-7 -28 -3.5 -41t24.5 -19q36 -11 97 -3q59 7 106.5 41t70.5 83q11 25 34 23q10 -1 14.5 -12.5t-2.5 -33.5q-41 -129 -108 -165
q-28 -9 -58 -6q-24 2 -61 4.5t-50.5 3.5t-52 2t-66.5 0q-24 0 -104.5 -4.5t-92.5 -4.5q-7 -1 -12 5.5t-4 15.5q0 12 17 23.5t30 13.5q43 6 69 68q10 25 47 176t44 188q8 57 -59 70q-8 2 -10 13t1 15q1 9 12 17t32 6zM471 336q33 22 54.5 53t28.5 59q3 18 -3 36t-21 19
q-21 3 -22 7q-7 12 0 25q12 22 43 48t52 26q35 0 49 -31.5t3 -71.5q-37 -116 -159 -207q-11 -6 -21.5 -4.5t-15.5 9.5q-4 6 0.5 16.5t11.5 15.5z" />
    <glyph glyph-name="lcaron" unicode="&#x13e;" horiz-adv-x="326" 
d="M104 -11q-70 0 -62 77q6 66 39 168q75 238 94 327q5 17 3 31t-17 18q-12 4 -39 3q-24 -1 -24 24q0 12 7.5 22.5t20.5 11.5q31 2 85.5 15t85.5 15q13 1 23 -10.5t9 -26.5q-1 -34 -20 -103q-13 -49 -63.5 -206t-55.5 -192q-6 -38 11 -36q21 1 48 25q8 7 20.5 4.5
t19.5 -10.5q4 -5 2 -17t-9 -20q-34 -42 -86 -81t-92 -39zM384 517q30 24 37 46q9 28 -25 33q-21 3 -22 7q-8 11 0 24q14 28 47 51.5t56 23.5q35 0 48.5 -27.5t5.5 -68.5q-6 -30 -43.5 -68t-75.5 -57q-25 -13 -36 2q-12 18 8 34z" />
    <glyph glyph-name="Ldot" unicode="&#x13f;" horiz-adv-x="624" 
d="M179 609q23 -3 118.5 -3t136.5 3q29 0 24 -27q-3 -8 -11 -16t-18 -10q-33 -6 -49.5 -22t-29.5 -50q-5 -12 -37.5 -146.5t-48.5 -207.5q-7 -28 -3.5 -41t24.5 -19q36 -11 97 -3q59 7 106.5 41t70.5 83q11 25 34 23q10 -1 14.5 -12.5t-2.5 -33.5q-41 -129 -108 -165
q-28 -9 -58 -6q-24 2 -61 4.5t-50.5 3.5t-52 2t-66.5 0q-24 0 -104.5 -4.5t-92.5 -4.5q-7 -1 -12 5.5t-4 15.5q0 12 17 23.5t30 13.5q43 6 69 68q10 25 47 176t44 188q8 57 -59 70q-8 2 -10 13t1 15q1 9 12 17t32 6zM624 362q-3 -29 -34 -51.5t-66 -22.5q-20 0 -32 12.5
t-11 31.5q4 36 29.5 59.5t62.5 23.5q24 0 38 -14.5t13 -38.5z" />
    <glyph glyph-name="ldot" unicode="&#x140;" horiz-adv-x="395" 
d="M104 -11q-70 0 -62 77q6 66 39 168q75 238 94 327q5 17 3 31t-17 18q-12 4 -39 3q-24 -1 -24 24q0 12 7.5 22.5t20.5 11.5q31 2 85.5 15t85.5 15q13 1 23 -10.5t9 -26.5q-1 -34 -20 -103q-13 -49 -63.5 -206t-55.5 -192q-6 -38 11 -36q21 1 48 25q8 7 20.5 4.5
t19.5 -10.5q4 -5 2 -17t-9 -20q-34 -42 -86 -81t-92 -39zM440 341q-2 -29 -33.5 -51.5t-65.5 -22.5q-21 0 -33 12.5t-10 31.5q3 36 29 59.5t62 23.5q24 0 38 -14.5t13 -38.5z" />
    <glyph glyph-name="Lslash" unicode="&#x141;" horiz-adv-x="624" 
d="M81 201q-16 -7 -25 -3t-6 22q3 19 9.5 26.5t21.5 13.5l57 21q14 6 17 10.5t7 22.5q9 35 18.5 75.5t15.5 67t7 31.5q8 57 -59 70q-8 2 -10 13t1 15q1 9 12 17t32 6q23 -3 118.5 -3t136.5 3q29 0 24 -27q-3 -8 -11 -16t-18 -10q-33 -6 -49.5 -22t-29.5 -50q-9 -22 -29 -108
q-2 -9 2 -14t13 -2q7 3 26.5 12t29.5 14l10 5t9.5 4.5t8 3t7 2t5.5 0t4.5 -3t2.5 -6.5q2 -9 -1 -29t-12 -30q-7 -9 -35 -19q-6 -3 -29.5 -11t-39.5 -14q-17 -6 -21.5 -11.5t-7.5 -21.5q-13 -53 -29 -125q-7 -28 -3.5 -41t24.5 -19q36 -11 97 -3q59 7 106.5 41t70.5 83
q11 25 34 23q10 -1 14.5 -12.5t-2.5 -33.5q-41 -129 -108 -165q-28 -9 -58 -6q-24 2 -61 4.5t-50.5 3.5t-52 2t-66.5 0q-24 0 -104.5 -4.5t-92.5 -4.5q-7 -1 -12 5.5t-4 15.5q0 12 17 23.5t30 13.5q43 6 69 68q5 12 24 82q3 10 -2 11.5t-12 -2.5q-37 -13 -41 -14z" />
    <glyph glyph-name="lslash" unicode="&#x142;" horiz-adv-x="326" 
d="M40 270q-15 -7 -25.5 -3.5t-7.5 21.5q4 19 10.5 27.5t21.5 13.5l60 25q13 5 18.5 12.5t10.5 22.5q35 117 45 172q5 17 3 31t-17 18q-12 4 -39 3q-24 -1 -24 24q0 12 8 22.5t21 11.5q31 2 85 15t85 15q13 1 23 -10.5t9 -26.5q0 -29 -20 -103q-4 -17 -16.5 -53t-17.5 -52
q-3 -9 0 -14t18 0l32 16q40 21 49 17q4 -2 6 -8q2 -9 -5 -29.5t-17 -31.5q-9 -11 -30 -20q-3 -1 -22.5 -8.5t-35.5 -14.5q-17 -8 -23 -14t-11 -24q-39 -119 -45 -162q-8 -38 10 -36q22 2 48 25q8 7 21 4.5t19 -10.5q5 -5 2.5 -17t-9.5 -20q-32 -41 -85 -80.5t-93 -39.5
q-70 0 -62 77q6 66 39 168q1 4 5 14q16 40 4 40q-3 0 -9 -3q-25 -9 -39 -15z" />
    <glyph glyph-name="Nacute" unicode="&#x143;" horiz-adv-x="740" 
d="M99 592q12 17 39 17q82 0 139 -11q173 -41 286 -389q9 -27 19 -27q3 -1 7 6t7 16q41 174 44 270q1 27 -9 43t-24 22t-46 16q-14 4 -20 13t-3 17q0 1 1 3t1.5 3.5t1.5 4t2.5 4l4 4t5 3t6 2t8 1t10.5 -0.5q76 -9 163 -1q15 1 28 -10t0 -32l-5 -6q-5 -5 -9.5 -10.5
t-10.5 -14t-11 -20.5t-9 -26q-55 -199 -98 -436q0 -3 -1 -7t-1 -6t-1 -5.5t-1.5 -5l-1.5 -4.5t-2 -4t-2 -3t-3 -3l-4 -2t-5 -2q-42 -12 -114 -15q-32 -2 -32 25q-1 64 -31 158.5t-71.5 170.5t-74.5 91q-25 12 -32 -11q-2 -8 -13.5 -63t-21.5 -106.5t-15 -91.5
q-13 -100 53 -113q9 -1 19 -11t9 -21t-15.5 -19t-27.5 -6q-58 5 -181 -2q-13 0 -16 8.5t1 20t12 21.5q32 45 41 65q49 113 104 367q4 17 1.5 28.5t-7 19.5t-14 13t-20 8.5t-24.5 7.5q-2 0 -4 0.5t-4 1.5q-36 10 -27 34zM619 783q8 1 14 -4.5t6 -12.5q1 -6 -6 -14.5
t-13 -11.5q-84 -41 -133 -73q-25 -18 -42 -13q-6 2 -9 9.5t4 18.5q12 14 28.5 39t19.5 30q14 16 25 20q8 2 54 6.5t52 5.5z" />
    <glyph glyph-name="nacute" unicode="&#x144;" horiz-adv-x="597" 
d="M521 662q9 1 15.5 -3.5t6.5 -12.5q2 -12 -19 -26q-79 -40 -162 -101q-27 -19 -41 -14q-7 2 -10 10t4 20q46 57 68 95q9 14 26 21q3 1 112 11zM210 439q33 10 57.5 -6.5t14.5 -57.5q-6 -22 -28 -78q-5 -15 2.5 -19.5t17.5 7.5q130 157 213 154q20 0 35.5 -19t10.5 -46
q-7 -37 -35.5 -106.5t-37.5 -104.5q-11 -38 9 -36q21 2 48 25q8 7 20.5 4.5t18.5 -10.5q5 -5 3 -17t-9 -20q-33 -41 -87.5 -80.5t-95.5 -39.5q-74 0 -62 78q6 44 30 106.5t29 78.5q7 22 -4 29t-37 -13q-19 -15 -35 -34.5t-26 -31.5t-23.5 -39.5t-17 -35t-18 -42.5t-16.5 -39
q-9 -21 -43.5 -36.5t-63.5 -19.5q-20 -2 -29 7.5t0 31.5q49 127 72 243q6 34 -14 34q-17 0 -39 -16q-22 -14 -38 0q-7 5 -5.5 17.5t8.5 19.5q41 41 91 71t84 41z" />
    <glyph glyph-name="Ncommaaccent" unicode="&#x145;" horiz-adv-x="740" 
d="M99 592q12 17 39 17q82 0 139 -11q173 -41 286 -389q9 -27 19 -27q3 -1 7 6t7 16q41 174 44 270q1 27 -9 43t-24 22t-46 16q-14 4 -20 13t-3 17q0 1 1 3t1.5 3.5t1.5 4t2.5 4l4 4t5 3t6 2t8 1t10.5 -0.5q76 -9 163 -1q15 1 28 -10t0 -32l-5 -6q-5 -5 -9.5 -10.5
t-10.5 -14t-11 -20.5t-9 -26q-55 -199 -98 -436q0 -3 -1 -7t-1 -6t-1 -5.5t-1.5 -5l-1.5 -4.5t-2 -4t-2 -3t-3 -3l-4 -2t-5 -2q-42 -12 -114 -15q-32 -2 -32 25q-1 64 -31 158.5t-71.5 170.5t-74.5 91q-25 12 -32 -11q-2 -8 -13.5 -63t-21.5 -106.5t-15 -91.5
q-13 -100 53 -113q9 -1 19 -11t9 -21t-15.5 -19t-27.5 -6q-58 5 -181 -2q-13 0 -16 8.5t1 20t12 21.5q32 45 41 65q49 113 104 367q4 17 1.5 28.5t-7 19.5t-14 13t-20 8.5t-24.5 7.5q-2 0 -4 0.5t-4 1.5q-36 10 -27 34zM232 -282q-3 2 -4.5 7t0.5 13.5t9 17.5q43 47 37 81
q-2 18 -32 12q-18 -3 -23 5q-9 13 14 47q18 24 47 40.5t53 16.5q56 0 57 -61q0 -77 -98 -161q-21 -18 -39 -22t-21 4z" />
    <glyph glyph-name="ncommaaccent" unicode="&#x146;" horiz-adv-x="597" 
d="M126 -282q-3 2 -4.5 7t0 13.5t9.5 17.5q43 47 37 81q-2 18 -32 12q-18 -3 -23 5q-9 13 14 47q18 24 47 40.5t53 16.5q56 0 57 -61q0 -77 -98 -161q-21 -18 -39 -22t-21 4zM210 439q33 10 57.5 -6.5t14.5 -57.5q-6 -22 -28 -78q-5 -15 2.5 -19.5t17.5 7.5q130 157 213 154
q20 0 35.5 -19t10.5 -46q-7 -37 -35.5 -106.5t-37.5 -104.5q-11 -38 9 -36q21 2 48 25q8 7 20.5 4.5t18.5 -10.5q5 -5 3 -17t-9 -20q-33 -41 -87.5 -80.5t-95.5 -39.5q-74 0 -62 78q6 44 30 106.5t29 78.5q7 22 -4 29t-37 -13q-19 -15 -35 -34.5t-26 -31.5t-23.5 -39.5
t-17 -35t-18 -42.5t-16.5 -39q-9 -21 -43.5 -36.5t-63.5 -19.5q-20 -2 -29 7.5t0 31.5q49 127 72 243q6 34 -14 34q-17 0 -39 -16q-22 -14 -38 0q-7 5 -5.5 17.5t8.5 19.5q41 41 91 71t84 41z" />
    <glyph glyph-name="Ncaron" unicode="&#x147;" horiz-adv-x="740" 
d="M99 592q12 17 39 17q82 0 139 -11q173 -41 286 -389q9 -27 19 -27q3 -1 7 6t7 16q41 174 44 270q1 27 -9 43t-24 22t-46 16q-14 4 -20 13t-3 17q0 1 1 3t1.5 3.5t1.5 4t2.5 4l4 4t5 3t6 2t8 1t10.5 -0.5q76 -9 163 -1q15 1 28 -10t0 -32l-5 -6q-5 -5 -9.5 -10.5
t-10.5 -14t-11 -20.5t-9 -26q-55 -199 -98 -436q0 -3 -1 -7t-1 -6t-1 -5.5t-1.5 -5l-1.5 -4.5t-2 -4t-2 -3t-3 -3l-4 -2t-5 -2q-42 -12 -114 -15q-32 -2 -32 25q-1 64 -31 158.5t-71.5 170.5t-74.5 91q-25 12 -32 -11q-2 -8 -13.5 -63t-21.5 -106.5t-15 -91.5
q-13 -100 53 -113q9 -1 19 -11t9 -21t-15.5 -19t-27.5 -6q-58 5 -181 -2q-13 0 -16 8.5t1 20t12 21.5q32 45 41 65q49 113 104 367q4 17 1.5 28.5t-7 19.5t-14 13t-20 8.5t-24.5 7.5q-2 0 -4 0.5t-4 1.5q-36 10 -27 34zM471 664q-15 -2 -22 3t-10 19q-3 22 -18 50.5
t-17 36.5q-9 19 16 30q18 7 35 -12q4 -4 8.5 -7.5t10 -7.5t8.5 -6q18 -12 45 -2q43 15 61 27q26 19 42 3q17 -17 -16 -43q-12 -6 -41.5 -28.5t-38.5 -32.5q-22 -22 -63 -30z" />
    <glyph glyph-name="ncaron" unicode="&#x148;" horiz-adv-x="597" 
d="M373 514q-27 -8 -32 24q-4 22 -16 55.5t-14 42.5q-11 21 16 32q15 6 35 -14l27 -21q19 -12 45 -3l17 8.5t27.5 13.5t15.5 8q27 17 42 2q19 -17 -16 -44q-12 -8 -46 -34t-43 -35q-23 -23 -58 -35zM210 439q33 10 57.5 -6.5t14.5 -57.5q-6 -22 -28 -78q-5 -15 2.5 -19.5
t17.5 7.5q130 157 213 154q20 0 35.5 -19t10.5 -46q-7 -37 -35.5 -106.5t-37.5 -104.5q-11 -38 9 -36q21 2 48 25q8 7 20.5 4.5t18.5 -10.5q5 -5 3 -17t-9 -20q-33 -41 -87.5 -80.5t-95.5 -39.5q-74 0 -62 78q6 44 30 106.5t29 78.5q7 22 -4 29t-37 -13q-19 -15 -35 -34.5
t-26 -31.5t-23.5 -39.5t-17 -35t-18 -42.5t-16.5 -39q-9 -21 -43.5 -36.5t-63.5 -19.5q-20 -2 -29 7.5t0 31.5q49 127 72 243q6 34 -14 34q-17 0 -39 -16q-22 -14 -38 0q-7 5 -5.5 17.5t8.5 19.5q41 41 91 71t84 41z" />
    <glyph glyph-name="napostrophe" unicode="&#x149;" horiz-adv-x="757" 
d="M97 428q32 23 54 54.5t28 57.5q4 18 -2 36t-21 20q-21 2 -23 7q-6 10 0 24q12 22 43 48.5t52 26.5q35 0 49.5 -31.5t2.5 -72.5q-37 -116 -159 -207q-10 -6 -21 -4.5t-16 9.5q-4 7 1 17.5t12 14.5zM370 439q32 10 56.5 -6.5t14.5 -57.5q-6 -22 -28 -78q-5 -15 3 -19.5
t18 7.5q126 157 212 154q20 0 35.5 -19t10.5 -46q-7 -37 -35.5 -106.5t-37.5 -104.5q-11 -38 9 -36q21 2 48 25q8 7 20.5 4.5t18.5 -10.5q5 -5 3 -17t-9 -20q-33 -41 -87.5 -80.5t-95.5 -39.5q-74 0 -62 78q6 44 30 106.5t29 78.5q7 22 -3.5 29t-37.5 -13q-19 -15 -35 -34.5
t-26 -31.5t-23.5 -39.5t-17 -35t-18 -42.5t-16.5 -39q-9 -21 -43.5 -36.5t-63.5 -19.5q-20 -2 -29 7.5t0 31.5q49 127 72 243q6 34 -13 34q-18 0 -40 -16q-22 -14 -38 0q-7 5 -5.5 17.5t8.5 19.5q41 41 91 71t85 41z" />
    <glyph glyph-name="Eng" unicode="&#x14a;" horiz-adv-x="723" 
d="M305 604q15 0 23.5 -1t17.5 -11t4 -30l-8 -36q-2 -8 1 -12t7 -4t7 3q4 4 18.5 18t19.5 18.5t18.5 16t21.5 15.5t22.5 11.5t26.5 10.5t29 5.5t35 2.5q90 0 133 -58.5t27 -160.5q-39 -243 -109 -382q-66 -132 -154.5 -207t-167.5 -75q-52 0 -82 19.5t-29 56.5q1 58 65 102
q21 14 39 18t25 2q10 -3 13.5 -16t-2.5 -25q-14 -25 -9 -46.5t33 -21.5q55 0 119 160q86 218 114 413q17 122 -83 122q-123 0 -181 -191q-37 -127 -50 -202q-9 -57 59 -70q8 -2 10 -13t-1 -15q-1 -9 -12 -17t-32 -6q-23 3 -118.5 3t-136.5 -3q-15 -1 -20.5 6.5t-3.5 19.5
q7 23 29 27q33 6 49.5 22t29.5 50q24 77 49 186.5t33 177.5q6 57 -59 69q-8 2 -10 13t1 15q2 9 13 17t32 6q26 -3 144 -3z" />
    <glyph glyph-name="eng" unicode="&#x14b;" horiz-adv-x="549" 
d="M210 439q33 10 57.5 -6.5t14.5 -57.5q-6 -22 -28 -78q-5 -15 2.5 -19.5t17.5 7.5q127 155 204 155q26 0 42 -20.5t10 -51.5q-22 -133 -116 -352q-62 -143 -145 -219t-155 -76q-42 0 -70 20t-31 55q-4 56 63 102q42 29 64 20q10 -3 13 -16t-2 -25q-14 -26 -14 -43
q0 -28 34 -28q23 1 48 34.5t61 129.5q50 130 87 283q6 22 -6 28.5t-38 -13.5q-19 -15 -35 -34.5t-26 -31.5t-23.5 -39.5t-17 -35t-18 -42.5t-16.5 -39q-9 -21 -43.5 -36.5t-63.5 -19.5q-20 -2 -29 7.5t0 31.5q49 127 72 243q6 32 -14 32q-17 0 -39 -15q-21 -14 -38 1
q-7 5 -5.5 17.5t8.5 19.5q41 41 91 71t84 41z" />
    <glyph glyph-name="Omacron" unicode="&#x14c;" horiz-adv-x="692" 
d="M427 614q122 0 184 -72.5t60 -172.5q-3 -94 -48 -182t-126 -146t-175 -58q-72 0 -123.5 25t-76.5 66t-36 80.5t-11 81.5q0 90 48.5 177.5t131 144t172.5 56.5zM224 260q-9 -98 22.5 -148.5t83.5 -50.5q28 0 56.5 14.5t58 45t51 90t27.5 138.5q6 83 -23 134.5t-89 51.5
q-57 0 -116 -71.5t-71 -203.5zM333 669q-19 0 -24.5 5t1.5 23q14 29 42 29q138 2 200 8q36 4 40 1q5 -3 5 -11t-9 -25.5t-21 -23.5q-12 -7 -39 -7q-24 0 -98 0.5t-97 0.5z" />
    <glyph glyph-name="omacron" unicode="&#x14d;" horiz-adv-x="404" 
d="M157 509q-18 0 -24 5t1 23q14 29 43 29q120 2 184 8q4 0 9 1t8 1.5t7 0.5h6.5h5t4.5 -1t3.5 -2.5t2 -4t0.5 -5.5q0 -8 -9.5 -25.5t-21.5 -23.5q-12 -7 -38 -7q-25 0 -91.5 0.5t-89.5 0.5zM131 -8q-61 0 -87.5 39t-23.5 94q1 36 16.5 84t35.5 82q42 72 98.5 111.5
t99.5 39.5q48 0 75.5 -34.5t26.5 -106.5q-1 -35 -16 -80.5t-35 -79.5q-31 -53 -88 -101t-102 -48zM215 341q-19 -1 -40.5 -42t-25.5 -106q-6 -98 34 -96q48 1 64 153q4 43 -3.5 67.5t-28.5 23.5z" />
    <glyph glyph-name="Obreve" unicode="&#x14e;" horiz-adv-x="692" 
d="M427 614q122 0 184 -72.5t60 -172.5q-3 -94 -48 -182t-126 -146t-175 -58q-72 0 -123.5 25t-76.5 66t-36 80.5t-11 81.5q0 90 48.5 177.5t131 144t172.5 56.5zM224 260q-9 -98 22.5 -148.5t83.5 -50.5q28 0 56.5 14.5t58 45t51 90t27.5 138.5q6 83 -23 134.5t-89 51.5
q-57 0 -116 -71.5t-71 -203.5zM567 795q8 -2 12 -10t0 -18q-17 -50 -57 -78t-82 -28q-49 0 -69 30t-16 69q4 33 28 35q14 2 24 -16q16 -26 53 -26q11 0 19.5 1t13.5 2t12 5t8.5 4.5t9.5 7t9 7.5q19 16 35 15z" />
    <glyph glyph-name="obreve" unicode="&#x14f;" horiz-adv-x="404" 
d="M391 632q19 -3 11 -28q-16 -49 -56 -78t-81 -29q-48 0 -67 30.5t-14 70.5q2 31 26 35q17 3 24 -17q9 -29 51 -29q10 0 19 1.5t14.5 2.5t13 5.5t9.5 6t10 8t9 7.5q21 16 31 14zM131 -8q-61 0 -87.5 39t-23.5 94q1 36 16.5 84t35.5 82q42 72 98.5 111.5t99.5 39.5
q48 0 75.5 -34.5t26.5 -106.5q-1 -35 -16 -80.5t-35 -79.5q-31 -53 -88 -101t-102 -48zM215 341q-19 -1 -40.5 -42t-25.5 -106q-6 -98 34 -96q48 1 64 153q4 43 -3.5 67.5t-28.5 23.5z" />
    <glyph glyph-name="Ohungarumlaut" unicode="&#x150;" horiz-adv-x="692" 
d="M427 614q122 0 184 -72.5t60 -172.5q-3 -94 -48 -182t-126 -146t-175 -58q-72 0 -123.5 25t-76.5 66t-36 80.5t-11 81.5q0 90 48.5 177.5t131 144t172.5 56.5zM224 260q-9 -98 22.5 -148.5t83.5 -50.5q28 0 56.5 14.5t58 45t51 90t27.5 138.5q6 83 -23 134.5t-89 51.5
q-57 0 -116 -71.5t-71 -203.5zM493 780q8 1 14 -4.5t6 -12.5q3 -13 -19 -26q-73 -36 -130 -73q-28 -18 -41 -12q-6 1 -9 8.5t4 18.5q10 13 25 36t23 33q12 15 25 21q4 1 102 11zM686 783q8 1 14 -4.5t6 -12.5q1 -6 -6 -14.5t-13 -11.5q-84 -41 -133 -73q-25 -18 -42 -13
q-6 2 -8.5 9.5t3.5 18.5q10 12 48 69q14 16 26 20q7 2 53 6.5t52 5.5z" />
    <glyph glyph-name="ohungarumlaut" unicode="&#x151;" horiz-adv-x="404" 
d="M314 703q13 0 14 -13.5t-8 -27.5q-10 -16 -50.5 -69t-60.5 -90q-14 -24 -39 -26q-11 -1 -15.5 8t0.5 23q11 32 22.5 88t14.5 66q3 13 9.5 20t10 8.5t15.5 5.5q21 7 87 7zM486 703q9 0 12.5 -6.5t1.5 -15.5t-8 -18q-4 -6 -49.5 -63.5t-67.5 -96.5q-14 -24 -39 -26
q-11 -1 -15.5 7t0.5 23q11 31 23 86.5t16 68.5q3 13 9.5 20t10 8.5t15.5 5.5q21 7 91 7zM131 -8q-61 0 -87.5 39t-23.5 94q1 36 16.5 84t35.5 82q42 72 98.5 111.5t99.5 39.5q48 0 75.5 -34.5t26.5 -106.5q-1 -35 -16 -80.5t-35 -79.5q-31 -53 -88 -101t-102 -48zM215 341
q-19 -1 -40.5 -42t-25.5 -106q-6 -98 34 -96q48 1 64 153q4 43 -3.5 67.5t-28.5 23.5z" />
    <glyph glyph-name="OE" unicode="&#x152;" horiz-adv-x="1013" 
d="M713 552q-23 -5 -30 -23q-18 -57 -37 -134q-8 -27 -3.5 -39t33.5 -12q91 0 119 70q4 10 15 15t17 3q24 -5 15 -29q-18 -50 -48 -179q-2 -9 -11 -15.5t-20 -6.5q-10 0 -16.5 6t-5.5 15q7 27 -18 46t-68 19q-18 0 -24.5 -5.5t-10.5 -19.5q-7 -24 -34 -133q-7 -28 -3.5 -41
t24.5 -19q16 -5 64.5 -5t79.5 4q58 7 102.5 39.5t68.5 82.5q11 25 34 23q10 -1 14.5 -12.5t-2.5 -33.5q-45 -131 -108 -165q-29 -9 -59 -6q-60 4 -270 10q-38 1 -108 -6t-101 -7q-72 0 -123.5 23.5t-77 62t-36 77t-10.5 79.5q0 95 56 182.5t144 139.5t179 52q43 0 92 -1.5
t103 -1.5q47 0 173 4t131 4q39 0 52.5 -15.5t10.5 -37.5q-4 -27 -19 -61t-38 -52q-28 -24 -43 -19t-10 25q9 39 -10.5 67t-50.5 30q-107 8 -132 0zM224 260q-9 -96 27 -145t91 -49q18 0 28 1.5t24.5 7t24 20.5t16.5 40q11 41 30 115t36.5 144.5t19.5 76.5l4 16t-0.5 15.5
t-8.5 16.5t-24.5 10t-44.5 5t-60.5 -15.5t-68.5 -46t-61.5 -86t-32.5 -126.5z" />
    <glyph glyph-name="oe" unicode="&#x153;" horiz-adv-x="584" 
d="M355 169q-2 -35 12 -55t29 -20q18 0 42 11.5t39 26.5q10 8 22 9.5t17 -4.5q16 -18 -6 -39q-28 -30 -90 -70t-97 -40q-53 0 -77 47q-7 11 -24 -1q-50 -42 -93 -42q-55 0 -83 38.5t-26 94.5q1 36 16.5 85t35.5 83q42 72 97.5 110.5t98.5 38.5q49 0 76 -48q10 -14 29 -1
q26 20 59 35q28 12 62 13t59 -15t20 -49q-8 -63 -83 -116q-48 -35 -113 -60q-12 -5 -17 -11t-5 -21zM209 338q-18 0 -38 -40.5t-26 -104.5q-8 -91 35 -91q50 0 63 161q2 29 -5.5 52t-28.5 23zM433 359q-13 0 -32.5 -22t-31.5 -66q-3 -12 3 -14.5t13 1.5q34 15 53 35t21 38
q3 28 -26 28z" />
    <glyph glyph-name="Racute" unicode="&#x154;" horiz-adv-x="698" 
d="M174 609q60 -5 124 -5q36 0 101 2t95 2q71 1 116.5 -39.5t41.5 -103.5q-3 -39 -17.5 -68.5t-41.5 -49.5t-48 -31t-56 -24q-13 -5 -15.5 -12t1.5 -24q17 -83 60 -124t86 -33q35 6 46 -7q5 -6 4 -16.5t-9 -15.5q-76 -44 -121 -56q-73 -18 -112 23q-42 46 -68.5 116.5
t-26.5 133.5q0 21 25 28q53 10 91 44t47 91q20 111 -79 111q-31 0 -44.5 -8t-19.5 -30q-20 -67 -54 -207.5t-39 -180.5q-6 -50 29 -64q33 -15 31 -37q-2 -9 -14.5 -17.5t-27.5 -6.5q-58 7 -271 -2q-8 -1 -12.5 5.5t-3.5 15.5q0 14 15 24t32 13q43 6 69 68q10 25 46.5 176
t43.5 189q8 58 -55 70q-9 1 -12 11.5t-1 16.5q1 9 12 17t32 5zM592 783q8 1 14 -4.5t6 -12.5q1 -6 -6 -14.5t-13 -11.5q-84 -41 -133 -73q-25 -18 -42 -13q-6 2 -9 9.5t4 18.5q12 14 28.5 39t19.5 30q14 16 26 20q7 2 53 6.5t52 5.5z" />
    <glyph glyph-name="racute" unicode="&#x155;" horiz-adv-x="449" 
d="M459 662q9 1 15.5 -3.5t6.5 -12.5q1 -14 -20 -26q-80 -41 -161 -101q-27 -19 -42 -14q-6 2 -9 10t4 20q46 57 68 95q9 14 26 21q3 1 112 11zM208 439q32 9 54 -6.5t12 -57.5q-17 -61 -24 -78q-6 -15 4 -19.5t18 9.5q61 101 95 131q26 24 49 24q27 0 39 -16.5t12 -36.5
q0 -36 -11 -74t-27 -60q-21 -29 -43 -25q-15 2 -11 24q6 35 -19 35q-33 0 -71 -50q-49 -62 -89 -193q-7 -21 -40.5 -36.5t-63.5 -19.5q-20 -2 -29 7t-1 32q45 125 61 243q4 32 -14 32q-17 0 -39 -15q-21 -14 -38 1q-7 5 -5.5 17.5t8.5 19.5q41 41 90 71.5t83 40.5z" />
    <glyph glyph-name="Rcommaaccent" unicode="&#x156;" horiz-adv-x="698" 
d="M174 609q60 -5 124 -5q36 0 101 2t95 2q71 1 116.5 -39.5t41.5 -103.5q-3 -39 -17.5 -68.5t-41.5 -49.5t-48 -31t-56 -24q-13 -5 -15.5 -12t1.5 -24q17 -83 60 -124t86 -33q35 6 46 -7q5 -6 4 -16.5t-9 -15.5q-76 -44 -121 -56q-73 -18 -112 23q-42 46 -68.5 116.5
t-26.5 133.5q0 21 25 28q53 10 91 44t47 91q20 111 -79 111q-31 0 -44.5 -8t-19.5 -30q-20 -67 -54 -207.5t-39 -180.5q-6 -50 29 -64q33 -15 31 -37q-2 -9 -14.5 -17.5t-27.5 -6.5q-58 7 -271 -2q-8 -1 -12.5 5.5t-3.5 15.5q0 14 15 24t32 13q43 6 69 68q10 25 46.5 176
t43.5 189q8 58 -55 70q-9 1 -12 11.5t-1 16.5q1 9 12 17t32 5zM239 -282q-3 2 -4.5 7t0 13.5t9.5 17.5q43 47 37 81q-2 18 -32 12q-18 -3 -23 5q-9 13 14 47q17 24 46.5 40.5t53.5 16.5q56 0 56 -61q0 -78 -97 -161q-21 -18 -39 -22t-21 4z" />
    <glyph glyph-name="rcommaaccent" unicode="&#x157;" horiz-adv-x="449" 
d="M3 -282q-3 2 -4.5 7t0.5 13.5t9 17.5q43 47 37 81q-2 18 -32 12q-18 -3 -23 5q-9 13 14 47q18 24 47 40.5t53 16.5q56 0 57 -61q0 -78 -98 -161q-21 -18 -39 -22t-21 4zM207 439q32 9 54 -6.5t12 -57.5q-13 -50 -24 -78q-6 -15 4 -19.5t18 9.5q61 101 95 131q26 24 49 24
q27 0 39 -16.5t12 -36.5q0 -36 -11 -74t-27 -60q-21 -29 -43 -25q-15 2 -11 24q6 35 -19 35q-33 0 -71 -50q-30 -38 -48 -80t-41 -113q-7 -21 -40.5 -36.5t-63.5 -19.5q-20 -2 -29 7t-1 32q45 125 61 243q4 32 -13 32q-16 0 -40 -15q-20 -13 -38 1q-7 5 -5.5 17.5t8.5 19.5
q41 41 90 71.5t83 40.5z" />
    <glyph glyph-name="Rcaron" unicode="&#x158;" horiz-adv-x="698" 
d="M174 609q60 -5 124 -5q36 0 101 2t95 2q71 1 116.5 -39.5t41.5 -103.5q-3 -39 -17.5 -68.5t-41.5 -49.5t-48 -31t-56 -24q-13 -5 -15.5 -12t1.5 -24q17 -83 60 -124t86 -33q35 6 46 -7q5 -6 4 -16.5t-9 -15.5q-76 -44 -121 -56q-73 -18 -112 23q-42 46 -68.5 116.5
t-26.5 133.5q0 21 25 28q53 10 91 44t47 91q20 111 -79 111q-31 0 -44.5 -8t-19.5 -30q-20 -67 -54 -207.5t-39 -180.5q-6 -50 29 -64q33 -15 31 -37q-2 -9 -14.5 -17.5t-27.5 -6.5q-58 7 -271 -2q-8 -1 -12.5 5.5t-3.5 15.5q0 14 15 24t32 13q43 6 69 68q10 25 46.5 176
t43.5 189q8 58 -55 70q-9 1 -12 11.5t-1 16.5q1 9 12 17t32 5zM439 664q-15 -2 -22 3t-10 19q-3 22 -18 50.5t-17 36.5q-9 19 16 30q18 7 35 -12l27 -21q18 -12 45 -2q43 15 61 27q26 19 42 3q17 -17 -16 -43q-12 -6 -41.5 -28.5t-38.5 -32.5q-22 -22 -63 -30z" />
    <glyph glyph-name="rcaron" unicode="&#x159;" horiz-adv-x="449" 
d="M307 514q-15 -4 -22 2t-10 22q-4 23 -16.5 59t-13.5 39q-10 21 16 32q17 7 35 -14l27 -21q19 -12 45 -3q50 22 60 30q28 18 43 2q18 -18 -16 -44q-11 -7 -45 -33t-45 -36q-23 -23 -58 -35zM208 439q32 9 54 -6.5t12 -57.5q-17 -61 -24 -78q-6 -15 4 -19.5t18 9.5
q61 101 95 131q26 24 49 24q27 0 39 -16.5t12 -36.5q0 -36 -11 -74t-27 -60q-21 -29 -43 -25q-15 2 -11 24q6 35 -19 35q-33 0 -71 -50q-49 -62 -89 -193q-7 -21 -40.5 -36.5t-63.5 -19.5q-20 -2 -29 7t-1 32q45 125 61 243q4 32 -14 32q-17 0 -39 -15q-21 -14 -38 1
q-7 5 -5.5 17.5t8.5 19.5q41 41 90 71.5t83 40.5z" />
    <glyph glyph-name="Sacute" unicode="&#x15a;" 
d="M192 -8q-58 0 -107.5 26t-49.5 79q2 33 30.5 63.5t65.5 47.5q9 4 22 4t19 -4q4 -4 6 -12.5t-3 -17.5q-14 -22 -11 -60q5 -50 68 -50q34 0 56 18.5t23 50.5q1 23 -3 40t-21.5 36.5t-28.5 29t-45 35.5q-6 5 -10 8q-86 67 -73 175q7 59 65.5 107.5t136.5 48.5
q73 1 114.5 -21t41.5 -53q0 -22 -17 -47.5t-46 -41.5q-30 -17 -40 -10q-15 5 -12 29q2 29 -12.5 53.5t-41.5 24.5q-33 0 -54.5 -17.5t-22.5 -41.5q0 -44 96 -118q107 -89 91 -206q-10 -68 -71.5 -122t-165.5 -54zM471 783q7 1 13.5 -5t6.5 -12q1 -6 -6.5 -14.5t-13.5 -11.5
q-85 -42 -133 -73q-25 -18 -41 -13q-6 2 -9 9.5t4 18.5q11 14 27.5 38.5t20.5 30.5q14 16 25 20q8 2 54 6.5t52 5.5z" />
    <glyph glyph-name="sacute" unicode="&#x15b;" horiz-adv-x="338" 
d="M86 -10q-34 0 -52.5 21t-18.5 42q0 46 36 84q16 18 33 13q9 -4 11 -18q2 -16 17.5 -30t33.5 -14q26 0 40.5 23.5t14.5 61.5q0 56 -31 106q-5 7 -13 6.5t-13 -6.5l-33 -41q-21 -25 -52 -6q-11 7 -12.5 24t12.5 29q73 57 169 182q12 16 30 8q20 -10 16 -27q-12 -38 4 -78
q29 -76 26 -134q-4 -98 -74.5 -172t-143.5 -74zM459 662q9 1 15.5 -3.5t6.5 -12.5q1 -14 -20 -26q-80 -41 -161 -101q-27 -19 -42 -14q-6 2 -9 10t4 20q46 57 68 95q9 14 26 21q3 1 112 11z" />
    <glyph glyph-name="Scircumflex" unicode="&#x15c;" 
d="M192 -8q-58 0 -107.5 26t-49.5 79q2 33 30.5 63.5t65.5 47.5q9 4 22 4t19 -4q4 -4 6 -12.5t-3 -17.5q-14 -22 -11 -60q5 -50 68 -50q34 0 56 18.5t23 50.5q1 23 -3 40t-21.5 36.5t-28.5 29t-45 35.5q-6 5 -10 8q-86 67 -73 175q7 59 65.5 107.5t136.5 48.5
q73 1 114.5 -21t41.5 -53q0 -22 -17 -47.5t-46 -41.5q-30 -17 -40 -10q-15 5 -12 29q2 29 -12.5 53.5t-41.5 24.5q-33 0 -54.5 -17.5t-22.5 -41.5q0 -44 96 -118q107 -89 91 -206q-10 -68 -71.5 -122t-165.5 -54zM398 795q28 4 32 -22q4 -21 18.5 -51t16.5 -39
q11 -22 -16 -33q-13 -5 -35 14q-4 4 -8.5 7.5t-10 7.5t-8.5 6q-18 13 -44 3q-31 -11 -61 -30q-27 -17 -42 -2q-19 17 16 44q36 23 80 64q23 23 62 31z" />
    <glyph glyph-name="scircumflex" unicode="&#x15d;" horiz-adv-x="338" 
d="M86 -10q-34 0 -52.5 21t-18.5 42q0 46 36 84q16 18 33 13q9 -4 11 -18q2 -16 17.5 -30t33.5 -14q26 0 40.5 23.5t14.5 61.5q0 56 -31 106q-5 7 -13 6.5t-13 -6.5l-33 -41q-21 -25 -52 -6q-11 7 -12.5 24t12.5 29q73 57 169 182q12 16 30 8q20 -10 16 -27q-12 -38 4 -78
q29 -76 26 -134q-4 -98 -74.5 -172t-143.5 -74zM312 669q27 8 32 -23q3 -17 8 -35t11.5 -37.5l8.5 -25.5q10 -22 -16 -33q-19 -7 -35 14q-6 7 -14.5 12.5t-12.5 9.5q-14 13 -45 2q-9 -3 -32 -14t-28 -15q-27 -19 -43 -3q-18 18 16 45q12 6 47.5 32.5t44.5 36.5q25 25 58 34z
" />
    <glyph glyph-name="Scedilla" unicode="&#x15e;" 
d="M92 -195q17 14 21.5 32.5t-5.5 35.5q-16 28 -8 48t42 48q17 14 13 25q-2 4 -8 4q-47 7 -79.5 31.5t-32.5 67.5q2 33 30.5 63.5t65.5 47.5q9 4 22 4t19 -4q4 -4 6 -12.5t-3 -17.5q-14 -22 -11 -60q5 -50 68 -50q34 0 56 18.5t23 50.5q1 23 -3 40t-21.5 36.5t-28.5 29
t-45 35.5q-6 5 -10 8q-86 67 -73 175q7 59 65.5 107.5t136.5 48.5q73 1 114.5 -21t41.5 -53q0 -22 -17 -47.5t-46 -41.5q-30 -17 -40 -10q-15 5 -12 29q2 29 -12.5 53.5t-41.5 24.5q-33 0 -54.5 -17.5t-22.5 -41.5q0 -44 96 -118q107 -89 91 -206q-8 -54 -51 -102.5
t-115 -65.5q-22 -6 -26.5 -9t-19.5 -19q-12 -12 -16 -22t-4 -14t6.5 -17t7.5 -17q9 -24 -2.5 -49t-30 -42.5t-56.5 -48.5q-46 -38 -61 -10q-11 20 31 53z" />
    <glyph glyph-name="scedilla" unicode="&#x15f;" horiz-adv-x="338" 
d="M140 3q-16 -7 -38 -31q-9 -10 -11.5 -19t-1.5 -13.5t7 -16t8 -17.5q4 -11 4.5 -21.5t-1.5 -19.5t-10 -20t-14 -18.5t-20 -20.5t-22 -19.5t-26 -21.5q-46 -37 -60 -10q-13 21 30 53q17 14 21.5 32.5t-5.5 35.5q-35 53 39 101q18 13 1 24q-30 21 -30 52q0 46 35 84
q18 18 34 13q9 -4 11 -18q2 -16 17.5 -30t32.5 -14q26 0 41 23.5t15 61.5q0 56 -31 106q-5 7 -13 6.5t-13 -6.5l-33 -41q-21 -25 -52 -6q-11 7 -12.5 24t12.5 29q73 57 169 182q12 16 30 8q20 -10 15 -27q-11 -39 5 -78q27 -73 26 -134q-4 -78 -51 -142.5t-109 -90.5z" />
    <glyph glyph-name="Scaron" unicode="&#x160;" 
d="M192 -8q-58 0 -107.5 26t-49.5 79q2 33 30.5 63.5t65.5 47.5q9 4 22 4t19 -4q4 -4 6 -12.5t-3 -17.5q-14 -22 -11 -60q5 -50 68 -50q34 0 56 18.5t23 50.5q1 23 -3 40t-21.5 36.5t-28.5 29t-45 35.5q-6 5 -10 8q-86 67 -73 175q7 59 65.5 107.5t136.5 48.5
q73 1 114.5 -21t41.5 -53q0 -22 -17 -47.5t-46 -41.5q-30 -17 -40 -10q-15 5 -12 29q2 29 -12.5 53.5t-41.5 24.5q-33 0 -54.5 -17.5t-22.5 -41.5q0 -44 96 -118q107 -89 91 -206q-10 -68 -71.5 -122t-165.5 -54zM353 664q-28 -4 -32 22q-4 22 -18.5 50t-17.5 37
q-9 19 16 30q17 7 36 -12q10 -9 27 -21t44 -2q43 15 61 27q27 18 42 3q17 -17 -16 -43q-12 -7 -41.5 -29t-38.5 -32q-22 -22 -62 -30z" />
    <glyph glyph-name="scaron" unicode="&#x161;" horiz-adv-x="338" 
d="M275 514q-15 -4 -22 2t-10 22q-4 22 -17.5 57t-15.5 41q-10 21 16 32q16 6 36 -14q10 -9 27 -21q19 -13 44 -3q48 22 61 30q27 17 42 2q18 -18 -16 -44q-41 -27 -87 -69q-23 -23 -58 -35zM86 -10q-34 0 -52.5 21t-18.5 42q0 46 36 84q16 18 33 13q9 -4 11 -18
q2 -16 17.5 -30t33.5 -14q26 0 42.5 23.5t16.5 61.5q0 36 -7 58.5t-25 53.5q-4 7 -12 7t-13 -6q-28 -34 -39 -46q-21 -25 -50 -8q-11 7 -12.5 24t12.5 29q73 57 169 182q12 16 30 8q20 -10 16 -27q-12 -38 4 -78q29 -76 26 -134q-4 -98 -74.5 -172t-143.5 -74z" />
    <glyph glyph-name="Tcommaaccent" unicode="&#x162;" horiz-adv-x="620" 
d="M166 -195q17 14 21.5 32.5t-5.5 35.5q-31 46 40 104q13 11 9 18t-17 7q-17 -1 -41 -2t-36.5 -1.5t-16.5 -0.5q-7 -1 -11.5 5.5t-4.5 15.5q0 12 17 23.5t31 13.5q43 6 69 68q18 50 99 398q6 21 -9 25q-8 4 -28 2q-41 -3 -87 -43t-66 -84q-13 -26 -37 -23q-9 1 -13 12t2 34
q11 40 39 92t49 73q15 15 66 4q72 -11 208 -10q37 0 105.5 5t74.5 5q39 0 55 -16.5t13 -37.5q-11 -89 -68 -143q-29 -26 -46 -25q-10 1 -12 12.5t2 18.5q50 129 -64 129q-17 1 -24.5 -3t-12.5 -21q-85 -341 -93 -403q-6 -51 43 -64q34 -11 31 -37q-2 -9 -14 -17.5t-27 -6.5
q-17 3 -52 3q-40 0 -65 -30q-9 -11 -13.5 -18.5t-4.5 -14.5t1 -11t5.5 -13t6.5 -14q4 -11 4.5 -21.5t-2 -19.5t-9.5 -19.5t-14 -18.5t-20 -20t-22 -20t-26 -21q-46 -38 -60 -10q-13 20 30 53z" />
    <glyph glyph-name="tcommaaccent" unicode="&#x163;" horiz-adv-x="337" 
d="M-10 -195q17 14 21.5 32.5t-5.5 35.5q-31 46 40 104q13 12 14.5 19t-6.5 26q-13 27 -8 71q12 93 64 244q10 26 -8 29h-13.5t-16.5 1q-8 1 -11 9.5t4 25.5q14 28 44 29q34 2 50 18q50 47 83 109q4 8 15 14.5t20 5.5q7 -1 13.5 -9t4.5 -13q-24 -68 -33 -103q-6 -19 13 -19
q27 -2 41 0q7 0 22.5 1t18.5 0q13 -2 8 -19q-8 -32 -28 -46q-18 -14 -39 -11q-32 5 -41 5q-12 0 -21 -18q-30 -65 -50 -166q-14 -75 25 -62q17 5 47 24q11 6 20.5 5t13.5 -6q12 -15 -4 -36q-40 -45 -125 -94q-26 -15 -48 -39q-12 -12 -16 -22t-4 -14t6.5 -17t7.5 -17
q4 -11 4.5 -21.5t-2 -19.5t-9.5 -19.5t-14 -18.5t-20 -20t-22 -20t-26 -21q-45 -37 -60 -10q-13 20 30 53z" />
    <glyph glyph-name="Tcaron" unicode="&#x164;" horiz-adv-x="620" 
d="M170 610q15 15 66 4q72 -11 208 -10q37 0 105.5 5t74.5 5q39 0 55 -16.5t13 -37.5q-11 -89 -68 -143q-29 -26 -46 -25q-10 1 -12 12.5t2 18.5q50 129 -64 129q-17 1 -24.5 -3t-12.5 -21q-85 -341 -93 -403q-6 -51 43 -64q34 -11 31 -37q-2 -9 -14 -17.5t-27 -6.5
q-60 7 -287 -2q-7 -1 -11.5 5.5t-4.5 15.5q0 12 17 23.5t31 13.5q43 6 69 68q18 50 99 398q6 21 -9 25q-8 4 -28 2q-41 -3 -87 -43t-66 -84q-13 -26 -37 -23q-9 1 -13 12t2 34q11 40 39 92t49 73zM412 664q-15 -2 -22 3t-10 19q-3 22 -18 50.5t-17 36.5q-9 19 16 30
q18 7 35 -12l27 -21q18 -12 45 -2q43 15 61 27q27 18 42 3q17 -17 -16 -43q-12 -6 -41.5 -28.5t-38.5 -32.5q-22 -22 -63 -30z" />
    <glyph glyph-name="tcaron" unicode="&#x165;" horiz-adv-x="337" 
d="M360 517q30 24 37 46q9 28 -25 33q-21 3 -22 7q-8 11 0 24q14 28 47 51.5t56 23.5q35 0 48.5 -27.5t5.5 -68.5q-6 -30 -43.5 -68t-75.5 -57q-25 -13 -36 2q-12 18 8 34zM104 -8q-37 0 -50 29.5t-8 71.5q12 93 64 244q10 26 -8 29h-13.5t-16.5 1q-8 1 -11 9.5t4 25.5
q14 28 44 29q34 2 50 18q50 47 83 109q4 8 15 14.5t20 5.5q7 -1 13.5 -9t4.5 -13q-24 -68 -33 -103q-6 -19 13 -19q27 -2 41 0q7 0 22.5 1t18.5 0q13 -2 8 -19q-8 -32 -28 -46q-18 -14 -39 -11q-32 5 -41 5q-12 0 -21 -18q-30 -65 -50 -166q-14 -75 25 -62q17 5 47 24
q11 6 20.5 5t13.5 -6q12 -15 -4 -36q-29 -34 -87 -73.5t-97 -39.5z" />
    <glyph glyph-name="Tbar" unicode="&#x166;" horiz-adv-x="620" 
d="M232 252h-55q-19 0 -25 5t1 22q9 17 18 22.5t25 5.5q10 0 27 0.5t25 0.5q16 0 18.5 1.5t6.5 15.5q9 35 24.5 102.5t22.5 94.5q6 21 -9 25q-8 4 -28 2q-41 -3 -87 -43t-66 -84q-13 -26 -37 -23q-9 1 -13 12t2 34q11 40 39 92t49 73q15 15 66 4q72 -11 208 -10
q37 0 105.5 5t74.5 5q39 0 55 -16.5t13 -37.5q-11 -89 -68 -143q-29 -26 -46 -25q-10 1 -12 12.5t2 18.5q50 129 -64 129q-17 1 -24.5 -3t-12.5 -21l-44 -184q-5 -19 0.5 -23.5t23.5 -2.5l38 4q4 0 10.5 1t10.5 1.5t8.5 1t7 0t4.5 -2t3 -4.5t1 -7q0 -8 -9 -26.5t-21 -24.5
q-12 -7 -39 -7q-7 -1 -32 -1q-21 0 -25.5 -3t-8.5 -23q-18 -81 -21 -102q-6 -51 43 -64q34 -11 31 -37q-2 -9 -14 -17.5t-27 -6.5q-60 7 -287 -2q-7 -1 -11.5 5.5t-4.5 15.5q0 12 17 23.5t31 13.5q43 6 69 68q6 17 31 113q0 3 0.5 6t-4.5 6t-16 3z" />
    <glyph glyph-name="tbar" unicode="&#x167;" horiz-adv-x="337" 
d="M99 -8q-36 0 -51 30.5t-9 70.5q7 50 23 116q5 14 -10 17h-30q-8 1 -10.5 10t3.5 25q15 29 45 29q28 0 32 16q4 14 11 31q5 14 3.5 21t-12.5 8h-13.5t-16.5 1q-8 1 -10.5 9.5t3.5 25.5q14 28 45 29q37 2 53 18q50 47 83 109q3 7 14.5 14t20.5 6q7 -1 13 -9t4 -13
q-21 -58 -32 -103q-6 -19 13 -19q27 -2 41 0q7 0 22.5 1t18.5 0q13 -2 8 -19q-7 -31 -29 -46q-16 -14 -38 -11q-33 5 -41 5q-13 0 -22 -18q-3 -6 -13 -34q-10 -19 11 -19q27 -2 41 0q40 2 41 2q13 -2 8 -20q-7 -29 -29 -46q-16 -14 -38 -10q-8 1 -21.5 3t-20.5 2
q-16 0 -21 -19q-4 -9 -7 -25q-14 -75 25 -62q18 5 46 24q11 6 21 5t14 -6q12 -15 -4 -36q-30 -34 -87.5 -73.5t-97.5 -39.5z" />
    <glyph glyph-name="Utilde" unicode="&#x168;" horiz-adv-x="781" 
d="M399 606q15 1 20.5 -6.5t3.5 -19.5q-10 -23 -29 -26q-33 -7 -50 -23t-29 -50q-16 -46 -39.5 -140t-28.5 -135q-7 -52 10 -82.5t74 -30.5q126 0 180 177q39 140 52 216q3 19 -2.5 33t-18.5 21.5t-20 10t-18 5.5q-8 1 -10 12t1 15q2 9 13 17t32 6q22 -2 117.5 -2t137.5 2
q15 1 20.5 -6.5t2.5 -19.5q-8 -23 -28 -26q-34 -7 -50.5 -23t-29.5 -50q-15 -46 -36.5 -145.5t-24.5 -141.5q-4 -56 15.5 -88.5t56.5 -25.5q14 3 23 -4t11 -15q1 -7 -4 -17.5t-14 -14.5q-24 -11 -76 -25t-83 -14q-51 0 -65 24t-9 70q1 11 -2 14.5t-9 0.5t-14 -11
q-88 -94 -216 -94q-90 0 -133.5 55t-27.5 155q5 30 33 138t33 144q2 20 -4 34t-18.5 21t-19 9.5t-17.5 5.5q-14 2 -10 27q2 9 13 17t32 6q22 -2 117.5 -2t137.5 2zM417 674q-25 -19 -36.5 -23.5t-22.5 2.5q-23 20 20 54q23 19 35.5 29t31 21.5t31 15t27.5 2.5t28 -9
q1 -1 7.5 -5t8 -4.5t7 -3.5t8 -3t7.5 -1.5t8.5 0t8.5 2.5t9.5 4l10.5 7q33 24 45 17q22 -17 -30 -69q-89 -85 -136 -42q-34 32 -68 6z" />
    <glyph glyph-name="utilde" unicode="&#x169;" horiz-adv-x="607" 
d="M311 545q-25 -20 -36.5 -24t-22.5 3q-23 19 20 53q22 18 35 28.5t31 22t31 15.5t28 2.5t28 -9.5q1 -1 8.5 -5.5t9 -5t8 -3.5t8.5 -3t8 -0.5t10 1.5t10.5 4.5t12.5 7.5q33 25 45 17q24 -16 -30 -68q-89 -87 -136 -42q-35 31 -68 6zM568 147q5 -5 2.5 -17t-9.5 -20
q-30 -40 -83 -80t-94 -40q-70 0 -62 78q7 44 14 66q4 16 -4 20t-16 -8q-38 -56 -89 -105t-97 -50q-28 -1 -46.5 23t-14.5 57q5 39 27 106.5t27 91.5q7 32 -11 32q-20 0 -41 -15q-17 -12 -38 1q-6 4 -5.5 17.5t7.5 19.5q40 42 89 71.5t84 40.5q33 10 56.5 -6t15.5 -58
q-6 -32 -14.5 -62t-21 -69t-19.5 -62q-4 -12 -0.5 -23t14.5 -12.5t33 18.5q59 53 129 223q9 21 45 36.5t66 19.5q22 3 36.5 -5.5t3.5 -28.5q-18 -33 -46.5 -113t-38.5 -130q-3 -18 1 -29t13 -10q16 0 47 27q9 7 21 5t19 -10z" />
    <glyph glyph-name="Umacron" unicode="&#x16a;" horiz-adv-x="781" 
d="M399 606q15 1 20.5 -6.5t3.5 -19.5q-10 -23 -29 -26q-33 -7 -50 -23t-29 -50q-16 -46 -39.5 -140t-28.5 -135q-7 -52 10 -82.5t74 -30.5q126 0 180 177q39 140 52 216q3 19 -2.5 33t-18.5 21.5t-20 10t-18 5.5q-8 1 -10 12t1 15q2 9 13 17t32 6q22 -2 117.5 -2t137.5 2
q15 1 20.5 -6.5t2.5 -19.5q-8 -23 -28 -26q-34 -7 -50.5 -23t-29.5 -50q-15 -46 -36.5 -145.5t-24.5 -141.5q-4 -56 15.5 -88.5t56.5 -25.5q14 3 23 -4t11 -15q1 -7 -4 -17.5t-14 -14.5q-24 -11 -76 -25t-83 -14q-51 0 -65 24t-9 70q1 11 -2 14.5t-9 0.5t-14 -11
q-88 -94 -216 -94q-90 0 -133.5 55t-27.5 155q5 30 33 138t33 144q2 20 -4 34t-18.5 21t-19 9.5t-17.5 5.5q-14 2 -10 27q2 9 13 17t32 6q22 -2 117.5 -2t137.5 2zM374 669q-19 0 -25 5t1 23q9 17 18 23t25 6q138 2 200 8q36 4 40 1q5 -3 5 -11t-9.5 -25.5t-20.5 -23.5
q-12 -7 -39 -7q-25 0 -98.5 0.5t-96.5 0.5z" />
    <glyph glyph-name="umacron" unicode="&#x16b;" horiz-adv-x="607" 
d="M267 509q-19 0 -25 5t1 23q9 17 18 23t25 6q120 2 185 8q3 0 8 1t8 1.5t7 0.5h6.5h5.5t4.5 -1t3 -2.5t2 -4t0.5 -5.5q0 -8 -9.5 -25.5t-20.5 -23.5q-12 -7 -39 -7q-25 0 -91 0.5t-89 0.5zM568 147q5 -5 2.5 -17t-9.5 -20q-30 -40 -83 -80t-94 -40q-70 0 -62 78
q7 44 14 66q4 16 -4 20t-16 -8q-38 -56 -89 -105t-97 -50q-28 -1 -46.5 23t-14.5 57q5 39 27 106.5t27 91.5q7 32 -11 32q-20 0 -41 -15q-17 -12 -38 1q-6 4 -5.5 17.5t7.5 19.5q40 42 89 71.5t84 40.5q33 10 56.5 -6t15.5 -58q-6 -32 -14.5 -62t-21 -69t-19.5 -62
q-4 -12 -0.5 -23t14.5 -12.5t33 18.5q59 53 129 223q9 21 45 36.5t66 19.5q22 3 36.5 -5.5t3.5 -28.5q-18 -33 -46.5 -113t-38.5 -130q-3 -18 1 -29t13 -10q16 0 47 27q9 7 21 5t19 -10z" />
    <glyph glyph-name="Ubreve" unicode="&#x16c;" horiz-adv-x="781" 
d="M399 606q15 1 20.5 -6.5t3.5 -19.5q-10 -23 -29 -26q-33 -7 -50 -23t-29 -50q-16 -46 -39.5 -140t-28.5 -135q-7 -52 10 -82.5t74 -30.5q126 0 180 177q39 140 52 216q3 19 -2.5 33t-18.5 21.5t-20 10t-18 5.5q-8 1 -10 12t1 15q2 9 13 17t32 6q22 -2 117.5 -2t137.5 2
q15 1 20.5 -6.5t2.5 -19.5q-8 -23 -28 -26q-34 -7 -50.5 -23t-29.5 -50q-15 -46 -36.5 -145.5t-24.5 -141.5q-4 -56 15.5 -88.5t56.5 -25.5q14 3 23 -4t11 -15q1 -7 -4 -17.5t-14 -14.5q-24 -11 -76 -25t-83 -14q-51 0 -65 24t-9 70q1 11 -2 14.5t-9 0.5t-14 -11
q-88 -94 -216 -94q-90 0 -133.5 55t-27.5 155q5 30 33 138t33 144q2 20 -4 34t-18.5 21t-19 9.5t-17.5 5.5q-14 2 -10 27q2 9 13 17t32 6q22 -2 117.5 -2t137.5 2zM598 795q8 -2 11.5 -9.5t-0.5 -18.5q-16 -50 -56 -78t-82 -28q-49 0 -69 30t-16 69q2 32 27 35q15 2 25 -16
q16 -26 53 -26q11 0 19 1t13.5 2t11.5 4.5t8.5 5t9.5 7t9 7.5q21 16 36 15z" />
    <glyph glyph-name="ubreve" unicode="&#x16d;" horiz-adv-x="607" 
d="M492 632q19 -3 11 -28q-16 -49 -56 -78t-81 -29q-48 0 -67 30.5t-14 70.5q2 31 26 35q17 3 24 -17q9 -29 51 -29q10 0 19 1.5t14.5 2.5t13 5.5t9.5 6t10 8t9 7.5q21 16 31 14zM568 147q5 -5 2.5 -17t-9.5 -20q-30 -40 -83 -80t-94 -40q-70 0 -62 78q7 44 14 66
q4 16 -4 20t-16 -8q-38 -56 -89 -105t-97 -50q-28 -1 -46.5 23t-14.5 57q5 39 27 106.5t27 91.5q7 32 -11 32q-20 0 -41 -15q-17 -12 -38 1q-6 4 -5.5 17.5t7.5 19.5q40 42 89 71.5t84 40.5q33 10 56.5 -6t15.5 -58q-6 -32 -14.5 -62t-21 -69t-19.5 -62q-4 -12 -0.5 -23
t14.5 -12.5t33 18.5q59 53 129 223q9 21 45 36.5t66 19.5q22 3 36.5 -5.5t3.5 -28.5q-18 -33 -46.5 -113t-38.5 -130q-3 -18 1 -29t13 -10q16 0 47 27q9 7 21 5t19 -10z" />
    <glyph glyph-name="Uring" unicode="&#x16e;" horiz-adv-x="781" 
d="M399 606q15 1 20.5 -6.5t3.5 -19.5q-10 -23 -29 -26q-33 -7 -50 -23t-29 -50q-16 -46 -39.5 -140t-28.5 -135q-7 -52 10 -82.5t74 -30.5q126 0 180 177q39 140 52 216q3 19 -2.5 33t-18.5 21.5t-20 10t-18 5.5q-8 1 -10 12t1 15q2 9 13 17t32 6q22 -2 117.5 -2t137.5 2
q15 1 20.5 -6.5t2.5 -19.5q-8 -23 -28 -26q-34 -7 -50.5 -23t-29.5 -50q-15 -46 -36.5 -145.5t-24.5 -141.5q-4 -56 15.5 -88.5t56.5 -25.5q14 3 23 -4t11 -15q1 -7 -4 -17.5t-14 -14.5q-24 -11 -76 -25t-83 -14q-51 0 -65 24t-9 70q1 11 -2 14.5t-9 0.5t-14 -11
q-88 -94 -216 -94q-90 0 -133.5 55t-27.5 155q5 30 33 138t33 144q2 20 -4 34t-18.5 21t-19 9.5t-17.5 5.5q-14 2 -10 27q2 9 13 17t32 6q22 -2 117.5 -2t137.5 2zM506 783q103 0 103 -64q0 -43 -44.5 -65t-93.5 -21q-58 0 -81 20.5t-23 46.5q0 36 43.5 59.5t95.5 23.5z
M492 738q-19 0 -30.5 -11t-11.5 -26q0 -11 8.5 -17.5t21.5 -6.5q42 0 42 35q0 12 -8.5 19t-21.5 7z" />
    <glyph glyph-name="uring" unicode="&#x16f;" horiz-adv-x="607" 
d="M410 668q55 0 79 -20.5t24 -50.5q0 -46 -45 -73t-93 -27q-58 0 -81 23.5t-23 50.5q0 40 44 68.5t95 28.5zM401 624q-17 0 -32 -13t-15 -37q0 -32 30 -32q19 0 30.5 14.5t11.5 34.5q0 33 -25 33zM568 147q5 -5 2.5 -17t-9.5 -20q-30 -40 -83 -80t-94 -40q-70 0 -62 78
q7 44 14 66q4 16 -4 20t-16 -8q-38 -56 -89 -105t-97 -50q-28 -1 -46.5 23t-14.5 57q5 39 27 106.5t27 91.5q7 32 -11 32q-20 0 -41 -15q-17 -12 -38 1q-6 4 -5.5 17.5t7.5 19.5q40 42 89 71.5t84 40.5q33 10 56.5 -6t15.5 -58q-6 -32 -14.5 -62t-21 -69t-19.5 -62
q-4 -12 -0.5 -23t14.5 -12.5t33 18.5q59 53 129 223q9 21 45 36.5t66 19.5q22 3 36.5 -5.5t3.5 -28.5q-18 -33 -46.5 -113t-38.5 -130q-3 -18 1 -29t13 -10q16 0 47 27q9 7 21 5t19 -10z" />
    <glyph glyph-name="Uhungarumlaut" unicode="&#x170;" horiz-adv-x="781" 
d="M399 606q15 1 20.5 -6.5t3.5 -19.5q-10 -23 -29 -26q-33 -7 -50 -23t-29 -50q-16 -46 -39.5 -140t-28.5 -135q-7 -52 10 -82.5t74 -30.5q126 0 180 177q39 140 52 216q3 19 -2.5 33t-18.5 21.5t-20 10t-18 5.5q-8 1 -10 12t1 15q2 9 13 17t32 6q22 -2 117.5 -2t137.5 2
q15 1 20.5 -6.5t2.5 -19.5q-8 -23 -28 -26q-34 -7 -50.5 -23t-29.5 -50q-15 -46 -36.5 -145.5t-24.5 -141.5q-4 -56 15.5 -88.5t56.5 -25.5q14 3 23 -4t11 -15q1 -7 -4 -17.5t-14 -14.5q-24 -11 -76 -25t-83 -14q-51 0 -65 24t-9 70q1 11 -2 14.5t-9 0.5t-14 -11
q-88 -94 -216 -94q-90 0 -133.5 55t-27.5 155q5 30 33 138t33 144q2 20 -4 34t-18.5 21t-19 9.5t-17.5 5.5q-14 2 -10 27q2 9 13 17t32 6q22 -2 117.5 -2t137.5 2zM538 780q8 1 14 -4.5t6 -12.5q3 -12 -19 -26q-69 -33 -130 -73q-28 -18 -41 -12q-6 1 -9 8.5t4 18.5
q10 13 25 36t23 33q12 15 25 21q4 1 102 11zM731 783q8 1 14 -4.5t6 -12.5q1 -6 -6.5 -14.5t-13.5 -11.5q-85 -42 -133 -73q-8 -6 -21 -10.5t-20 -2.5q-6 2 -9 9.5t4 18.5q12 14 28.5 39t19.5 30q14 16 25 20q8 2 54 6.5t52 5.5z" />
    <glyph glyph-name="uhungarumlaut" unicode="&#x171;" horiz-adv-x="607" 
d="M427 703q13 0 14 -13.5t-8 -27.5q-10 -17 -52.5 -70t-62.5 -89q-13 -24 -39 -26q-11 -1 -15 8t0 23q9 24 16.5 52t14.5 58.5t10 43.5q1 5 2.5 9t3 7t4.5 5.5t4 3.5t5 3l5 2.5t5.5 2t5.5 1.5q21 7 87 7zM598 703q9 0 13 -6.5t2 -15.5t-8 -18q-8 -11 -53.5 -66.5
t-67.5 -93.5q-13 -24 -39 -26q-11 -1 -15.5 7t0.5 23q11 32 26 89.5t17 65.5q3 13 9.5 20t10 8.5t15.5 5.5q21 7 90 7zM568 147q5 -5 2.5 -17t-9.5 -20q-30 -40 -83 -80t-94 -40q-70 0 -62 78q7 44 14 66q4 16 -4 20t-16 -8q-38 -56 -89 -105t-97 -50q-28 -1 -46.5 23
t-14.5 57q5 39 27 106.5t27 91.5q7 32 -11 32q-20 0 -41 -15q-17 -12 -38 1q-6 4 -5.5 17.5t7.5 19.5q40 42 89 71.5t84 40.5q33 10 56.5 -6t15.5 -58q-6 -32 -14.5 -62t-21 -69t-19.5 -62q-4 -12 -0.5 -23t14.5 -12.5t33 18.5q59 53 129 223q9 21 45 36.5t66 19.5
q22 3 36.5 -5.5t3.5 -28.5q-18 -33 -46.5 -113t-38.5 -130q-3 -18 1 -29t13 -10q16 0 47 27q9 7 21 5t19 -10z" />
    <glyph glyph-name="Uogonek" unicode="&#x172;" horiz-adv-x="781" 
d="M620 -136q4 -7 -0.5 -19t-14.5 -21q-18 -17 -45 -29.5t-47 -12.5q-46 0 -64 21t-18 60q0 53 88 124q9 8 -2 23q-18 21 -13 74q1 11 -2 14.5t-9 0.5t-14 -11q-88 -94 -216 -94q-90 0 -133.5 55t-27.5 155q5 30 33 138t33 144q2 20 -4 34t-18.5 21t-19 9.5t-17.5 5.5
q-14 2 -10 27q2 9 13 17t32 6q22 -2 117.5 -2t137.5 2q15 1 20.5 -6.5t3.5 -19.5q-10 -23 -29 -26q-33 -7 -50 -23t-29 -50q-16 -46 -39.5 -140t-28.5 -135q-7 -52 10 -82.5t74 -30.5q126 0 180 177q39 140 52 216q3 19 -2.5 33t-18.5 21.5t-20 10t-18 5.5q-8 1 -10 12t1 15
q2 9 13 17t32 6q22 -2 117.5 -2t137.5 2q15 1 20.5 -6.5t2.5 -19.5q-8 -23 -28 -26q-34 -7 -50.5 -23t-29.5 -50q-15 -46 -36.5 -145.5t-24.5 -141.5q-4 -56 15.5 -88.5t56.5 -25.5q14 3 23 -4t11 -15q1 -7 -4 -17.5t-14 -14.5q-44 -21 -112 -33q-29 -5 -43 -25
q-36 -45 -36 -74q0 -27 18 -27q14 0 29 5q17 3 27 -11z" />
    <glyph glyph-name="uogonek" unicode="&#x173;" horiz-adv-x="607" 
d="M568 147q5 -5 2.5 -17t-9.5 -20q-21 -27 -55 -57.5t-68 -47.5q-28 -15 -50.5 -50.5t-22.5 -57.5q0 -27 18 -27q14 0 29 5q17 3 27 -11q4 -7 -0.5 -19t-14.5 -21q-18 -17 -45 -29.5t-47 -12.5q-46 0 -64 21t-18 60q0 23 22.5 56t63.5 66q12 10 -3 23q-16 14 -11 60
q7 44 14 66q4 16 -4 20t-16 -8q-38 -56 -89 -105t-97 -50q-28 -1 -46.5 23t-14.5 57q5 39 27 106.5t27 91.5q7 32 -11 32q-20 0 -41 -15q-17 -12 -38 1q-6 4 -5.5 17.5t7.5 19.5q40 42 89 71.5t84 40.5q33 10 56.5 -6t15.5 -58q-6 -32 -14.5 -62t-21 -69t-19.5 -62
q-4 -12 -0.5 -23t14.5 -12.5t33 18.5q59 53 129 223q9 21 45 36.5t66 19.5q22 3 36.5 -5.5t3.5 -28.5q-18 -33 -46.5 -113t-38.5 -130q-3 -18 1 -29t13 -10q16 0 47 27q9 7 21 5t19 -10z" />
    <glyph glyph-name="Wcircumflex" unicode="&#x174;" horiz-adv-x="989" 
d="M432 581q0 8 9 19t27 8q26 -3 98.5 -4t106.5 4q21 3 30.5 -4.5t10.5 -16.5t-6 -19t-19 -14q-44 -16 -34 -74q6 -35 10 -75.5t9.5 -110.5t9.5 -119q2 -20 16 -10q6 5 13 16q46 74 88 127q4 5 18.5 24t19 24.5t16 21t15.5 23.5t10 20.5t8.5 23t3.5 20.5q2 24 -12 34.5
t-42 3.5q-24 -6 -28 18q-3 13 15.5 32.5t34.5 28.5q56 34 100 34q32 -1 56.5 -22t21.5 -56q-1 -28 -6 -47.5t-21.5 -42t-29.5 -36.5t-50 -51.5t-64 -66.5q-70 -78 -114 -153q-30 -49 -37 -75q-7 -30 -34 -48q-24 -16 -81 -22q-29 -3 -37.5 10.5t-10.5 56.5q-9 162 -10 175
q-2 19 -5.5 19.5t-15.5 -14.5q-17 -21 -73 -102q-30 -53 -36 -75q-7 -30 -34 -48q-24 -16 -81 -22q-29 -3 -37.5 10.5t-10.5 56.5q-12 252 -49 425q-8 52 -71 68q-7 2 -14 10t-7 15q0 8 9.5 19t27.5 8q26 -3 101.5 -4t109.5 4q21 3 30.5 -4.5t10.5 -16.5t-9 -19.5t-22 -13.5
q-17 -6 -21.5 -21t0.5 -53q16 -99 35 -305q1 -9 5 -12.5t11 0.5t14 16q19 30 55.5 77.5t46.5 61.5q16 23 13 49q-7 79 -16 121q-5 32 -18.5 45.5t-39.5 22.5q-7 2 -14 10t-6 15zM630 795q15 2 22 -3t10 -19q3 -22 18 -52.5t17 -37.5q10 -22 -16 -33q-15 -6 -35 14
q-4 4 -8.5 7.5t-10 7.5t-8.5 6q-17 13 -45 3q-31 -11 -61 -30q-26 -18 -42 -2q-18 18 16 44q11 7 40.5 30.5t39.5 33.5q24 24 63 31z" />
    <glyph glyph-name="wcircumflex" unicode="&#x175;" horiz-adv-x="750" 
d="M207 436q33 10 56.5 -6t15.5 -58q-6 -35 -52 -189q-4 -13 -3 -27.5t10 -20.5t30 14q69 62 128 236q7 21 38.5 36.5t59.5 19.5q21 3 37.5 -8t6.5 -31q-16 -30 -36.5 -101t-32.5 -139q-4 -24 4.5 -43t30.5 -19q35 0 75 57.5t50 105.5q4 20 -2 40t-23 22q-23 3 -25 7
q-7 14 -1 28q15 26 49 55t59 29q39 0 54 -35t2 -81q-36 -122 -156 -254q-25 -30 -66 -56t-86 -26q-53 0 -77.5 41t-13.5 104q3 14 -4.5 17.5t-16.5 -8.5q-4 -5 -13 -16t-12.5 -15.5t-10.5 -13t-12.5 -14.5t-14 -14.5l-17.5 -17.5t-21 -20q-39 -36 -75.5 -43t-56 12.5
t-15.5 55.5q5 40 26 112.5t26 96.5q6 32 -11 32q-20 0 -41 -15q-17 -12 -38 1q-6 4 -5.5 17.5t7.5 19.5q40 42 89 71.5t84 40.5zM551 669q27 8 32 -23q3 -17 8 -35t11.5 -37.5l8.5 -25.5q11 -22 -16 -33q-19 -7 -35 14q-6 7 -14.5 12.5t-12.5 9.5q-14 13 -45 2
q-9 -3 -32 -14t-28 -15q-28 -19 -42 -3q-20 17 16 45q12 7 47 33t44 36q25 25 58 34z" />
    <glyph glyph-name="Ycircumflex" unicode="&#x176;" horiz-adv-x="648" 
d="M282 608q28 0 38.5 -8.5t17.5 -33.5q33 -122 69 -202q13 -22 35 3q13 15 61 50q55 38 57 69q1 22 -14 31t-36 3q-22 -6 -27 18q-3 12 9.5 27t26.5 23q45 29 96 29q32 -1 55.5 -21t21.5 -51q-3 -40 -27.5 -67t-75.5 -61q-4 -2 -17.5 -11t-20 -13.5t-19 -13.5t-21.5 -16
t-20 -16.5t-20 -19.5q-30 -29 -46 -86q-23 -84 -25 -131q-3 -24 2.5 -34t24.5 -18q38 -16 35 -35q-2 -11 -13 -18.5t-27 -5.5q-53 6 -257 -2q-9 -1 -17 7t-7 19q2 12 16.5 20t27.5 10q50 7 71 56q18 57 36 154q8 44 -14 88q-47 112 -85 161q-17 23 -28 31t-35 12
q-15 2 -22.5 10.5t-5.5 16.5q4 26 34 26h146zM495 795q28 4 32 -22q4 -21 18.5 -51t16.5 -39q11 -22 -16 -33q-13 -5 -35 14q-4 4 -8.5 7.5t-10 7.5t-8.5 6q-17 13 -45 3q-8 -3 -31.5 -14.5t-28.5 -15.5q-27 -17 -42 -2q-19 17 16 44q36 23 80 64q23 23 62 31z" />
    <glyph glyph-name="ycircumflex" unicode="&#x177;" horiz-adv-x="562" 
d="M426 669q27 8 32 -23q3 -17 8 -35t11.5 -37.5l8.5 -25.5q10 -22 -16 -33q-18 -7 -36 14q-6 7 -15 13t-12 9q-15 13 -44 2q-35 -13 -61 -29q-27 -18 -42 -3q-18 18 16 45q11 6 46.5 32.5t45.5 36.5q25 25 58 34zM207 436q33 10 57.5 -6t16.5 -58q-6 -31 -15 -62t-22 -68.5
t-20 -62.5q-7 -22 1.5 -32.5t38.5 13.5q66 59 134 225q9 21 45 36.5t65 19.5q22 3 37 -5.5t4 -28.5q-19 -33 -47.5 -113t-38.5 -130q-15 -62 6 -154q15 -80 -37 -149t-137 -105t-173 -36q-210 0 -210 96q0 44 35 79.5t85 54.5q32 12 47 0q6 -5 7.5 -14.5t-4.5 -17.5
q-23 -32 -23 -72q0 -27 24 -41.5t60 -14.5q95 0 146 58.5t37 149.5q-11 65 11 136q5 15 -3 19.5t-18 -7.5q-21 -28 -34.5 -44.5t-41.5 -47t-55.5 -46.5t-52.5 -17q-29 -1 -45.5 23.5t-11.5 58.5q4 34 25 101.5t26 95.5q6 32 -11 32q-21 0 -43 -16q-17 -12 -38 1
q-6 4 -5.5 17.5t6.5 19.5q41 42 89.5 72t82.5 40z" />
    <glyph glyph-name="Ydieresis" unicode="&#x178;" horiz-adv-x="648" 
d="M282 608q28 0 38.5 -8.5t17.5 -33.5q33 -122 69 -202q13 -22 35 3q13 15 61 50q55 38 57 69q1 22 -14 31t-36 3q-22 -6 -27 18q-3 12 9.5 27t26.5 23q45 29 96 29q32 -1 55.5 -21t21.5 -51q-3 -40 -27.5 -67t-75.5 -61q-4 -2 -17.5 -11t-20 -13.5t-19 -13.5t-21.5 -16
t-20 -16.5t-20 -19.5q-30 -29 -46 -86q-23 -84 -25 -131q-3 -24 2.5 -34t24.5 -18q38 -16 35 -35q-2 -11 -13 -18.5t-27 -5.5q-53 6 -257 -2q-9 -1 -17 7t-7 19q2 12 16.5 20t27.5 10q50 7 71 56q18 57 36 154q8 44 -14 88q-47 112 -85 161q-17 23 -28 31t-35 12
q-15 2 -22.5 10.5t-5.5 16.5q4 26 34 26h146zM460 729q-3 -30 -31 -55t-56 -25q-37 0 -32 43q3 36 25.5 60t52.5 24q44 0 41 -47zM634 729q-2 -29 -31.5 -54.5t-58.5 -25.5q-32 0 -30 43q3 36 26 60t54 24q43 0 40 -47z" />
    <glyph glyph-name="Zacute" unicode="&#x179;" horiz-adv-x="702" 
d="M24 4q-2 42 17 86t42 49q31 7 79 41q92 64 126.5 89t85.5 69.5t102 99.5q20 21 -10 24q-20 1 -86 13t-108 11q-62 -2 -62 -44q0 -10 20 -39q5 -8 -1.5 -18.5t-17.5 -14.5q-12 -6 -31 3t-34 35q-22 37 -22 73q0 56 44.5 95t134.5 39q66 0 131 -13q70 -14 123 -14
q11 0 31 5t28 11q21 14 42.5 5t9.5 -31q-8 -17 -54 -76.5t-63 -76.5q-6 -5 -31 -30t-30 -29.5t-26 -24.5t-27.5 -26t-25 -23t-28.5 -24.5t-28 -22.5t-33 -25.5t-34 -24.5t-40 -28q-6 -5 -7.5 -10t2.5 -6.5t10 0.5q31 10 73 10q33 0 75 -15q66 -20 93 -20q80 0 117 45
q29 34 47 28q10 -1 15 -11.5t-2 -33.5q-24 -66 -79.5 -116.5t-104.5 -50.5q-16 0 -29.5 1t-26.5 4.5t-19 5t-19.5 7t-17.5 6.5q-46 18 -106 18q-75 0 -132 -21q-45 -20 -81 -20q-30 0 -32 16zM568 783q8 1 14 -4.5t6 -12.5q1 -6 -6 -14.5t-13 -11.5q-89 -44 -133 -73
q-25 -18 -41 -13q-6 2 -9 9.5t4 18.5q11 14 27.5 38.5t20.5 30.5q14 16 25 20q7 2 53 6.5t52 5.5z" />
    <glyph glyph-name="zacute" unicode="&#x17a;" horiz-adv-x="498" 
d="M8 8q0 40 41 86t77 56q24 6 41 18q19 14 26.5 19.5t15.5 11.5t14.5 12t12 11t19.5 18.5t26 24.5q6 7 3.5 13t-8.5 5q-36 -3 -63 12q-22 11 -38 11q-26 0 -61 -46q-15 -19 -36 -13q-11 3 -15 13t-1 19q18 46 59.5 100.5t73.5 54.5q26 0 58 -22q44 -32 74 -32q63 0 103 38
q27 28 45 21q7 -2 11 -11t-1 -21q-39 -62 -73 -94q-102 -93 -155 -136q-16 -13 4 -17q19 -3 44 -20q27 -18 52 -18q24 0 36 8t34 33q14 18 34 12q7 -2 12 -13t-1 -19q-9 -22 -42.5 -62.5t-59.5 -61.5q-23 -18 -34.5 -24t-26.5 -6q-25 0 -63 33q-16 12 -24.5 17t-26 10.5
t-40.5 5.5q-34 0 -85 -50q-27 -24 -44 -22q-18 5 -18 25zM481 651q8 1 15 -4.5t7 -12.5q1 -6 -6.5 -14t-13.5 -11q-78 -42 -161 -101q-26 -20 -42 -15q-6 2 -9.5 10t3.5 21q44 55 69 95q9 14 26 20q6 2 29 4.5t49 4.5t34 3z" />
    <glyph glyph-name="Zdotaccent" unicode="&#x17b;" horiz-adv-x="702" 
d="M24 4q-2 42 17 86t42 49q31 7 79 41q92 64 126.5 89t85.5 69.5t102 99.5q20 21 -10 24q-20 1 -86 13t-108 11q-62 -2 -62 -44q0 -10 20 -39q5 -8 -1.5 -18.5t-17.5 -14.5q-12 -6 -31 3t-34 35q-22 37 -22 73q0 56 44.5 95t134.5 39q66 0 131 -13q70 -14 123 -14
q11 0 31 5t28 11q21 14 42.5 5t9.5 -31q-8 -17 -54 -76.5t-63 -76.5q-6 -5 -31 -30t-30 -29.5t-26 -24.5t-27.5 -26t-25 -23t-28.5 -24.5t-28 -22.5t-33 -25.5t-34 -24.5t-40 -28q-6 -5 -7.5 -10t2.5 -6.5t10 0.5q31 10 73 10q33 0 75 -15q66 -20 93 -20q80 0 117 45
q29 34 47 28q10 -1 15 -11.5t-2 -33.5q-24 -66 -79.5 -116.5t-104.5 -50.5q-16 0 -29.5 1t-26.5 4.5t-19 5t-19.5 7t-17.5 6.5q-46 18 -106 18q-75 0 -132 -21q-45 -20 -81 -20q-30 0 -32 16zM507 742q-3 -29 -34 -51.5t-66 -22.5q-20 0 -32 12.5t-11 31.5q4 37 29.5 60
t62.5 23q24 0 38 -14.5t13 -38.5z" />
    </font>
</defs>
</svg>
