<?xml version="1.0" standalone="no"?>
<!DOCTYPE svg PUBLIC "-//W3C//DTD SVG 1.1//EN" "http://www.w3.org/Graphics/SVG/1.1/DTD/svg11.dtd" >
<svg xmlns="http://www.w3.org/2000/svg" xmlns:xlink="http://www.w3.org/1999/xlink" version="1.1">
<metadata>
Created by FontForge 20170731 at Thu Mar  7 20:22:04 2013
 By Aleksey,,,
Copyright (c) 2008 by Nathanael Bonnell. All rights reserved.
</metadata>
<defs>
<font id="NewtSerifDemi-Italic" horiz-adv-x="498" >
  <font-face 
    font-family="Newt Serif Demi"
    font-weight="400"
    font-style="italic"
    font-stretch="normal"
    units-per-em="1000"
    panose-1="2 0 5 3 7 0 0 9 0 4"
    ascent="705"
    descent="-295"
    x-height="435"
    cap-height="600"
    bbox="-231.065 -286.889 1018.29 838.296"
    underline-thickness="41"
    underline-position="-210"
    slope="-13"
    unicode-range="U+0020-FB02"
  />
<missing-glyph horiz-adv-x="582" 
d="M478 293q0 -102 18.5 -177t40.5 -97q9 -10 4 -18t-20 -4l-35 8q-63 14 -162 14q-48 0 -89 -4t-63 -8t-38.5 -7.5t-23 -3t-9.5 6.5q-2 5 3.5 13.5t14.5 27.5t18.5 47t16.5 82.5t7 124.5q0 195 -43 259l-17 25q-7 9 -3 17t21 5q79 -23 201 -23q56 0 108.5 6.5t77 12
t25.5 4.5t4 -3.5t3 -4v-6t-4 -12t-11 -18.5q-21 -31 -33 -114.5t-12 -152.5zM190 418q0 -31 18 -47t37 -16q14 0 32 4.5t30 12t9 14.5q-6 7 -22 0q-24 -4 -40 9t-16 35q0 26 19.5 46.5t56.5 20.5q40 0 60 -23t20 -50q0 -29 -13 -51.5t-43 -50.5q-18 -17 -25.5 -25.5
t-18.5 -32.5t-11 -52q0 -18 10 -18q12 0 13.5 14.5t9 41t29.5 47.5q11 11 47 38q72 56 57 117q-16 68 -124 68q-51 0 -93 -30.5t-42 -71.5zM258 95q0 -31 37 -31q13 0 28 9t15 29q0 12 -10.5 19t-25.5 7q-17 0 -30.5 -9.5t-13.5 -23.5z" />
    <glyph glyph-name=".notdef" horiz-adv-x="582" 
d="M478 293q0 -102 18.5 -177t40.5 -97q9 -10 4 -18t-20 -4l-35 8q-63 14 -162 14q-48 0 -89 -4t-63 -8t-38.5 -7.5t-23 -3t-9.5 6.5q-2 5 3.5 13.5t14.5 27.5t18.5 47t16.5 82.5t7 124.5q0 195 -43 259l-17 25q-7 9 -3 17t21 5q79 -23 201 -23q56 0 108.5 6.5t77 12
t25.5 4.5t4 -3.5t3 -4v-6t-4 -12t-11 -18.5q-21 -31 -33 -114.5t-12 -152.5zM190 418q0 -31 18 -47t37 -16q14 0 32 4.5t30 12t9 14.5q-6 7 -22 0q-24 -4 -40 9t-16 35q0 26 19.5 46.5t56.5 20.5q40 0 60 -23t20 -50q0 -29 -13 -51.5t-43 -50.5q-18 -17 -25.5 -25.5
t-18.5 -32.5t-11 -52q0 -18 10 -18q12 0 13.5 14.5t9 41t29.5 47.5q11 11 47 38q72 56 57 117q-16 68 -124 68q-51 0 -93 -30.5t-42 -71.5zM258 95q0 -31 37 -31q13 0 28 9t15 29q0 12 -10.5 19t-25.5 7q-17 0 -30.5 -9.5t-13.5 -23.5z" />
    <glyph glyph-name=".null" horiz-adv-x="0" 
 />
    <glyph glyph-name="nonmarkingreturn" horiz-adv-x="333" 
 />
    <glyph glyph-name="space" unicode=" " horiz-adv-x="237" 
 />
    <glyph glyph-name="exclam" unicode="!" horiz-adv-x="263" 
d="M170 564q4 16 11 23t19 11q39 10 80 10q22 0 24 -6q1 -6 -1 -14q-4 -14 -38 -87t-34 -74q-38 -95 -74 -225q-8 -25 -30 -29q-9 -2 -12.5 6t-0.5 24q38 193 41 216q14 142 15 145zM100 91q21 2 38.5 -8.5t17.5 -30.5q0 -49 -58 -60q-30 -3 -45.5 10t-15.5 33
q0 24 19.5 38.5t43.5 17.5z" />
    <glyph glyph-name="quotedbl" unicode="&#x22;" horiz-adv-x="311" 
d="M217 611q29 0 13 -34q-7 -15 -23.5 -49t-29 -62t-20.5 -53q-4 -13 -12 -21t-16 -8q-22 0 -15 29q9 49 9 159q0 14 4.5 21.5t9 9t15.5 3.5q25 5 65 5zM369 611q28 0 12 -34q-6 -14 -23 -49t-29 -62.5t-20 -52.5q-4 -14 -12.5 -21.5t-16.5 -7.5q-20 0 -15 29q9 44 9 159
q0 20 7 25.5t23 8.5q23 5 65 5z" />
    <glyph glyph-name="numbersign" unicode="#" horiz-adv-x="473" 
d="M66 417q13 17 44 17h38q8 0 11 3.5t5 12.5q0 1 0.5 2t0.5 2l29 115q5 23 27 26q8 2 13.5 -3t2.5 -21q0 -2 -3.5 -15.5t-10 -41t-12.5 -54.5q-1 -3 -2 -7.5t-1 -6v-4.5t1 -3t2.5 -1.5t4.5 -1.5h8q54 2 106 5q10 1 13 4.5t7 17.5q24 100 25 106q6 23 28 26q8 2 13.5 -3
t2.5 -21l-24 -107q-1 -3 -2 -7q-2 -10 2 -10l10 -1q1 0 11 1t15 2q38 6 43 0q3 -3 2 -10q-2 -7 -13.5 -19t-23.5 -18q-14 -7 -40 -7q-14 0 -17.5 -3t-7.5 -18l-36 -154q0 -2 -1 -5q-2 -8 -0.5 -10t11.5 -2t30 2q21 5 33.5 4.5t9.5 -13.5q-2 -7 -13 -19.5t-23 -18.5
q-13 -6 -42 -6q-13 0 -18 -5t-9 -22q-11 -57 -15 -71q-9 -39 -20 -47q-15 -12 -48 -17q-15 -1 -4 24q8 15 27 79q5 19 9 43q3 8 1 11.5t-14 3.5l-95 -2q-12 -1 -16 -4t-5 -16q-3 -13 -7 -31t-7 -29t-3 -15q-10 -39 -20 -47q-15 -11 -48 -17q-15 -1 -4 24q6 13 26 79
q5 14 9 37q3 18 -6 19q-17 1 -47 0q-15 -1 -19.5 4.5t1.5 14.5q14 23 46 23h25q4 0 7.5 1t5.5 2t3.5 3t2.5 3.5t2 4t1 3.5q9 29 21.5 84t19.5 83q3 16 -9 17q-23 1 -53 0q-16 -1 -20.5 5.5t3.5 19.5zM192 375q-6 -25 -18.5 -81.5t-20.5 -87.5q-2 -12 1 -13h12q88 3 101 4
q13 2 16 4t5 15l39 158q2 9 2 13t-2.5 5.5t-9.5 1.5q-40 0 -104 -2q-17 0 -21 -17z" />
    <glyph glyph-name="dollar" unicode="$" horiz-adv-x="374" 
d="M40 146q1 25 21.5 50t43.5 35q16 7 24 0q3 -1 2 -8.5t-5 -12.5q-19 -22 -7.5 -56t46.5 -34q79 0 81 55q1 34 -18.5 61.5t-62.5 60.5q-65 51 -65 119q0 26 31.5 59.5t75.5 46.5q3 1 7 2q9 2 12.5 5t6.5 14q4 11 13 46q8 25 31 30q19 3 13 -31l-11 -45q-2 -14 0 -15.5
t11 -3.5q55 -10 55 -51q0 -31 -34 -56q-18 -15 -26 -9q-7 4 -6 20q3 22 -7 40.5t-31 18.5q-27 0 -44 -13.5t-18 -36.5q-1 -40 68 -94q77 -60 74 -144q-3 -40 -35.5 -75.5t-87.5 -48.5q-2 -1 -7 -2t-5.5 -1t-3.5 -1.5t-3 -2t-2 -3.5t-2.5 -5t-2.5 -8q-2 -5 -15 -50
q-6 -24 -30 -30q-4 -1 -7.5 0.5t-7.5 8t1 22.5l11 50q3 13 2 15.5t-14 4.5q-72 15 -72 73z" />
    <glyph glyph-name="percent" unicode="%" horiz-adv-x="682" 
d="M117 -28q-21 4 5 41q7 10 19 25q49 64 187 252t174 241q19 28 42 73q8 12 23 9q5 -3 6 -6q-2 -49 -12 -78q-11 -33 -33 -63q-39 -48 -172 -218t-181 -235q-34 -43 -58 -41zM137 242q-32 0 -53 28t-20 80q1 91 65.5 173t123.5 82q41 0 58.5 -28.5t16.5 -64.5
q-1 -88 -64.5 -179t-126.5 -91zM222 544q-31 0 -55.5 -55t-25.5 -110q0 -69 32 -69q29 0 54.5 47.5t25.5 125.5q0 61 -31 61zM474 -16q-32 0 -53 28t-20 81q1 90 65 172.5t124 82.5q41 0 58.5 -28.5t16.5 -65.5q-2 -89 -65 -179.5t-126 -90.5zM559 286q-32 0 -56 -54.5
t-25 -110.5q-1 -69 32 -69q29 0 54 47.5t26 126.5q0 60 -31 60z" />
    <glyph glyph-name="ampersand" unicode="&#x26;" horiz-adv-x="483" 
d="M227 -8q-185 0 -185 147q0 71 60 129.5t128 79.5q14 6 14 11q0 9 -15 12q-72 19 -72 77q1 67 75 114t159 47q48 0 85.5 -19t36.5 -61q-1 -47 -60 -85q-22 -15 -39 -10q-6 2 -7.5 9.5t3.5 15.5q17 25 18 45q0 25 -18 41t-46 16q-38 0 -72 -28t-34 -73q0 -44 19.5 -60.5
t56.5 -17.5q26 0 38 2q8 1 14 -5t0 -19q-11 -22 -34 -23q-80 -4 -145 -59t-65 -129q0 -46 30 -74.5t72 -28.5q57 0 96 28t41 83q2 26 -11 42t-36 16q-25 0 -42 -12t-17 -33q0 -34 12 -41q5 -3 5 -11.5t-6 -12.5q-7 -5 -18.5 -0.5t-20.5 13.5q-20 21 -17 61q2 43 40 74.5
t98 31.5q109 0 105 -107q-4 -73 -84 -129.5t-162 -56.5z" />
    <glyph glyph-name="quotesingle" unicode="'" horiz-adv-x="160" 
d="M217 611q29 0 13 -34q-7 -15 -23.5 -49t-29 -62t-20.5 -53q-4 -13 -12 -21t-16 -8q-22 0 -15 29q9 49 9 159q0 14 4.5 21.5t9 9t15.5 3.5q25 5 65 5z" />
    <glyph glyph-name="parenleft" unicode="(" horiz-adv-x="301" 
d="M354 635q9 -19 -16 -43q-58 -52 -105.5 -157t-59.5 -214q-9 -58 -4.5 -133t23.5 -115q12 -22 -3 -34q-12 -9 -39 20q-42 41 -63.5 119.5t-10.5 163.5q19 120 84 220.5t141 157.5q40 31 53 15z" />
    <glyph glyph-name="parenright" unicode=")" horiz-adv-x="301" 
d="M-3 -56q-10 18 17 42q58 52 105.5 157.5t59.5 213.5q9 58 4 134t-24 116q-10 22 3 34q13 8 41 -20q41 -41 62.5 -120t10.5 -163q-19 -121 -84.5 -222t-141.5 -158q-41 -32 -53 -14z" />
    <glyph glyph-name="asterisk" unicode="*" horiz-adv-x="412" 
d="M280 519q-2 -6 -12.5 -26t-14.5 -33q-4 -8 0 -12t13 -2q59 8 112 31q27 12 32.5 -3t-4.5 -37q-15 -38 -66 -38q-7 -1 -30 -1h-36q-17 0 -11 -17q25 -53 61 -99q14 -16 10.5 -24.5t-15 -11.5t-26.5 -1q-38 1 -59 53q-9 22 -24 72q-4 13 -21 6q-25 -13 -97 -79
q-23 -19 -33.5 -9.5t-9.5 34.5q-1 22 9.5 35t34.5 23q40 20 68 29q8 3 8 9.5t-5 10.5q-41 35 -103 59q-43 17 8 43q38 18 73 -11q14 -11 46 -51q4 -6 11.5 -3.5t10.5 12.5q11 48 9 108q-1 15 3.5 21t13 4t17 -6.5t17.5 -12.5q15 -15 17 -31.5t-7 -41.5z" />
    <glyph glyph-name="plus" unicode="+" horiz-adv-x="455" 
d="M73 269q-16 0 -21.5 6.5t1.5 16.5q12 19 45 19q47 0 113 2q12 1 15.5 4.5t6.5 15.5q15 59 24 98q7 32 28 42q12 5 18 -1.5t3 -22.5q-21 -87 -26 -111q-2 -15 0.5 -18.5t12.5 -3.5q15 1 30 2.5t34 4t33 3.5q4 0 10.5 1t10 1.5t9 0.5t7 -0.5t5 -2t3 -4t-0.5 -6.5
q-2 -7 -12.5 -19t-23.5 -18q-13 -7 -39 -7q-7 0 -17 -0.5t-27 -1t-30 -0.5q-12 -1 -16 -4t-6 -16q-4 -20 -11 -50t-8 -37q-6 -25 -15 -38q-8 -11 -23.5 -19t-22.5 -8q-3 0 -5.5 0.5t-3.5 2t-1.5 3.5t0 4.5l1 5t2 6.5t2.5 7t3 7.5t3 8.5q5 20 15.5 56t14.5 54q4 12 1 14.5
t-16 2.5q-54 -1 -126 -1z" />
    <glyph glyph-name="comma" unicode="," horiz-adv-x="240" 
d="M31 -1q-8 10 0 22q54 72 97 72q25 0 39 -14.5t14 -38.5q0 -48 -40.5 -109t-88.5 -104q-20 -20 -32 -11q-8 5 -9 13.5t5 14.5q29 32 42 47.5t27 44t13 54.5q-1 11 -8.5 15t-16 2.5t-17.5 -6.5q-15 -10 -25 -2z" />
    <glyph glyph-name="hyphen" unicode="-" horiz-adv-x="305" 
d="M77 298q2 0 68 6t92 16q30 11 31.5 -2t-12.5 -34q-18 -37 -74 -38q-60 -2 -118 -2q-36 0 -23 28q8 19 36 26z" />
    <glyph glyph-name="period" unicode="." horiz-adv-x="218" 
d="M107 96q21 2 39.5 -9t18.5 -31q0 -54 -61 -64q-31 -3 -47.5 11t-16.5 35q0 24 21 39.5t46 18.5z" />
    <glyph glyph-name="slash" unicode="/" horiz-adv-x="366" 
d="M-3 -28q-20 4 0 35q8 12 23 31q48 62 186.5 250.5t174.5 242.5q16 22 42 73q10 13 24 9q6 -2 6 -6q-2 -49 -12 -78q-11 -34 -34 -63q-42 -52 -173.5 -220.5t-178.5 -232.5q-35 -43 -58 -41z" />
    <glyph glyph-name="zero" unicode="0" horiz-adv-x="517" 
d="M345 606q81 0 122.5 -53t39.5 -141q-4 -179 -88.5 -302.5t-195.5 -123.5q-55 0 -92 21t-52.5 56t-21 66t-4.5 66q6 170 91.5 290.5t200.5 120.5zM330 551q-39 0 -71 -29.5t-52 -78.5t-32 -104.5t-16 -114.5q-7 -100 11.5 -142.5t61.5 -42.5q63 0 111.5 90t61.5 271
q5 70 -17 110.5t-58 40.5z" />
    <glyph glyph-name="one" unicode="1" horiz-adv-x="356" 
d="M97 -8q-15 -3 -22.5 7.5t-0.5 29.5q21 49 79.5 209t74.5 210q4 12 -2 15.5t-16 -5.5q-38 -27 -101 -87q-16 -16 -30 4q-4 3 -1.5 15t11.5 20q69 53 185 169q11 11 37 20t41 9t16 -7.5t-9 -28.5q-1 -2 -1.5 -3.5t-1.5 -4t-2 -4.5q-56 -141 -89 -248t-59 -246
q-3 -17 -4.5 -23t-8.5 -14.5t-23 -16.5q-23 -12 -73 -20z" />
    <glyph glyph-name="two" unicode="2" horiz-adv-x="523" 
d="M237 649q19 -6 9 -22q-29 -58 8 -58q24 0 84 17q51 17 78 17q39 0 61 -20.5t22 -57.5q-19 -119 -144 -239q-79 -75 -153 -133q-27 -20 -14 -21q6 -1 18 4q22 10 52 10q33 0 62 -23q24 -17 59 -17q21 0 38.5 10.5t21.5 26.5q0 7 7 18.5t14 11.5q12 1 16.5 -8.5t4.5 -23.5
q0 -43 -43 -96t-106 -53q-22 0 -41 16q-45 42 -99 42q-40 0 -83.5 -12.5t-61.5 -27.5q-11 -9 -26.5 -13.5t-28.5 4.5q-12 11 5 45q7 18 22.5 38t25.5 25q17 9 35 13q27 7 42 15t39 27q76 58 160 151t84 149q0 18 -13 29t-31 11q-31 0 -85 -19q-36 -14 -79 -14q-25 0 -34 20
t-5 51q4 34 45 86q21 25 34 21z" />
    <glyph glyph-name="three" unicode="3" horiz-adv-x="471" 
d="M116 -8q-54 0 -84 18t-30 51q0 31 24.5 58t56.5 40q16 8 27.5 2t2.5 -22q-20 -29 -2.5 -57t64.5 -28q68 0 112.5 36.5t44.5 93.5q0 81 -96 81q-57 0 -67.5 10t6.5 42q20 41 46 42q51 2 96 34t45 68q0 44 -52 44q-30 0 -59 -13q-38 -17 -72 -17q-28 0 -44.5 17t-14.5 49
q4 39 45 90q22 26 33 21q8 -6 7.5 -15t-5.5 -14q-11 -22 -11.5 -32.5t7.5 -18.5q21 -12 99 16q38 10 71 10q48 0 66 -27t18 -59q0 -80 -112 -147q-39 -24 -21 -29q5 -2 15 -3q47 -5 71.5 -37t24.5 -80q0 -75 -92 -149.5t-220 -74.5z" />
    <glyph glyph-name="four" unicode="4" horiz-adv-x="550" 
d="M313 483q24 22 46 54q24 38 48 46q7 2 19 4.5t23 4t12 1.5q16 2 23.5 -1.5t6.5 -14.5t-5.5 -23.5t-14.5 -33.5q-7 -16 -33.5 -123.5t-32.5 -154.5q-1 -5 7 -7l31 -1q34 0 60 35q13 18 29 10q8 -6 5 -16q-20 -60 -58 -98q-15 -17 -30 -17q-7 0 -19 1t-19 1q-12 0 -19 -8
t-11 -29q-12 -57 -11 -75q2 -29 -22 -48q-16 -13 -44 -21.5t-44 -8.5q-22 0 -22 22q0 16 23 69q14 34 24 90q3 13 0.5 16t-12.5 4q-3 1 -5 1q-15 3 -56 3q-28 0 -68 -9t-67 -9q-24 0 -31 3.5t-7 12.5q0 35 12 62q11 21 37 49q187 171 225 209zM366 452q3 16 -1 17.5
t-19 -11.5q-36 -32 -65 -59.5t-72.5 -69.5t-71.5 -69q-8 -10 -3.5 -15t16.5 -5t36 4t33 4q46 0 68 -7q10 -4 16 -1t11 16q22 58 52 196z" />
    <glyph glyph-name="five" unicode="5" horiz-adv-x="468" 
d="M444 637q7 -2 8.5 -13.5t-2.5 -25.5q-2 -7 -15.5 -43t-17.5 -45q-22 -37 -83 -37q-39 0 -102 30q-27 14 -38 -6q-5 -9 -23 -57q-7 -23 19 -28q74 -17 118 -36q60 -24 93.5 -58t33.5 -89q0 -84 -88 -162.5t-203 -78.5q-123 0 -123 73q0 51 68 93q27 16 44 7q6 -4 -3 -34
q-11 -31 3 -55t57 -24q58 0 109 39t51 102q0 40 -16.5 58t-58.5 38q-13 6 -27.5 11.5t-25.5 9t-30 8.5t-29 7.5t-34 8t-35 7.5q-27 5 -12 29q14 23 51.5 108t44.5 98q8 18 14.5 22.5t30.5 4.5q18 0 70 -14q24 -8 50 -8h8.5h9t8 0.5t8.5 1t8 2.5t8 4.5t7 6t7 8t6.5 11
t6.5 14.5q2 6 9.5 10t14.5 2z" />
    <glyph glyph-name="six" unicode="6" horiz-adv-x="501" 
d="M461 613q4 -7 2.5 -14t-14.5 -16t-37 -18q-111 -41 -189.5 -136t-80.5 -204q-2 -169 111 -169q53 0 87.5 50.5t35.5 121.5q1 45 -17.5 74.5t-50.5 29.5q-30 0 -55 -11q-31 -18 -38 -5q-7 15 23 38q69 44 123 44q51 0 78.5 -35.5t26.5 -89.5q-2 -103 -82 -194.5
t-181 -91.5q-68 0 -112 54.5t-42 145.5q2 134 104.5 249.5t237.5 163.5q60 24 70 13z" />
    <glyph glyph-name="seven" unicode="7" horiz-adv-x="473" 
d="M135 -33q-17 -3 -27.5 6.5t-10.5 34.5q0 46 64.5 158.5t119.5 190.5t101 138q13 17 9 20.5t-30 -3.5q-108 -27 -170 -27q-42 0 -58.5 16t-16.5 50q0 24 9 43t29 48q6 9 15.5 14.5t16.5 4.5q14 -6 7 -28q-9 -27 12 -37t93 -10q15 0 28 0.5t28 2t23 2.5t27 4.5t25 5
t31.5 6.5t33.5 7q25 6 31.5 -7t-7.5 -25q-105 -109 -197.5 -263.5t-92.5 -249.5q0 -39 -2.5 -47.5t-17.5 -20.5q-11 -9 -34.5 -20t-38.5 -14z" />
    <glyph glyph-name="eight" unicode="8" horiz-adv-x="511" 
d="M211 -15q-77 0 -126.5 36.5t-49.5 101.5q0 57 35 108t89 78q12 5 16.5 7.5t5 10t-10.5 16.5q-13 11 -24.5 34t-11.5 52q0 81 71 130.5t154 49.5q60 0 99 -28.5t39 -83.5q0 -86 -90 -145q-16 -10 -16 -15.5t16 -15.5q66 -44 66 -122q-1 -63 -41 -113t-99 -75.5t-122 -25.5
zM261 40q47 0 87.5 35t40.5 82q0 21 -10 40t-20 30t-36.5 25.5t-36 19t-42.5 18.5q-22 9 -40 -1q-30 -16 -52.5 -56.5t-22.5 -91.5q0 -43 34 -72t98 -29zM374 378q38 38 38 97q0 41 -27 61t-64 20q-46 0 -75 -26.5t-29 -71.5q0 -12 3 -22.5t13 -19.5t15 -14t23 -14t22.5 -11
t26.5 -11q29 -13 54 12z" />
    <glyph glyph-name="nine" unicode="9" horiz-adv-x="493" 
d="M93 -27q-7 3 -4 16.5t17 20.5q127 64 202.5 164t83.5 233q4 74 -13 106.5t-57 32.5q-59 0 -104.5 -49t-46.5 -138q0 -94 101 -64q20 7 32 -7q2 -3 -5 -12.5t-19 -17.5q-46 -31 -102 -31q-49 0 -77 34t-28 82q-1 95 83 175.5t190 80.5q67 0 107 -39t39 -109
q-5 -145 -100 -273t-248 -194q-42 -18 -51 -11z" />
    <glyph glyph-name="colon" unicode=":" horiz-adv-x="239" 
d="M107 96q21 2 39.5 -9t18.5 -31q0 -54 -61 -64q-31 -3 -47.5 11t-16.5 35q0 24 21 39.5t46 18.5zM166 396q22 1 40 -10t18 -31q0 -54 -62 -64q-31 -3 -47 11t-16 36q0 24 21 39.5t46 18.5z" />
    <glyph glyph-name="semicolon" unicode=";" horiz-adv-x="242" 
d="M165 396q22 1 40 -10t18 -31q0 -30 -18.5 -45t-42.5 -19q-32 -3 -48 11t-16 36q0 24 21 39.5t46 18.5zM31 -1q-8 10 0 22q54 72 97 72q25 0 39 -14.5t14 -38.5q0 -48 -40.5 -109t-88.5 -104q-20 -20 -32 -11q-8 5 -9 13.5t5 14.5q29 32 42 47.5t27 44t13 54.5
q-1 11 -8.5 15t-16 2.5t-17.5 -6.5q-15 -10 -25 -2z" />
    <glyph glyph-name="less" unicode="&#x3c;" horiz-adv-x="362" 
d="M66 249q209 106 215 110q4 2 12.5 8.5t19 14t13.5 9.5q5 5 11 8t10 1.5t4 -9.5q2 -17 -15 -46q-14 -18 -47 -33q-110 -50 -173 -82q-12 -9 -5 -17q4 -5 35.5 -25t72.5 -45.5t46 -28.5q28 -16 -1 -32q-20 -9 -32 -1q-13 9 -195 120q-9 5 -2 20q6 11 11 15t20 13z" />
    <glyph glyph-name="equal" unicode="=" horiz-adv-x="488" 
d="M51 123q-33 0 -20 22q15 19 46 19q150 2 293 15q36 4 40 2q5 -3 2 -12q-1 -6 -12 -16.5t-24 -16.5q-19 -11 -39 -11q-25 0 -144 -1t-142 -1zM96 288q-16 0 -22 6t2 16q15 21 46 21q131 1 292 14q38 4 42 1q3 -4 1 -10q-2 -7 -13 -20t-24 -19q-13 -7 -40 -7
q-24 0 -142.5 -1t-141.5 -1z" />
    <glyph glyph-name="greater" unicode="&#x3e;" horiz-adv-x="362" 
d="M300 219q-209 -106 -215 -110q-4 -2 -21.5 -15t-23.5 -17q-5 -5 -11 -8t-10 -1.5t-4 9.5q-2 17 15 46q14 18 47 33q110 50 173 82q12 9 5 17q-4 5 -35.5 25t-72.5 45.5t-46 28.5q-28 16 1 32q20 9 32 1q13 -9 195 -120q9 -5 2 -20q-6 -11 -11 -15t-20 -13z" />
    <glyph glyph-name="question" unicode="?" horiz-adv-x="376" 
d="M152 167q-8 0 -13 8.5t-3 15.5q17 87 95 147q106 82 106 153q0 24 -17.5 47.5t-56.5 23.5q-42 0 -71.5 -22t-29.5 -59q0 -28 8.5 -37t28.5 -12q4 -1 7.5 -1.5t5 -0.5t3 -0.5t2.5 -1t1.5 -2t2.5 -3.5q4 -6 2.5 -10t-10.5 -10q-33 -22 -61 -22t-51.5 20.5t-23.5 59.5
q0 49 57.5 95.5t143.5 46.5q155 0 153 -90q0 -19 -2.5 -34t-11.5 -30.5t-14.5 -24.5t-24.5 -25t-26 -21.5t-35 -25.5t-37 -27q-80 -59 -98 -134q-7 -24 -30 -24zM138 96q21 2 39.5 -9t18.5 -31q0 -54 -61 -64q-31 -3 -47 11t-16 35q0 24 20.5 39.5t45.5 18.5z" />
    <glyph glyph-name="at" unicode="@" horiz-adv-x="755" 
d="M439 -8q-37 0 -40 36t18 93q5 14 0 16q-9 4 -20 -12q-14 -22 -53 -63.5t-61 -55.5q-38 -24 -61.5 -7.5t-23.5 66.5q0 104 52 212q43 89 141 144q34 19 70 10q26 -6 45 -17q15 -9 34 9l14 14t18 20q19 22 32 16q4 -2 4.5 -11t-3.5 -17q-29 -44 -45 -86q-31 -78 -61 -209
q-9 -33 -4.5 -45.5t14.5 -11.5t26 12q62 46 105 131t43 169q0 101 -53 147t-138 46q-97 0 -183.5 -61.5t-139.5 -165.5t-55 -221q-1 -75 14 -132t39 -90t59 -54t68 -28.5t70 -7.5q67 0 127 24.5t86 54.5q22 22 32 10q11 -11 -5 -32q-46 -56 -118.5 -94t-165.5 -38
q-56 0 -107 19.5t-95 58.5t-70 107t-26 156q0 136 67.5 260.5t179 200t233.5 75.5q98 0 162.5 -54.5t64.5 -168.5q0 -235 -231 -405q-26 -20 -59 -20zM333 108q28 26 44.5 46.5t43.5 64.5q26 41 46 113q7 27 -10 38q-10 7 -38 13q-32 5 -60 -37q-26 -37 -47.5 -103.5
t-21.5 -106.5q0 -29 10 -37.5t33 9.5z" />
    <glyph glyph-name="A" unicode="A" horiz-adv-x="682" 
d="M492 593q8 -82 34.5 -262.5t31.5 -203.5q7 -30 10.5 -42.5t17.5 -27t38 -22.5q17 -5 17 -18q-2 -20 -30 -19q-50 4 -204 -1q-8 0 -14 4.5t-6 11.5q0 17 15 22q26 7 37 17.5t13 28.5q1 14 -2 45.5t-6 41.5q-2 11 -20 15q-21 2 -98.5 2.5t-94.5 -1.5q-32 -1 -42 -15
q-38 -47 -46 -87q-3 -16 10 -30t33 -17q9 -2 16 -8.5t6 -13.5q-2 -7 -13 -11.5t-23 -2.5q-72 7 -144 1q-41 -4 -41 8q0 9 11.5 22.5t31.5 30.5t25 23q53 60 145.5 186t151.5 216q24 39 32 61q13 36 68 59q36 16 40 -13zM399 459q-11 0 -32 -30q-82 -115 -124 -182
q-5 -9 -6 -13t1.5 -7t10.5 -3q59 -4 171 -2q11 0 15 5t3 20q-1 10 -5.5 53.5t-9 77t-11.5 59.5q-2 22 -13 22z" />
    <glyph glyph-name="B" unicode="B" horiz-adv-x="594" 
d="M192 471q10 45 2 66q-7 18 -43 17q-39 -2 -39 16q0 20 32 23q99 11 179 11q130 0 180 -21q61 -26 56 -85q-3 -36 -29 -69t-68 -55q-14 -7 -11.5 -15t20.5 -9q47 -1 71 -30t24 -73q-1 -39 -22 -83.5t-57 -84t-91 -65t-115 -25.5q-121 0 -174 42q-25 16 -8 77q14 60 46 179
t47 184zM201 98q-5 -29 16.5 -46.5t69.5 -17.5q78 0 125.5 60.5t47.5 139.5q0 58 -26.5 75.5t-86.5 12.5q-17 -2 -26.5 1.5t-10.5 10t1 12.5q5 12 14 17t29 7q41 4 70 33t33 75q2 24 -4.5 41t-17.5 26t-29 13.5t-32 5t-34 0.5q-21 -1 -28 -7.5t-12 -26.5q-78 -300 -99 -432z
" />
    <glyph glyph-name="C" unicode="C" horiz-adv-x="541" 
d="M253 -11q-50 0 -88 19.5t-59.5 50.5t-32 65.5t-10.5 69.5q0 77 24.5 145.5t62.5 116.5t84.5 83.5t91 52.5t81.5 17q127 0 127 -64q0 -28 -17 -57.5t-47 -47.5q-27 -15 -36 -6q-10 14 1 32q6 11 9 30.5t-9.5 39t-44.5 19.5q-63 0 -115 -49t-79 -122.5t-27 -152.5
q0 -180 125 -180q92 0 161 64q26 24 38 16q15 -11 -7 -35q-103 -107 -233 -107z" />
    <glyph glyph-name="D" unicode="D" horiz-adv-x="644" 
d="M113 577q0 20 31 23q83 9 194 9q74 0 119 -5q74 -9 123 -63.5t49 -140.5q0 -101 -50 -196.5t-132.5 -154.5t-171.5 -59q-105 0 -160 43q-24 15 -7 76q15 65 47.5 185.5t46.5 181.5q10 47 3 66q-9 22 -53 20q-39 -2 -39 15zM307 536q-61 -229 -94 -432q-5 -32 10 -50.5
t62 -18.5q70 0 124.5 53t82 126.5t33.5 155.5q15 175 -116 196q-30 5 -61 4q-21 -1 -28 -7.5t-13 -26.5z" />
    <glyph glyph-name="E" unicode="E" 
d="M227 -8q-185 0 -185 147q0 70 59.5 126.5t128.5 77.5q14 6 14 11q0 8 -15 12q-72 16 -72 82q1 67 75 114t159 47q23 0 41.5 -2.5t38 -9t30 -21t9.5 -36.5q0 -13 -7 -26t-11 -18t-21 -19.5t-18 -15.5q-21 -15 -35 -9q-14 7 -2 24q12 18 13 39q1 24 -17 36.5t-48 12.5
q-37 0 -71.5 -29.5t-34.5 -74.5q0 -46 17.5 -65t58.5 -19q26 0 38 2q8 1 14 -4.5t0 -18.5q-12 -23 -34 -23q-79 -4 -139 -56.5t-60 -126.5q0 -50 24.5 -72.5t75.5 -22.5q55 0 101 26.5t69 60.5q5 7 14 11t16 0q19 -11 4 -31q-35 -55 -104 -92t-126 -37z" />
    <glyph glyph-name="F" unicode="F" horiz-adv-x="551" 
d="M120 588q8 19 44 16q46 -6 105 -6q47 0 173.5 4t130.5 4q35 0 45.5 -13.5t6.5 -35.5q-2 -23 -15.5 -53t-32.5 -51q-16 -19 -30 -11q-10 5 -2 21q16 38 -6 68t-55 30q-132 0 -155 -5q-13 -4 -18.5 -8.5t-7.5 -15.5l-38 -157q-7 -14 -2 -25t34 -11q59 0 73 2q36 4 52 17.5
t30 50.5q6 15 12 16q5 2 15 2q14 0 4 -34q-24 -66 -44 -154q-7 -20 -27 -22q-4 0 -7.5 6.5t-2.5 14.5q3 45 -37 54q-49 13 -88 10q-17 -1 -24 -6t-11 -19q-7 -21 -15 -57t-14 -68t-7 -36q-9 -56 33 -70q52 -16 49 -32q-2 -8 -12.5 -13.5t-22.5 -4.5q-43 7 -115 9
q-24 1 -51.5 -0.5t-52.5 -4.5t-26 -3q-8 -1 -12.5 3t-3.5 12q0 18 43 29q18 5 30.5 16.5t17.5 20t15 30.5q12 22 47.5 174.5t47.5 213.5q11 57 -62 70q-11 4 -11 22z" />
    <glyph glyph-name="G" unicode="G" horiz-adv-x="635" 
d="M440 609q73 0 116.5 -23t41.5 -63q-1 -59 -69 -90q-31 -16 -42 -5q-8 9 3 27q17 30 6 65q-7 17 -27 28t-46 11q-43 0 -84 -16t-78 -48.5t-62 -92.5t-31 -139q-7 -99 34 -163.5t109 -64.5q39 0 68.5 14.5t45.5 37t24 45.5t9 44q1 61 -27 82.5t-84 24.5q-10 0 -23 7t-13 18
q0 16 37 14q57 -3 140.5 -2t115.5 3q15 1 22.5 -3.5t7.5 -11.5q-1 -9 -9 -15.5t-17 -6.5q-25 0 -40 -5.5t-17.5 -13.5t3.5 -18q18 -28 11 -64q-16 -97 -90 -147t-180 -50q-53 0 -95.5 18t-68.5 45.5t-43 62t-23 66.5t-5 61q8 170 121 269t259 99z" />
    <glyph glyph-name="H" unicode="H" horiz-adv-x="767" 
d="M630 498q3 19 -2 33.5t-20 23t-19.5 10t-18.5 6.5q-14 4 -12 18q6 20 43 15q23 -2 95.5 -2t112.5 2q16 1 22 -3t3 -15q-3 -13 -27 -18q-33 -6 -49.5 -22.5t-28.5 -51.5q-8 -21 -47 -183t-41 -202q-5 -52 28 -66l12 -4t12.5 -5t6.5 -6.5t2 -11.5q-2 -9 -12.5 -14t-26.5 -3
q-49 6 -224 -2q-9 -1 -14 2.5t-4 11.5q0 21 44 28q44 5 70 70q9 20 47 181q9 29 -20 30q-145 3 -289 0q-20 -1 -25 -25q-35 -154 -36 -186q-5 -53 28 -66l12 -4t12 -5t6.5 -6.5t2.5 -11.5q-2 -9 -12.5 -14t-26.5 -3q-47 6 -225 -2q-8 -1 -13 2.5t-4 11.5q0 21 44 28
q45 5 69 70q11 25 51 191.5t45 197.5q3 19 -2 33.5t-20 23t-19.5 10t-18.5 6.5q-14 4 -12 18q3 20 43 15q23 -2 95 -2t113 2q16 1 21.5 -3t3.5 -15q-4 -13 -27 -18q-33 -6 -49.5 -22.5t-28.5 -51.5q-7 -17 -30 -108q-3 -22 15 -22q143 -5 287 0q30 0 33 23q17 67 25 111z
" />
    <glyph glyph-name="I" unicode="I" horiz-adv-x="339" 
d="M201 494q3 8 1 15.5t-2 13t-5 11t-6.5 8.5t-8 7t-9 5.5t-9 4t-8.5 3.5t-7 2.5t-6 1.5q-14 5 -12 19q3 20 43 15q23 -2 95 -2t113 2q16 1 21.5 -3t3.5 -15q-4 -15 -27 -18q-33 -6 -49.5 -22.5t-28.5 -51.5q-8 -22 -47 -181.5t-41 -199.5q-5 -53 28 -66l12 -4t12 -5
t6.5 -6.5t2.5 -11.5q-2 -9 -12.5 -14t-26.5 -3q-47 6 -225 -2q-8 -1 -13 2.5t-4 11.5q0 21 44 28q45 5 69 70q11 25 51 190t45 195z" />
    <glyph glyph-name="J" unicode="J" horiz-adv-x="328" 
d="M171 603q22 -3 95.5 -3t113.5 3q17 1 22.5 -3.5t3.5 -15.5q-4 -13 -27 -18q-49 -8 -72 -74q-3 -2 -17.5 -57t-34 -133.5t-29.5 -113.5q-22 -85 -58 -164q-39 -83 -114 -153.5t-151 -70.5q-33 0 -51 18.5t-18 47.5q0 21 12.5 47t33.5 43q25 20 41 7q7 -6 2 -21
q-8 -24 5 -38t34 -14q31 0 56 15.5t42 45t25.5 51.5t18.5 54q23 77 60 231t46 210q1 10 -0.5 18.5t-4.5 15t-9.5 12t-11.5 9t-13 7t-12 5t-11 3.5t-8 2q-14 4 -12 19q6 18 43 15z" />
    <glyph glyph-name="K" unicode="K" horiz-adv-x="711" 
d="M170 600q22 -2 95 -2t113 2q16 1 22 -3t3 -15q-3 -15 -27 -18q-33 -6 -49.5 -22.5t-28.5 -51.5q-15 -39 -41 -163q-2 -8 7 -8q6 0 12 6q93 89 211 192q102 87 157 87q36 0 51 -10.5t15 -38.5q0 -16 -8 -41.5t-18 -37.5q-21 -28 -38 -25q-9 3 -10 25q0 13 -8.5 21.5
t-23.5 8.5q-37 0 -90 -34q-76 -51 -139 -116q-14 -16 -5 -34q37 -86 114 -188q47 -62 98 -62q45 0 75 10q10 3 20 -0.5t12 -10.5q2 -17 -19 -29q-100 -51 -134 -51q-71 0 -109 50q-48 63 -73.5 104.5t-62.5 115.5q-8 15 -15.5 16t-18.5 -8q-5 -3 -9 -7.5t-6 -7.5t-4 -10
t-2.5 -8.5t-2.5 -9.5l-2 -9q-18 -83 -19 -108q-5 -53 28 -66l12 -4t12 -5t6.5 -6.5t2.5 -11.5q-2 -9 -12.5 -14t-26.5 -3q-47 6 -225 -2q-8 -1 -13 2.5t-4 11.5q0 21 44 28q45 5 69 70q11 24 50 189t44 196q3 8 1 15.5t-2 13t-5 11t-6.5 8.5t-8 7t-9 5.5t-9 4t-8.5 3.5
t-7 2.5t-6 1.5q-14 5 -12 19q6 20 43 15z" />
    <glyph glyph-name="L" unicode="L" horiz-adv-x="555" 
d="M168 603q23 -3 95 -3t113 3q16 1 22 -3.5t4 -15.5q-4 -13 -27 -18q-33 -6 -50 -22.5t-29 -51.5q-3 -7 -18.5 -69t-37 -151t-34.5 -153q-7 -27 -3.5 -40t23.5 -19q31 -9 89 -9q140 0 197 114q10 22 30 20q19 -2 5 -44q-10 -30 -39 -74.5t-65 -63.5q-29 -9 -60 -6
q-27 2 -73 6t-78.5 5t-79.5 0q-24 0 -54 -2.5t-55.5 -5.5t-26.5 -3q-19 0 -19 16q0 18 42 29q21 5 33 14.5t16.5 18t12.5 29.5q23 60 56 202.5t41 190.5q8 52 -58 71q-1 0 -1.5 0.5t-1.5 0.5q-12 4 -12 19q6 18 43 15z" />
    <glyph glyph-name="M" unicode="M" horiz-adv-x="953" 
d="M175 588q4 15 34 15q107 0 132 -5q60 -11 63 -68q3 -33 27 -196t32 -192q1 -4 4 -6.5t7 -1.5t8 8q187 312 209 355q27 55 54 78.5t71 26.5q28 2 110 2q21 0 15 -21q-3 -14 -21 -19q-49 -13 -63.5 -26t-16.5 -46q-9 -142 -5 -388q0 -30 13 -44t42 -21q9 -3 14.5 -12.5
t2.5 -16.5q-9 -15 -27 -12q-82 12 -213 2q-35 -3 -35 14q0 19 23 25q70 21 74 72q10 131 8 338q0 10 -4 11.5t-9 -2t-9 -9.5q-30 -48 -113 -192.5t-120 -219.5q-11 -15 -19 -21q-40 -29 -88 -29q-8 0 -11.5 3.5t-4.5 14.5q-2 25 0 48q1 65 -13 185.5t-31 205.5q-2 7 -3 10
t-4 6t-7.5 -1t-10.5 -15q-70 -156 -116 -269q-19 -50 -16 -94q3 -32 52 -46q25 -6 27 -26q0 -13 -33 -11q-32 4 -84 4t-79 -2q-39 -4 -42 4q-2 9 7 23.5t24 32.5t19 24q54 89 121 211t87 177q27 81 -65 92q-22 3 -17 24z" />
    <glyph glyph-name="N" unicode="N" horiz-adv-x="710" 
d="M101 592q5 12 40 12q63 0 120 -11q29 -7 55 -21.5t49 -38t41.5 -46t37.5 -58t31 -58.5t28 -63.5t22.5 -58t19.5 -55.5q7 -26 16 -26q3 -1 7 5.5t7 15.5q45 182 49 290q1 41 -18 61.5t-60 27.5q-15 3 -20 8t-3 12q2 6 4 9t11 5.5t25 1.5q78 -9 149 -1q9 1 17.5 -1.5
t13 -10t-7.5 -21.5q-30 -45 -39 -78q-3 -14 -22 -90t-29 -117.5t-24 -113t-23 -131.5q-3 -19 -6 -24t-15 -9q-23 -8 -65 -11h-15.5t-11 4.5t-4.5 14.5q-1 64 -38 170.5t-86.5 192.5t-82.5 95q-23 4 -27 -12q-58 -259 -63 -306q-7 -43 7 -74.5t51 -39.5q10 -1 20 -9t9 -16
q-1 -10 -15 -14.5t-29 -2.5q-52 5 -167 -2q-13 0 -16 7t1 16.5t12 19.5q31 41 41 65q48 112 102 370q9 42 -10 62.5t-60 28.5q-14 3 -23.5 11t-5.5 15z" />
    <glyph glyph-name="O" unicode="O" horiz-adv-x="688" 
d="M424 614q121 0 183 -72.5t60 -172.5q-3 -94 -48 -182t-126 -146t-175 -58q-72 0 -123.5 25t-76.5 66t-36 80.5t-11 81.5q0 90 49 177.5t131.5 144t172.5 56.5zM184 260q-3 -64 11.5 -111.5t39.5 -71t49 -34t46 -10.5q32 0 67 17t69.5 52t59 99.5t30.5 147.5q7 93 -31 154
t-118 61q-30 0 -64.5 -16.5t-70 -50t-60 -96t-28.5 -141.5z" />
    <glyph glyph-name="P" unicode="P" horiz-adv-x="552" 
d="M128 589q6 20 43 15q44 -4 86.5 -4t95.5 2t87 2q63 1 104.5 -32.5t41.5 -95.5q0 -84 -81 -147.5t-176 -63.5q-16 0 -26 7t-8 17q5 22 32 22q71 0 113 45t42 112q0 56 -29.5 75t-88.5 17q-35 -2 -43 -8q-11 -11 -20 -40q-22 -71 -50.5 -204.5t-38.5 -198.5q-5 -53 42 -66
q2 -1 7.5 -2t8 -2t7 -2.5t6.5 -3.5l4.5 -4.5t3.5 -5.5t0 -7q-1 -9 -12 -14t-26 -3q-52 6 -244 -2q-8 -1 -13 2.5t-4 11.5q0 21 44 28q45 5 69 70q11 24 50.5 191t44.5 198q3 19 -2 33.5t-20 23t-19.5 10t-18.5 6.5q-14 4 -12 18z" />
    <glyph glyph-name="Q" unicode="Q" horiz-adv-x="711" 
d="M439 611q125 0 184.5 -67t56.5 -169q-3 -101 -52.5 -192.5t-127.5 -145.5t-160 -54q-32 0 -41 2q-5 -1 -7.5 0t-7 -2t-6 -3.5t-5.5 -4.5l-5 -5t-4.5 -5.5t-4.5 -5.5q-12 -17 8 -20q69 -13 178 -53q51 -17 82 -17q60 0 114 65q20 25 40 21q9 -5 8.5 -14.5t-6.5 -19.5
q-38 -61 -85 -110q-41 -41 -78 -41q-21 0 -47 5.5t-41 10.5t-46 17t-38 14q-79 31 -177 31q-21 1 -107 -20q-89 -16 -89 20q0 11 8.5 30.5t17.5 29.5q7 9 10.5 12.5t10 6.5t17.5 5q52 10 95 12q32 3 64 17q22 12 30 23q5 6 6 8t-1 5.5t-9 6.5l-3 1q-71 31 -103.5 96.5
t-32.5 132.5q0 90 49 177.5t132 143.5t173 56zM198 258q-7 -125 61 -187q15 -12 19 -12t17 13q29 29 61 72q6 9 16 12.5t16 0.5q6 -4 5.5 -13t-5.5 -15q-23 -28 -55 -69q-12 -17 -6.5 -22t27.5 -5q25 0 56.5 16.5t66 51t61.5 101t34 152.5q8 87 -35 145.5t-116 58.5
q-30 0 -64.5 -16t-69.5 -49t-60 -94.5t-29 -140.5z" />
    <glyph glyph-name="R" unicode="R" horiz-adv-x="653" 
d="M123 588q6 18 43 15q44 -4 86.5 -4t99.5 2t87 2q66 1 109.5 -32.5t39.5 -96.5q-4 -62 -49 -104t-114 -64q-14 -4 -16.5 -13t1.5 -25q22 -99 72 -152t110 -41q41 9 49 -3q9 -12 -9 -24q-52 -30 -108 -44q-70 -18 -107 23q-43 46 -71.5 124.5t-28.5 143.5q0 18 25 26
q66 19 102.5 53t36.5 92q0 56 -28 75t-86 16q-19 -1 -24.5 -1.5t-15 -4.5t-14 -14t-10.5 -28q-22 -72 -51.5 -205.5t-39.5 -194.5q-5 -53 42 -66q2 -1 7.5 -2t8 -2t7 -2.5t6.5 -3.5l4.5 -4.5t3.5 -5.5t0 -7q-1 -9 -12 -14t-26 -3q-52 6 -244 -2q-8 -1 -13 2.5t-4 11.5
q0 21 44 28q45 5 69 70q11 25 50 190.5t44 197.5q-1 13 0 21t-6 16l-10.5 12t-13 8t-13.5 5.5t-12 4t-9 2.5q-14 5 -12 22z" />
    <glyph glyph-name="S" unicode="S" horiz-adv-x="463" 
d="M184 -8q-56 0 -100.5 25.5t-43.5 76.5q1 34 29 66t61 45q20 9 30 3q4 -2 3 -10.5t-6 -15.5q-24 -30 -25 -68q-1 -37 24 -53t52 -16q58 0 91 24t35 62q5 83 -114 175q-95 75 -92 160q1 46 58.5 95t134.5 49q128 1 128 -74q0 -39 -46 -76q-22 -20 -33 -11q-9 4 -1 27
q9 31 -6.5 59.5t-51.5 28.5q-35 0 -64 -20t-30 -56q-1 -30 24.5 -60t75.5 -71q56 -44 80.5 -89t20.5 -101q-3 -66 -66 -120.5t-168 -54.5z" />
    <glyph glyph-name="T" unicode="T" horiz-adv-x="583" 
d="M176 614q53 -18 234 -14q62 2 189 11q29 2 44.5 -10t13.5 -35q-13 -98 -65 -142q-5 -4 -16 -5t-15 1q-6 2 -6 11t3 13q14 20 14 41q4 39 -17.5 56.5t-83.5 17.5q-23 0 -33 -8.5t-14 -24.5q-87 -330 -95 -417q-5 -57 54 -66q17 -3 25.5 -8.5t7.5 -18.5q-2 -9 -12.5 -14
t-26.5 -3q-101 12 -241 -2q-8 0 -13 3t-4 11q0 19 42 28q38 8 61 70q16 36 51 182t53 239q4 11 0.5 17t-7 7t-11.5 2h-35q-107 -7 -155 -109q-15 -28 -32 -27q-8 1 -12 8.5t1 22.5q2 4 14 36t25 63.5t22 47.5q8 15 17.5 17.5t22.5 -1.5z" />
    <glyph glyph-name="U" unicode="U" horiz-adv-x="769" 
d="M162 603q23 -3 95 -3t113 3q16 1 22 -3.5t4 -15.5q-4 -13 -27 -18q-33 -6 -49.5 -22.5t-27.5 -51.5q-14 -40 -39 -136t-32 -149q-20 -151 101 -151q85 0 144.5 64t85.5 152q47 159 58 225q3 19 -2 33t-20 22.5t-19 10t-19 6.5q-14 4 -12 19q6 18 43 15q23 -3 95.5 -3
t112.5 3q16 1 21.5 -3.5t3.5 -15.5q-4 -13 -27 -18q-33 -6 -49.5 -22.5t-28.5 -51.5q-2 -6 -17.5 -59t-33 -127t-21.5 -112q-1 -13 -1.5 -22t-1 -21.5t0 -21t1.5 -19t3 -17t5 -14t8 -11.5t11 -6.5t14.5 -1.5t18.5 4q28 9 34 -10q2 -15 -19 -25q-68 -34 -101 -34
q-52 0 -64 24t-8 79q1 16 -6 19t-17 -11q-81 -112 -231 -112q-91 0 -135.5 55.5t-24.5 155.5q6 36 23.5 106.5t31 124.5t13.5 61q8 52 -58 71q-1 0 -1.5 0.5t-1.5 0.5q-13 4 -11 19q3 19 42 15z" />
    <glyph glyph-name="V" unicode="V" horiz-adv-x="641" 
d="M117 588q0 3 3 7.5t11.5 7.5t20.5 1q25 -3 88.5 -3.5t95.5 3.5q37 6 40 -12q3 -16 -26 -26q-33 -11 -42 -29.5t-2 -59.5q21 -141 45 -338q2 -9 5.5 -12t9.5 1.5t14 16.5q37 66 109 156q10 13 31.5 40.5t28.5 37.5t18.5 30t16 38.5t5.5 41.5q2 23 -15.5 36.5t-45.5 6.5
t-32 6q-3 8 13 22t31 22q53 32 90 31q31 -1 49.5 -20t14.5 -54q-6 -89 -153 -247q-26 -29 -61.5 -77t-51.5 -75q-29 -45 -37 -74q-6 -29 -34 -48q-8 -6 -27.5 -13t-29.5 -9q-29 -6 -37 8t-10 59q-14 256 -49 423q-7 40 -22.5 57t-45.5 24q-20 7 -19 21z" />
    <glyph glyph-name="W" unicode="W" horiz-adv-x="918" 
d="M400 587q0 4 2.5 8t11 7.5t20.5 1.5q25 -4 88.5 -4.5t95.5 4.5q37 6 40 -13q3 -16 -26 -26q-33 -11 -42 -29.5t-2 -59.5q22 -145 45 -337q2 -9 5.5 -12t9.5 1.5t14 16.5q37 66 109 156q7 9 23 30t21.5 28t16 23t14.5 25t9.5 23.5t8 28.5t3.5 31q2 23 -15.5 36.5
t-45.5 6.5t-32 6q-3 8 13 22t31 22q51 31 90 31q31 -1 48 -20t14 -54q-3 -52 -48 -121t-99 -127q-26 -29 -61.5 -77t-51.5 -75q-29 -45 -37 -74q-6 -29 -34 -48q-8 -6 -27.5 -13t-29.5 -9q-29 -6 -37 8t-10 59q-2 31 -16 178q0 7 -2.5 10.5t-7 1t-9.5 -10.5
q-18 -26 -40.5 -62.5t-24.5 -39.5q-27 -46 -35 -74q-7 -30 -35 -48q-24 -17 -57 -22q-28 -6 -36.5 8.5t-10.5 58.5q-15 264 -49 422q-7 37 -22 55t-44 26q-20 7 -19 21q0 4 3 8t11.5 7.5t20.5 1.5q24 -4 77.5 -4.5t84.5 4.5q37 6 40 -13q2 -11 -25 -30q-34 -22 -25 -85
q22 -135 45 -337q5 -29 29 6q14 22 104 167q11 18 12.5 26.5t-1.5 28.5q-9 77 -17 118q-7 38 -21.5 55.5t-46.5 25.5q-19 7 -18 21z" />
    <glyph glyph-name="X" unicode="X" horiz-adv-x="729" 
d="M-18 4q-2 8 5 15.5t31 19.5q140 69 284 254q16 21 10 49q-13 69 -54 146q-22 43 -44 57.5t-66 14.5q-38 0 -38 15q0 22 68 25q93 5 132 0q9 -1 16.5 -3t12.5 -5t8 -5.5t5 -7t3 -6t1 -5.5l1 -5q12 -80 41 -160q8 -22 25 -5q68 70 91 125q25 53 39.5 65.5t52.5 11.5
q52 -2 102 0q29 1 31 -13q1 -8 -10 -14t-30 -9q-30 -4 -76 -33.5t-79 -64.5q-81 -83 -101 -109q-13 -16 -14 -19.5t2 -22.5q12 -43 46.5 -107t63.5 -97q53 -58 129 -40q21 4 27 -12q4 -14 -27 -29q-89 -40 -134 -40q-53 3 -87 52q-13 20 -23.5 38t-17 30t-15 31t-12.5 27.5
t-13.5 33t-14.5 36.5q-9 26 -31 4q-98 -98 -113 -160q-6 -23 -6 -71q0 -20 -51 -12q-42 4 -55 4t-44 -2.5t-44 -3.5q-25 0 -27 7z" />
    <glyph glyph-name="Y" unicode="Y" horiz-adv-x="565" 
d="M470 580q40 27 83 27q37 0 56.5 -17.5t19.5 -43.5q0 -25 -11 -47.5t-33 -43t-39.5 -33.5t-45.5 -31q-102 -67 -125 -153q-23 -82 -25 -129q-5 -52 28 -66l12 -4t12 -5t6.5 -6.5t2.5 -11.5q-2 -9 -12.5 -14t-26.5 -3q-47 6 -225 -2q-8 -1 -13 2.5t-4 11.5q0 21 44 28
q45 5 69 70q16 48 36 150q8 43 -14 89q-3 7 -13.5 32t-17.5 40.5t-16.5 37t-19 37.5t-17.5 27q-27 37 -61 42q-16 2 -23.5 8t-5.5 13q3 14 34 17h17h9.5h25.5h55q29 0 39.5 -8t17.5 -33q36 -132 72 -210q13 -24 35 2q13 17 64 59q68 52 68 101q0 35 -37 33q-2 0 -11 -1
t-13 -1.5t-9.5 1.5t-7.5 6q-6 13 20 29z" />
    <glyph glyph-name="Z" unicode="Z" horiz-adv-x="678" 
d="M17 0q-3 24 11 61.5t33 41.5q50 13 84 40q173 142 345 324q9 12 7 16t-16 8q-35 9 -104.5 14.5t-107.5 1.5q-18 -2 -25.5 -3.5t-17.5 -6t-13.5 -14t-3.5 -25.5q0 -4 2.5 -9t7.5 -11.5t7 -11.5q9 -19 -4 -32q-30 -16 -62 37q-19 30 -19 72q0 52 36.5 78t126.5 26
q64 0 116 -9q70 -10 118 -10q55 0 67 9q19 13 31 5.5t5 -30.5t-21.5 -41t-43 -42t-33.5 -29q-211 -201 -344 -329q-9 -9 -7 -14.5t13 -2.5q29 11 71 11q52 0 99 -15q64 -22 100 -22q89 0 129 47q28 33 42 31q5 -1 8 -6.5t1.5 -16.5t-8.5 -25q-22 -49 -76 -90t-112 -41
q-20 0 -36.5 2.5t-24.5 5t-23.5 8.5t-20.5 8q-49 18 -105 18q-76 0 -129 -21q-49 -20 -80 -20q-22 0 -23 12z" />
    <glyph glyph-name="bracketleft" unicode="[" horiz-adv-x="292" 
d="M348 638q11 0 16 -6t3 -13q-4 -16 -26 -18l-40 -2q-11 -1 -14.5 -5.5t-8.5 -21.5q-26 -89 -158 -603q-3 -10 -1 -14.5t12 -5.5q2 0 22 -3.5t26 -3.5q10 0 16 -3.5t5 -11.5q-1 -7 -9.5 -14.5t-20.5 -7.5q-5 0 -62.5 1t-65.5 1q-27 0 -21 26q138 529 175 679q2 13 8.5 18.5
t21.5 5.5q6 0 62 1t60 1z" />
    <glyph glyph-name="backslash" unicode="\" horiz-adv-x="391" 
d="M121 625q11 2 20 -6t18 -34q17 -49 80 -247t72 -223l11 -22t12 -29t4 -25q-4 -26 -35 -54q-11 -13 -20 5q-7 13 -21 71q-15 60 -72 252.5t-76 247.5q-12 34 -10.5 48t17.5 16z" />
    <glyph glyph-name="bracketright" unicode="]" horiz-adv-x="301" 
d="M2 -95q-11 0 -16 6t-3 13q4 16 26 18l40 2q12 0 15 4.5t8 22.5q12 39 76 285t80 310q3 10 1 14.5t-12 5.5q-28 5 -48 6q-15 1 -18.5 4t-2.5 16q2 7 10.5 14.5t19.5 7.5q12 0 66.5 -3t61.5 -3q28 0 21 -25q-9 -37 -72 -276t-101 -396q-2 -14 -8 -19t-22 -5q-5 0 -61.5 -1
t-60.5 -1z" />
    <glyph glyph-name="asciicircum" unicode="^" horiz-adv-x="488" 
d="M275 548q-8 -8 -67 -82t-77 -98q-14 -19 -42 -20q-7 0 -10.5 2t-1 10.5t14.5 23.5q159 196 172 214q11 16 32 21q10 2 15 -3t10 -19q48 -141 58 -159q3 -6 10 -18t11 -22t4 -20q-1 -15 -14 -29q-4 -5 -15 -4t-15 7q-10 17 -21 51q-2 7 -9 32t-16.5 55t-19.5 58
q-6 12 -19 0z" />
    <glyph glyph-name="underscore" unicode="_" horiz-adv-x="448" 
d="M-3 -77q-16 0 -22.5 7t-1.5 17q16 22 45 22q193 3 323 15q36 4 40 1q5 -3 5 -11q0 -7 -10 -21t-21 -20q-12 -7 -39 -7q-144 -3 -319 -3z" />
    <glyph glyph-name="grave" unicode="`" horiz-adv-x="488" 
d="M285 511q-37 44 -73 100q-13 19 4 29q24 12 54 16q19 2 20 -10q1 -19 5 -43t9.5 -52.5t6.5 -34.5t-3 -9t-11 -2t-12 6z" />
    <glyph glyph-name="a" unicode="a" horiz-adv-x="478" 
d="M279 -8q-66 0 -24 132q3 11 3 12.5t-3 3.5q-9 2 -19 -12q-18 -26 -55 -67.5t-58 -54.5q-38 -24 -61.5 -7.5t-23.5 66.5q0 111 52.5 208.5t140.5 147.5q34 19 70 10q26 -6 45 -17q15 -9 34 9l14 14t18 20q19 22 32 16q4 -2 4.5 -11t-3.5 -17q-29 -44 -45 -86
q-31 -78 -61 -209q-15 -63 3 -64q8 1 22 10q25 18 55 48q21 21 33 12q4 -3 3 -12t-6 -15q-48 -54 -124 -117q-24 -20 -46 -20zM173 108q45 41 80.5 100t53.5 124q7 27 -10 38q-16 12 -37 15q-33 3 -61 -39q-25 -37 -46.5 -103.5t-22.5 -106.5q0 -29 10 -37.5t33 9.5z" />
    <glyph glyph-name="b" unicode="b" horiz-adv-x="447" 
d="M152 572q7 48 2 61q-10 24 -53 17q-9 -1 -16.5 2.5t-8.5 9.5q-2 7 5.5 13t25.5 9q15 3 41.5 8.5t46 9t31.5 3.5q11 0 19.5 -2.5t13 -8t8 -11t3.5 -14.5v-16.5t-2.5 -19t-4.5 -18.5t-5.5 -19t-4.5 -18q-8 -27 -38 -117t-49 -171q-3 -11 -1.5 -14.5t6 -1.5t9.5 8
q67 80 126 123q29 21 54.5 28t44 -9t18.5 -58q0 -93 -63 -217q-29 -58 -87.5 -107.5t-119.5 -49.5q-68 0 -92 55t-6 134q13 53 47.5 185t49.5 206zM144 162q-16 -45 -10 -72t18.5 -38.5t28.5 -11.5q33 0 65 43.5t51 98.5t25 104q4 28 1.5 43t-14.5 15q-25 0 -73 -46
q-69 -65 -92 -136z" />
    <glyph glyph-name="c" unicode="c" horiz-adv-x="348" 
d="M127 -12q-46 1 -68.5 37t-20.5 101q3 87 56.5 175.5t137.5 122.5q48 19 80 2q26 -14 26 -46q0 -39 -49 -75q-19 -12 -28 -3q-6 0 -2 18.5t4 21.5q0 13 -9 20.5t-23 7.5q-37 -2 -69 -61t-35 -145q-4 -100 46 -100q28 0 90 59q5 6 13 8t13 -2q10 -10 -11 -33
q-102 -108 -151 -108z" />
    <glyph glyph-name="d" unicode="d" horiz-adv-x="476" 
d="M311 655q0 16 22 19q10 2 61.5 13.5t72.5 12.5q29 1 38 -13.5t-1 -37.5q-40 -112 -92 -263q-57 -170 -73 -236q-15 -63 3 -64q8 1 22 10q25 18 55 48q21 21 33 12q4 -3 3 -12t-6 -15q-48 -54 -124 -117q-24 -20 -46 -20q-37 0 -40 36t18 93q5 14 0 16q-9 5 -20 -12
q-14 -22 -53 -63.5t-61 -55.5q-38 -24 -61.5 -7.5t-23.5 66.5q0 111 52 209t140 148q35 20 71 9q20 -7 30 -7t16 12q15 31 29.5 82.5t19.5 85.5q4 19 -6 28.5t-27 9.5q-3 0 -11.5 -0.5t-14.5 -1t-12.5 0.5t-10 4.5t-3.5 9.5zM173 108q28 26 44.5 46.5t43.5 64.5
q27 41 46 112q7 27 -10 39q-13 10 -38 13q-32 5 -60 -37q-26 -37 -47.5 -103.5t-21.5 -106.5q0 -29 10 -37.5t33 9.5z" />
    <glyph glyph-name="e" unicode="e" horiz-adv-x="363" 
d="M137 -12q-47 0 -74 37t-25 101q4 90 64 177t145 121q40 16 68.5 -0.5t28.5 -51.5q0 -28 -14 -51t-44 -43t-55.5 -33t-68.5 -31q-19 -9 -25.5 -19t-7.5 -31q-2 -41 13 -72t43 -31q29 0 94 62q5 6 13 8t13 -2q11 -11 -10 -33q-33 -36 -80.5 -72t-77.5 -36zM143 259
q-1 -8 4 -9.5t16 3.5q32 15 49 24t34 27t17 38q-2 28 -27 28q-20 -1 -50.5 -34.5t-42.5 -76.5z" />
    <glyph glyph-name="f" unicode="f" horiz-adv-x="336" 
d="M-134 -104q11 -11 3 -25q-16 -25 -10.5 -50t30.5 -25q38 0 73 36.5t53.5 74t29.5 72.5q54 177 87 369q3 21 0 26.5t-13 5.5h-35q-11 0 -12.5 10.5t2.5 16.5q16 20 39 20q16 0 22 1t12 6.5t10 18.5q45 125 114.5 191t132.5 66q42 0 63.5 -17t20.5 -43q-1 -20 -18.5 -48
t-42.5 -43q-25 -16 -35 -11q-14 9 -6 24q13 16 10.5 46.5t-28.5 30.5q-36 0 -69.5 -57.5t-50.5 -136.5q-5 -26 18 -27q45 0 87 6q28 4 38 -4t-2 -26q-14 -20 -24.5 -27t-31.5 -5q-21 3 -69 5q-16 1 -22.5 -3t-10.5 -15q-8 -26 -34 -127.5t-34 -126.5q-19 -60 -32 -95
t-35 -81t-51.5 -82t-69.5 -68q-37 -30 -65 -42.5t-66 -12.5q-33 0 -54 19t-21 48q-2 57 58 94q31 19 39 11z" />
    <glyph glyph-name="g" unicode="g" horiz-adv-x="440" 
d="M308 431q27 -7 45 -17q15 -9 33 9q27 27 33 34q19 22 31 16q5 -2 5.5 -11t-3.5 -17q-29 -44 -45 -86q-25 -62 -61 -209q-10 -66 10 -151q15 -63 -19 -122.5t-96 -100.5q-87 -56 -167 -56q-158 0 -158 93q0 32 28.5 64.5t77.5 71.5q16 15 28 5q13 -13 -5 -31
q-12 -13 -22 -37.5t-10 -41.5q0 -70 84 -70q67 0 108 33q87 71 58 191q-17 71 -1 119q3 11 3 12.5t-3 3.5q-8 4 -20 -12q-14 -21 -52 -61t-60 -54q-38 -24 -61.5 -7.5t-23.5 66.5q0 111 52 208.5t140 147.5q36 19 71 10zM179 109q30 28 47 48.5t42 61.5q27 45 46 113
q7 27 -10 38q-11 7 -38 13q-32 5 -61 -37q-25 -37 -46.5 -103.5t-21.5 -106.5q0 -64 42 -27z" />
    <glyph glyph-name="h" unicode="h" horiz-adv-x="513" 
d="M124 670q93 31 156 31q26 0 26 -35q0 -31 -25 -105q-9 -28 -46 -134t-54 -160q-5 -19 4 -19q4 -1 10 7q58 72 141 141q46 38 85 37t30 -52q-5 -28 -41.5 -127.5t-42.5 -138.5q-5 -33 13 -33q16 2 65 47q21 16 29 3q7 -12 -7 -27q-33 -35 -85 -75.5t-79 -40.5
q-49 0 -44 64q2 30 11.5 63.5t27.5 84t26 76.5q7 24 0 35t-34 -7q-64 -53 -102.5 -115.5t-78.5 -157.5q-14 -34 -64 -45q-18 -3 -24 5t1 32q77 231 160 553q15 60 -9 62q-13 2 -49 -8q-26 -7 -26 14q0 17 26 25z" />
    <glyph glyph-name="i" unicode="i" horiz-adv-x="317" 
d="M284 132q8 -13 -7 -27q-33 -35 -85.5 -75.5t-79.5 -40.5q-46 0 -41 64q1 22 9 54.5t16 58t23 69t22 65.5q12 43 0 43q-8 0 -27.5 -11.5t-35.5 -25.5q-20 -19 -30 -13q-6 4 -7 12t4 13q33 38 81 70.5t75 41.5q31 10 52 -2.5t10 -53.5q-4 -12 -42 -114.5t-44 -144.5
q-5 -33 12 -33q14 2 66 47q21 16 29 3zM342 595q-4 -25 -29.5 -44.5t-52.5 -19.5q-30 0 -27 35q5 30 24.5 48t48.5 18q37 0 36 -37z" />
    <glyph glyph-name="j" unicode="j" horiz-adv-x="280" 
d="M47 322q78 77 159 108q35 13 48 -1t9 -38q-2 -14 -51 -172q-17 -53 -35 -104t-32 -94q-44 -129 -119.5 -214.5t-144.5 -85.5q-39 0 -55.5 18.5t-19.5 55.5q-1 20 15.5 49t41.5 45q27 16 41 12q7 -2 8 -10t-5 -18q-16 -28 -16 -53q1 -21 14.5 -27.5t28.5 -2.5
q26 5 51.5 43t59.5 137q49 138 99 330q11 41 -6 41q-22 0 -57 -33q-19 -17 -32 -9q-15 8 -2 23zM330 595q-3 -25 -28 -44.5t-52 -19.5q-32 0 -28 35q4 30 22.5 48t47.5 18q38 0 38 -37z" />
    <glyph glyph-name="k" unicode="k" horiz-adv-x="503" 
d="M125 670q93 31 156 31q25 0 25 -35q0 -30 -24 -105q-11 -32 -47.5 -133.5t-52.5 -154.5q-6 -19 4 -20q4 0 10 8q39 58 105.5 117t106.5 59q26 0 41 -14t18 -26.5t2 -23.5q-4 -76 -131 -149q-8 -5 -13 -9t-7 -9.5t-2 -7t-1 -8.5q-6 -52 15 -95q6 -13 19.5 -14.5t25.5 7.5
q7 5 13.5 10t13 10.5t9.5 8.5q22 19 33 6q10 -12 -5 -29q-42 -42 -101 -91q-15 -13 -43 -13q-6 0 -19.5 6.5t-17.5 12.5q-30 46 -25 165q0 26 21 36q124 68 124 121q0 25 -21 25q-27 0 -70.5 -40t-84.5 -97q-17 -25 -31 -49.5t-20.5 -38.5t-20 -48.5t-20.5 -50.5
q-14 -34 -64 -45q-18 -3 -24 5t1 32q77 231 160 553q15 60 -9 62q-13 2 -49 -8q-26 -7 -26 14q0 17 26 25z" />
    <glyph glyph-name="l" unicode="l" horiz-adv-x="279" 
d="M122 669q19 3 64.5 16.5t75.5 15.5q12 1 18.5 -9.5t7.5 -25.5q0 -26 -20 -105q-13 -52 -47.5 -162t-46.5 -152q-25 -87 -30 -132q-4 -33 17 -33q13 2 65 47q20 16 28 3q10 -12 -7 -27q-32 -35 -83.5 -75.5t-78.5 -40.5q-25 0 -34.5 15.5t-10.5 48.5q0 65 37 190
q12 40 35.5 111.5t38.5 123t24 99.5q9 55 -15 59q-11 1 -38 -2q-25 -4 -25 12q0 7 6.5 14t18.5 9z" />
    <glyph glyph-name="m" unicode="m" horiz-adv-x="770" 
d="M43 326q108 112 158 112q21 0 33 -18.5t10 -43.5q-3 -47 -29 -112q-6 -15 -0.5 -19.5t15.5 8.5q55 69 143 143q18 15 37.5 25t37 11.5t27.5 -11t7 -40.5q-2 -22 -36 -111q-8 -21 0 -23q6 0 14 10q61 76 137 139q46 38 85 37t30 -52q-5 -28 -41.5 -127.5t-42.5 -138.5
q-5 -33 13 -33q16 2 65 47q21 16 29 3q7 -12 -7 -27q-33 -35 -85 -75.5t-79 -40.5q-49 0 -44 64q2 30 11.5 63.5t27.5 84t26 76.5q7 24 0 35t-34 -7q-64 -53 -102.5 -115.5t-78.5 -157.5q-14 -34 -64 -45q-18 -3 -24 5t1 32q41 116 78 253q7 24 0 35t-34 -7
q-64 -53 -102.5 -115.5t-78.5 -157.5q-14 -34 -64 -45q-18 -3 -24 5t1 32q27 77 67 238q7 22 7 49.5t-13 27.5q-12 0 -62 -43q-10 -8 -18 -3q-8 4 -6.5 14.5t9.5 18.5z" />
    <glyph glyph-name="n" unicode="n" horiz-adv-x="546" 
d="M511 132q7 -12 -7 -27q-33 -35 -85 -75.5t-79 -40.5q-49 0 -44 64q2 30 11.5 63.5t27.5 84t26 76.5q8 24 0.5 35t-34.5 -7q-64 -53 -102.5 -115.5t-78.5 -157.5q-14 -34 -64 -45q-18 -3 -24 5t1 32q27 77 67 238q7 22 7 49.5t-13 27.5q-12 0 -62 -43q-10 -8 -18 -3
q-8 4 -6.5 14.5t9.5 18.5q108 112 158 112q20 0 32.5 -18.5t10.5 -43.5q-1 -15 -3 -27t-3 -19.5t-4.5 -17.5t-5 -14t-6.5 -17t-7 -17q-6 -15 -0.5 -19.5t15.5 8.5q58 73 143 143q44 37 84 37q41 0 31 -52q-5 -28 -41.5 -127.5t-42.5 -138.5q-5 -33 13 -33q16 2 65 47
q21 16 29 3z" />
    <glyph glyph-name="o" unicode="o" horiz-adv-x="394" 
d="M138 -9q-105 0 -101 129q1 36 16.5 86.5t34.5 82.5q42 71 94 108.5t94 37.5q90 0 84 -137q-2 -75 -49 -160q-29 -54 -79.5 -100.5t-93.5 -46.5zM230 366q-29 0 -54 -35.5t-37.5 -78.5t-14.5 -77q-3 -52 10 -81.5t36 -29.5q36 0 68.5 56t35.5 153q2 93 -44 93z" />
    <glyph glyph-name="p" unicode="p" horiz-adv-x="465" 
d="M210 438q33 0 34.5 -34.5t-19.5 -96.5q-3 -11 -3 -12.5t3 -3.5q9 -2 19 12q17 24 52.5 65t55.5 55q38 24 62.5 7t24.5 -66q2 -110 -50 -209t-139 -149q-13 -8 -34 -10t-43 7q-4 2 -7.5 2t-6 -0.5t-4.5 -3.5t-3 -5t-2.5 -7t-2.5 -6q-2 -4 -8.5 -25.5t-12 -37t-17 -42
t-26.5 -50.5q-18 -31 -53 -69.5t-56 -44.5q-3 -2 -9 0.5t-7 6.5q-4 7 8 21q31 48 52 104q57 147 119 433q14 60 -1 60q-7 0 -22 -10q-18 -11 -38 -29q-22 -20 -32 -12q-4 3 -4 11.5t5 15.5q37 42 88.5 82.5t76.5 40.5zM303 321q-29 -26 -44.5 -46.5t-41.5 -64.5
q-20 -32 -44 -118q-5 -19 -4.5 -25.5t9.5 -13.5q9 -6 43 -8q34 0 60 37q25 37 45.5 103.5t19.5 106.5q0 29 -10 38t-33 -9z" />
    <glyph glyph-name="q" unicode="q" horiz-adv-x="427" 
d="M194 -278q-31 -1 -37.5 25t3.5 75q8 54 82 288q6 16 -2 19q-8 2 -19 -14q-14 -21 -49.5 -58t-57.5 -51q-38 -24 -61.5 -7.5t-23.5 66.5q0 110 52.5 208t140.5 148q36 19 71 10q33 -9 48 -17q16 -10 34 9l15 15t17 19q19 22 32 16q4 -2 4 -11t-4 -17q-31 -48 -44 -86
q-61 -171 -130 -492q-5 -26 -1.5 -43t13 -24t20.5 -3q17 6 37 18q11 5 19.5 3.5t11.5 -8.5q8 -15 -11 -26q-94 -58 -160 -62zM165 108q29 26 45.5 47t42.5 64q26 41 46 113q7 27 -10 38q-11 7 -38 13q-32 5 -61 -37q-25 -37 -46.5 -103.5t-21.5 -106.5q0 -29 10 -37.5
t33 9.5z" />
    <glyph glyph-name="r" unicode="r" horiz-adv-x="396" 
d="M38 300q-11 11 14 38q24 26 70 60.5t72 34.5q32 0 32 -51q0 -13 -5 -32.5t-13.5 -45t-9.5 -30.5t1.5 -8.5t7 -2.5t8.5 7q87 166 144 166q47 0 47 -52q-1 -31 -13 -62.5t-27 -49.5q-19 -26 -32 -21q-10 3 -2 23q9 20 3.5 36.5t-22.5 16.5q-22 0 -55.5 -49.5t-54.5 -99.5
q-6 -13 -21 -59t-20 -66q-2 -9 -5 -16t-9 -13t-9 -9.5t-12 -8.5t-11 -6t-13.5 -6.5t-12.5 -5.5q-12 -5 -20.5 -4t-12.5 5.5t-2 10.5q50 170 65 280q5 46 -5.5 52t-50.5 -31q-14 -13 -26 -1z" />
    <glyph glyph-name="s" unicode="s" horiz-adv-x="301" 
d="M76 -10q-50 0 -50 50q0 45 38 80q21 20 29 12q9 -8 4 -18q-10 -16 -2 -34.5t25 -18.5q34 0 51.5 34t18.5 78q0 75 -27 132q-3 7 -10.5 8t-11.5 -5q-21 -28 -36 -45q-16 -20 -33 -3q-6 4 -4.5 17t14.5 25q58 54 145 173q10 11 26 3q11 -11 0 -30q-29 -40 -14 -79
q24 -61 24 -132q0 -51 -21.5 -107t-66 -98t-99.5 -42z" />
    <glyph glyph-name="t" unicode="t" horiz-adv-x="337" 
d="M97 -8q-60 0 -41 101q18 110 69 258q5 19 4 22.5t-9 6.5h-7h-11.5h-13.5q-8 0 -11 7t1 20q2 5 3.5 7t5.5 5.5t11.5 5t20.5 2.5q27 2 42 17q31 31 76 111q4 8 13 11.5t14 1.5q5 -1 7 -7.5t0 -9.5q-3 -7 -10.5 -30t-14.5 -47t-8 -26q-3 -7 -1 -13t15 -7h59q34 4 38 2
q12 -5 7 -16q-14 -23 -27 -33q-14 -12 -37 -9q-44 7 -55 7q-15 0 -22 -19q-23 -57 -49 -188q-6 -27 -5 -44t4.5 -26.5t10 -12.5t12 -3t10.5 2q25 11 63 44q16 16 28 4q9 -10 -4 -29q-32 -36 -107 -85q-43 -30 -81 -30z" />
    <glyph glyph-name="u" unicode="u" horiz-adv-x="551" 
d="M41 304q-7 12 7 27q33 35 79 70.5t73 35.5q50 0 42 -64q-4 -30 -13 -64.5t-24.5 -82t-23.5 -77.5q-7 -23 5 -34t36 10q65 63 101.5 120.5t72.5 143.5q16 37 69 50q19 3 27.5 -5.5t-0.5 -31.5q-45 -111 -78 -238q-7 -22 -6.5 -49.5t13.5 -27.5t79 57q9 8 19 3
q7 -4 7 -16.5t-8 -20.5q-126 -122 -179 -122q-20 0 -32.5 18.5t-10.5 43.5q4 54 24 102q7 19 -1 21q-5 2 -13 -9q-60 -80 -128 -140q-50 -42 -83.5 -29.5t-26.5 63.5q4 32 33 124t35 129q6 32 -12 32q-14 -1 -54 -36q-21 -16 -29 -3z" />
    <glyph glyph-name="v" unicode="v" horiz-adv-x="434" 
d="M125 -9q-18 0 -30 6.5t-17 20.5t-7.5 25t-1 31.5t3 29t4.5 27.5q2 12 18.5 79.5t19.5 95.5q4 21 -10 21t-44 -27q-4 -5 -12 -7t-13 2q-12 10 8 32q45 48 102 86q28 21 58 21q21 0 22 -32t-5 -43q-1 -6 -13 -57t-22.5 -98t-13.5 -63q-7 -44 -2.5 -56t21.5 -12q20 0 62 52
q64 82 84 155q8 33 -3.5 50.5t-37.5 10.5q-21 -7 -26 -3q-8 5 -1 19q14 23 48 51t58 28q69 0 38 -110q-37 -123 -160 -262q-20 -23 -56.5 -48t-71.5 -25z" />
    <glyph glyph-name="w" unicode="w" horiz-adv-x="702" 
d="M195 437q49 0 44 -64q-2 -30 -11.5 -64.5t-25.5 -83.5t-24 -78q-7 -23 4 -34.5t35 9.5q63 61 94 116.5t65 148.5q8 21 30 34t40 16q19 3 26 -4.5t0 -31.5q-33 -92 -53 -208q-8 -35 -2 -77t32 -42q28 0 72 56q65 82 83 156q8 33 -2.5 50.5t-35.5 10.5q-22 -7 -26 -4
q-9 7 -1 20q15 24 48.5 51.5t57.5 27.5q69 0 38 -110q-40 -130 -161 -268q-20 -23 -56.5 -48t-72.5 -25q-46 0 -64 44t-10 106q4 20 -3 28q-7 7 -15 -5q-72 -97 -128 -143q-52 -40 -84.5 -28t-25.5 62q4 32 33 125.5t35 130.5q6 32 -12 32q-14 -1 -54 -36q-21 -16 -29 -3
q-8 12 7 27q33 35 79 70.5t73 35.5z" />
    <glyph glyph-name="x" unicode="x" horiz-adv-x="533" 
d="M84 305q-5 3 -4.5 11t6.5 14q5 7 47.5 47t59.5 51q18 12 44 -3q24 -16 38 -48.5t11 -64.5q-1 -18 7 -18q3 0 16 18q82 125 160 125q21 0 34 -14.5t14 -40.5q0 -17 -12.5 -39t-27.5 -33q-23 -17 -31 -9q-4 4 0 26q2 10 -6.5 18t-18.5 8q-29 0 -64 -42.5t-39 -90.5
q-4 -42 7.5 -79t32.5 -53q29 -22 62 3q16 14 39 41q10 15 22 9q5 -2 6.5 -10t-3.5 -15q-41 -60 -98 -108q-24 -20 -52 -17t-48 26q-36 41 -33 101q0 19 -8 19q-6 0 -16 -18q-23 -44 -70.5 -86t-97.5 -42q-46 0 -48 53q0 21 14 46.5t34 42.5q11 10 19 7q5 -1 7 -9.5t-1 -13.5
q-9 -19 -1.5 -31.5t25.5 -12.5q35 0 70.5 43.5t40.5 90.5q6 53 -8 86t-39 45q-26 12 -61 -26q-19 -17 -29 -7z" />
    <glyph glyph-name="y" unicode="y" horiz-adv-x="516" 
d="M210 437q48 0 42 -64q-3 -30 -12 -63.5t-25.5 -82t-24.5 -76.5q-6 -23 5.5 -35t35.5 9q65 63 101.5 120.5t72.5 143.5q16 38 70 50q19 3 26 -5t0 -32q-51 -126 -79 -238q-18 -68 3 -164q14 -65 -23.5 -128t-103.5 -101q-39 -22 -93.5 -36.5t-95.5 -14.5q-158 0 -158 93
q0 32 28.5 64.5t77.5 71.5q8 7 17 8t11 -3q14 -12 -5 -31q-11 -12 -19 -35.5t-8 -41.5q0 -67 79 -67q80 0 125 29q99 67 67 190q-18 72 -6 126q3 11 11 28q8 19 -1 21q-5 2 -13 -9q-66 -89 -128 -140q-51 -40 -84 -28t-26 62q5 31 34 123t35 130q5 32 -13 32q-14 -1 -54 -36
q-20 -16 -28 -3q-9 12 6 27q33 35 79 70.5t74 35.5z" />
    <glyph glyph-name="z" unicode="z" 
d="M9 9q0 19 20.5 48t35.5 40q28 22 51 27q16 4 36 18q26 20 49.5 40.5t36.5 32.5t41 39t43 41q4 4 5 8t-1.5 6t-7.5 1q-24 -6 -37 -6q-19 0 -50 16q-34 17 -45 17q-14 0 -27 -8.5t-19 -15.5t-24 -30q-14 -18 -23 -14q-15 5 -7 26q17 42 52 90.5t57 48.5q29 0 58 -22
q44 -32 74 -32q78 0 118 38q24 26 37 21t1 -26q-4 -7 -11.5 -19t-11 -17t-9.5 -13t-12.5 -14.5t-15.5 -14.5q-18 -15 -60.5 -54t-87 -80.5t-54.5 -50.5q-17 -18 5 -18q11 0 20.5 -2.5t14 -5t12 -8t10.5 -7.5q33 -22 56 -22q49 0 88 54q11 18 25 12q6 -2 7 -11t-5 -17
q-10 -22 -35.5 -54.5t-48.5 -51.5q-34 -30 -61 -30q-24 0 -63 32q-17 13 -24 18t-24 10.5t-40 5.5q-50 0 -91 -52q-18 -23 -41 -20q-17 4 -17 26z" />
    <glyph glyph-name="braceleft" unicode="{" horiz-adv-x="319" 
d="M328 646q11 0 16.5 -3.5t5 -7.5t-0.5 -8q-3 -16 -34 -21q-41 -6 -59 -81q-4 -21 10.5 -74t6.5 -87q-5 -21 -24.5 -37t-20.5 -21q-1 -3 10.5 -15.5t6.5 -35.5q-6 -23 -48 -83t-49 -87q-8 -36 0.5 -56t23.5 -22q26 -7 22 -21q-4 -21 -44 -21q-50 0 -78.5 27t-17.5 73
q8 35 69.5 99.5t69.5 98.5q3 15 -13 19.5t-42 4.5q-8 0 -25.5 -4.5t-23.5 -4.5q-8 0 -9 11.5t3 20.5q11 27 28 27q6 0 19 -5t24 -5h7h9.5t10 0.5t11 1.5t10 3t10.5 4.5t8.5 6.5t7 9.5t4.5 12.5q5 21 -13.5 51.5t-35.5 66t-10 66.5q10 41 61.5 69t93.5 28z" />
    <glyph glyph-name="bar" unicode="|" horiz-adv-x="275" 
d="M129 -25v586q0 27 7 38q6 11 21 20t21 9t9 -2t3.5 -7t0.5 -9t-1.5 -13.5t-1.5 -14.5q-3 -33 -5.5 -115t-3.5 -151.5t-2 -182.5t-1 -141q0 -31 -23 -42q-10 -5 -17 1.5t-7 23.5z" />
    <glyph glyph-name="braceright" unicode="}" horiz-adv-x="319" 
d="M44 -35q-22 0 -19 20q2 12 33 20q49 11 65 77q4 21 -9.5 79t-4.5 93q4 16 14.5 27t20 18t10.5 12q1 4 -10.5 16.5t-6.5 35.5q6 23 47.5 80t47.5 83q8 40 0.5 58t-22.5 20q-13 3 -19 8.5t-4 13.5q4 20 44 20q50 0 79 -27t17 -72q-8 -35 -73 -97t-73 -96q-1 -7 4.5 -12
t16.5 -7.5t20.5 -3t21.5 -0.5q8 0 25 4t23 4q9 0 10.5 -11t-3.5 -21q-12 -27 -29 -27q-5 0 -18 5t-24 5h-8h-9.5t-9.5 -0.5t-11 -2t-9.5 -4.5t-9 -6.5t-7 -9.5t-5.5 -14q-5 -21 11.5 -53.5t32 -69t7.5 -67.5q-10 -41 -66 -69.5t-100 -28.5z" />
    <glyph glyph-name="asciitilde" unicode="~" horiz-adv-x="427" 
d="M21 217q-8 13 23 39q72 60 115 60q26 0 76 -19q39 -14 73 -14q39 0 70 23q31 19 40 16q14 -6 -3 -27q-28 -33 -68.5 -58t-70.5 -25q-32 0 -80 16q-49 18 -67 18q-35 0 -74 -24q-28 -14 -34 -5z" />
    <glyph glyph-name="uni00A0" unicode="&#xa0;" horiz-adv-x="237" 
 />
    <glyph glyph-name="exclamdown" unicode="&#xa1;" horiz-adv-x="287" 
d="M131 -136q-7 -28 -30 -34q-39 -10 -80 -10h-6.5h-6.5t-4.5 0.5t-4.5 2t-2 3.5t-0.5 5t1.5 8q3 11 19.5 47t33.5 73t19 42q34 83 75 225q8 25 29 29q9 2 12.5 -6t0.5 -24q-39 -201 -41 -217q0 -3 -3 -39.5t-6.5 -67t-5.5 -37.5zM201 337q-21 -2 -38 8.5t-17 29.5
q0 51 58 61q30 3 45 -10.5t15 -33.5q0 -23 -19.5 -38t-43.5 -17z" />
    <glyph glyph-name="cent" unicode="&#xa2;" horiz-adv-x="348" 
d="M39 126q2 53 23 109t61.5 106t92.5 76q16 7 21 12t10 20q3 8 24 74q10 23 30 28q20 3 11 -30q-2 -13 -16 -72q-4 -7 -2 -11.5t2 -5t6.5 -2.5t10.5 -4q25 -13 25 -46q0 -40 -48 -75q-19 -12 -28 -3q-6 0 -2 18.5t4 21.5q-2 28 -32 28q-37 -2 -69 -61t-35 -145
q-4 -100 45 -100q31 0 90 59q6 6 14 8t13 -2q10 -10 -11 -33q-54 -56 -98 -86q-3 -2 -7 -4.5t-6 -3.5t-4.5 -3t-4 -3t-3.5 -3.5t-3 -5t-2.5 -5.5l-3.5 -7l-19 -63q-7 -24 -30 -30q-20 -3 -12 30l12 61q2 8 1.5 12.5t-1 6t-7 5t-9.5 5.5q-48 31 -43 124z" />
    <glyph glyph-name="sterling" unicode="&#xa3;" horiz-adv-x="581" 
d="M379 604q129 0 129 -63q0 -24 -17.5 -51t-43.5 -44q-22 -14 -34 -8t-2 27q17 30 3 60.5t-54 30.5q-47 0 -75 -27t-28 -74q0 -35 44 -92q25 -37 26 -38q1 -3 2.5 -5t2.5 -3t3 -1h3.5h4.5h5l75 7q4 0 9 1t8 1.5t7 0.5h6.5h5.5t4.5 -1t3 -2.5t2 -4t0.5 -5.5q0 -6 -9 -17
t-21 -17q-13 -8 -38 -8l-47 -2q-5 0 -8 -1t-4.5 -3t-2 -3t-1.5 -4v-2q-3 -14 -17 -30t-26 -25.5t-36 -26.5t-30 -21q-27 -20 -14 -21q6 -1 18 4q22 10 52 10q31 0 62 -23q24 -17 59 -17q22 0 39 10.5t20 26.5q1 7 8 18.5t14 11.5q12 1 16.5 -8.5t4.5 -23.5q0 -43 -43 -96
t-106 -53q-22 0 -41 16q-45 42 -99 42q-40 0 -83.5 -12.5t-61.5 -27.5q-13 -10 -27.5 -13.5t-27.5 4.5q-12 11 5 45q7 18 22.5 38t25.5 25q12 7 35 13q41 12 79 41q63 48 63 87q0 19 -17 19h-48q-16 0 -22.5 6t-1.5 16q10 19 47 19q15 0 7 15l-23 29q-39 47 -39 92
q0 46 41.5 84t92.5 56t93 18z" />
    <glyph glyph-name="currency" unicode="&#xa4;" horiz-adv-x="488" 
d="M121 438q15 -12 31 -20q8 -5 16 0q53 31 107 31q61 0 105 -28q6 -4 19 0q13 6 29 17q26 14 37 1q5 -14 -6 -25l-31 -22q-10 -7 -5 -14q6 -7 10.5 -31.5t3.5 -43.5q-4 -48 -37 -79q-9 -6 -3 -11l34 -30q14 -11 5 -23q-6 -6 -16.5 -6t-20.5 6q-5 3 -15 10t-16 10
q-12 5 -20 1q-39 -25 -102 -25q-59 0 -103 24q-7 4 -19 -1q-9 -3 -36 -19q-13 -6 -23 -4.5t-14 6.5q-7 11 10 23l37 25q9 9 3 16q-19 30 -15 75q3 37 32 74q8 9 1 17q-5 5 -14.5 12t-12.5 10q-16 11 -7 23q5 6 15 6.5t21 -5.5zM135 302q-5 -46 27 -77t90 -31q56 0 94 29.5
t43 78.5q5 48 -26.5 77.5t-91.5 29.5q-56 0 -93.5 -31t-42.5 -76z" />
    <glyph glyph-name="yen" unicode="&#xa5;" horiz-adv-x="565" 
d="M234 143h-77q-16 0 -22.5 6.5t-1.5 17.5q11 19 43 19q48 0 69 1q13 0 16 2.5t7 15.5l7 34q3 17 -17 17h-82q-16 0 -22.5 6.5t-1.5 16.5q11 20 43 20q46 0 65 1q11 0 16 3.5t3 13.5t-4 14t-8 17q-61 142 -86 174q-27 37 -61 42q-16 2 -23.5 8t-5.5 13q3 14 34 17h17h9.5
h25.5h55q29 0 39.5 -8t17.5 -33q36 -132 72 -210q13 -24 35 2q13 17 64 59q68 52 68 101q0 35 -37 33q-2 0 -11 -1t-13 -1.5t-9.5 1.5t-7.5 6q-6 13 20 29q40 27 83 27q37 0 56.5 -17.5t19.5 -43.5q0 -25 -11 -47.5t-33 -43t-39.5 -33.5t-45.5 -31q-49 -33 -75 -62
q-16 -17 -15 -19q2 -2 14 -1l60 5q5 0 11 1t10 1.5t8.5 0.5t7 -0.5t4.5 -2t3 -4t1 -6.5q0 -7 -9 -20t-21 -19q-12 -7 -39 -7h-57h-10t-6.5 -1t-5 -3.5t-3 -6t-3.5 -9.5q-1 -3 -2.5 -8t-2.5 -10l-2 -10q-2 -13 0 -15t16 -1q13 1 40.5 3.5t40.5 3.5q36 4 40 1q5 -3 5 -11
q0 -6 -9 -19t-21 -20q-12 -6 -39 -6q-6 0 -15 -0.5t-24 -1t-27 -0.5q-4 0 -7 -0.5t-5.5 -2t-4 -3t-3 -4t-2 -4.5t-1 -5.5t-1 -5t-1 -5.5t-0.5 -5q-5 -52 28 -66l12 -4t12 -5t6.5 -6.5t2.5 -11.5q-2 -9 -12.5 -14t-26.5 -3q-47 6 -225 -2q-8 -1 -13 2.5t-4 11.5q0 21 44 28
q45 5 69 70q13 34 -9 34z" />
    <glyph glyph-name="brokenbar" unicode="&#xa6;" horiz-adv-x="308" 
d="M130 -39v251q0 12 8 17q6 6 19 12.5t18 6.5q10 0 11.5 -3.5t-1.5 -17.5q-6 -27 -12 -258q0 -14 -20 -18q-9 -2 -16 0.5t-7 9.5zM130 318v249q0 12 8 18q6 6 19 13t18 7q10 0 11.5 -3.5t-1.5 -16.5q-6 -29 -12 -258q0 -15 -20 -19q-9 -2 -16 0.5t-7 9.5z" />
    <glyph glyph-name="section" unicode="&#xa7;" horiz-adv-x="418" 
d="M319 140q-4 -61 -61.5 -104.5t-121.5 -43.5q-57 -1 -86.5 16.5t-26.5 44.5q1 20 20 41.5t41 31.5q13 7 25 2q11 -11 1 -24q-14 -20 -15 -34t14.5 -23.5t44.5 -9.5q33 0 64.5 15t34.5 47q2 15 -4 25.5t-15 16.5t-27 15q-34 18 -101 43q-63 27 -55 98q4 47 52 92
q3 2 4.5 4.5t2 4t-0.5 4t-1 3.5t-2 4t-2 4q-11 24 -11 52q4 60 57.5 99t118.5 39q56 1 80.5 -16t20.5 -46q-3 -41 -56 -65q-16 -8 -24 -2q-12 11 -2 23q9 14 10 27q2 34 -47 34q-36 0 -61 -15t-27 -38q-2 -22 5.5 -33.5t30.5 -23.5q14 -7 91 -38q83 -38 69 -104
q-10 -47 -56 -88q-6 -6 -7 -8.5t5 -9.5q21 -23 18 -60zM111 332q0 -18 9 -30t35 -24q6 -3 42.5 -17.5t40.5 -16.5q3 -1 12.5 -6t11.5 -4t10 4q15 14 19 34q7 33 -49 58q-71 31 -90 40q-15 8 -27 -7q-14 -16 -14 -31z" />
    <glyph glyph-name="dieresis" unicode="&#xa8;" horiz-adv-x="488" 
d="M212 587q-1 -23 -22.5 -42t-43.5 -19q-26 0 -21 32q3 29 19 47t39 18q30 0 29 -36zM365 587q-1 -23 -22.5 -42t-42.5 -19q-24 0 -22 32q1 28 18.5 46.5t41.5 18.5q30 0 27 -36z" />
    <glyph glyph-name="copyright" unicode="&#xa9;" horiz-adv-x="673" 
d="M39 285q13 133 120.5 230.5t232.5 97.5q123 0 202.5 -81t67.5 -225q-12 -130 -114 -228t-227 -98q-127 0 -210 81.5t-72 222.5zM86 287q-11 -125 55.5 -194.5t184.5 -69.5q109 0 194.5 85.5t96.5 199.5q10 117 -53.5 190.5t-176.5 73.5q-109 0 -200 -84.5t-101 -200.5z
M303 82q-67 0 -102.5 46t-35.5 101q0 59 19 109t47.5 80.5t62.5 52.5t63.5 31t51.5 9q94 0 94 -51q0 -19 -12.5 -43t-34.5 -36q-20 -10 -28 -1t3 22q15 20 1.5 41.5t-41.5 21.5q-68 0 -108 -61t-40 -149q0 -54 22.5 -84.5t66.5 -30.5q64 0 109 32q24 16 33 11q12 -9 -5 -26
q-41 -42 -77 -58.5t-89 -16.5z" />
    <glyph glyph-name="ordfeminine" unicode="&#xaa;" horiz-adv-x="426" 
d="M274 243q-53 0 -15 111q4 13 0.5 14.5t-12.5 -9.5q-47 -62 -102 -102q-28 -21 -46 -6.5t-18 59.5q0 52 20 109.5t55 103.5q42 57 98 81q18 6 41.5 2t39.5 -13q20 -12 57 37q12 16 24 12q11 -2 4 -20q-63 -144 -86 -244q-12 -54 -1 -54q5 1 13 8q31 26 47 54q6 12 20 8
q12 -3 5 -15q-5 -10 -10.5 -20t-14.5 -20t-14.5 -16.5t-18 -19.5t-17.5 -18q-13 -15 -34.5 -28.5t-34.5 -13.5zM199 354q23 20 33.5 32t36.5 49q33 49 39 95q2 15 -12 24q-35 27 -67 -9q-63 -73 -63 -170q0 -49 33 -21zM57 123q-27 0 -17 21q7 19 34 19q144 3 267 15
q4 0 9 1t8 1.5t7 1t6 0t4 -2t2.5 -4.5t0.5 -7q0 -6 -7.5 -17.5t-17.5 -17.5q-10 -8 -31 -8q-20 0 -133 -1t-132 -1z" />
    <glyph glyph-name="guillemotleft" unicode="&#xab;" horiz-adv-x="423" 
d="M237 391q12 -13 -13 -40q-46 -48 -81 -104q-11 -19 -7 -46q6 -26 34 -89q12 -25 -7 -36q-14 -10 -31 16q-32 47 -87 107q-18 20 9 47q2 2 61.5 55t79.5 74q12 12 24.5 16.5t17.5 -0.5zM413 391q13 -13 -12 -40q-46 -48 -81 -104q-10 -18 -8 -46q7 -28 35 -89
q11 -26 -7 -36q-14 -10 -31 16q-32 47 -87 107q-18 20 9 47q4 4 62.5 56t78.5 73q12 12 24.5 16.5t16.5 -0.5z" />
    <glyph glyph-name="logicalnot" unicode="&#xac;" horiz-adv-x="463" 
d="M74 269q-16 0 -22 5.5t0 15.5q15 21 46 21q135 1 282 13q5 0 11.5 1t10 1.5t8.5 0.5t7 -0.5t5 -2t2.5 -4t-0.5 -6.5q0 -2 -7.5 -33t-16 -67.5t-10.5 -51.5q-1 -9 -4 -12t-11 -6q-13 -5 -33 -8q-9 -1 -11.5 2.5t-0.5 14.5q3 9 7 27.5t9 41.5t7 31q4 19 -9 19
q-201 -3 -270 -3z" />
    <glyph glyph-name="uni00AD" unicode="&#xad;" horiz-adv-x="0" 
d="M-92 267q5 13 13 19.5t22 10t28 4.5t41 3t52 6q10 2 22 5t20 5.5t15 4t10.5 -0.5t4.5 -8q1 -11 -12 -34.5t-30 -28.5q-13 -5 -46 -7h-27l-33 -2h-58q-19 0 -23.5 4t1.5 19z" />
    <glyph glyph-name="registered" unicode="&#xae;" horiz-adv-x="673" 
d="M35 285q12 133 121.5 232t234.5 99q123 0 204 -82.5t69 -226.5q-12 -130 -115.5 -228t-228.5 -98q-82 0 -149 34t-106 104.5t-30 165.5zM85 287q-11 -125 55.5 -194.5t184.5 -69.5q109 0 194.5 85.5t96.5 199.5q10 117 -53.5 190.5t-176.5 73.5q-109 0 -200 -84.5
t-101 -200.5zM228 489q1 6 13.5 9t21.5 1q19 -3 99 0q20 3 59 1q40 0 66.5 -21t26.5 -60q0 -63 -104 -99q-22 -6 -16 -25q16 -81 46 -107.5t70 -14.5q20 8 28 -3q5 -8 -6 -15q-31 -19 -68 -30q-46 -10 -68 15q-27 29 -45.5 82t-18.5 94q0 22 16 22q32 1 62 20.5t34 53.5
q7 47 -41 56q-2 0 -9 0.5t-13 0.5t-11 -1q-17 -3 -23.5 -10t-13.5 -25q-12 -38 -54 -232q-4 -24 3 -35t29 -18q14 -3 14 -13q0 -6 -11.5 -9.5t-18.5 -2.5q-58 6 -128 -3q-21 0 -21 10q-1 7 5.5 12.5t22.5 12.5q18 7 26 15.5t15 30.5q20 60 57 229q0 14 1 21t-4.5 11.5
t-8 5.5t-10.5 3q-11 3 -17 7.5t-5 10.5z" />
    <glyph glyph-name="macron" unicode="&#xaf;" horiz-adv-x="488" 
d="M201 511q-27 0 -17 22q6 22 31 22q152 2 216 6q3 0 10.5 1t10.5 1t7.5 -1t6.5 -4t2 -8q0 -15 -23 -31q-8 -6 -28 -6q-74 -2 -216 -2z" />
    <glyph glyph-name="degree" unicode="&#xb0;" horiz-adv-x="318" 
d="M92 484q2 52 41 87t88 35q52 0 81.5 -31t27.5 -83q-2 -50 -37 -86t-87 -36q-53 0 -84 29.5t-30 84.5zM141 484q-1 -72 67 -72q34 0 53.5 21.5t21.5 58.5q1 26 -14.5 47.5t-52.5 21.5q-33 0 -53.5 -20.5t-21.5 -56.5z" />
    <glyph glyph-name="plusminus" unicode="&#xb1;" horiz-adv-x="465" 
d="M79 280q-15 0 -20.5 7t1.5 17q12 18 44 18q46 0 114 2q12 1 16 5t7 15l17 74q7 31 33 42q10 4 13 -2t0 -23q-9 -36 -19 -87q-4 -13 -2 -16.5t13 -3.5q43 0 100 9q39 6 43 0q2 -4 0 -10q-1 -7 -11 -19t-23 -18t-40 -6q-6 0 -31.5 -1t-44.5 -2q-13 -1 -16.5 -4t-5.5 -16
q-12 -47 -13 -60q-3 -22 -16 -38q-8 -11 -22.5 -19t-21.5 -8q-17 0 -1 42q1 2 1 3q12 31 27 82q4 11 0.5 14.5t-15.5 3.5q-32 0 -76 -0.5t-51 -0.5zM39 61q-16 0 -22 5t-1 15q11 21 42 21q145 2 288 14q20 4 33 3.5t13 -12.5q0 -7 -9 -19t-20 -18q-12 -7 -39 -7
q-96 -2 -285 -2z" />
    <glyph glyph-name="twosuperior" unicode="&#xb2;" horiz-adv-x="328" 
d="M198 632q3 -1 4 -4.5t-2 -8.5q-12 -29 8 -29q22 0 51 8q18 6 40 6q30 0 44 -11.5t10 -36.5q-6 -34 -26 -63.5t-64 -75.5q-52 -51 -83 -76q-7 -6 -2 -10q3 -1 6 0q17 5 29 5q11 0 39 -14q13 -11 35 -11q24 0 32 23q9 17 16 17q10 0 10 -19q0 -26 -31 -61.5t-69 -35.5
q-16 0 -26 10q-29 23 -60 23q-25 0 -51.5 -6.5t-36.5 -14.5q-7 -7 -17 -9.5t-16 2.5q-7 7 2 28q7 18 22.5 32t32.5 19q20 6 47 27q49 38 98.5 90t49.5 85q0 16 -35 16q-13 0 -40 -8t-45 -8q-16 0 -23.5 15t-5.5 36q4 19 29 48q12 14 28 12z" />
    <glyph glyph-name="threesuperior" unicode="&#xb3;" horiz-adv-x="292" 
d="M125 223q-68 0 -68 43q0 20 18.5 41.5t38.5 27.5q11 3 16.5 -0.5t-0.5 -13.5q-11 -15 -2.5 -33t33.5 -18q40 0 64 19t24 47q0 52 -54 52q-30 0 -38.5 7.5t0.5 25.5q12 25 32 28q31 3 56 20t25 38q0 13 -5 17.5t-18 4.5q-16 0 -41 -5.5t-41 -5.5q-40 0 -40 38q0 24 27 53
q2 4 7 7.5t9.5 5t5.5 0.5q6 -3 6.5 -9.5t-2.5 -8.5q-14 -27 6 -27q18 0 46 9q19 6 51 6q30 0 43.5 -16.5t10.5 -34.5q-10 -59 -66 -89q-29 -16 -3 -18q54 -7 54 -67q0 -50 -61 -97t-134 -47z" />
    <glyph glyph-name="acute" unicode="&#xb4;" horiz-adv-x="488" 
d="M424 657q17 3 20.5 -6t-5.5 -16q-6 -5 -37 -30.5t-53 -45t-31 -30.5q-17 -22 -32 -17q-17 2 -4 23q44 77 49 89q6 13 21 19q7 3 35.5 7.5t36.5 6.5z" />
    <glyph glyph-name="mu" unicode="&#xb5;" horiz-adv-x="488" 
d="M399 268q-6 -24 -11.5 -53t-8 -57t1.5 -47t15 -19q17 0 47 28q5 7 15 8.5t13 -3.5q9 -15 -16 -40q-41 -41 -88 -75q-22 -16 -40 -16q-19 0 -29.5 16.5t-10.5 39.5q0 48 9 84q3 11 1.5 15t-6 1.5t-11.5 -10.5q-43 -52 -103 -114q-10 -11 -29.5 -23.5t-35.5 -12.5
q-19 0 -30 16q-7 10 -13 -9l-1 -2q-20 -88 -33 -222q-1 -17 -7.5 -24t-20.5 -12q-22 -11 -68 -11q-14 0 -18.5 4t0.5 21q100 235 145 396q25 86 76 227q12 31 33 47q23 16 46 21q13 1 16 -8t-3 -21q-73 -173 -77 -276q-2 -43 14 -44q13 0 42 30q72 80 105 146q17 38 41 104
q8 25 32 45q31 20 49 23q7 2 10.5 -6t-0.5 -18q-29 -71 -51 -149z" />
    <glyph glyph-name="mu" unicode="&#x3bc;" horiz-adv-x="488" 
d="M399 268q-6 -24 -11.5 -53t-8 -57t1.5 -47t15 -19q17 0 47 28q5 7 15 8.5t13 -3.5q9 -15 -16 -40q-41 -41 -88 -75q-22 -16 -40 -16q-19 0 -29.5 16.5t-10.5 39.5q0 48 9 84q3 11 1.5 15t-6 1.5t-11.5 -10.5q-43 -52 -103 -114q-10 -11 -29.5 -23.5t-35.5 -12.5
q-19 0 -30 16q-7 10 -13 -9l-1 -2q-20 -88 -33 -222q-1 -17 -7.5 -24t-20.5 -12q-22 -11 -68 -11q-14 0 -18.5 4t0.5 21q100 235 145 396q25 86 76 227q12 31 33 47q23 16 46 21q13 1 16 -8t-3 -21q-73 -173 -77 -276q-2 -43 14 -44q13 0 42 30q72 80 105 146q17 38 41 104
q8 25 32 45q31 20 49 23q7 2 10.5 -6t-0.5 -18q-29 -71 -51 -149z" />
    <glyph glyph-name="paragraph" unicode="&#xb6;" horiz-adv-x="488" 
d="M371 593q15 0 43 -1.5t41 -1.5q21 0 47.5 3t35.5 4q9 0 13 -4.5t1 -10.5q-2 -9 -25 -13q-53 -7 -72 -74q-90 -308 -91 -469q1 -9 0.5 -14t-3.5 -7t-11 -5q-24 -8 -39 -8q-9 0 -10 3.5t0 23.5q5 88 122 513q7 23 -12 23q-20 0 -26 -15q-34 -87 -76 -259.5t-50 -246.5v-11
t-0.5 -8.5t-4.5 -7t-11 -5.5q-13 -5 -32 -8q-18 -1 -20.5 6.5t3.5 26.5q18 73 66 223q3 10 0.5 14t-10.5 1q-62 -23 -110 -23q-43 0 -68.5 28.5t-25.5 72.5q0 99 100 174.5t225 75.5z" />
    <glyph glyph-name="periodcentered" unicode="&#xb7;" horiz-adv-x="149" 
d="M102 237q-53 0 -53 55q0 21 17.5 40t47.5 19q23 0 36 -13t13 -32q0 -33 -18.5 -51t-42.5 -18z" />
    <glyph glyph-name="cedilla" unicode="&#xb8;" horiz-adv-x="488" 
d="M167 -180q39 26 15 66q-29 50 41 100q26 19 47 26.5t26 0.5q3 -3 3.5 -6t-1.5 -6.5t-4 -6.5t-7 -7t-8 -6.5t-8.5 -6.5t-7.5 -6q-30 -22 -5 -58q34 -54 -48 -105q-41 -28 -51 -31.5t-18 7.5q-10 15 26 39z" />
    <glyph glyph-name="onesuperior" unicode="&#xb9;" horiz-adv-x="247" 
d="M100 226q-10 -2 -14 4.5t0 18.5q15 35 52.5 134t44.5 124q2 8 -1.5 9.5t-9.5 -3.5q-27 -19 -63 -55q-6 -5 -12.5 -3.5t-8.5 6.5q-7 14 3 22q87 76 95 84l25 28q10 12 59 12q13 0 4 -25q-1 -5 -2 -7q-62 -153 -93 -304q0 -1 -1 -3q-3 -20 -15 -27q-3 -1 -7 -3
q-25 -10 -56 -12z" />
    <glyph glyph-name="ordmasculine" unicode="&#xba;" horiz-adv-x="394" 
d="M65 123q-28 0 -18 21q8 19 35 19q65 1 203 15q3 0 8.5 1t8 1.5t6.5 1t6 0t4 -2t3 -4.5t1 -7q0 -6 -8 -18t-18 -17q-9 -8 -31 -8q-20 0 -100.5 -1t-99.5 -1zM190 247q-87 0 -83 107q1 29 14 70t28 68q35 59 78 89.5t77 30.5q72 0 70 -109q-4 -69 -41 -135
q-24 -44 -65.5 -82.5t-77.5 -38.5zM266 546q-34 0 -55 -49.5t-23 -98.5q-4 -82 32 -82q28 0 50 41t25 121q3 68 -29 68z" />
    <glyph glyph-name="guillemotright" unicode="&#xbb;" horiz-adv-x="423" 
d="M211 76q-12 12 13 39q56 63 81 105q11 20 7 45q-6 26 -34 89q-12 25 7 37q15 9 31 -16q31 -47 86 -107q19 -21 -8 -47q-11 -11 -66.5 -60.5t-74.5 -68.5q-12 -12 -24.5 -17t-17.5 1zM35 76q-12 12 12 39q51 56 81 105q10 17 8 45q-8 28 -35 89q-12 25 7 37q15 9 31 -16
q33 -50 87 -107q17 -22 -9 -47q-11 -11 -66.5 -60.5t-74.5 -68.5q-12 -12 -24 -17t-17 1z" />
    <glyph glyph-name="onequarter" unicode="&#xbc;" horiz-adv-x="687" 
d="M622 368q19 1 18 -11q-1 -7 -11 -34q-5 -9 -22 -72t-21 -92q0 -6 24 -6q9 0 16.5 3.5t10 6t9.5 11.5q8 13 18 7q5 -4 3 -10q-18 -49 -32 -64q-12 -12 -21 -12q-5 0 -12.5 1.5t-11.5 1.5q-14 0 -18 -22q-8 -30 -8 -52q2 -20 -12 -31q-9 -8 -29.5 -13t-30.5 -5
q-14 0 -14 14t16 43q6 16 16 61q2 10 -11 13t-36 3q-17 0 -44 -5t-44 -5q-23 0 -23 10q0 33 30 63l148 135q25 29 27 33q7 10 16 15.5t14 7t18 3t17 2.5zM73 -28q-21 4 5 41q7 10 19 25q48 62 186.5 250.5t174.5 242.5q19 28 42 73q8 12 23 9q5 -3 6 -6q0 -41 -11 -78
q-13 -37 -34 -63q-39 -48 -172 -218t-181 -235q-34 -43 -58 -41zM83 226q-10 -2 -14 4.5t0 18.5q15 35 52.5 134t44.5 124q2 8 -1.5 9.5t-9.5 -3.5q-30 -22 -63 -55q-6 -5 -12.5 -3.5t-8.5 6.5q-7 14 3 22q87 76 95 84l25 28q10 12 59 12q12 0 9 -12q-1 -3 -4 -11l-3 -9
q-62 -153 -93 -304q0 -1 -1 -3q-3 -20 -15 -27q-3 -1 -7 -3q-23 -10 -56 -12zM556 276q2 9 -2.5 9.5t-9.5 -6.5q-62 -53 -120 -109q-11 -11 7 -11q7 0 20 2t18 2q33 0 44 -3q10 -4 15 10q5 16 14 53.5t14 52.5z" />
    <glyph glyph-name="onehalf" unicode="&#xbd;" horiz-adv-x="733" 
d="M550 384q3 0 5 -4.5t1 -9.5q-2 -2 -4 -8.5t1.5 -13t12.5 -6.5q22 0 52 8q16 6 39 6q31 0 44.5 -11.5t9.5 -36.5q-6 -35 -25.5 -65t-64.5 -75q-51 -50 -82 -75q-7 -6 -3 -11q2 -2 6 0q16 6 30 6q16 0 38 -15q15 -11 36 -11q24 0 32 24q1 4 6.5 10.5t9.5 6.5q10 0 10 -19
q0 -26 -31 -61.5t-69 -35.5q-16 0 -27 10q-26 22 -59 22q-62 0 -89 -21q-6 -6 -16 -8.5t-17 2.5q-5 6 2 27q7 18 23 32.5t33 19.5q21 6 47 27q48 36 98 88.5t50 86.5q0 16 -35 16q-13 0 -40.5 -8t-44.5 -8q-16 0 -23.5 15t-5.5 36q3 21 29 47q4 7 11.5 11t9.5 2zM73 -28
q-21 4 5 41q7 10 19 25q48 62 186.5 250.5t174.5 242.5q19 28 42 73q8 12 23 9q5 -3 6 -6q0 -41 -11 -78q-13 -37 -34 -63q-39 -48 -172 -218t-181 -235q-34 -43 -58 -41zM82 226q-10 -2 -14 4.5t0 18.5q15 32 52 131.5t45 126.5q2 8 -1.5 9.5t-9.5 -3.5q-17 -12 -63 -55
q-6 -5 -12.5 -3.5t-8.5 6.5q-7 14 3 22q87 76 95 84l26 28q9 12 59 12q13 0 3 -26q-1 -4 -2 -6q-62 -155 -92 -304q0 -2 -1 -4q-5 -21 -23 -29q-23 -10 -56 -12z" />
    <glyph glyph-name="threequarters" unicode="&#xbe;" horiz-adv-x="760" 
d="M699 368q12 1 15.5 -3.5t1 -13.5t-8.5 -24q-1 -1 -1.5 -2t-0.5 -2q-5 -9 -22 -72t-21 -92q0 -6 25 -6q19 0 36 21q7 13 17 7q5 -3 3 -10q-14 -45 -32 -64q-12 -12 -21 -12q-5 0 -12 1.5t-11 1.5q-14 0 -19 -22q-7 -35 -7 -52q0 -20 -12 -31q-10 -8 -30.5 -13t-30.5 -5
q-13 0 -13 14t16 43q8 24 16 61q1 5 -2.5 8.5t-11.5 5t-15 2t-18 0.5q-18 0 -44.5 -5t-43.5 -5q-24 0 -24 10q0 32 31 63l148 135q25 29 27 33q6 10 15 15.5t14.5 7t18.5 3t17 2.5zM121 223q-68 0 -68 43q0 20 18.5 41.5t38.5 27.5q11 3 16.5 -0.5t-0.5 -13.5
q-14 -20 -6 -36.5t37 -16.5q40 0 66 20t26 48q0 52 -58 52q-30 0 -38.5 7.5t0.5 25.5q12 25 31 28q32 3 57 19.5t25 38.5q0 13 -5 17.5t-19 4.5q-15 0 -40 -5.5t-41 -5.5q-41 0 -41 38q0 22 27 53q4 6 12.5 10.5t10.5 2.5q6 -3 6.5 -9.5t-2.5 -8.5q-14 -27 5 -27t47 9
q19 6 51 6q30 0 43.5 -16.5t10.5 -34.5q-10 -59 -66 -89q-29 -16 -3 -18q54 -7 54 -67q0 -50 -61 -97t-134 -47zM167 -28q-20 4 0 35q8 12 23 31q48 62 186.5 250.5t174.5 242.5q17 22 42 73q10 13 24 9q6 -2 6 -6q-2 -49 -12 -78q-11 -34 -34 -63q-42 -52 -173.5 -220.5
t-178.5 -232.5q-35 -43 -58 -41zM632 276q3 9 -1.5 9.5t-10.5 -6.5q-63 -55 -119 -109q-11 -11 7 -11q8 0 20 2t17 2q33 0 44 -3q7 -2 9.5 0t5.5 10q6 18 16 58z" />
    <glyph glyph-name="questiondown" unicode="&#xbf;" horiz-adv-x="388" 
d="M242 262q9 0 13.5 -9t2.5 -16q-16 -85 -95 -147q-48 -37 -76.5 -72.5t-28.5 -79.5q0 -25 17.5 -48.5t55.5 -23.5q42 0 71.5 22t29.5 59q0 28 -8 37t-28 13q-4 1 -8.5 1.5t-5.5 0.5t-3 1t-2.5 2t-2.5 4q-4 6 -2.5 9.5t10.5 9.5q31 22 61 22q29 0 51.5 -20.5t22.5 -59.5
q0 -49 -57 -95t-143 -46q-155 0 -153 90q0 19 2 34t12 30.5t14.5 24t24 25t26 21.5t35 26t36.5 27q80 57 99 133q7 25 29 25zM257 332q-22 -1 -40 10t-18 31q0 30 18.5 45t42.5 19q31 3 47 -11t16 -35q0 -25 -20.5 -40.5t-45.5 -18.5z" />
    <glyph glyph-name="Agrave" unicode="&#xc0;" horiz-adv-x="682" 
d="M492 593q8 -82 34.5 -262.5t31.5 -203.5q7 -30 10.5 -42.5t17.5 -27t38 -22.5q17 -5 17 -18q-2 -20 -30 -19q-50 4 -204 -1q-8 0 -14 4.5t-6 11.5q0 17 15 22q26 7 37 17.5t13 28.5q1 14 -2 45.5t-6 41.5q-2 11 -20 15q-21 2 -98.5 2.5t-94.5 -1.5q-32 -1 -42 -15
q-38 -47 -46 -87q-3 -16 10 -30t33 -17q9 -2 16 -8.5t6 -13.5q-2 -7 -13 -11.5t-23 -2.5q-72 7 -144 1q-41 -4 -41 8q0 9 11.5 22.5t31.5 30.5t25 23q53 60 145.5 186t151.5 216q24 39 32 61q13 36 68 59q36 16 40 -13zM399 459q-11 0 -32 -30q-82 -115 -124 -182
q-5 -9 -6 -13t1.5 -7t10.5 -3q59 -4 171 -2q11 0 15 5t3 20q-1 10 -5.5 53.5t-9 77t-11.5 59.5q-2 22 -13 22zM463 640q-53 40 -95 80q-17 15 -3 28q19 17 49 29q17 7 21 -6q6 -18 15.5 -40.5t22 -48t14.5 -31.5q2 -5 -2 -9.5t-10 -5t-12 3.5z" />
    <glyph glyph-name="Aacute" unicode="&#xc1;" horiz-adv-x="682" 
d="M492 593q8 -82 34.5 -262.5t31.5 -203.5q7 -30 10.5 -42.5t17.5 -27t38 -22.5q17 -5 17 -18q-2 -20 -30 -19q-50 4 -204 -1q-8 0 -14 4.5t-6 11.5q0 17 15 22q26 7 37 17.5t13 28.5q1 14 -2 45.5t-6 41.5q-2 11 -20 15q-21 2 -98.5 2.5t-94.5 -1.5q-32 -1 -42 -15
q-38 -47 -46 -87q-3 -16 10 -30t33 -17q9 -2 16 -8.5t6 -13.5q-2 -7 -13 -11.5t-23 -2.5q-72 7 -144 1q-41 -4 -41 8q0 9 11.5 22.5t31.5 30.5t25 23q53 60 145.5 186t151.5 216q24 39 32 61q13 36 68 59q36 16 40 -13zM399 459q-11 0 -32 -30q-82 -115 -124 -182
q-5 -9 -6 -13t1.5 -7t10.5 -3q59 -4 171 -2q11 0 15 5t3 20q-1 10 -5.5 53.5t-9 77t-11.5 59.5q-2 22 -13 22zM603 758q16 2 18.5 -8t-7.5 -16q-112 -70 -125 -81q-24 -19 -35 -13q-18 5 -2 23q6 7 19 22t22 27t15 23t22 17q9 2 38 3.5t35 2.5z" />
    <glyph glyph-name="Acircumflex" unicode="&#xc2;" horiz-adv-x="682" 
d="M494 753q12 2 16 -1t7 -15q5 -18 20.5 -46.5t16.5 -30.5q9 -18 -5 -24q-16 -3 -30 11q-7 8 -25 20q-15 9 -35 2q-16 -5 -36 -17q-27 -18 -41 -12q-18 7 14 33q35 25 64 56q18 23 34 24zM492 593q8 -82 34.5 -262.5t31.5 -203.5q7 -30 10.5 -42.5t17.5 -27t38 -22.5
q17 -5 17 -18q-2 -20 -30 -19q-50 4 -204 -1q-8 0 -14 4.5t-6 11.5q0 17 15 22q26 7 37 17.5t13 28.5q1 14 -2 45.5t-6 41.5q-2 11 -20 15q-21 2 -98.5 2.5t-94.5 -1.5q-32 -1 -42 -15q-38 -47 -46 -87q-3 -16 10 -30t33 -17q9 -2 16 -8.5t6 -13.5q-2 -7 -13 -11.5t-23 -2.5
q-72 7 -144 1q-41 -4 -41 8q0 9 11.5 22.5t31.5 30.5t25 23q53 60 145.5 186t151.5 216q24 39 32 61q13 36 68 59q36 16 40 -13zM399 459q-11 0 -32 -30q-82 -115 -124 -182q-5 -9 -6 -13t1.5 -7t10.5 -3q59 -4 171 -2q11 0 15 5t3 20q-1 10 -5.5 53.5t-9 77t-11.5 59.5
q-2 22 -13 22z" />
    <glyph glyph-name="Atilde" unicode="&#xc3;" horiz-adv-x="682" 
d="M492 593q8 -82 34.5 -262.5t31.5 -203.5q7 -30 10.5 -42.5t17.5 -27t38 -22.5q17 -5 17 -18q-2 -20 -30 -19q-50 4 -204 -1q-8 0 -14 4.5t-6 11.5q0 17 15 22q26 7 37 17.5t13 28.5q1 14 -2 45.5t-6 41.5q-2 11 -20 15q-21 2 -98.5 2.5t-94.5 -1.5q-32 -1 -42 -15
q-38 -47 -46 -87q-3 -16 10 -30t33 -17q9 -2 16 -8.5t6 -13.5q-2 -7 -13 -11.5t-23 -2.5q-72 7 -144 1q-41 -4 -41 8q0 9 11.5 22.5t31.5 30.5t25 23q53 60 145.5 186t151.5 216q24 39 32 61q13 36 68 59q36 16 40 -13zM399 459q-11 0 -32 -30q-82 -115 -124 -182
q-5 -9 -6 -13t1.5 -7t10.5 -3q59 -4 171 -2q11 0 15 5t3 20q-1 10 -5.5 53.5t-9 77t-11.5 59.5q-2 22 -13 22zM419 679q-2 -2 -8.5 -7.5t-11 -9t-11.5 -8t-11 -4.5t-9 2q-13 12 -8 22t33 35q19 17 33.5 27t30.5 16.5t30.5 4t27.5 -14.5q35 -31 68 2q30 30 44 18
q9 -10 3 -19.5t-40 -43.5q-69 -70 -113 -26q-27 29 -58 6z" />
    <glyph glyph-name="Adieresis" unicode="&#xc4;" horiz-adv-x="682" 
d="M492 593q8 -82 34.5 -262.5t31.5 -203.5q7 -30 10.5 -42.5t17.5 -27t38 -22.5q17 -5 17 -18q-2 -20 -30 -19q-50 4 -204 -1q-8 0 -14 4.5t-6 11.5q0 17 15 22q26 7 37 17.5t13 28.5q1 14 -2 45.5t-6 41.5q-2 11 -20 15q-21 2 -98.5 2.5t-94.5 -1.5q-32 -1 -42 -15
q-38 -47 -46 -87q-3 -16 10 -30t33 -17q9 -2 16 -8.5t6 -13.5q-2 -7 -13 -11.5t-23 -2.5q-72 7 -144 1q-41 -4 -41 8q0 9 11.5 22.5t31.5 30.5t25 23q53 60 145.5 186t151.5 216q24 39 32 61q13 36 68 59q36 16 40 -13zM399 459q-11 0 -32 -30q-82 -115 -124 -182
q-5 -9 -6 -13t1.5 -7t10.5 -3q59 -4 171 -2q11 0 15 5t3 20q-1 10 -5.5 53.5t-9 77t-11.5 59.5q-2 22 -13 22zM456 720q-1 -24 -23.5 -44t-45.5 -20q-26 0 -23 33q4 30 21 49.5t41 19.5q31 0 30 -38zM615 720q-1 -24 -23.5 -44t-45.5 -20q-25 0 -23 33q2 30 20 49.5t43 19.5
q32 0 29 -38z" />
    <glyph glyph-name="Aring" unicode="&#xc5;" horiz-adv-x="682" 
d="M492 593q8 -82 34.5 -262.5t31.5 -203.5q7 -30 10.5 -42.5t17.5 -27t38 -22.5q17 -5 17 -18q-2 -20 -30 -19q-50 4 -204 -1q-8 0 -14 4.5t-6 11.5q0 17 15 22q26 7 37 17.5t13 28.5q1 14 -2 45.5t-6 41.5q-2 11 -20 15q-21 2 -98.5 2.5t-94.5 -1.5q-32 -1 -42 -15
q-38 -47 -46 -87q-3 -16 10 -30t33 -17q9 -2 16 -8.5t6 -13.5q-2 -7 -13 -11.5t-23 -2.5q-72 7 -144 1q-41 -4 -41 8q0 9 11.5 22.5t31.5 30.5t25 23q53 60 145.5 186t151.5 216q24 39 32 61q13 36 68 59q36 16 40 -13zM399 459q-11 0 -32 -30q-82 -115 -124 -182
q-5 -9 -6 -13t1.5 -7t10.5 -3q59 -4 171 -2q11 0 15 5t3 20q-1 10 -5.5 53.5t-9 77t-11.5 59.5q-2 22 -13 22zM510 783q41 0 63 -16t22 -41q0 -37 -37.5 -63.5t-79.5 -26.5q-41 0 -62 16.5t-21 42.5q0 37 35.5 62.5t79.5 25.5zM503 752q-20 0 -36 -13t-16 -35q0 -34 33 -34
q19 0 35 11.5t16 39.5q0 31 -32 31z" />
    <glyph glyph-name="AE" unicode="&#xc6;" horiz-adv-x="893" 
d="M576 598q47 0 173 4t131 4q35 0 45 -13.5t7 -35.5q-3 -23 -16.5 -53t-32.5 -51q-16 -19 -29 -11q-10 4 -3 21q17 38 -5 68t-56 30q-132 0 -154 -5q-14 -4 -19 -8.5t-8 -15.5q-3 -13 -19 -80t-18 -77q-8 -14 -3 -25t35 -11q58 0 73 2q35 4 50.5 17.5t30.5 50.5q6 15 12 16
q5 2 15 2q15 0 5 -34q-27 -74 -45 -154q-2 -8 -10.5 -14.5t-16.5 -7.5q-4 0 -7.5 6.5t-1.5 14.5q1 45 -37 54q-49 13 -89 10q-17 -1 -23.5 -6t-11.5 -19q-16 -57 -35 -158q-7 -27 -3.5 -40t23.5 -19q30 -9 126 -9q140 0 197 114q10 22 30 20q21 -2 5 -44q-10 -31 -39 -75
t-65 -63q-29 -9 -60 -6q-203 13 -269 11q-24 0 -53.5 -2.5t-55 -5.5t-27.5 -3q-7 0 -13 4.5t-5 11.5q0 8 8 14.5t14.5 9t18.5 5.5q30 8 40.5 20.5t21.5 41.5q8 21 18 58q1 3 2 7.5t1.5 6.5t0.5 4t-2 3t-5 1.5t-9 0.5q-96 2 -147 -1q-30 -1 -44 -15q-47 -44 -64 -84
q-6 -16 3.5 -31t28.5 -18q8 -1 14 -8.5t4 -14.5q-4 -7 -16 -11.5t-24 -2.5q-68 6 -143 1q-9 -1 -15.5 -1t-12 0.5t-8.5 2.5t-2 6q2 13 14.5 26t35 29t27.5 21q72 65 198.5 194.5t193.5 207.5q20 24 25.5 38.5t-4 25t-39.5 16.5q-14 4 -11 22q1 3 4.5 7t14 7t25.5 2
q44 -6 105 -6zM289 247q-7 -9 -9 -13t0 -7t10 -3q36 -3 126 -3q2 0 8.5 -0.5t8 0t5 2t4.5 4.5t2 9q19 83 43 194q3 16 -5 15q-7 0 -22 -16q-9 -9 -86 -90.5t-85 -91.5z" />
    <glyph glyph-name="Ccedilla" unicode="&#xc7;" horiz-adv-x="541" 
d="M266 -32q-28 -24 -6 -58q35 -53 -48 -105q-40 -28 -50 -31.5t-19 7.5q-10 15 26 39q39 25 15 66q-24 44 32 93q8 8 7 9q-2 2 -24 8q-69 17 -102.5 74.5t-33.5 123.5q0 77 24.5 145.5t62.5 116.5t84.5 83.5t91 52.5t81.5 17q127 0 127 -64q0 -28 -17 -57.5t-47 -47.5
q-27 -15 -36 -6q-10 14 1 32q6 11 9 30.5t-9.5 39t-44.5 19.5q-63 0 -115 -49t-79 -122.5t-27 -152.5q0 -180 125 -180q92 0 161 64q26 24 38 16q15 -11 -7 -35q-76 -81 -163 -99q-2 -1 -12 -3.5t-14 -4t-11 -4.5t-12 -7.5t-8 -9.5z" />
    <glyph glyph-name="Egrave" unicode="&#xc8;" 
d="M227 -8q-185 0 -185 147q0 70 59.5 126.5t128.5 77.5q14 6 14 11q0 8 -15 12q-72 16 -72 82q1 67 75 114t159 47q23 0 41.5 -2.5t38 -9t30 -21t9.5 -36.5q0 -13 -7 -26t-11 -18t-21 -19.5t-18 -15.5q-21 -15 -35 -9q-14 7 -2 24q12 18 13 39q1 24 -17 36.5t-48 12.5
q-37 0 -71.5 -29.5t-34.5 -74.5q0 -46 17.5 -65t58.5 -19q26 0 38 2q8 1 14 -4.5t0 -18.5q-12 -23 -34 -23q-79 -4 -139 -56.5t-60 -126.5q0 -50 24.5 -72.5t75.5 -22.5q55 0 101 26.5t69 60.5q5 7 14 11t16 0q19 -11 4 -31q-35 -55 -104 -92t-126 -37zM380 640
q-44 33 -95 80q-16 16 -2 28q17 17 49 29q16 7 21 -6q5 -16 51 -120q3 -5 -1 -9.5t-10.5 -5t-12.5 3.5z" />
    <glyph glyph-name="Eacute" unicode="&#xc9;" 
d="M227 -8q-185 0 -185 147q0 70 59.5 126.5t128.5 77.5q14 6 14 11q0 8 -15 12q-72 16 -72 82q1 67 75 114t159 47q23 0 41.5 -2.5t38 -9t30 -21t9.5 -36.5q0 -13 -7 -26t-11 -18t-21 -19.5t-18 -15.5q-21 -15 -35 -9q-14 7 -2 24q12 18 13 39q1 24 -17 36.5t-48 12.5
q-37 0 -71.5 -29.5t-34.5 -74.5q0 -46 17.5 -65t58.5 -19q26 0 38 2q8 1 14 -4.5t0 -18.5q-12 -23 -34 -23q-79 -4 -139 -56.5t-60 -126.5q0 -50 24.5 -72.5t75.5 -22.5q55 0 101 26.5t69 60.5q5 7 14 11t16 0q19 -11 4 -31q-35 -55 -104 -92t-126 -37zM513 758
q16 2 18.5 -8t-7.5 -16q-112 -70 -125 -81q-24 -19 -35 -13q-18 5 -2 23q4 5 26 31t30 41q6 11 22 17q9 2 38 3.5t35 2.5z" />
    <glyph glyph-name="Ecircumflex" unicode="&#xca;" 
d="M227 -8q-185 0 -185 147q0 70 59.5 126.5t128.5 77.5q14 6 14 11q0 8 -15 12q-72 16 -72 82q1 67 75 114t159 47q23 0 41.5 -2.5t38 -9t30 -21t9.5 -36.5q0 -13 -7 -26t-11 -18t-21 -19.5t-18 -15.5q-21 -15 -35 -9q-14 7 -2 24q12 18 13 39q1 24 -17 36.5t-48 12.5
q-37 0 -71.5 -29.5t-34.5 -74.5q0 -46 17.5 -65t58.5 -19q26 0 38 2q8 1 14 -4.5t0 -18.5q-12 -23 -34 -23q-79 -4 -139 -56.5t-60 -126.5q0 -50 24.5 -72.5t75.5 -22.5q55 0 101 26.5t69 60.5q5 7 14 11t16 0q19 -11 4 -31q-35 -55 -104 -92t-126 -37zM423 761q12 2 16 -1
t7 -15q5 -17 20 -44t17 -33q9 -19 -5 -24q-15 -3 -29 11q-9 9 -26 19q-14 10 -35 3q-17 -5 -35 -18q-29 -17 -42 -12q-16 8 15 33q60 53 63 57q18 21 34 24z" />
    <glyph glyph-name="Edieresis" unicode="&#xcb;" 
d="M227 -8q-185 0 -185 147q0 70 59.5 126.5t128.5 77.5q14 6 14 11q0 8 -15 12q-72 16 -72 82q1 67 75 114t159 47q23 0 41.5 -2.5t38 -9t30 -21t9.5 -36.5q0 -13 -7 -26t-11 -18t-21 -19.5t-18 -15.5q-21 -15 -35 -9q-14 7 -2 24q12 18 13 39q1 24 -17 36.5t-48 12.5
q-37 0 -71.5 -29.5t-34.5 -74.5q0 -46 17.5 -65t58.5 -19q26 0 38 2q8 1 14 -4.5t0 -18.5q-12 -23 -34 -23q-79 -4 -139 -56.5t-60 -126.5q0 -50 24.5 -72.5t75.5 -22.5q55 0 101 26.5t69 60.5q5 7 14 11t16 0q19 -11 4 -31q-35 -55 -104 -92t-126 -37zM372 720
q-1 -24 -23.5 -44t-45.5 -20q-26 0 -23 33q4 30 21 49.5t41 19.5q31 0 30 -38zM531 720q-1 -24 -23.5 -44t-45.5 -20q-25 0 -23 33q2 30 20 49.5t43 19.5q32 0 29 -38z" />
    <glyph glyph-name="Igrave" unicode="&#xcc;" horiz-adv-x="339" 
d="M201 494q3 8 1 15.5t-2 13t-5 11t-6.5 8.5t-8 7t-9 5.5t-9 4t-8.5 3.5t-7 2.5t-6 1.5q-14 5 -12 19q3 20 43 15q23 -2 95 -2t113 2q16 1 21.5 -3t3.5 -15q-4 -15 -27 -18q-33 -6 -49.5 -22.5t-28.5 -51.5q-8 -22 -47 -181.5t-41 -199.5q-5 -53 28 -66l12 -4t12 -5
t6.5 -6.5t2.5 -11.5q-2 -9 -12.5 -14t-26.5 -3q-47 6 -225 -2q-8 -1 -13 2.5t-4 11.5q0 21 44 28q45 5 69 70q11 25 51 190t45 195zM299 640q-53 40 -95 80q-17 15 -3 28q19 17 49 29q17 7 21 -6q8 -24 29 -71t22 -49q3 -5 -1 -9.5t-10 -5t-12 3.5z" />
    <glyph glyph-name="Iacute" unicode="&#xcd;" horiz-adv-x="339" 
d="M201 494q3 8 1 15.5t-2 13t-5 11t-6.5 8.5t-8 7t-9 5.5t-9 4t-8.5 3.5t-7 2.5t-6 1.5q-14 5 -12 19q3 20 43 15q23 -2 95 -2t113 2q16 1 21.5 -3t3.5 -15q-4 -15 -27 -18q-33 -6 -49.5 -22.5t-28.5 -51.5q-8 -22 -47 -181.5t-41 -199.5q-5 -53 28 -66l12 -4t12 -5
t6.5 -6.5t2.5 -11.5q-2 -9 -12.5 -14t-26.5 -3q-47 6 -225 -2q-8 -1 -13 2.5t-4 11.5q0 21 44 28q45 5 69 70q11 25 51 190t45 195zM407 758q17 2 19.5 -8t-8.5 -16q-8 -5 -38 -23.5t-52.5 -33.5t-33.5 -24q-24 -19 -36 -13q-17 6 -1 23q2 3 24.5 30t30.5 42q6 11 23 17
q8 2 37 3.5t35 2.5z" />
    <glyph glyph-name="Icircumflex" unicode="&#xce;" horiz-adv-x="339" 
d="M201 494q3 8 1 15.5t-2 13t-5 11t-6.5 8.5t-8 7t-9 5.5t-9 4t-8.5 3.5t-7 2.5t-6 1.5q-14 5 -12 19q3 20 43 15q23 -2 95 -2t113 2q16 1 21.5 -3t3.5 -15q-4 -15 -27 -18q-33 -6 -49.5 -22.5t-28.5 -51.5q-8 -22 -47 -181.5t-41 -199.5q-5 -53 28 -66l12 -4t12 -5
t6.5 -6.5t2.5 -11.5q-2 -9 -12.5 -14t-26.5 -3q-47 6 -225 -2q-8 -1 -13 2.5t-4 11.5q0 21 44 28q45 5 69 70q11 25 51 190t45 195zM313 753q12 2 16 -1t7 -15q5 -18 20.5 -46.5t16.5 -30.5q9 -18 -5 -24q-16 -3 -30 11q-7 8 -25 20q-15 9 -35 2q-16 -5 -36 -17
q-27 -18 -41 -12q-18 7 14 33q9 6 33 27t31 29q18 23 34 24z" />
    <glyph glyph-name="Idieresis" unicode="&#xcf;" horiz-adv-x="339" 
d="M201 494q3 8 1 15.5t-2 13t-5 11t-6.5 8.5t-8 7t-9 5.5t-9 4t-8.5 3.5t-7 2.5t-6 1.5q-14 5 -12 19q3 20 43 15q23 -2 95 -2t113 2q16 1 21.5 -3t3.5 -15q-4 -15 -27 -18q-33 -6 -49.5 -22.5t-28.5 -51.5q-8 -22 -47 -181.5t-41 -199.5q-5 -53 28 -66l12 -4t12 -5
t6.5 -6.5t2.5 -11.5q-2 -9 -12.5 -14t-26.5 -3q-47 6 -225 -2q-8 -1 -13 2.5t-4 11.5q0 21 44 28q45 5 69 70q11 25 51 190t45 195zM271 720q-1 -24 -23.5 -44t-45.5 -20q-26 0 -23 33q4 30 21 49.5t41 19.5q31 0 30 -38zM430 720q-1 -24 -23.5 -44t-45.5 -20q-25 0 -23 33
q2 30 20 49.5t43 19.5q32 0 29 -38z" />
    <glyph glyph-name="Eth" unicode="&#xd0;" horiz-adv-x="644" 
d="M116 320q-16 0 -22.5 6.5t-1.5 16.5q11 20 43 20q19 0 29.5 5t11.5 7.5t4 10.5q9 34 22 90q11 49 3 66q-9 22 -53 20q-39 -2 -39 15q0 20 31 23q85 9 195 9q73 0 118 -5q74 -9 123 -63.5t49 -140.5q0 -101 -50 -196.5t-132.5 -154.5t-170.5 -59q-106 0 -160 43
q-25 15 -8 76q0 1 46 181q5 9 2 15t-2.5 9t-7 4.5t-11 1.5h-13.5h-6zM308 536q-17 -60 -37 -143q-5 -19 -3 -23.5t18 -4.5q25 1 104 8q5 0 14.5 1.5t13.5 1.5t9 -0.5t7 -3.5t2 -9q0 -7 -9.5 -20t-21.5 -19q-12 -7 -39 -7q-29 -2 -93 0q-11 0 -16 -3.5t-8 -18.5
q-18 -75 -36 -191q-5 -32 10 -50.5t62 -18.5q70 0 124.5 53t82 126.5t34.5 155.5q15 175 -117 196q-29 5 -61 4q-21 -1 -28 -7.5t-12 -26.5z" />
    <glyph glyph-name="Ntilde" unicode="&#xd1;" horiz-adv-x="710" 
d="M122 592q5 12 40 12q63 0 120 -11q45 -10 86 -44t68 -71t55.5 -97.5t41.5 -95t33 -91.5q7 -26 16 -26q3 -1 7 5.5t7 15.5q45 182 49 290q1 42 -18 62t-60 27q-15 3 -20 8t-3 12q2 6 4 9t11 5.5t25 1.5q78 -9 149 -1q9 1 17.5 -1.5t13 -10t-7.5 -21.5q-30 -45 -39 -78
q-3 -14 -22 -90t-29 -117.5t-24 -113t-23 -131.5q-3 -19 -6 -24t-15 -9q-23 -8 -65 -11h-15.5t-11 4.5t-4.5 14.5q-1 64 -38 170.5t-86.5 192.5t-82.5 95q-23 4 -26 -12q-54 -223 -64 -306q-7 -43 7 -74.5t51 -39.5q10 -1 20 -9t9 -16q-1 -10 -15 -14.5t-29 -2.5
q-52 5 -167 -2q-13 0 -16 7t1 16.5t12 19.5q31 41 41 65q48 112 102 370q9 42 -10 62.5t-60 28.5q-14 3 -23.5 11t-5.5 15zM423 679q-2 -2 -11 -9.5t-14 -11t-14 -7.5t-12 1q-13 11 -8 21.5t33 35.5q19 17 33.5 27t30.5 16.5t30.5 4t27.5 -14.5q35 -30 69 2q29 30 43 18
q9 -11 3.5 -20t-40.5 -43q-68 -70 -113 -26q-27 29 -58 6z" />
    <glyph glyph-name="Ograve" unicode="&#xd2;" horiz-adv-x="688" 
d="M424 614q121 0 183 -72.5t60 -172.5q-3 -94 -48 -182t-126 -146t-175 -58q-72 0 -123.5 25t-76.5 66t-36 80.5t-11 81.5q0 90 49 177.5t131.5 144t172.5 56.5zM184 260q-3 -64 11.5 -111.5t39.5 -71t49 -34t46 -10.5q32 0 67 17t69.5 52t59 99.5t30.5 147.5q7 93 -31 154
t-118 61q-30 0 -64.5 -16.5t-70 -50t-60 -96t-28.5 -141.5zM458 640q-53 40 -95 80q-17 15 -3 28q19 17 49 29q17 7 21 -6q8 -24 29 -71t22 -49q3 -5 -1 -9.5t-10 -5t-12 3.5z" />
    <glyph glyph-name="Oacute" unicode="&#xd3;" horiz-adv-x="688" 
d="M424 614q121 0 183 -72.5t60 -172.5q-3 -94 -48 -182t-126 -146t-175 -58q-72 0 -123.5 25t-76.5 66t-36 80.5t-11 81.5q0 90 49 177.5t131.5 144t172.5 56.5zM184 260q-3 -64 11.5 -111.5t39.5 -71t49 -34t46 -10.5q32 0 67 17t69.5 52t59 99.5t30.5 147.5q7 93 -31 154
t-118 61q-30 0 -64.5 -16.5t-70 -50t-60 -96t-28.5 -141.5zM564 761q17 2 19.5 -8t-8.5 -16q-10 -6 -38.5 -23.5t-51.5 -32.5t-35 -24q-21 -19 -35 -14q-16 7 -2 24q50 60 56 71q7 13 23 17q8 2 37 3.5t35 2.5z" />
    <glyph glyph-name="Ocircumflex" unicode="&#xd4;" horiz-adv-x="688" 
d="M424 614q121 0 183 -72.5t60 -172.5q-3 -94 -48 -182t-126 -146t-175 -58q-72 0 -123.5 25t-76.5 66t-36 80.5t-11 81.5q0 90 49 177.5t131.5 144t172.5 56.5zM184 260q-3 -64 11.5 -111.5t39.5 -71t49 -34t46 -10.5q32 0 67 17t69.5 52t59 99.5t30.5 147.5q7 93 -31 154
t-118 61q-30 0 -64.5 -16.5t-70 -50t-60 -96t-28.5 -141.5zM463 753q12 2 15.5 -1t7.5 -15q5 -18 20.5 -46.5t16.5 -30.5q8 -18 -5 -24q-16 -3 -30 11q-10 10 -25 20q-15 9 -35 2q-16 -5 -36 -17q-28 -18 -41 -12q-18 7 14 33q9 6 32.5 27t30.5 29q19 23 35 24z" />
    <glyph glyph-name="Otilde" unicode="&#xd5;" horiz-adv-x="688" 
d="M424 614q121 0 183 -72.5t60 -172.5q-3 -94 -48 -182t-126 -146t-175 -58q-72 0 -123.5 25t-76.5 66t-36 80.5t-11 81.5q0 90 49 177.5t131.5 144t172.5 56.5zM184 260q-3 -64 11.5 -111.5t39.5 -71t49 -34t46 -10.5q32 0 67 17t69.5 52t59 99.5t30.5 147.5q7 93 -31 154
t-118 61q-30 0 -64.5 -16.5t-70 -50t-60 -96t-28.5 -141.5zM384 679q-1 -1 -14.5 -12t-22.5 -15t-15 0q-12 12 -7 22t33 35q19 16 33.5 26.5t30.5 17t30.5 4t27.5 -14.5q35 -30 68 2q29 29 44 18q8 -11 2.5 -20t-39.5 -43q-69 -70 -113 -26q-29 29 -58 6z" />
    <glyph glyph-name="Odieresis" unicode="&#xd6;" horiz-adv-x="688" 
d="M424 614q121 0 183 -72.5t60 -172.5q-3 -94 -48 -182t-126 -146t-175 -58q-72 0 -123.5 25t-76.5 66t-36 80.5t-11 81.5q0 90 49 177.5t131.5 144t172.5 56.5zM184 260q-3 -64 11.5 -111.5t39.5 -71t49 -34t46 -10.5q32 0 67 17t69.5 52t59 99.5t30.5 147.5q7 93 -31 154
t-118 61q-30 0 -64.5 -16.5t-70 -50t-60 -96t-28.5 -141.5zM423 720q-1 -24 -23 -44t-46 -20q-27 0 -22 33q3 30 20 49.5t41 19.5q31 0 30 -38zM582 720q-1 -24 -23.5 -44t-45.5 -20q-25 0 -23 33q2 30 20 49.5t43 19.5q32 0 29 -38z" />
    <glyph glyph-name="multiply" unicode="&#xd7;" horiz-adv-x="488" 
d="M404 146q10 -13 7 -24.5t-16 -15.5q-7 -3 -20 -1.5t-18 7.5q-12 16 -43.5 63t-51.5 70q-9 9 -22 1q-64 -55 -169 -138q-12 -9 -20.5 -6t-9.5 11q-2 16 7 25q16 14 74.5 60.5t92.5 76.5q16 15 6 26q-76 85 -111 132q-5 9 -1 18t11 13q20 10 29 -2q43 -55 109 -133
q6 -9 23 1q122 107 144 129q11 11 21.5 13t15.5 -4t3 -16q-5 -37 -20 -47q-18 -14 -46 -34.5t-49.5 -38t-45.5 -37.5q-15 -10 -3 -22q17 -20 36.5 -44t39 -48.5t27.5 -34.5z" />
    <glyph glyph-name="Oslash" unicode="&#xd8;" horiz-adv-x="688" 
d="M12 -5q-20 8 13 38q12 11 34 29q4 3 11.5 9t9.5 8t6 7t4 9t-1 10.5t-4 15.5q-21 55 -21 115q0 90 49 177.5t131.5 144t173.5 56.5q108 0 172 -62q15 -13 16.5 -13t16.5 15q4 4 43 58q6 6 15 7t15 -2t5 -8q-11 -50 -34 -87q-9 -17 -17 -26l-6 -9t-2.5 -6.5t0 -5t3 -7.5
t3.5 -10q14 -44 12 -89q-3 -94 -48 -182t-125.5 -146t-175.5 -58q-106 0 -171 58q-7 5 -12 7t-13 -2t-12 -6.5t-16 -12.5q-51 -40 -75 -32zM177 260q-1 -34 2 -68q3 -20 7 -20q3 0 20 15q287 247 311 268q13 14 14 16.5t-6 19.5q-38 73 -125 73q-30 0 -64.5 -16.5t-69.5 -50
t-60 -96t-29 -141.5zM323 33q32 0 67 17t69.5 52t59.5 99.5t31 147.5q1 12 1 35q0 21 -5.5 22t-16.5 -12q-6 -6 -10 -9q-249 -204 -297 -244q-3 -2 -8 -6.5t-6.5 -6t-4 -5t-1.5 -6t2.5 -7t5.5 -9.5q22 -35 53.5 -51.5t59.5 -16.5z" />
    <glyph glyph-name="Ugrave" unicode="&#xd9;" horiz-adv-x="769" 
d="M162 603q23 -3 95 -3t113 3q16 1 22 -3.5t4 -15.5q-4 -13 -27 -18q-33 -6 -49.5 -22.5t-27.5 -51.5q-14 -40 -39 -136t-32 -149q-20 -151 101 -151q85 0 144.5 64t85.5 152q47 159 58 225q3 19 -2 33t-20 22.5t-19 10t-19 6.5q-14 4 -12 19q6 18 43 15q23 -3 95.5 -3
t112.5 3q16 1 21.5 -3.5t3.5 -15.5q-4 -13 -27 -18q-33 -6 -49.5 -22.5t-28.5 -51.5q-2 -6 -17.5 -59t-33 -127t-21.5 -112q-1 -13 -1.5 -22t-1 -21.5t0 -21t1.5 -19t3 -17t5 -14t8 -11.5t11 -6.5t14.5 -1.5t18.5 4q28 9 34 -10q2 -15 -19 -25q-68 -34 -101 -34
q-52 0 -64 24t-8 79q1 16 -6 19t-17 -11q-81 -112 -231 -112q-91 0 -135.5 55.5t-24.5 155.5q6 36 23.5 106.5t31 124.5t13.5 61q8 52 -58 71q-1 0 -1.5 0.5t-1.5 0.5q-13 4 -11 19q3 19 42 15zM476 640q-45 33 -96 80q-16 16 -2 28q16 16 49 29q16 7 21 -6q5 -16 51 -120
q3 -5 -1 -9.5t-10 -5t-12 3.5z" />
    <glyph glyph-name="Uacute" unicode="&#xda;" horiz-adv-x="769" 
d="M162 603q23 -3 95 -3t113 3q16 1 22 -3.5t4 -15.5q-4 -13 -27 -18q-33 -6 -49.5 -22.5t-27.5 -51.5q-14 -40 -39 -136t-32 -149q-20 -151 101 -151q85 0 144.5 64t85.5 152q47 159 58 225q3 19 -2 33t-20 22.5t-19 10t-19 6.5q-14 4 -12 19q6 18 43 15q23 -3 95.5 -3
t112.5 3q16 1 21.5 -3.5t3.5 -15.5q-4 -13 -27 -18q-33 -6 -49.5 -22.5t-28.5 -51.5q-2 -6 -17.5 -59t-33 -127t-21.5 -112q-1 -13 -1.5 -22t-1 -21.5t0 -21t1.5 -19t3 -17t5 -14t8 -11.5t11 -6.5t14.5 -1.5t18.5 4q28 9 34 -10q2 -15 -19 -25q-68 -34 -101 -34
q-52 0 -64 24t-8 79q1 16 -6 19t-17 -11q-81 -112 -231 -112q-91 0 -135.5 55.5t-24.5 155.5q6 36 23.5 106.5t31 124.5t13.5 61q8 52 -58 71q-1 0 -1.5 0.5t-1.5 0.5q-13 4 -11 19q3 19 42 15zM616 758q17 2 19.5 -8t-8.5 -16q-8 -5 -38 -23.5t-52.5 -33.5t-33.5 -24
q-25 -18 -36 -13q-17 5 -2 23q6 8 19 22.5t22 26.5t15 23t23 17q8 2 37 3.5t35 2.5z" />
    <glyph glyph-name="Ucircumflex" unicode="&#xdb;" horiz-adv-x="769" 
d="M162 603q23 -3 95 -3t113 3q16 1 22 -3.5t4 -15.5q-4 -13 -27 -18q-33 -6 -49.5 -22.5t-27.5 -51.5q-14 -40 -39 -136t-32 -149q-20 -151 101 -151q85 0 144.5 64t85.5 152q47 159 58 225q3 19 -2 33t-20 22.5t-19 10t-19 6.5q-14 4 -12 19q6 18 43 15q23 -3 95.5 -3
t112.5 3q16 1 21.5 -3.5t3.5 -15.5q-4 -13 -27 -18q-33 -6 -49.5 -22.5t-28.5 -51.5q-2 -6 -17.5 -59t-33 -127t-21.5 -112q-1 -13 -1.5 -22t-1 -21.5t0 -21t1.5 -19t3 -17t5 -14t8 -11.5t11 -6.5t14.5 -1.5t18.5 4q28 9 34 -10q2 -15 -19 -25q-68 -34 -101 -34
q-52 0 -64 24t-8 79q1 16 -6 19t-17 -11q-81 -112 -231 -112q-91 0 -135.5 55.5t-24.5 155.5q6 36 23.5 106.5t31 124.5t13.5 61q8 52 -58 71q-1 0 -1.5 0.5t-1.5 0.5q-13 4 -11 19q3 19 42 15zM507 753q12 2 15.5 -1t6.5 -15q6 -17 20 -43.5t17 -33.5q9 -18 -5 -24
q-15 -3 -29 11q-10 10 -25 20q-15 9 -36 2q-15 -5 -35 -17q-28 -18 -41 -12q-18 7 14 33q46 36 63 56q19 23 35 24z" />
    <glyph glyph-name="Udieresis" unicode="&#xdc;" horiz-adv-x="769" 
d="M150 603q22 -3 94.5 -3t113.5 3q16 1 21.5 -3.5t3.5 -15.5q-4 -13 -27 -18q-32 -6 -48.5 -22.5t-28.5 -51.5q-57 -182 -70 -285q-22 -151 101 -151q85 0 144 64t86 152q36 126 58 225q8 52 -58 71q-1 0 -1.5 0.5t-1.5 0.5q-14 4 -12 19q6 18 43 15q23 -3 95.5 -3t112.5 3
q16 1 22 -3.5t3 -15.5q-3 -13 -27 -18q-33 -6 -49.5 -22.5t-28.5 -51.5q-2 -6 -17 -59t-33 -127t-21 -112q-1 -14 -1.5 -22t-1 -21t0 -21t1.5 -19t3 -17.5t5 -14t8 -11t11 -6.5t14.5 -2t18.5 4q28 9 33 -10q3 -13 -18 -25q-71 -34 -101 -34q-52 0 -64.5 24t-8.5 79
q1 16 -6 19t-16 -11q-81 -112 -232 -112q-91 0 -135.5 55.5t-24.5 155.5q6 36 23.5 106.5t31 124.5t13.5 61q3 19 -2 33t-20 22.5t-19 10t-19 6.5q-14 4 -12 19q6 18 43 15zM458 720q-2 -24 -24 -44t-45 -20q-26 0 -23 33q3 30 20.5 49.5t41.5 19.5q31 0 30 -38zM617 720
q-2 -24 -24.5 -44t-44.5 -20q-24 0 -24 33q3 30 21 49.5t43 19.5q32 0 29 -38z" />
    <glyph glyph-name="Yacute" unicode="&#xdd;" horiz-adv-x="565" 
d="M470 580q40 27 83 27q36 0 56 -17.5t20 -43.5q0 -25 -11 -47.5t-33 -43t-39.5 -33.5t-45.5 -31q-102 -67 -125 -153q-23 -82 -25 -129q-5 -53 28 -66l12 -4t12 -5t6.5 -6.5t2.5 -11.5q-2 -9 -12.5 -14t-26.5 -3q-47 6 -225 -2q-8 -1 -13 2.5t-4 11.5q0 21 44 28
q45 5 69 70q16 48 36 150q8 43 -14 89q-62 145 -84 174q-27 37 -62 42q-15 2 -22.5 8t-5.5 13q3 14 34 17h17h9.5h25.5h55q29 0 39.5 -8t17.5 -33q36 -132 72 -210q13 -24 35 2q13 17 64 59q68 52 68 101q0 35 -37 33q-2 0 -11 -1t-13 -1.5t-9.5 1.5t-7.5 6q-6 13 20 29z
M553 758q16 2 18.5 -8t-7.5 -16q-9 -6 -38 -24t-52 -33t-35 -24q-23 -19 -35 -13q-18 5 -2 23q6 7 19 22t22 27t15 23t23 17q8 2 37 3.5t35 2.5z" />
    <glyph glyph-name="Thorn" unicode="&#xde;" horiz-adv-x="538" 
d="M172 600q23 -2 95 -2t113 2q16 1 21.5 -3t3.5 -15q-4 -15 -27 -18q-31 -6 -47.5 -21t-27.5 -44q-3 -9 0.5 -16.5t12.5 -6.5q5 0 22.5 0.5t33 0.5h39.5q63 -1 105.5 -34t42.5 -95q0 -82 -80.5 -143t-178.5 -61q-16 0 -26.5 8t-7.5 16q5 18 32 18q71 0 112 41.5t42 108.5
q2 85 -68 94q-25 4 -52 2q-27 -1 -39 -8.5t-17 -23.5q-21 -71 -42.5 -167t-21.5 -124q-5 -53 28 -66l12 -4t12 -5t6.5 -6.5t2.5 -11.5q-2 -9 -12.5 -14t-26.5 -3q-47 6 -225 -2q-8 -1 -13 2.5t-4 11.5q0 21 44 28q45 5 69 70q11 25 51 190t45 195q3 8 1 15.5t-2 13t-5 11
t-6.5 8.5t-8 7t-9 5.5t-9 4t-8.5 3.5t-7 2.5t-6 1.5q-14 5 -12 19q3 20 43 15z" />
    <glyph glyph-name="germandbls" unicode="&#xdf;" horiz-adv-x="523" 
d="M113 427q16 0 22 1t11.5 6.5t10.5 18.5q39 93 97 161.5t125 90.5q55 18 92 -9q51 -38 51 -98q0 -55 -21.5 -93.5t-69.5 -81.5l-3.5 -3.5l-4 -4l-4 -4t-3.5 -4.5l-2.5 -5t-1.5 -5.5v-5t1.5 -5.5t4.5 -6q56 -67 53 -175q0 -73 -63.5 -147.5t-127.5 -74.5q-31 -1 -51.5 16
t-20.5 43q0 22 13.5 41.5t33.5 30.5q19 13 30 4q4 -4 1 -21q-2 -14 5 -27.5t24 -13.5q29 0 50 35t21 92q0 102 -65 164q-28 27 7 49q25 15 39 26t31.5 31t27 49.5t13.5 69.5t-25.5 69t-65.5 0q-79 -74 -113 -255q-8 -40 -35 -144t-37 -137q-18 -58 -30.5 -91.5t-35 -80.5
t-52.5 -84.5t-70 -69.5q-37 -30 -65 -42.5t-66 -12.5q-33 0 -54 19t-21 48q-2 57 58 94q31 19 39 11q11 -11 3 -25q-16 -25 -10.5 -48.5t30.5 -23.5q38 0 73 35.5t53.5 72.5t29.5 72q53 174 85 369q3 22 0.5 27t-11.5 5h-35q-11 -1 -12.5 10t2.5 17q16 20 39 20z" />
    <glyph glyph-name="agrave" unicode="&#xe0;" horiz-adv-x="478" 
d="M302 511q-44 54 -73 100q-13 19 4 29q21 11 54 16q19 2 19 -10q3 -36 22 -130q1 -6 -3.5 -9t-11.5 -2t-11 6zM279 -8q-66 0 -24 132q3 11 3 12.5t-3 3.5q-9 2 -19 -12q-18 -26 -55 -67.5t-58 -54.5q-38 -24 -61.5 -7.5t-23.5 66.5q0 111 52.5 208.5t140.5 147.5
q34 19 70 10q26 -6 45 -17q15 -9 34 9l14 14t18 20q19 22 32 16q4 -2 4.5 -11t-3.5 -17q-29 -44 -45 -86q-31 -78 -61 -209q-15 -63 3 -64q8 1 22 10q25 18 55 48q21 21 33 12q4 -3 3 -12t-6 -15q-48 -54 -124 -117q-24 -20 -46 -20zM173 108q45 41 80.5 100t53.5 124
q7 27 -10 38q-16 12 -37 15q-33 3 -61 -39q-25 -37 -46.5 -103.5t-22.5 -106.5q0 -29 10 -37.5t33 9.5z" />
    <glyph glyph-name="aacute" unicode="&#xe1;" horiz-adv-x="478" 
d="M460 657q17 3 21 -6t-6 -16q-6 -5 -37 -30.5t-53 -45t-31 -30.5q-17 -22 -32 -17q-17 3 -4 23q44 77 49 89q6 13 21 19q7 3 35.5 7.5t36.5 6.5zM279 -8q-66 0 -24 132q3 11 3 12.5t-3 3.5q-9 2 -19 -12q-18 -26 -55 -67.5t-58 -54.5q-38 -24 -61.5 -7.5t-23.5 66.5
q0 111 52.5 208.5t140.5 147.5q34 19 70 10q26 -6 45 -17q15 -9 34 9l14 14t18 20q19 22 32 16q4 -2 4.5 -11t-3.5 -17q-29 -44 -45 -86q-31 -78 -61 -209q-15 -63 3 -64q8 1 22 10q25 18 55 48q21 21 33 12q4 -3 3 -12t-6 -15q-48 -54 -124 -117q-24 -20 -46 -20zM173 108
q45 41 80.5 100t53.5 124q7 27 -10 38q-16 12 -37 15q-33 3 -61 -39q-25 -37 -46.5 -103.5t-22.5 -106.5q0 -29 10 -37.5t33 9.5z" />
    <glyph glyph-name="acircumflex" unicode="&#xe2;" horiz-adv-x="478" 
d="M354 652q22 4 24 -19q3 -40 16 -93q6 -24 -8 -28q-7 -3 -14 1.5t-10 11.5q-2 4 -18 28q-10 16 -32 3q-22 -16 -28 -23q-28 -26 -37 -20q-17 10 11 43q8 7 30 32t28 35q16 22 38 29zM279 -8q-66 0 -24 132q3 11 3 12.5t-3 3.5q-9 2 -19 -12q-18 -26 -55 -67.5t-58 -54.5
q-38 -24 -61.5 -7.5t-23.5 66.5q0 111 52.5 208.5t140.5 147.5q34 19 70 10q26 -6 45 -17q15 -9 34 9l14 14t18 20q19 22 32 16q4 -2 4.5 -11t-3.5 -17q-29 -44 -45 -86q-31 -78 -61 -209q-15 -63 3 -64q8 1 22 10q25 18 55 48q21 21 33 12q4 -3 3 -12t-6 -15
q-48 -54 -124 -117q-24 -20 -46 -20zM173 108q45 41 80.5 100t53.5 124q7 27 -10 38q-16 12 -37 15q-33 3 -61 -39q-25 -37 -46.5 -103.5t-22.5 -106.5q0 -29 10 -37.5t33 9.5z" />
    <glyph glyph-name="atilde" unicode="&#xe3;" horiz-adv-x="478" 
d="M283 565q-3 -2 -16 -13.5t-22 -16t-14 -0.5q-6 5 -7 10t5 12.5t11.5 13t19.5 17.5q19 17 33 27t29.5 17t29.5 4.5t27 -14.5q34 -29 68 4q25 27 35 22q8 -4 8.5 -11t-6.5 -17.5t-14 -18t-20 -19.5q-65 -69 -109 -25q-32 32 -58 8zM279 -8q-66 0 -24 132q3 11 3 12.5
t-3 3.5q-9 2 -19 -12q-18 -26 -55 -67.5t-58 -54.5q-38 -24 -61.5 -7.5t-23.5 66.5q0 111 52.5 208.5t140.5 147.5q34 19 70 10q26 -6 45 -17q15 -9 34 9l14 14t18 20q19 22 32 16q4 -2 4.5 -11t-3.5 -17q-29 -44 -45 -86q-31 -78 -61 -209q-15 -63 3 -64q8 1 22 10
q25 18 55 48q21 21 33 12q4 -3 3 -12t-6 -15q-48 -54 -124 -117q-24 -20 -46 -20zM173 108q45 41 80.5 100t53.5 124q7 27 -10 38q-16 12 -37 15q-33 3 -61 -39q-25 -37 -46.5 -103.5t-22.5 -106.5q0 -29 10 -37.5t33 9.5z" />
    <glyph glyph-name="adieresis" unicode="&#xe4;" horiz-adv-x="478" 
d="M306 587q-1 -23 -22 -42t-43 -19q-27 0 -22 32q3 29 19.5 47t38.5 18q30 0 29 -36zM460 587q-2 -23 -23.5 -42t-42.5 -19q-24 0 -22 32q2 28 19.5 46.5t40.5 18.5q29 0 28 -36zM279 -8q-66 0 -24 132q3 11 3 12.5t-3 3.5q-9 2 -19 -12q-18 -26 -55 -67.5t-58 -54.5
q-38 -24 -61.5 -7.5t-23.5 66.5q0 111 52.5 208.5t140.5 147.5q34 19 70 10q26 -6 45 -17q15 -9 34 9l14 14t18 20q19 22 32 16q4 -2 4.5 -11t-3.5 -17q-29 -44 -45 -86q-31 -78 -61 -209q-15 -63 3 -64q8 1 22 10q25 18 55 48q21 21 33 12q4 -3 3 -12t-6 -15
q-48 -54 -124 -117q-24 -20 -46 -20zM173 108q45 41 80.5 100t53.5 124q7 27 -10 38q-16 12 -37 15q-33 3 -61 -39q-25 -37 -46.5 -103.5t-22.5 -106.5q0 -29 10 -37.5t33 9.5z" />
    <glyph glyph-name="aring" unicode="&#xe5;" horiz-adv-x="478" 
d="M359 651q41 0 63 -15.5t22 -41.5q0 -36 -38 -64t-79 -27q-42 0 -62.5 16t-20.5 42q0 38 36 64t79 26zM352 620q-20 0 -35.5 -14.5t-15.5 -36.5q0 -34 32 -34q19 0 35.5 12.5t16.5 40.5q0 32 -33 32zM279 -8q-66 0 -24 132q3 11 3 12.5t-3 3.5q-9 2 -19 -12
q-18 -26 -55 -67.5t-58 -54.5q-38 -24 -61.5 -7.5t-23.5 66.5q0 111 52.5 208.5t140.5 147.5q34 19 70 10q26 -6 45 -17q15 -9 34 9l14 14t18 20q19 22 32 16q4 -2 4.5 -11t-3.5 -17q-29 -44 -45 -86q-31 -78 -61 -209q-15 -63 3 -64q8 1 22 10q25 18 55 48q21 21 33 12
q4 -3 3 -12t-6 -15q-48 -54 -124 -117q-24 -20 -46 -20zM173 108q45 41 80.5 100t53.5 124q7 27 -10 38q-16 12 -37 15q-33 3 -61 -39q-25 -37 -46.5 -103.5t-22.5 -106.5q0 -29 10 -37.5t33 9.5z" />
    <glyph glyph-name="ae" unicode="&#xe6;" horiz-adv-x="568" 
d="M228 418q14 8 37 12.5t46 -1.5q26 -9 49 -30q13 -8 17.5 -7t18.5 8q31 17 50 24q42 16 71.5 1t30.5 -50q0 -18 -11 -36t-37 -40.5t-47.5 -38t-62.5 -44.5q-17 -12 -26 -18q-19 -15 -25.5 -22.5t-7.5 -23.5q-5 -38 11.5 -64.5t46.5 -26.5q31 0 93 62q6 6 14 8t12 -2
q11 -10 -10 -33q-33 -36 -80 -72t-77 -36q-97 0 -97 100q0 14 -4 14q-8 4 -24 -12q-50 -50 -101 -83q-37 -24 -57 -8t-20 66q0 110 51.5 204t138.5 149zM169 106q38 26 73 59q7 8 18 45q22 76 56 120q7 10 -5 26q-21 22 -48 24q-16 2 -34 -9.5t-30 -31.5q-26 -40 -47.5 -102
t-21.5 -101q0 -15 1 -23t5 -13.5t12 -4t21 10.5zM347 252q-3 -12 1 -15t14 4q102 67 104 105q3 31 -27 31q-19 0 -49 -37.5t-43 -87.5z" />
    <glyph glyph-name="ccedilla" unicode="&#xe7;" horiz-adv-x="348" 
d="M120 -30q-20 -24 4 -60q35 -53 -48 -105q-41 -28 -51 -31.5t-18 7.5q-10 15 26 39q39 25 15 66q-25 43 34 95q8 7 7 11.5t-14 15.5q-42 34 -37 118q3 87 56.5 175.5t137.5 122.5q48 19 80 2q26 -14 26 -46q0 -39 -49 -75q-19 -12 -28 -3q-6 0 -2 18.5t4 21.5
q0 13 -9 20.5t-23 7.5q-37 -2 -69 -61t-35 -145q-4 -100 46 -100q28 0 90 59q5 6 13 8t13 -2q10 -10 -11 -33q-15 -15 -103 -88q-9 -8 -29.5 -20t-25.5 -18z" />
    <glyph glyph-name="egrave" unicode="&#xe8;" horiz-adv-x="363" 
d="M268 511q-37 43 -74 100q-12 19 5 29q21 11 54 16q18 2 19 -10q1 -31 22 -130q2 -9 -8.5 -11t-17.5 6zM137 -12q-47 0 -74 37t-25 101q4 90 64 177t145 121q40 16 68.5 -0.5t28.5 -51.5q0 -28 -14 -51t-44 -43t-55.5 -33t-68.5 -31q-19 -9 -25.5 -19t-7.5 -31
q-2 -41 13 -72t43 -31q29 0 94 62q5 6 13 8t13 -2q11 -11 -10 -33q-33 -36 -80.5 -72t-77.5 -36zM143 259q-1 -8 4 -9.5t16 3.5q32 15 49 24t34 27t17 38q-2 28 -27 28q-20 -1 -50.5 -34.5t-42.5 -76.5z" />
    <glyph glyph-name="eacute" unicode="&#xe9;" horiz-adv-x="363" 
d="M409 657q17 3 20.5 -6t-6.5 -16q-9 -8 -37 -31.5t-51 -43.5t-32 -31q-18 -22 -32 -17q-17 2 -4 23q44 77 49 89q7 16 21 19q2 1 31.5 6t40.5 8zM137 -12q-47 0 -74 37t-25 101q4 90 64 177t145 121q40 16 68.5 -0.5t28.5 -51.5q0 -28 -14 -51t-44 -43t-55.5 -33
t-68.5 -31q-19 -9 -25.5 -19t-7.5 -31q-2 -41 13 -72t43 -31q29 0 94 62q5 6 13 8t13 -2q11 -11 -10 -33q-33 -36 -80.5 -72t-77.5 -36zM143 259q-1 -8 4 -9.5t16 3.5q32 15 49 24t34 27t17 38q-2 28 -27 28q-20 -1 -50.5 -34.5t-42.5 -76.5z" />
    <glyph glyph-name="ecircumflex" unicode="&#xea;" horiz-adv-x="363" 
d="M322 652q21 4 23 -19q3 -40 16 -93q6 -24 -7 -28q-8 -3 -15 1.5t-10 11.5q-2 4 -18 28q-10 16 -32 3q-18 -13 -28 -23q-26 -26 -37 -20q-17 10 12 43q36 36 58 67q15 22 38 29zM137 -12q-47 0 -74 37t-25 101q4 90 64 177t145 121q40 16 68.5 -0.5t28.5 -51.5
q0 -28 -14 -51t-44 -43t-55.5 -33t-68.5 -31q-19 -9 -25.5 -19t-7.5 -31q-2 -41 13 -72t43 -31q29 0 94 62q5 6 13 8t13 -2q11 -11 -10 -33q-33 -36 -80.5 -72t-77.5 -36zM143 259q-1 -8 4 -9.5t16 3.5q32 15 49 24t34 27t17 38q-2 28 -27 28q-20 -1 -50.5 -34.5
t-42.5 -76.5z" />
    <glyph glyph-name="edieresis" unicode="&#xeb;" horiz-adv-x="363" 
d="M137 -12q-47 0 -74 37t-25 101q4 90 64 177t145 121q40 16 68.5 -0.5t28.5 -51.5q0 -28 -14 -51t-44 -43t-55.5 -33t-68.5 -31q-19 -9 -25.5 -19t-7.5 -31q-2 -41 13 -72t43 -31q29 0 94 62q5 6 13 8t13 -2q11 -11 -10 -33q-33 -36 -80.5 -72t-77.5 -36zM143 259
q-1 -8 4 -9.5t16 3.5q32 15 49 24t34 27t17 38q-2 28 -27 28q-20 -1 -50.5 -34.5t-42.5 -76.5zM272 582q-2 -23 -23 -42t-43 -19q-25 0 -22 32q4 29 20 47t38 18q31 0 30 -36zM425 582q-1 -23 -22.5 -42t-43.5 -19q-23 0 -21 32q1 28 18 46.5t41 18.5q31 0 28 -36z" />
    <glyph glyph-name="igrave" unicode="&#xec;" horiz-adv-x="317" 
d="M233 511q-44 54 -73 100q-13 19 4 29q21 11 54 16q19 2 19 -10q3 -36 22 -130q1 -6 -3.5 -9t-11.5 -2t-11 6zM284 132q8 -13 -7 -27q-33 -35 -85.5 -75.5t-79.5 -40.5q-46 0 -41 64q1 22 9 54.5t16 58t23 69t22 65.5q12 43 0 43q-8 0 -27.5 -11.5t-35.5 -25.5
q-20 -19 -30 -13q-6 4 -7 12t4 13q33 38 81 70.5t75 41.5q31 10 52 -2.5t10 -53.5q-4 -12 -42 -114.5t-44 -144.5q-5 -33 12 -33q14 2 66 47q21 16 29 3z" />
    <glyph glyph-name="iacute" unicode="&#xed;" horiz-adv-x="317" 
d="M379 657q16 3 19.5 -6t-5.5 -16q-3 -3 -35.5 -30.5t-54 -46t-30.5 -29.5q-20 -22 -32 -17q-18 3 -4 23q41 72 48 89q8 14 21 19q7 3 36 7.5t37 6.5zM284 132q8 -13 -7 -27q-33 -35 -85.5 -75.5t-79.5 -40.5q-46 0 -41 64q1 22 9 54.5t16 58t23 69t22 65.5q12 43 0 43
q-8 0 -27.5 -11.5t-35.5 -25.5q-20 -19 -30 -13q-6 4 -7 12t4 13q33 38 81 70.5t75 41.5q31 10 52 -2.5t10 -53.5q-4 -12 -42 -114.5t-44 -144.5q-5 -33 12 -33q14 2 66 47q21 16 29 3z" />
    <glyph glyph-name="icircumflex" unicode="&#xee;" horiz-adv-x="317" 
d="M288 652q22 5 23 -19q3 -28 16 -93q7 -24 -7 -28q-15 -6 -25 13q0 1 -17 28q-11 16 -32 3q-18 -12 -29 -23q-26 -26 -37 -20q-17 10 12 43q42 42 58 67q16 22 38 29zM284 132q8 -13 -7 -27q-33 -35 -85.5 -75.5t-79.5 -40.5q-46 0 -41 64q1 22 9 54.5t16 58t23 69
t22 65.5q12 43 0 43q-8 0 -27.5 -11.5t-35.5 -25.5q-20 -19 -30 -13q-6 4 -7 12t4 13q33 38 81 70.5t75 41.5q31 10 52 -2.5t10 -53.5q-4 -12 -42 -114.5t-44 -144.5q-5 -33 12 -33q14 2 66 47q21 16 29 3z" />
    <glyph glyph-name="idieresis" unicode="&#xef;" horiz-adv-x="317" 
d="M284 132q8 -13 -7 -27q-33 -35 -85.5 -75.5t-79.5 -40.5q-46 0 -41 64q1 22 9 54.5t16 58t23 69t22 65.5q12 43 0 43q-8 0 -27.5 -11.5t-35.5 -25.5q-20 -19 -30 -13q-6 4 -7 12t4 13q33 38 81 70.5t75 41.5q31 10 52 -2.5t10 -53.5q-4 -12 -42 -114.5t-44 -144.5
q-5 -33 12 -33q14 2 66 47q21 16 29 3zM246 587q-2 -23 -23 -42t-43 -19q-25 0 -22 32q3 29 19.5 47t38.5 18q31 0 30 -36zM387 587q-1 -23 -22.5 -42t-42.5 -19q-24 0 -22 32q1 28 18 46.5t41 18.5q31 0 28 -36z" />
    <glyph glyph-name="eth" unicode="&#xf0;" horiz-adv-x="411" 
d="M117 639q-5 4 -1.5 12.5t14.5 12.5q15 4 47 18.5t57 21.5t42 2q29 -11 65 -77q10 -20 21 -15q13 6 21 5t9 -6t-1 -12q-7 -23 -17 -26q-17 -5 -10 -20q9 -26 15.5 -78t6.5 -78q-1 -135 -59.5 -240t-158.5 -165q-37 -22 -68 -3q-26 15 -40.5 49.5t-14.5 74.5q0 90 51 171.5
t130 140.5q24 15 36 6q15 -14 -23 -47q-96 -85 -105 -199q-6 -65 21 -103q9 -14 18 -17.5t20.5 4.5t18 15t21.5 25q75 89 75 253q0 37 -10 88.5t-22 79.5q-6 12 -10.5 15t-18.5 1q-33 -6 -95 -23q-11 -3 -18.5 -1t-10.5 5t-3 6q0 17 19 22q15 5 51.5 13.5t39.5 9.5
q24 7 20 21q-12 33 -42.5 38t-63.5 -9q-19 -4 -27 9z" />
    <glyph glyph-name="ntilde" unicode="&#xf1;" horiz-adv-x="546" 
d="M511 132q7 -12 -7 -27q-33 -35 -85 -75.5t-79 -40.5q-49 0 -44 64q2 30 11.5 63.5t27.5 84t26 76.5q8 24 0.5 35t-34.5 -7q-64 -53 -102.5 -115.5t-78.5 -157.5q-14 -34 -64 -45q-18 -3 -24 5t1 32q27 77 67 238q7 22 7 49.5t-13 27.5q-12 0 -62 -43q-10 -8 -18 -3
q-8 4 -6.5 14.5t9.5 18.5q108 112 158 112q20 0 32.5 -18.5t10.5 -43.5q-1 -15 -3 -27t-3 -19.5t-4.5 -17.5t-5 -14t-6.5 -17t-7 -17q-6 -15 -0.5 -19.5t15.5 8.5q58 73 143 143q44 37 84 37q41 0 31 -52q-5 -28 -41.5 -127.5t-42.5 -138.5q-5 -33 13 -33q16 2 65 47
q21 16 29 3zM308 557q-3 -2 -15.5 -13t-21.5 -16t-14 -1q-6 5 -7 10.5t4.5 13t11.5 13t19 17.5q20 17 33.5 27t29 16.5t29.5 4t27 -14.5q35 -30 68 5q2 2 8.5 8t7.5 7t6.5 5.5t7 2.5t6.5 -1q23 -12 -32 -67q-68 -68 -110 -24q-30 30 -58 7z" />
    <glyph glyph-name="ograve" unicode="&#xf2;" horiz-adv-x="394" 
d="M274 511q-37 44 -73 100q-13 19 4 29q24 12 54 16q19 2 20 -10q1 -31 22 -130q2 -9 -9 -11t-18 6zM138 -9q-105 0 -101 129q1 36 16.5 86.5t34.5 82.5q42 71 94 108.5t94 37.5q90 0 84 -137q-2 -75 -49 -160q-29 -54 -79.5 -100.5t-93.5 -46.5zM230 366q-29 0 -54 -35.5
t-37.5 -78.5t-14.5 -77q-3 -52 10 -81.5t36 -29.5q36 0 68.5 56t35.5 153q2 93 -44 93z" />
    <glyph glyph-name="oacute" unicode="&#xf3;" horiz-adv-x="394" 
d="M419 657q17 3 20.5 -6t-5.5 -16q-6 -5 -37 -30.5t-53 -45t-31 -30.5q-17 -22 -32 -17q-17 2 -4 23q44 77 49 89q6 13 21 19q7 3 35.5 7.5t36.5 6.5zM138 -9q-105 0 -101 129q1 36 16.5 86.5t34.5 82.5q42 71 94 108.5t94 37.5q90 0 84 -137q-2 -75 -49 -160
q-29 -54 -79.5 -100.5t-93.5 -46.5zM230 366q-29 0 -54 -35.5t-37.5 -78.5t-14.5 -77q-3 -52 10 -81.5t36 -29.5q36 0 68.5 56t35.5 153q2 93 -44 93z" />
    <glyph glyph-name="ocircumflex" unicode="&#xf4;" horiz-adv-x="394" 
d="M328 652q22 4 24 -19q3 -40 16 -93q6 -24 -8 -28q-7 -3 -14 1.5t-10 11.5q-2 4 -18 28q-10 16 -32 3q-19 -13 -28 -23q-28 -26 -37 -20q-18 10 11 43q8 7 30 32t28 35q16 22 38 29zM138 -9q-105 0 -101 129q1 36 16.5 86.5t34.5 82.5q42 71 94 108.5t94 37.5
q90 0 84 -137q-2 -75 -49 -160q-29 -54 -79.5 -100.5t-93.5 -46.5zM230 366q-29 0 -54 -35.5t-37.5 -78.5t-14.5 -77q-3 -52 10 -81.5t36 -29.5q36 0 68.5 56t35.5 153q2 93 -44 93z" />
    <glyph glyph-name="otilde" unicode="&#xf5;" horiz-adv-x="394" 
d="M244 558q-3 -2 -15.5 -13t-21.5 -16t-14 -1q-7 7 -6.5 13.5t9 16t20.5 20.5q3 3 5 4q20 17 33.5 27t29 16.5t29.5 4t27 -14.5q35 -30 68 5l4 4q23 22 32 17q23 -11 -32 -66q-68 -68 -110 -24q-30 30 -58 7zM138 -9q-105 0 -101 129q1 36 16.5 86.5t34.5 82.5
q42 71 94 108.5t94 37.5q90 0 84 -137q-2 -75 -49 -160q-29 -54 -79.5 -100.5t-93.5 -46.5zM230 366q-29 0 -54 -35.5t-37.5 -78.5t-14.5 -77q-3 -52 10 -81.5t36 -29.5q36 0 68.5 56t35.5 153q2 93 -44 93z" />
    <glyph glyph-name="odieresis" unicode="&#xf6;" horiz-adv-x="394" 
d="M274 587q-2 -23 -23 -42t-43 -19q-25 0 -22 32q3 29 19.5 47t38.5 18q30 0 30 -36zM427 587q-2 -23 -23.5 -42t-42.5 -19q-24 0 -22 32q2 28 19.5 46.5t40.5 18.5q29 0 28 -36zM138 -9q-105 0 -101 129q1 36 16.5 86.5t34.5 82.5q42 71 94 108.5t94 37.5q90 0 84 -137
q-2 -75 -49 -160q-29 -54 -79.5 -100.5t-93.5 -46.5zM230 366q-29 0 -54 -35.5t-37.5 -78.5t-14.5 -77q-3 -52 10 -81.5t36 -29.5q36 0 68.5 56t35.5 153q2 93 -44 93z" />
    <glyph glyph-name="divide" unicode="&#xf7;" horiz-adv-x="465" 
d="M231 173q19 0 30 -9t8 -24q-5 -22 -24.5 -34.5t-40.5 -12.5q-25 0 -33 11.5t-3 26.5q4 19 25 30.5t38 11.5zM292 471q19 0 30.5 -8.5t7.5 -23.5q-6 -22 -24.5 -34.5t-39.5 -12.5q-46 0 -37 39q3 18 24 29t39 11zM87 260q-16 0 -22.5 7t-1.5 17q13 21 43 21q138 1 288 15
q5 0 11 1t10 1.5t8.5 0.5t7 -0.5t5 -2t3 -4t0.5 -6.5q0 -7 -8.5 -20.5t-19.5 -20.5q-13 -6 -39 -6q-147 -3 -285 -3z" />
    <glyph glyph-name="oslash" unicode="&#xf8;" horiz-adv-x="394" 
d="M-19 -10q-11 7 -4 19t39 46q8 8 12 15.5t4.5 12.5t0.5 17t1 20q1 36 16.5 86.5t34.5 82.5q42 71 94 108.5t94 37.5q36 0 54 -21q10 -10 21 6q3 4 9 16t10 17q7 9 16.5 8t12.5 -8q6 -11 -19 -63q-3 -7 -8 -15.5t-8 -13.5t-4.5 -12.5t-0.5 -15.5q2 -22 1 -35
q-3 -74 -49 -160q-29 -54 -79.5 -100.5t-93.5 -46.5q-52 0 -76 33q-10 14 -24 -5q-32 -35 -54 -29zM167 64q32 0 64.5 48t40.5 130q1 12 -1 14t-15 -9q-105 -108 -120 -123q-14 -15 -10 -31q12 -29 41 -29zM226 366q-41 0 -72 -65t-34 -121q-1 -8 3 -9t11 7q44 50 124 136
q7 10 8 13.5t-4 15.5q-11 23 -36 23z" />
    <glyph glyph-name="ugrave" unicode="&#xf9;" horiz-adv-x="551" 
d="M332 511q-42 51 -78 106q-13 19 4 29q21 11 61 16q19 2 19 -10q4 -52 21 -136q2 -9 -9 -11t-18 6zM41 304q-7 12 7 27q33 35 79 70.5t73 35.5q50 0 42 -64q-4 -30 -13 -64.5t-24.5 -82t-23.5 -77.5q-7 -23 5 -34t36 10q65 63 101.5 120.5t72.5 143.5q16 37 69 50
q19 3 27.5 -5.5t-0.5 -31.5q-45 -111 -78 -238q-7 -22 -6.5 -49.5t13.5 -27.5t79 57q9 8 19 3q7 -4 7 -16.5t-8 -20.5q-126 -122 -179 -122q-20 0 -32.5 18.5t-10.5 43.5q4 54 24 102q7 19 -1 21q-5 2 -13 -9q-60 -80 -128 -140q-50 -42 -83.5 -29.5t-26.5 63.5q4 32 33 124
t35 129q6 32 -12 32q-14 -1 -54 -36q-21 -16 -29 -3z" />
    <glyph glyph-name="uacute" unicode="&#xfa;" horiz-adv-x="551" 
d="M476 657q17 3 21 -6t-6 -16q-6 -5 -37 -30.5t-53 -45t-31 -30.5q-17 -22 -32 -17q-17 3 -4 23q44 77 49 89q6 13 21 19q7 3 35.5 7.5t36.5 6.5zM41 304q-7 12 7 27q33 35 79 70.5t73 35.5q50 0 42 -64q-4 -30 -13 -64.5t-24.5 -82t-23.5 -77.5q-7 -23 5 -34t36 10
q65 63 101.5 120.5t72.5 143.5q16 37 69 50q19 3 27.5 -5.5t-0.5 -31.5q-45 -111 -78 -238q-7 -22 -6.5 -49.5t13.5 -27.5t79 57q9 8 19 3q7 -4 7 -16.5t-8 -20.5q-126 -122 -179 -122q-20 0 -32.5 18.5t-10.5 43.5q4 54 24 102q7 19 -1 21q-5 2 -13 -9q-60 -80 -128 -140
q-50 -42 -83.5 -29.5t-26.5 63.5q4 32 33 124t35 129q6 32 -12 32q-14 -1 -54 -36q-21 -16 -29 -3z" />
    <glyph glyph-name="ucircumflex" unicode="&#xfb;" horiz-adv-x="551" 
d="M385 652q22 5 23 -19q5 -48 16 -93q6 -24 -7 -28q-15 -6 -25 13q0 1 -17 28q-11 16 -32 3q-18 -12 -29 -23q-26 -26 -37 -20q-17 10 12 43q42 42 58 67q17 23 38 29zM41 304q-7 12 7 27q33 35 79 70.5t73 35.5q50 0 42 -64q-4 -30 -13 -64.5t-24.5 -82t-23.5 -77.5
q-7 -23 5 -34t36 10q65 63 101.5 120.5t72.5 143.5q16 37 69 50q19 3 27.5 -5.5t-0.5 -31.5q-45 -111 -78 -238q-7 -22 -6.5 -49.5t13.5 -27.5t79 57q9 8 19 3q7 -4 7 -16.5t-8 -20.5q-126 -122 -179 -122q-20 0 -32.5 18.5t-10.5 43.5q4 54 24 102q7 19 -1 21q-5 2 -13 -9
q-60 -80 -128 -140q-50 -42 -83.5 -29.5t-26.5 63.5q4 32 33 124t35 129q6 32 -12 32q-14 -1 -54 -36q-21 -16 -29 -3z" />
    <glyph glyph-name="udieresis" unicode="&#xfc;" horiz-adv-x="551" 
d="M337 587q-2 -23 -23 -42t-43 -19q-25 0 -22 32q3 29 19.5 47t38.5 18q31 0 30 -36zM490 587q-2 -23 -23.5 -42t-42.5 -19q-22 0 -22 32q2 28 19.5 46.5t40.5 18.5q31 0 28 -36zM41 304q-7 12 7 27q33 35 79 70.5t73 35.5q50 0 42 -64q-4 -30 -13 -64.5t-24.5 -82
t-23.5 -77.5q-7 -23 5 -34t36 10q65 63 101.5 120.5t72.5 143.5q16 37 69 50q19 3 27.5 -5.5t-0.5 -31.5q-45 -111 -78 -238q-7 -22 -6.5 -49.5t13.5 -27.5t79 57q9 8 19 3q7 -4 7 -16.5t-8 -20.5q-126 -122 -179 -122q-20 0 -32.5 18.5t-10.5 43.5q4 54 24 102q7 19 -1 21
q-5 2 -13 -9q-60 -80 -128 -140q-50 -42 -83.5 -29.5t-26.5 63.5q4 32 33 124t35 129q6 32 -12 32q-14 -1 -54 -36q-21 -16 -29 -3z" />
    <glyph glyph-name="yacute" unicode="&#xfd;" horiz-adv-x="516" 
d="M484 657q17 3 20.5 -6t-6.5 -16q-9 -8 -37 -31.5t-51 -43.5t-32 -31q-18 -22 -32 -17q-17 2 -4 23q43 74 49 89q6 13 21 19q7 3 35.5 7.5t36.5 6.5zM210 437q48 0 42 -64q-3 -30 -12 -63.5t-25.5 -82t-24.5 -76.5q-6 -23 5.5 -35t35.5 9q65 63 101.5 120.5t72.5 143.5
q16 38 70 50q19 3 26 -5t0 -32q-51 -126 -79 -238q-18 -68 3 -164q14 -65 -23.5 -128t-103.5 -101q-39 -22 -93.5 -36.5t-95.5 -14.5q-158 0 -158 93q0 32 28.5 64.5t77.5 71.5q8 7 17 8t11 -3q14 -12 -5 -31q-11 -12 -19 -35.5t-8 -41.5q0 -67 79 -67q80 0 125 29
q99 67 67 190q-18 72 -6 126q3 11 11 28q8 19 -1 21q-5 2 -13 -9q-66 -89 -128 -140q-51 -40 -84 -28t-26 62q5 31 34 123t35 130q5 32 -13 32q-14 -1 -54 -36q-20 -16 -28 -3q-9 12 6 27q33 35 79 70.5t74 35.5z" />
    <glyph glyph-name="thorn" unicode="&#xfe;" horiz-adv-x="415" 
d="M114 684q16 3 42.5 8.5t46 9t30.5 3.5q23 0 34 -11t10.5 -29.5t-4 -37t-10.5 -40.5l-3 -9q-17 -56 -43 -134.5t-43 -136.5q-4 -13 0 -16q10 -2 20 12q15 23 51 64.5t56 55.5q38 24 62.5 7t25.5 -66q2 -109 -52.5 -210.5t-142.5 -151.5q-21 -13 -72 1q-3 1 -6 1h-5t-4 -2
t-3 -2.5t-2.5 -3.5t-1.5 -4t-1.5 -4.5t-1.5 -4.5q-2 -4 -8.5 -25.5t-12 -37t-17 -42t-26.5 -50.5q-18 -31 -53.5 -69.5t-56.5 -44.5q-3 -2 -8.5 0.5t-7.5 6.5q-2 7 9 21q33 51 51 104q5 14 62 211q96 337 130 515q4 17 5 24.5t1 22t-5.5 20.5t-18 10t-32.5 1q-22 -3 -26 12
q-2 7 5.5 13t25.5 9zM253 321q-29 -27 -45 -47.5t-41 -63.5q-17 -28 -45 -118q-5 -19 -4.5 -25.5t10.5 -13.5q11 -8 42 -8q34 -2 61 37q25 37 45 103.5t19 106.5q0 29 -9.5 38t-32.5 -9z" />
    <glyph glyph-name="ydieresis" unicode="&#xff;" horiz-adv-x="516" 
d="M210 437q48 0 42 -64q-3 -30 -12 -63.5t-25.5 -82t-24.5 -76.5q-6 -23 5.5 -35t35.5 9q65 63 101.5 120.5t72.5 143.5q16 38 70 50q19 3 26 -5t0 -32q-51 -126 -79 -238q-18 -68 3 -164q14 -65 -23.5 -128t-103.5 -101q-39 -22 -93.5 -36.5t-95.5 -14.5q-158 0 -158 93
q0 32 28.5 64.5t77.5 71.5q8 7 17 8t11 -3q14 -12 -5 -31q-11 -12 -19 -35.5t-8 -41.5q0 -67 79 -67q80 0 125 29q99 67 67 190q-18 72 -6 126q3 11 11 28q8 19 -1 21q-5 2 -13 -9q-66 -89 -128 -140q-51 -40 -84 -28t-26 62q5 31 34 123t35 130q5 32 -13 32q-14 -1 -54 -36
q-20 -16 -28 -3q-9 12 6 27q33 35 79 70.5t74 35.5zM352 587q-2 -23 -23 -42t-43 -19q-25 0 -22 32q4 29 20 47t38 18q31 0 30 -36zM505 587q-1 -23 -22.5 -42t-43.5 -19q-23 0 -21 32q1 28 18 46.5t41 18.5q31 0 28 -36z" />
    <glyph glyph-name="Amacron" unicode="&#x100;" horiz-adv-x="682" 
d="M492 593q8 -82 34.5 -262.5t31.5 -203.5q7 -30 10.5 -42.5t17.5 -27t38 -22.5q17 -5 17 -18q-2 -20 -30 -19q-50 4 -204 -1q-8 0 -14 4.5t-6 11.5q0 17 15 22q26 7 37 17.5t13 28.5q1 14 -2 45.5t-6 41.5q-2 11 -20 15q-21 2 -98.5 2.5t-94.5 -1.5q-32 -1 -42 -15
q-38 -47 -46 -87q-3 -16 10 -30t33 -17q9 -2 16 -8.5t6 -13.5q-2 -7 -13 -11.5t-23 -2.5q-72 7 -144 1q-41 -4 -41 8q0 9 11.5 22.5t31.5 30.5t25 23q53 60 145.5 186t151.5 216q24 39 32 61q13 36 68 59q36 16 40 -13zM399 459q-11 0 -32 -30q-82 -115 -124 -182
q-5 -9 -6 -13t1.5 -7t10.5 -3q59 -4 171 -2q11 0 15 5t3 20q-1 10 -5.5 53.5t-9 77t-11.5 59.5q-2 22 -13 22zM349 661q-25 0 -17 22q6 22 32 22q151 2 218 8q3 0 10 1.5t10 1.5t7 -0.5t5.5 -3.5t1.5 -8q0 -6 -7 -17.5t-16 -17.5q-8 -7 -28 -7q-19 0 -109 -0.5t-107 -0.5z
" />
    <glyph glyph-name="amacron" unicode="&#x101;" horiz-adv-x="478" 
d="M279 -8q-66 0 -24 132q3 11 3 12.5t-3 3.5q-9 2 -19 -12q-18 -26 -55 -67.5t-58 -54.5q-38 -24 -61.5 -7.5t-23.5 66.5q0 111 52.5 208.5t140.5 147.5q34 19 70 10q26 -6 45 -17q15 -9 34 9l14 14t18 20q19 22 32 16q4 -2 4.5 -11t-3.5 -17q-29 -44 -45 -86
q-31 -78 -61 -209q-15 -63 3 -64q8 1 22 10q25 18 55 48q21 21 33 12q4 -3 3 -12t-6 -15q-48 -54 -124 -117q-24 -20 -46 -20zM173 108q45 41 80.5 100t53.5 124q7 27 -10 38q-16 12 -37 15q-33 3 -61 -39q-25 -37 -46.5 -103.5t-22.5 -106.5q0 -29 10 -37.5t33 9.5z
M209 515q-26 0 -18 22q6 22 32 22q182 4 216 6q3 0 10.5 1t10.5 1t7.5 -1t6.5 -4t2 -8q0 -15 -23 -30q-9 -7 -29 -7q-74 -2 -215 -2z" />
    <glyph glyph-name="Abreve" unicode="&#x102;" horiz-adv-x="682" 
d="M492 593q8 -82 34.5 -262.5t31.5 -203.5q7 -30 10.5 -42.5t17.5 -27t38 -22.5q17 -5 17 -18q-2 -20 -30 -19q-50 4 -204 -1q-8 0 -14 4.5t-6 11.5q0 17 15 22q26 7 37 17.5t13 28.5q1 14 -2 45.5t-6 41.5q-2 11 -20 15q-21 2 -98.5 2.5t-94.5 -1.5q-32 -1 -42 -15
q-38 -47 -46 -87q-3 -16 10 -30t33 -17q9 -2 16 -8.5t6 -13.5q-2 -7 -13 -11.5t-23 -2.5q-72 7 -144 1q-41 -4 -41 8q0 9 11.5 22.5t31.5 30.5t25 23q53 60 145.5 186t151.5 216q24 39 32 61q13 36 68 59q36 16 40 -13zM399 459q-11 0 -32 -30q-82 -115 -124 -182
q-5 -9 -6 -13t1.5 -7t10.5 -3q59 -4 171 -2q11 0 15 5t3 20q-1 10 -5.5 53.5t-9 77t-11.5 59.5q-2 22 -13 22zM588 765q6 -1 7 -9.5t-4 -19.5q-21 -45 -55 -69.5t-70 -24.5q-46 0 -65.5 29.5t-14.5 61.5q1 13 7 23t13 11q9 1 13 -5.5t4 -14.5q5 -29 58 -29q19 0 42.5 9
t35.5 25t29 13z" />
    <glyph glyph-name="abreve" unicode="&#x103;" horiz-adv-x="478" 
d="M279 -8q-66 0 -24 132q3 11 3 12.5t-3 3.5q-9 2 -19 -12q-18 -26 -55 -67.5t-58 -54.5q-38 -24 -61.5 -7.5t-23.5 66.5q0 111 52.5 208.5t140.5 147.5q34 19 70 10q26 -6 45 -17q15 -9 34 9l14 14t18 20q19 22 32 16q4 -2 4.5 -11t-3.5 -17q-29 -44 -45 -86
q-31 -78 -61 -209q-15 -63 3 -64q8 1 22 10q25 18 55 48q21 21 33 12q4 -3 3 -12t-6 -15q-48 -54 -124 -117q-24 -20 -46 -20zM173 108q45 41 80.5 100t53.5 124q7 27 -10 38q-16 12 -37 15q-33 3 -61 -39q-25 -37 -46.5 -103.5t-22.5 -106.5q0 -29 10 -37.5t33 9.5z
M438 622q5 -1 6 -9.5t-4 -19.5q-21 -46 -52.5 -70t-67.5 -24q-46 0 -63.5 29t-13.5 62q4 32 20 34q10 1 14 -5.5t4 -14.5q1 -29 53 -29q50 0 74 34q11 16 30 13z" />
    <glyph glyph-name="Aogonek" unicode="&#x104;" horiz-adv-x="682" 
d="M561 -132q9 -13 -13 -32q-37 -32 -76 -32q-72 0 -72 65q0 54 74 112q12 8 10 13.5t-18 5.5q-6 0 -26.5 -1.5t-32.5 -1.5q-8 0 -14 4.5t-6 11.5q0 17 15 22q26 7 37 17.5t13 28.5q1 14 -2 45.5t-6 41.5q-2 11 -20 15q-21 2 -98.5 2.5t-94.5 -1.5q-32 -1 -42 -15
q-38 -47 -46 -87q-3 -16 10 -30t33 -17q9 -2 16 -8.5t6 -13.5q-2 -7 -13 -11.5t-23 -2.5q-72 7 -144 1q-41 -4 -41 8q0 9 11.5 22.5t31.5 30.5t25 23q53 60 145.5 186t151.5 216q24 39 32 61q13 36 68 59q36 16 40 -13q8 -82 34.5 -262.5t31.5 -203.5q7 -30 10.5 -42.5
t17.5 -27t38 -22.5q17 -5 17 -18q-2 -20 -30 -19q-3 0 -15.5 1.5t-20 2t-17 -2t-13.5 -8.5q-58 -56 -58 -94q0 -33 21 -33q6 0 31 7q16 6 22 -3zM399 459q-11 0 -32 -30q-82 -115 -124 -182q-5 -9 -6 -13t1.5 -7t10.5 -3q59 -4 171 -2q11 0 15 5t3 20q-1 10 -5.5 53.5t-9 77
t-11.5 59.5q-2 22 -13 22z" />
    <glyph glyph-name="aogonek" unicode="&#x105;" horiz-adv-x="478" 
d="M311 -130q8 -15 -14 -32q-37 -32 -76 -32q-72 0 -72 63q0 55 85 121l6 4t4 3t2 2.5t0.5 3.5t-1.5 4t-3 7q-14 25 13 110q3 11 3 12.5t-3 3.5q-9 2 -19 -12q-18 -26 -55 -67.5t-58 -54.5q-38 -24 -61.5 -7.5t-23.5 66.5q0 111 52.5 208.5t140.5 147.5q34 19 70 10
q26 -6 45 -17q15 -9 34 9l14 14t18 20q19 22 32 16q4 -2 4.5 -11t-3.5 -17q-29 -44 -45 -86q-31 -78 -61 -209q-15 -63 3 -64q8 1 22 10q25 18 55 48q21 21 33 12q4 -3 3 -12t-6 -15q-63 -72 -124 -117q-89 -67 -89 -115q0 -13 6.5 -20.5t15.5 -7.5q18 0 30 5q18 4 23 -4z
M173 108q45 41 80.5 100t53.5 124q7 27 -10 38q-16 12 -37 15q-33 3 -61 -39q-25 -37 -46.5 -103.5t-22.5 -106.5q0 -29 10 -37.5t33 9.5z" />
    <glyph glyph-name="Cacute" unicode="&#x106;" horiz-adv-x="541" 
d="M253 -11q-50 0 -88 19.5t-59.5 50.5t-32 65.5t-10.5 69.5q0 77 24.5 145.5t62.5 116.5t84.5 83.5t91 52.5t81.5 17q127 0 127 -64q0 -28 -17 -57.5t-47 -47.5q-27 -15 -36 -6q-10 14 1 32q6 11 9 30.5t-9.5 39t-44.5 19.5q-63 0 -115 -49t-79 -122.5t-27 -152.5
q0 -180 125 -180q92 0 161 64q26 24 38 16q15 -11 -7 -35q-103 -107 -233 -107zM529 761q17 2 19.5 -8t-8.5 -16q-9 -6 -38 -23.5t-52 -32.5t-34 -24q-22 -19 -36 -14q-15 8 -1 24q6 7 18.5 22t21.5 26.5t15 22.5q10 13 23 17q8 2 37 3.5t35 2.5z" />
    <glyph glyph-name="cacute" unicode="&#x107;" horiz-adv-x="348" 
d="M278 96q-101 -107 -150 -108q-46 0 -69 36.5t-21 101.5q3 87 56.5 175.5t137.5 122.5q48 19 80 2q26 -14 26 -46q0 -39 -49 -75q-19 -12 -28 -3q-6 0 -2 18.5t4 21.5q0 13 -9 20.5t-23 7.5q-37 -2 -69 -61t-35 -145q-4 -100 46 -100q28 0 90 59q5 6 13 8t13 -2
q10 -10 -11 -33zM390 654q16 4 19.5 -5.5t-5.5 -16.5q-102 -84 -120 -106q-18 -20 -32 -17q-17 5 -5 23q39 64 49 89q7 14 21 20q8 3 37.5 7.5t35.5 5.5z" />
    <glyph glyph-name="Ccircumflex" unicode="&#x108;" horiz-adv-x="541" 
d="M253 -11q-50 0 -88 19.5t-59.5 50.5t-32 65.5t-10.5 69.5q0 77 24.5 145.5t62.5 116.5t84.5 83.5t91 52.5t81.5 17q127 0 127 -64q0 -28 -17 -57.5t-47 -47.5q-27 -15 -36 -6q-10 14 1 32q6 11 9 30.5t-9.5 39t-44.5 19.5q-63 0 -115 -49t-79 -122.5t-27 -152.5
q0 -180 125 -180q92 0 161 64q26 24 38 16q15 -11 -7 -35q-103 -107 -233 -107zM436 759q12 2 16 -1t7 -15q5 -18 20.5 -46.5t16.5 -30.5q9 -18 -5 -24q-16 -3 -30 11q-7 8 -25 20q-15 9 -35 2q-13 -4 -36 -18q-30 -17 -41 -11q-19 7 14 32q44 35 64 57q18 23 34 24z" />
    <glyph glyph-name="ccircumflex" unicode="&#x109;" horiz-adv-x="348" 
d="M278 96q-101 -107 -150 -108q-46 0 -69 36.5t-21 101.5q3 87 56.5 175.5t137.5 122.5q48 19 80 2q26 -14 26 -46q0 -39 -49 -75q-19 -12 -28 -3q-6 0 -2 18.5t4 21.5q0 13 -9 20.5t-23 7.5q-37 -2 -69 -61t-35 -145q-4 -100 46 -100q28 0 90 59q5 6 13 8t13 -2
q10 -10 -11 -33zM310 649q22 5 23 -19q5 -48 16 -93q7 -23 -7 -28q-7 -2 -14.5 2.5t-10.5 11.5q-2 6 -8 14.5t-9 13.5q-11 15 -32 2q-18 -12 -29 -23q-27 -25 -37 -19q-18 11 12 42q42 42 58 67q16 22 38 29z" />
    <glyph glyph-name="Cdotaccent" unicode="&#x10a;" horiz-adv-x="541" 
d="M253 -11q-50 0 -88 19.5t-59.5 50.5t-32 65.5t-10.5 69.5q0 77 24.5 145.5t62.5 116.5t84.5 83.5t91 52.5t81.5 17q127 0 127 -64q0 -28 -17 -57.5t-47 -47.5q-27 -15 -36 -6q-10 14 1 32q6 11 9 30.5t-9.5 39t-44.5 19.5q-63 0 -115 -49t-79 -122.5t-27 -152.5
q0 -180 125 -180q92 0 161 64q26 24 38 16q15 -11 -7 -35q-103 -107 -233 -107zM481 705q-2 -24 -25.5 -40t-51.5 -16q-15 0 -22.5 10.5t-6.5 25.5q1 22 20 41.5t46 19.5q18 0 29.5 -11t10.5 -30z" />
    <glyph glyph-name="cdotaccent" unicode="&#x10b;" horiz-adv-x="348" 
d="M278 96q-101 -107 -150 -108q-46 0 -69 36.5t-21 101.5q3 87 56.5 175.5t137.5 122.5q48 19 80 2q26 -14 26 -46q0 -39 -49 -75q-19 -12 -28 -3q-6 0 -2 18.5t4 21.5q0 13 -9 20.5t-23 7.5q-37 -2 -69 -61t-35 -145q-4 -100 46 -100q28 0 90 59q5 6 13 8t13 -2
q10 -10 -11 -33zM344 579q-4 -26 -25.5 -44.5t-48.5 -18.5q-31 0 -28 34q2 30 19.5 48t46.5 18q37 0 36 -37z" />
    <glyph glyph-name="Ccaron" unicode="&#x10c;" horiz-adv-x="541" 
d="M253 -11q-50 0 -88 19.5t-59.5 50.5t-32 65.5t-10.5 69.5q0 77 24.5 145.5t62.5 116.5t84.5 83.5t91 52.5t81.5 17q127 0 127 -64q0 -28 -17 -57.5t-47 -47.5q-27 -15 -36 -6q-10 14 1 32q6 11 9 30.5t-9.5 39t-44.5 19.5q-63 0 -115 -49t-79 -122.5t-27 -152.5
q0 -180 125 -180q92 0 161 64q26 24 38 16q15 -11 -7 -35q-103 -107 -233 -107zM409 645q-12 -2 -15.5 1t-7.5 15q-5 18 -20.5 46.5t-16.5 30.5q-7 18 5 24q16 3 30 -11q10 -10 25 -20q15 -9 35 -2q13 4 36 18q30 17 41 11q19 -7 -14 -32q-47 -37 -63 -57q-19 -23 -35 -24z
" />
    <glyph glyph-name="ccaron" unicode="&#x10d;" horiz-adv-x="348" 
d="M278 96q-101 -107 -150 -108q-46 0 -69 36.5t-21 101.5q3 87 56.5 175.5t137.5 122.5q48 19 80 2q26 -14 26 -46q0 -39 -49 -75q-19 -12 -28 -3q-6 0 -2 18.5t4 21.5q0 13 -9 20.5t-23 7.5q-37 -2 -69 -61t-35 -145q-4 -100 46 -100q28 0 90 59q5 6 13 8t13 -2
q10 -10 -11 -33zM273 512q-21 -6 -24 18q-3 38 -16 94q-5 23 8 28q7 2 14.5 -2.5t9.5 -11.5l18 -28q10 -16 32 -2q14 8 28 22q28 26 37 20q18 -10 -11 -42q-43 -43 -58 -68q-18 -23 -38 -28z" />
    <glyph glyph-name="Dcaron" unicode="&#x10e;" horiz-adv-x="644" 
d="M113 577q0 20 31 23q83 9 194 9q74 0 119 -5q74 -9 123 -63.5t49 -140.5q0 -101 -50 -196.5t-132.5 -154.5t-171.5 -59q-105 0 -160 43q-24 15 -7 76q15 65 47.5 185.5t46.5 181.5q10 47 3 66q-9 22 -53 20q-39 -2 -39 15zM307 536q-61 -229 -94 -432q-5 -32 10 -50.5
t62 -18.5q70 0 124.5 53t82 126.5t33.5 155.5q15 175 -116 196q-30 5 -61 4q-21 -1 -28 -7.5t-13 -26.5zM413 641q-12 -2 -15.5 1t-6.5 15q-6 17 -20 43.5t-17 33.5q-9 18 5 24q15 3 29 -11q7 -7 25 -20q15 -9 36 -2q15 5 35 17q28 18 41 12q18 -7 -14 -33q-46 -36 -63 -56
q-19 -23 -35 -24z" />
    <glyph glyph-name="dcaron" unicode="&#x10f;" horiz-adv-x="476" 
d="M311 655q0 16 22 19q10 2 61.5 13.5t72.5 12.5q29 1 38 -13.5t-1 -37.5q-40 -112 -92 -263q-57 -170 -73 -236q-15 -63 3 -64q8 1 22 10q25 18 55 48q21 21 33 12q4 -3 3 -12t-6 -15q-48 -54 -124 -117q-24 -20 -46 -20q-37 0 -40 36t18 93q5 14 0 16q-9 5 -20 -12
q-14 -22 -53 -63.5t-61 -55.5q-38 -24 -61.5 -7.5t-23.5 66.5q0 111 52 209t140 148q35 20 71 9q20 -7 30 -7t16 12q15 31 29.5 82.5t19.5 85.5q4 19 -6 28.5t-27 9.5q-3 0 -11.5 -0.5t-14.5 -1t-12.5 0.5t-10 4.5t-3.5 9.5zM173 108q28 26 44.5 46.5t43.5 64.5
q27 41 46 112q7 27 -10 39q-13 10 -38 13q-32 5 -60 -37q-26 -37 -47.5 -103.5t-21.5 -106.5q0 -29 10 -37.5t33 9.5zM541 609q-8 10 0 22q54 72 97 72q25 0 39 -14.5t14 -38.5q0 -46 -35 -92.5t-83 -75.5q-27 -18 -37 -5q-13 14 6 29q62 46 62 85q0 32 -37 18q-18 -6 -26 0
z" />
    <glyph glyph-name="Dcroat" unicode="&#x110;" horiz-adv-x="644" 
d="M116 320q-16 0 -22.5 6.5t-1.5 16.5q11 20 43 20q19 0 29.5 5t11.5 7.5t4 10.5q9 34 22 90q11 49 3 66q-9 22 -53 20q-39 -2 -39 15q0 20 31 23q85 9 195 9q73 0 118 -5q74 -9 123 -63.5t49 -140.5q0 -101 -50 -196.5t-132.5 -154.5t-170.5 -59q-106 0 -160 43
q-25 15 -8 76q0 1 46 181q5 9 2 15t-2.5 9t-7 4.5t-11 1.5h-13.5h-6zM308 536q-17 -60 -37 -143q-5 -19 -3 -23.5t18 -4.5q25 1 104 8q5 0 14.5 1.5t13.5 1.5t9 -0.5t7 -3.5t2 -9q0 -7 -9.5 -20t-21.5 -19q-12 -7 -39 -7q-29 -2 -93 0q-11 0 -16 -3.5t-8 -18.5
q-18 -75 -36 -191q-5 -32 10 -50.5t62 -18.5q70 0 124.5 53t82 126.5t34.5 155.5q15 175 -117 196q-29 5 -61 4q-21 -1 -28 -7.5t-12 -26.5z" />
    <glyph glyph-name="dcroat" unicode="&#x111;" horiz-adv-x="476" 
d="M284 524q-12 0 -17 6t-1 15q6 22 32 22q14 0 38 0.5t34 0.5q4 0 7.5 0.5t6 2t4.5 2.5t3.5 3.5t2.5 4t2 5t1.5 5t1.5 6.5t1 7q4 19 -7.5 28.5t-29.5 9.5q-3 0 -11.5 -0.5t-14.5 -1t-12.5 0.5t-10 4.5t-3.5 9.5q0 16 22 19q10 2 61.5 13.5t72.5 12.5q29 1 38 -13.5
t-1 -37.5q-17 -48 -20 -55q-6 -14 -4.5 -18.5t18.5 -4.5l37 2q3 0 7 0.5t6.5 1t6.5 1t6 0t4.5 -1t3.5 -2t2 -4.5t1 -6q0 -15 -22 -30q-9 -7 -29 -7q-8 -1 -40 -1q-22 0 -29 -21q-6 -20 -20 -58.5t-20 -58.5q-57 -170 -73 -236q-15 -63 3 -64q8 1 22 10q25 18 55 48
q21 21 33 12q4 -3 3 -12t-6 -15q-48 -54 -124 -117q-24 -20 -46 -20q-37 0 -40 36t18 93q5 14 0 16q-9 5 -20 -12q-14 -22 -53 -63.5t-61 -55.5q-38 -24 -61.5 -7.5t-23.5 66.5q0 111 52 209t140 148q35 20 71 9q20 -7 30 -7t16 12q13 32 25 68q0 3 0.5 7.5t-4 8.5t-13.5 4
h-71zM173 108q28 26 44.5 46.5t43.5 64.5q27 41 46 112q7 27 -10 39q-13 10 -38 13q-32 5 -60 -37q-26 -37 -47.5 -103.5t-21.5 -106.5q0 -29 10 -37.5t33 9.5z" />
    <glyph glyph-name="Emacron" unicode="&#x112;" 
d="M227 -8q-185 0 -185 147q0 70 59.5 126.5t128.5 77.5q14 6 14 11q0 8 -15 12q-72 16 -72 82q1 67 75 114t159 47q23 0 41.5 -2.5t38 -9t30 -21t9.5 -36.5q0 -13 -7 -26t-11 -18t-21 -19.5t-18 -15.5q-21 -15 -35 -9q-14 7 -2 24q12 18 13 39q1 24 -17 36.5t-48 12.5
q-37 0 -71.5 -29.5t-34.5 -74.5q0 -46 17.5 -65t58.5 -19q26 0 38 2q8 1 14 -4.5t0 -18.5q-12 -23 -34 -23q-79 -4 -139 -56.5t-60 -126.5q0 -50 24.5 -72.5t75.5 -22.5q55 0 101 26.5t69 60.5q5 7 14 11t16 0q19 -11 4 -31q-35 -55 -104 -92t-126 -37zM261 661
q-26 0 -18 22q6 22 32 22q151 2 218 8q4 0 11 1.5t10 1.5t7 -0.5t5.5 -3.5t1.5 -8q0 -6 -7 -17.5t-16 -17.5q-8 -7 -29 -7q-19 0 -108.5 -0.5t-106.5 -0.5z" />
    <glyph glyph-name="emacron" unicode="&#x113;" horiz-adv-x="363" 
d="M137 -12q-47 0 -74 37t-25 101q4 90 64 177t145 121q40 16 68.5 -0.5t28.5 -51.5q0 -28 -14 -51t-44 -43t-55.5 -33t-68.5 -31q-19 -9 -25.5 -19t-7.5 -31q-2 -41 13 -72t43 -31q29 0 94 62q5 6 13 8t13 -2q11 -11 -10 -33q-33 -36 -80.5 -72t-77.5 -36zM143 259
q-1 -8 4 -9.5t16 3.5q32 15 49 24t34 27t17 38q-2 28 -27 28q-20 -1 -50.5 -34.5t-42.5 -76.5zM170 498q-12 0 -17 6.5t-1 15.5q7 22 32 22q132 3 180 6q3 0 7 0.5t7 1t6.5 1t5.5 0t4.5 -1t4 -2t2.5 -4.5t1 -6q0 -15 -23 -30q-9 -7 -29 -7q-74 -2 -180 -2z" />
    <glyph glyph-name="Ebreve" unicode="&#x114;" 
d="M227 -8q-185 0 -185 147q0 70 59.5 126.5t128.5 77.5q14 6 14 11q0 8 -15 12q-72 16 -72 82q1 67 75 114t159 47q23 0 41.5 -2.5t38 -9t30 -21t9.5 -36.5q0 -13 -7 -26t-11 -18t-21 -19.5t-18 -15.5q-21 -15 -35 -9q-14 7 -2 24q12 18 13 39q1 24 -17 36.5t-48 12.5
q-37 0 -71.5 -29.5t-34.5 -74.5q0 -46 17.5 -65t58.5 -19q26 0 38 2q8 1 14 -4.5t0 -18.5q-12 -23 -34 -23q-79 -4 -139 -56.5t-60 -126.5q0 -50 24.5 -72.5t75.5 -22.5q55 0 101 26.5t69 60.5q5 7 14 11t16 0q19 -11 4 -31q-35 -55 -104 -92t-126 -37zM510 765q5 -1 6 -9.5
t-3 -19.5q-21 -45 -55 -69.5t-70 -24.5q-46 0 -65.5 29.5t-15.5 61.5t20 34q10 1 13.5 -5t4.5 -15q4 -31 57 -31q19 0 42.5 9.5t36.5 26.5q11 16 29 13z" />
    <glyph glyph-name="ebreve" unicode="&#x115;" horiz-adv-x="363" 
d="M137 -12q-47 0 -74 37t-25 101q4 90 64 177t145 121q40 16 68.5 -0.5t28.5 -51.5q0 -28 -14 -51t-44 -43t-55.5 -33t-68.5 -31q-19 -9 -25.5 -19t-7.5 -31q-2 -41 13 -72t43 -31q29 0 94 62q5 6 13 8t13 -2q11 -11 -10 -33q-33 -36 -80.5 -72t-77.5 -36zM143 259
q-1 -8 4 -9.5t16 3.5q32 15 49 24t34 27t17 38q-2 28 -27 28q-20 -1 -50.5 -34.5t-42.5 -76.5zM397 618q6 -1 7 -10t-4 -20q-44 -93 -121 -93q-46 0 -63 29t-12 62q2 32 19 34q9 1 13.5 -6t4.5 -15q1 -31 53 -31q18 0 40 10t35 26q11 17 28 14z" />
    <glyph glyph-name="Edotaccent" unicode="&#x116;" 
d="M227 -8q-185 0 -185 147q0 70 59.5 126.5t128.5 77.5q14 6 14 11q0 8 -15 12q-72 16 -72 82q1 67 75 114t159 47q23 0 41.5 -2.5t38 -9t30 -21t9.5 -36.5q0 -13 -7 -26t-11 -18t-21 -19.5t-18 -15.5q-21 -15 -35 -9q-14 7 -2 24q12 18 13 39q1 24 -17 36.5t-48 12.5
q-37 0 -71.5 -29.5t-34.5 -74.5q0 -46 17.5 -65t58.5 -19q26 0 38 2q8 1 14 -4.5t0 -18.5q-12 -23 -34 -23q-79 -4 -139 -56.5t-60 -126.5q0 -50 24.5 -72.5t75.5 -22.5q55 0 101 26.5t69 60.5q5 7 14 11t16 0q19 -11 4 -31q-35 -55 -104 -92t-126 -37zM454 705
q-2 -24 -25.5 -40t-51.5 -16q-15 0 -22.5 10.5t-6.5 25.5q1 22 20 41.5t46 19.5q19 0 30 -11t10 -30z" />
    <glyph glyph-name="edotaccent" unicode="&#x117;" horiz-adv-x="363" 
d="M137 -12q-47 0 -74 37t-25 101q4 90 64 177t145 121q40 16 68.5 -0.5t28.5 -51.5q0 -28 -14 -51t-44 -43t-55.5 -33t-68.5 -31q-19 -9 -25.5 -19t-7.5 -31q-2 -41 13 -72t43 -31q29 0 94 62q5 6 13 8t13 -2q11 -11 -10 -33q-33 -36 -80.5 -72t-77.5 -36zM143 259
q-1 -8 4 -9.5t16 3.5q32 15 49 24t34 27t17 38q-2 28 -27 28q-20 -1 -50.5 -34.5t-42.5 -76.5zM353 579q-4 -26 -26 -44.5t-48 -18.5q-32 0 -29 34q2 30 20 48t46 18q38 0 37 -37z" />
    <glyph glyph-name="Eogonek" unicode="&#x118;" 
d="M265 -130q9 -13 -13 -32q-38 -32 -76 -32q-72 0 -72 63q0 50 69 108q6 5 8 7t3.5 5t-2.5 5t-12 3q-128 16 -128 142q0 70 59.5 126.5t128.5 77.5q14 6 14 11q0 8 -15 12q-72 16 -72 82q1 67 75 114t159 47q23 0 41.5 -2.5t38 -9t30 -21t9.5 -36.5q0 -13 -7 -26t-11 -18
t-21 -19.5t-18 -15.5q-21 -15 -35 -9q-14 7 -2 24q12 18 13 39q1 24 -17 36.5t-48 12.5q-37 0 -71.5 -29.5t-34.5 -74.5q0 -46 17.5 -65t58.5 -19q26 0 38 2q8 1 14 -4.5t0 -18.5q-12 -23 -34 -23q-79 -4 -139 -56.5t-60 -126.5q0 -50 24.5 -72.5t75.5 -22.5q55 0 101 26.5
t69 60.5q5 7 14 11t16 0q19 -11 4 -31q-29 -45 -82 -79t-106 -45q-19 -5 -33 -20q-46 -50 -46 -80q0 -28 23 -28q19 0 29 5q18 4 23 -4z" />
    <glyph glyph-name="eogonek" unicode="&#x119;" horiz-adv-x="363" 
d="M184 -130q8 -15 -14 -32q-37 -32 -76 -32q-72 0 -72 63q0 49 72 110q10 9 8.5 12.5t-14.5 11.5q-51 33 -48 123q4 89 64 176.5t145 121.5q41 16 69.5 0t28.5 -52q0 -28 -14.5 -51t-44.5 -43t-55.5 -32.5t-68.5 -31.5q-19 -9 -25 -19t-8 -31q-1 -42 14 -72.5t43 -30.5
q31 0 93 62q16 16 26 6q11 -10 -10 -33q-54 -58 -108 -89q-27 -14 -53.5 -49.5t-26.5 -60.5q0 -13 6.5 -20.5t15.5 -7.5q18 0 30 5q18 4 23 -4zM146 259q-2 -8 3.5 -9.5t16.5 3.5q32 15 49 24t33.5 27t16.5 38q-2 28 -27 28q-20 -1 -50.5 -34.5t-41.5 -76.5z" />
    <glyph glyph-name="Ecaron" unicode="&#x11a;" 
d="M227 -8q-185 0 -185 147q0 70 59.5 126.5t128.5 77.5q14 6 14 11q0 8 -15 12q-72 16 -72 82q1 67 75 114t159 47q23 0 41.5 -2.5t38 -9t30 -21t9.5 -36.5q0 -13 -7 -26t-11 -18t-21 -19.5t-18 -15.5q-21 -15 -35 -9q-14 7 -2 24q12 18 13 39q1 24 -17 36.5t-48 12.5
q-37 0 -71.5 -29.5t-34.5 -74.5q0 -46 17.5 -65t58.5 -19q26 0 38 2q8 1 14 -4.5t0 -18.5q-12 -23 -34 -23q-79 -4 -139 -56.5t-60 -126.5q0 -50 24.5 -72.5t75.5 -22.5q55 0 101 26.5t69 60.5q5 7 14 11t16 0q19 -11 4 -31q-35 -55 -104 -92t-126 -37zM389 641
q-12 -2 -16 1t-7 15q-5 18 -20.5 46.5t-16.5 30.5q-9 18 5 24q16 3 30 -11q7 -8 25 -20q15 -9 35 -2q16 5 36 17q27 18 41 12q18 -7 -14 -33q-35 -25 -64 -56q-18 -23 -34 -24z" />
    <glyph glyph-name="ecaron" unicode="&#x11b;" horiz-adv-x="363" 
d="M137 -12q-47 0 -74 37t-25 101q4 90 64 177t145 121q40 16 68.5 -0.5t28.5 -51.5q0 -28 -14 -51t-44 -43t-55.5 -33t-68.5 -31q-19 -9 -25.5 -19t-7.5 -31q-2 -41 13 -72t43 -31q29 0 94 62q5 6 13 8t13 -2q11 -11 -10 -33q-33 -36 -80.5 -72t-77.5 -36zM143 259
q-1 -8 4 -9.5t16 3.5q32 15 49 24t34 27t17 38q-2 28 -27 28q-20 -1 -50.5 -34.5t-42.5 -76.5zM281 512q-22 -6 -23 18q-3 25 -16 94q-7 23 7 28q7 2 14.5 -2.5t10.5 -11.5q2 -6 8 -14.5t9 -13.5q11 -16 32 -2q10 6 29 22q26 26 37 20q18 -11 -12 -42q-52 -57 -58 -68
q-18 -23 -38 -28z" />
    <glyph glyph-name="Gcircumflex" unicode="&#x11c;" horiz-adv-x="635" 
d="M440 609q73 0 116.5 -23t41.5 -63q-1 -59 -69 -90q-31 -16 -42 -5q-8 9 3 27q17 30 6 65q-7 17 -27 28t-46 11q-43 0 -84 -16t-78 -48.5t-62 -92.5t-31 -139q-7 -99 34 -163.5t109 -64.5q39 0 68.5 14.5t45.5 37t24 45.5t9 44q1 61 -27 82.5t-84 24.5q-10 0 -23 7t-13 18
q0 16 37 14q57 -3 140.5 -2t115.5 3q15 1 22.5 -3.5t7.5 -11.5q-1 -9 -9 -15.5t-17 -6.5q-25 0 -40 -5.5t-17.5 -13.5t3.5 -18q18 -28 11 -64q-16 -97 -90 -147t-180 -50q-53 0 -95.5 18t-68.5 45.5t-43 62t-23 66.5t-5 61q8 170 121 269t259 99zM456 759q12 2 16 -1t7 -15
q5 -17 20 -44t17 -33q9 -18 -5 -24q-16 -3 -30 11q-7 8 -25 20q-15 9 -35 2q-16 -5 -35 -18q-29 -17 -42 -11q-18 7 15 32q60 53 63 57q19 23 34 24z" />
    <glyph glyph-name="gcircumflex" unicode="&#x11d;" horiz-adv-x="440" 
d="M308 431q27 -7 45 -17q15 -9 33 9q27 27 33 34q19 22 31 16q5 -2 5.5 -11t-3.5 -17q-29 -44 -45 -86q-25 -62 -61 -209q-10 -66 10 -151q15 -63 -19 -122.5t-96 -100.5q-87 -56 -167 -56q-158 0 -158 93q0 32 28.5 64.5t77.5 71.5q16 15 28 5q13 -13 -5 -31
q-12 -13 -22 -37.5t-10 -41.5q0 -70 84 -70q67 0 108 33q87 71 58 191q-17 71 -1 119q3 11 3 12.5t-3 3.5q-8 4 -20 -12q-14 -21 -52 -61t-60 -54q-38 -24 -61.5 -7.5t-23.5 66.5q0 111 52 208.5t140 147.5q36 19 71 10zM179 109q30 28 47 48.5t42 61.5q27 45 46 113
q7 27 -10 38q-11 7 -38 13q-32 5 -61 -37q-25 -37 -46.5 -103.5t-21.5 -106.5q0 -64 42 -27zM363 652q22 5 23 -19q5 -48 16 -93q7 -24 -7 -28q-15 -6 -25 13q0 1 -17 28q-11 16 -32 3q-18 -12 -29 -23q-26 -26 -37 -20q-17 10 12 43q42 42 58 67q16 22 38 29z" />
    <glyph glyph-name="Gbreve" unicode="&#x11e;" horiz-adv-x="635" 
d="M440 609q73 0 116.5 -23t41.5 -63q-1 -59 -69 -90q-31 -16 -42 -5q-8 9 3 27q17 30 6 65q-7 17 -27 28t-46 11q-43 0 -84 -16t-78 -48.5t-62 -92.5t-31 -139q-7 -99 34 -163.5t109 -64.5q39 0 68.5 14.5t45.5 37t24 45.5t9 44q1 61 -27 82.5t-84 24.5q-10 0 -23 7t-13 18
q0 16 37 14q57 -3 140.5 -2t115.5 3q15 1 22.5 -3.5t7.5 -11.5q-1 -9 -9 -15.5t-17 -6.5q-25 0 -40 -5.5t-17.5 -13.5t3.5 -18q18 -28 11 -64q-16 -97 -90 -147t-180 -50q-53 0 -95.5 18t-68.5 45.5t-43 62t-23 66.5t-5 61q8 170 121 269t259 99zM556 765q5 -1 6 -9.5
t-4 -19.5q-21 -45 -54.5 -69.5t-69.5 -24.5q-47 0 -66.5 29.5t-14.5 61.5q1 13 7 23t13 11q9 1 13 -5t5 -15q4 -29 57 -29q52 0 78 34q11 16 30 13z" />
    <glyph glyph-name="gbreve" unicode="&#x11f;" horiz-adv-x="440" 
d="M308 431q27 -7 45 -17q15 -9 33 9q27 27 33 34q19 22 31 16q5 -2 5.5 -11t-3.5 -17q-29 -44 -45 -86q-25 -62 -61 -209q-10 -66 10 -151q15 -63 -19 -122.5t-96 -100.5q-87 -56 -167 -56q-158 0 -158 93q0 32 28.5 64.5t77.5 71.5q16 15 28 5q13 -13 -5 -31
q-12 -13 -22 -37.5t-10 -41.5q0 -70 84 -70q67 0 108 33q87 71 58 191q-17 71 -1 119q3 11 3 12.5t-3 3.5q-8 4 -20 -12q-14 -21 -52 -61t-60 -54q-38 -24 -61.5 -7.5t-23.5 66.5q0 111 52 208.5t140 147.5q36 19 71 10zM179 109q30 28 47 48.5t42 61.5q27 45 46 113
q7 27 -10 38q-11 7 -38 13q-32 5 -61 -37q-25 -37 -46.5 -103.5t-21.5 -106.5q0 -64 42 -27zM449 624q5 -1 6 -10t-4 -20q-43 -93 -120 -93q-46 0 -63 28.5t-13 62.5q4 33 19 33q10 1 14 -5t4 -15q1 -31 53 -31q19 0 40.5 10t34.5 26q10 16 29 14z" />
    <glyph glyph-name="Gdotaccent" unicode="&#x120;" horiz-adv-x="635" 
d="M440 609q73 0 116.5 -23t41.5 -63q-1 -59 -69 -90q-31 -16 -42 -5q-8 9 3 27q17 30 6 65q-7 17 -27 28t-46 11q-43 0 -84 -16t-78 -48.5t-62 -92.5t-31 -139q-7 -99 34 -163.5t109 -64.5q39 0 68.5 14.5t45.5 37t24 45.5t9 44q1 61 -27 82.5t-84 24.5q-10 0 -23 7t-13 18
q0 16 37 14q57 -3 140.5 -2t115.5 3q15 1 22.5 -3.5t7.5 -11.5q-1 -9 -9 -15.5t-17 -6.5q-25 0 -40 -5.5t-17.5 -13.5t3.5 -18q18 -28 11 -64q-16 -97 -90 -147t-180 -50q-53 0 -95.5 18t-68.5 45.5t-43 62t-23 66.5t-5 61q8 170 121 269t259 99zM489 705q-1 -24 -24.5 -40
t-52.5 -16q-15 0 -22.5 10.5t-6.5 25.5q2 22 20.5 41.5t45.5 19.5q19 0 30 -11t10 -30z" />
    <glyph glyph-name="gdotaccent" unicode="&#x121;" horiz-adv-x="440" 
d="M308 431q27 -7 45 -17q15 -9 33 9q27 27 33 34q19 22 31 16q5 -2 5.5 -11t-3.5 -17q-29 -44 -45 -86q-25 -62 -61 -209q-10 -66 10 -151q15 -63 -19 -122.5t-96 -100.5q-87 -56 -167 -56q-158 0 -158 93q0 32 28.5 64.5t77.5 71.5q16 15 28 5q13 -13 -5 -31
q-12 -13 -22 -37.5t-10 -41.5q0 -70 84 -70q67 0 108 33q87 71 58 191q-17 71 -1 119q3 11 3 12.5t-3 3.5q-8 4 -20 -12q-14 -21 -52 -61t-60 -54q-38 -24 -61.5 -7.5t-23.5 66.5q0 111 52 208.5t140 147.5q36 19 71 10zM179 109q30 28 47 48.5t42 61.5q27 45 46 113
q7 27 -10 38q-11 7 -38 13q-32 5 -61 -37q-25 -37 -46.5 -103.5t-21.5 -106.5q0 -64 42 -27zM395 579q-4 -26 -26 -44.5t-48 -18.5q-32 0 -29 34q2 30 20 48t47 18q37 0 36 -37z" />
    <glyph glyph-name="Gcommaaccent" unicode="&#x122;" horiz-adv-x="635" 
d="M440 609q73 0 116.5 -23t41.5 -63q-1 -59 -69 -90q-31 -16 -42 -5q-8 9 3 27q17 30 6 65q-7 17 -27 28t-46 11q-43 0 -84 -16t-78 -48.5t-62 -92.5t-31 -139q-7 -99 34 -163.5t109 -64.5q39 0 68.5 14.5t45.5 37t24 45.5t9 44q1 61 -27 82.5t-84 24.5q-10 0 -23 7t-13 18
q0 16 37 14q57 -3 140.5 -2t115.5 3q15 1 22.5 -3.5t7.5 -11.5q-1 -9 -9 -15.5t-17 -6.5q-25 0 -40 -5.5t-17.5 -13.5t3.5 -18q18 -28 11 -64q-16 -97 -90 -147t-180 -50q-53 0 -95.5 18t-68.5 45.5t-43 62t-23 66.5t-5 61q8 170 121 269t259 99zM209 -132q-3 2 -3.5 8
t3.5 12q50 66 88 66q23 0 38 -14t15 -36q0 -79 -103 -167q-5 -5 -16 -9t-16 0q-16 12 -3 27q51 54 51 97q-1 30 -31 16q-14 -7 -23 0z" />
    <glyph glyph-name="gcommaaccent" unicode="&#x123;" horiz-adv-x="440" 
d="M308 431q27 -7 45 -17q15 -9 33 9q27 27 33 34q19 22 31 16q5 -2 5.5 -11t-3.5 -17q-29 -44 -45 -86q-25 -62 -61 -209q-10 -66 10 -151q15 -63 -19 -122.5t-96 -100.5q-87 -56 -167 -56q-158 0 -158 93q0 32 28.5 64.5t77.5 71.5q16 15 28 5q13 -13 -5 -31
q-12 -13 -22 -37.5t-10 -41.5q0 -70 84 -70q67 0 108 33q87 71 58 191q-17 71 -1 119q3 11 3 12.5t-3 3.5q-8 4 -20 -12q-14 -21 -52 -61t-60 -54q-38 -24 -61.5 -7.5t-23.5 66.5q0 111 52 208.5t140 147.5q36 19 71 10zM179 109q30 28 47 48.5t42 61.5q27 45 46 113
q7 27 -10 38q-11 7 -38 13q-32 5 -61 -37q-25 -37 -46.5 -103.5t-21.5 -106.5q0 -64 42 -27zM407 578q3 -2 3.5 -8t-3.5 -12q-50 -66 -88 -66q-23 0 -38 14t-15 36q0 75 110 171q24 19 34 12q16 -10 -1 -27q-62 -65 -60 -110q1 -15 13 -17t22 6q13 9 23 1z" />
    <glyph glyph-name="Hcircumflex" unicode="&#x124;" horiz-adv-x="767" 
d="M630 498q3 19 -2 33.5t-20 23t-19.5 10t-18.5 6.5q-14 4 -12 18q6 20 43 15q23 -2 95.5 -2t112.5 2q16 1 22 -3t3 -15q-3 -13 -27 -18q-33 -6 -49.5 -22.5t-28.5 -51.5q-8 -21 -47 -183t-41 -202q-5 -52 28 -66l12 -4t12.5 -5t6.5 -6.5t2 -11.5q-2 -9 -12.5 -14t-26.5 -3
q-49 6 -224 -2q-9 -1 -14 2.5t-4 11.5q0 21 44 28q44 5 70 70q9 20 47 181q9 29 -20 30q-145 3 -289 0q-20 -1 -25 -25q-35 -154 -36 -186q-5 -53 28 -66l12 -4t12 -5t6.5 -6.5t2.5 -11.5q-2 -9 -12.5 -14t-26.5 -3q-47 6 -225 -2q-8 -1 -13 2.5t-4 11.5q0 21 44 28
q45 5 69 70q11 25 51 191.5t45 197.5q3 19 -2 33.5t-20 23t-19.5 10t-18.5 6.5q-14 4 -12 18q3 20 43 15q23 -2 95 -2t113 2q16 1 21.5 -3t3.5 -15q-4 -13 -27 -18q-33 -6 -49.5 -22.5t-28.5 -51.5q-7 -17 -30 -108q-3 -22 15 -22q143 -5 287 0q30 0 33 23q17 67 25 111z
M521 759q12 2 16 -1t7 -15q5 -18 20.5 -46.5t16.5 -30.5q9 -18 -5 -24q-16 -3 -30 11q-7 8 -25 20q-15 9 -35 2q-13 -4 -36 -18q-29 -18 -41 -11q-19 7 14 32q44 35 64 57q18 23 34 24z" />
    <glyph glyph-name="hcircumflex" unicode="&#x125;" horiz-adv-x="513" 
d="M121 663q87 31 157 31q25 0 25 -35q0 -29 -24 -104q-9 -28 -45 -131t-53 -157q-5 -19 4 -19q4 -1 10 7q58 72 141 141q46 38 85 37t30 -52q-5 -28 -41.5 -127.5t-42.5 -138.5q-5 -33 13 -33q16 2 65 47q21 16 29 3q7 -12 -7 -27q-33 -35 -85 -75.5t-79 -40.5
q-49 0 -44 64q2 30 11.5 63.5t27.5 84t26 76.5q7 24 0 35t-34 -7q-64 -53 -102.5 -115.5t-78.5 -157.5q-14 -34 -64 -45q-18 -3 -24 5t1 32q80 240 157 546q7 25 4.5 43t-12.5 20q-13 2 -50 -8q-13 -3 -19 1.5t-6 11.5q0 17 25 25zM294 818q20 4 26 -14q5 -16 18.5 -41
t15.5 -30q9 -16 -5 -21q-17 -3 -29 9q-14 10 -26 16q-14 10 -35 3q-8 -2 -21 -9l-14 -7q-30 -14 -42 -9q-21 8 11 32q9 5 32.5 23t30.5 26q15 18 38 22z" />
    <glyph glyph-name="Hbar" unicode="&#x126;" horiz-adv-x="767" 
d="M168 443h-52q-25 0 -18 19q6 18 32 18q4 0 20.5 0.5t27.5 0.5q12 0 16.5 3.5t6.5 13.5q3 19 -2 33.5t-20 23t-19.5 10t-18.5 6.5q-14 4 -12 18q3 20 43 15q23 -2 95 -2t113 2q16 1 21.5 -3t3.5 -15q-4 -13 -27 -18q-33 -6 -49.5 -22.5t-28.5 -51.5q-3 -10 -1.5 -11.5
t10.5 -1.5h7q110 0 288 2h5q12 0 15 2t6 13q3 19 -2 33.5t-20 23t-19.5 10t-18.5 6.5q-14 4 -12 18q6 20 43 15q23 -2 97 -2t115 2q16 1 22 -3t3 -15q-3 -13 -27 -18q-34 -6 -52.5 -21.5t-29.5 -48.5q-4 -8 1 -10t15 -2q20 0 34 2q4 0 11 1.5t10 1.5t7 -0.5t5.5 -3.5t1.5 -8
q0 -12 -23 -28q-8 -7 -28 -7h-28q-15 0 -19 -3t-7 -18q-66 -259 -68 -314q-5 -52 28 -66l12 -4t12.5 -5t6.5 -6.5t2 -11.5q-2 -9 -12.5 -14t-26.5 -3q-49 6 -224 -2q-9 -1 -14 2.5t-4 11.5q0 21 44 28q44 5 70 70q9 20 47 181q9 29 -20 30q-145 3 -289 0q-20 -1 -25 -25
q-35 -154 -36 -186q-5 -53 28 -66l12 -4t12 -5t6.5 -6.5t2.5 -11.5q-2 -9 -12.5 -14t-26.5 -3q-47 6 -225 -2q-8 -1 -13 2.5t-4 11.5q0 21 44 28q45 5 69 70q9 19 79 309q6 25 -16 25zM270 391q-3 -27 15 -27q143 -5 287 0q7 0 12.5 1.5t8.5 3t5.5 5.5t3 5.5l2 6t1.5 5.5
q2 7 4.5 17l3.5 14q4 22 -15 22q-90 -1 -292 -1q-23 0 -28 -22q-2 -5 -4.5 -16t-3.5 -14z" />
    <glyph glyph-name="hbar" unicode="&#x127;" horiz-adv-x="513" 
d="M149 524h-55q-26 0 -17 21q5 22 32 22q10 0 28.5 0.5t27.5 0.5q11 0 17 15q13 54 -9 56q-13 2 -49 -8q-26 -7 -26 14q0 17 26 25q93 31 156 31q26 0 26 -35q0 -23 -15 -73q-8 -22 14 -22l54 2q3 0 7 0.5t6.5 1t6 1t6 0t4.5 -1t3.5 -2t2.5 -4.5t1 -6q0 -6 -7 -15t-16 -15
q-10 -8 -29 -8h-50q-26 0 -31 -17q-7 -20 -37.5 -108t-44.5 -132q-5 -19 4 -19q4 -1 10 7q58 72 141 141q46 38 85 37t30 -52q-5 -28 -41.5 -127.5t-42.5 -138.5q-5 -33 13 -33q16 2 65 47q21 16 29 3q7 -12 -7 -27q-33 -35 -85 -75.5t-79 -40.5q-49 0 -44 64
q2 30 11.5 63.5t27.5 84t26 76.5q7 24 0 35t-34 -7q-64 -53 -102.5 -115.5t-78.5 -157.5q-14 -34 -64 -45q-18 -3 -24 5t1 32q66 193 141 479q1 3 1 7.5t-4 9t-11 4.5z" />
    <glyph glyph-name="Itilde" unicode="&#x128;" horiz-adv-x="339" 
d="M201 494q3 8 1 15.5t-2 13t-5 11t-6.5 8.5t-8 7t-9 5.5t-9 4t-8.5 3.5t-7 2.5t-6 1.5q-14 5 -12 19q3 20 43 15q23 -2 95 -2t113 2q16 1 21.5 -3t3.5 -15q-4 -15 -27 -18q-33 -6 -49.5 -22.5t-28.5 -51.5q-8 -22 -47 -181.5t-41 -199.5q-5 -53 28 -66l12 -4t12 -5
t6.5 -6.5t2.5 -11.5q-2 -9 -12.5 -14t-26.5 -3q-47 6 -225 -2q-8 -1 -13 2.5t-4 11.5q0 21 44 28q45 5 69 70q11 25 51 190t45 195zM228 679q-2 -1 -15 -12t-21.5 -15t-14.5 0q-13 12 -8 22t33 35q19 16 33.5 26.5t30.5 17t30.5 4t27.5 -14.5q35 -31 68 2q30 30 44 18
q9 -10 3 -19.5t-40 -43.5q-69 -70 -113 -26q-28 30 -58 6z" />
    <glyph glyph-name="itilde" unicode="&#x129;" horiz-adv-x="317" 
d="M284 132q8 -13 -7 -27q-33 -35 -85.5 -75.5t-79.5 -40.5q-46 0 -41 64q1 22 9 54.5t16 58t23 69t22 65.5q12 43 0 43q-8 0 -27.5 -11.5t-35.5 -25.5q-20 -19 -30 -13q-6 4 -7 12t4 13q33 38 81 70.5t75 41.5q31 10 52 -2.5t10 -53.5q-4 -12 -42 -114.5t-44 -144.5
q-5 -33 12 -33q14 2 66 47q21 16 29 3zM200 557q-1 0 -14.5 -12.5t-22.5 -17t-14 -0.5q-10 5 -7 15t10.5 18t23.5 22q25 23 43 34t39.5 13t37.5 -15q35 -30 68 5l6 6t6 5.5t5 4.5t5 4t5 2t5 1t4 -1q24 -13 -30 -67q-21 -20 -37.5 -31t-36.5 -11t-38 18q-30 30 -58 7z" />
    <glyph glyph-name="Imacron" unicode="&#x12a;" horiz-adv-x="339" 
d="M201 494q3 8 1 15.5t-2 13t-5 11t-6.5 8.5t-8 7t-9 5.5t-9 4t-8.5 3.5t-7 2.5t-6 1.5q-14 5 -12 19q3 20 43 15q23 -2 95 -2t113 2q16 1 21.5 -3t3.5 -15q-4 -15 -27 -18q-33 -6 -49.5 -22.5t-28.5 -51.5q-8 -22 -47 -181.5t-41 -199.5q-5 -53 28 -66l12 -4t12 -5
t6.5 -6.5t2.5 -11.5q-2 -9 -12.5 -14t-26.5 -3q-47 6 -225 -2q-8 -1 -13 2.5t-4 11.5q0 21 44 28q45 5 69 70q11 25 51 190t45 195zM165 661q-26 0 -18 22q7 22 32 22q186 2 218 4q4 0 10.5 1t10 1.5t7.5 -0.5t5.5 -4t1.5 -8q0 -6 -7 -15.5t-16 -15.5q-8 -7 -29 -7h-60.5
h-96h-58.5z" />
    <glyph glyph-name="imacron" unicode="&#x12b;" horiz-adv-x="317" 
d="M284 132q8 -13 -7 -27q-33 -35 -85.5 -75.5t-79.5 -40.5q-46 0 -41 64q1 22 9 54.5t16 58t23 69t22 65.5q12 43 0 43q-8 0 -27.5 -11.5t-35.5 -25.5q-20 -19 -30 -13q-6 4 -7 12t4 13q33 38 81 70.5t75 41.5q31 10 52 -2.5t10 -53.5q-4 -12 -42 -114.5t-44 -144.5
q-5 -33 12 -33q14 2 66 47q21 16 29 3zM130 519q-12 0 -17 6t-1 15q6 22 32 22q133 3 180 6q3 0 7 0.5t6.5 1t6.5 1t6 0t4.5 -1t3.5 -2t2 -4.5t1 -6q0 -6 -7 -15t-16 -15q-8 -7 -28 -7q-37 -1 -180 -1z" />
    <glyph glyph-name="Ibreve" unicode="&#x12c;" horiz-adv-x="339" 
d="M201 494q3 8 1 15.5t-2 13t-5 11t-6.5 8.5t-8 7t-9 5.5t-9 4t-8.5 3.5t-7 2.5t-6 1.5q-14 5 -12 19q3 20 43 15q23 -2 95 -2t113 2q16 1 21.5 -3t3.5 -15q-4 -15 -27 -18q-33 -6 -49.5 -22.5t-28.5 -51.5q-8 -22 -47 -181.5t-41 -199.5q-5 -53 28 -66l12 -4t12 -5
t6.5 -6.5t2.5 -11.5q-2 -9 -12.5 -14t-26.5 -3q-47 6 -225 -2q-8 -1 -13 2.5t-4 11.5q0 21 44 28q45 5 69 70q11 25 51 190t45 195zM402 765q6 -1 7 -9.5t-4 -19.5q-21 -45 -55 -69.5t-70 -24.5q-46 0 -65.5 29.5t-15.5 61.5t21 34q9 1 13 -5.5t4 -14.5q5 -29 58 -29
q19 0 42.5 9t35.5 25t29 13z" />
    <glyph glyph-name="ibreve" unicode="&#x12d;" horiz-adv-x="317" 
d="M284 132q8 -13 -7 -27q-33 -35 -85.5 -75.5t-79.5 -40.5q-46 0 -41 64q1 22 9 54.5t16 58t23 69t22 65.5q12 43 0 43q-8 0 -27.5 -11.5t-35.5 -25.5q-20 -19 -30 -13q-6 4 -7 12t4 13q33 38 81 70.5t75 41.5q31 10 52 -2.5t10 -53.5q-4 -12 -42 -114.5t-44 -144.5
q-5 -33 12 -33q14 2 66 47q21 16 29 3zM354 618q6 -1 7 -10t-4 -20q-44 -93 -120 -93q-46 0 -63 28.5t-13 62.5q2 32 19 34q9 1 13.5 -6t4.5 -15q1 -31 53 -31q19 0 40.5 10t34.5 26q11 17 28 14z" />
    <glyph glyph-name="Iogonek" unicode="&#x12e;" horiz-adv-x="339" 
d="M177 -130q9 -14 -14 -32q-37 -32 -75 -32q-74 0 -74 63q0 57 77 118q5 5 2 9.5t-12 4.5q-44 -1 -72 -4q-8 -1 -13 2.5t-4 11.5q0 21 44 28q45 5 69 70q11 25 51 190t45 195q3 8 1 15.5t-2 13t-5 11t-6.5 8.5t-8 7t-9 5.5t-9 4t-8.5 3.5t-7 2.5t-6 1.5q-14 5 -12 19
q3 20 43 15q23 -2 95 -2t113 2q16 1 21.5 -3t3.5 -15q-4 -15 -27 -18q-33 -6 -49.5 -22.5t-28.5 -51.5q-8 -22 -47 -181.5t-41 -199.5q-5 -53 28 -66l12 -4t12 -5t6.5 -6.5t2.5 -11.5q-4 -20 -39 -17q-70 7 -82 -8q-53 -51 -53 -94q0 -13 8 -20.5t18 -7.5q17 0 29 5
q18 4 23 -4z" />
    <glyph glyph-name="iogonek" unicode="&#x12f;" horiz-adv-x="317" 
d="M150 -130q9 -14 -14 -32q-37 -32 -75 -32q-73 0 -73 63q0 54 79 117q12 9 12 11q0 -2 -5 14q-5 12 -3 42q1 22 9 54.5t16 58t23 69t22 65.5q12 43 0 43q-8 0 -27.5 -11.5t-35.5 -25.5q-20 -19 -30 -13q-6 4 -7 12t4 13q33 38 81 70.5t75 41.5q31 10 52 -2.5t10 -53.5
q-4 -12 -42 -114.5t-44 -144.5q-5 -33 12 -33q14 2 66 47q21 16 29 3t-7 -27q-59 -61 -119 -97q-30 -17 -56.5 -52t-26.5 -59q0 -28 23 -28q17 0 29 5q18 4 23 -4zM342 595q-4 -25 -29.5 -44.5t-52.5 -19.5q-30 0 -27 35q5 30 24.5 48t48.5 18q37 0 36 -37z" />
    <glyph glyph-name="Idotaccent" unicode="&#x130;" horiz-adv-x="339" 
d="M201 494q3 8 1 15.5t-2 13t-5 11t-6.5 8.5t-8 7t-9 5.5t-9 4t-8.5 3.5t-7 2.5t-6 1.5q-14 5 -12 19q3 20 43 15q23 -2 95 -2t113 2q16 1 21.5 -3t3.5 -15q-4 -15 -27 -18q-33 -6 -49.5 -22.5t-28.5 -51.5q-8 -22 -47 -181.5t-41 -199.5q-5 -53 28 -66l12 -4t12 -5
t6.5 -6.5t2.5 -11.5q-2 -9 -12.5 -14t-26.5 -3q-47 6 -225 -2q-8 -1 -13 2.5t-4 11.5q0 21 44 28q45 5 69 70q11 25 51 190t45 195zM350 705q-1 -24 -25 -40t-52 -16q-15 0 -23 10.5t-8 25.5q2 22 21.5 41.5t46.5 19.5q18 0 29.5 -11.5t10.5 -29.5z" />
    <glyph glyph-name="dotlessi" unicode="&#x131;" horiz-adv-x="317" 
d="M284 132q8 -13 -7 -27q-33 -35 -85.5 -75.5t-79.5 -40.5q-46 0 -41 64q1 22 9 54.5t16 58t23 69t22 65.5q12 43 0 43q-8 0 -27.5 -11.5t-35.5 -25.5q-20 -19 -30 -13q-6 4 -7 12t4 13q33 38 81 70.5t75 41.5q31 10 52 -2.5t10 -53.5q-4 -12 -42 -114.5t-44 -144.5
q-5 -33 12 -33q14 2 66 47q21 16 29 3z" />
    <glyph glyph-name="IJ" unicode="&#x132;" horiz-adv-x="646" 
d="M201 494q3 8 1 15.5t-2 13t-5 11t-6.5 8.5t-8 7t-9 5.5t-9 4t-8.5 3.5t-7 2.5t-6 1.5q-14 5 -12 19q3 20 43 15q23 -2 95 -2t113 2q16 1 21.5 -3t3.5 -15q-4 -15 -27 -18q-33 -6 -49.5 -22.5t-28.5 -51.5q-8 -22 -47 -181.5t-41 -199.5q-5 -53 28 -66l12 -4t12 -5
t6.5 -6.5t2.5 -11.5q-2 -9 -12.5 -14t-26.5 -3q-47 6 -225 -2q-8 -1 -13 2.5t-4 11.5q0 21 44 28q45 5 69 70q11 25 51 190t45 195zM488 603q23 -3 96 -3t114 3q16 1 21.5 -3.5t3.5 -15.5q-3 -13 -27 -18q-49 -9 -71 -74q-4 -2 -18.5 -56.5t-34 -134.5t-28.5 -113
q-27 -96 -58 -164q-40 -84 -114.5 -154t-150.5 -70q-33 0 -51 18t-18 48q0 22 12.5 47.5t33.5 42.5q24 20 40 7q8 -6 2 -21q-8 -24 5 -38t34 -14q26 0 48 12t35.5 27.5t26.5 41.5t18.5 43t13.5 42q23 77 60 231t46 210q1 10 -0.5 18.5t-4.5 15t-9.5 12t-11.5 9t-13 7t-12 5
t-11 3.5t-8 2q-14 4 -12 19q6 18 43 15z" />
    <glyph glyph-name="ij" unicode="&#x133;" horiz-adv-x="587" 
d="M284 132q8 -13 -7 -27q-33 -35 -85.5 -75.5t-79.5 -40.5q-46 0 -41 64q1 22 9 54.5t16 58t23 69t22 65.5q12 43 0 43q-8 0 -27.5 -11.5t-35.5 -25.5q-20 -19 -30 -13q-6 4 -7 12t4 13q33 38 81 70.5t75 41.5q31 10 52 -2.5t10 -53.5q-4 -12 -42 -114.5t-44 -144.5
q-5 -33 12 -33q14 2 66 47q21 16 29 3zM342 595q-4 -25 -29.5 -44.5t-52.5 -19.5q-30 0 -27 35q5 30 24.5 48t48.5 18q37 0 36 -37zM354 322q78 77 159 108q36 13 48.5 -0.5t9.5 -38.5q-4 -23 -52 -172q-4 -14 -67 -198q-44 -129 -119.5 -214.5t-143.5 -85.5
q-40 0 -56.5 18.5t-18.5 55.5q-2 20 14 49t42 45q28 16 41 12q6 -2 8 -10t-4 -18q-17 -29 -17 -53q1 -21 14.5 -27.5t29.5 -2.5q26 5 51 43t60 137q45 127 98 330q11 41 -6 41q-22 0 -57 -33q-19 -17 -32 -9q-14 9 -2 23zM637 595q-3 -25 -28 -44.5t-52 -19.5q-31 0 -28 35
q5 30 23.5 48t46.5 18q38 0 38 -37z" />
    <glyph glyph-name="Jcircumflex" unicode="&#x134;" horiz-adv-x="328" 
d="M171 603q22 -3 95.5 -3t113.5 3q17 1 22.5 -3.5t3.5 -15.5q-4 -13 -27 -18q-49 -8 -72 -74q-3 -2 -17.5 -57t-34 -133.5t-29.5 -113.5q-22 -85 -58 -164q-39 -83 -114 -153.5t-151 -70.5q-33 0 -51 18.5t-18 47.5q0 21 12.5 47t33.5 43q25 20 41 7q7 -6 2 -21
q-8 -24 5 -38t34 -14q31 0 56 15.5t42 45t25.5 51.5t18.5 54q23 77 60 231t46 210q1 10 -0.5 18.5t-4.5 15t-9.5 12t-11.5 9t-13 7t-12 5t-11 3.5t-8 2q-14 4 -12 19q6 18 43 15zM309 759q12 2 15.5 -1t7.5 -15q5 -18 20.5 -46.5t16.5 -30.5q8 -18 -5 -24q-16 -3 -30 11
q-10 10 -25 20q-15 9 -35 2q-13 -4 -36 -18q-30 -17 -41 -11q-19 7 14 32q47 37 63 57q19 23 35 24z" />
    <glyph glyph-name="jcircumflex" unicode="&#x135;" horiz-adv-x="280" 
d="M47 322q78 77 159 108q35 13 48 -1t9 -38q-2 -14 -51 -172q-17 -53 -35 -104t-32 -94q-44 -129 -119.5 -214.5t-144.5 -85.5q-39 0 -55.5 18.5t-19.5 55.5q-1 20 15.5 49t41.5 45q27 16 41 12q7 -2 8 -10t-5 -18q-16 -28 -16 -53q1 -21 14.5 -27.5t28.5 -2.5
q26 5 51.5 43t59.5 137q49 138 99 330q11 41 -6 41q-22 0 -57 -33q-19 -17 -32 -9q-15 8 -2 23zM273 652q22 5 23 -19q5 -48 16 -93q6 -24 -7 -28q-15 -6 -25 13q0 1 -17 28q-11 16 -32 3q-18 -12 -29 -23q-26 -26 -37 -20q-17 10 12 43q42 42 58 67q17 23 38 29z" />
    <glyph glyph-name="Kcommaaccent" unicode="&#x136;" horiz-adv-x="711" 
d="M170 600q22 -2 95 -2t113 2q16 1 22 -3t3 -15q-3 -15 -27 -18q-33 -6 -49.5 -22.5t-28.5 -51.5q-15 -39 -41 -163q-2 -8 7 -8q6 0 12 6q93 89 211 192q102 87 157 87q36 0 51 -10.5t15 -38.5q0 -16 -8 -41.5t-18 -37.5q-21 -28 -38 -25q-9 3 -10 25q0 13 -8.5 21.5
t-23.5 8.5q-37 0 -90 -34q-76 -51 -139 -116q-14 -16 -5 -34q37 -86 114 -188q47 -62 98 -62q45 0 75 10q10 3 20 -0.5t12 -10.5q2 -17 -19 -29q-100 -51 -134 -51q-71 0 -109 50q-48 63 -73.5 104.5t-62.5 115.5q-8 15 -15.5 16t-18.5 -8q-5 -3 -9 -7.5t-6 -7.5t-4 -10
t-2.5 -8.5t-2.5 -9.5l-2 -9q-18 -83 -19 -108q-5 -53 28 -66l12 -4t12 -5t6.5 -6.5t2.5 -11.5q-2 -9 -12.5 -14t-26.5 -3q-47 6 -225 -2q-8 -1 -13 2.5t-4 11.5q0 21 44 28q45 5 69 70q11 24 50 189t44 196q3 8 1 15.5t-2 13t-5 11t-6.5 8.5t-8 7t-9 5.5t-9 4t-8.5 3.5
t-7 2.5t-6 1.5q-14 5 -12 19q6 20 43 15zM237 -132q-3 2 -3.5 8t3.5 12q50 66 88 66q23 0 38 -14t15 -36q0 -80 -104 -167q-5 -5 -15.5 -9t-15.5 0q-17 13 -3 27q51 54 50 97q0 31 -30 16q-15 -7 -23 0z" />
    <glyph glyph-name="kcommaaccent" unicode="&#x137;" horiz-adv-x="503" 
d="M125 670q93 31 156 31q25 0 25 -35q0 -30 -24 -105q-11 -32 -47.5 -133.5t-52.5 -154.5q-6 -19 4 -20q4 0 10 8q39 58 105.5 117t106.5 59q26 0 41 -14t18 -26.5t2 -23.5q-4 -76 -131 -149q-8 -5 -13 -9t-7 -9.5t-2 -7t-1 -8.5q-6 -52 15 -95q6 -13 19.5 -14.5t25.5 7.5
q7 5 13.5 10t13 10.5t9.5 8.5q22 19 33 6q10 -12 -5 -29q-42 -42 -101 -91q-15 -13 -43 -13q-6 0 -19.5 6.5t-17.5 12.5q-30 46 -25 165q0 26 21 36q124 68 124 121q0 25 -21 25q-27 0 -70.5 -40t-84.5 -97q-17 -25 -31 -49.5t-20.5 -38.5t-20 -48.5t-20.5 -50.5
q-14 -34 -64 -45q-18 -3 -24 5t1 32q77 231 160 553q15 60 -9 62q-13 2 -49 -8q-26 -7 -26 14q0 17 26 25zM86 -132q-3 2 -3.5 8t3.5 12q50 66 88 66q23 0 38 -14t15 -36q0 -81 -103 -167q-5 -5 -15.5 -9t-15.5 0q-17 12 -4 27q52 55 51 97q-1 30 -31 16q-14 -7 -23 0z" />
    <glyph glyph-name="kgreenlandic" unicode="&#x138;" horiz-adv-x="488" 
d="M52 338q24 26 70 60.5t72 34.5q25 0 32.5 -26.5t1.5 -61.5q-7 -41 -23 -108q-1 -7 1 -11t5.5 -4t6.5 4q109 127 169 172q48 37 78 37q43 0 43 -42q0 -25 -14.5 -53.5t-37.5 -48.5q-16 -16 -28 -5q-8 8 -1 19q8 15 8 29q0 17 -16 17q-34 0 -112 -81q-22 -23 -17 -51
q11 -81 46 -127q10 -15 32 -15q21 0 68 43q19 16 30 5q5 -4 3.5 -13.5t-9.5 -17.5q-50 -50 -97 -89q-17 -15 -43 -15q-25 0 -41 16q-46 45 -60 161q-2 13 -4 16t-10 -2q-14 -11 -16 -24q-14 -59 -27 -104q-2 -8 -5.5 -14.5t-6 -11t-8.5 -9.5t-8.5 -7.5t-10.5 -7t-10 -5.5
t-11.5 -5t-11.5 -5q-12 -5 -20.5 -4t-12.5 5.5t-2 10.5q50 170 65 280q5 46 -5.5 52t-50.5 -31q-14 -13 -26 -1q-11 11 14 38z" />
    <glyph glyph-name="Lacute" unicode="&#x139;" horiz-adv-x="555" 
d="M168 603q23 -3 95 -3t113 3q16 1 22 -3.5t4 -15.5q-4 -13 -27 -18q-33 -6 -50 -22.5t-29 -51.5q-3 -7 -18.5 -69t-37 -151t-34.5 -153q-7 -27 -3.5 -40t23.5 -19q31 -9 89 -9q140 0 197 114q10 22 30 20q19 -2 5 -44q-10 -30 -39 -74.5t-65 -63.5q-29 -9 -60 -6
q-27 2 -73 6t-78.5 5t-79.5 0q-24 0 -54 -2.5t-55.5 -5.5t-26.5 -3q-19 0 -19 16q0 18 42 29q21 5 33 14.5t16.5 18t12.5 29.5q23 60 56 202.5t41 190.5q8 52 -58 71q-1 0 -1.5 0.5t-1.5 0.5q-12 4 -12 19q6 18 43 15zM400 761q16 2 18.5 -8t-7.5 -16t-38.5 -23.5t-52 -32.5
t-34.5 -24q-8 -7 -19 -11.5t-16 -2.5q-17 7 -2 24q50 60 56 71q7 13 22 17q9 2 38 3.5t35 2.5z" />
    <glyph glyph-name="lacute" unicode="&#x13a;" horiz-adv-x="279" 
d="M122 669q19 3 64.5 16.5t75.5 15.5q12 1 18.5 -9.5t7.5 -25.5q0 -26 -20 -105q-13 -52 -47.5 -162t-46.5 -152q-25 -87 -30 -132q-4 -33 17 -33q13 2 65 47q20 16 28 3q10 -12 -7 -27q-32 -35 -83.5 -75.5t-78.5 -40.5q-25 0 -34.5 15.5t-10.5 48.5q0 65 37 190
q12 40 35.5 111.5t38.5 123t24 99.5q9 55 -15 59q-11 1 -38 -2q-25 -4 -25 12q0 7 6.5 14t18.5 9zM375 838q17 2 19.5 -9.5t-8.5 -16.5q-110 -59 -124 -70q-24 -17 -36 -11q-17 6 -1 23q10 13 27 31.5t26 29.5q8 11 25 17q8 2 37 3.5t35 2.5z" />
    <glyph glyph-name="Lcommaaccent" unicode="&#x13b;" horiz-adv-x="555" 
d="M168 603q23 -3 95 -3t113 3q16 1 22 -3.5t4 -15.5q-4 -13 -27 -18q-33 -6 -50 -22.5t-29 -51.5q-3 -7 -18.5 -69t-37 -151t-34.5 -153q-7 -27 -3.5 -40t23.5 -19q31 -9 89 -9q140 0 197 114q10 22 30 20q19 -2 5 -44q-10 -30 -39 -74.5t-65 -63.5q-29 -9 -60 -6
q-27 2 -73 6t-78.5 5t-79.5 0q-24 0 -54 -2.5t-55.5 -5.5t-26.5 -3q-19 0 -19 16q0 18 42 29q21 5 33 14.5t16.5 18t12.5 29.5q23 60 56 202.5t41 190.5q8 52 -58 71q-1 0 -1.5 0.5t-1.5 0.5q-12 4 -12 19q6 18 43 15zM185 -132q-3 2 -3 8t3 12q53 66 89 66q23 0 38 -14
t15 -36q0 -80 -104 -167q-5 -5 -15.5 -9t-15.5 0q-17 13 -3 27q51 55 50 97q-1 30 -30 16q-15 -7 -24 0z" />
    <glyph glyph-name="lcommaaccent" unicode="&#x13c;" horiz-adv-x="279" 
d="M121 669q19 3 64.5 16.5t75.5 15.5q12 1 18.5 -9.5t7.5 -25.5q0 -26 -20 -105q-13 -52 -47.5 -162t-46.5 -152q-25 -87 -30 -132q-3 -33 17 -33q13 2 65 47q20 16 28 3q9 -12 -6 -27q-34 -36 -85 -76t-78 -40q-25 0 -34.5 15.5t-9.5 48.5q0 65 37 190q12 42 35 112
t38 122t24 100q9 55 -15 59q-11 1 -38 -2q-25 -4 -25 12q0 7 6.5 14t18.5 9zM-9 -132q-3 2 -3.5 8t3.5 12q50 66 88 66q23 0 38 -14t15 -36q0 -79 -103 -167q-5 -5 -16 -9t-16 0q-16 12 -3 27q51 54 51 97q-1 30 -31 16q-14 -7 -23 0z" />
    <glyph glyph-name="Lcaron" unicode="&#x13d;" horiz-adv-x="555" 
d="M168 603q23 -3 95 -3t113 3q16 1 22 -3.5t4 -15.5q-4 -13 -27 -18q-33 -6 -50 -22.5t-29 -51.5q-3 -7 -18.5 -69t-37 -151t-34.5 -153q-7 -27 -3.5 -40t23.5 -19q31 -9 89 -9q140 0 197 114q10 22 30 20q19 -2 5 -44q-10 -30 -39 -74.5t-65 -63.5q-29 -9 -60 -6
q-27 2 -73 6t-78.5 5t-79.5 0q-24 0 -54 -2.5t-55.5 -5.5t-26.5 -3q-19 0 -19 16q0 18 42 29q21 5 33 14.5t16.5 18t12.5 29.5q23 60 56 202.5t41 190.5q8 52 -58 71q-1 0 -1.5 0.5t-1.5 0.5q-12 4 -12 19q6 18 43 15zM463 524q-8 5 0 20q49 65 88 65q23 0 38 -14t15 -35
q0 -80 -103 -168q-6 -4 -16 -8t-15 0q-16 11 -4 27q52 55 51 97q-1 28 -30 16q-16 -8 -24 0z" />
    <glyph glyph-name="lcaron" unicode="&#x13e;" horiz-adv-x="279" 
d="M122 669q19 3 64.5 16.5t75.5 15.5q12 1 18.5 -9.5t7.5 -25.5q0 -26 -20 -105q-13 -52 -47.5 -162t-46.5 -152q-25 -87 -30 -132q-4 -33 17 -33q13 2 65 47q20 16 28 3q10 -12 -7 -27q-32 -35 -83.5 -75.5t-78.5 -40.5q-25 0 -34.5 15.5t-10.5 48.5q0 65 37 190
q12 40 35.5 111.5t38.5 123t24 99.5q9 55 -15 59q-11 1 -38 -2q-25 -4 -25 12q0 7 6.5 14t18.5 9zM326 609q-8 10 0 22q54 72 97 72q25 0 39 -14.5t14 -38.5q0 -46 -35 -92.5t-83 -75.5q-27 -18 -37 -5q-13 14 6 29q62 46 62 85q0 32 -37 18q-18 -6 -26 0z" />
    <glyph glyph-name="Ldot" unicode="&#x13f;" horiz-adv-x="555" 
d="M168 603q23 -3 95 -3t113 3q16 1 22 -3.5t4 -15.5q-4 -13 -27 -18q-33 -6 -50 -22.5t-29 -51.5q-3 -7 -18.5 -69t-37 -151t-34.5 -153q-7 -27 -3.5 -40t23.5 -19q31 -9 89 -9q140 0 197 114q10 22 30 20q19 -2 5 -44q-10 -30 -39 -74.5t-65 -63.5q-29 -9 -60 -6
q-27 2 -73 6t-78.5 5t-79.5 0q-24 0 -54 -2.5t-55.5 -5.5t-26.5 -3q-19 0 -19 16q0 18 42 29q21 5 33 14.5t16.5 18t12.5 29.5q23 60 56 202.5t41 190.5q8 52 -58 71q-1 0 -1.5 0.5t-1.5 0.5q-12 4 -12 19q6 18 43 15zM529 343q-2 -24 -25.5 -40t-51.5 -16q-15 0 -22.5 10.5
t-6.5 25.5q1 22 20 41.5t46 19.5q18 0 29.5 -11t10.5 -30z" />
    <glyph glyph-name="ldot" unicode="&#x140;" horiz-adv-x="350" 
d="M122 669q19 3 64.5 16.5t75.5 15.5q12 1 18.5 -9.5t7.5 -25.5q0 -26 -20 -105q-13 -52 -47.5 -162t-46.5 -152q-25 -87 -30 -132q-4 -33 17 -33q13 2 65 47q20 16 28 3q10 -12 -7 -27q-32 -35 -83.5 -75.5t-78.5 -40.5q-25 0 -34.5 15.5t-10.5 48.5q0 65 37 190
q12 40 35.5 111.5t38.5 123t24 99.5q9 55 -15 59q-11 1 -38 -2q-25 -4 -25 12q0 7 6.5 14t18.5 9zM391 386q-4 -26 -25.5 -45t-48.5 -19q-15 0 -22.5 9.5t-5.5 24.5q2 31 19.5 49t46.5 18q37 0 36 -37z" />
    <glyph glyph-name="Lslash" unicode="&#x141;" horiz-adv-x="555" 
d="M79 223q-15 -4 -23 1t-5 16q4 21 36 29q34 10 50 16q12 3 14.5 7t5.5 19q13 55 41 186q8 52 -58 71q-1 0 -1.5 0.5t-1.5 0.5q-12 4 -12 19q6 18 43 15q23 -3 95 -3t113 3q16 1 22 -3.5t4 -15.5q-4 -13 -27 -18q-33 -6 -50 -22.5t-29 -51.5q-6 -11 -39 -150
q-5 -18 -1.5 -19t21.5 5l100 36q3 1 9 4q9 4 14 6t11 3t9 -1.5t4 -8.5q2 -7 -4 -21.5t-15 -23.5q-8 -8 -35 -17l-104 -29q-2 -1 -5 -1q-17 -5 -21 -14q-2 -4 -4 -11q-6 -20 -11 -43t-10.5 -49t-8.5 -39q-7 -27 -3.5 -40t23.5 -19q31 -9 89 -9q140 0 197 114q10 22 30 20
q19 -2 5 -44q-10 -30 -39 -74.5t-65 -63.5q-29 -9 -60 -6q-27 2 -73 6t-78.5 5t-79.5 0q-24 0 -54 -2.5t-55.5 -5.5t-26.5 -3q-19 0 -19 16q0 18 42 29q30 8 40.5 20.5t21.5 41.5q22 62 35 119q4 14 2 16t-16 -3l-25 -7.5t-18 -5.5z" />
    <glyph glyph-name="lslash" unicode="&#x142;" horiz-adv-x="279" 
d="M31 282q-16 -6 -23.5 -1.5t-5.5 15.5q3 22 33 33q17 6 58 19q8 4 10 4.5t5.5 3.5t4.5 6l3 9q43 134 57 206q12 54 -15 59q-11 1 -38 -2q-25 -4 -25 12q0 7 6.5 14t18.5 9q19 3 64.5 16.5t75.5 15.5q12 1 18.5 -9.5t7.5 -25.5q0 -26 -20 -105q-9 -33 -42 -143
q-2 -5 -2 -8.5t2.5 -7t12.5 1.5l45 19l10 5t9.5 4.5t7.5 3t6.5 2t5.5 0t4.5 -3t2.5 -6.5q2 -6 -3 -19t-14 -24q-11 -12 -35 -19q-17 -4 -50 -18q-13 -5 -18 -7.5t-9 -8t-7 -16.5q-2 -8 -9 -32t-10 -37q-25 -82 -31 -132q-3 -33 17 -33q13 2 65 47q20 16 29 3q7 -13 -7 -27
q-34 -36 -84.5 -76t-78.5 -40q-25 0 -34 15.5t-10 48.5q0 34 16 108.5t35 128.5q2 8 -0.5 9.5t-15.5 -2.5z" />
    <glyph glyph-name="Nacute" unicode="&#x143;" horiz-adv-x="710" 
d="M101 592q5 12 40 12q63 0 120 -11q29 -7 55 -21.5t49 -38t41.5 -46t37.5 -58t31 -58.5t28 -63.5t22.5 -58t19.5 -55.5q7 -26 16 -26q3 -1 7 5.5t7 15.5q45 182 49 290q1 41 -18 61.5t-60 27.5q-15 3 -20 8t-3 12q2 6 4 9t11 5.5t25 1.5q78 -9 149 -1q9 1 17.5 -1.5
t13 -10t-7.5 -21.5q-30 -45 -39 -78q-3 -14 -22 -90t-29 -117.5t-24 -113t-23 -131.5q-3 -19 -6 -24t-15 -9q-23 -8 -65 -11h-15.5t-11 4.5t-4.5 14.5q-1 64 -38 170.5t-86.5 192.5t-82.5 95q-23 4 -27 -12q-58 -259 -63 -306q-7 -43 7 -74.5t51 -39.5q10 -1 20 -9t9 -16
q-1 -10 -15 -14.5t-29 -2.5q-52 5 -167 -2q-13 0 -16 7t1 16.5t12 19.5q31 41 41 65q48 112 102 370q9 42 -10 62.5t-60 28.5q-14 3 -23.5 11t-5.5 15zM597 761q16 2 18.5 -8t-7.5 -16t-38.5 -23.5t-52 -32.5t-34.5 -24q-8 -7 -19 -11.5t-16 -2.5q-17 7 -2 24q50 60 56 71
q7 13 22 17q9 2 38 3.5t35 2.5z" />
    <glyph glyph-name="nacute" unicode="&#x144;" horiz-adv-x="546" 
d="M511 132q7 -12 -7 -27q-33 -35 -85 -75.5t-79 -40.5q-49 0 -44 64q2 30 11.5 63.5t27.5 84t26 76.5q8 24 0.5 35t-34.5 -7q-64 -53 -102.5 -115.5t-78.5 -157.5q-14 -34 -64 -45q-18 -3 -24 5t1 32q27 77 67 238q7 22 7 49.5t-13 27.5q-12 0 -62 -43q-10 -8 -18 -3
q-8 4 -6.5 14.5t9.5 18.5q108 112 158 112q20 0 32.5 -18.5t10.5 -43.5q-1 -15 -3 -27t-3 -19.5t-4.5 -17.5t-5 -14t-6.5 -17t-7 -17q-6 -15 -0.5 -19.5t15.5 8.5q58 73 143 143q44 37 84 37q41 0 31 -52q-5 -28 -41.5 -127.5t-42.5 -138.5q-5 -33 13 -33q16 2 65 47
q21 16 29 3zM477 654q17 4 21 -5.5t-6 -16.5q-105 -87 -121 -106q-16 -20 -32 -17q-16 5 -4 23q44 77 49 89q5 13 21 20q7 3 36.5 7.5t35.5 5.5z" />
    <glyph glyph-name="Ncommaaccent" unicode="&#x145;" horiz-adv-x="710" 
d="M101 592q5 12 40 12q63 0 120 -11q29 -7 55 -21.5t49 -38t41.5 -46t37.5 -58t31 -58.5t28 -63.5t22.5 -58t19.5 -55.5q7 -26 16 -26q3 -1 7 5.5t7 15.5q45 182 49 290q1 41 -18 61.5t-60 27.5q-15 3 -20 8t-3 12q2 6 4 9t11 5.5t25 1.5q78 -9 149 -1q9 1 17.5 -1.5
t13 -10t-7.5 -21.5q-30 -45 -39 -78q-3 -14 -22 -90t-29 -117.5t-24 -113t-23 -131.5q-3 -19 -6 -24t-15 -9q-23 -8 -65 -11h-15.5t-11 4.5t-4.5 14.5q-1 64 -38 170.5t-86.5 192.5t-82.5 95q-23 4 -27 -12q-58 -259 -63 -306q-7 -43 7 -74.5t51 -39.5q10 -1 20 -9t9 -16
q-1 -10 -15 -14.5t-29 -2.5q-52 5 -167 -2q-13 0 -16 7t1 16.5t12 19.5q31 41 41 65q48 112 102 370q9 42 -10 62.5t-60 28.5q-14 3 -23.5 11t-5.5 15zM253 -132q-3 2 -3 8t3 12q53 66 89 66q23 0 38 -14t15 -36q0 -80 -104 -167q-5 -5 -15.5 -9t-15.5 0q-17 13 -3 27
q51 55 50 97q-1 30 -30 16q-15 -7 -24 0z" />
    <glyph glyph-name="ncommaaccent" unicode="&#x146;" horiz-adv-x="546" 
d="M511 132q7 -12 -7 -27q-33 -35 -85 -75.5t-79 -40.5q-49 0 -44 64q2 30 11.5 63.5t27.5 84t26 76.5q8 24 0.5 35t-34.5 -7q-64 -53 -102.5 -115.5t-78.5 -157.5q-14 -34 -64 -45q-18 -3 -24 5t1 32q27 77 67 238q7 22 7 49.5t-13 27.5q-12 0 -62 -43q-10 -8 -18 -3
q-8 4 -6.5 14.5t9.5 18.5q108 112 158 112q20 0 32.5 -18.5t10.5 -43.5q-1 -15 -3 -27t-3 -19.5t-4.5 -17.5t-5 -14t-6.5 -17t-7 -17q-6 -15 -0.5 -19.5t15.5 8.5q58 73 143 143q44 37 84 37q41 0 31 -52q-5 -28 -41.5 -127.5t-42.5 -138.5q-5 -33 13 -33q16 2 65 47
q21 16 29 3zM116 -132q-3 2 -3 8t3 12q53 66 89 66q23 0 38 -14t15 -36q0 -80 -104 -167q-5 -5 -15.5 -9t-15.5 0q-17 13 -3 27q51 55 50 97q-1 30 -30 16q-15 -7 -24 0z" />
    <glyph glyph-name="Ncaron" unicode="&#x147;" horiz-adv-x="710" 
d="M101 592q5 12 40 12q63 0 120 -11q29 -7 55 -21.5t49 -38t41.5 -46t37.5 -58t31 -58.5t28 -63.5t22.5 -58t19.5 -55.5q7 -26 16 -26q3 -1 7 5.5t7 15.5q45 182 49 290q1 41 -18 61.5t-60 27.5q-15 3 -20 8t-3 12q2 6 4 9t11 5.5t25 1.5q78 -9 149 -1q9 1 17.5 -1.5
t13 -10t-7.5 -21.5q-30 -45 -39 -78q-3 -14 -22 -90t-29 -117.5t-24 -113t-23 -131.5q-3 -19 -6 -24t-15 -9q-23 -8 -65 -11h-15.5t-11 4.5t-4.5 14.5q-1 64 -38 170.5t-86.5 192.5t-82.5 95q-23 4 -27 -12q-58 -259 -63 -306q-7 -43 7 -74.5t51 -39.5q10 -1 20 -9t9 -16
q-1 -10 -15 -14.5t-29 -2.5q-52 5 -167 -2q-13 0 -16 7t1 16.5t12 19.5q31 41 41 65q48 112 102 370q9 42 -10 62.5t-60 28.5q-14 3 -23.5 11t-5.5 15zM459 641q-12 -2 -16 1t-7 15q-5 17 -20 44t-17 33q-9 18 5 24q16 3 30 -11q7 -8 25 -20q15 -9 35 -2q19 5 35 17
q28 18 42 12q18 -6 -15 -33q-46 -36 -63 -56q-19 -23 -34 -24z" />
    <glyph glyph-name="ncaron" unicode="&#x148;" horiz-adv-x="546" 
d="M511 132q7 -12 -7 -27q-33 -35 -85 -75.5t-79 -40.5q-49 0 -44 64q2 30 11.5 63.5t27.5 84t26 76.5q8 24 0.5 35t-34.5 -7q-64 -53 -102.5 -115.5t-78.5 -157.5q-14 -34 -64 -45q-18 -3 -24 5t1 32q27 77 67 238q7 22 7 49.5t-13 27.5q-12 0 -62 -43q-10 -8 -18 -3
q-8 4 -6.5 14.5t9.5 18.5q108 112 158 112q20 0 32.5 -18.5t10.5 -43.5q-1 -15 -3 -27t-3 -19.5t-4.5 -17.5t-5 -14t-6.5 -17t-7 -17q-6 -15 -0.5 -19.5t15.5 8.5q58 73 143 143q44 37 84 37q41 0 31 -52q-5 -28 -41.5 -127.5t-42.5 -138.5q-5 -33 13 -33q16 2 65 47
q21 16 29 3zM353 512q-21 -6 -24 18q-3 38 -16 94q-5 23 8 28q7 2 14.5 -2.5t9.5 -11.5l18 -28q10 -16 32 -2q14 8 28 22q28 26 37 20q18 -10 -11 -42q-43 -43 -58 -68q-18 -23 -38 -28z" />
    <glyph glyph-name="napostrophe" unicode="&#x149;" horiz-adv-x="704" 
d="M669 132q10 -12 -7 -27q-34 -36 -85 -76t-79 -40q-49 0 -43 64q2 30 11 63t27 84.5t26 76.5q8 24 0.5 35t-33.5 -7q-65 -53 -103.5 -116t-77.5 -157q-15 -34 -64 -45q-19 -3 -25 5t1 32q24 69 68 238q7 22 6.5 49.5t-13.5 27.5q-12 0 -62 -43q-10 -8 -18 -3q-7 4 -6 14.5
t9 18.5q108 112 158 112q20 0 32.5 -18.5t10.5 -43.5q-4 -53 -28 -112q-4 -10 -3.5 -15.5t6 -4.5t11.5 9q58 73 143 143q44 37 84 37q41 0 31 -52q-5 -28 -41.5 -128t-42.5 -138q-5 -33 13 -33q15 2 66 47q20 16 28 3zM109 600q-7 9 0 22q54 72 97 72q25 0 39 -14.5
t14 -38.5q0 -48 -40.5 -109t-88.5 -104q-20 -20 -32 -11q-7 5 -8 13.5t4 14.5q29 32 42 47.5t27 44t13 54.5q-1 11 -8.5 15t-15.5 2.5t-17 -6.5q-16 -10 -26 -2z" />
    <glyph glyph-name="Eng" unicode="&#x14a;" horiz-adv-x="660" 
d="M300 597q16 1 20 -8.5t-2 -23.5l-17 -60q-5 -18 4 -17q8 2 17 12q100 108 207 108q91 0 134 -56t26 -157q-39 -241 -108 -371q-45 -84 -122.5 -154t-152.5 -70q-33 0 -51 18t-18 48q0 22 12.5 47.5t33.5 42.5q24 20 40 7q8 -6 2 -21q-8 -24 5 -38t34 -14q30 0 54 13.5
t41.5 41t26.5 47t21 51.5q26 71 51 174.5t34 174.5q20 153 -101 153q-73 0 -139.5 -65.5t-90.5 -152.5q-41 -148 -49 -218q-5 -53 28 -66l12 -4t12 -5t6.5 -6.5t2.5 -11.5q-2 -9 -12.5 -14t-26.5 -3q-47 6 -225 -2q-8 -1 -13 2.5t-4 11.5q0 21 44 28q47 5 69 70q12 34 24 81
t27.5 119.5t17.5 79.5l24 105q-1 10 0.5 17t-3 14t-6 11.5t-8 8.5t-9.5 6.5t-10 5.5t-10 3.5t-8.5 2.5t-6.5 2q-12 4 -12 18q5 16 43 15q7 0 36 -1t49 -1t47 1z" />
    <glyph glyph-name="eng" unicode="&#x14b;" horiz-adv-x="496" 
d="M202 438q20 0 32.5 -18.5t10.5 -43.5q-1 -15 -3 -27t-3 -19.5t-4.5 -17.5t-5 -14t-6.5 -17t-7 -17q-6 -15 -0.5 -19.5t15.5 8.5q58 73 143 143q46 38 85 37t30 -52q-33 -196 -107 -374q-53 -129 -131 -207.5t-147 -78.5q-40 0 -58 19t-17 55q0 21 15.5 49.5t40.5 44.5
q28 16 41 12q6 -2 8 -10t-4 -18q-17 -29 -17 -53q1 -21 14.5 -27.5t29.5 -2.5q58 11 121 180q75 201 86 307q2 17 0 26.5t-10 13.5t-26 -12q-64 -53 -102.5 -115.5t-78.5 -157.5q-14 -34 -64 -45q-18 -3 -24 5t1 32q21 58 67 238q7 22 7 49.5t-14 27.5q-11 0 -61 -43
q-10 -8 -19 -3q-7 4 -5.5 14.5t9.5 18.5q108 112 158 112z" />
    <glyph glyph-name="Omacron" unicode="&#x14c;" horiz-adv-x="688" 
d="M424 614q121 0 183 -72.5t60 -172.5q-3 -94 -48 -182t-126 -146t-175 -58q-72 0 -123.5 25t-76.5 66t-36 80.5t-11 81.5q0 90 49 177.5t131.5 144t172.5 56.5zM184 260q-3 -64 11.5 -111.5t39.5 -71t49 -34t46 -10.5q32 0 67 17t69.5 52t59 99.5t30.5 147.5q7 93 -31 154
t-118 61q-30 0 -64.5 -16.5t-70 -50t-60 -96t-28.5 -141.5zM316 661q-26 0 -18 22q6 22 32 22q152 2 218 8q3 0 10 1.5t10 1.5t7 -0.5t5.5 -3.5t1.5 -8q0 -18 -22 -35q-9 -7 -29 -7q-19 0 -108.5 -0.5t-106.5 -0.5z" />
    <glyph glyph-name="omacron" unicode="&#x14d;" horiz-adv-x="394" 
d="M138 -9q-105 0 -101 129q1 36 16.5 86.5t34.5 82.5q42 71 94 108.5t94 37.5q90 0 84 -137q-2 -75 -49 -160q-29 -54 -79.5 -100.5t-93.5 -46.5zM230 366q-29 0 -54 -35.5t-37.5 -78.5t-14.5 -77q-3 -52 10 -81.5t36 -29.5q36 0 68.5 56t35.5 153q2 93 -44 93zM170 498
q-12 0 -17 6.5t-1 15.5q7 22 32 22q132 3 180 6q3 0 7 0.5t7 1t6.5 1t5.5 0t4.5 -1t4 -2t2.5 -4.5t1 -6q0 -15 -23 -30q-9 -7 -29 -7q-74 -2 -180 -2z" />
    <glyph glyph-name="Obreve" unicode="&#x14e;" horiz-adv-x="688" 
d="M424 614q121 0 183 -72.5t60 -172.5q-3 -94 -48 -182t-126 -146t-175 -58q-72 0 -123.5 25t-76.5 66t-36 80.5t-11 81.5q0 90 49 177.5t131.5 144t172.5 56.5zM184 260q-3 -64 11.5 -111.5t39.5 -71t49 -34t46 -10.5q32 0 67 17t69.5 52t59 99.5t30.5 147.5q7 93 -31 154
t-118 61q-30 0 -64.5 -16.5t-70 -50t-60 -96t-28.5 -141.5zM553 772q5 -1 6 -10t-3 -20q-21 -45 -55 -69t-70 -24q-46 0 -65.5 29t-15.5 62q4 32 20 34q10 1 13.5 -5t4.5 -16q4 -28 57 -28q20 0 43.5 8.5t35.5 24.5q11 17 29 14z" />
    <glyph glyph-name="obreve" unicode="&#x14f;" horiz-adv-x="394" 
d="M138 -9q-105 0 -101 129q1 36 16.5 86.5t34.5 82.5q42 71 94 108.5t94 37.5q90 0 84 -137q-2 -75 -49 -160q-29 -54 -79.5 -100.5t-93.5 -46.5zM230 366q-29 0 -54 -35.5t-37.5 -78.5t-14.5 -77q-3 -52 10 -81.5t36 -29.5q36 0 68.5 56t35.5 153q2 93 -44 93zM397 618
q6 -1 7 -10t-4 -20q-44 -93 -121 -93q-46 0 -63 29t-12 62q2 32 19 34q9 1 13.5 -6t4.5 -15q1 -31 53 -31q18 0 40 10t35 26q11 17 28 14z" />
    <glyph glyph-name="Ohungarumlaut" unicode="&#x150;" horiz-adv-x="688" 
d="M424 614q121 0 183 -72.5t60 -172.5q-3 -94 -48 -182t-126 -146t-175 -58q-72 0 -123.5 25t-76.5 66t-36 80.5t-11 81.5q0 90 49 177.5t131.5 144t172.5 56.5zM184 260q-3 -64 11.5 -111.5t39.5 -71t49 -34t46 -10.5q32 0 67 17t69.5 52t59 99.5t30.5 147.5q7 93 -31 154
t-118 61q-30 0 -64.5 -16.5t-70 -50t-60 -96t-28.5 -141.5zM482 761q17 2 19.5 -8t-8.5 -16q-9 -6 -38 -23.5t-52 -32.5t-34 -24q-22 -19 -36 -14q-15 8 -1 24q6 7 18.5 22t21.5 26.5t15 22.5q7 13 23 17q8 2 37 3.5t35 2.5zM642 761q17 2 19.5 -8t-8.5 -16q-9 -6 -38 -23.5
t-52 -32.5t-34 -24q-22 -19 -36 -14q-15 8 -1 24q6 7 18.5 22t21.5 26.5t15 22.5q7 13 23 17q8 2 37 3.5t35 2.5z" />
    <glyph glyph-name="ohungarumlaut" unicode="&#x151;" horiz-adv-x="394" 
d="M138 -9q-105 0 -101 129q1 36 16.5 86.5t34.5 82.5q42 71 94 108.5t94 37.5q90 0 84 -137q-2 -75 -49 -160q-29 -54 -79.5 -100.5t-93.5 -46.5zM230 366q-29 0 -54 -35.5t-37.5 -78.5t-14.5 -77q-3 -52 10 -81.5t36 -29.5q36 0 68.5 56t35.5 153q2 93 -44 93zM326 679
q13 0 13 -9.5t-11 -22.5q-48 -56 -102 -142q-15 -26 -30 -26q-7 0 -11 6t1 20q13 33 44 140q3 12 8.5 19t10 8.5t14.5 3.5q22 3 63 3zM466 679q27 0 3 -31q-49 -57 -103 -143q-14 -26 -29 -26q-8 0 -11.5 6t1.5 20q18 47 43 140q4 12 9.5 19t10 8.5t14.5 3.5q21 3 62 3z" />
    <glyph glyph-name="OE" unicode="&#x152;" horiz-adv-x="934" 
d="M922 606q35 0 45 -13.5t7 -35.5q-2 -22 -16 -52.5t-33 -51.5q-16 -18 -29 -11q-10 4 -3 21q17 38 -5 68t-56 30q-132 0 -154 -5q-14 -4 -19 -8.5t-7 -15.5q-2 -8 -11.5 -47t-17.5 -70.5t-9 -39.5q-8 -14 -3 -25t35 -11q59 0 73 2q35 4 51 17t31 51q4 12 7.5 15t18.5 3
t5 -34q-22 -62 -45 -154q-2 -8 -10.5 -14.5t-16.5 -7.5q-4 0 -7.5 6.5t-1.5 14.5q3 44 -37 54q-49 13 -89 10q-17 -1 -23.5 -6t-11.5 -19q-16 -57 -35 -158q-7 -27 -3.5 -40t23.5 -19q30 -9 124 -9q142 0 197 114q11 21 31 20q19 -2 5 -44q-10 -30 -39.5 -74.5t-65.5 -63.5
q-28 -9 -59 -6q-204 13 -268 11q-40 -1 -97 -8.5t-85 -7.5q-58 0 -103.5 16.5t-71.5 41.5t-43 58.5t-23 64.5t-6 63q0 89 52.5 176t138.5 142t177 55q26 0 88.5 -5.5t90.5 -5.5q47 0 173 4t131 4zM184 260q-3 -64 11.5 -111.5t39.5 -71t49 -34t46 -10.5q92 0 119 71
q32 86 92 392q11 54 -53 69q-37 4 -74 -1t-78 -25t-72.5 -53.5t-54 -91.5t-25.5 -134z" />
    <glyph glyph-name="oe" unicode="&#x153;" horiz-adv-x="580" 
d="M354 -12q-65 0 -89 68q-5 9 -8 8t-12 -10l-2 -2q-61 -61 -105 -61q-105 0 -101 129q1 36 16.5 86.5t34.5 82.5q42 71 94 108.5t94 37.5q64 0 73 -66q2 -14 6.5 -14.5t15.5 9.5q45 42 92 60q41 16 69.5 0t28.5 -52q0 -28 -14.5 -51t-44.5 -43t-55.5 -32.5t-68.5 -31.5
q-19 -9 -25 -19t-8 -31q-2 -41 13.5 -72t43.5 -31t93 62q16 16 26 6q11 -10 -10 -33q-33 -36 -80.5 -72t-76.5 -36zM230 366q-29 0 -54 -35.5t-37.5 -78.5t-14.5 -77q-3 -52 10 -81.5t36 -29.5q36 0 68.5 56t35.5 153q2 93 -44 93zM359 259q-1 -8 4.5 -9.5t16.5 3.5
q32 15 49 24t33.5 27t16.5 38q-2 28 -27 28q-20 -1 -50.5 -34.5t-42.5 -76.5z" />
    <glyph glyph-name="Racute" unicode="&#x154;" horiz-adv-x="653" 
d="M123 588q6 18 43 15q44 -4 86.5 -4t99.5 2t87 2q66 1 109.5 -32.5t39.5 -96.5q-4 -62 -49 -104t-114 -64q-14 -4 -16.5 -13t1.5 -25q22 -99 72 -152t110 -41q41 9 49 -3q9 -12 -9 -24q-52 -30 -108 -44q-70 -18 -107 23q-43 46 -71.5 124.5t-28.5 143.5q0 18 25 26
q66 19 102.5 53t36.5 92q0 56 -28 75t-86 16q-19 -1 -24.5 -1.5t-15 -4.5t-14 -14t-10.5 -28q-22 -72 -51.5 -205.5t-39.5 -194.5q-5 -53 42 -66q2 -1 7.5 -2t8 -2t7 -2.5t6.5 -3.5l4.5 -4.5t3.5 -5.5t0 -7q-1 -9 -12 -14t-26 -3q-52 6 -244 -2q-8 -1 -13 2.5t-4 11.5
q0 21 44 28q45 5 69 70q11 25 50 190.5t44 197.5q-1 13 0 21t-6 16l-10.5 12t-13 8t-13.5 5.5t-12 4t-9 2.5q-14 5 -12 22zM541 761q17 2 19.5 -8t-8.5 -16q-9 -6 -38 -23.5t-52 -32.5t-34 -24q-22 -19 -36 -14q-15 8 -1 24q6 7 18.5 22t21.5 26.5t15 22.5q7 13 23 17
q8 2 37 3.5t35 2.5z" />
    <glyph glyph-name="racute" unicode="&#x155;" horiz-adv-x="396" 
d="M38 300q-11 11 14 38q24 26 70 60.5t72 34.5q32 0 32 -51q0 -13 -5 -32.5t-13.5 -45t-9.5 -30.5t1.5 -8.5t7 -2.5t8.5 7q87 166 144 166q47 0 47 -52q-1 -31 -13 -62.5t-27 -49.5q-19 -26 -32 -21q-10 3 -2 23q9 20 3.5 36.5t-22.5 16.5q-22 0 -55.5 -49.5t-54.5 -99.5
q-6 -13 -21 -59t-20 -66q-2 -9 -5 -16t-9 -13t-9 -9.5t-12 -8.5t-11 -6t-13.5 -6.5t-12.5 -5.5q-12 -5 -20.5 -4t-12.5 5.5t-2 10.5q50 170 65 280q5 46 -5.5 52t-50.5 -31q-14 -13 -26 -1zM409 654q17 4 20.5 -5.5t-6.5 -16.5q-2 -2 -35 -29.5t-54.5 -46.5t-30.5 -30
q-17 -21 -32 -17q-16 5 -4 23q44 77 49 89q5 13 21 20q7 3 36.5 7.5t35.5 5.5z" />
    <glyph glyph-name="Rcommaaccent" unicode="&#x156;" horiz-adv-x="653" 
d="M123 588q6 18 43 15q44 -4 86.5 -4t99.5 2t87 2q66 1 109.5 -32.5t39.5 -96.5q-4 -62 -49 -104t-114 -64q-14 -4 -16.5 -13t1.5 -25q22 -99 72 -152t110 -41q41 9 49 -3q9 -12 -9 -24q-52 -30 -108 -44q-70 -18 -107 23q-43 46 -71.5 124.5t-28.5 143.5q0 18 25 26
q66 19 102.5 53t36.5 92q0 56 -28 75t-86 16q-19 -1 -24.5 -1.5t-15 -4.5t-14 -14t-10.5 -28q-22 -72 -51.5 -205.5t-39.5 -194.5q-5 -53 42 -66q2 -1 7.5 -2t8 -2t7 -2.5t6.5 -3.5l4.5 -4.5t3.5 -5.5t0 -7q-1 -9 -12 -14t-26 -3q-52 6 -244 -2q-8 -1 -13 2.5t-4 11.5
q0 21 44 28q45 5 69 70q11 25 50 190.5t44 197.5q-1 13 0 21t-6 16l-10.5 12t-13 8t-13.5 5.5t-12 4t-9 2.5q-14 5 -12 22zM221 -132q-3 2 -3 8t3 12q53 66 89 66q23 0 38 -14t15 -36q0 -80 -104 -167q-5 -5 -15.5 -9t-15.5 0q-17 13 -3 27q51 55 50 97q-1 30 -30 16
q-15 -7 -24 0z" />
    <glyph glyph-name="rcommaaccent" unicode="&#x157;" horiz-adv-x="396" 
d="M38 300q-11 11 14 38q24 26 70 60.5t72 34.5q32 0 32 -51q0 -13 -5 -32.5t-13.5 -45t-9.5 -30.5t1.5 -8.5t7 -2.5t8.5 7q87 166 144 166q47 0 47 -52q-1 -31 -13 -62.5t-27 -49.5q-19 -26 -32 -21q-10 3 -2 23q9 20 3.5 36.5t-22.5 16.5q-22 0 -55.5 -49.5t-54.5 -99.5
q-6 -13 -21 -59t-20 -66q-2 -9 -5 -16t-9 -13t-9 -9.5t-12 -8.5t-11 -6t-13.5 -6.5t-12.5 -5.5q-12 -5 -20.5 -4t-12.5 5.5t-2 10.5q50 170 65 280q5 46 -5.5 52t-50.5 -31q-14 -13 -26 -1zM8 -132q-3 2 -3.5 8t3.5 12q50 66 88 66q23 0 38 -14t15 -36q0 -80 -104 -167
q-5 -5 -15.5 -9t-15.5 0q-17 13 -3 27q51 54 50 97q0 31 -30 16q-14 -7 -23 0z" />
    <glyph glyph-name="Rcaron" unicode="&#x158;" horiz-adv-x="653" 
d="M123 588q6 18 43 15q44 -4 86.5 -4t99.5 2t87 2q66 1 109.5 -32.5t39.5 -96.5q-4 -62 -49 -104t-114 -64q-14 -4 -16.5 -13t1.5 -25q22 -99 72 -152t110 -41q41 9 49 -3q9 -12 -9 -24q-52 -30 -108 -44q-70 -18 -107 23q-43 46 -71.5 124.5t-28.5 143.5q0 18 25 26
q66 19 102.5 53t36.5 92q0 56 -28 75t-86 16q-19 -1 -24.5 -1.5t-15 -4.5t-14 -14t-10.5 -28q-22 -72 -51.5 -205.5t-39.5 -194.5q-5 -53 42 -66q2 -1 7.5 -2t8 -2t7 -2.5t6.5 -3.5l4.5 -4.5t3.5 -5.5t0 -7q-1 -9 -12 -14t-26 -3q-52 6 -244 -2q-8 -1 -13 2.5t-4 11.5
q0 21 44 28q45 5 69 70q11 25 50 190.5t44 197.5q-1 13 0 21t-6 16l-10.5 12t-13 8t-13.5 5.5t-12 4t-9 2.5q-14 5 -12 22zM412 641q-12 -2 -16 1t-7 15q-5 17 -20 44t-17 33q-9 18 5 24q16 2 29 -11q8 -8 26 -20q14 -9 35 -2q15 5 35 19q29 17 42 12q18 -6 -15 -33
q-57 -50 -63 -58q-19 -23 -34 -24z" />
    <glyph glyph-name="rcaron" unicode="&#x159;" horiz-adv-x="396" 
d="M38 300q-11 11 14 38q24 26 70 60.5t72 34.5q32 0 32 -51q0 -13 -5 -32.5t-13.5 -45t-9.5 -30.5t1.5 -8.5t7 -2.5t8.5 7q87 166 144 166q47 0 47 -52q-1 -31 -13 -62.5t-27 -49.5q-19 -26 -32 -21q-10 3 -2 23q9 20 3.5 36.5t-22.5 16.5q-22 0 -55.5 -49.5t-54.5 -99.5
q-6 -13 -21 -59t-20 -66q-2 -9 -5 -16t-9 -13t-9 -9.5t-12 -8.5t-11 -6t-13.5 -6.5t-12.5 -5.5q-12 -5 -20.5 -4t-12.5 5.5t-2 10.5q50 170 65 280q5 46 -5.5 52t-50.5 -31q-14 -13 -26 -1zM274 512q-20 -6 -23 18q-5 46 -16 94q-5 23 7 28q16 4 25 -14l18 -28q10 -16 31 -2
q10 6 29 22q26 26 37 20q18 -11 -12 -42q-49 -54 -58 -68q-16 -24 -38 -28z" />
    <glyph glyph-name="Sacute" unicode="&#x15a;" horiz-adv-x="463" 
d="M184 -8q-56 0 -100.5 25.5t-43.5 76.5q1 34 29 66t61 45q20 9 30 3q4 -2 3 -10.5t-6 -15.5q-24 -30 -25 -68q-1 -37 24 -53t52 -16q58 0 91 24t35 62q5 83 -114 175q-93 74 -92 160q1 49 58 96.5t135 47.5q128 1 128 -74q0 -39 -46 -76q-22 -20 -33 -11q-9 4 -1 27
q9 31 -6.5 59.5t-51.5 28.5q-35 0 -64 -20t-30 -56q-1 -30 24.5 -60t75.5 -71q56 -44 80.5 -89t20.5 -101q-3 -66 -66 -120.5t-168 -54.5zM440 761q17 2 19.5 -8t-8.5 -16q-9 -6 -38 -23.5t-52 -32.5t-34 -24q-23 -19 -36 -14q-15 8 -1 24q6 7 18.5 22t21.5 26.5t15 22.5
q7 13 23 17q8 2 37 3.5t35 2.5z" />
    <glyph glyph-name="sacute" unicode="&#x15b;" horiz-adv-x="301" 
d="M76 -10q-50 0 -50 50q0 45 38 80q21 20 29 12q9 -8 4 -18q-10 -16 -2 -34.5t25 -18.5q34 0 51.5 34t18.5 78q0 75 -27 132q-3 7 -10.5 8t-11.5 -5q-21 -28 -36 -45q-16 -20 -33 -3q-6 4 -4.5 17t14.5 25q57 53 139 162q9 12 25 3q11 -11 0 -30q-21 -32 -7 -68
q24 -61 24 -132q0 -51 -21.5 -107t-66 -98t-99.5 -42zM394 655q17 4 20.5 -5.5t-6.5 -16.5q-109 -93 -120 -106q-18 -20 -32 -17q-16 5 -4 23q43 74 49 89q5 13 21 19q8 3 37.5 8t34.5 6z" />
    <glyph glyph-name="Scircumflex" unicode="&#x15c;" horiz-adv-x="463" 
d="M184 -8q-56 0 -100.5 25.5t-43.5 76.5q1 34 29 66t61 45q20 9 30 3q4 -2 3 -10.5t-6 -15.5q-24 -30 -25 -68q-1 -37 24 -53t52 -16q58 0 91 24t35 62q5 83 -114 175q-95 75 -92 160q1 46 58.5 95t134.5 49q128 1 128 -74q0 -39 -46 -76q-22 -20 -33 -11q-9 4 -1 27
q9 31 -6.5 59.5t-51.5 28.5q-35 0 -64 -20t-30 -56q-1 -30 24.5 -60t75.5 -71q56 -44 80.5 -89t20.5 -101q-3 -66 -66 -120.5t-168 -54.5zM358 759q12 2 15.5 -1t6.5 -15q6 -18 21 -45.5t17 -31.5q8 -18 -6 -24q-15 -3 -29 11q-10 10 -25 20q-15 9 -36 2q-12 -4 -35 -18
q-30 -17 -41 -11q-19 7 14 32q60 53 63 57q19 23 35 24z" />
    <glyph glyph-name="scircumflex" unicode="&#x15d;" horiz-adv-x="301" 
d="M76 -10q-50 0 -50 50q0 45 38 80q21 20 29 12q9 -8 4 -18q-10 -16 -2 -34.5t25 -18.5q34 0 51.5 34t18.5 78q0 75 -27 132q-3 7 -10.5 8t-11.5 -5q-21 -28 -36 -45q-16 -20 -33 -3q-6 4 -4.5 17t14.5 25q58 54 145 173q10 11 26 3q11 -11 0 -30q-29 -40 -14 -79
q24 -61 24 -132q0 -51 -21.5 -107t-66 -98t-99.5 -42zM296 652q22 4 24 -19q3 -40 16 -93q6 -24 -8 -28q-7 -3 -14 1.5t-10 11.5q-2 4 -18 28q-10 16 -32 3q-19 -13 -28 -23q-28 -26 -37 -20q-18 10 11 43q8 7 30 32t28 35q16 22 38 29z" />
    <glyph glyph-name="Scedilla" unicode="&#x15e;" horiz-adv-x="463" 
d="M96 -186q39 26 13 66q-26 48 44 101q14 10 -6 14q-3 1 -7 2q-45 9 -73 32.5t-27 64.5q1 34 29 66t61 45q20 9 30 3q4 -2 3 -10.5t-6 -15.5q-24 -30 -25 -68q-1 -37 24 -53t52 -16q58 0 91 24t35 62q5 83 -114 175q-95 75 -92 160q1 46 58.5 95t134.5 49q128 1 128 -74
q0 -39 -46 -76q-22 -20 -33 -11q-9 4 -1 27q9 31 -6.5 59.5t-51.5 28.5q-35 0 -64 -20t-30 -56q-1 -30 24.5 -60t75.5 -71q56 -44 80.5 -89t20.5 -101q-3 -56 -47.5 -104.5t-121.5 -64.5q-29 -6 -60 -34q-27 -26 -4 -58q35 -52 -46 -106q-40 -28 -50 -32.5t-19 6.5
q-9 16 26 40z" />
    <glyph glyph-name="scedilla" unicode="&#x15f;" horiz-adv-x="301" 
d="M-4 -186q38 28 12 67q-9 13 -10 26t5.5 25t17 22.5t26.5 23.5q13 10 -3 19q-20 13 -20 43q0 45 37 80q21 20 29 12q11 -8 4 -18q-9 -16 -1.5 -34.5t25.5 -18.5q34 0 51.5 34t18.5 78q0 72 -27 132q-3 7 -10.5 8t-11.5 -5l-36 -45q-17 -20 -34 -3q-6 4 -4 17t15 25
q52 49 145 173q9 12 25 3q12 -12 0 -30q-28 -42 -13 -79q23 -63 23 -132q0 -65 -34 -135t-91 -98q-32 -15 -53 -36q-25 -26 0 -59q36 -48 -42 -108q-38 -29 -49 -33.5t-19 6.5q-11 15 24 40z" />
    <glyph glyph-name="Scaron" unicode="&#x160;" horiz-adv-x="463" 
d="M184 -8q-56 0 -100.5 25.5t-43.5 76.5q1 34 29 66t61 45q20 9 30 3q4 -2 3 -10.5t-6 -15.5q-24 -30 -25 -68q-1 -37 24 -53t52 -16q58 0 91 24t35 62q5 83 -114 175q-95 75 -92 160q1 46 58.5 95t134.5 49q128 1 128 -74q0 -39 -46 -76q-22 -20 -33 -11q-9 4 -1 27
q9 31 -6.5 59.5t-51.5 28.5q-35 0 -64 -20t-30 -56q-1 -30 24.5 -60t75.5 -71q56 -44 80.5 -89t20.5 -101q-3 -66 -66 -120.5t-168 -54.5zM338 641q-12 -2 -15.5 1t-6.5 15q-6 17 -20 43.5t-17 33.5q-9 18 5 24q15 3 29 -11q7 -7 25 -20q15 -9 36 -2q20 6 35 17q28 18 41 12
q18 -7 -14 -33q-46 -36 -63 -56q-19 -23 -35 -24z" />
    <glyph glyph-name="scaron" unicode="&#x161;" horiz-adv-x="301" 
d="M76 -10q-50 0 -50 50q0 45 38 80q21 20 29 12q9 -8 4 -18q-10 -16 -2 -34.5t25 -18.5q34 0 51.5 34t18.5 78q0 75 -27 132q-3 7 -10.5 8t-11.5 -5q-21 -28 -36 -45q-16 -20 -33 -3q-6 4 -4.5 17t14.5 25q58 54 145 173q10 11 26 3q11 -11 0 -30q-29 -40 -14 -79
q24 -61 24 -132q0 -51 -21.5 -107t-66 -98t-99.5 -42zM261 512q-21 -6 -24 18q-3 38 -16 94q-5 23 8 28q7 2 14.5 -2.5t9.5 -11.5q3 -6 8.5 -14t9.5 -14q10 -17 32 -2q10 6 29 22q26 26 37 20q17 -10 -12 -42q-52 -57 -58 -68q-18 -23 -38 -28z" />
    <glyph glyph-name="Tcommaaccent" unicode="&#x162;" horiz-adv-x="583" 
d="M165 -180q39 25 15 66q-29 50 41 100q8 5 6.5 11t-11.5 6q-26 -1 -80 -6q-8 0 -13 3t-4 11q0 19 42 28q38 8 61 70q16 36 51 182t53 239q4 11 0.5 17t-7 7t-11.5 2h-35q-107 -7 -155 -109q-15 -28 -32 -27q-8 1 -12 8.5t1 22.5q2 4 14 36t25 63.5t22 47.5q8 15 17.5 17.5
t22.5 -1.5q53 -18 234 -14q62 2 189 11q29 2 44.5 -10t13.5 -35q-13 -98 -65 -142q-5 -4 -16 -5t-15 1q-6 2 -6 11t3 13q14 20 14 41q4 39 -17.5 56.5t-83.5 17.5q-23 0 -33 -8.5t-14 -24.5q-87 -330 -95 -417q-5 -57 54 -66q17 -3 25.5 -8.5t7.5 -18.5q-2 -9 -12.5 -14
t-26.5 -3q-27 4 -45 3q-48 -2 -71 -32q-23 -31 -5 -60q35 -53 -48 -105q-40 -27 -50.5 -31.5t-18.5 7.5q-10 15 26 39z" />
    <glyph glyph-name="tcommaaccent" unicode="&#x163;" horiz-adv-x="337" 
d="M9 -180q41 26 15 66q-26 48 33 94q17 11 4 27q-17 21 -5 86q18 110 69 258q5 19 4 22.5t-9 6.5h-7h-11.5h-13.5q-8 0 -11 7t1 20q2 5 3.5 7t5.5 5.5t11.5 5t20.5 2.5q27 2 42 17q31 31 76 111q4 8 13 11.5t14 1.5q5 -1 7 -7.5t0 -9.5q-3 -7 -10.5 -30t-14.5 -47t-8 -26
q-3 -7 -1 -13t15 -7h59q34 4 38 2q12 -5 7 -16q-14 -23 -27 -33q-14 -12 -37 -9q-44 7 -55 7q-15 0 -22 -19q-23 -57 -49 -188q-6 -27 -5 -44t4.5 -26.5t10 -12.5t12 -3t10.5 2q25 11 63 44q16 16 28 4q9 -10 -4 -29q-33 -38 -106 -86q-60 -42 -73 -53q-29 -21 -6 -58
q35 -53 -48 -105q-40 -28 -50 -31.5t-19 7.5q-10 15 26 39z" />
    <glyph glyph-name="Tcaron" unicode="&#x164;" horiz-adv-x="583" 
d="M176 614q53 -18 234 -14q62 2 189 11q29 2 44.5 -10t13.5 -35q-13 -98 -65 -142q-5 -4 -16 -5t-15 1q-6 2 -6 11t3 13q14 20 14 41q4 39 -17.5 56.5t-83.5 17.5q-23 0 -33 -8.5t-14 -24.5q-87 -330 -95 -417q-5 -57 54 -66q17 -3 25.5 -8.5t7.5 -18.5q-2 -9 -12.5 -14
t-26.5 -3q-101 12 -241 -2q-8 0 -13 3t-4 11q0 19 42 28q38 8 61 70q16 36 51 182t53 239q4 11 0.5 17t-7 7t-11.5 2h-35q-107 -7 -155 -109q-15 -28 -32 -27q-8 1 -12 8.5t1 22.5q2 4 14 36t25 63.5t22 47.5q8 15 17.5 17.5t22.5 -1.5zM397 641q-12 -2 -15.5 1t-6.5 15
q-6 17 -20 43.5t-17 33.5q-9 18 5 24q15 3 29 -11q7 -7 25 -20q15 -9 36 -2q15 5 35 17q28 18 41 12q18 -7 -14 -33q-46 -36 -63 -56q-19 -23 -35 -24z" />
    <glyph glyph-name="tcaron" unicode="&#x165;" horiz-adv-x="337" 
d="M97 -8q-60 0 -41 101q18 110 69 258q5 19 4 22.5t-9 6.5h-7h-11.5h-13.5q-8 0 -11 7t1 20q2 5 3.5 7t5.5 5.5t11.5 5t20.5 2.5q27 2 42 17q31 31 76 111q4 8 13 11.5t14 1.5q5 -1 7 -7.5t0 -9.5q-3 -7 -10.5 -30t-14.5 -47t-8 -26q-3 -7 -1 -13t15 -7h59q34 4 38 2
q12 -5 7 -16q-14 -23 -27 -33q-14 -12 -37 -9q-44 7 -55 7q-15 0 -22 -19q-23 -57 -49 -188q-6 -27 -5 -44t4.5 -26.5t10 -12.5t12 -3t10.5 2q25 11 63 44q16 16 28 4q9 -10 -4 -29q-32 -36 -107 -85q-43 -30 -81 -30zM322 609q-8 10 0 22q54 72 97 72q25 0 39 -14.5
t14 -38.5q0 -46 -35 -92.5t-83 -75.5q-27 -18 -37 -5q-13 14 6 29q62 46 62 85q0 32 -37 18q-18 -6 -26 0z" />
    <glyph glyph-name="Tbar" unicode="&#x166;" horiz-adv-x="583" 
d="M241 275h-70q-12 0 -17 6.5t-1 15.5q6 22 32 22q12 0 36.5 0.5t37.5 0.5q12 0 17 4.5t10 22.5q13 56 40 183q4 11 0.5 17t-7 7t-11.5 2h-35q-107 -7 -155 -109q-15 -28 -32 -27q-8 1 -12 8.5t1 22.5q2 4 14 36t25 63.5t22 47.5q8 15 17.5 17.5t22.5 -1.5q53 -18 234 -14
q62 2 189 11q29 2 44.5 -10t13.5 -35q-13 -98 -65 -142q-5 -4 -16 -5t-15 1q-6 2 -6 11t3 13q14 20 14 41q4 39 -17.5 56.5t-83.5 17.5q-23 0 -33 -8.5t-14 -24.5q-28 -106 -47 -182q-2 -14 1.5 -17.5t17.5 -3.5l71 4q4 0 10.5 1.5t10 1.5t7.5 -0.5t5.5 -3.5t1.5 -8
q0 -6 -7 -17t-16 -17q-9 -8 -29 -8h-59q-17 0 -25 -4t-11 -19q-21 -91 -26 -144q-5 -57 54 -66q17 -3 25.5 -8.5t7.5 -18.5q-2 -9 -12.5 -14t-26.5 -3q-101 12 -241 -2q-8 0 -13 3t-4 11q0 19 42 28q38 8 61 70q13 31 41 147q0 4 1 8t-5 7.5t-18 3.5z" />
    <glyph glyph-name="tbar" unicode="&#x167;" horiz-adv-x="337" 
d="M95 -8q-61 0 -40 101q11 65 32 138q1 7 1.5 9t-1.5 5t-7 3q-7 1 -32 1q-7 0 -10.5 6.5t1.5 19.5q6 20 40 20q25 0 30 16q12 34 14 40q5 19 3.5 23t-8.5 6h-32q-7 0 -10.5 7t1.5 20q2 6 4 9t10.5 6.5t25.5 4.5q27 2 42 17q31 31 76 111q4 8 13 11.5t15 1.5q4 -1 6 -7.5
t0 -9.5q-4 -10 -17 -52.5t-15 -50.5q-6 -19 13 -20h59q34 4 39 2q12 -5 6 -16q-15 -24 -27 -33q-14 -12 -37 -9q-44 7 -55 7q-15 0 -21 -19q-10 -21 -15 -45q-2 -6 1 -12t12 -6q40 -2 59 0q33 3 39 2q12 -7 6 -16q-12 -22 -26 -33q-15 -13 -37 -9q-40 6 -56 6q-18 0 -21 -17
l-13 -58q-6 -27 -4.5 -44t4.5 -26.5t10 -12.5t12.5 -3t10.5 2q25 11 63 44q16 16 28 4q11 -12 -4 -29q-31 -35 -106 -85q-45 -30 -82 -30z" />
    <glyph glyph-name="Utilde" unicode="&#x168;" horiz-adv-x="769" 
d="M162 603q23 -3 95 -3t113 3q16 1 22 -3.5t4 -15.5q-4 -13 -27 -18q-33 -6 -49.5 -22.5t-27.5 -51.5q-14 -40 -39 -136t-32 -149q-20 -151 101 -151q85 0 144.5 64t85.5 152q47 159 58 225q3 19 -2 33t-20 22.5t-19 10t-19 6.5q-14 4 -12 19q6 18 43 15q23 -3 95.5 -3
t112.5 3q16 1 21.5 -3.5t3.5 -15.5q-4 -13 -27 -18q-33 -6 -49.5 -22.5t-28.5 -51.5q-2 -6 -17.5 -59t-33 -127t-21.5 -112q-1 -13 -1.5 -22t-1 -21.5t0 -21t1.5 -19t3 -17t5 -14t8 -11.5t11 -6.5t14.5 -1.5t18.5 4q28 9 34 -10q2 -15 -19 -25q-68 -34 -101 -34
q-52 0 -64 24t-8 79q1 16 -6 19t-17 -11q-81 -112 -231 -112q-91 0 -135.5 55.5t-24.5 155.5q6 36 23.5 106.5t31 124.5t13.5 61q8 52 -58 71q-1 0 -1.5 0.5t-1.5 0.5q-13 4 -11 19q3 19 42 15zM427 679q-1 -1 -14.5 -12t-22.5 -15t-15 0q-13 11 -7.5 21.5t33.5 35.5
q19 16 33.5 26.5t30.5 17t30.5 4t27.5 -14.5q35 -30 68 2q29 29 44 18q9 -11 3 -20t-40 -43q-70 -69 -113 -26q-29 29 -58 6z" />
    <glyph glyph-name="utilde" unicode="&#x169;" horiz-adv-x="551" 
d="M41 304q-7 12 7 27q33 35 79 70.5t73 35.5q50 0 42 -64q-4 -30 -13 -64.5t-24.5 -82t-23.5 -77.5q-7 -23 5 -34t36 10q65 63 101.5 120.5t72.5 143.5q16 37 69 50q19 3 27.5 -5.5t-0.5 -31.5q-45 -111 -78 -238q-7 -22 -6.5 -49.5t13.5 -27.5t79 57q9 8 19 3
q7 -4 7 -16.5t-8 -20.5q-126 -122 -179 -122q-20 0 -32.5 18.5t-10.5 43.5q4 54 24 102q7 19 -1 21q-5 2 -13 -9q-60 -80 -128 -140q-50 -42 -83.5 -29.5t-26.5 63.5q4 32 33 124t35 129q6 32 -12 32q-14 -1 -54 -36q-21 -16 -29 -3zM300 557q-2 -2 -15.5 -13t-22.5 -16
t-14 -1q-6 5 -7 10.5t4 13t11.5 14t18.5 17.5q19 17 33.5 27t30 16t30 3.5t27.5 -14.5q34 -29 68 5l4 4q22 22 31 18q24 -13 -30 -67q-68 -68 -111 -24q-32 30 -58 7z" />
    <glyph glyph-name="Umacron" unicode="&#x16a;" horiz-adv-x="769" 
d="M162 603q23 -3 95 -3t113 3q16 1 22 -3.5t4 -15.5q-4 -13 -27 -18q-33 -6 -49.5 -22.5t-27.5 -51.5q-14 -40 -39 -136t-32 -149q-20 -151 101 -151q85 0 144.5 64t85.5 152q47 159 58 225q3 19 -2 33t-20 22.5t-19 10t-19 6.5q-14 4 -12 19q6 18 43 15q23 -3 95.5 -3
t112.5 3q16 1 21.5 -3.5t3.5 -15.5q-4 -13 -27 -18q-33 -6 -49.5 -22.5t-28.5 -51.5q-2 -6 -17.5 -59t-33 -127t-21.5 -112q-1 -13 -1.5 -22t-1 -21.5t0 -21t1.5 -19t3 -17t5 -14t8 -11.5t11 -6.5t14.5 -1.5t18.5 4q28 9 34 -10q2 -15 -19 -25q-68 -34 -101 -34
q-52 0 -64 24t-8 79q1 16 -6 19t-17 -11q-81 -112 -231 -112q-91 0 -135.5 55.5t-24.5 155.5q6 36 23.5 106.5t31 124.5t13.5 61q8 52 -58 71q-1 0 -1.5 0.5t-1.5 0.5q-13 4 -11 19q3 19 42 15zM366 661q-26 0 -18 22q7 22 32 22q151 2 218 8q4 0 11 1.5t10 1.5t7 -0.5
t5.5 -3.5t1.5 -8q0 -6 -7 -17.5t-16 -17.5q-8 -7 -28 -7q-19 0 -109 -0.5t-107 -0.5z" />
    <glyph glyph-name="umacron" unicode="&#x16b;" horiz-adv-x="551" 
d="M41 304q-7 12 7 27q33 35 79 70.5t73 35.5q50 0 42 -64q-4 -30 -13 -64.5t-24.5 -82t-23.5 -77.5q-7 -23 5 -34t36 10q65 63 101.5 120.5t72.5 143.5q16 37 69 50q19 3 27.5 -5.5t-0.5 -31.5q-45 -111 -78 -238q-7 -22 -6.5 -49.5t13.5 -27.5t79 57q9 8 19 3
q7 -4 7 -16.5t-8 -20.5q-126 -122 -179 -122q-20 0 -32.5 18.5t-10.5 43.5q4 54 24 102q7 19 -1 21q-5 2 -13 -9q-60 -80 -128 -140q-50 -42 -83.5 -29.5t-26.5 63.5q4 32 33 124t35 129q6 32 -12 32q-14 -1 -54 -36q-21 -16 -29 -3zM254 509q-12 0 -17 6.5t0 15.5
q6 22 32 22q132 3 180 6q13 3 25 2t12 -13q0 -16 -23 -30q-8 -7 -29 -7q-74 -2 -180 -2z" />
    <glyph glyph-name="Ubreve" unicode="&#x16c;" horiz-adv-x="769" 
d="M162 603q23 -3 95 -3t113 3q16 1 22 -3.5t4 -15.5q-4 -13 -27 -18q-33 -6 -49.5 -22.5t-27.5 -51.5q-14 -40 -39 -136t-32 -149q-20 -151 101 -151q85 0 144.5 64t85.5 152q47 159 58 225q3 19 -2 33t-20 22.5t-19 10t-19 6.5q-14 4 -12 19q6 18 43 15q23 -3 95.5 -3
t112.5 3q16 1 21.5 -3.5t3.5 -15.5q-4 -13 -27 -18q-33 -6 -49.5 -22.5t-28.5 -51.5q-2 -6 -17.5 -59t-33 -127t-21.5 -112q-1 -13 -1.5 -22t-1 -21.5t0 -21t1.5 -19t3 -17t5 -14t8 -11.5t11 -6.5t14.5 -1.5t18.5 4q28 9 34 -10q2 -15 -19 -25q-68 -34 -101 -34
q-52 0 -64 24t-8 79q1 16 -6 19t-17 -11q-81 -112 -231 -112q-91 0 -135.5 55.5t-24.5 155.5q6 36 23.5 106.5t31 124.5t13.5 61q8 52 -58 71q-1 0 -1.5 0.5t-1.5 0.5q-13 4 -11 19q3 19 42 15zM599 765q6 -1 7 -9.5t-4 -19.5q-21 -45 -55 -69.5t-70 -24.5q-46 0 -65.5 29.5
t-15.5 61.5t21 34q9 1 13 -5.5t4 -14.5q5 -29 58 -29q19 0 42.5 9t35.5 25t29 13z" />
    <glyph glyph-name="ubreve" unicode="&#x16d;" horiz-adv-x="551" 
d="M41 304q-7 12 7 27q33 35 79 70.5t73 35.5q50 0 42 -64q-4 -30 -13 -64.5t-24.5 -82t-23.5 -77.5q-7 -23 5 -34t36 10q65 63 101.5 120.5t72.5 143.5q16 37 69 50q19 3 27.5 -5.5t-0.5 -31.5q-45 -111 -78 -238q-7 -22 -6.5 -49.5t13.5 -27.5t79 57q9 8 19 3
q7 -4 7 -16.5t-8 -20.5q-126 -122 -179 -122q-20 0 -32.5 18.5t-10.5 43.5q4 54 24 102q7 19 -1 21q-5 2 -13 -9q-60 -80 -128 -140q-50 -42 -83.5 -29.5t-26.5 63.5q4 32 33 124t35 129q6 32 -12 32q-14 -1 -54 -36q-21 -16 -29 -3zM461 618q6 -1 7 -10t-4 -20
q-44 -93 -121 -93q-46 0 -63 29t-12 62q2 32 19 34q9 1 13.5 -6t4.5 -15q1 -31 53 -31q18 0 40 10t35 26q11 17 28 14z" />
    <glyph glyph-name="Uring" unicode="&#x16e;" horiz-adv-x="769" 
d="M162 603q23 -3 95 -3t113 3q16 1 22 -3.5t4 -15.5q-4 -13 -27 -18q-33 -6 -49.5 -22.5t-27.5 -51.5q-14 -40 -39 -136t-32 -149q-20 -151 101 -151q85 0 144.5 64t85.5 152q47 159 58 225q3 19 -2 33t-20 22.5t-19 10t-19 6.5q-14 4 -12 19q6 18 43 15q23 -3 95.5 -3
t112.5 3q16 1 21.5 -3.5t3.5 -15.5q-4 -13 -27 -18q-33 -6 -49.5 -22.5t-28.5 -51.5q-2 -6 -17.5 -59t-33 -127t-21.5 -112q-1 -13 -1.5 -22t-1 -21.5t0 -21t1.5 -19t3 -17t5 -14t8 -11.5t11 -6.5t14.5 -1.5t18.5 4q28 9 34 -10q2 -15 -19 -25q-68 -34 -101 -34
q-52 0 -64 24t-8 79q1 16 -6 19t-17 -11q-81 -112 -231 -112q-91 0 -135.5 55.5t-24.5 155.5q6 36 23.5 106.5t31 124.5t13.5 61q8 52 -58 71q-1 0 -1.5 0.5t-1.5 0.5q-13 4 -11 19q3 19 42 15zM511 783q41 0 63 -16t22 -41q0 -37 -37.5 -63.5t-79.5 -26.5q-41 0 -62 16.5
t-21 42.5q0 37 35.5 62.5t79.5 25.5zM503 752q-20 0 -35.5 -13t-15.5 -35q0 -34 33 -34q19 0 35 11.5t16 39.5q0 31 -33 31z" />
    <glyph glyph-name="uring" unicode="&#x16f;" horiz-adv-x="551" 
d="M41 304q-7 12 7 27q33 35 79 70.5t73 35.5q50 0 42 -64q-4 -30 -13 -64.5t-24.5 -82t-23.5 -77.5q-7 -23 5 -34t36 10q65 63 101.5 120.5t72.5 143.5q16 37 69 50q19 3 27.5 -5.5t-0.5 -31.5q-45 -111 -78 -238q-7 -22 -6.5 -49.5t13.5 -27.5t79 57q9 8 19 3
q7 -4 7 -16.5t-8 -20.5q-126 -122 -179 -122q-20 0 -32.5 18.5t-10.5 43.5q4 54 24 102q7 19 -1 21q-5 2 -13 -9q-60 -80 -128 -140q-50 -42 -83.5 -29.5t-26.5 63.5q4 32 33 124t35 129q6 32 -12 32q-14 -1 -54 -36q-21 -16 -29 -3zM380 651q41 0 63 -15.5t22 -41.5
q0 -36 -37.5 -64t-79.5 -27q-42 0 -62.5 16t-20.5 42q0 38 36 64t79 26zM373 620q-20 0 -35.5 -14.5t-15.5 -36.5q0 -34 32 -34q19 0 35.5 12.5t16.5 40.5q0 32 -33 32z" />
    <glyph glyph-name="Uhungarumlaut" unicode="&#x170;" horiz-adv-x="769" 
d="M162 603q23 -3 95 -3t113 3q16 1 22 -3.5t4 -15.5q-4 -13 -27 -18q-33 -6 -49.5 -22.5t-27.5 -51.5q-14 -40 -39 -136t-32 -149q-20 -151 101 -151q85 0 144.5 64t85.5 152q47 159 58 225q3 19 -2 33t-20 22.5t-19 10t-19 6.5q-14 4 -12 19q6 18 43 15q23 -3 95.5 -3
t112.5 3q16 1 21.5 -3.5t3.5 -15.5q-4 -13 -27 -18q-33 -6 -49.5 -22.5t-28.5 -51.5q-2 -6 -17.5 -59t-33 -127t-21.5 -112q-1 -13 -1.5 -22t-1 -21.5t0 -21t1.5 -19t3 -17t5 -14t8 -11.5t11 -6.5t14.5 -1.5t18.5 4q28 9 34 -10q2 -15 -19 -25q-68 -34 -101 -34
q-52 0 -64 24t-8 79q1 16 -6 19t-17 -11q-81 -112 -231 -112q-91 0 -135.5 55.5t-24.5 155.5q6 36 23.5 106.5t31 124.5t13.5 61q8 52 -58 71q-1 0 -1.5 0.5t-1.5 0.5q-13 4 -11 19q3 19 42 15zM524 761q16 2 18.5 -8t-7.5 -16q-6 -4 -38 -23t-54 -33.5t-33 -23.5
q-8 -7 -19 -11.5t-16 -2.5q-17 7 -2 24q6 7 18.5 22t21.5 26.5t15 22.5q10 13 23 17q8 2 37.5 3.5t35.5 2.5zM684 761q16 2 18.5 -8t-8.5 -16q-9 -6 -38 -23.5t-52 -32.5t-34 -24q-8 -7 -19 -11.5t-16 -2.5q-17 7 -2 24q6 7 18.5 22t21.5 26.5t15 22.5q10 13 23 17
q8 2 37.5 3.5t35.5 2.5z" />
    <glyph glyph-name="uhungarumlaut" unicode="&#x171;" horiz-adv-x="551" 
d="M41 304q-7 12 7 27q33 35 79 70.5t73 35.5q50 0 42 -64q-4 -30 -13 -64.5t-24.5 -82t-23.5 -77.5q-7 -23 5 -34t36 10q65 63 101.5 120.5t72.5 143.5q16 37 69 50q19 3 27.5 -5.5t-0.5 -31.5q-45 -111 -78 -238q-7 -22 -6.5 -49.5t13.5 -27.5t79 57q9 8 19 3
q7 -4 7 -16.5t-8 -20.5q-126 -122 -179 -122q-20 0 -32.5 18.5t-10.5 43.5q4 54 24 102q7 19 -1 21q-5 2 -13 -9q-60 -80 -128 -140q-50 -42 -83.5 -29.5t-26.5 63.5q4 32 33 124t35 129q6 32 -12 32q-14 -1 -54 -36q-21 -16 -29 -3zM397 679q13 0 13.5 -9.5t-10.5 -22.5
q-53 -62 -105 -142q-14 -26 -29 -26q-7 0 -11 6t1 20q25 64 45 140q4 12 9.5 19t10 8.5t14.5 3.5q21 3 62 3zM538 679q28 0 2 -31q-57 -68 -104 -143q-14 -26 -29 -26q-8 0 -11.5 6t0.5 20q18 43 46 140q3 12 8.5 19t10.5 8.5t15 3.5q21 3 62 3z" />
    <glyph glyph-name="Uogonek" unicode="&#x172;" horiz-adv-x="769" 
d="M622 -130q9 -13 -13 -32q-38 -32 -76 -32q-73 0 -73 63q0 51 80 115q3 2 6 4.5t5 4t3.5 3t2 2.5t1 2.5t-1 3.5t-2.5 4.5t-4 5.5q-17 19 -12 84q1 16 -6 19t-17 -11q-81 -112 -231 -112q-91 0 -135.5 55.5t-24.5 155.5q6 36 23.5 106.5t31 124.5t13.5 61q8 52 -58 71
q-1 0 -1.5 0.5t-1.5 0.5q-13 4 -11 19q3 19 42 15q23 -3 95 -3t113 3q16 1 22 -3.5t4 -15.5q-4 -13 -27 -18q-33 -6 -49.5 -22.5t-27.5 -51.5q-14 -40 -39 -136t-32 -149q-20 -151 101 -151q85 0 144.5 64t85.5 152q47 159 58 225q3 19 -2 33t-20 22.5t-19 10t-19 6.5
q-14 4 -12 19q6 18 43 15q23 -3 95.5 -3t112.5 3q16 1 21.5 -3.5t3.5 -15.5q-4 -13 -27 -18q-33 -6 -49.5 -22.5t-28.5 -51.5q-2 -6 -17.5 -59t-33 -127t-21.5 -112q-1 -13 -1.5 -22t-1 -21.5t0 -21t1.5 -19t3 -17t5 -14t8 -11.5t11 -6.5t14.5 -1.5t18.5 4q28 9 34 -10
q2 -15 -19 -25q-45 -24 -75 -31q-25 -6 -45 -24q-44 -42 -44 -77q0 -28 23 -28q19 0 29 5q18 4 23 -4z" />
    <glyph glyph-name="uogonek" unicode="&#x173;" horiz-adv-x="551" 
d="M380 -130q9 -14 -14 -32q-37 -32 -76 -32q-72 0 -72 63q0 55 83 119q9 7 10 8.5t-5 11.5q-4 3 -7.5 16.5t-2.5 25.5q4 54 24 102q7 19 -1 21q-5 2 -13 -9q-60 -80 -128 -140q-50 -42 -83.5 -29.5t-26.5 63.5q4 32 33 124t35 129q6 32 -12 32q-14 -1 -54 -36
q-21 -16 -29 -3q-7 12 7 27q33 35 79 70.5t73 35.5q50 0 42 -64q-4 -30 -13 -64.5t-24.5 -82t-23.5 -77.5q-7 -23 5 -34t36 10q65 63 101.5 120.5t72.5 143.5q16 37 69 50q19 3 27.5 -5.5t-0.5 -31.5q-45 -111 -78 -238q-7 -22 -6.5 -49.5t13.5 -27.5t79 57q9 8 19 3
q7 -4 7 -16.5t-8 -20.5q-86 -82 -136 -107q-17 -11 -30 -24q-47 -45 -47 -82q0 -13 6.5 -20.5t15.5 -7.5q18 0 30 5q18 4 23 -4z" />
    <glyph glyph-name="Wcircumflex" unicode="&#x174;" horiz-adv-x="918" 
d="M400 587q0 4 2.5 8t11 7.5t20.5 1.5q25 -4 88.5 -4.5t95.5 4.5q37 6 40 -13q3 -16 -26 -26q-33 -11 -42 -29.5t-2 -59.5q22 -145 45 -337q2 -9 5.5 -12t9.5 1.5t14 16.5q37 66 109 156q7 9 23 30t21.5 28t16 23t14.5 25t9.5 23.5t8 28.5t3.5 31q2 23 -15.5 36.5
t-45.5 6.5t-32 6q-3 8 13 22t31 22q51 31 90 31q31 -1 48 -20t14 -54q-3 -52 -48 -121t-99 -127q-26 -29 -61.5 -77t-51.5 -75q-29 -45 -37 -74q-6 -29 -34 -48q-8 -6 -27.5 -13t-29.5 -9q-29 -6 -37 8t-10 59q-2 31 -16 178q0 7 -2.5 10.5t-7 1t-9.5 -10.5
q-18 -26 -40.5 -62.5t-24.5 -39.5q-27 -46 -35 -74q-7 -30 -35 -48q-24 -17 -57 -22q-28 -6 -36.5 8.5t-10.5 58.5q-15 264 -49 422q-7 37 -22 55t-44 26q-20 7 -19 21q0 4 3 8t11.5 7.5t20.5 1.5q24 -4 77.5 -4.5t84.5 4.5q37 6 40 -13q2 -11 -25 -30q-34 -22 -25 -85
q22 -135 45 -337q5 -29 29 6q14 22 104 167q11 18 12.5 26.5t-1.5 28.5q-9 77 -17 118q-7 38 -21.5 55.5t-46.5 25.5q-19 7 -18 21zM558 759q12 2 16 -1t7 -15q5 -18 20.5 -46.5t16.5 -30.5q9 -18 -5 -24q-16 -3 -30 11q-7 8 -25 20q-15 9 -35 2q-13 -4 -36 -18
q-29 -18 -41 -11q-19 7 14 32q44 35 64 57q18 23 34 24z" />
    <glyph glyph-name="wcircumflex" unicode="&#x175;" horiz-adv-x="702" 
d="M195 437q49 0 44 -64q-2 -30 -11.5 -64.5t-25.5 -83.5t-24 -78q-7 -23 4 -34.5t35 9.5q63 61 94 116.5t65 148.5q8 21 30 34t40 16q19 3 26 -4.5t0 -31.5q-33 -92 -53 -208q-8 -35 -2 -77t32 -42q28 0 72 56q65 82 83 156q8 33 -2.5 50.5t-35.5 10.5q-22 -7 -26 -4
q-9 7 -1 20q15 24 48.5 51.5t57.5 27.5q69 0 38 -110q-40 -130 -161 -268q-20 -23 -56.5 -48t-72.5 -25q-46 0 -64 44t-10 106q4 20 -3 28q-7 7 -15 -5q-72 -97 -128 -143q-52 -40 -84.5 -28t-25.5 62q4 32 33 125.5t35 130.5q6 32 -12 32q-14 -1 -54 -36q-21 -16 -29 -3
q-8 12 7 27q33 35 79 70.5t73 35.5zM496 652q22 5 23 -19q5 -48 16 -93q7 -24 -7 -28q-15 -6 -25 13q0 1 -17 28q-11 16 -32 3q-18 -12 -29 -23q-26 -26 -37 -20q-17 10 12 43q42 42 58 67q16 22 38 29z" />
    <glyph glyph-name="Ycircumflex" unicode="&#x176;" horiz-adv-x="565" 
d="M470 580q40 27 83 27q37 0 56.5 -17.5t19.5 -43.5q0 -25 -11 -47.5t-33 -43t-39.5 -33.5t-45.5 -31q-102 -67 -125 -153q-23 -82 -25 -129q-5 -52 28 -66l12 -4t12 -5t6.5 -6.5t2.5 -11.5q-2 -9 -12.5 -14t-26.5 -3q-47 6 -225 -2q-8 -1 -13 2.5t-4 11.5q0 21 44 28
q45 5 69 70q16 48 36 150q8 43 -14 89q-3 7 -13.5 32t-17.5 40.5t-16.5 37t-19 37.5t-17.5 27q-27 37 -61 42q-16 2 -23.5 8t-5.5 13q3 14 34 17h17h9.5h25.5h55q29 0 39.5 -8t17.5 -33q36 -132 72 -210q13 -24 35 2q13 17 64 59q68 52 68 101q0 35 -37 33q-2 0 -11 -1
t-13 -1.5t-9.5 1.5t-7.5 6q-6 13 20 29zM441 759q12 2 16 -1t7 -15q5 -18 20.5 -46.5t16.5 -30.5q9 -18 -5 -24q-16 -3 -30 11q-7 8 -25 20q-15 9 -35 2q-13 -4 -36 -18q-29 -18 -41 -11q-19 7 14 32q44 35 64 57q18 23 34 24z" />
    <glyph glyph-name="ycircumflex" unicode="&#x177;" horiz-adv-x="516" 
d="M210 437q48 0 42 -64q-3 -30 -12 -63.5t-25.5 -82t-24.5 -76.5q-6 -23 5.5 -35t35.5 9q65 63 101.5 120.5t72.5 143.5q16 38 70 50q19 3 26 -5t0 -32q-51 -126 -79 -238q-18 -68 3 -164q14 -65 -23.5 -128t-103.5 -101q-39 -22 -93.5 -36.5t-95.5 -14.5q-158 0 -158 93
q0 32 28.5 64.5t77.5 71.5q8 7 17 8t11 -3q14 -12 -5 -31q-11 -12 -19 -35.5t-8 -41.5q0 -67 79 -67q80 0 125 29q99 67 67 190q-18 72 -6 126q3 11 11 28q8 19 -1 21q-5 2 -13 -9q-66 -89 -128 -140q-51 -40 -84 -28t-26 62q5 31 34 123t35 130q5 32 -13 32q-14 -1 -54 -36
q-20 -16 -28 -3q-9 12 6 27q33 35 79 70.5t74 35.5zM397 652q22 4 24 -19q3 -40 16 -93q6 -24 -8 -28q-7 -3 -14 1.5t-10 11.5q-2 4 -18 28q-10 16 -32 3q-19 -13 -28 -23q-28 -26 -37 -20q-18 10 11 43q8 7 30 32t28 35q16 22 38 29z" />
    <glyph glyph-name="Ydieresis" unicode="&#x178;" horiz-adv-x="565" 
d="M470 580q40 27 83 27q36 0 56 -17.5t20 -43.5q0 -25 -11 -47.5t-33 -43t-39.5 -33.5t-45.5 -31q-102 -67 -125 -153q-23 -82 -25 -129q-5 -53 28 -66l12 -4t12 -5t6.5 -6.5t2.5 -11.5q-2 -9 -12.5 -14t-26.5 -3q-47 6 -225 -2q-8 -1 -13 2.5t-4 11.5q0 21 44 28
q45 5 69 70q16 48 36 150q8 43 -14 89q-62 145 -84 174q-27 37 -62 42q-15 2 -22.5 8t-5.5 13q3 14 34 17h17h9.5h25.5h55q29 0 39.5 -8t17.5 -33q36 -132 72 -210q13 -24 35 2q13 17 64 59q68 52 68 101q0 35 -37 33q-2 0 -11 -1t-13 -1.5t-9.5 1.5t-7.5 6q-6 13 20 29z
M414 720q-1 -24 -23.5 -44t-45.5 -20q-26 0 -23 33q3 30 20.5 49.5t41.5 19.5q31 0 30 -38zM573 720q-1 -24 -23.5 -44t-45.5 -20q-25 0 -23 33q2 30 20 49.5t43 19.5q32 0 29 -38z" />
    <glyph glyph-name="Zacute" unicode="&#x179;" horiz-adv-x="678" 
d="M17 0q-3 24 11 61.5t33 41.5q50 13 84 40q173 142 345 324q9 12 7 16t-16 8q-35 9 -104.5 14.5t-107.5 1.5q-18 -2 -25.5 -3.5t-17.5 -6t-13.5 -14t-3.5 -25.5q0 -4 2.5 -9t7.5 -11.5t7 -11.5q9 -19 -4 -32q-30 -16 -62 37q-19 30 -19 72q0 52 36.5 78t126.5 26
q64 0 116 -9q70 -10 118 -10q55 0 67 9q19 13 31 5.5t5 -30.5t-21.5 -41t-43 -42t-33.5 -29q-211 -201 -344 -329q-9 -9 -7 -14.5t13 -2.5q29 11 71 11q52 0 99 -15q64 -22 100 -22q89 0 129 47q28 33 42 31q5 -1 8 -6.5t1.5 -16.5t-8.5 -25q-22 -49 -76 -90t-112 -41
q-20 0 -36.5 2.5t-24.5 5t-23.5 8.5t-20.5 8q-49 18 -105 18q-76 0 -129 -21q-49 -20 -80 -20q-22 0 -23 12zM545 761q16 2 18.5 -8t-7.5 -16q-6 -4 -38 -23t-54 -33.5t-33 -23.5q-8 -7 -19 -11.5t-16 -2.5q-17 7 -2 24q6 7 18.5 22t21.5 26.5t15 22.5q10 13 23 17
q9 2 38 3.5t35 2.5z" />
    <glyph glyph-name="zacute" unicode="&#x17a;" 
d="M9 9q0 19 20.5 48t35.5 40q28 22 51 27q16 4 36 18q26 20 49.5 40.5t36.5 32.5t41 39t43 41q4 4 5 8t-1.5 6t-7.5 1q-24 -6 -37 -6q-19 0 -50 16q-34 17 -45 17q-14 0 -27 -8.5t-19 -15.5t-24 -30q-14 -18 -23 -14q-15 5 -7 26q17 42 52 90.5t57 48.5q29 0 58 -22
q44 -32 74 -32q78 0 118 38q24 26 37 21t1 -26q-4 -7 -11.5 -19t-11 -17t-9.5 -13t-12.5 -14.5t-15.5 -14.5q-18 -15 -60.5 -54t-87 -80.5t-54.5 -50.5q-17 -18 5 -18q11 0 20.5 -2.5t14 -5t12 -8t10.5 -7.5q33 -22 56 -22q49 0 88 54q11 18 25 12q6 -2 7 -11t-5 -17
q-10 -22 -35.5 -54.5t-48.5 -51.5q-34 -30 -61 -30q-24 0 -63 32q-17 13 -24 18t-24 10.5t-40 5.5q-50 0 -91 -52q-18 -23 -41 -20q-17 4 -17 26zM455 655q17 4 21 -5.5t-6 -16.5q-102 -85 -121 -106q-16 -20 -32 -17q-16 5 -4 23q44 77 49 89q5 13 21 19q7 3 37 8t35 6z
" />
    <glyph glyph-name="Zdotaccent" unicode="&#x17b;" horiz-adv-x="678" 
d="M17 0q-3 24 11 61.5t33 41.5q50 13 84 40q173 142 345 324q9 12 7 16t-16 8q-35 9 -104.5 14.5t-107.5 1.5q-18 -2 -25.5 -3.5t-17.5 -6t-13.5 -14t-3.5 -25.5q0 -4 2.5 -9t7.5 -11.5t7 -11.5q9 -19 -4 -32q-30 -16 -62 37q-19 30 -19 72q0 52 36.5 78t126.5 26
q64 0 116 -9q70 -10 118 -10q55 0 67 9q19 13 31 5.5t5 -30.5t-21.5 -41t-43 -42t-33.5 -29q-211 -201 -344 -329q-9 -9 -7 -14.5t13 -2.5q29 11 71 11q52 0 99 -15q64 -22 100 -22q89 0 129 47q28 33 42 31q5 -1 8 -6.5t1.5 -16.5t-8.5 -25q-22 -49 -76 -90t-112 -41
q-20 0 -36.5 2.5t-24.5 5t-23.5 8.5t-20.5 8q-49 18 -105 18q-76 0 -129 -21q-49 -20 -80 -20q-22 0 -23 12zM497 710q-2 -24 -25.5 -40t-51.5 -16q-15 0 -22.5 10.5t-6.5 25.5q1 22 20 41.5t46 19.5q18 0 29.5 -11t10.5 -30z" />
    <glyph glyph-name="zdotaccent" unicode="&#x17c;" 
d="M9 9q0 19 20.5 48t35.5 40q28 22 51 27q16 4 36 18q26 20 49.5 40.5t36.5 32.5t41 39t43 41q4 4 5 8t-1.5 6t-7.5 1q-24 -6 -37 -6q-19 0 -50 16q-34 17 -45 17q-14 0 -27 -8.5t-19 -15.5t-24 -30q-14 -18 -23 -14q-15 5 -7 26q17 42 52 90.5t57 48.5q29 0 58 -22
q44 -32 74 -32q78 0 118 38q24 26 37 21t1 -26q-4 -7 -11.5 -19t-11 -17t-9.5 -13t-12.5 -14.5t-15.5 -14.5q-18 -15 -60.5 -54t-87 -80.5t-54.5 -50.5q-17 -18 5 -18q11 0 20.5 -2.5t14 -5t12 -8t10.5 -7.5q33 -22 56 -22q49 0 88 54q11 18 25 12q6 -2 7 -11t-5 -17
q-10 -22 -35.5 -54.5t-48.5 -51.5q-34 -30 -61 -30q-24 0 -63 32q-17 13 -24 18t-24 10.5t-40 5.5q-50 0 -91 -52q-18 -23 -41 -20q-17 4 -17 26zM404 577q-4 -25 -26 -44t-48 -19q-31 0 -29 34q3 30 20.5 48t46.5 18q37 0 36 -37z" />
    <glyph glyph-name="Zcaron" unicode="&#x17d;" horiz-adv-x="678" 
d="M17 0q-3 24 11 61.5t33 41.5q50 13 84 40q173 142 345 324q9 12 7 16t-16 8q-35 9 -104.5 14.5t-107.5 1.5q-18 -2 -25.5 -3.5t-17.5 -6t-13.5 -14t-3.5 -25.5q0 -4 2.5 -9t7.5 -11.5t7 -11.5q9 -19 -4 -32q-30 -16 -62 37q-19 30 -19 72q0 52 36.5 78t126.5 26
q64 0 116 -9q70 -10 118 -10q55 0 67 9q19 13 31 5.5t5 -30.5t-21.5 -41t-43 -42t-33.5 -29q-211 -201 -344 -329q-9 -9 -7 -14.5t13 -2.5q29 11 71 11q52 0 99 -15q64 -22 100 -22q89 0 129 47q28 33 42 31q5 -1 8 -6.5t1.5 -16.5t-8.5 -25q-22 -49 -76 -90t-112 -41
q-20 0 -36.5 2.5t-24.5 5t-23.5 8.5t-20.5 8q-49 18 -105 18q-76 0 -129 -21q-49 -20 -80 -20q-22 0 -23 12zM427 641q-12 -2 -16 1t-7 15q-5 17 -20 44t-17 33q-9 18 5 24q16 3 30 -11q7 -8 25 -20q15 -9 35 -2q19 5 35 17q28 18 42 12q18 -6 -15 -33q-46 -36 -63 -56
q-19 -23 -34 -24z" />
    <glyph glyph-name="zcaron" unicode="&#x17e;" 
d="M9 9q0 19 20.5 48t35.5 40q28 22 51 27q16 4 36 18q26 20 49.5 40.5t36.5 32.5t41 39t43 41q4 4 5 8t-1.5 6t-7.5 1q-24 -6 -37 -6q-19 0 -50 16q-34 17 -45 17q-14 0 -27 -8.5t-19 -15.5t-24 -30q-14 -18 -23 -14q-15 5 -7 26q17 42 52 90.5t57 48.5q29 0 58 -22
q44 -32 74 -32q78 0 118 38q24 26 37 21t1 -26q-4 -7 -11.5 -19t-11 -17t-9.5 -13t-12.5 -14.5t-15.5 -14.5q-18 -15 -60.5 -54t-87 -80.5t-54.5 -50.5q-17 -18 5 -18q11 0 20.5 -2.5t14 -5t12 -8t10.5 -7.5q33 -22 56 -22q49 0 88 54q11 18 25 12q6 -2 7 -11t-5 -17
q-10 -22 -35.5 -54.5t-48.5 -51.5q-34 -30 -61 -30q-24 0 -63 32q-17 13 -24 18t-24 10.5t-40 5.5q-50 0 -91 -52q-18 -23 -41 -20q-17 4 -17 26zM339 512q-22 -6 -23 18q-5 46 -16 94q-7 23 7 28q7 2 14.5 -2.5t10.5 -11.5q2 -6 8 -14.5t9 -13.5q11 -16 32 -2q10 6 29 22
q26 26 37 20q18 -11 -12 -42q-52 -57 -58 -68q-18 -23 -38 -28z" />
    <glyph glyph-name="longs" unicode="&#x17f;" horiz-adv-x="283" 
d="M-134 -104q11 -11 3 -25q-16 -25 -10.5 -48.5t30.5 -23.5q38 0 73 35.5t53 72t30 72.5q50 157 85 369q3 22 0.5 27t-11.5 5h-35q-11 -1 -12.5 10t2.5 17q16 20 39 20q16 0 22 1t11.5 6.5t10.5 18.5q48 120 113.5 188.5t128.5 68.5q42 0 63 -17t20 -43q-1 -21 -18 -48.5
t-41 -42.5q-25 -16 -35 -11q-15 9 -6 24q8 11 10.5 28.5t-4.5 32t-25 14.5q-26 0 -51.5 -35.5t-39.5 -75t-24 -81.5q-66 -293 -85 -350q-20 -61 -31.5 -92t-34 -79.5t-52.5 -85.5t-70 -69q-37 -30 -65 -42.5t-66 -12.5q-33 0 -54 19t-21 48q-2 57 58 94q31 19 39 11z" />
    <glyph glyph-name="florin" unicode="&#x192;" horiz-adv-x="412" 
d="M-104 -104q11 -9 3 -25q-15 -25 -9.5 -48.5t29.5 -23.5q38 0 71.5 36t49 71.5t26.5 72.5q38 120 64 263q3 23 1 27.5t-12 4.5q-12 3 -35 0q-11 -1 -12.5 10.5t2.5 16.5q15 21 39 21q16 0 22 1t11.5 6.5t10.5 18.5q39 113 114.5 189.5t140.5 76.5q42 0 63.5 -17t21.5 -43
q-1 -21 -18 -48.5t-41 -42.5q-25 -16 -35 -11q-15 9 -6 24q14 16 9.5 46.5t-31.5 30.5q-26 0 -48.5 -23t-38 -58.5t-25 -65.5t-15.5 -57q-5 -25 18 -26q19 -1 87 5q28 4 38 -3.5t-2 -25.5q-14 -21 -24 -28t-30 -5q-21 3 -69 5q-16 1 -23 -3t-11 -15q-25 -86 -45 -148
q-25 -78 -42 -121.5t-54.5 -103t-87.5 -101.5q-36 -31 -63 -43t-65 -12q-34 0 -55 19t-21 48q-2 56 58 94q31 19 39 11z" />
    </font>
</defs>
</svg>
