<?xml version="1.0" standalone="no"?>
<!DOCTYPE svg PUBLIC "-//W3C//DTD SVG 1.1//EN" "http://www.w3.org/Graphics/SVG/1.1/DTD/svg11.dtd" >
<svg xmlns="http://www.w3.org/2000/svg" xmlns:xlink="http://www.w3.org/1999/xlink" version="1.1">
<metadata>
Created by FontForge 20170731 at Thu Mar  7 20:07:33 2013
 By Aleksey,,,
Copyright (c) 2008 by Nathanael Bonnell. All rights reserved.
</metadata>
<defs>
<font id="NewtSerif" horiz-adv-x="477" >
  <font-face 
    font-family="Newt Serif"
    font-weight="400"
    font-stretch="normal"
    units-per-em="1000"
    panose-1="2 0 5 3 7 0 0 2 0 4"
    ascent="705"
    descent="-295"
    x-height="422"
    cap-height="596.5"
    bbox="-183.023 -276 1264.07 819.538"
    underline-thickness="38"
    underline-position="-200"
    unicode-range="U+0020-FB02"
  />
<missing-glyph horiz-adv-x="471" 
d="M394 293q0 -102 18.5 -177t40.5 -97q9 -10 4 -18t-20 -4l-35 8q-64 14 -162 14q-48 0 -89 -4t-63 -8t-38.5 -7.5t-23 -3t-9.5 6.5q-2 5 3.5 13.5t14.5 27.5t18.5 47t16.5 82.5t7 124.5q0 195 -43 259l-17 25q-8 9 -3.5 17t21.5 5q79 -23 201 -23q56 0 108.5 6.5t77 12
t25.5 4.5t4 -3.5t3 -4v-6t-4 -12t-11 -18.5q-22 -31 -33.5 -114t-11.5 -153zM106 418q0 -32 18 -47.5t37 -15.5q14 0 32 4.5t30 12t8 14.5q-5 7 -21 0q-24 -4 -40 9t-16 35q0 26 19.5 46.5t56.5 20.5q40 0 60 -23t20 -50q0 -29 -13.5 -51t-43.5 -51q-17 -16 -25 -25
t-18.5 -33t-10.5 -52q0 -18 10 -18q12 0 13.5 14.5t9 41t29.5 47.5q11 11 47 38q72 56 57 117q-16 68 -124 68q-51 0 -93 -30.5t-42 -71.5zM173 95q0 -31 37 -31q14 0 28.5 9t14.5 29q0 12 -10 19t-25 7q-17 0 -31 -9.5t-14 -23.5z" />
    <glyph glyph-name=".notdef" horiz-adv-x="471" 
d="M394 293q0 -102 18.5 -177t40.5 -97q9 -10 4 -18t-20 -4l-35 8q-64 14 -162 14q-48 0 -89 -4t-63 -8t-38.5 -7.5t-23 -3t-9.5 6.5q-2 5 3.5 13.5t14.5 27.5t18.5 47t16.5 82.5t7 124.5q0 195 -43 259l-17 25q-8 9 -3.5 17t21.5 5q79 -23 201 -23q56 0 108.5 6.5t77 12
t25.5 4.5t4 -3.5t3 -4v-6t-4 -12t-11 -18.5q-22 -31 -33.5 -114t-11.5 -153zM106 418q0 -32 18 -47.5t37 -15.5q14 0 32 4.5t30 12t8 14.5q-5 7 -21 0q-24 -4 -40 9t-16 35q0 26 19.5 46.5t56.5 20.5q40 0 60 -23t20 -50q0 -29 -13.5 -51t-43.5 -51q-17 -16 -25 -25
t-18.5 -33t-10.5 -52q0 -18 10 -18q12 0 13.5 14.5t9 41t29.5 47.5q11 11 47 38q72 56 57 117q-16 68 -124 68q-51 0 -93 -30.5t-42 -71.5zM173 95q0 -31 37 -31q14 0 28.5 9t14.5 29q0 12 -10 19t-25 7q-17 0 -31 -9.5t-14 -23.5z" />
    <glyph glyph-name=".null" horiz-adv-x="0" 
 />
    <glyph glyph-name="nonmarkingreturn" horiz-adv-x="333" 
 />
    <glyph glyph-name="space" unicode=" " horiz-adv-x="226" 
 />
    <glyph glyph-name="exclam" unicode="!" horiz-adv-x="229" 
d="M76 556q0 16 5 23t17 10q31 10 58 10h6.5h5.5t4.5 -0.5t4 -1.5t1.5 -3.5t1.5 -5.5t0.5 -8q0 -14 -13.5 -83t-13.5 -71q-2 -19 -16 -224q-1 -13 -1.5 -17.5t-3.5 -8.5t-10 -4q-2 0 -4 0.5t-3 1t-1.5 2l-1 3t-1 4.5t-0.5 5.5t-0.5 7t-0.5 7.5q0 6 -2.5 50.5t-5.5 90
t-6 74.5q-20 127 -20 138zM126 78q21 0 35 -9t14 -25q0 -25 -18 -38t-40 -13q-50 0 -50 42q0 20 20 31.5t39 11.5z" />
    <glyph glyph-name="quotedbl" unicode="&#x22;" horiz-adv-x="269" 
d="M89 604q28 0 20 -32q-25 -114 -29 -161q-3 -29 -16 -29q-6 0 -8 5.5t-4 23.5q-3 42 -28 155q-3 19 2 24.5t19 8.5q18 5 44 5zM227 604q30 0 20 -32q-25 -114 -29 -161q-3 -29 -16 -29q-6 0 -8 5.5t-4 23.5q-3 42 -28 155q-3 19 2 24.5t20 8.5q16 5 43 5z" />
    <glyph glyph-name="numbersign" unicode="#" horiz-adv-x="428" 
d="M28 432q8 17 41 17h39q3 0 5 0.5t3.5 1.5t2 3.5t0.5 3.5t0.5 5t0.5 6q0 20 0.5 60.5t1.5 54.5q0 14 3.5 19.5t14.5 6.5q6 2 10.5 -3t4.5 -21l-1 -16v-41.5v-53.5v-6.5v-6v-4t1 -3.5t2 -2.5t3 -1.5t5 -0.5t7 -0.5q53 1 106 5q9 1 11.5 5t2.5 18l3 106q0 24 17 26
q7 2 11.5 -3t4.5 -21q0 -46 -1 -107v-6v-7t1.5 -3.5t4.5 -1.5h9q1 0 11 1t15 2q36 6 42 0q3 -3 3 -10q0 -16 -28 -31q-11 -7 -38 -7q-14 0 -17 -3t-3 -18q0 -123 -2 -177v-5v-5t0.5 -3t2 -2t4 -1h7.5q15 0 29 3q36 6 42 0q3 -4 3 -10q0 -17 -28 -32q-11 -6 -38 -6
q-14 0 -18.5 -5.5t-3.5 -21.5q3 -54 0 -79q-1 -40 -9 -48q-17 -15 -35 -17q-15 -3 -9 25q3 15 9 78q2 26 1 52q-1 7 -1.5 9t-4 4t-11.5 2l-95 -2q-11 -1 -14.5 -4t-3.5 -16v-83q0 -39 -9 -48q-17 -15 -34 -17q-16 -3 -10 25q5 21 10 78v12v18v17q0 17 -11 18q-16 1 -46 0
q-33 -2 -24 18q8 18 41 18h25q9 0 13.5 3.5t4.5 5t1 8.5q2 27 2.5 92.5t1.5 96.5q0 16 -13 16q-22 1 -53 0q-12 0 -16.5 1t-8.5 5.5t2 13.5zM154 396l-2 -191q0 -10 1.5 -11.5t9.5 -1.5h5q77 2 101 4q12 1 14 4t2 15q1 27 2.5 90t2.5 90q0 13 -2.5 16.5t-12.5 3.5
q-8 0 -104 -3q-10 0 -13.5 -3.5t-3.5 -12.5z" />
    <glyph glyph-name="dollar" unicode="$" horiz-adv-x="358" 
d="M200 603q8 0 8 -14q1 -15 1 -54q0 -12 11 -12q80 0 82 -50q1 -30 -33 -57q-13 -8 -20 -6q-3 1 -3.5 4.5t0.5 8.5t1 6q7 23 -9.5 42t-48.5 19q-37 0 -60 -20.5t-23 -43.5q0 -40 53 -65q6 -3 19 -8t30.5 -11.5t22.5 -8.5q92 -35 92 -107q0 -61 -31 -98t-81 -51
q-8 -2 -11 -5t-4 -11q-2 -32 -2 -52q-3 -9 -12 -13q-8 -4 -17 -4q-8 0 -8 13v52q0 5 -4.5 9t-9.5 4q-60 0 -89 19t-29 51q0 22 18 44.5t39 34.5q18 11 23 2q5 -8 -3 -19q-15 -19 -15 -45q0 -23 22.5 -38t54.5 -15q38 0 73 21t35 64q0 47 -64 78q-17 8 -55.5 23.5t-48.5 20.5
q-20 13 -29 20.5t-17 23.5t-8 40q0 51 30 79.5t74 38.5q15 5 15 17q0 6 0.5 18t1 22t1.5 15q1 9 11 13q10 5 17 5z" />
    <glyph glyph-name="percent" unicode="%" horiz-adv-x="894" 
d="M658 -14q-76 0 -117.5 43.5t-41.5 121.5q0 67 54 126.5t145 59.5q70 0 112 -41t42 -102q1 -100 -56.5 -154t-137.5 -54zM684 302q-53 0 -84.5 -40t-31.5 -97q0 -75 30 -112t73 -37q49 0 81.5 38t32.5 129q0 51 -27 85t-74 34zM201 256q-76 0 -117.5 44t-41.5 122
q0 66 54 125.5t145 59.5q69 0 111.5 -41t42.5 -101q1 -101 -56.5 -155t-137.5 -54zM226 574q-53 0 -84.5 -41t-31.5 -98q0 -75 30.5 -111t73.5 -36q113 0 113 166q0 51 -26.5 85.5t-74.5 34.5zM251 -35q-16 3 -5 24q4 6 26 40q66 106 282 501q9 15 28 73q4 9 13.5 9.5
t13.5 -6.5q6 -8 -2 -65q-6 -34 -25 -61q-17 -27 -137 -227.5t-148 -246.5q-26 -43 -46 -41z" />
    <glyph glyph-name="ampersand" unicode="&#x26;" horiz-adv-x="742" 
d="M47 140q0 72 38.5 119t100.5 68q20 8 10 31q-18 45 -18 84q0 70 58 116.5t107 46.5q60 0 90 -21.5t30 -76.5q0 -69 -88 -123q-26 -15 -34 -9q-11 9 19 39q31 31 31 87q0 23 -17.5 44t-36.5 21q-42 0 -64.5 -32.5t-22.5 -66.5q1 -128 199 -318q19 -17 38 1q20 22 36 51.5
t22.5 64t-14.5 55.5q-11 8 -27.5 7.5t-30.5 -5.5q-3 -1 -6.5 -2t-5 -1.5t-3.5 -1t-3.5 0t-3 1.5t-3.5 3q-9 9 5 25q41 41 90 41q36 0 56.5 -24.5t20.5 -52.5q0 -44 -43.5 -102.5t-76.5 -89.5q-11 -12 23 -33q47 -31 138 -31q27 0 54 10q28 13 34 0q6 -9 -4 -21
q-27 -24 -64 -42q-31 -13 -59 -13q-34 0 -83 16.5t-77 35.5q-22 15 -36 3q-29 -21 -81.5 -39.5t-106.5 -18.5q-59 0 -99.5 15.5t-59 41t-25.5 48.5t-7 48zM194 294q-70 -46 -70 -135q0 -54 40.5 -91.5t117.5 -37.5q70 0 116 37q19 15 4 25q-44 37 -93 94t-76 103
q-13 21 -39 5z" />
    <glyph glyph-name="quotesingle" unicode="'" horiz-adv-x="131" 
d="M89 604q28 0 20 -32q-25 -114 -29 -161q-3 -29 -16 -29q-6 0 -8 5.5t-4 23.5q-3 42 -28 155q-3 19 2 24.5t19 8.5q18 5 44 5z" />
    <glyph glyph-name="parenleft" unicode="(" horiz-adv-x="279" 
d="M203 630q1 -1 1.5 -2.5l1 -3t0 -3t-0.5 -3t-1.5 -4t-2 -4t-2.5 -4.5t-3 -5t-3.5 -5.5t-3.5 -5.5q-28 -40 -52 -127.5t-24 -175.5q0 -170 99 -312q15 -25 3 -34q-11 -10 -42 19q-131 118 -131 327q0 94 39 191.5t82 138.5q29 27 40 13z" />
    <glyph glyph-name="parenright" unicode=")" horiz-adv-x="277" 
d="M77 -56q-8 10 10 35q3 4 4 6q26 41 48.5 127t22.5 174q0 175 -96 311q-13 23 -3 33q11 9 43 -19q130 -117 130 -325q0 -94 -39 -191t-81 -136q-25 -29 -39 -15z" />
    <glyph glyph-name="asterisk" unicode="*" horiz-adv-x="419" 
d="M225 527l-10 -72q-1 -9 3.5 -11.5t12.5 0.5q83 34 113 59q16 12 24 11t8.5 -12t-1.5 -26q-2 -19 -14.5 -29t-39.5 -18q-8 -3 -77 -17q-6 -1 -8.5 -6t2.5 -13q52 -66 89 -93q13 -9 16.5 -15.5t-1.5 -10.5t-12 -6.5t-19 -4.5q-30 -6 -61 38q-21 30 -45 71q-7 14 -21 2
q-63 -56 -95 -105q-11 -17 -18.5 -17.5t-11 8t-7.5 25.5q-5 19 3.5 32t32.5 31q17 14 66 44q7 6 5.5 11.5t-7.5 8.5q-67 34 -123 41q-12 2 -17.5 5t-7 6t3 9.5t7 9t11.5 10.5q20 10 34 8.5t39 -14.5q36 -18 62 -39q16 -10 16 12q0 76 -12 117q-8 20 -2 25.5t14 3t23 -10.5
q18 -9 22.5 -24t2.5 -44z" />
    <glyph glyph-name="plus" unicode="+" horiz-adv-x="419" 
d="M51 263q-32 0 -23 18q8 17 40 17l113 3q11 0 14 3.5t4 15.5q0 22 2 102q0 32 17 40q10 4 14 -1.5t4 -21.5q0 -7 -0.5 -46.5t-0.5 -68.5q0 -14 3 -17.5t13 -2.5q2 0 99 8q19 4 32 3.5t13 -12.5q0 -16 -28 -30q-11 -7 -37 -7q-7 0 -18.5 -0.5t-28.5 -1t-30 -0.5
q-13 -1 -16 -4t-3 -16q0 -20 -0.5 -49t-0.5 -35q0 -26 -7 -37q-14 -28 -30 -28q-12 0 -12.5 12.5t3.5 32.5q7 86 8 107q1 11 -2 14t-15 3q-54 -1 -127 -1z" />
    <glyph glyph-name="comma" unicode="," horiz-adv-x="205" 
d="M68 -154q-7 6 11 31q19 25 26.5 58t-0.5 46q-15 20 -39 11q-22 -8 -28 -2q-12 10 12 41q30 38 70 38q18 0 33 -21.5t15 -54.5q0 -30 -18.5 -68t-37.5 -60q-28 -31 -44 -19z" />
    <glyph glyph-name="hyphen" unicode="-" horiz-adv-x="348" 
d="M87 295q6 2 72 7t90 14q28 11 31.5 -1.5t-8.5 -33.5q-8 -19 -23.5 -25t-46.5 -7q-58 -2 -124 -2q-19 0 -24.5 4.5t0.5 18.5q6 18 33 25z" />
    <glyph glyph-name="period" unicode="." horiz-adv-x="212" 
d="M112 82q21 0 35.5 -9.5t14.5 -26.5q0 -26 -18 -39.5t-41 -13.5q-52 0 -52 43q0 21 20.5 33.5t40.5 12.5z" />
    <glyph glyph-name="slash" unicode="/" horiz-adv-x="448" 
d="M49 -35q-16 3 -5 24q4 6 26 40q66 106 282 501q9 15 28 73q4 9 13.5 9.5t13.5 -6.5q6 -8 -2 -65q-6 -34 -25 -61q-17 -27 -137 -227.5t-148 -246.5q-26 -43 -46 -41z" />
    <glyph glyph-name="zero" unicode="0" horiz-adv-x="499" 
d="M265 611q45 0 79.5 -15t55 -38.5t33.5 -56.5t18 -65t6 -68q3 -168 -58 -277.5t-172 -109.5q-81 0 -132 68t-52 177q0 102 22 181t57.5 121t72 62.5t70.5 20.5zM120 291q5 -263 137 -263q55 0 90.5 72.5t32.5 225.5q-3 115 -36.5 176.5t-95.5 61.5q-53 0 -92 -74.5
t-36 -198.5z" />
    <glyph glyph-name="one" unicode="1" horiz-adv-x="402" 
d="M52 -3q-18 0 -18 15q0 11 21 14q66 5 92.5 25t29.5 81q5 255 1 360q0 24 -22 11q-17 -9 -68 -47q-27 -20 -42 -7q-9 11 16 29q98 68 139 108q21 22 40.5 18.5t17.5 -32.5q-10 -192 -7 -452q1 -48 18.5 -66t78.5 -25q8 0 14.5 -4.5t6.5 -11.5q0 -16 -27 -15q-66 4 -158 3
t-133 -4z" />
    <glyph glyph-name="two" unicode="2" horiz-adv-x="513" 
d="M55 44q8 7 34.5 32t37 35t34 32.5t37 37.5t33.5 36.5t37 42.5t34 44q56 76 56 146q0 26 -7.5 42t-22.5 22.5t-26 8t-28 1.5q-21 0 -65 -14q-37 -13 -71 -13q-30 0 -45 15.5t-11 40.5q2 21 19 51q10 17 19 17t17 -22q7 -16 45 -16q18 0 53 9t77 9q58 0 87 -24t29 -85
q-1 -61 -46 -134q-49 -82 -211 -253q-20 -23 2 -26q26 -2 101.5 -2t91.5 2q31 4 56 28t25 55q0 22 14 22q11 0 11 -26q0 -39 -12.5 -78t-34.5 -61q-25 -25 -50 -22q-131 12 -322 0q-12 1 -10 19.5t12 27.5z" />
    <glyph glyph-name="three" unicode="3" horiz-adv-x="440" 
d="M105 624q10 0 16 -15q11 -26 43 -23q22 0 59 7.5t57 6.5q90 -2 90 -71q0 -46 -26.5 -79t-71.5 -62q-15 -12 -13.5 -15.5t15.5 -6.5q19 -3 39 -12t42.5 -27.5t37 -53t14.5 -80.5q0 -43 -23.5 -88.5t-76 -81t-120.5 -35.5q-147 0 -147 84q0 27 23.5 48t54.5 32q9 3 13 -7
q1 -6 0.5 -7.5t-4.5 -5.5t-5 -6q-23 -38 5 -65t89 -27q53 0 91.5 35.5t38.5 92.5q0 53 -33 91t-71 52t-72 14q-11 0 -20 6.5t-9 13.5q0 14 24 25q48 17 95.5 50t47.5 67q0 21 -17 31t-42 9t-44.5 -4t-32.5 -7q-41 -11 -74 1t-29 50q3 18 17 43q11 20 19 20z" />
    <glyph glyph-name="four" unicode="4" horiz-adv-x="516" 
d="M56 183q-14 0 -18.5 2t-2.5 12q5 21 21 45q20 22 37 41.5t34 41.5t27.5 34.5t29 37.5t25 33.5t28.5 39t28 38.5q27 38 28 62q1 21 28 25q25 5 53 3q12 0 10 -23l-9 -314v-5.5t1.5 -4.5t5.5 -4t11 -1q34 0 55 19q13 13 21 9q9 -9 2 -21q-9 -18 -44 -56q-16 -16 -42 -16
q-14 0 -14 -39q0 -35 4 -60q3 -26 9 -50q4 -16 -9 -29q-44 -34 -64 -38q-15 -2 -19.5 7t-4.5 32q0 6 4 29.5t4 31.5q5 37 5 97q0 27 -21 27q-15 0 -93 -3t-130 -3zM290 247q14 5 15 23q4 103 0 195q-2 22 -10 22q-7 0 -21 -18q-32 -40 -89.5 -117t-59.5 -80q-20 -27 11 -27
q145 0 154 2z" />
    <glyph glyph-name="five" unicode="5" horiz-adv-x="452" 
d="M407 604q-9 -43 -35 -76q-9 -12 -24 -18.5t-24 -6.5q-33 0 -79.5 11t-76.5 10q-13 0 -25 -19q-12 -20 -18 -50q-4 -15 -2.5 -24t11.5 -10q80 -11 139 -31q66 -22 101.5 -62t36.5 -116q0 -92 -64 -156t-171 -64q-74 0 -104 25t-30 60q0 32 23 56t44 35q32 17 44 7
q6 -5 6 -12t-6 -12q-33 -27 -33 -58q0 -28 25.5 -45t69.5 -17q52 0 91.5 40.5t39.5 93.5q0 98 -71 138q-74 40 -199 54q-17 3 -19 10.5t4 21.5q54 133 73 193q5 13 10 16t18 2q72 -11 158 -11q40 0 56 20q19 23 29 11q5 -6 2 -16z" />
    <glyph glyph-name="six" unicode="6" horiz-adv-x="480" 
d="M178 333q0 12 19 23q56 29 107 29q59 0 97 -39.5t38 -107.5q-2 -113 -66 -183t-152 -70q-90 0 -134.5 56t-44.5 136q0 133 65 242.5t167 187.5q23 17 33 5q11 -11 -16 -32q-172 -152 -172 -371q0 -78 33 -131.5t91 -53.5q42 0 81.5 47.5t39.5 127.5q0 74 -29 106.5
t-71 32.5q-32 0 -59 -11q-20 -9 -27 6z" />
    <glyph glyph-name="seven" unicode="7" horiz-adv-x="410" 
d="M86 620q11 0 14 -16q3 -19 16 -25t38 -6q44 0 110.5 7.5t107.5 17.5q5 1 10.5 3t8 3t5 1.5t4 -0.5t2.5 -2q9 -8 0 -21q-40 -67 -41 -68q-160 -264 -164 -405q0 -41 5 -71q5 -23 -3 -32q-18 -23 -73 -35q-37 0 -37 31q-1 55 73.5 210.5t150.5 280.5q10 14 9 24t-17 4
q-112 -35 -176 -35q-45 0 -67.5 15t-19.5 39q5 34 24 64q11 16 20 16z" />
    <glyph glyph-name="eight" unicode="8" horiz-adv-x="506" 
d="M236 -17q-93 0 -143.5 36t-50.5 98t33.5 105.5t90.5 83.5q10 7 10.5 15.5t-8.5 12.5q-31 18 -47 29.5t-33.5 36t-17.5 53.5q0 60 59.5 106.5t130.5 46.5q162 0 162 -115q0 -38 -21.5 -72t-57.5 -56q-24 -15 2 -28q56 -21 88 -58t32 -103q0 -75 -70 -133t-159 -58z
M236 295q-19 6 -38 -10q-80 -69 -80 -137q0 -55 36 -87.5t106 -32.5q60 0 100 35.5t40 80.5q0 53 -49.5 93.5t-114.5 57.5zM310 375q44 32 44 90q0 43 -30.5 72.5t-86.5 29.5q-35 0 -63.5 -25.5t-28.5 -65.5q1 -62 127 -111q17 -7 38 10z" />
    <glyph glyph-name="nine" unicode="9" horiz-adv-x="460" 
d="M290 257q0 -13 -18 -23q-48 -25 -96 -25q-60 0 -97 39t-37 105q2 114 67.5 183t146.5 69q88 0 129 -54t41 -133q0 -132 -66.5 -244.5t-168.5 -189.5q-8 -6 -19 -7t-15 4q-11 10 15 30q75 66 125.5 162t50.5 213q0 78 -29.5 128t-85.5 50q-40 0 -77.5 -47t-37.5 -126
q0 -66 25 -101.5t66 -35.5q27 0 55 9q21 6 26 -6z" />
    <glyph glyph-name="colon" unicode=":" horiz-adv-x="209" 
d="M110 79q21 0 35 -9t14 -25q0 -25 -17.5 -38.5t-40.5 -13.5q-50 0 -50 42q0 21 19.5 32.5t39.5 11.5zM110 365q21 0 35 -9t14 -25q0 -25 -17.5 -38.5t-40.5 -13.5q-50 0 -50 42q0 21 19.5 32.5t39.5 11.5z" />
    <glyph glyph-name="semicolon" unicode=";" horiz-adv-x="205" 
d="M111 365q21 0 35.5 -9.5t14.5 -25.5q0 -25 -18 -38.5t-41 -13.5q-51 0 -51 43q0 20 20 32t40 12zM68 -154q-7 6 11 31q19 25 26.5 58t-0.5 46q-15 20 -39 11q-22 -8 -28 -2q-12 10 12 41q30 38 70 38q18 0 33 -21.5t15 -54.5q0 -30 -18.5 -68t-37.5 -60q-28 -31 -44 -19z
" />
    <glyph glyph-name="less" unicode="&#x3c;" horiz-adv-x="352" 
d="M66 243q10 6 87.5 51t95.5 57q9 6 35 32q6 7 13.5 8t11.5 -8q4 -16 -6 -36q-9 -18 -38 -33q-9 -5 -78 -40t-90 -48q-12 -9 -1 -17q8 -7 197 -108q17 -9 18 -14t-10 -11q-13 -7 -29 3q-9 6 -52 28.5t-96 50.5t-74 39q-10 4 -6 18q2 11 5.5 15.5t16.5 12.5z" />
    <glyph glyph-name="equal" unicode="=" horiz-adv-x="419" 
d="M52 120q-16 0 -21.5 4t-1.5 14q7 17 40 17q142 2 282 14q19 4 32 3.5t13 -12.5q0 -16 -28 -30q-11 -7 -37 -7q-141 -3 -279 -3zM52 289q-32 0 -23 17q7 17 40 17q148 2 282 15q5 0 14 1.5t13 1.5t9 -0.5t7 -4t2 -8.5q0 -6 -8.5 -15t-19.5 -15q-11 -7 -37 -7
q-94 -2 -279 -2z" />
    <glyph glyph-name="greater" unicode="&#x3e;" horiz-adv-x="354" 
d="M289 215q-154 -92 -180 -110q-21 -14 -37 -30q-7 -8 -14 -9t-12 9q-3 10 6 36q9 18 38 33q164 86 168 88q14 8 1 17q-8 7 -197 108q-16 10 -17.5 14.5t10.5 10.5q11 7 28 -3q9 -6 52.5 -28.5t96.5 -50t74 -39.5q9 -4 5 -19q-2 -11 -5.5 -15t-16.5 -12z" />
    <glyph glyph-name="question" unicode="?" horiz-adv-x="416" 
d="M179 168q-13 0 -13 24q0 67 38 111q7 8 34.5 35.5t46.5 50.5q20 26 27 60t-1 53q-8 27 -33 48.5t-71 21.5q-44 0 -72.5 -26t-28.5 -63q0 -30 22 -47t52 -10q3 1 7 2t5.5 1.5t4 1t3.5 0.5t3 -1t3 -2l3 -3q4 -6 -1 -11.5t-9 -6.5q-43 -24 -84 -24q-28 0 -50.5 22t-22.5 61
q0 55 55.5 97t125.5 42q143 0 166 -92q9 -40 -15 -83t-64 -73q-62 -48 -76 -69q-20 -28 -25.5 -45.5t-8.5 -50.5q-2 -24 -21 -24zM191 79q19 0 33.5 -9.5t14.5 -24.5q0 -26 -17.5 -39t-40.5 -13q-50 0 -50 42q0 20 20 32t40 12z" />
    <glyph glyph-name="at" unicode="@" horiz-adv-x="740" 
d="M439 -8q-21 0 -31.5 16.5t-11 40t2 44.5t7.5 35q5 15 1 17q-6 2 -16 -10q-14 -19 -60.5 -67.5t-64.5 -61.5q-18 -14 -36 -14q-33 0 -33 77q0 99 67 209t138 141q8 4 21 4t20 -2q16 -6 37 -17q8 -5 14 -3.5t17 11.5q7 7 29 35q14 19 23 15q8 -3 -2 -24
q-33 -76 -49.5 -131.5t-40.5 -160.5q-8 -29 -3 -54.5t19 -25.5q3 -3 17 11q56 47 107 139t51 180q0 100 -49 148t-129 48q-71 0 -139.5 -35.5t-119.5 -94t-82 -139t-31 -166.5q0 -168 69.5 -246.5t176.5 -78.5q64 0 122 27.5t87 58.5q21 22 31 10q12 -10 -5 -31
q-38 -46 -115 -84.5t-151 -38.5q-123 0 -202.5 85.5t-79.5 251.5q0 125 58.5 243t163.5 194.5t226 76.5q91 0 148.5 -53t57.5 -165q0 -100 -55.5 -204t-141.5 -182q-33 -29 -63 -29zM303 75q49 41 108 125q19 29 35.5 68t18.5 70q1 18 -15 31q-15 10 -33 14q-19 4 -27 -4
q-15 -7 -26 -21q-98 -116 -98 -247q0 -67 37 -36z" />
    <glyph glyph-name="A" unicode="A" horiz-adv-x="724" 
d="M327 569q9 9 29 19.5t35 14.5q10 1 13 -2t8 -18q8 -22 93 -231t93 -225q1 -3 7 -15l7.5 -15t7 -13t8.5 -13.5t9 -11.5t11.5 -11t13 -8t16.5 -8t19 -5q10 0 10 -14q0 -18 -23 -15q-33 5 -62 5.5t-66 -2.5t-52 -4h-6.5h-6.5t-5 0.5t-4 2t-1 4.5q0 10 9 13q23 9 29 21.5
t4 35.5q-2 15 -15 53.5t-19 46.5q-1 1 -3.5 4.5t-3 4l-2.5 2.5t-4 2.5t-4.5 1.5t-6.5 1q-20 3 -106.5 3.5t-101.5 -0.5q-29 -1 -38 -15q-18 -24 -35 -74t-7 -66q2 -3 18 -11.5t16 -17.5q0 -14 -23 -10q-51 9 -150 1q-30 -3 -30 9t25 20q36 11 85 72q40 46 96.5 157t99.5 212
q20 48 5 79q-4 8 8 20zM358 471q-8 0 -21 -26q-6 -11 -48.5 -102t-43.5 -101q-5 -24 13 -24q124 0 198 3q11 2 13.5 6t-2.5 18q-37 101 -94 209q-8 17 -15 17z" />
    <glyph glyph-name="B" unicode="B" horiz-adv-x="604" 
d="M20 7q-3 12 9.5 18t28.5 8q34 5 46.5 21.5t17.5 44.5q8 23 9 202t-1 197q0 10 -3.5 19t-8.5 15.5t-12.5 12t-14 9t-15.5 6.5t-13.5 4t-12 3t-8.5 2q-16 4 -16 15q0 15 39 10q28 -2 91 -2q128 4 185 4q97 1 132.5 -21.5t35.5 -75.5q0 -41 -36 -76.5t-72 -47.5
q-10 -2 -13.5 -6t0.5 -7t13 -3q66 0 115.5 -35t49.5 -88q0 -63 -26.5 -111t-68.5 -74.5t-87.5 -39t-90.5 -12.5q-31 0 -73 1.5t-51 1.5q-58 0 -128 -5q-18 0 -21 10zM203 72q1 -16 8.5 -25.5t24.5 -13t25.5 -4t28.5 -0.5q82 0 138 53.5t56 133.5q0 49 -34 84.5t-101 35.5
q-72 0 -75 10q-8 17 28 24q61 10 98 40.5t37 76.5q0 31 -31.5 52t-75.5 25q-34 3 -93 0q-34 -2 -34 -20q-6 -254 0 -472z" />
    <glyph glyph-name="C" unicode="C" horiz-adv-x="563" 
d="M38 242q0 83 28 152.5t75 114.5t107 70t124 25q62 0 102.5 -23.5t40.5 -67.5q0 -41 -44 -88q-12 -12 -22 -7q-5 2 0 19q15 41 -12.5 85t-81.5 44q-60 0 -107 -24.5t-75 -65t-42.5 -87t-14.5 -94.5q0 -114 59 -181t171 -67q41 0 77 9q29 6 53 26q11 10 25.5 29t20.5 25
q6 8 13 0q7 -5 1 -17q-7 -17 -29.5 -48t-39.5 -48q-11 -13 -28 -17q-53 -12 -136 -12q-115 0 -190 69.5t-75 178.5z" />
    <glyph glyph-name="D" unicode="D" horiz-adv-x="652" 
d="M26 584q0 15 39 10q28 -2 91 -2q28 0 84.5 2.5t80.5 2.5q146 1 224.5 -52.5t77.5 -158.5q-1 -92 -32 -167.5t-81.5 -122t-112.5 -71.5t-127 -25q-26 -1 -61.5 0.5t-39.5 1.5q-58 0 -128 -5q-18 0 -21 10q-2 8 6 14t15 7.5t17 3.5q18 3 29.5 9t18.5 17.5t9.5 18t6.5 22.5
q6 24 7.5 190.5t0.5 208.5q-1 64 -88 71q-16 1 -16 15zM204 545q-6 -279 0 -472q1 -44 67 -44q65 -2 117.5 25t86 73.5t51.5 105.5t18 124q0 94 -60.5 146.5t-149.5 62.5q-33 2 -97 0q-33 -2 -33 -21z" />
    <glyph glyph-name="E" unicode="E" horiz-adv-x="594" 
d="M26 585q0 14 39 10q70 -7 108 -7q47 0 180.5 5.5t138.5 5.5q7 0 12.5 -0.5t9 -1.5t6 -1.5t4 -2.5t2 -2.5t2 -3t1.5 -3.5q7 -20 3.5 -68.5t-17.5 -64.5q-13 -13 -22 -6q-5 6 -3 16q9 45 -10.5 73t-63.5 28q-164 0 -190 -6q-13 -3 -15.5 -7t-2.5 -15q0 -17 -0.5 -81.5
t-0.5 -71.5q0 -11 0.5 -14t3.5 -10t12.5 -9.5t25.5 -2.5q58 0 84 3.5t47 15.5q9 4 24.5 24t15.5 32q0 5 5.5 12t11.5 6q15 0 10 -33q-12 -87 -12 -145q0 -19 -15 -20q-4 0 -8.5 5.5t-5.5 13.5q-2 18 -18.5 35t-35.5 18q-77 6 -117 3q-17 -1 -22 -6t-6 -18q-2 -33 -2 -182
q2 -30 7 -39.5t27 -18.5q35 -14 98 -14q56 0 94.5 8.5t60.5 26t33.5 36t19.5 45.5q1 3 2 9t1.5 8.5t2.5 6t5 4.5t8 0q15 -2 10 -51q-3 -25 -26.5 -66t-56.5 -61q-25 -8 -57 -6q-29 2 -57 4.5t-39 2.5q-92 6 -162 4q-24 0 -53.5 -2.5t-54 -5.5t-28.5 -3q-18 0 -20 10
q-1 4 0 7t3.5 5.5t5.5 4.5t7.5 3.5l7.5 2.5t8 2.5t7 1.5q33 5 46 20.5t17 44.5q8 24 9 202.5t-1 196.5q-1 56 -88 71q-16 4 -16 16z" />
    <glyph glyph-name="F" unicode="F" horiz-adv-x="540" 
d="M22 586q0 14 39 10q70 -7 107 -7q47 0 181 6t138 6q6 0 11.5 -0.5t9 -1t6 -1.5t4 -2t3 -2.5t1.5 -2.5t1 -3t1 -3q8 -19 4 -68t-18 -65q-13 -13 -22 -5q-5 5 -3 16q9 44 -10.5 71.5t-64.5 27.5q-160 0 -188 -6q-12 -3 -14.5 -7t-2.5 -16q0 -17 -0.5 -84t-0.5 -74v-5.5
v-5.5t0.5 -5t1 -5l2 -4t3.5 -4t5.5 -3t7.5 -2.5t9.5 -1t12.5 -0.5q63 0 91 2q37 3 55 18t22 50q1 6 6 12t11 5q15 0 10 -33q-12 -99 -12 -138q0 -21 -15 -22q-10 0 -14 21q-6 46 -56 52q-25 1 -64.5 2t-48.5 0q-16 -1 -21 -6t-6 -19q-5 -61 2 -174q4 -53 51 -71
q7 -2 17.5 -5.5t18 -5.5t14.5 -5t11 -6.5t4 -6.5q0 -16 -30 -12q-51 6 -118 8q-23 1 -51.5 -1t-54.5 -4.5t-28 -2.5q-18 0 -20 10q-3 11 9.5 17.5t29.5 9.5q34 5 47 20.5t18 45.5q7 67 6.5 202.5t-2.5 197.5q-2 53 -86 70q-3 1 -4 1q-16 2 -16 15z" />
    <glyph glyph-name="G" unicode="G" horiz-adv-x="632" 
d="M295 -14q-69 0 -122 26t-80.5 66.5t-41 82t-13.5 81.5q0 85 29.5 155t77.5 114.5t107.5 68.5t121.5 24q74 0 116.5 -26t42.5 -71q0 -41 -40 -84q-12 -12 -21 -7q-5 2 0 19q16 46 -18.5 88.5t-94.5 42.5q-59 0 -107.5 -23.5t-77.5 -62t-44.5 -85.5t-15.5 -96
q0 -69 20 -125t50.5 -87.5t63.5 -48t63 -16.5q77 0 123.5 55t46.5 112q0 45 -35 60.5t-112 15.5q-45 0 -45 18q0 13 41 10q37 -2 130.5 -1.5t128.5 3.5q20 -2 21 -8q2 -6 -1.5 -10.5t-9.5 -7t-15 -5.5q-14 -4 -20 -10.5t-5 -20.5q2 -14 2 -32q0 -94 -77.5 -154.5
t-188.5 -60.5z" />
    <glyph glyph-name="H" unicode="H" horiz-adv-x="744" 
d="M557 499q0 9 -3 17t-7.5 14.5t-9.5 11.5t-12.5 9t-13.5 6.5t-14 5t-12 3.5t-10.5 2.5t-7.5 1.5q-15 2 -15 15q0 15 39 10q23 -2 93 -2t111 2q17 1 24 -1t7 -12q-2 -15 -26 -15q-43 -8 -54.5 -22t-15.5 -50q-3 -21 -5 -180t4 -214q4 -27 12 -39t35 -26q6 -3 19 -5.5
t20 -6.5t8 -12t-9 -11.5t-29 -1.5q-45 6 -219 -2q-17 0 -19 10q-1 6 1.5 10.5t10.5 7.5t11.5 4t13.5 3q24 4 38.5 15.5t19.5 22.5t9 30q5 17 7 175q0 31 -26 32q-123 4 -308 0q-18 0 -22.5 -4.5t-4.5 -17.5q-2 -146 4 -184q4 -27 12.5 -39.5t35.5 -24.5q5 -2 18.5 -5.5
t20.5 -7.5t7 -12q1 -8 -8.5 -11.5t-27.5 -1.5q-47 6 -218 -2q-19 0 -21 10q-1 6 2 11t11.5 8t12 4t13.5 3q18 3 29 8.5t18 17t9.5 18t7.5 23.5q6 24 8 202.5t0 196.5q0 9 -2.5 17t-7.5 14.5t-10 11.5t-12 9t-13 6.5t-14 5t-12 3.5t-10.5 2.5t-7.5 1.5q-16 2 -16 15
q0 15 39 10q23 -2 93.5 -2t110.5 2q17 1 23 -1t6 -12q-2 -15 -23 -15q-44 -8 -56 -22t-17 -50q-2 -14 -4 -137q0 -19 29 -20q102 -2 305 0q13 0 19.5 8t6.5 17q0 124 -1 136z" />
    <glyph glyph-name="I" unicode="I" horiz-adv-x="317" 
d="M130 500q-3 36 -34.5 53.5t-52.5 16.5q-9 -1 -12.5 4t-3.5 12q0 14 39 10q23 -2 93 -2t110 2q10 1 17 0.5t10 -4t3 -10.5q-1 -12 -23 -14q-44 -3 -55.5 -17.5t-16.5 -54.5q-3 -22 -5 -180.5t4 -214.5q3 -20 6 -30t13 -20t28 -14q2 0 8 -1.5t9 -2t8 -2t8 -3.5t6.5 -4t5 -5
t1.5 -7q1 -8 -8 -11.5t-27 -1.5q-46 6 -220 -2q-19 0 -21 10q-3 12 10.5 18.5t28.5 7.5q33 3 46 20t18 47q8 23 9 202t-2 198z" />
    <glyph glyph-name="J" unicode="J" horiz-adv-x="306" 
d="M66 596q23 -2 93 -2t110 2q9 1 15.5 0.5t9.5 -4t3 -10.5q-1 -15 -23 -15q-43 -8 -54.5 -21.5t-17.5 -49.5q-2 -11 -3.5 -129t-0.5 -197q0 -171 -62.5 -272t-129.5 -101q-83 0 -83 67q0 22 15.5 47.5t32.5 39.5q15 15 22 12q3 -5 3 -7.5t-4.5 -11.5t-4.5 -10
q-13 -34 -1.5 -57t33.5 -23q48 0 80 52.5t34 139.5q9 321 -2 454q0 9 -2.5 17t-7 14t-9.5 11t-12.5 9t-13 6.5t-13.5 5t-12 3.5t-10.5 2.5t-7.5 1.5q-15 2 -15 16t38 10z" />
    <glyph glyph-name="K" unicode="K" horiz-adv-x="675" 
d="M65 597q22 -3 93.5 -3t111.5 3q10 1 16.5 0.5t10 -4t3.5 -10.5q-3 -15 -24 -15q-43 -8 -55 -21.5t-17 -49.5q-5 -45 -5 -181q0 -5 4 -7.5t11 2.5q62 66 161 155.5t144 118.5q28 18 51 18q32 0 32 -58q0 -11 -6.5 -33t-16.5 -36q-11 -16 -17 -15q-5 1 -7 3.5t-2.5 4t0 6
t0.5 5.5q0 9 -9.5 18.5t-19.5 9.5q-31 0 -64 -23q-83 -54 -136 -110q-14 -14 -2 -34q20 -33 80 -112t72 -93q32 -38 74 -63.5t80 -23.5h28q8 -1 12 -10q2 -7 -17 -20q-12 -7 -54.5 -16.5t-61.5 -8.5q-29 4 -53 20q-26 18 -112 134t-108 156q-6 11 -21 -1q-17 -13 -31 -30
q-12 -16 -12 -52q0 -96 5 -120q4 -26 12 -38t35 -26q6 -3 19 -6t20 -7t7 -12q1 -8 -8 -11.5t-27 -1.5q-49 6 -220 -2q-19 0 -21 10q-1 6 2 11t11.5 8t12 4t13.5 3q34 6 48 22.5t18 44.5q8 23 9.5 202.5t-1.5 198.5q0 9 -3 17t-7.5 14t-10 11t-13 8.5t-13 6.5t-14 5.5
t-12.5 3.5t-11 3l-7 1q-16 2 -16 16t39 10z" />
    <glyph glyph-name="L" unicode="L" horiz-adv-x="586" 
d="M130 500q0 13 -6 24t-13 18t-19 13t-19.5 8t-18.5 5t-12 3q-16 2 -16 15q0 12 39 10q168 -4 217 0h16t9.5 -3.5t3.5 -10.5q0 -15 -24 -15q-44 -8 -58.5 -22.5t-18.5 -47.5q-7 -201 -4 -388q1 -29 6.5 -40t26.5 -19q39 -15 99 -15q44 0 77.5 8t52 18.5t32.5 31t19.5 34
t12.5 38.5q3 13 8 17t15 3q15 -2 11 -44q-3 -32 -22 -75.5t-51 -62.5q-26 -9 -57 -6q-34 2 -96 7q-94 6 -163 4q-24 0 -54 -2.5t-55 -5.5t-28 -3q-18 0 -20 10q-1 6 2 11t11.5 8t12 4t13.5 3q33 5 46 21.5t18 45.5q8 23 8.5 202.5t-1.5 197.5z" />
    <glyph glyph-name="M" unicode="M" horiz-adv-x="925" 
d="M67 583q0 15 26 15q93 0 126 -5q30 -5 46.5 -20.5t34.5 -46.5l45 -107q108 -267 124 -294q3 -7 9.5 -8t11.5 8q29 78 76 212.5t53 155.5q16 56 37.5 78.5t68.5 25.5q28 1 82 1q20 0 20 -14q0 -10 -18 -13q-49 -13 -60.5 -30.5t-6.5 -52.5q37 -222 85 -398
q6 -23 28.5 -40.5t47.5 -25.5q11 -3 13.5 -6t1.5 -11q-3 -11 -19 -9q-80 11 -199 2q-34 -4 -38 7q-2 8 2.5 11.5t17.5 7.5q23 8 43 30t15 54q-30 193 -69 356q-3 10 -7.5 12t-8.5 -2t-7 -10q-13 -29 -66.5 -184t-73.5 -233q-9 -15 -16 -21q-36 -29 -73 -29q-15 0 -22 19
q-8 21 -11 47q-15 65 -58.5 183t-84.5 206q-9 16 -13 16q-6 0 -11 -14q-1 -1 -1 -2q-53 -208 -64 -281q-18 -132 57 -146q12 -2 16.5 -6t3.5 -11q-2 -14 -31 -11q-69 6 -139 2q-3 0 -10.5 -1t-12.5 -1t-11 0.5t-9.5 3t-4.5 7.5t1.5 8t10.5 7.5t10 5.5q29 22 51 73
q17 44 54.5 178t44.5 186q5 39 -19 66.5t-76 33.5q-10 1 -13.5 2t-6.5 4t-3 9z" />
    <glyph glyph-name="N" unicode="N" horiz-adv-x="715" 
d="M77 595q109 0 184 -47.5t153 -149.5q39 -52 96 -139.5t78 -144.5q5 -13 13 -6q4 -16 5 74q3 206 0 276q-4 92 -66 109q-2 1 -8.5 2t-11.5 2t-10.5 3t-8 5t-1.5 7q4 12 29 12q108 -6 138 -3q16 3 23 1t7 -12q0 -3 -3 -6.5t-8.5 -8t-6.5 -5.5q-21 -29 -27 -87
q-9 -80 -12.5 -194t-1.5 -176q0 -3 1.5 -34t0.5 -46q-1 -12 -7.5 -20t-13.5 -8q-28 -1 -58 0q-17 0 -21 14q-10 29 -20 52q-26 68 -83.5 161t-88.5 131q-91 112 -169 146q-11 4 -18 -1.5t-7 -16.5q0 -58 3 -194t5 -155q4 -53 22.5 -76.5t52.5 -27.5q15 -2 25 -7.5t7 -16.5
q-2 -11 -18 -10q-90 8 -220 0q-5 0 -8 1.5t-3 4v4.5q2 9 14 16q18 5 23 8q56 24 59 92q4 57 5.5 189.5t-0.5 166.5q-6 86 -83 86q-19 0 -19 16q0 13 58 13z" />
    <glyph glyph-name="O" unicode="O" horiz-adv-x="677" 
d="M370 614q124 0 197 -73t73 -201q0 -157 -95 -258t-230 -101q-130 0 -203.5 83t-73.5 213q0 49 21 105.5t60 109.5t105 87.5t146 34.5zM561 319q0 111 -63 183t-163 72q-30 0 -64.5 -16t-68.5 -47.5t-56.5 -90.5t-22.5 -135q0 -120 67.5 -192.5t156.5 -72.5q83 0 148.5 77
t65.5 222z" />
    <glyph glyph-name="P" unicode="P" horiz-adv-x="517" 
d="M26 586q0 15 39 10q24 -4 48 -4.5t65 0.5t62 1q2 0 48 2.5t95 2.5q62 0 92 -28.5t30 -93.5q0 -51 -19 -90.5t-45.5 -61t-59.5 -35.5t-56.5 -18.5t-41.5 -4.5h-12.5t-9.5 1.5t-8.5 5.5t-2.5 10q0 13 19 14q159 13 159 153q0 50 -35 79.5t-87 31.5q-11 0 -75 -2
q-15 -1 -20.5 -7t-6.5 -21q-15 -340 -1 -430q4 -27 12 -39t35 -25q6 -3 19 -6t20 -7t7 -12q1 -8 -8.5 -11.5t-27.5 -1.5q-48 6 -219 -2q-19 0 -21 10q-1 6 2 11t11.5 8t12 4t13.5 3q34 5 47 22t17 45q8 23 9.5 202.5t-1.5 197.5q0 9 -2.5 17t-7.5 14t-9.5 11t-12.5 9t-13 7
t-13.5 5.5t-12 3.5l-10.5 3l-8 1q-16 2 -16 15z" />
    <glyph glyph-name="Q" unicode="Q" horiz-adv-x="697" 
d="M367 610q122 0 194.5 -72.5t72.5 -199.5q0 -83 -29.5 -154.5t-80.5 -116.5q-6 -6 0 -20q78 -111 131 -111q39 0 69 10q16 7 18 -2q7 -10 -13 -22q-74 -48 -144 -48q-31 0 -64.5 41t-59.5 94q-5 11 -17 5q-56 -27 -133 -27q-128 0 -200.5 80t-72.5 209q0 49 21 104.5
t59.5 108t104 87t144.5 34.5zM556 317q0 115 -65.5 184.5t-158.5 69.5q-30 0 -64.5 -16t-68 -47.5t-55.5 -90.5t-22 -134q0 -60 14 -97q4 -7 10 -6.5t10 6.5q33 40 64 58.5t84 18.5q31 0 59 -13t53.5 -41.5t38 -45t35.5 -51.5q2 -3 6 -4t6 2q54 76 54 207zM169 124
q30 -47 77 -73.5t97 -26.5q37 0 85 21q9 5 5 16q-81 148 -181 148q-23 0 -46.5 -16.5t-36.5 -39.5q-8 -17 0 -29z" />
    <glyph glyph-name="R" unicode="R" horiz-adv-x="666" 
d="M29 588q0 15 39 10q25 -4 78 -4.5t119 1.5t81 2q42 0 70.5 -3t58 -13t44.5 -32.5t15 -56.5q0 -26 -21 -51t-44 -40t-57 -33.5t-43 -24.5q-12 -8 -13 -17.5t4 -22.5q28 -87 109.5 -169t135.5 -82q31 0 47 9q9 5 16 0q10 -10 -5 -23q-40 -42 -112 -42q-36 0 -95.5 49.5
t-111.5 125t-65 139.5q-3 22 3.5 28.5t35.5 16.5q53 21 95 54t42 72q0 36 -36 57.5t-81 24.5q-67 4 -104 -1q-15 -1 -21 -6.5t-7 -20.5q-12 -358 -1 -433q4 -27 12.5 -39t35.5 -26q6 -3 20.5 -6t24 -7t10.5 -12t-8.5 -11.5t-27.5 -1.5q-53 6 -227 -2q-20 0 -21 10q-2 6 1 11
t11.5 8t12 4t13.5 3q33 5 46 22t17 46q8 23 9.5 202t-1.5 199q-2 55 -88 70q-16 4 -16 16z" />
    <glyph glyph-name="S" unicode="S" horiz-adv-x="480" 
d="M266 609q142 0 142 -78q0 -39 -31 -72q-22 -25 -32 -18q-13 8 -2 30q5 7 5 26q0 35 -28 55t-66 20q-40 0 -79 -31t-39 -73q0 -20 10 -35.5t15.5 -19.5t26.5 -17q26 -14 86 -41t79 -38q81 -43 81 -119q0 -89 -63 -151t-161 -62q-166 0 -166 83q0 45 51 89q3 4 11.5 8
t12.5 3q6 -1 8 -8t-1 -14q-2 -4 -7 -13.5t-7.5 -16.5t-2.5 -12q0 -31 30.5 -55.5t78.5 -24.5q66 0 107.5 35t39.5 88q0 27 -9 45t-18.5 26.5t-34.5 25.5q-19 12 -81.5 41t-67.5 32q-45 25 -65 51.5t-20 72.5q0 60 58 114t139 54z" />
    <glyph glyph-name="T" unicode="T" horiz-adv-x="572" 
d="M253 536q0 16 -6 20.5t-19 4.5h-49q-111 -6 -138 -119q-2 -13 -6.5 -20t-14.5 -6q-16 2 -10 31q1 6 5.5 35.5t10 60.5t10.5 48q5 15 11 17.5t19 -2.5q59 -18 241 -13q96 1 196 16q16 1 27 -4.5t13 -9t8 -13.5q18 -28 11.5 -81t-38.5 -86q-10 -10 -20 -2q-8 7 0 23
q13 19 13 42q-1 52 -40 69.5t-113 17.5q-23 0 -31 -8.5t-8 -24.5q0 -14 -0.5 -91.5t-0.5 -136.5t1 -121t4 -80q8 -58 65 -68q2 0 9 -1.5t9.5 -2t8 -2t8 -3t6 -3.5t5 -5t1.5 -7q1 -8 -8.5 -11t-28.5 -1q-51 6 -239 -2q-19 0 -20 10q-2 8 5.5 14t14.5 8t19 4q34 6 47 22.5
t17 46.5q9 27 5 434z" />
    <glyph glyph-name="U" unicode="U" horiz-adv-x="766" 
d="M36 574q-17 0 -17 11q-1 6 6 9.5t18 3.5q143 -12 225 0q21 2 23 -2q2 -2 2 -6q1 -4 -4 -9t-13 -7q-83 -27 -83 -87q-3 -169 0 -280q2 -83 30 -127.5t96 -44.5q57 0 105 25.5t76.5 64.5t45 80t18.5 77q4 63 4 225q-2 23 -24.5 42t-63.5 22q-8 1 -16.5 6t-6.5 12q5 11 41 7
q19 -2 93.5 -2t97.5 2q31 3 31 -8q0 -12 -18 -17q-34 -11 -45 -29t-11 -63q0 -4 -2.5 -94.5t-2.5 -149.5t4 -110q9 -50 23.5 -65.5t61.5 -30.5q16 -6 16 -16q0 -11 -20 -13q-27 -3 -97 -3q-62 0 -64 108q0 19 -2 33q0 6 -3.5 7t-6.5 -0.5t-5 -3.5q-26 -33 -46.5 -54.5
t-54 -48t-76 -40t-92.5 -13.5q-76 0 -123 46t-47 129q0 18 10 318q1 53 -19.5 73t-63.5 23z" />
    <glyph glyph-name="V" unicode="V" horiz-adv-x="705" 
d="M18 582q0 25 48 14q77 -11 176 0q28 4 36.5 1.5t8.5 -14.5q0 -8 -4 -11.5t-16 -5.5q-32 -8 -40 -20q-13 -19 0 -60q7 -19 33 -89l39 -105t34.5 -87.5t39.5 -90.5q12 -26 19 -26q11 0 20 21q57 126 117 322q39 123 -29 145q-18 7 -19 11q-1 1 -1 4q0 10 32 10
q104 -8 166 -3q10 1 15.5 -3.5t3.5 -12.5q-4 -10 -19 -21q-49 -38 -89 -120q-96 -202 -139 -315q-23 -62 -26 -89q0 -19 -10 -25q-28 -17 -72 -19q-19 0 -26 15q-3 7 -19 58q-107 340 -151 420q-14 28 -43 51.5t-53 27.5q-32 4 -32 17z" />
    <glyph glyph-name="W" unicode="W" horiz-adv-x="989" 
d="M303 580q0 26 50 14q76 -11 173 0q28 5 36.5 2.5t8.5 -14.5q0 -8 -4 -11.5t-16 -5.5q-32 -8 -39 -20q-15 -18 -1 -59q9 -26 39.5 -115t52.5 -147.5t44 -106.5q1 -1 4 -6.5t5 -8.5t5.5 -6t6.5 -3q12 0 19 20q81 169 128 317q39 123 -30 145q-19 6 -20 10q-1 1 -1 4
q0 11 33 11q94 -8 165 -2q11 0 16 -5t3 -13t-19 -20q-49 -38 -90 -120q-126 -259 -146 -313q-22 -58 -26 -89q0 -19 -11 -25q-26 -17 -71 -19q-19 0 -26 15q-3 6 -19 58q-2 6 -10.5 35.5t-22 73t-26.5 82.5q-9 27 -21 0q-36 -83 -54 -131q-23 -52 -27 -89q0 -18 -10 -25
q-28 -17 -73 -19q-18 0 -26 15q-3 7 -6.5 17.5t-6.5 23t-5 17.5q-103 345 -140 419q-14 28 -43 51t-53 27q-31 4 -31 16q0 26 48 14q67 -9 152 0q28 5 36.5 2.5t8.5 -14.5q0 -8 -4 -11.5t-16 -5.5q-21 -5 -24.5 -32.5t5.5 -46.5q8 -22 39.5 -114t53 -149.5t44.5 -105.5
q12 -24 19 -24q11 0 21 20q55 119 86 197q6 18 0 35q-17 51 -55 141q-15 27 -44 50t-53 28q-32 6 -32 16z" />
    <glyph glyph-name="X" unicode="X" horiz-adv-x="735" 
d="M99 579q0 8 5.5 13.5t13.5 4.5q98 -8 163 -2q18 2 23 -7t2 -27q-5 -29 5 -47q38 -67 75 -122q17 -23 30 -12q16 14 41.5 59t38.5 75q15 37 5 52q-11 10 -9 22q1 5 11 7t18 0q40 -5 105 -1q27 3 27 -12q1 -13 -22 -17q-29 -9 -89 -69q-12 -12 -54.5 -69t-55.5 -78
q-7 -10 3 -28q17 -33 41.5 -71t52.5 -77t31 -44q22 -33 58 -61.5t69 -33.5q18 -4 23.5 -8t5.5 -14q0 -15 -38 -14q-82 8 -153 3q-4 0 -12.5 -1.5t-13 -1.5h-10t-8 2.5t-3.5 7.5q-1 8 7 25q11 20 -1 49q-5 12 -104 178q-18 27 -42 -1q-18 -21 -40 -49t-49 -69t-34 -65
q-8 -29 6 -43t15 -22q0 -6 -3.5 -9t-11.5 -3t-19 1q-12 2 -60.5 2.5t-60.5 -0.5q-54 -7 -54 9q0 19 30 24q37 9 88 58q129 129 174 190q20 27 9 49q-10 24 -52.5 92.5t-56.5 83.5q-31 32 -46 41.5t-45 11.5q-29 3 -29 18z" />
    <glyph glyph-name="Y" unicode="Y" horiz-adv-x="561" 
d="M19 583q-1 6 6.5 10t19.5 3q64 -7 157 -1q17 2 21 -7q5 -10 -10 -26q-15 -18 -6 -42q-4 3 17.5 -35.5t45 -78.5t25.5 -43q11 -11 27 3q19 19 54 71.5t39 70.5q8 37 -26 61q-10 5 -11 9t1 10q1 4 9 6t14 1q48 -8 119 -2q30 6 30 -13q0 -2 -0.5 -3.5l-1 -3t-1.5 -3t-2 -2.5
t-3 -2.5t-3.5 -2.5l-4.5 -3t-5 -3t-6 -3.5t-6 -3.5q-18 -12 -67 -71q-14 -18 -53 -66t-54 -69q-25 -32 -28 -68q-1 -18 -1 -170q1 -33 22.5 -51.5t61.5 -30.5q20 -7 20 -16q-1 -17 -33 -11q-28 5 -100 6t-116 -5q-36 -7 -38 4q-2 9 3 13.5t20 7.5q38 6 61 26.5t24 48.5
q6 87 2 183q-2 23 -7 37q-11 29 -55.5 101t-65.5 100q-41 45 -69 47q-26 3 -26 17z" />
    <glyph glyph-name="Z" unicode="Z" horiz-adv-x="575" 
d="M550 185q13 -1 9 -44q-4 -33 -21.5 -76t-49.5 -62q-26 -9 -57 -6q-16 1 -60 3.5t-60 3.5t-52.5 2t-59 0t-55.5 -2.5t-66 -5.5q-24 -2 -34.5 7.5t1.5 28.5q271 347 363 502q9 16 6.5 20t-18.5 4q-40 1 -130 -1q-28 0 -52 -16t-36 -31.5t-30 -44.5q-3 -4 -7.5 -13.5
t-7.5 -14t-8 -8t-11 -3.5q-9 0 -10.5 7.5t0.5 20.5q0 3 24 130q3 22 17 22q2 0 10.5 -3t12.5 -4q134 -18 339 -6q22 1 26 -9.5t-3 -17.5q-31 -42 -94.5 -127.5t-96 -130.5t-78.5 -114t-82 -131q-9 -16 10 -21q26 -7 143 -7q55 0 92.5 10t57.5 31.5t28.5 38.5t17.5 48
q3 13 7.5 17t14.5 3z" />
    <glyph glyph-name="bracketleft" unicode="[" horiz-adv-x="272" 
d="M195 633q25 0 25 -12q0 -14 -22 -16q-5 -1 -32.5 -1.5t-35.5 -0.5q-8 -1 -11.5 -3.5t-4 -6.5t-0.5 -16q-1 -38 -2 -266.5t0 -286.5q0 -11 2.5 -15t11.5 -4q2 0 37.5 -1t41.5 -1q8 0 12.5 -5t4.5 -11q0 -5 -6 -9.5t-13 -4.5q-4 0 -63 1.5t-68 1.5q-12 0 -16.5 4t-4.5 17
q4 369 2 611q0 11 2.5 15.5t6.5 5.5t15 1q5 0 59.5 1.5t58.5 1.5z" />
    <glyph glyph-name="backslash" unicode="\" horiz-adv-x="448" 
d="M48 610q11 2 21 -6t25 -34q30 -48 141 -241.5t128 -219.5q4 -7 16.5 -22.5t20.5 -28t10 -25.5q5 -34 -10 -54q-9 -12 -22 5q-11 15 -41 72q-3 6 -70.5 132t-121.5 225.5t-75 133.5q-32 49 -32 55q2 6 10 8z" />
    <glyph glyph-name="bracketright" unicode="]" horiz-adv-x="272" 
d="M77 -28q-24 0 -24 12q0 14 22 16q4 0 31 1t36 2q14 1 15 10q1 2 2 15q2 17 2.5 269.5t-0.5 284.5q-1 8 -1.5 11t-3.5 5.5t-10 2.5q-2 0 -37 1.5t-42 1.5q-8 0 -12 5t-4 10t6 9.5t13 4.5q4 0 63 -1.5t68 -1.5q12 0 16.5 -4t4.5 -17q-4 -369 -2 -612q0 -15 -4.5 -18.5
t-19.5 -3.5q-5 0 -60 -1.5t-59 -1.5z" />
    <glyph glyph-name="asciicircum" unicode="^" horiz-adv-x="401" 
d="M195 551q-7 -8 -54.5 -87.5t-60.5 -104.5q-5 -8 -7 -11t-7.5 -5t-14.5 -2q-10 0 -8 8l13 26q75 122 122 210q10 16 27 20q3 1 5 1t4 -0.5t3 -0.5t3 -1.5t2.5 -2.5t2 -3.5t2 -4t2.5 -5t3 -5.5q42 -76 89 -147q4 -6 13.5 -18.5t16 -23.5t8.5 -20q3 -23 -11 -37q-7 -9 -16 3
q-7 9 -19 30.5t-13 24.5q-4 6 -34.5 63t-52.5 93q-8 15 -18 0z" />
    <glyph glyph-name="underscore" unicode="_" horiz-adv-x="440" 
d="M43 -65q-16 0 -22 4t-2 14q9 17 41 17q164 1 315 14q19 4 32 3.5t13 -12.5q0 -15 -28 -31q-11 -6 -37 -6q-141 -3 -312 -3z" />
    <glyph glyph-name="grave" unicode="`" 
d="M317 510q11 -10 2 -19q-7 -9 -35 10q-2 1 -124 60q-6 3 -4.5 12t11.5 12q31 10 39 11q21 4 28 2t19 -16q16 -22 64 -72z" />
    <glyph glyph-name="a" unicode="a" horiz-adv-x="481" 
d="M114 444q8 0 13 -16t34 -16q21 0 67 6.5t68 6.5q36 0 59 -20t21 -48q-6 -206 -6 -226q0 -70 21 -67q8 3 18 15q6 7 15.5 24.5t14.5 22.5q8 8 15 5q9 -2 6 -13q-16 -42 -53.5 -85t-68.5 -43q-22 0 -28.5 13.5t-8.5 43.5q0 3 -2.5 8t-5.5 5q-4 0 -14 -8q-71 -66 -129 -66
q-119 0 -119 112q0 40 30.5 71.5t70.5 42.5q131 39 146 45q17 6 25 16.5t9.5 19.5t1.5 28q0 26 -12.5 37t-44.5 10q-22 -1 -72.5 -9.5t-77.5 -8.5q-22 0 -26.5 9.5t-0.5 31.5q6 22 19 41q9 12 15 12zM103 109q2 -78 74 -78q32 0 72 30t48 76q9 51 8 85q0 13 -18 9
q-91 -25 -131 -42q-53 -24 -53 -80z" />
    <glyph glyph-name="b" unicode="b" horiz-adv-x="500" 
d="M62 -80q-6 2 -6 16q11 99 11 134q0 73 6.5 266.5t6.5 249.5q0 41 -8 50q-14 14 -64 10q-21 -3 -21 8q0 9 17 13q10 2 49 8t56 10q20 6 32 6q11 0 10 -28q-3 -51 -6 -187.5t-4 -154.5q0 -12 4.5 -16.5t14.5 7.5q29 46 74 82t87 36q146 0 146 -175q0 -107 -65 -187.5
t-173 -80.5q-44 0 -80 17q-18 9 -23.5 10t-12.5 -8q-6 -12 -36 -75q-4 -12 -15 -11zM298 372q-36 0 -74 -30t-61 -77q-19 -42 -23.5 -77t-2.5 -90q1 -19 3 -25t11 -15q14 -14 40.5 -25.5t50.5 -11.5q72 0 115 63.5t43 168.5q0 51 -26.5 85t-75.5 34z" />
    <glyph glyph-name="c" unicode="c" horiz-adv-x="423" 
d="M224 -7q-89 0 -141 51t-48 146q2 58 27.5 106t62 76.5t74 44t67.5 15.5q38 0 70.5 -12t38.5 -41q4 -26 -12.5 -51t-42.5 -35q-12 -5 -19 0q-3 8 5 17q6 4 11 15t5 18q0 24 -19 38.5t-56 14.5q-51 0 -97.5 -57.5t-46.5 -140.5q0 -66 37 -111.5t102 -45.5q93 0 128 52
q7 9 14 9q8 -1 6 -17q-2 -11 -43 -56q-25 -25 -53 -31q-27 -5 -70 -5z" />
    <glyph glyph-name="d" unicode="d" horiz-adv-x="569" 
d="M439 692q10 2 17.5 -3.5t6.5 -13.5q-3 -30 -3 -34q0 -63 -3 -194t-5.5 -229.5t-0.5 -110.5q4 -32 15 -46t34 -9q2 1 13 5.5t17 4.5q12 0 14 -8t-12 -16t-62 -27.5t-63 -19.5q-16 0 -24 30.5t-8 57.5q0 30 -5 30q-4 0 -13 -11q-22 -26 -32 -37t-34 -32.5t-47 -31.5
t-47 -10q-78 0 -123 53.5t-45 121.5q0 106 67.5 185t164.5 79q41 0 77 -7q30 -9 36.5 -6t9.5 41q4 49 4 130q0 27 -0.5 35t-5 18t-14.5 11t-30 0q-2 0 -8 -0.5t-10.5 -1t-11 -0.5t-11 0.5t-8.5 1.5t-6 3.5t-1 5.5q3 12 23 14q80 8 134 21zM223 40q47 0 94 53t56 109
q11 70 3 124q0 33 -35.5 50t-79.5 17q-76 0 -115 -64t-39 -146q0 -58 29.5 -100.5t86.5 -42.5z" />
    <glyph glyph-name="e" unicode="e" horiz-adv-x="432" 
d="M237 41q83 0 119 30q14 10 28 26q7 8 15 3q7 -4 3 -12q-7 -14 -37 -46.5t-42 -37.5q-39 -14 -105 -14q-89 -1 -140.5 50t-51.5 145q0 103 71 176t150 73q83 0 116.5 -51t21.5 -111q0 -1 -5 -18q-4 -7 -19 -7q-34 0 -119 -1.5t-117 -1.5q-17 0 -21 -1.5t-6 -9.5
q-4 -12 -4 -34q2 -63 43 -110.5t100 -47.5zM139 350q-35 -41 -33 -70q0 -9 13 -9l181 6q13 1 17 4.5t4 15.5q-2 44 -23.5 71t-60.5 27q-60 0 -98 -45z" />
    <glyph glyph-name="f" unicode="f" horiz-adv-x="364" 
d="M196 71q3 -38 126 -51q10 -2 10 -10q0 -13 -14 -11q-175 9 -278 -1q-20 -2 -20 12t18 15q25 3 40.5 6.5t30 18t14.5 38.5q4 215 3 262q0 17 -3 21.5t-12 4.5q-11 0 -27.5 -0.5t-17.5 -0.5q-14 0 -5 21q7 14 18 18t33 4q10 0 13.5 2.5t4.5 12.5q15 127 75 194.5t107 67.5
q66 0 66 -79q0 -42 -32 -74q-14 -14 -21 -8q-7 5 -2 16q15 30 6.5 54t-34.5 24q-46 0 -75 -47.5t-29 -151.5q0 -10 15 -10q16 0 66.5 3.5t79.5 2.5q5 0 7.5 -5.5t0.5 -11.5q-3 -16 -23 -34q-7 -7 -23 -7q-8 0 -50 4t-54 4t-15.5 -4.5t-3.5 -17.5q0 -206 5 -282z" />
    <glyph glyph-name="g" unicode="g" horiz-adv-x="462" 
d="M419 464q11 8 20 2q10 -7 -8 -32q-23 -31 -68 -59q-6 -4 -8.5 -7t-2.5 -4.5t3 -6.5t4 -8q9 -18 9 -41q0 -51 -47.5 -89t-109.5 -45q-22 -2 -37 -17t-15 -36q0 -22 5.5 -28.5t29.5 -20.5q14 -8 44.5 -20.5t69 -27.5t50.5 -20q42 -17 63 -38.5t21 -57.5q0 -59 -45 -103
t-103.5 -62.5t-115.5 -18.5q-103 0 -152.5 26.5t-49.5 73.5q0 80 95 128q25 13 33 3t-6 -21q-28 -21 -39 -41t-10 -49q1 -36 33 -62t96 -26q77 0 131 42.5t54 86.5q0 37 -52 60q-27 13 -52.5 23.5t-55.5 22t-48 18.5q-30 13 -44.5 27.5t-14.5 38.5q0 30 23 58q4 5 12 13.5
t10 10.5q6 8 5.5 12t-11.5 4q-44 2 -81.5 29t-37.5 77t35 87t74.5 51t70.5 14q39 0 65 -7q37 -11 54 -11q45 0 104 51zM91 285q0 -37 25 -60t61 -23q49 0 81.5 29.5t32.5 76.5q0 45 -29.5 66.5t-75.5 21.5q-31 0 -63 -29.5t-32 -81.5z" />
    <glyph glyph-name="h" unicode="h" horiz-adv-x="616" 
d="M43 668q47 4 114 21q24 6 30 -1.5t6 -34.5q-2 -69 -5.5 -164t-3.5 -180q0 -27 20 4q21 34 74.5 77t101.5 42q58 0 92.5 -32t33.5 -91q0 -11 -1.5 -87.5t-0.5 -94.5q2 -57 11.5 -76.5t41.5 -22.5q40 -4 41 -17q0 -9 -4.5 -12t-16.5 -2q-5 0 -43 3t-50 3q-59 0 -87 -5
q-13 -2 -13 11q0 14 18 17q31 7 31 51q3 59 -1 213q-1 41 -24 63.5t-54 22.5q-59 0 -110 -57t-56 -125q-4 -44 1 -111q1 -21 17 -34t32.5 -16.5t40.5 -6.5q20 -2 20 -17q0 -12 -18 -12q-106 11 -240 0q-22 -1 -22 12q0 4 5.5 8t11.5 5q47 7 62 19.5t18 55.5q7 98 7 485
q0 42 -12 55t-53 7q-29 -4 -30 8q-3 16 15 16z" />
    <glyph glyph-name="i" unicode="i" horiz-adv-x="304" 
d="M33 390q11 3 52.5 14.5t61.5 15.5q45 10 45 -17q0 -5 -3.5 -124t-2.5 -162q3 -57 9 -65q5 -6 13 -10q11 -6 62 -18q16 0 15 -15q-3 -12 -35 -9q-137 7 -210 -2q-21 -2 -21 9t26 16q43 10 57 22t14 31q0 1 1.5 111t0.5 169q0 24 -27 22q-21 0 -47 -8q-19 -4 -21 6
q-2 11 10 14zM176 656q37 0 39 -31q0 -27 -21 -44q-22 -20 -37 -20q-26 0 -26 49q2 16 15 31t30 15z" />
    <glyph glyph-name="j" unicode="j" horiz-adv-x="257" 
d="M21 390q13 3 55.5 14.5t62.5 15.5q45 10 45 -17q-4 -277 -6 -319q-5 -99 -27 -173q-25 -85 -70.5 -135.5t-96.5 -50.5q-28 0 -48 16t-19 45q1 42 55 80q8 6 16 6t10 -5.5t-3 -14.5q-15 -23 -15 -41q0 -34 39 -34q29 0 49.5 34.5t29.5 78.5q15 75 15 153q0 182 -4 313
q0 24 -27 22q-21 0 -47 -8q-17 -3 -21 5q0 13 7 15zM168 656q36 0 38 -31q2 -26 -20 -44q-22 -20 -38 -20q-25 0 -25 49q2 17 14.5 31.5t30.5 14.5z" />
    <glyph glyph-name="k" unicode="k" horiz-adv-x="593" 
d="M245 -3q-120 9 -202 0q-24 -1 -24 12q0 14 28 18q33 5 51.5 21.5t23.5 52.5q9 65 9 489q0 28 -5 37q-19 19 -48 14q-13 -2 -29 -2q-12 0 -13 10q-2 9 9 13q14 4 58 14.5t59 15.5q18 4 25 4q5 0 9 -1.5t6 -3.5t3 -6t1 -6v-7v-4q-8 -167 -8 -410q0 -11 5 -11t18 11
q112 110 135 125q37 26 62.5 36.5t56.5 10.5q39 0 41 -34q2 -21 -14.5 -49.5t-39.5 -38.5q-11 -5 -14 2.5t3 18.5q15 30 1 42q-18 14 -47 4q-24 -10 -53.5 -34t-47.5 -46q-10 -12 -3 -26q28 -54 71 -112t86 -91q29 -26 57 -26q15 0 42 10q18 5 21 -4t-9 -18
q-13 -9 -49 -22.5t-55 -13.5q-22 0 -34 5.5t-35 25.5q-35 31 -84.5 98.5t-61.5 101.5q-6 17 -23 8q-12 -7 -18 -13t-7.5 -9.5t-2.5 -10.5q-1 -15 -1 -95q0 -38 11 -57t39 -22q25 -4 25 -16q0 -14 -28 -11z" />
    <glyph glyph-name="l" unicode="l" horiz-adv-x="315" 
d="M43 668q17 2 114 21q24 5 30 -2t6 -34q-9 -448 -4 -570q0 -21 17 -34t32 -16t41 -7q20 -2 20 -17q0 -12 -20 -12q-95 10 -237 0q-23 -2 -23 12q0 10 15 13q48 8 64.5 20t17.5 55q7 131 7 485q0 44 -11 56t-54 6q-29 -4 -30 8q-1 8 3.5 12t11.5 4z" />
    <glyph glyph-name="m" unicode="m" horiz-adv-x="818" 
d="M600 6q0 9 14 12q10 2 17 5t13.5 13.5t7.5 27.5q7 120 0 215q-8 95 -56 95q-36 1 -75.5 -45t-58.5 -101q-3 -9 -5.5 -18t-4 -20.5t-2 -18t-1 -22t-0.5 -20.5v-26v-26q0 -8 2 -14.5t4.5 -11t8 -9t9 -7t11 -5.5l10 -4t10 -3t8.5 -2q23 -5 23 -13q0 -11 -25 -11q-10 0 -40 3
t-52 3q-5 0 -27 -2.5t-37 -2.5q-14 0 -16 10q0 9 24 20q10 5 15 16t9 40q6 66 -1 197q-6 93 -53 93q-33 0 -70.5 -40t-62.5 -106q-4 -11 -6.5 -25t-3.5 -31t-1.5 -28.5t0 -33t0.5 -29.5q0 -32 16.5 -43t56.5 -16q10 -1 15.5 -6t4.5 -11q-1 -11 -24 -8q-3 0 -44 3t-57 3
q-15 0 -61.5 -3t-51.5 -3q-22 0 -23 9t7.5 12.5t23.5 5.5q30 3 49 19.5t20 40.5q7 176 3 273q-1 31 -23.5 34.5t-52.5 -4.5q-21 -2 -21 11q0 9 25 14q52 10 119 16q8 1 11.5 -3t5.5 -20.5t2 -48.5q0 -13 -1 -29t-1 -20.5v-12.5q3 -21 15 -3q40 65 79.5 102.5t90.5 40.5
q41 0 59 -41t18 -89q0 -12 6.5 -13.5t14.5 10.5q78 133 163 133q25 0 43 -15t27 -39t13 -47.5t4 -46.5v-211q0 -19 15.5 -32.5t40.5 -18.5q25 -7 25 -16q0 -11 -24 -11q-10 0 -36.5 3t-50.5 3q-12 0 -34.5 -3t-33.5 -3q-22 0 -22 9z" />
    <glyph glyph-name="n" unicode="n" horiz-adv-x="585" 
d="M483 291l3 -216q0 -19 15.5 -32.5t40.5 -18.5q24 -7 24 -16q0 -11 -23 -11q-10 0 -39 2.5t-53 2.5q-12 0 -35 -2.5t-34 -2.5q-19 0 -21 3q-1 2 -1 6q0 9 15 12q10 2 16.5 5t13 13.5t7.5 27.5q6 107 1 226q-1 47 -18.5 69t-39.5 22q-80 0 -145 -121q-21 -36 -24 -118
q-1 -11 0 -31.5t1 -29.5q0 -20 6.5 -30.5t15 -13.5t25 -6.5t26.5 -8.5q11 -3 16 -7t4 -10q-1 -11 -24 -8q-3 0 -44 3t-57 3q-14 0 -61 -3t-52 -3q-23 0 -23 10q0 17 31 17q25 0 46.5 18t23.5 42q4 78 4 254q0 22 -8 32.5t-33 10.5q-14 0 -34 -5q-17 -2 -18 7q-2 12 16 16
q56 9 91 19q22 8 35 8q23 0 23 -15q0 -19 -1.5 -46.5t-2.5 -39t0 -23.5q2 -8 6 -9.5t9 6.5q81 133 183 133q93 0 93 -141z" />
    <glyph glyph-name="o" unicode="o" horiz-adv-x="500" 
d="M227 -15q-95 0 -147 57.5t-52 156.5q0 52 26.5 105t85.5 93t136 40q85 0 138 -54.5t53 -130.5q1 -65 -19 -117.5t-55 -84.5t-77.5 -48.5t-88.5 -16.5zM258 400q-73 0 -117 -54.5t-45 -128.5q0 -93 46.5 -145.5t99.5 -52.5q61 0 107 52.5t46 167.5q-4 65 -41 113t-96 48z
" />
    <glyph glyph-name="p" unicode="p" horiz-adv-x="537" 
d="M190 3q-14 4 -20.5 2.5t-7.5 -12.5q0 -4 -0.5 -14t-0.5 -16q-1 -56 7 -135q1 -8 6.5 -25t7.5 -23q5 -25 -11 -34q-38 -17 -70 -17q-17 0 -21 10q-9 19 -1 99q10 79 13 145q1 47 1 343q0 37 -14.5 49t-61.5 9q-14 -1 -16 7q-2 11 17 15t60 10.5t63 11.5q25 0 28.5 -14
t-1.5 -38q0 -7 -1 -24.5t-2 -31t-1 -17.5q0 -10 2.5 -13t7 0t9.5 12q27 48 73 91.5t94 43.5q73 0 109.5 -46t36.5 -145q0 -92 -70.5 -172.5t-153.5 -80.5q-37 0 -82 10zM162 144q0 -15 -0.5 -39t-0.5 -28q0 -18 15 -25q47 -22 101 -22q49 0 84.5 34t51 80t15.5 94
q0 72 -27.5 106.5t-64.5 34.5q-72 0 -130 -89q-14 -20 -31 -59q-13 -37 -13 -87z" />
    <glyph glyph-name="q" unicode="q" horiz-adv-x="518" 
d="M377 -271q-17 0 -21 10q-9 19 -1 99q16 133 12 229q-2 22 -5 22q0 8 -12 -4q-2 -2 -5 -6q-24 -30 -68 -61t-83 -31t-69 11.5t-47.5 28.5t-28.5 39t-15 40t-4 34q-5 123 78.5 207.5t191.5 84.5q40 -1 75 -17q17 -4 17.5 -3.5t8.5 12.5q14 21 32 66q9 22 18 22q8 0 8 -20
q0 -6 -5 -29.5t-5 -26.5q-21 -220 -5 -608q1 -8 7 -25.5t7 -22.5q5 -25 -11 -34q-38 -17 -70 -17zM216 36q42 0 84 37t56 79q5 9 9.5 41t4.5 50q0 10 1 32.5t1 40.5t-2 33q-4 24 -34 35t-61 11q-68 -2 -119.5 -66.5t-51.5 -162.5q0 -62 34 -96t78 -34z" />
    <glyph glyph-name="r" unicode="r" horiz-adv-x="401" 
d="M20 7q-1 6 5 10.5t11 4.5q6 1 16.5 2.5t16 2.5t14 3t12.5 4.5t9 6.5t7 9.5t3 12.5q9 80 9 270q0 17 -2 25.5t-9 18t-23 12.5t-42 0q-23 -3 -23 9q0 8 17 12q4 1 6 2q17 1 102 14q25 5 35 -1t11 -27q1 -16 -1.5 -49t-2.5 -37q0 -8 2.5 -11t7 0t8.5 10q13 24 21 36.5
t24 34.5t35 34t40 15q31 2 40.5 -13t9.5 -44q0 -63 -34 -116q-3 -6 -8.5 -7.5t-9.5 2.5q-4 5 0 21q9 24 6 49t-18 31q-31 13 -60.5 -20.5t-47.5 -74.5q-14 -30 -14 -65q-3 -87 -3 -91q2 -47 20.5 -60.5t72.5 -18.5q25 -4 25 -15q0 -13 -25 -11q-119 10 -240 -1q-22 0 -23 10
z" />
    <glyph glyph-name="s" unicode="s" horiz-adv-x="353" 
d="M218 433q84 0 86 -49q1 -26 -33 -56q-13 -9 -19 -5t-2 18q7 25 -8.5 42.5t-47.5 17.5q-37 0 -59.5 -20t-22.5 -43q0 -22 12.5 -36t38.5 -27l64 -27q91 -34 91 -105q0 -79 -50 -116.5t-124 -37.5q-60 0 -89.5 19t-29.5 50q0 21 17 43t38 35q16 10 24 2q6 -9 -4 -19
q-13 -18 -13 -43q0 -23 21.5 -38.5t52.5 -15.5q37 0 72.5 21t34.5 63q-1 26 -16.5 42t-46.5 31q-12 6 -48 21.5t-48 22.5q-28 17 -40.5 34t-12.5 50q0 36 17 62.5t43.5 39.5t52 18.5t49.5 5.5z" />
    <glyph glyph-name="t" unicode="t" horiz-adv-x="326" 
d="M153 545q8 0 10 -10q3 -5 1 -51.5t-2 -55.5q0 -11 7 -11q68 0 110 9q16 2 19 -7q4 -15 -8 -34q-9 -15 -24 -14q-41 5 -93 5q-5 0 -8.5 -0.5t-5 -2.5t-2 -3t-0.5 -5.5v-5.5q-1 -33 -2 -123t1 -124q3 -33 15 -47t25 -12.5t28 11.5q1 1 40 31q15 13 23 5q6 -6 -4 -20
q-13 -20 -63.5 -56.5t-75.5 -36.5q-12 0 -25.5 11.5t-25.5 44t-12 80.5q0 26 2.5 106.5t2.5 134.5q0 14 -12 15q-10 1 -48 1q-17 1 -3 22q7 12 19 12q34 0 38 1q10 1 16 13q10 17 17.5 32t10 21.5t9 25.5t8.5 26q3 12 12 12z" />
    <glyph glyph-name="u" unicode="u" horiz-adv-x="569" 
d="M322 405q13 3 40 9.5t48.5 11t32.5 4.5h8t5.5 -1t4.5 -1.5t3 -2t1.5 -2.5t0.5 -4v-4.5v-5.5v-7q0 -39 -5 -142t-4 -154q1 -42 12 -56t39 -10q40 11 42 -4q2 -10 -15 -17q-98 -29 -119 -29q-13 0 -20 5t-8 11t-2 19q-1 10 -1 72q0 16 -13 7l-7 -8q-21 -31 -37 -50t-51 -39
t-77 -20q-115 0 -115 136q0 30 2.5 102t0.5 129q-1 17 -20 28.5t-46 6.5q-30 -9 -30 6q-1 5 3.5 8.5t11.5 3.5q10 1 41 7t57.5 11t34.5 5t11.5 -0.5t7 -5.5t3.5 -15q1 -10 -2 -127t-3 -136q0 -107 71 -107q37 0 76.5 31t59.5 76q26 53 27 110q3 73 0 103q-1 23 -20.5 27.5
t-38.5 -0.5q-20 -2 -23 4q-5 10 13 15z" />
    <glyph glyph-name="v" unicode="v" horiz-adv-x="499" 
d="M207 -8q-7 0 -12 10t-9.5 30t-6.5 26q-38 124 -93 270q-7 18 -13.5 29.5t-20 19.5t-20 10.5t-30.5 10.5q-20 6 -18 15q1 10 24 10q5 0 23.5 -1.5t36.5 -2.5t34 -1q14 0 39.5 2t37.5 2h12t6.5 -1t4.5 -3t1 -5q0 -6 -20 -15q-20 -8 -23.5 -34.5t2.5 -38.5q4 -17 39.5 -118
t46.5 -126q4 -7 10.5 -6.5t10.5 6.5q92 164 111 272q4 16 -7.5 29t-30.5 19q-13 4 -18.5 7t-4.5 7q1 11 22 8q26 -5 77 -5q20 0 50 5q19 2 19 -10q0 -9 -16 -22q-21 -16 -42 -57q-7 -14 -37 -72.5t-57 -113.5t-40 -86q-6 -11 -5 -27q2 -17 -29.5 -30t-53.5 -13z" />
    <glyph glyph-name="w" unicode="w" horiz-adv-x="721" 
d="M184 -2q-4 1 -6.5 2.5t-4.5 5.5l-3 6t-2.5 7.5t-1.5 6.5q-61 244 -100 338q-8 18 -20.5 25.5t-38.5 12.5q-12 1 -18 4t-5 9q2 8 24 7q84 -6 123 0q35 5 37 -5q4 -10 -9 -18q-16 -12 -13 -30q2 -14 36 -138t39 -139q7 -20 21 -4q6 9 26.5 50.5t38.5 81t19 40.5
q20 47 20 67q0 42 -12 55.5t-52 19.5q-18 2 -18 11q0 10 14 10q7 0 91.5 -2.5t90.5 2.5q22 1 26 -5q4 -11 -11 -17q-22 -8 -33.5 -18t-13 -27.5t-0.5 -27.5t7 -38q7 -36 30 -113t27 -94q2 -7 8 -6.5t9 7.5q16 35 46.5 115t37.5 106q11 48 11 60q0 6 -1 10.5t-4.5 8t-5 5.5
t-7.5 4.5t-7 3t-9 3.5l-8 2q-5 1 -9 4t-3 7q1 10 16 10q57 -6 119 0q24 1 24 -10q0 -6 -15 -18q-25 -21 -58 -82q-48 -89 -107 -242q-3 -7 -7 -28t-4 -22q-5 -7 -25.5 -14.5t-34.5 -8.5q-8 -1 -14 6t-9 18q-60 234 -62 243q-2 7 -7 7.5t-8 -5.5q-35 -62 -91 -194
q-1 -3 -5 -28.5t-8 -29.5q-8 -9 -29 -14.5t-41 -2.5z" />
    <glyph glyph-name="x" unicode="x" horiz-adv-x="543" 
d="M32 409q0 15 34 13q71 -6 140 2q22 2 22 -10q0 -7 -15 -22q-12 -10 7 -38q53 -75 60 -84q8 -10 19 -1q19 16 44 43t31 41q19 36 -5 45q-20 8 -20 16q0 9 22 9q44 -6 103 -1q15 2 15 -10q0 -8 -13 -16q-24 -13 -34 -26l-123 -123q-9 -11 -3 -21q44 -67 117 -150
q32 -39 63 -49q3 -1 7 -2.5t6 -2t4.5 -1.5t3.5 -1.5t2.5 -1.5t2 -2t1.5 -2t1 -2.5v-3.5q0 -13 -26 -11q-78 7 -139 0q-25 -4 -25 11q0 7 13 20q9 10 -5 38q-9 15 -37.5 55t-40.5 54q-8 10 -22 1q-34 -31 -64 -78q-19 -34 -19 -46q1 -11 36 -27q29 -7 29 -17q0 -13 -27 -9
q-69 8 -160 -2q-17 0 -17 11q0 16 23 22q10 3 21.5 10t17.5 12.5t21.5 20.5t21.5 21q12 12 48 53t48 56q9 15 0 29l-28 40t-40 54t-37 39q-5 6 -16.5 10.5t-28.5 9.5t-21 7q-18 5 -18 17z" />
    <glyph glyph-name="y" unicode="y" horiz-adv-x="481" 
d="M69 -274q-54 0 -54 62q0 49 30 81q11 12 21.5 16t13.5 -1q3 -3 2 -9t-7 -9q-18 -11 -16 -40t27 -29q32 0 61.5 34t44.5 69t22 64q3 5 2 15t-1.5 13t-3 12.5t-3.5 12.5q-7 26 -54 169.5t-61 167.5q-24 40 -81 45q-20 3 -20 15q0 15 52 8q25 -4 49 -4t51 2t41 2
q12 -3 7.5 -17t-14.5 -26q-6 -8 2 -46q13 -52 25 -92.5t27 -83.5t21 -61q2 -8 4 -12t5 -7.5t7 0t10 13.5q59 107 85 232q12 59 -18 69q-34 9 -34 19q0 14 38 12q67 -7 114 0q6 0 10.5 -1.5t6 -4t1.5 -3.5q0 -15 -14 -25q-20 -14 -46 -64q-22 -39 -88.5 -185t-89.5 -187
q-5 -10 -23 -51t-34 -73.5t-25 -44.5q-45 -57 -93 -57z" />
    <glyph glyph-name="z" unicode="z" horiz-adv-x="475" 
d="M112 450q9 0 13 -17q5 -20 38 -22q34 -2 126.5 6t111.5 8q11 0 10 -14q-5 -21 -20 -49q-13 -21 -118 -126.5t-129 -136.5q-15 -18 -15 -23.5t21 -9.5q29 -4 87 -4.5t77 2.5q44 3 67 15t39 46q8 19 15 29.5t13 9.5q8 -1 8 -30q0 -32 -19 -70.5t-43 -56.5q-10 -11 -49 -8
q0 4 -144 1t-153 -3q-14 0 -14 11q0 16 9 35t19 28q141 135 260 268q3 4 2 7.5t-7 6t-16 2.5q-101 0 -158 -9q-10 -1 -21.5 -1.5t-24.5 1t-20 8t-5 16.5q5 28 22 61q12 19 18 19z" />
    <glyph glyph-name="braceleft" unicode="{" horiz-adv-x="277" 
d="M195 631q25 0 25 -11q0 -12 -29 -16q-49 -7 -45 -82q0 -20 25 -76.5t24 -90.5q0 -18 -19 -34.5t-19 -20.5q0 -5 9.5 -10t18.5 -14.5t9 -26.5q0 -23 -25.5 -81.5t-25.5 -84.5q0 -82 50 -87q2 -1 6 -2q20 -6 21 -14q0 -14 -38 -14q-53 0 -84 28t-31 82q0 34 45 91t45 91
q0 14 -20 20.5t-44 6.5q-7 0 -23 -1.5t-22 -1.5q-18 0 -13 18q4 20 21 20q4 0 18 -4.5t25 -4.5q68 0 68 46q0 16 -16 39t-34.5 42.5t-34.5 46.5t-16 51q0 41 43.5 68t85.5 27z" />
    <glyph glyph-name="bar" unicode="|" horiz-adv-x="302" 
d="M127 -25v552q0 26 7 37q6 11 15 19.5t15 8.5q12 0 12.5 -13t-3.5 -32q-8 -96 -11 -555q0 -32 -17 -41q-10 -4 -14 2t-4 22z" />
    <glyph glyph-name="braceright" unicode="}" horiz-adv-x="277" 
d="M83 -34q-24 0 -24 11q0 14 29 16q50 7 45 84q-1 21 -26 76t-24 89q0 18 19 35t19 21q0 5 -9 9.5t-18 14t-9 26.5q0 24 24.5 82.5t24.5 83.5q0 80 -48 88q-27 5 -27 16q0 13 38 13q53 0 83.5 -27.5t30.5 -81.5q0 -28 -22.5 -59.5l-45 -63t-22.5 -59.5q0 -14 20 -20.5
t44 -6.5q7 0 23 3.5t22 3.5q19 0 14 -19q-5 -20 -21 -20q-5 0 -19 3t-25 3q-13 0 -26 -2.5t-27 -13.5t-14 -30q0 -20 25 -50t50 -64t25 -65q0 -41 -43.5 -68.5t-85.5 -27.5z" />
    <glyph glyph-name="asciitilde" unicode="~" horiz-adv-x="435" 
d="M36 226q-6 4 12 24q59 59 99 59q24 0 79 -19q41 -14 75 -14q40 0 65 22q3 3 8.5 8t7.5 6.5t6.5 4t7.5 -0.5q13 -4 0 -26q-19 -29 -50.5 -48.5t-58.5 -19.5q-41 0 -81 13q-58 18 -70 18q-35 0 -69 -22q-19 -13 -31 -5z" />
    <glyph glyph-name="uni00A0" unicode="&#xa0;" horiz-adv-x="226" 
 />
    <glyph glyph-name="exclamdown" unicode="&#xa1;" horiz-adv-x="229" 
d="M166 -133q0 -17 -5 -23.5t-18 -10.5q-35 -10 -57 -10q-19 0 -23 5q-2 5 -2 15q0 14 13.5 81t13.5 73q9 64 16 224q0 2 1 6q1 21 9 23q3 1 6 1q7 0 8.5 -5.5t2.5 -18.5v-7q1 -9 6 -93.5t9 -122.5q1 -5 10.5 -67t9.5 -70zM115 344q-20 0 -34.5 9.5t-14.5 25.5q0 24 18 37
t41 13q49 0 49 -41q0 -20 -20 -32t-39 -12z" />
    <glyph glyph-name="cent" unicode="&#xa2;" horiz-adv-x="423" 
d="M35 193q3 80 47 134t106 80l27 10q9 5 9 17q0 7 0.5 30.5t1.5 28.5q1 10 11 14q12 4 17 4q8 0 8 -14q1 -14 1 -59q0 -13 11 -13q34 0 65 -12.5t36 -37.5q4 -26 -12.5 -51t-42.5 -35q-12 -5 -19 0q-4 7 5 17q6 4 11 15t5 18q0 50 -75 50q-53 0 -99.5 -53t-46.5 -136
q0 -61 37.5 -107.5t103.5 -46.5q47 0 67 7q40 15 61 45q7 9 12 9q8 -1 8 -17q0 -10 -19 -35t-38 -38q-16 -11 -67 -17q-14 -2 -14 -19q0 -5 -0.5 -18t-1 -23.5t-1.5 -14.5q-1 -9 -11 -13q-10 -5 -17 -5t-7 14q-1 14 -1 63q0 15 -11 15q-79 3 -125 53.5t-42 140.5z" />
    <glyph glyph-name="sterling" unicode="&#xa3;" horiz-adv-x="565" 
d="M378 456q-10 10 10 25q12 12 14.5 32t-12 37.5t-45.5 17.5q-46 0 -87 -29t-42 -73q0 -38 32 -71q18 -16 33 -58q9 -26 25 -26q78 0 101 9q15 4 21 4q12 0 4 -21q-3 -6 -15 -24q-10 -13 -26 -13q-3 0 -40.5 0.5t-48.5 0.5q-22 -1 -23 -15q-3 -67 -64 -138l-13 -12
q-3 -8 3.5 -9t15.5 2q17 3 45 3q31 0 67 -14q39 -14 76 -14q35 0 62.5 26t31.5 64q2 21 6 27.5t14 6.5t10 -29q0 -74 -55 -137q-16 -19 -25 -24t-28 -8q-13 -3 -39 -3q-35 0 -86 17q-48 13 -91 12q-57 0 -111 -22q-23 -10 -34 -9.5t-13 20.5q-1 20 13 51q11 20 34 21
q21 1 36.5 10.5t36.5 32.5q45 53 45 125q0 12 -17 14q-10 1 -26.5 1h-22.5q-12 0 -14.5 4t1.5 16q2 4 5 7t9 4.5t10 2l12 1.5t11 1q38 6 3 46q-47 54 -47 107q0 62 73 105.5t141 43.5q54 0 85.5 -12t31.5 -47q0 -23 -19.5 -47.5t-42.5 -36.5q-21 -13 -31 -5z" />
    <glyph glyph-name="currency" unicode="&#xa4;" horiz-adv-x="424" 
d="M65 436q6 -4 18 -10.5t15 -8.5q7 -5 15 0q46 29 101 29q63 0 105 -26q8 -4 19 0q1 1 27 16q25 15 33 3q4 -8 -8 -20l-29 -22q-11 -5 -2 -13q27 -32 27 -79q0 -43 -36 -82q-7 -7 -1 -11q7 -5 38 -30q14 -12 9 -20q-9 -12 -32 3q-25 16 -35 20q-11 5 -18 1q-40 -25 -97 -25
q-67 0 -103 23q-7 4 -18 0q-11 -5 -33 -19q-24 -14 -32 -3q-6 8 8 20l34 25q9 7 2 15q-27 34 -27 80q0 48 27 78q7 11 0 16q-7 6 -17.5 13.5t-13.5 9.5q-14 12 -8 20q7 12 32 -3zM82 304q0 -44 37.5 -78t94.5 -34q55 0 94 33t39 79t-37 78t-96 32q-54 0 -93 -32.5t-39 -77.5
z" />
    <glyph glyph-name="yen" unicode="&#xa5;" horiz-adv-x="550" 
d="M207 335q-11 29 -52.5 95.5t-61.5 91.5q-34 43 -66 47q-24 3 -26 16q-1 6 7 10t19 3q73 -8 155 -1q16 1 21 -8q4 -10 -10 -24q-15 -18 -6 -41q-10 6 84 -147q3 -6 4 -7q10 -12 26 3q18 17 51 69t37 69q7 38 -26 61q-12 7 -9 17q0 4 8 6.5t13 1.5q20 -3 65.5 -3.5
t51.5 1.5q29 6 29 -13q0 -10 -22 -23l-3 -3l-7 -4q-20 -12 -65 -69q-12 -16 -53 -67t-58 -75q-5 -8 -3 -11t10 -2q16 2 48.5 4.5t41.5 3.5q5 0 14 1.5t13 1.5t9 -0.5t7 -3.5t2 -8q0 -15 -28 -31q-11 -6 -37 -6q-7 0 -19.5 -0.5t-31.5 -1t-33 -0.5q-12 0 -13 -9
q-3 -27 -1 -62q1 -9 2.5 -11.5t7.5 -2.5q65 4 108 8q19 4 32 3.5t13 -12.5q0 -16 -28 -30q-11 -7 -37 -7q-7 0 -20 -0.5t-32.5 -1t-34.5 -0.5q-11 0 -11 -12v-47q1 -33 22 -51t61 -30q19 -7 19 -15q-1 -17 -32 -11q-27 5 -98 6t-115 -5q-35 -7 -37 4q-2 9 3 13.5t19 6.5
q37 6 59.5 25.5t23.5 47.5l1 21q1 20 1 35q0 11 -15 11q-47 2 -95 0q-14 0 -19.5 4.5t-1.5 13.5q7 17 40 17t79 2q9 0 11 2.5t2 11.5q0 47 -1 61q0 13 -11 13h-99q-13 0 -19 4.5t-2 13.5q7 17 40 17q46 0 71 1q13 0 8 12z" />
    <glyph glyph-name="brokenbar" unicode="&#xa6;" horiz-adv-x="301" 
d="M127 320v45v82v79.5v45.5q0 11 7 16q21 21 29 21q9 0 11 -4t-1 -17q-8 -38 -11 -261q0 -15 -17 -17q-18 -6 -18 10zM127 -38v45v82v80v46q0 12 7 17q19 19 29 19q9 0 10.5 -3.5t-0.5 -16.5q-8 -38 -11 -261q0 -14 -17 -18q-18 -4 -18 10z" />
    <glyph glyph-name="section" unicode="&#xa7;" horiz-adv-x="383" 
d="M68 477q-1 44 26.5 74t61.5 41t70 11q87 0 90 -51q1 -23 -33 -57q-12 -8 -20 -6q-5 2 -2 19q6 23 -11 42.5t-47 19.5q-39 0 -58.5 -19t-19.5 -43q1 -22 13.5 -36t40.5 -29q8 -4 68 -27q46 -17 73.5 -44.5t28.5 -64.5q3 -68 -47 -112q-14 -11 0 -20q23 -23 24 -56
q0 -37 -18.5 -65t-47.5 -41.5t-56.5 -19.5t-53.5 -6q-89 0 -90 50q-1 16 11 33t22 24q13 8 20 6q6 -2 2 -18q-6 -24 10.5 -43.5t47.5 -19.5q39 0 67.5 23t28.5 46q-1 35 -60 65q-6 3 -34 13t-37 14q-44 16 -71.5 45.5t-27.5 67.5q0 36 11.5 57.5t35.5 45.5q13 15 0 29
q-17 22 -18 52zM297 274q-1 25 -19 41t-52 33q-16 8 -50 22l-35 13q-19 8 -31 -4q-22 -24 -21 -56q3 -26 20 -42t50 -32q12 -7 28.5 -14t36 -14.5t27.5 -11.5q15 -5 25 2q27 23 21 63z" />
    <glyph glyph-name="dieresis" unicode="&#xa8;" 
d="M97 630q35 0 37 -30q2 -24 -20 -42q-20 -18 -36 -18q-24 0 -24 47q2 15 14 29t29 14zM252 630q35 0 37 -30q2 -23 -20 -42q-22 -18 -37 -18q-23 0 -23 47q1 15 13.5 29t29.5 14z" />
    <glyph glyph-name="copyright" unicode="&#xa9;" horiz-adv-x="679" 
d="M148 263q0 116 70.5 183t162.5 67q42 0 68.5 -17t26.5 -48q0 -30 -27 -57q-10 -12 -14 -6q-8 0 -1 13q8 30 -9.5 56.5t-54.5 26.5q-82 0 -123.5 -54t-41.5 -126q0 -79 41 -124t119 -45q50 0 83 25q19 16 33 33q1 2 5 2.5t6 -2.5q6 -3 1 -12q-4 -12 -19 -34t-28 -33
q-11 -11 -31 -14q-41 -7 -82 -7q-80 0 -132.5 49t-52.5 124zM38 283q0 132 96 225.5t220 93.5q134 0 211 -81t77 -215q0 -131 -87.5 -225t-211.5 -94q-140 0 -222.5 74.5t-82.5 221.5zM78 285q0 -130 72.5 -196t194.5 -66q107 0 182.5 85t75.5 198q0 116 -69 189t-180 73
q-109 0 -192.5 -83.5t-83.5 -199.5z" />
    <glyph glyph-name="ordfeminine" unicode="&#xaa;" horiz-adv-x="438" 
d="M332 316q6 0 14 8t17 21t12 16q5 7 15 4q8 -3 6 -13q-13 -34 -45 -68t-57 -34q-18 0 -24.5 11.5t-7.5 34.5q0 10 -7 10q-2 0 -12 -5q-58 -49 -105 -49q-96 0 -96 86q0 64 55 87q13 5 72.5 21t72.5 21q23 7 23 32q0 31 -7.5 42t-36.5 7q-7 -1 -47 -9t-63 -8q-32 0 -25 38
q2 13 14 35q8 13 14 13q9 0 11 -9q6 -18 25 -18q17 -1 54.5 5.5t55.5 6.5q68 0 68 -63q0 -25 -3 -84t-3 -91q0 -48 10 -48zM107 346q0 -54 56 -54q26 0 57 23t38 58q7 38 6 61q0 10 -14 6l-24 -6q-8 -3 -25 -7.5t-26.5 -7.5t-22 -9t-21.5 -13q-24 -20 -24 -51zM56 139
q-16 0 -21.5 4t-1.5 14q8 16 40 16q144 2 279 15q5 0 14 1.5t12.5 1.5t8.5 -0.5t7 -3.5t2 -9q0 -15 -27 -30q-11 -7 -37 -7q-24 0 -138.5 -1t-137.5 -1z" />
    <glyph glyph-name="guillemotleft" unicode="&#xab;" horiz-adv-x="393" 
d="M178 377q9 -6 -10 -39q-45 -70 -57 -101q-7 -20 3 -45q9 -22 58 -90q17 -25 6 -35q-13 -8 -34 18q-35 38 -106 104q-7 7 -9.5 10.5t-1.5 12t9 19.5q4 5 49 57.5t60 72.5q8 12 18 17t15 -1zM346 377q9 -6 -10 -39q-45 -70 -57 -101q-7 -20 3 -45q7 -16 58 -90
q17 -25 6 -35q-13 -8 -34 18q-35 38 -106 104q-10 10 -11.5 16t10.5 26q8 10 51 60.5t57 69.5q8 12 18 17t15 -1z" />
    <glyph glyph-name="logicalnot" unicode="&#xac;" horiz-adv-x="411" 
d="M51 269q-16 0 -21.5 4t-1.5 14q8 17 40 17q141 2 274 12q5 0 13.5 1.5t13 2t9 -0.5t6.5 -4t2 -8q0 -1 -1.5 -31t-2.5 -63.5t0 -48.5q1 -9 -1 -11.5t-10 -6.5q-10 -4 -27 -7q-8 -2 -11.5 2t-2.5 15q2 40 2 97q0 19 -12 19q-201 -3 -269 -3z" />
    <glyph glyph-name="uni00AD" unicode="&#xad;" horiz-adv-x="0" 
d="M-87 295q6 2 72.5 7t90.5 14q28 11 31 -1.5t-9 -33.5q-8 -19 -23 -25t-46 -7q-58 -2 -124 -2q-19 0 -24.5 4.5t-0.5 18.5q7 18 33 25z" />
    <glyph glyph-name="registered" unicode="&#xae;" horiz-adv-x="682" 
d="M38 285q0 132 96.5 225.5t220.5 93.5q135 0 212.5 -81t77.5 -217q0 -131 -88 -225t-213 -94q-140 0 -223 74.5t-83 223.5zM78 286q0 -130 73 -196.5t195 -66.5q108 0 183.5 85t75.5 199q0 117 -69 190t-182 73q-115 0 -195.5 -84t-80.5 -200zM178 468q0 14 25 10
q15 -3 44 -3t65.5 1t46.5 1q27 0 44.5 -2t36 -8t27.5 -19.5t9 -35.5q0 -44 -99 -95q-14 -7 -7 -25q17 -59 48.5 -104t62.5 -45q17 0 27 6q4 2 9 -3q6 -6 -4 -14q-23 -24 -69 -24q-33 0 -75 63t-56 128q-2 15 2.5 19t22.5 10q88 35 88 79q0 38 -72 45q-7 0 -13.5 0.5
t-12.5 0.5h-11.5t-10 -0.5t-7.5 -0.5h-5h-1q-10 -1 -13 -4.5t-3 -14.5q-11 -199 -2 -260q3 -15 8 -22t22 -16q3 -2 12 -5t14 -6.5t6 -8.5q2 -10 -24 -8q-18 2 -46.5 2t-56 -1t-28.5 -1q-12 -2 -13 5t7.5 12.5t17.5 5.5q5 1 9.5 3t7 3.5t4.5 5t3.5 5t2 6.5t0.5 6t0.5 7t0.5 7
q4 46 4 245q0 16 -8.5 25t-14 10.5t-16.5 3.5q-9 3 -9 11z" />
    <glyph glyph-name="macron" unicode="&#xaf;" 
d="M119 508q-13 0 -17.5 4t-0.5 13q5 17 30 17q155 3 213 9q4 0 10.5 1t10 1.5t7 -0.5t5 -4t1.5 -8q0 -12 -21 -25q-9 -7 -28 -7q-36 -1 -210 -1z" />
    <glyph glyph-name="degree" unicode="&#xb0;" horiz-adv-x="311" 
d="M42 485q0 49 36 84t83 35q51 0 79.5 -30.5t28.5 -81.5q0 -49 -32.5 -84t-79.5 -35q-53 0 -84 28t-31 84zM77 485q0 -39 21.5 -59t58.5 -20q33 0 56 26t23 60q0 35 -21 57.5t-55 22.5q-33 0 -58 -25.5t-25 -61.5z" />
    <glyph glyph-name="plusminus" unicode="&#xb1;" horiz-adv-x="419" 
d="M52 274q-16 0 -21.5 4t-1.5 14q7 17 40 17q90 2 113 2q11 1 14 4.5t3 15.5q0 11 1 30.5t2 41.5q0 33 17 41q18 8 18 -24q0 -6 -0.5 -31t-0.5 -54q0 -14 3 -17.5t13 -2.5q2 0 99 8q19 4 32 3.5t13 -12.5q0 -16 -28 -30q-11 -7 -37 -7q-7 0 -18.5 -0.5t-29 -1t-30.5 -0.5
q-12 -1 -15 -4t-3 -16v-58q0 -26 -7 -37q-6 -11 -15 -19.5t-15 -8.5q-13 0 -13.5 13t4.5 32q4 32 7 81q1 11 -2 14t-16 3q-53 -1 -126 -1zM52 66q-32 0 -23 17q7 17 40 17q142 2 282 14q19 4 32 3.5t13 -12.5q0 -6 -8.5 -15t-19.5 -15q-11 -7 -37 -7q-94 -2 -279 -2z" />
    <glyph glyph-name="twosuperior" unicode="&#xb2;" horiz-adv-x="336" 
d="M50 270q87 83 140 153q36 50 36 78q0 20 -8.5 30.5t-16.5 12t-22 1.5q-12 0 -36 -6q-22 -8 -44 -8q-17 0 -25.5 8.5t-7.5 23.5q0 15 12 39q7 14 15 14q5 0 11 -15q4 -14 21 -14q12 0 34.5 5.5t41.5 5.5q68 0 68 -63q-2 -42 -27 -80q-26 -45 -112 -142q-11 -14 0 -15
q15 -2 54.5 -2t48.5 2q18 2 29.5 13t11.5 29q0 13 12 13q9 0 9 -15q0 -53 -27 -82q-20 -15 -31 -14q-64 8 -188 1q-5 0 -6 5.5t1 12t6 9.5z" />
    <glyph glyph-name="threesuperior" unicode="&#xb3;" horiz-adv-x="305" 
d="M82 622q6 0 9 -13q2 -13 7.5 -17t17.5 -4q10 0 33 5t35 5q53 0 53 -42q0 -52 -48 -85q-9 -7 -8 -9t9 -4q72 -9 72 -98q0 -48 -38.5 -85t-94.5 -37q-87 0 -87 50q0 16 16.5 30.5t34.5 19.5q7 2 11 -2q2 -5 -6 -15q-17 -19 -1.5 -35t51.5 -16q32 0 53 19.5t21 52.5
q0 76 -97 81q-26 3 -26 9t4 13.5t10 9.5q85 31 85 66q0 37 -82 17q-22 -7 -39 2t-17 33q0 10 10 36q4 13 12 13z" />
    <glyph glyph-name="acute" unicode="&#xb4;" 
d="M158 494q-2 0 -2.5 2.5t1.5 7t7 9.5q8 10 50 66q16 24 36 30q26 8 63 8q9 -1 8 -10t-7 -13q-41 -25 -133 -94q-15 -11 -23 -6z" />
    <glyph glyph-name="mu" unicode="&#xb5;" horiz-adv-x="573" 
d="M146 -228q0 -27 -22 -33q-38 -11 -58 -12q-8 -1 -13.5 -0.5t-8 5t-2.5 15.5q0 13 12 79.5t12 72.5q19 138 19 226q0 30 2.5 100.5t0.5 127.5q-1 16 -20 28t-46 6q-27 -3 -30 3q-5 14 15 16q11 1 67 11.5t66 10.5q8 0 11.5 -0.5t7 -5.5t3.5 -15q1 -10 -2 -125.5t-3 -134.5
q0 -98 71 -98q36 0 76.5 33t62.5 75q27 50 29 102q0 7 0.5 28t0.5 39t-1 31q-1 16 -11 23t-23 6t-26 -1q-19 -3 -23 3q-6 11 14 15q11 2 39.5 9.5t49 11.5t31.5 4h8t6 -1t4.5 -1t2.5 -2t1.5 -2.5t1 -3.5t0.5 -4.5v-6v-6.5q0 -42 -5.5 -144t-4.5 -151q0 -24 7.5 -43.5
t16.5 -20.5q8 0 25.5 3t25.5 4q12 1 14.5 -0.5t3.5 -8.5q2 -11 -15 -17q-98 -29 -119 -29q-13 0 -19.5 5t-8 10.5t-2.5 19.5q-2 15 -2 77q0 7 -3.5 9.5t-7.5 -0.5t-7 -8q-72 -114 -170 -114q-38 0 -72 20q-14 9 -14 -6q5 -61 11 -100q21 -133 21 -135z" />
    <glyph glyph-name="mu" unicode="&#x3bc;" horiz-adv-x="573" 
d="M146 -228q0 -27 -22 -33q-38 -11 -58 -12q-8 -1 -13.5 -0.5t-8 5t-2.5 15.5q0 13 12 79.5t12 72.5q19 138 19 226q0 30 2.5 100.5t0.5 127.5q-1 16 -20 28t-46 6q-27 -3 -30 3q-5 14 15 16q11 1 67 11.5t66 10.5q8 0 11.5 -0.5t7 -5.5t3.5 -15q1 -10 -2 -125.5t-3 -134.5
q0 -98 71 -98q36 0 76.5 33t62.5 75q27 50 29 102q0 7 0.5 28t0.5 39t-1 31q-1 16 -11 23t-23 6t-26 -1q-19 -3 -23 3q-6 11 14 15q11 2 39.5 9.5t49 11.5t31.5 4h8t6 -1t4.5 -1t2.5 -2t1.5 -2.5t1 -3.5t0.5 -4.5v-6v-6.5q0 -42 -5.5 -144t-4.5 -151q0 -24 7.5 -43.5
t16.5 -20.5q8 0 25.5 3t25.5 4q12 1 14.5 -0.5t3.5 -8.5q2 -11 -15 -17q-98 -29 -119 -29q-13 0 -19.5 5t-8 10.5t-2.5 19.5q-2 15 -2 77q0 7 -3.5 9.5t-7.5 -0.5t-7 -8q-72 -114 -170 -114q-38 0 -72 20q-14 9 -14 -6q5 -61 11 -100q21 -133 21 -135z" />
    <glyph glyph-name="paragraph" unicode="&#xb6;" 
d="M294 597q14 0 41.5 -2t40.5 -2q20 0 44 3t34 4q17 0 17 -14q-2 -9 -22 -13q-49 -7 -53 -72q-15 -319 22 -476q3 -10 3.5 -13.5t-2 -6t-9.5 -5.5q-20 -8 -33 -8q-9 0 -12 4t-6 21v2q-14 79 0 518q1 22 -18 22h-3q-16 0 -19 -14q-13 -99 -12.5 -269.5t9.5 -242.5
q0 -4 1.5 -10t2 -9t-2 -6.5t-9.5 -5.5q-11 -5 -30 -8q-7 -1 -12 0.5t-7.5 2.5t-3.5 7t-1 9v13q0 64 12 227q1 10 -2.5 14t-10.5 1q-50 -22 -103 -22q-50 0 -83 38t-33 91q1 92 77.5 157t182.5 65z" />
    <glyph glyph-name="periodcentered" unicode="&#xb7;" horiz-adv-x="145" 
d="M68 232q-24 0 -37.5 14.5t-13.5 38.5q0 22 17 40t46 18q22 0 35.5 -12.5t13.5 -31.5q0 -32 -18.5 -49.5t-42.5 -17.5z" />
    <glyph glyph-name="cedilla" unicode="&#xb8;" 
d="M224 5q8 11 17 8q4 -1 6.5 -4t3.5 -5.5t0 -3.5q-4 -7 -15 -32q-7 -16 16 -23q47 -15 47 -63q0 -26 -30 -44.5t-70 -24.5q-21 -3 -21 11q0 10 18 13q54 6 54 28q0 27 -56 44q-18 6 -8 25q26 44 38 71z" />
    <glyph glyph-name="onesuperior" unicode="&#xb9;" horiz-adv-x="290" 
d="M53 241q-6 -1 -8.5 2.5t-2.5 9.5q0 3 5 6.5t8 3.5q28 2 41 5.5t22.5 16t10.5 38.5q3 89 1 206q-1 14 -15 7q-6 -3 -39 -28q-17 -11 -25 -3q-2 2 0.5 8.5t8.5 10.5q56 39 85 66q8 8 17.5 10.5t15 -2.5t5.5 -16q-5 -102 -5 -261q0 -31 10 -41.5t48 -14.5q12 -2 12 -10
q0 -14 -16 -13q-43 3 -179 -1z" />
    <glyph glyph-name="ordmasculine" unicode="&#xba;" horiz-adv-x="434" 
d="M204 256q-77 0 -119.5 44.5t-42.5 122.5q0 66 52 124t142 58q69 0 113 -41t44 -101q0 -97 -56.5 -152t-132.5 -55zM223 567q-58 0 -87.5 -35.5t-29.5 -94.5q0 -74 31.5 -109t75.5 -35q47 0 80.5 35.5t33.5 124.5q0 51 -29.5 82.5t-74.5 31.5zM56 143q-16 0 -21.5 4
t-1.5 14q9 17 40 17q133 1 287 14q5 0 14 1.5t13 1.5t9 -0.5t7 -3.5t2 -8q0 -15 -28 -31q-11 -6 -37 -6q-141 -3 -284 -3z" />
    <glyph glyph-name="guillemotright" unicode="&#xbb;" horiz-adv-x="393" 
d="M216 67q-3 3 -3.5 7t1.5 9t3.5 8.5t4.5 8.5l4 6q45 71 57 102q4 23 3.5 25.5t-6.5 19.5q-9 22 -58 90q-18 24 -6 34q12 8 34 -18q19 -19 106 -104q10 -9 11.5 -15.5t-9.5 -25.5q-8 -10 -51.5 -61t-57.5 -70q-8 -12 -18 -16.5t-15 0.5zM48 67q-3 3 -3.5 7t1.5 9t3.5 8.5
t4.5 8.5l4 6q46 72 56 102q5 23 4.5 26t-6.5 19q-7 16 -58 90q-18 24 -6 34q12 8 34 -18q12 -13 106 -104q10 -9 11.5 -15.5t-10.5 -25.5q-9 -13 -52 -63t-56 -68q-8 -12 -18 -16.5t-15 0.5z" />
    <glyph glyph-name="onequarter" unicode="&#xbc;" horiz-adv-x="677" 
d="M53 247q-11 0 -11 12q0 3 5 6.5t8 3.5q41 3 56 13.5t17 46.5q3 86 1 206q-1 13 -15 6q-3 -2 -38 -28q-17 -11 -25 -3q-2 2 0.5 8.5t8.5 10.5q56 39 84 65q8 8 17.5 10.5t15.5 -2.5t5 -16q-6 -113 -4 -259q0 -30 10 -40.5t46 -14.5q13 -2 13 -10q0 -15 -16 -14
q-63 6 -178 -1zM375 100q-6 0 -8.5 0.5t-3.5 2.5t0 7q2 13 12 26q56 62 131 163q16 24 16 37q0 11 17 15q16 4 35 2q8 0 6 -14l-5 -188v-5t2.5 -3t8.5 -2q21 0 33 12q8 8 12 4q6 -3 2 -11q-10 -19 -26 -37q-12 -10 -26 -10q-9 0 -9 -20q0 -13 3 -37q2 -16 5 -29
q2 -11 -5 -18q-18 -16 -45 -23q-8 -2 -10.5 3.5t-2.5 19.5q0 5 2.5 19t2.5 18q2 26 2 56q0 16 -12 16q-9 0 -57 -2t-80 -2zM511 141q9 0 9 13q3 62 2 99q0 13 -7 13q-3 0 -12 -12q-47 -59 -76 -97q-11 -16 7 -16q2 0 20 -1t34.5 -1t22.5 2zM150 -35q-16 3 -5 24q4 6 26 40
q66 106 282 501q9 15 28 73q4 9 13.5 9.5t13.5 -6.5q6 -8 -2 -65q-6 -34 -25 -61q-17 -27 -137 -227.5t-148 -246.5q-26 -43 -46 -41z" />
    <glyph glyph-name="onehalf" unicode="&#xbd;" horiz-adv-x="731" 
d="M53 247q-11 0 -11 12q0 3 5 6.5t8 3.5q41 3 56 13.5t17 46.5q3 86 1 206q-1 13 -15 6q-3 -2 -38 -28q-17 -11 -25 -3q-2 2 0.5 8.5t8.5 10.5q56 39 84 65q8 8 17.5 10.5t15.5 -2.5t5 -16q-6 -113 -4 -259q0 -30 10 -40.5t46 -14.5q13 -2 13 -10q0 -15 -16 -14
q-63 6 -178 -1zM445 26q85 80 141 152q30 44 34 65q1 7 1 14q0 20 -8.5 30.5t-16.5 12t-21 1.5q-12 0 -36 -6q-24 -8 -44 -8q-17 0 -26 8.5t-8 23.5t13 39q7 14 14 14t11 -15q6 -14 21 -14q12 0 35 5.5t42 5.5q33 0 50 -14.5t17 -49.5q-2 -42 -26 -80q-33 -53 -113 -141
q-7 -9 -6.5 -11.5t7.5 -3.5q14 -2 53.5 -2t49.5 2q40 5 41 42q0 13 12 13q8 0 8 -16q0 -54 -27 -81q-11 -15 -30 -14q-65 8 -189 1q-10 -1 -4 18q2 6 5 9zM150 -35q-16 3 -5 24q4 6 26 40q66 106 282 501q9 15 28 73q4 9 13.5 9.5t13.5 -6.5q6 -8 -2 -65q-6 -34 -25 -61
q-17 -27 -137 -227.5t-148 -246.5q-26 -43 -46 -41z" />
    <glyph glyph-name="threequarters" unicode="&#xbe;" horiz-adv-x="682" 
d="M380 100q-6 0 -8.5 0.5t-3.5 2.5t0 7q5 17 12 26q56 62 131 163q16 24 16 37q0 11 17 15q16 4 35 2q8 0 6 -14l-5 -188v-5t2.5 -3t8.5 -2q21 0 33 12q8 8 12 4q6 -3 2 -11q-13 -24 -26 -37q-12 -10 -26 -10q-9 0 -9 -20q0 -13 3 -37q2 -16 5 -29q3 -10 -5 -18
q-18 -16 -45 -23q-8 -2 -10.5 3.5t-2.5 19.5q0 5 2.5 19t2.5 18q2 26 2 56q0 16 -12 16q-9 0 -57 -2t-80 -2zM516 141q9 0 9 13q3 62 2 99q0 13 -7 13q-3 0 -12 -12q-47 -59 -76 -97q-11 -16 7 -16q2 0 20.5 -1t34.5 -1t22 2zM82 625q6 0 9 -13q2 -13 7.5 -17t17.5 -4
q10 0 33 5t35 5q53 -2 53 -43q0 -52 -48 -85q-16 -10 1 -13q72 -9 72 -97q0 -48 -38.5 -85t-94.5 -37q-87 0 -87 49q0 16 16.5 30.5t34.5 20.5q6 2 11 -3q2 -5 -6 -15q-17 -19 -1.5 -34.5t51.5 -15.5q32 0 53 19.5t21 51.5q0 74 -97 82q-26 3 -26 8q0 6 4 14t10 10
q85 31 85 66q0 23 -35 23t-47 -7q-23 -6 -39.5 3t-16.5 33q0 9 10 35q4 14 12 14zM150 -35q-16 3 -5 24q4 6 26 40q66 106 282 501q9 15 28 73q4 9 13.5 9.5t13.5 -6.5q6 -8 -2 -65q-6 -34 -25 -61q-17 -27 -137 -227.5t-148 -246.5q-26 -43 -46 -41z" />
    <glyph glyph-name="questiondown" unicode="&#xbf;" horiz-adv-x="423" 
d="M265 253q14 0 14 -24q0 -65 -38 -111q-7 -9 -34.5 -36t-46.5 -50q-20 -26 -27.5 -60t0.5 -53q8 -27 33 -49t71 -22q44 0 72.5 26t28.5 64q0 30 -22 47t-52 10q-16 -5 -18.5 -5t-9.5 6q-4 6 0.5 11.5t9.5 6.5q38 24 83 24q28 0 50.5 -22t22.5 -61q0 -56 -55 -97.5
t-126 -41.5q-144 0 -165 92q-10 40 14 83t65 73q58 45 75 69q21 28 26.5 46t7.5 50q2 24 21 24zM253 342q-19 0 -33.5 9t-14.5 25q0 25 18 38.5t40 13.5q50 0 50 -42q0 -20 -20 -32t-40 -12z" />
    <glyph glyph-name="Agrave" unicode="&#xc0;" horiz-adv-x="724" 
d="M440 641q11 -10 2 -19q-7 -9 -35 10q-13 7 -62 30.5t-62 30.5q-4 2 -5 6.5t2 9.5t10 7q21 8 39 11q21 4 28 2t18 -15q21 -27 65 -73zM327 569q9 9 29 19.5t35 14.5q10 1 13 -2t8 -18q8 -22 93 -231t93 -225q1 -3 7 -15l7.5 -15t7 -13t8.5 -13.5t9 -11.5t11.5 -11t13 -8
t16.5 -8t19 -5q10 0 10 -14q0 -18 -23 -15q-33 5 -62 5.5t-66 -2.5t-52 -4h-6.5h-6.5t-5 0.5t-4 2t-1 4.5q0 10 9 13q23 9 29 21.5t4 35.5q-2 15 -15 53.5t-19 46.5q-1 1 -3.5 4.5t-3 4l-2.5 2.5t-4 2.5t-4.5 1.5t-6.5 1q-20 3 -106 3.5t-101 -0.5q-28 -1 -37 -15
q-19 -24 -36.5 -74t-7.5 -66q2 -3 18 -11.5t16 -17.5q0 -14 -23 -10q-51 9 -150 1q-30 -3 -30 9t25 20q36 11 85 72q40 46 96.5 157t99.5 212q20 48 5 79q-4 8 8 20zM358 471q-8 0 -21 -26q-6 -11 -48.5 -102t-43.5 -101q-5 -24 13 -24q124 0 198 3q11 2 13.5 6t-2.5 18
q-37 101 -94 209q-8 17 -15 17z" />
    <glyph glyph-name="Aacute" unicode="&#xc1;" horiz-adv-x="724" 
d="M349 624q-2 0 -2.5 2t1.5 6.5t7 10.5q4 5 50 66q16 22 36 29q29 9 63 9q10 -1 8.5 -10t-7.5 -13q-20 -13 -133 -94q-15 -11 -23 -6zM327 569q9 9 29 19.5t35 14.5q10 1 13 -2t8 -18q8 -22 93 -231t93 -225q1 -3 7 -15l7.5 -15t7 -13t8.5 -13.5t9 -11.5t11.5 -11t13 -8
t16.5 -8t19 -5q10 0 10 -14q0 -18 -23 -15q-33 5 -62 5.5t-66 -2.5t-52 -4h-6.5h-6.5t-5 0.5t-4 2t-1 4.5q0 10 9 13q23 9 29 21.5t4 35.5q-2 15 -15 53.5t-19 46.5q-1 1 -3.5 4.5t-3 4l-2.5 2.5t-4 2.5t-4.5 1.5t-6.5 1q-20 3 -106 3.5t-101 -0.5q-28 -1 -37 -15
q-19 -24 -36.5 -74t-7.5 -66q2 -3 18 -11.5t16 -17.5q0 -14 -23 -10q-51 9 -150 1q-30 -3 -30 9t25 20q36 11 85 72q40 46 96.5 157t99.5 212q20 48 5 79q-4 8 8 20zM358 471q-8 0 -21 -26q-6 -11 -48.5 -102t-43.5 -101q-5 -24 13 -24q124 0 198 3q11 2 13.5 6t-2.5 18
q-37 101 -94 209q-8 17 -15 17z" />
    <glyph glyph-name="Acircumflex" unicode="&#xc2;" horiz-adv-x="724" 
d="M269 625q-10 10 10 25q12 8 46 37t45 37q16 12 32 -2q12 -10 33.5 -32t36.5 -33q20 -18 12 -28q-7 -9 -24 1q-47 30 -58 35q-20 7 -34 3q-32 -11 -71 -38q-21 -13 -28 -5zM327 569q9 9 29 19.5t35 14.5q10 1 13 -2t8 -18q8 -22 93 -231t93 -225q1 -3 7 -15l7.5 -15t7 -13
t8.5 -13.5t9 -11.5t11.5 -11t13 -8t16.5 -8t19 -5q10 0 10 -14q0 -18 -23 -15q-33 5 -62 5.5t-66 -2.5t-52 -4h-6.5h-6.5t-5 0.5t-4 2t-1 4.5q0 10 9 13q23 9 29 21.5t4 35.5q-2 15 -15 53.5t-19 46.5q-1 1 -3.5 4.5t-3 4l-2.5 2.5t-4 2.5t-4.5 1.5t-6.5 1q-20 3 -106 3.5
t-101 -0.5q-28 -1 -37 -15q-19 -24 -36.5 -74t-7.5 -66q2 -3 18 -11.5t16 -17.5q0 -14 -23 -10q-51 9 -150 1q-30 -3 -30 9t25 20q36 11 85 72q40 46 96.5 157t99.5 212q20 48 5 79q-4 8 8 20zM358 471q-8 0 -21 -26q-6 -11 -48.5 -102t-43.5 -101q-5 -24 13 -24
q124 0 198 3q11 2 13.5 6t-2.5 18q-37 101 -94 209q-8 17 -15 17z" />
    <glyph glyph-name="Atilde" unicode="&#xc3;" horiz-adv-x="724" 
d="M237 633q-6 4 10 24q46 59 81 59q12 0 61 -18q32 -14 61 -14q34 0 53 21q2 2 5.5 6.5t5 6t4.5 4t4.5 2.5h4.5q11 -5 1 -27q-14 -29 -41 -48t-49 -19q-35 0 -65 12q-46 19 -56 19q-27 0 -55 -23q-16 -12 -25 -5zM327 569q9 9 29 19.5t35 14.5q10 1 13 -2t8 -18
q8 -22 93 -231t93 -225q1 -3 7 -15l7.5 -15t7 -13t8.5 -13.5t9 -11.5t11.5 -11t13 -8t16.5 -8t19 -5q10 0 10 -14q0 -18 -23 -15q-33 5 -62 5.5t-66 -2.5t-52 -4h-6.5h-6.5t-5 0.5t-4 2t-1 4.5q0 10 9 13q23 9 29 21.5t4 35.5q-2 15 -15 53.5t-19 46.5q-1 1 -3.5 4.5t-3 4
l-2.5 2.5t-4 2.5t-4.5 1.5t-6.5 1q-20 3 -106 3.5t-101 -0.5q-28 -1 -37 -15q-19 -24 -36.5 -74t-7.5 -66q2 -3 18 -11.5t16 -17.5q0 -14 -23 -10q-51 9 -150 1q-30 -3 -30 9t25 20q36 11 85 72q40 46 96.5 157t99.5 212q20 48 5 79q-4 8 8 20zM358 471q-8 0 -21 -26
q-6 -11 -48.5 -102t-43.5 -101q-5 -24 13 -24q124 0 198 3q11 2 13.5 6t-2.5 18q-37 101 -94 209q-8 17 -15 17z" />
    <glyph glyph-name="Adieresis" unicode="&#xc4;" horiz-adv-x="724" 
d="M315 713q35 0 37 -30q2 -24 -20 -42q-19 -19 -36 -19q-24 0 -24 47q2 16 14 30t29 14zM470 713q35 0 37 -30q2 -23 -20 -42q-21 -19 -37 -19q-23 0 -23 47q1 15 13.5 29.5t29.5 14.5zM327 569q9 9 29 19.5t35 14.5q10 1 13 -2t8 -18q8 -22 93 -231t93 -225q1 -3 7 -15
l7.5 -15t7 -13t8.5 -13.5t9 -11.5t11.5 -11t13 -8t16.5 -8t19 -5q10 0 10 -14q0 -18 -23 -15q-33 5 -62 5.5t-66 -2.5t-52 -4h-6.5h-6.5t-5 0.5t-4 2t-1 4.5q0 10 9 13q23 9 29 21.5t4 35.5q-2 15 -15 53.5t-19 46.5q-1 1 -3.5 4.5t-3 4l-2.5 2.5t-4 2.5t-4.5 1.5t-6.5 1
q-20 3 -106 3.5t-101 -0.5q-28 -1 -37 -15q-19 -24 -36.5 -74t-7.5 -66q2 -3 18 -11.5t16 -17.5q0 -14 -23 -10q-51 9 -150 1q-30 -3 -30 9t25 20q36 11 85 72q40 46 96.5 157t99.5 212q20 48 5 79q-4 8 8 20zM358 471q-8 0 -21 -26q-6 -11 -48.5 -102t-43.5 -101
q-5 -24 13 -24q124 0 198 3q11 2 13.5 6t-2.5 18q-37 101 -94 209q-8 17 -15 17z" />
    <glyph glyph-name="Aring" unicode="&#xc5;" horiz-adv-x="724" 
d="M379 626q-106 0 -106 71q0 43 39 64.5t82 21.5q101 0 102 -69q0 -40 -39 -64t-78 -24zM388 757q-26 0 -45.5 -15.5t-19.5 -36.5q0 -22 14.5 -36.5t45.5 -14.5q22 0 41 16t19 43q0 19 -16.5 31.5t-38.5 12.5zM327 569q9 9 29 19.5t35 14.5q10 1 13 -2t8 -18q8 -22 93 -231
t93 -225q1 -3 7 -15l7.5 -15t7 -13t8.5 -13.5t9 -11.5t11.5 -11t13 -8t16.5 -8t19 -5q10 0 10 -14q0 -18 -23 -15q-33 5 -62 5.5t-66 -2.5t-52 -4h-6.5h-6.5t-5 0.5t-4 2t-1 4.5q0 10 9 13q23 9 29 21.5t4 35.5q-2 15 -15 53.5t-19 46.5q-1 1 -3.5 4.5t-3 4l-2.5 2.5t-4 2.5
t-4.5 1.5t-6.5 1q-20 3 -106 3.5t-101 -0.5q-28 -1 -37 -15q-19 -24 -36.5 -74t-7.5 -66q2 -3 18 -11.5t16 -17.5q0 -14 -23 -10q-51 9 -150 1q-30 -3 -30 9t25 20q36 11 85 72q40 46 96.5 157t99.5 212q20 48 5 79q-4 8 8 20zM358 471q-8 0 -21 -26q-6 -11 -48.5 -102
t-43.5 -101q-5 -24 13 -24q124 0 198 3q11 2 13.5 6t-2.5 18q-37 101 -94 209q-8 17 -15 17z" />
    <glyph glyph-name="AE" unicode="&#xc6;" horiz-adv-x="906" 
d="M346 588q0 12 39 10q56 -7 98 -7q46 0 181 5.5t140 5.5q7 0 12.5 -0.5t9 -1.5t6 -1.5t4 -2.5t2 -2.5t1.5 -3.5l1 -3q8 -20 4.5 -69t-17.5 -64q-13 -15 -22 -7q-5 8 -3 17q8 44 -11.5 71t-64.5 27q-159 0 -189 -6q-12 -3 -14.5 -7t-2.5 -15q0 -17 -0.5 -80t-0.5 -70v-5.5
v-5.5t0.5 -5t1 -5l2 -4t3.5 -4t5.5 -3t7.5 -2.5t9.5 -1t12.5 -0.5q92 0 130 19q9 4 24 24.5t15 31.5q0 5 5.5 11t12.5 5q14 0 9 -32q-11 -81 -11 -145q0 -20 -16 -21q-4 0 -8.5 6t-5.5 14q-2 17 -18.5 34t-35.5 19q-26 1 -66.5 2t-48.5 0q-17 -1 -22 -5.5t-6 -18.5
q-3 -32 -3 -103.5t1 -79.5q2 -30 7 -39.5t28 -18.5q34 -14 95 -14q106 0 149.5 30t58.5 87q1 3 3 11t3 10.5t5 5t10 1.5q15 -2 10 -52q-4 -26 -28 -66.5t-56 -60.5q-26 -9 -57 -6q-30 2 -58 4.5t-38 2.5q-94 6 -163 4q-24 0 -54 -2.5t-54.5 -5.5t-28.5 -3q-18 0 -20 10
q-1 2 0 5t1 4.5t2.5 3.5t4 3t5 2.5t5.5 2.5t5.5 2t5.5 1.5t5.5 1.5t4.5 1q33 5 45.5 21t17.5 44q4 13 6 70q0 18 -13 20q-115 2 -151 0q-28 0 -41 -13q-23 -26 -44.5 -62t-21.5 -55q0 -25 42 -33q16 -4 14 -17q-3 -14 -26 -10q-53 10 -159 1q-15 -2 -22 0t-6 9q1 6 6 10
t12.5 6.5t9.5 3.5q34 21 81 71q45 48 138 182t155 233q14 25 -1 36q-12 9 -48 21q-16 4 -16 16zM440 477q0 8 -4 8t-9 -7q-17 -24 -85.5 -125t-71.5 -111q-3 -9 -4 -13.5t2 -7t11 -2.5q119 0 145 1q9 1 12 4t3 13q1 54 1 240z" />
    <glyph glyph-name="Ccedilla" unicode="&#xc7;" horiz-adv-x="563" 
d="M38 242q0 165 96.5 262.5t239.5 97.5q60 0 98.5 -24t38.5 -69q0 -37 -38 -83q-16 -16 -22 -8q-5 0 0 21q15 40 -13 81.5t-82 41.5q-64 0 -112 -24t-74.5 -64t-39.5 -85t-13 -93q0 -114 59 -180.5t171 -66.5q43 0 76 7q32 8 54 28q11 10 25.5 29t21.5 25q5 7 12 0t1 -18
q-6 -17 -28.5 -48t-39.5 -49q-11 -11 -28 -16q-45 -10 -98 -10q-16 0 -21 -10l-8 -20q-3 -8 0 -12.5t17 -10.5q46 -17 46 -64q0 -29 -29.5 -48t-73.5 -25q-21 -1 -21 10q0 10 19 13q55 8 55 29q0 29 -57 46q-20 6 -9 24q20 35 29 54q8 13 -8 14q-107 7 -175.5 74t-68.5 171z
" />
    <glyph glyph-name="Egrave" unicode="&#xc8;" horiz-adv-x="594" 
d="M371 641q11 -10 2 -19q-7 -9 -35 10q-13 7 -62 30.5t-62 30.5q-4 2 -5 6.5t2 9.5t10 7q21 8 39 11q21 4 28 2t18 -15q21 -27 65 -73zM26 585q0 14 39 10q70 -7 108 -7q47 0 180.5 5.5t138.5 5.5q7 0 12.5 -0.5t9 -1.5t6 -1.5t4 -2.5t2 -2.5t2 -3t1.5 -3.5
q7 -20 3.5 -68.5t-17.5 -64.5q-13 -13 -22 -6q-5 6 -3 16q9 45 -10.5 73t-63.5 28q-164 0 -190 -6q-13 -3 -15.5 -7t-2.5 -15q0 -17 -0.5 -81.5t-0.5 -71.5q0 -11 0.5 -14t3.5 -10t12.5 -9.5t25.5 -2.5q58 0 84 3.5t47 15.5q9 4 24.5 24t15.5 32q0 5 5.5 12t11.5 6
q15 0 10 -33q-12 -87 -12 -145q0 -19 -15 -20q-4 0 -8.5 5.5t-5.5 13.5q-2 18 -18.5 35t-35.5 18q-77 6 -117 3q-17 -1 -22 -6t-6 -18q-2 -33 -2 -182q2 -30 7 -39.5t27 -18.5q35 -14 98 -14q56 0 94.5 8.5t60.5 26t33.5 36t19.5 45.5q1 3 2 9t1.5 8.5t2.5 6t5 4.5t8 0
q15 -2 10 -51q-3 -25 -26.5 -66t-56.5 -61q-25 -8 -57 -6q-29 2 -57 4.5t-39 2.5q-92 6 -162 4q-24 0 -53.5 -2.5t-54 -5.5t-28.5 -3q-18 0 -20 10q-1 4 0 7t3.5 5.5t5.5 4.5t7.5 3.5l7.5 2.5t8 2.5t7 1.5q33 5 46 20.5t17 44.5q8 24 9 202.5t-1 196.5q-1 56 -88 71
q-16 4 -16 16z" />
    <glyph glyph-name="Eacute" unicode="&#xc9;" horiz-adv-x="594" 
d="M274 624q-2 0 -2.5 2t1.5 6.5t7 10.5q4 5 50 66q16 22 36 29q29 9 63 9q10 -1 8.5 -10t-7.5 -13q-20 -13 -133 -94q-15 -11 -23 -6zM26 585q0 14 39 10q70 -7 108 -7q47 0 180.5 5.5t138.5 5.5q7 0 12.5 -0.5t9 -1.5t6 -1.5t4 -2.5t2 -2.5t2 -3t1.5 -3.5q7 -20 3.5 -68.5
t-17.5 -64.5q-13 -13 -22 -6q-5 6 -3 16q9 45 -10.5 73t-63.5 28q-164 0 -190 -6q-13 -3 -15.5 -7t-2.5 -15q0 -17 -0.5 -81.5t-0.5 -71.5q0 -11 0.5 -14t3.5 -10t12.5 -9.5t25.5 -2.5q58 0 84 3.5t47 15.5q9 4 24.5 24t15.5 32q0 5 5.5 12t11.5 6q15 0 10 -33
q-12 -87 -12 -145q0 -19 -15 -20q-4 0 -8.5 5.5t-5.5 13.5q-2 18 -18.5 35t-35.5 18q-77 6 -117 3q-17 -1 -22 -6t-6 -18q-2 -33 -2 -182q2 -30 7 -39.5t27 -18.5q35 -14 98 -14q56 0 94.5 8.5t60.5 26t33.5 36t19.5 45.5q1 3 2 9t1.5 8.5t2.5 6t5 4.5t8 0q15 -2 10 -51
q-3 -25 -26.5 -66t-56.5 -61q-25 -8 -57 -6q-29 2 -57 4.5t-39 2.5q-92 6 -162 4q-24 0 -53.5 -2.5t-54 -5.5t-28.5 -3q-18 0 -20 10q-1 4 0 7t3.5 5.5t5.5 4.5t7.5 3.5l7.5 2.5t8 2.5t7 1.5q33 5 46 20.5t17 44.5q8 24 9 202.5t-1 196.5q-1 56 -88 71q-16 4 -16 16z" />
    <glyph glyph-name="Ecircumflex" unicode="&#xca;" horiz-adv-x="594" 
d="M215 628q-10 10 11 24q10 8 44 37t46 37q16 12 32 -1q10 -9 32.5 -31.5t37.5 -34.5q8 -6 12 -14t0 -14q-7 -9 -23 1q-55 34 -59 36q-17 7 -34 2q-30 -9 -71 -37q-22 -13 -28 -5zM26 585q0 14 39 10q70 -7 108 -7q47 0 180.5 5.5t138.5 5.5q7 0 12.5 -0.5t9 -1.5t6 -1.5
t4 -2.5t2 -2.5t2 -3t1.5 -3.5q7 -20 3.5 -68.5t-17.5 -64.5q-13 -13 -22 -6q-5 6 -3 16q9 45 -10.5 73t-63.5 28q-164 0 -190 -6q-13 -3 -15.5 -7t-2.5 -15q0 -17 -0.5 -81.5t-0.5 -71.5q0 -11 0.5 -14t3.5 -10t12.5 -9.5t25.5 -2.5q58 0 84 3.5t47 15.5q9 4 24.5 24
t15.5 32q0 5 5.5 12t11.5 6q15 0 10 -33q-12 -87 -12 -145q0 -19 -15 -20q-4 0 -8.5 5.5t-5.5 13.5q-2 18 -18.5 35t-35.5 18q-77 6 -117 3q-17 -1 -22 -6t-6 -18q-2 -33 -2 -182q2 -30 7 -39.5t27 -18.5q35 -14 98 -14q56 0 94.5 8.5t60.5 26t33.5 36t19.5 45.5q1 3 2 9
t1.5 8.5t2.5 6t5 4.5t8 0q15 -2 10 -51q-3 -25 -26.5 -66t-56.5 -61q-25 -8 -57 -6q-29 2 -57 4.5t-39 2.5q-92 6 -162 4q-24 0 -53.5 -2.5t-54 -5.5t-28.5 -3q-18 0 -20 10q-1 4 0 7t3.5 5.5t5.5 4.5t7.5 3.5l7.5 2.5t8 2.5t7 1.5q33 5 46 20.5t17 44.5q8 24 9 202.5
t-1 196.5q-1 56 -88 71q-16 4 -16 16z" />
    <glyph glyph-name="Edieresis" unicode="&#xcb;" horiz-adv-x="594" 
d="M254 715q35 0 37 -30q2 -25 -19 -42q-20 -18 -36 -18q-25 0 -25 47q2 15 14.5 29t28.5 14zM409 715q35 0 37 -30q2 -24 -19 -42q-23 -18 -37 -18q-24 0 -24 47q1 15 14 29t29 14zM26 585q0 14 39 10q70 -7 108 -7q47 0 180.5 5.5t138.5 5.5q7 0 12.5 -0.5t9 -1.5t6 -1.5
t4 -2.5t2 -2.5t2 -3t1.5 -3.5q7 -20 3.5 -68.5t-17.5 -64.5q-13 -13 -22 -6q-5 6 -3 16q9 45 -10.5 73t-63.5 28q-164 0 -190 -6q-13 -3 -15.5 -7t-2.5 -15q0 -17 -0.5 -81.5t-0.5 -71.5q0 -11 0.5 -14t3.5 -10t12.5 -9.5t25.5 -2.5q58 0 84 3.5t47 15.5q9 4 24.5 24
t15.5 32q0 5 5.5 12t11.5 6q15 0 10 -33q-12 -87 -12 -145q0 -19 -15 -20q-4 0 -8.5 5.5t-5.5 13.5q-2 18 -18.5 35t-35.5 18q-77 6 -117 3q-17 -1 -22 -6t-6 -18q-2 -33 -2 -182q2 -30 7 -39.5t27 -18.5q35 -14 98 -14q56 0 94.5 8.5t60.5 26t33.5 36t19.5 45.5q1 3 2 9
t1.5 8.5t2.5 6t5 4.5t8 0q15 -2 10 -51q-3 -25 -26.5 -66t-56.5 -61q-25 -8 -57 -6q-29 2 -57 4.5t-39 2.5q-92 6 -162 4q-24 0 -53.5 -2.5t-54 -5.5t-28.5 -3q-18 0 -20 10q-1 4 0 7t3.5 5.5t5.5 4.5t7.5 3.5l7.5 2.5t8 2.5t7 1.5q33 5 46 20.5t17 44.5q8 24 9 202.5
t-1 196.5q-1 56 -88 71q-16 4 -16 16z" />
    <glyph glyph-name="Igrave" unicode="&#xcc;" horiz-adv-x="317" 
d="M219 644q11 -10 2 -19q-8 -8 -36 10q-1 1 -124 60q-6 3 -4.5 12t11.5 12q33 9 40 11q21 4 28 2t18 -16q21 -30 65 -72zM130 500q-3 36 -34.5 53.5t-52.5 16.5q-9 -1 -12.5 4t-3.5 12q0 14 39 10q23 -2 93 -2t110 2q10 1 17 0.5t10 -4t3 -10.5q-1 -12 -23 -14
q-44 -3 -55.5 -17.5t-16.5 -54.5q-3 -22 -5 -180.5t4 -214.5q3 -20 6 -30t13 -20t28 -14q2 0 8 -1.5t9 -2t8 -2t8 -3.5t6.5 -4t5 -5t1.5 -7q1 -8 -8 -11.5t-27 -1.5q-46 6 -220 -2q-19 0 -21 10q-3 12 10.5 18.5t28.5 7.5q33 3 46 20t18 47q8 23 9 202t-2 198z" />
    <glyph glyph-name="Iacute" unicode="&#xcd;" horiz-adv-x="317" 
d="M130 500q-3 36 -34.5 53.5t-52.5 16.5q-9 -1 -12.5 4t-3.5 12q0 14 39 10q23 -2 93 -2t110 2q10 1 17 0.5t10 -4t3 -10.5q-1 -12 -23 -14q-44 -3 -55.5 -17.5t-16.5 -54.5q-3 -22 -5 -180.5t4 -214.5q3 -20 6 -30t13 -20t28 -14q2 0 8 -1.5t9 -2t8 -2t8 -3.5t6.5 -4t5 -5
t1.5 -7q1 -8 -8 -11.5t-27 -1.5q-46 6 -220 -2q-19 0 -21 10q-3 12 10.5 18.5t28.5 7.5q33 3 46 20t18 47q8 23 9 202t-2 198zM129 626q-7 0 0 12q2 4 6 8l49 65q11 15 17 20.5t20 9.5q25 8 63 8q9 -2 8 -10t-7 -13q-37 -22 -133 -94q-16 -11 -23 -6z" />
    <glyph glyph-name="Icircumflex" unicode="&#xce;" horiz-adv-x="317" 
d="M60 628q-11 11 10 24q10 8 44 37t46 37q16 12 33 -1q10 -9 32.5 -31.5t37.5 -34.5q20 -16 11 -28q-7 -9 -23 1q-49 32 -59 36q-17 7 -34 2q-28 -8 -70 -37q-23 -12 -28 -5zM130 500q-3 36 -34.5 53.5t-52.5 16.5q-9 -1 -12.5 4t-3.5 12q0 14 39 10q23 -2 93 -2t110 2
q10 1 17 0.5t10 -4t3 -10.5q-1 -12 -23 -14q-44 -3 -55.5 -17.5t-16.5 -54.5q-3 -22 -5 -180.5t4 -214.5q3 -20 6 -30t13 -20t28 -14q2 0 8 -1.5t9 -2t8 -2t8 -3.5t6.5 -4t5 -5t1.5 -7q1 -8 -8 -11.5t-27 -1.5q-46 6 -220 -2q-19 0 -21 10q-3 12 10.5 18.5t28.5 7.5
q33 3 46 20t18 47q8 23 9 202t-2 198z" />
    <glyph glyph-name="Idieresis" unicode="&#xcf;" horiz-adv-x="317" 
d="M94 715q35 0 37 -30q2 -25 -19 -42q-20 -18 -36 -18q-25 0 -25 47q2 15 14.5 29t28.5 14zM249 715q35 0 37 -30q2 -24 -19 -42q-22 -18 -37 -18q-24 0 -24 47q1 15 14 29t29 14zM130 500q-3 36 -34.5 53.5t-52.5 16.5q-9 -1 -12.5 4t-3.5 12q0 14 39 10q23 -2 93 -2
t110 2q10 1 17 0.5t10 -4t3 -10.5q-1 -12 -23 -14q-44 -3 -55.5 -17.5t-16.5 -54.5q-3 -22 -5 -180.5t4 -214.5q3 -20 6 -30t13 -20t28 -14q2 0 8 -1.5t9 -2t8 -2t8 -3.5t6.5 -4t5 -5t1.5 -7q1 -8 -8 -11.5t-27 -1.5q-46 6 -220 -2q-19 0 -21 10q-3 12 10.5 18.5t28.5 7.5
q33 3 46 20t18 47q8 23 9 202t-2 198z" />
    <glyph glyph-name="Eth" unicode="&#xd0;" horiz-adv-x="652" 
d="M26 583q0 15 39 10q28 -2 91 -2q147 5 165 5q146 2 224 -52t77 -158q-1 -92 -32 -167.5t-81.5 -122t-112.5 -71.5t-127 -25q-25 -1 -60.5 0.5t-40.5 1.5q-57 0 -127 -5q-18 0 -21 10q-3 12 9.5 18t28.5 8q34 5 46.5 21.5t17.5 44.5q8 27 8 181q0 25 -21 26q-26 3 -52 0
q-13 -1 -17 4.5t-1 13.5q6 12 54 17q22 2 29.5 6.5t7.5 22.5v127q0 10 -3.5 19t-8.5 15.5t-12.5 12t-14 9t-15.5 6.5t-13.5 4t-12 3t-8.5 2q-16 4 -16 15zM204 543l-4 -173q0 -16 3.5 -21.5t15.5 -4.5q60 3 160 12q3 0 8 1t8 1.5t7 0.5h6.5h5t4.5 -1t3.5 -2.5t2 -4t0.5 -5.5
q0 -16 -28 -30q-11 -7 -38 -7q-44 -2 -132 -2q-26 0 -26 -28q0 -109 4 -206q1 -42 66 -44q86 -2 149 45t92.5 121t29.5 162q0 94 -59 145.5t-148 61.5q-50 4 -97 0q-33 -2 -33 -21z" />
    <glyph glyph-name="Ntilde" unicode="&#xd1;" horiz-adv-x="715" 
d="M228 636q-5 4 9 24q47 59 82 59q16 0 61 -19q32 -14 61 -14q33 0 53 22q2 2 4.5 5.5t4 5l4 4t3.5 3t3.5 1t4.5 -0.5q11 -4 1 -27q-15 -28 -42 -47.5t-49 -19.5q-32 0 -64 13q-48 18 -56 18q-29 0 -55 -22q-16 -12 -25 -5zM77 595q109 0 184 -47.5t153 -149.5
q39 -52 96 -139.5t78 -144.5q5 -13 13 -6q4 -16 5 74q3 206 0 276q-4 92 -66 109q-2 1 -8.5 2t-11.5 2t-10.5 3t-8 5t-1.5 7q4 12 29 12q108 -6 138 -3q16 3 23 1t7 -12q0 -3 -3 -6.5t-8.5 -8t-6.5 -5.5q-21 -29 -27 -87q-9 -80 -12.5 -194t-1.5 -176q0 -3 1.5 -34t0.5 -46
q-1 -12 -7.5 -20t-13.5 -8q-28 -1 -58 0q-17 0 -21 14q-10 29 -20 52q-26 68 -83.5 161t-88.5 131q-91 112 -169 146q-11 4 -18 -1.5t-7 -16.5q0 -58 3 -194t5 -155q4 -53 22.5 -76.5t52.5 -27.5q15 -2 25 -7.5t7 -16.5q-2 -11 -18 -10q-90 8 -220 0q-5 0 -8 1.5t-3 4v4.5
q2 9 14 16q18 5 23 8q56 24 59 92q4 57 5.5 189.5t-0.5 166.5q-6 86 -83 86q-19 0 -19 16q0 13 58 13z" />
    <glyph glyph-name="Ograve" unicode="&#xd2;" horiz-adv-x="677" 
d="M395 657q5 -5 4.5 -10.5t-3.5 -8.5q-7 -8 -35 10q-14 8 -64 32t-60 29q-6 2 -4.5 11t11.5 12q23 8 40 11q20 4 27.5 2t18.5 -15q20 -28 65 -73zM370 614q124 0 197 -73t73 -201q0 -157 -95 -258t-230 -101q-130 0 -203.5 83t-73.5 213q0 49 21 105.5t60 109.5t105 87.5
t146 34.5zM561 319q0 111 -63 183t-163 72q-30 0 -64.5 -16t-68.5 -47.5t-56.5 -90.5t-22.5 -135q0 -120 67.5 -192.5t156.5 -72.5q83 0 148.5 77t65.5 222z" />
    <glyph glyph-name="Oacute" unicode="&#xd3;" horiz-adv-x="677" 
d="M301 639q-2 0 -3 2t1 6.5t7 10.5q8 10 50 66q18 23 36 29q26 9 63 9q10 -1 8.5 -10t-7.5 -13q-20 -13 -133 -94q-15 -11 -22 -6zM370 614q124 0 197 -73t73 -201q0 -157 -95 -258t-230 -101q-130 0 -203.5 83t-73.5 213q0 49 21 105.5t60 109.5t105 87.5t146 34.5z
M561 319q0 111 -63 183t-163 72q-30 0 -64.5 -16t-68.5 -47.5t-56.5 -90.5t-22.5 -135q0 -120 67.5 -192.5t156.5 -72.5q83 0 148.5 77t65.5 222z" />
    <glyph glyph-name="Ocircumflex" unicode="&#xd4;" horiz-adv-x="677" 
d="M242 641q-10 10 10 24q10 8 44 37t46 37q16 11 33 -2q13 -11 34 -32.5t35 -32.5q21 -16 12 -28q-7 -9 -23 1q-45 29 -59 35q-19 7 -34 3q-30 -9 -71 -37q-20 -16 -27 -5zM370 614q124 0 197 -73t73 -201q0 -157 -95 -258t-230 -101q-130 0 -203.5 83t-73.5 213
q0 49 21 105.5t60 109.5t105 87.5t146 34.5zM561 319q0 111 -63 183t-163 72q-30 0 -64.5 -16t-68.5 -47.5t-56.5 -90.5t-22.5 -135q0 -120 67.5 -192.5t156.5 -72.5q83 0 148.5 77t65.5 222z" />
    <glyph glyph-name="Otilde" unicode="&#xd5;" horiz-adv-x="677" 
d="M212 650q-5 4 9 24q46 59 82 59q12 0 61 -18q34 -15 61 -15q31 0 53 22q2 3 5.5 6.5t5 5.5t4 4.5t4.5 2.5h5q11 -5 1 -27q-15 -29 -41.5 -48.5t-49.5 -19.5q-32 0 -64 13q-51 19 -56 19q-27 0 -55 -23q-16 -12 -25 -5zM370 614q124 0 197 -73t73 -201q0 -157 -95 -258
t-230 -101q-130 0 -203.5 83t-73.5 213q0 49 21 105.5t60 109.5t105 87.5t146 34.5zM561 319q0 111 -63 183t-163 72q-30 0 -64.5 -16t-68.5 -47.5t-56.5 -90.5t-22.5 -135q0 -120 67.5 -192.5t156.5 -72.5q83 0 148.5 77t65.5 222z" />
    <glyph glyph-name="Odieresis" unicode="&#xd6;" horiz-adv-x="677" 
d="M292 729q35 0 37 -30q2 -24 -19 -42q-19 -19 -36 -19q-25 0 -25 47q2 16 14.5 30t28.5 14zM447 729q35 0 37 -30q2 -23 -19 -42t-37 -19q-24 0 -24 47q1 15 13.5 29.5t29.5 14.5zM370 614q124 0 197 -73t73 -201q0 -157 -95 -258t-230 -101q-130 0 -203.5 83t-73.5 213
q0 49 21 105.5t60 109.5t105 87.5t146 34.5zM561 319q0 111 -63 183t-163 72q-30 0 -64.5 -16t-68.5 -47.5t-56.5 -90.5t-22.5 -135q0 -120 67.5 -192.5t156.5 -72.5q83 0 148.5 77t65.5 222z" />
    <glyph glyph-name="multiply" unicode="&#xd7;" horiz-adv-x="419" 
d="M376 143q25 -25 -2 -34q-18 -6 -30 6q-13 14 -53.5 60.5t-64.5 69.5q-9 9 -21 1q-58 -58 -140 -135q-11 -9 -19 -8t-11 9q-2 16 5 23q13 14 61.5 59.5t76.5 74.5q12 13 0 25q-106 100 -133 129q-16 17 -3 26q16 9 29 -2l130 -131q10 -8 24 1q92 98 116 127
q9 11 18.5 13.5t15 -2t5.5 -14.5q0 -34 -12 -45t-52 -45.5t-66 -60.5q-12 -11 2 -22q27 -26 72.5 -72t51.5 -53z" />
    <glyph glyph-name="Oslash" unicode="&#xd8;" horiz-adv-x="677" 
d="M35 -5q-30 0 10 38q2 2 16.5 16t20.5 20q7 7 9 12.5t2 7.5t-5.5 10t-7.5 12q-41 67 -41 166q0 49 21 105t60 107.5t104.5 85.5t145.5 34q99 0 172 -53q15 -12 21 -11.5t19 14.5q11 11 27 29q26 26 37 13q10 -11 -26 -67q-15 -23 -16.5 -32.5t9.5 -31.5q27 -57 27 -130
q0 -157 -94 -254.5t-231 -97.5q-97 0 -169 52q-4 3 -8 4.5t-7 3t-6.5 0t-5.5 -2t-5.5 -3.5t-4.5 -4.5t-5.5 -6.5t-5.5 -6q-9 -7 -15.5 -12.5t-12.5 -8.5t-9.5 -5t-8.5 -3t-6 -1h-6h-5zM336 567q-31 0 -65 -15t-68.5 -46t-57 -89.5t-22.5 -134.5q0 -67 23 -118q9 -19 13 -20
t19 13q114 108 314 308q12 12 11.5 20t-14.5 22q-59 60 -153 60zM562 319q0 47 -13 93q-5 13 -9.5 16.5t-10 0.5t-15.5 -12q-2 -3 -4 -4q-37 -34 -310 -290q-14 -14 -14 -17.5t14 -18.5q64 -58 147 -58q84 0 149.5 73t65.5 217z" />
    <glyph glyph-name="Ugrave" unicode="&#xd9;" horiz-adv-x="766" 
d="M412 644q10 -12 1 -19q-7 -9 -35 10q-2 1 -124 60q-6 3 -4.5 12t11.5 12q25 8 39 11q21 4 28.5 2t18.5 -16q21 -30 65 -72zM36 574q-16 0 -18 11q0 13 25 13q143 -12 225 0q21 2 23 -2q2 -2 2 -6q1 -4 -4 -9t-13 -7q-83 -27 -83 -87q-3 -169 0 -280q2 -83 30 -127.5
t96 -44.5q57 0 105 25.5t76.5 64.5t45 80t18.5 77q4 63 4 225q-2 23 -24.5 42t-63.5 22q-8 1 -16.5 6t-6.5 12q5 11 41 7q19 -2 93.5 -2t97.5 2q31 3 31 -8q0 -12 -18 -17q-34 -11 -45 -29t-11 -63q0 -4 -2.5 -94.5t-2.5 -149.5t4 -110q9 -50 23.5 -65.5t61.5 -30.5
q16 -6 16 -16q0 -11 -20 -13q-27 -3 -97 -3q-62 0 -64 108q0 19 -2 33q0 6 -3.5 7t-6.5 -0.5t-5 -3.5q-26 -33 -46.5 -54.5t-54 -48t-76 -40t-92.5 -13.5q-76 0 -123 46t-47 129q0 18 10 318q1 53 -19.5 73t-63.5 23z" />
    <glyph glyph-name="Uacute" unicode="&#xda;" horiz-adv-x="766" 
d="M354 626q-2 0 -2.5 2.5t1.5 7.5t7 10q10 12 50 65q10 15 16.5 20.5t19.5 9.5q26 8 63 8q10 -2 8.5 -10t-7.5 -13q-41 -25 -133 -94q-15 -11 -23 -6zM36 574q-16 0 -18 11q0 13 25 13q143 -12 225 0q21 2 23 -2q2 -2 2 -6q1 -4 -4 -9t-13 -7q-83 -27 -83 -87
q-3 -169 0 -280q2 -83 30 -127.5t96 -44.5q57 0 105 25.5t76.5 64.5t45 80t18.5 77q4 63 4 225q-2 23 -24.5 42t-63.5 22q-8 1 -16.5 6t-6.5 12q5 11 41 7q19 -2 93.5 -2t97.5 2q31 3 31 -8q0 -12 -18 -17q-34 -11 -45 -29t-11 -63q0 -4 -2.5 -94.5t-2.5 -149.5t4 -110
q9 -50 23.5 -65.5t61.5 -30.5q16 -6 16 -16q0 -11 -20 -13q-27 -3 -97 -3q-62 0 -64 108q0 19 -2 33q0 6 -3.5 7t-6.5 -0.5t-5 -3.5q-26 -33 -46.5 -54.5t-54 -48t-76 -40t-92.5 -13.5q-76 0 -123 46t-47 129q0 18 10 318q1 53 -19.5 73t-63.5 23z" />
    <glyph glyph-name="Ucircumflex" unicode="&#xdb;" horiz-adv-x="766" 
d="M263 629q-10 10 11 24q10 8 44 37t46 37q15 11 32 -1q10 -9 32.5 -31.5t37.5 -34.5q21 -16 12 -28q-7 -8 -24 1q-47 30 -58 35q-17 8 -34 3q-30 -9 -71 -37q-20 -16 -28 -5zM36 574q-16 0 -18 11q0 13 25 13q143 -12 225 0q21 2 23 -2q2 -2 2 -6q1 -4 -4 -9t-13 -7
q-83 -27 -83 -87q-3 -169 0 -280q2 -83 30 -127.5t96 -44.5q57 0 105 25.5t76.5 64.5t45 80t18.5 77q4 63 4 225q-2 23 -24.5 42t-63.5 22q-8 1 -16.5 6t-6.5 12q5 11 41 7q19 -2 93.5 -2t97.5 2q31 3 31 -8q0 -12 -18 -17q-34 -11 -45 -29t-11 -63q0 -4 -2.5 -94.5
t-2.5 -149.5t4 -110q9 -50 23.5 -65.5t61.5 -30.5q16 -6 16 -16q0 -11 -20 -13q-27 -3 -97 -3q-62 0 -64 108q0 19 -2 33q0 6 -3.5 7t-6.5 -0.5t-5 -3.5q-26 -33 -46.5 -54.5t-54 -48t-76 -40t-92.5 -13.5q-76 0 -123 46t-47 129q0 18 10 318q1 53 -19.5 73t-63.5 23z" />
    <glyph glyph-name="Udieresis" unicode="&#xdc;" horiz-adv-x="766" 
d="M302 715q35 0 37 -30q2 -24 -19 -42q-20 -18 -36 -18q-25 0 -25 47q2 15 14.5 29t28.5 14zM470 715q35 0 37 -30q2 -23 -20 -42q-23 -18 -37 -18q-23 0 -23 47q1 15 13.5 29t29.5 14zM36 574q-16 0 -18 11q0 13 25 13q143 -12 225 0q21 2 23 -2q2 -2 2 -6q1 -4 -4 -9
t-13 -7q-83 -27 -83 -87q-3 -169 0 -280q2 -83 30 -127.5t96 -44.5q57 0 105 25.5t76.5 64.5t45 80t18.5 77q4 63 4 225q-2 23 -24.5 42t-63.5 22q-8 1 -16.5 6t-6.5 12q5 11 41 7q19 -2 93.5 -2t97.5 2q31 3 31 -8q0 -12 -18 -17q-34 -11 -45 -29t-11 -63q0 -4 -2.5 -94.5
t-2.5 -149.5t4 -110q9 -50 23.5 -65.5t61.5 -30.5q16 -6 16 -16q0 -11 -20 -13q-27 -3 -97 -3q-62 0 -64 108q0 19 -2 33q0 6 -3.5 7t-6.5 -0.5t-5 -3.5q-26 -33 -46.5 -54.5t-54 -48t-76 -40t-92.5 -13.5q-76 0 -123 46t-47 129q0 18 10 318q1 53 -19.5 73t-63.5 23z" />
    <glyph glyph-name="Yacute" unicode="&#xdd;" horiz-adv-x="561" 
d="M251 625q-7 0 0 12q2 4 6 8q7 8 26 34.5t23 30.5q11 15 17 20.5t20 9.5q25 8 63 8q9 -2 8 -10t-7 -12q-37 -23 -133 -95q-15 -10 -23 -6zM1 583q-1 6 7 10t20 3q64 -7 156 -1q17 2 21 -7q6 -10 -10 -26q-14 -17 -6 -42q-3 3 18.5 -35.5t45 -79t25.5 -42.5q10 -12 26 3
q19 19 54 71.5t39 70.5q8 37 -26 61q-13 8 -10 19q1 4 9 6t14 1q50 -8 119 -2q30 6 30 -13q0 -8 -5.5 -12.5t-24.5 -15.5q-2 -1 -3 -2q-22 -15 -66 -71q-8 -11 -49.5 -61.5t-57.5 -73.5q-25 -32 -28 -68q-2 -18 -2 -170q1 -33 22.5 -51.5t61.5 -30.5q21 -7 21 -16
q-1 -17 -33 -11q-28 5 -100.5 6t-116.5 -5q-36 -7 -38 4q-1 9 3.5 13.5t19.5 7.5q38 6 61 26.5t24 48.5q6 87 2 183q-2 23 -7 37q-11 29 -55.5 101t-65.5 100q-38 44 -68 47q-25 3 -27 17z" />
    <glyph glyph-name="Thorn" unicode="&#xde;" horiz-adv-x="525" 
d="M131 502q-1 55 -90 70q-15 4 -15 16q0 15 39 10q22 -3 93.5 -3t111.5 3q18 0 24 -2t6 -12q-2 -14 -23 -14q-40 -7 -54 -21t-18 -46q0 -13 5 -18t22 -4q128 0 170 -2q122 -5 122 -115q0 -51 -21 -91t-50.5 -62t-66 -36t-62 -18.5t-43.5 -4.5q-11 0 -16.5 0.5t-11 5
t-5.5 12.5q0 13 19 14q31 2 59 9.5t57 23.5t46.5 47t17.5 73q0 50 -35.5 78t-88.5 29q-48 2 -94 1q-15 -1 -20.5 -6.5t-6.5 -20.5q0 -28 -1.5 -110.5t-1 -134.5t4.5 -71q4 -27 12 -39t35 -26q6 -4 18.5 -6.5t19.5 -6.5t8 -12t-8.5 -11.5t-27.5 -1.5q-46 6 -221 -2
q-18 0 -20 10q-2 8 5.5 14t15 8t18.5 4q34 6 47.5 22.5t17.5 45.5q8 23 9 202t-2 199z" />
    <glyph glyph-name="germandbls" unicode="&#xdf;" horiz-adv-x="573" 
d="M355 686q48 0 86 -27.5t38 -92.5q0 -69 -88 -141q-9 -8 -9.5 -11.5t9.5 -11.5q32 -26 50 -42.5t44 -46t38.5 -62.5t12.5 -69q0 -80 -44.5 -135.5t-105.5 -55.5q-92 0 -92 65q0 22 9 35.5t29 29.5q24 20 33 11q8 -8 -1 -25q-14 -25 -3 -52t43 -27q34 0 55.5 31.5
t21.5 76.5q0 54 -50.5 115.5t-122.5 102.5q-12 7 -13.5 11.5t11.5 20.5l33 33t36.5 38t21 34t11.5 45q0 40 -23 68.5t-63 28.5q-55 0 -86.5 -47.5t-36.5 -117.5q-5 -75 -2 -370q0 -22 11 -45.5t34 -30.5q25 -8 26 -14q0 -2 -1 -5q-4 -8 -50 -3q-21 2 -72 2t-84 -3
q-35 -3 -39 4q-8 10 12 16q45 11 64.5 28.5t21.5 52.5q4 44 4 250q0 17 -3 21.5t-12 4.5q-11 0 -28 -0.5t-18 -0.5q-13 0 -4 21q6 14 18 18q11 4 32 4q16 0 16 21q0 95 72.5 171t157.5 76z" />
    <glyph glyph-name="agrave" unicode="&#xe0;" horiz-adv-x="481" 
d="M301 510q10 -12 1 -19q-7 -9 -35 10q-2 1 -124 60q-6 3 -4.5 12t11.5 12q31 10 39 11q21 4 28.5 2t18.5 -16q18 -25 65 -72zM114 444q9 0 13 -16q5 -16 34 -16q21 0 67 6.5t68 6.5q36 0 59 -20t21 -48q-6 -206 -6 -226q0 -70 21 -67q8 3 18 15q6 7 15.5 24.5t14.5 22.5
q8 8 15 5q9 -2 6 -13q-16 -42 -53.5 -85t-68.5 -43q-22 0 -28.5 13.5t-8.5 43.5q0 3 -2.5 8t-5.5 5q-4 0 -14 -8q-71 -66 -129 -66q-119 0 -119 112q0 40 30.5 71.5t70.5 42.5q131 39 146 45q17 6 25 16.5t9.5 19.5t1.5 28q0 26 -12.5 37t-44.5 10q-22 -1 -72.5 -9.5
t-77.5 -8.5q-22 0 -26.5 9.5t-0.5 31.5q5 22 19 42q9 11 15 11zM103 109q2 -78 74 -78q32 0 72 30t48 76q9 51 8 85q0 13 -18 9q-91 -25 -131 -42q-53 -24 -53 -80z" />
    <glyph glyph-name="aacute" unicode="&#xe1;" horiz-adv-x="481" 
d="M179 494q-2 0 -2.5 2.5t1.5 7t7 9.5q8 10 50 66q10 15 16.5 20.5t19.5 9.5q26 8 63 8q9 -1 8 -10t-7 -13q-41 -25 -133 -94q-15 -11 -23 -6zM114 444q9 0 13 -16q5 -16 34 -16q21 0 67 6.5t68 6.5q36 0 59 -20t21 -48q-6 -206 -6 -226q0 -70 21 -67q8 3 18 15
q6 7 15.5 24.5t14.5 22.5q8 8 15 5q9 -2 6 -13q-16 -42 -53.5 -85t-68.5 -43q-22 0 -28.5 13.5t-8.5 43.5q0 3 -2.5 8t-5.5 5q-4 0 -14 -8q-71 -66 -129 -66q-119 0 -119 112q0 40 30.5 71.5t70.5 42.5q131 39 146 45q17 6 25 16.5t9.5 19.5t1.5 28q0 26 -12.5 37t-44.5 10
q-22 -1 -72.5 -9.5t-77.5 -8.5q-22 0 -26.5 9.5t-0.5 31.5q5 22 19 42q9 11 15 11zM103 109q2 -78 74 -78q32 0 72 30t48 76q9 51 8 85q0 13 -18 9q-91 -25 -131 -42q-53 -24 -53 -80z" />
    <glyph glyph-name="acircumflex" unicode="&#xe2;" horiz-adv-x="481" 
d="M130 504q-10 10 11 25q11 8 45 37t45 37q16 11 32 -2q10 -9 32.5 -31.5t37.5 -34.5q8 -6 12 -14t0 -13q-7 -10 -23 0q-47 31 -59 36q-17 7 -34 2q-30 -9 -71 -37q-21 -13 -28 -5zM114 444q9 0 13 -16q5 -16 34 -16q21 0 67 6.5t68 6.5q36 0 59 -20t21 -48
q-6 -206 -6 -226q0 -70 21 -67q8 3 18 15q6 7 15.5 24.5t14.5 22.5q8 8 15 5q9 -2 6 -13q-16 -42 -53.5 -85t-68.5 -43q-22 0 -28.5 13.5t-8.5 43.5q0 3 -2.5 8t-5.5 5q-4 0 -14 -8q-71 -66 -129 -66q-119 0 -119 112q0 40 30.5 71.5t70.5 42.5q131 39 146 45q17 6 25 16.5
t9.5 19.5t1.5 28q0 26 -12.5 37t-44.5 10q-22 -1 -72.5 -9.5t-77.5 -8.5q-22 0 -26.5 9.5t-0.5 31.5q5 22 19 42q9 11 15 11zM103 109q2 -78 74 -78q32 0 72 30t48 76q9 51 8 85q0 13 -18 9q-91 -25 -131 -42q-53 -24 -53 -80z" />
    <glyph glyph-name="atilde" unicode="&#xe3;" horiz-adv-x="481" 
d="M116 516q-5 4 7 24q42 59 71 59q12 0 53 -18q31 -15 54 -15q27 0 46 22q2 2 4.5 6.5t4 6t4 4.5t3.5 2.5t4 -0.5q10 -6 1 -27q-12 -29 -35 -48t-43 -19q-31 0 -57 12q-38 19 -48 19q-23 0 -48 -23q-14 -12 -21 -5zM114 444q9 0 13 -16q5 -16 34 -16q21 0 67 6.5t68 6.5
q36 0 59 -20t21 -48q-6 -206 -6 -226q0 -70 21 -67q8 3 18 15q6 7 15.5 24.5t14.5 22.5q8 8 15 5q9 -2 6 -13q-16 -42 -53.5 -85t-68.5 -43q-22 0 -28.5 13.5t-8.5 43.5q0 3 -2.5 8t-5.5 5q-4 0 -14 -8q-71 -66 -129 -66q-119 0 -119 112q0 40 30.5 71.5t70.5 42.5
q131 39 146 45q17 6 25 16.5t9.5 19.5t1.5 28q0 26 -12.5 37t-44.5 10q-22 -1 -72.5 -9.5t-77.5 -8.5q-22 0 -26.5 9.5t-0.5 31.5q5 22 19 42q9 11 15 11zM103 109q2 -78 74 -78q32 0 72 30t48 76q9 51 8 85q0 13 -18 9q-91 -25 -131 -42q-53 -24 -53 -80z" />
    <glyph glyph-name="adieresis" unicode="&#xe4;" horiz-adv-x="481" 
d="M169 607q35 0 37 -30q2 -25 -19 -42q-19 -19 -36 -19q-25 0 -25 47q2 16 14.5 30t28.5 14zM324 607q35 0 37 -30q2 -24 -19 -42q-21 -19 -37 -19q-24 0 -24 47q1 15 14 29.5t29 14.5zM114 444q9 0 13 -16q5 -16 34 -16q21 0 67 6.5t68 6.5q36 0 59 -20t21 -48
q-6 -206 -6 -226q0 -70 21 -67q8 3 18 15q6 7 15.5 24.5t14.5 22.5q8 8 15 5q9 -2 6 -13q-16 -42 -53.5 -85t-68.5 -43q-22 0 -28.5 13.5t-8.5 43.5q0 3 -2.5 8t-5.5 5q-4 0 -14 -8q-71 -66 -129 -66q-119 0 -119 112q0 40 30.5 71.5t70.5 42.5q131 39 146 45q17 6 25 16.5
t9.5 19.5t1.5 28q0 26 -12.5 37t-44.5 10q-22 -1 -72.5 -9.5t-77.5 -8.5q-22 0 -26.5 9.5t-0.5 31.5q5 22 19 42q9 11 15 11zM103 109q2 -78 74 -78q32 0 72 30t48 76q9 51 8 85q0 13 -18 9q-91 -25 -131 -42q-53 -24 -53 -80z" />
    <glyph glyph-name="aring" unicode="&#xe5;" horiz-adv-x="481" 
d="M239 490q-106 0 -106 73q0 43 39.5 65.5t81.5 22.5t71.5 -16.5t30.5 -54.5q0 -40 -39 -65t-78 -25zM248 625q-25 0 -44.5 -16.5t-19.5 -37.5q0 -22 14 -37.5t45 -15.5q22 0 41 17t19 44q0 20 -16.5 33t-38.5 13zM114 444q9 0 13 -16q5 -16 34 -16q21 0 67 6.5t68 6.5
q36 0 59 -20t21 -48q-6 -206 -6 -226q0 -70 21 -67q8 3 18 15q6 7 15.5 24.5t14.5 22.5q8 8 15 5q9 -2 6 -13q-16 -42 -53.5 -85t-68.5 -43q-22 0 -28.5 13.5t-8.5 43.5q0 3 -2.5 8t-5.5 5q-4 0 -14 -8q-71 -66 -129 -66q-119 0 -119 112q0 40 30.5 71.5t70.5 42.5
q131 39 146 45q17 6 25 16.5t9.5 19.5t1.5 28q0 26 -12.5 37t-44.5 10q-22 -1 -72.5 -9.5t-77.5 -8.5q-22 0 -26.5 9.5t-0.5 31.5q5 22 19 42q9 11 15 11zM103 109q2 -78 74 -78q32 0 72 30t48 76q9 51 8 85q0 13 -18 9q-91 -25 -131 -42q-53 -24 -53 -80z" />
    <glyph glyph-name="ae" unicode="&#xe6;" horiz-adv-x="711" 
d="M109 444q10 0 14 -16q5 -16 34 -16q21 0 66.5 6.5t68.5 6.5q38 0 59 -19.5t23 -50.5q2 -12 12 0q26 36 64.5 55t75.5 19q83 0 116.5 -51t20.5 -110q-2 -10 -5 -18q-2 -7 -18 -7q-204 -3 -237 -3q-17 0 -20.5 -1.5t-5.5 -9.5q-3 -13 -3 -34q1 -62 42 -106t100 -44
q85 0 120 29q3 3 14 13.5t13 12.5q7 8 15 3t3 -12q-6 -14 -36 -46.5t-42 -36.5q-38 -15 -106 -15q-117 0 -163 79q-8 12 -22 -2l-8 -8l-11.5 -11.5t-14.5 -12.5t-19 -13.5t-22 -12t-25.5 -10.5t-28.5 -7t-33 -3q-119 0 -119 107q0 42 25 76.5t65 51.5q66 27 168 34
q5 1 8 1.5t5 1t3 3t1.5 3t0.5 4.5v6l3 42q0 25 -13 36t-44 10q-22 -1 -72.5 -9.5t-77.5 -8.5q-22 0 -26.5 9.5t-0.5 31.5q2 17 19 42q7 11 14 11zM103 109q1 -32 18.5 -55t51.5 -23q33 0 75 28.5t52 70.5q8 43 6 94q0 12 -21 12q-75 -2 -126 -27q-25 -12 -40.5 -39
t-15.5 -61zM418 346q-35 -41 -33 -70q0 -9 12 -9l185 6q14 1 18 4.5t4 15.5q-2 42 -25.5 69.5t-62.5 27.5q-61 0 -98 -44z" />
    <glyph glyph-name="ccedilla" unicode="&#xe7;" horiz-adv-x="423" 
d="M35 192q2 57 27.5 105.5t62 77t74 44t67.5 15.5q98 0 109 -51q4 -26 -12.5 -50.5t-42.5 -35.5q-12 -5 -19 0q-4 8 5 17q16 14 16 34q0 49 -75 49q-52 0 -99 -57t-47 -141q0 -61 38 -109t103 -48q47 0 67 7q39 13 61 44q8 10 12 10q6 -1 8.5 -5.5t-0.5 -11.5
q-6 -13 -25.5 -37t-39.5 -36q-21 -14 -76 -18q-12 -1 -16 -9l-9 -22q-7 -16 16 -23q47 -17 47 -64q0 -26 -29.5 -44t-70.5 -24q-20 -3 -20 11q0 10 17 12q54 8 54 29q0 27 -55 44q-18 5 -9 24q29 49 31 54q6 11 -7 13q-78 8 -122.5 58.5t-40.5 137.5z" />
    <glyph glyph-name="egrave" unicode="&#xe8;" horiz-adv-x="432" 
d="M290 510q10 -12 1 -19q-7 -9 -35 10q-2 1 -124 60q-6 3 -4.5 12t11.5 12q31 10 39 11q21 4 28.5 2t18.5 -16q18 -25 65 -72zM237 41q83 0 119 30q14 10 28 26q7 8 15 3q7 -4 3 -12q-7 -14 -37 -46.5t-42 -37.5q-39 -14 -105 -14q-89 -1 -140.5 50t-51.5 145q0 103 71 176
t150 73q83 0 116.5 -51t21.5 -111q0 -1 -5 -18q-4 -7 -19 -7q-34 0 -119 -1.5t-117 -1.5q-17 0 -21 -1.5t-6 -9.5q-4 -12 -4 -34q2 -63 43 -110.5t100 -47.5zM139 350q-35 -41 -33 -70q0 -9 13 -9l181 6q13 1 17 4.5t4 15.5q-2 44 -23.5 71t-60.5 27q-60 0 -98 -45z" />
    <glyph glyph-name="eacute" unicode="&#xe9;" horiz-adv-x="432" 
d="M195 494q-2 0 -2.5 2.5t1.5 7t7 9.5q8 10 50 66q10 15 16.5 20.5t19.5 9.5q26 8 63 8q9 -1 8 -10t-7 -13q-41 -25 -133 -94q-15 -11 -23 -6zM237 41q83 0 119 30q14 10 28 26q7 8 15 3q7 -4 3 -12q-7 -14 -37 -46.5t-42 -37.5q-39 -14 -105 -14q-89 -1 -140.5 50
t-51.5 145q0 103 71 176t150 73q83 0 116.5 -51t21.5 -111q0 -1 -5 -18q-4 -7 -19 -7q-34 0 -119 -1.5t-117 -1.5q-17 0 -21 -1.5t-6 -9.5q-4 -12 -4 -34q2 -63 43 -110.5t100 -47.5zM139 350q-35 -41 -33 -70q0 -9 13 -9l181 6q13 1 17 4.5t4 15.5q-2 44 -23.5 71t-60.5 27
q-60 0 -98 -45z" />
    <glyph glyph-name="ecircumflex" unicode="&#xea;" horiz-adv-x="432" 
d="M131 492q-10 10 10 25q12 9 46 38t44 36q17 12 33 -2q12 -10 33.5 -32t36.5 -33q20 -18 12 -28q-7 -9 -24 1q-46 30 -59 35q-18 7 -33 3q-32 -11 -71 -38q-21 -13 -28 -5zM237 41q83 0 119 30q14 10 28 26q7 8 15 3q7 -4 3 -12q-7 -14 -37 -46.5t-42 -37.5
q-39 -14 -105 -14q-89 -1 -140.5 50t-51.5 145q0 103 71 176t150 73q83 0 116.5 -51t21.5 -111q0 -1 -5 -18q-4 -7 -19 -7q-34 0 -119 -1.5t-117 -1.5q-17 0 -21 -1.5t-6 -9.5q-4 -12 -4 -34q2 -63 43 -110.5t100 -47.5zM139 350q-35 -41 -33 -70q0 -9 13 -9l181 6
q13 1 17 4.5t4 15.5q-2 44 -23.5 71t-60.5 27q-60 0 -98 -45z" />
    <glyph glyph-name="edieresis" unicode="&#xeb;" horiz-adv-x="432" 
d="M168 614q37 0 37 -31q2 -25 -19 -42q-20 -18 -36 -18q-25 0 -25 47q2 15 14.5 29.5t28.5 14.5zM323 614q35 0 37 -31q2 -24 -19 -42q-23 -18 -37 -18q-24 0 -24 47q1 15 14 29.5t29 14.5zM237 41q83 0 119 30q14 10 28 26q7 8 15 3q7 -4 3 -12q-7 -14 -37 -46.5
t-42 -37.5q-39 -14 -105 -14q-89 -1 -140.5 50t-51.5 145q0 103 71 176t150 73q83 0 116.5 -51t21.5 -111q0 -1 -5 -18q-4 -7 -19 -7q-34 0 -119 -1.5t-117 -1.5q-17 0 -21 -1.5t-6 -9.5q-4 -12 -4 -34q2 -63 43 -110.5t100 -47.5zM139 350q-35 -41 -33 -70q0 -9 13 -9
l181 6q13 1 17 4.5t4 15.5q-2 44 -23.5 71t-60.5 27q-60 0 -98 -45z" />
    <glyph glyph-name="igrave" unicode="&#xec;" horiz-adv-x="304" 
d="M218 510q10 -10 2 -19q-7 -8 -36 10q-14 8 -66 33t-57 27q-6 3 -5 12t11 12q36 10 40 11q21 4 28 2t18 -16q13 -18 65 -72zM29 390q13 3 55.5 14.5t62.5 15.5q45 10 45 -17q0 -5 -3.5 -124t-2.5 -162q3 -57 9 -65q5 -6 13 -10q18 -10 62 -15q15 -2 15 -16
q-1 -11 -10.5 -11.5t-37.5 2.5q-112 6 -197 -4q-21 -2 -21 11q0 9 20 13q4 1 6 1q43 10 57 22t14 31q0 1 1.5 111t0.5 169q0 24 -27 22q-21 0 -47 -8q-17 -3 -21 5q0 13 6 15z" />
    <glyph glyph-name="iacute" unicode="&#xed;" horiz-adv-x="304" 
d="M29 390q13 3 55.5 14.5t62.5 15.5q45 10 45 -17q0 -5 -3.5 -124t-2.5 -162q3 -57 9 -65q5 -6 13 -10q18 -10 62 -15q15 -2 15 -16q-1 -11 -10.5 -11.5t-37.5 2.5q-112 6 -197 -4q-21 -2 -21 11q0 9 20 13q4 1 6 1q43 10 57 22t14 31q0 1 1.5 111t0.5 169q0 24 -27 22
q-21 0 -47 -8q-17 -3 -21 5q0 13 6 15zM111 494q-2 0 -2.5 2.5t1.5 7t7 9.5q6 7 25.5 33.5t24.5 32.5q16 24 36 30q25 8 63 8q9 -1 8 -10t-7 -13q-41 -25 -133 -94q-16 -11 -23 -6z" />
    <glyph glyph-name="icircumflex" unicode="&#xee;" horiz-adv-x="304" 
d="M29 390q13 3 55.5 14.5t62.5 15.5q45 10 45 -17q0 -5 -3.5 -124t-2.5 -162q3 -57 9 -65q5 -6 13 -10q18 -10 62 -15q15 -2 15 -16q-1 -11 -10.5 -11.5t-37.5 2.5q-112 6 -197 -4q-21 -2 -21 11q0 9 20 13q4 1 6 1q43 10 57 22t14 31q0 1 1.5 111t0.5 169q0 24 -27 22
q-21 0 -47 -8q-17 -3 -21 5q0 13 6 15zM36 492q-11 11 10 25q12 8 45.5 37t44.5 37q17 12 33 -2q12 -10 33.5 -32t36.5 -33q20 -18 12 -28q-7 -9 -24 1q-46 30 -59 35q-18 7 -33 3q-32 -11 -71 -38q-21 -13 -28 -5z" />
    <glyph glyph-name="idieresis" unicode="&#xef;" horiz-adv-x="304" 
d="M29 390q13 3 55.5 14.5t62.5 15.5q45 10 45 -17q0 -5 -3.5 -124t-2.5 -162q3 -57 9 -65q5 -6 13 -10q18 -10 62 -15q15 -2 15 -16q-1 -11 -10.5 -11.5t-37.5 2.5q-112 6 -197 -4q-21 -2 -21 11q0 9 20 13q4 1 6 1q43 10 57 22t14 31q0 1 1.5 111t0.5 169q0 24 -27 22
q-21 0 -47 -8q-17 -3 -21 5q0 13 6 15zM82 630q36 0 38 -30q0 -25 -20 -42q-20 -18 -36 -18q-24 0 -24 47q1 15 13.5 29t28.5 14zM237 630q37 0 37 -30q2 -24 -19 -42q-23 -18 -37 -18q-24 0 -24 47q1 15 14 29t29 14z" />
    <glyph glyph-name="eth" unicode="&#xf0;" horiz-adv-x="494" 
d="M210 -15q-76 0 -123 50t-48 143q-1 98 70.5 171t164.5 79q15 2 20.5 2t8.5 -2t5 -7q3 -11 -4.5 -15t-20.5 -5q-57 -7 -97.5 -43t-58 -82.5t-17.5 -97.5q0 -56 33.5 -105t90.5 -49q52 0 97 56t45 167q0 181 -62 286q-11 17 -39 9q-17 -6 -70 -25t-75 -26
q-10 -4 -23.5 -4.5t-17.5 6.5q-1 8 13 14q118 43 162 65q5 2 6.5 8.5t-1.5 9.5q-47 45 -112 45q-22 0 -72 -14q-19 -5 -24 0q-6 8 5 15q70 33 73 34q38 17 56 17q74 0 133 -61q11 -11 16 -12t18 5q27 11 48 29q11 10 17.5 5.5t5.5 -18.5q-4 -34 -42 -47q-29 -9 -20 -22
q73 -102 73 -291q0 -123 -66 -206.5t-168 -83.5z" />
    <glyph glyph-name="ntilde" unicode="&#xf1;" horiz-adv-x="585" 
d="M483 291l3 -216q0 -19 15.5 -32.5t40.5 -18.5q24 -7 24 -16q0 -11 -23 -11q-10 0 -39 3t-53 3q-12 0 -35 -3t-34 -3q-19 0 -21 3q-1 2 -1 6q0 9 15 12q10 2 16.5 5t13 13.5t7.5 27.5q6 107 1 226q-1 47 -18 67t-40 20q-75 0 -145 -117q-21 -36 -24 -112q-1 -11 0 -34.5
t1 -32.5q0 -20 6.5 -30.5t15 -13.5t25 -6.5t26.5 -8.5q11 -3 16 -7t4 -10q-1 -11 -24 -8q-3 0 -44 3t-57 3q-14 0 -61 -3t-52 -3q-23 0 -23 10q0 17 31 17q25 0 46.5 18t23.5 42q4 78 4 254q0 22 -8 32.5t-33 10.5q-14 0 -34 -5q-17 -2 -18 7q-2 12 16 16q56 9 91 19
q22 8 35 8q23 0 23 -15q-2 -79 0 -89q1 -6 2.5 -8.5t4.5 -1.5t8 6q3 2 25 27q75 82 154 82q93 0 93 -136zM156 508q-6 5 9 24q47 59 82 59q17 0 60 -19q34 -14 62 -14q33 0 53 22q2 3 5.5 6.5t5 5.5t4 4.5t4 2t4.5 -0.5q12 -4 1 -26q-14 -29 -40.5 -48.5t-49.5 -19.5
q-32 0 -65 13q-46 18 -55 18q-28 0 -56 -22q-15 -13 -24 -5z" />
    <glyph glyph-name="ograve" unicode="&#xf2;" horiz-adv-x="500" 
d="M312 510q10 -10 2 -19q-7 -8 -36 10q-14 8 -66 33t-57 27q-6 3 -5 12t11 12q36 10 40 11q21 4 28 2t18 -16q13 -18 65 -72zM227 -15q-95 0 -147 57.5t-52 156.5q0 52 26.5 105t85.5 93t136 40q85 0 138 -54.5t53 -130.5q1 -65 -19 -117.5t-55 -84.5t-77.5 -48.5
t-88.5 -16.5zM258 400q-73 0 -117 -54.5t-45 -128.5q0 -93 46.5 -145.5t99.5 -52.5q61 0 107 52.5t46 167.5q-4 65 -41 113t-96 48z" />
    <glyph glyph-name="oacute" unicode="&#xf3;" horiz-adv-x="500" 
d="M229 494q-7 0 0 11q2 4 6 8l49 66q11 15 17 20.5t19 9.5q26 8 64 8q9 -1 7.5 -10t-7.5 -13q-41 -25 -133 -94q-15 -11 -22 -6zM227 -15q-95 0 -147 57.5t-52 156.5q0 52 26.5 105t85.5 93t136 40q85 0 138 -54.5t53 -130.5q1 -65 -19 -117.5t-55 -84.5t-77.5 -48.5
t-88.5 -16.5zM258 400q-73 0 -117 -54.5t-45 -128.5q0 -93 46.5 -145.5t99.5 -52.5q61 0 107 52.5t46 167.5q-4 65 -41 113t-96 48z" />
    <glyph glyph-name="ocircumflex" unicode="&#xf4;" horiz-adv-x="500" 
d="M157 492q-10 10 11 25q10 8 44 37t46 37q16 12 32 -2q12 -10 33.5 -32t36.5 -33q21 -17 12 -28q-7 -9 -24 1q-47 30 -58 35q-20 7 -34 3q-32 -11 -71 -38q-21 -13 -28 -5zM227 -15q-95 0 -147 57.5t-52 156.5q0 52 26.5 105t85.5 93t136 40q85 0 138 -54.5t53 -130.5
q1 -65 -19 -117.5t-55 -84.5t-77.5 -48.5t-88.5 -16.5zM258 400q-73 0 -117 -54.5t-45 -128.5q0 -93 46.5 -145.5t99.5 -52.5q61 0 107 52.5t46 167.5q-4 65 -41 113t-96 48z" />
    <glyph glyph-name="otilde" unicode="&#xf5;" horiz-adv-x="500" 
d="M121 508q-5 4 9 24q47 59 82 59q16 0 61 -19q32 -14 61 -14q34 0 53 22q2 2 4.5 5.5t4 5l4 4t3.5 3t3.5 1t4.5 -0.5q11 -4 1 -26q-14 -29 -41 -48.5t-49 -19.5q-32 0 -65 13q-48 18 -56 18q-29 0 -55 -22q-16 -12 -25 -5zM227 -15q-95 0 -147 57.5t-52 156.5
q0 52 26.5 105t85.5 93t136 40q85 0 138 -54.5t53 -130.5q1 -65 -19 -117.5t-55 -84.5t-77.5 -48.5t-88.5 -16.5zM258 400q-73 0 -117 -54.5t-45 -128.5q0 -93 46.5 -145.5t99.5 -52.5q61 0 107 52.5t46 167.5q-4 65 -41 113t-96 48z" />
    <glyph glyph-name="odieresis" unicode="&#xf6;" horiz-adv-x="500" 
d="M202 630q35 0 37 -30q2 -24 -19 -42q-22 -18 -36 -18q-25 0 -25 47q2 15 14 29t29 14zM357 630q35 0 37 -30q2 -23 -19 -42q-25 -18 -37 -18q-24 0 -24 47q1 15 13.5 29t29.5 14zM227 -15q-95 0 -147 57.5t-52 156.5q0 52 26.5 105t85.5 93t136 40q85 0 138 -54.5
t53 -130.5q1 -65 -19 -117.5t-55 -84.5t-77.5 -48.5t-88.5 -16.5zM258 400q-73 0 -117 -54.5t-45 -128.5q0 -93 46.5 -145.5t99.5 -52.5q61 0 107 52.5t46 167.5q-4 65 -41 113t-96 48z" />
    <glyph glyph-name="divide" unicode="&#xf7;" horiz-adv-x="419" 
d="M52 263q-32 0 -23 18q7 17 40 17q142 2 282 14q19 4 32 3.5t13 -12.5q0 -16 -28 -30q-11 -7 -37 -7q-141 -3 -279 -3zM216 162q16 0 27 -7.5t11 -20.5q0 -19 -13.5 -29.5t-31.5 -10.5q-39 0 -39 33q0 16 15.5 25.5t30.5 9.5zM216 460q38 0 38 -26q0 -19 -13.5 -29.5
t-31.5 -10.5q-39 0 -39 32q0 16 15.5 25t30.5 9z" />
    <glyph glyph-name="oslash" unicode="&#xf8;" horiz-adv-x="500" 
d="M32 -7q-22 0 -10 16q5 6 15 15q7 6 10 8t8.5 8.5t6.5 11.5t0 13t-7 17q-28 50 -28 117q0 38 16 78.5t46 77t79 59.5t108 23q66 0 107 -36q14 -12 18.5 -12.5t16.5 10.5q16 16 22 23q18 20 27 10q4 -5 -4 -21q-8 -20 -22 -41q-7 -12 -7 -17t7 -17q25 -37 25 -90
q0 -127 -70 -194t-168 -67q-66 0 -115 34l-5 3q-5 3 -6.5 3.5t-6.5 0.5t-10 -3.5t-11 -9.5q-24 -20 -42 -20zM256 399q-73 0 -116.5 -54t-44.5 -129q0 -44 12 -80q10 -22 15 -23q5 0 17 12q37 34 107 107t94 96q17 17 0 34q-35 37 -84 37zM244 17q25 0 49 10t48 33
t38.5 67.5t14.5 105.5q0 39 -11 58q-4 8 -7 10.5t-6 1t-9 -7.5q-31 -27 -103.5 -99.5t-100.5 -98.5q-12 -12 -13 -18.5t10 -19.5q44 -42 90 -42z" />
    <glyph glyph-name="ugrave" unicode="&#xf9;" horiz-adv-x="569" 
d="M329 510q11 -10 2 -19q-7 -8 -36 10q-14 8 -66 33t-57 27q-6 3 -5 12t11 12q36 10 40 11q21 4 28 2t18 -16q13 -18 65 -72zM322 405q13 3 40 9.5t48.5 11t32.5 4.5h8t5.5 -1t4.5 -1.5t3 -2t1.5 -2.5t0.5 -4v-4.5v-5.5v-7q0 -39 -5 -142t-4 -154q0 -25 7.5 -46t16.5 -22
q8 0 25.5 3t25.5 4h8.5t5 -1t3.5 -3t1 -5q2 -10 -15 -17q-98 -29 -119 -29q-13 0 -20 5t-8 11t-2 19q-1 10 -1 72q0 16 -13 7l-7 -8q-21 -31 -37 -50t-51 -39t-77 -20q-115 0 -115 136q0 30 2.5 102t0.5 129q-1 17 -20 29t-46 6q-27 -3 -30 2q-2 7 2.5 11.5t12.5 4.5
q10 1 41 7t57.5 11t34.5 5t11.5 -0.5t7 -5.5t3.5 -15q1 -10 -2 -127t-3 -136q0 -107 71 -107q37 0 76.5 31t59.5 76q26 53 27 110q3 73 0 103q-1 23 -20.5 27.5t-38.5 -0.5q-20 -2 -23 4q-5 10 13 15z" />
    <glyph glyph-name="uacute" unicode="&#xfa;" horiz-adv-x="569" 
d="M322 405q13 3 40 9.5t48.5 11t32.5 4.5h8t5.5 -1t4.5 -1.5t3 -2t1.5 -2.5t0.5 -4v-4.5v-5.5v-7q0 -39 -5 -142t-4 -154q0 -25 7.5 -46t16.5 -22q8 0 25.5 3t25.5 4h8.5t5 -1t3.5 -3t1 -5q2 -10 -15 -17q-98 -29 -119 -29q-13 0 -20 5t-8 11t-2 19q-1 10 -1 72q0 16 -13 7
l-7 -8q-21 -31 -37 -50t-51 -39t-77 -20q-115 0 -115 136q0 30 2.5 102t0.5 129q-1 17 -20 29t-46 6q-27 -3 -30 2q-2 7 2.5 11.5t12.5 4.5q10 1 41 7t57.5 11t34.5 5t11.5 -0.5t7 -5.5t3.5 -15q1 -10 -2 -127t-3 -136q0 -107 71 -107q37 0 76.5 31t59.5 76q26 53 27 110
q3 73 0 103q-1 23 -20.5 27.5t-38.5 -0.5q-20 -2 -23 4q-5 10 13 15zM230 494q-7 0 0 11q2 4 6 8l49 66q11 15 17 20.5t20 9.5q25 8 63 8q9 -2 8 -10.5t-7 -12.5q-37 -22 -133 -94q-16 -11 -23 -6z" />
    <glyph glyph-name="ucircumflex" unicode="&#xfb;" horiz-adv-x="569" 
d="M168 492q-12 10 10 25q10 8 44 37t46 37q16 11 33 -2q10 -9 32 -31t37 -34q21 -17 12 -28q-7 -9 -23 1q-49 31 -59 35q-19 7 -34 3q-32 -11 -71 -38q-21 -13 -27 -5zM322 405q13 3 40 9.5t48.5 11t32.5 4.5h8t5.5 -1t4.5 -1.5t3 -2t1.5 -2.5t0.5 -4v-4.5v-5.5v-7
q0 -39 -5 -142t-4 -154q0 -25 7.5 -46t16.5 -22q8 0 25.5 3t25.5 4h8.5t5 -1t3.5 -3t1 -5q2 -10 -15 -17q-98 -29 -119 -29q-13 0 -20 5t-8 11t-2 19q-1 10 -1 72q0 16 -13 7l-7 -8q-21 -31 -37 -50t-51 -39t-77 -20q-115 0 -115 136q0 30 2.5 102t0.5 129q-1 17 -20 29
t-46 6q-27 -3 -30 2q-2 7 2.5 11.5t12.5 4.5q10 1 41 7t57.5 11t34.5 5t11.5 -0.5t7 -5.5t3.5 -15q1 -10 -2 -127t-3 -136q0 -107 71 -107q37 0 76.5 31t59.5 76q26 53 27 110q3 73 0 103q-1 23 -20.5 27.5t-38.5 -0.5q-20 -2 -23 4q-5 10 13 15z" />
    <glyph glyph-name="udieresis" unicode="&#xfc;" horiz-adv-x="569" 
d="M202 630q35 0 37 -30q2 -24 -19 -42q-22 -18 -36 -18q-25 0 -25 47q2 15 14 29t29 14zM370 630q35 0 37 -30q0 -24 -20 -42q-23 -18 -37 -18q-23 0 -23 47q0 15 13 29t30 14zM322 405q13 3 40 9.5t48.5 11t32.5 4.5h8t5.5 -1t4.5 -1.5t3 -2t1.5 -2.5t0.5 -4v-4.5v-5.5v-7
q0 -39 -5 -142t-4 -154q0 -25 7.5 -46t16.5 -22q8 0 25.5 3t25.5 4h8.5t5 -1t3.5 -3t1 -5q2 -10 -15 -17q-98 -29 -119 -29q-13 0 -20 5t-8 11t-2 19q-1 10 -1 72q0 16 -13 7l-7 -8q-21 -31 -37 -50t-51 -39t-77 -20q-115 0 -115 136q0 30 2.5 102t0.5 129q-1 17 -20 29
t-46 6q-27 -3 -30 2q-2 7 2.5 11.5t12.5 4.5q10 1 41 7t57.5 11t34.5 5t11.5 -0.5t7 -5.5t3.5 -15q1 -10 -2 -127t-3 -136q0 -107 71 -107q37 0 76.5 31t59.5 76q26 53 27 110q3 73 0 103q-1 23 -20.5 27.5t-38.5 -0.5q-20 -2 -23 4q-5 10 13 15z" />
    <glyph glyph-name="yacute" unicode="&#xfd;" horiz-adv-x="481" 
d="M233 494q-2 0 -2.5 2.5t1.5 7t7 9.5q6 7 25.5 33.5t24.5 32.5q16 24 36 30q26 8 63 8q9 -1 8 -10t-7 -13q-41 -25 -133 -94q-16 -11 -23 -6zM69 -274q-54 0 -54 62q0 49 30 81q11 12 21.5 16t13.5 -1q3 -3 2 -9t-7 -9q-18 -11 -16 -40t27 -29q32 0 61.5 34t44.5 69t22 64
q3 5 2 15t-1.5 13t-3 12.5t-3.5 12.5q-7 26 -54 169.5t-61 167.5q-24 40 -81 45q-20 3 -20 15q0 15 52 8q25 -4 49 -4t51 2t41 2q12 -3 7.5 -17t-14.5 -26q-6 -8 2 -46q13 -52 25 -92.5t27 -83.5t21 -61q2 -8 4 -12t5 -7.5t7 0t10 13.5q59 107 85 232q12 59 -18 69
q-34 9 -34 19q0 14 38 12q67 -7 114 0q6 0 10.5 -1.5t6 -4t1.5 -3.5q0 -15 -14 -25q-20 -14 -46 -64q-22 -39 -88.5 -185t-89.5 -187q-5 -10 -23 -51t-34 -73.5t-25 -44.5q-45 -57 -93 -57z" />
    <glyph glyph-name="thorn" unicode="&#xfe;" horiz-adv-x="503" 
d="M161 5q-15 4 -21 2t-7 -12q-2 -18 -2 -30q-1 -32 3.5 -84t4.5 -53q1 -8 6.5 -26t6.5 -22q7 -25 -11 -34q-38 -17 -69 -17q-12 0 -15.5 2t-5.5 8q-11 23 -1 99q9 72 13 161q2 73 2.5 273t-1.5 320q-1 37 -15.5 49t-61.5 9q-14 -1 -16 9q0 9 17 13q13 3 43.5 7.5t43.5 7.5
q13 4 36 7q25 0 28 -14t-1 -38q-2 -10 -2 -328q0 -27 14 -4l3 5q25 43 73.5 81t97.5 38q75 0 110.5 -39.5t35.5 -136.5t-69 -179.5t-150 -82.5q-49 0 -90 9zM311 380q-43 0 -79 -26.5t-54 -52.5q-22 -31 -33 -61q-5 -11 -7.5 -35t-3 -42t0 -50t0.5 -35q0 -11 3 -15.5
t12 -8.5q42 -21 101 -21q49 0 84.5 34.5t51 80.5t15.5 94q0 71 -27 104.5t-64 33.5z" />
    <glyph glyph-name="ydieresis" unicode="&#xff;" horiz-adv-x="481" 
d="M201 630q35 0 37 -30q2 -25 -19 -42q-20 -18 -36 -18q-25 0 -25 47q2 15 14.5 29t28.5 14zM356 630q35 0 37 -30q2 -24 -19 -42q-23 -18 -37 -18q-24 0 -24 47q1 15 13.5 29t29.5 14zM69 -274q-54 0 -54 62q0 49 30 81q11 12 21.5 16t13.5 -1q3 -3 2 -9t-7 -9
q-18 -11 -16 -40t27 -29q32 0 61.5 34t44.5 69t22 64q3 5 2 15t-1.5 13t-3 12.5t-3.5 12.5q-7 26 -54 169.5t-61 167.5q-24 40 -81 45q-20 3 -20 15q0 15 52 8q25 -4 49 -4t51 2t41 2q12 -3 7.5 -17t-14.5 -26q-6 -8 2 -46q13 -52 25 -92.5t27 -83.5t21 -61q2 -8 4 -12
t5 -7.5t7 0t10 13.5q59 107 85 232q12 59 -18 69q-34 9 -34 19q0 14 38 12q67 -7 114 0q6 0 10.5 -1.5t6 -4t1.5 -3.5q0 -15 -14 -25q-20 -14 -46 -64q-22 -39 -88.5 -185t-89.5 -187q-5 -10 -23 -51t-34 -73.5t-25 -44.5q-45 -57 -93 -57z" />
    <glyph glyph-name="Amacron" unicode="&#x100;" horiz-adv-x="724" 
d="M327 569q9 9 29 19.5t35 14.5q10 1 13 -2t8 -18q8 -22 93 -231t93 -225q1 -3 7 -15l7.5 -15t7 -13t8.5 -13.5t9 -11.5t11.5 -11t13 -8t16.5 -8t19 -5q10 0 10 -14q0 -18 -23 -15q-33 5 -62 5.5t-66 -2.5t-52 -4h-6.5h-6.5t-5 0.5t-4 2t-1 4.5q0 10 9 13q23 9 29 21.5
t4 35.5q-2 15 -15 53.5t-19 46.5q-1 1 -3.5 4.5t-3 4l-2.5 2.5t-4 2.5t-4.5 1.5t-6.5 1q-20 3 -106.5 3.5t-101.5 -0.5q-29 -1 -38 -15q-18 -24 -35 -74t-7 -66q2 -3 18 -11.5t16 -17.5q0 -14 -23 -10q-51 9 -150 1q-30 -3 -30 9t25 20q36 11 85 72q40 46 96.5 157t99.5 212
q20 48 5 79q-4 8 8 20zM358 471q-8 0 -21 -26q-6 -11 -48.5 -102t-43.5 -101q-5 -24 13 -24q124 0 198 3q11 2 13.5 6t-2.5 18q-37 101 -94 209q-8 17 -15 17zM260 660q-13 0 -17.5 4t-0.5 13q5 17 30 17q155 3 213 9q4 0 10.5 1t10 1.5t7 -0.5t5 -4t1.5 -8q0 -12 -21 -25
q-9 -7 -28 -7q-36 -1 -210 -1z" />
    <glyph glyph-name="amacron" unicode="&#x101;" horiz-adv-x="481" 
d="M114 444q8 0 13 -16t34 -16q21 0 67 6.5t68 6.5q36 0 59 -20t21 -48q-6 -206 -6 -226q0 -70 21 -67q8 3 18 15q6 7 15.5 24.5t14.5 22.5q8 8 15 5q9 -2 6 -13q-16 -42 -53.5 -85t-68.5 -43q-22 0 -28.5 13.5t-8.5 43.5q0 3 -2.5 8t-5.5 5q-4 0 -14 -8q-71 -66 -129 -66
q-119 0 -119 112q0 40 30.5 71.5t70.5 42.5q131 39 146 45q17 6 25 16.5t9.5 19.5t1.5 28q0 26 -12.5 37t-44.5 10q-22 -1 -72.5 -9.5t-77.5 -8.5q-22 0 -26.5 9.5t-0.5 31.5q6 22 19 41q9 12 15 12zM103 109q2 -78 74 -78q32 0 72 30t48 76q9 51 8 85q0 13 -18 9
q-91 -25 -131 -42q-53 -24 -53 -80zM116 508q-13 0 -17.5 4t-0.5 13q5 17 30 17q155 3 213 9q4 0 10.5 1t10 1.5t7 -0.5t5 -4t1.5 -8q0 -12 -21 -25q-9 -7 -28 -7q-36 -1 -210 -1z" />
    <glyph glyph-name="Abreve" unicode="&#x102;" horiz-adv-x="724" 
d="M327 569q9 9 29 19.5t35 14.5q10 1 13 -2t8 -18q8 -22 93 -231t93 -225q1 -3 7 -15l7.5 -15t7 -13t8.5 -13.5t9 -11.5t11.5 -11t13 -8t16.5 -8t19 -5q10 0 10 -14q0 -18 -23 -15q-33 5 -62 5.5t-66 -2.5t-52 -4h-6.5h-6.5t-5 0.5t-4 2t-1 4.5q0 10 9 13q23 9 29 21.5
t4 35.5q-2 15 -15 53.5t-19 46.5q-1 1 -3.5 4.5t-3 4l-2.5 2.5t-4 2.5t-4.5 1.5t-6.5 1q-20 3 -106.5 3.5t-101.5 -0.5q-29 -1 -38 -15q-18 -24 -35 -74t-7 -66q2 -3 18 -11.5t16 -17.5q0 -14 -23 -10q-51 9 -150 1q-30 -3 -30 9t25 20q36 11 85 72q40 46 96.5 157t99.5 212
q20 48 5 79q-4 8 8 20zM358 471q-8 0 -21 -26q-6 -11 -48.5 -102t-43.5 -101q-5 -24 13 -24q124 0 198 3q11 2 13.5 6t-2.5 18q-37 101 -94 209q-8 17 -15 17zM488 752q11 0 3 -27q-11 -40 -47 -60t-69 -20q-39 0 -65.5 23t-35.5 52q-9 31 3 34q11 2 21 -14q22 -35 79 -35
q23 0 52.5 8.5t41.5 25.5q8 14 17 13z" />
    <glyph glyph-name="abreve" unicode="&#x103;" horiz-adv-x="481" 
d="M114 444q8 0 13 -16t34 -16q21 0 67 6.5t68 6.5q36 0 59 -20t21 -48q-6 -206 -6 -226q0 -70 21 -67q8 3 18 15q6 7 15.5 24.5t14.5 22.5q8 8 15 5q9 -2 6 -13q-16 -42 -53.5 -85t-68.5 -43q-22 0 -28.5 13.5t-8.5 43.5q0 3 -2.5 8t-5.5 5q-4 0 -14 -8q-71 -66 -129 -66
q-119 0 -119 112q0 40 30.5 71.5t70.5 42.5q131 39 146 45q17 6 25 16.5t9.5 19.5t1.5 28q0 26 -12.5 37t-44.5 10q-22 -1 -72.5 -9.5t-77.5 -8.5q-22 0 -26.5 9.5t-0.5 31.5q6 22 19 41q9 12 15 12zM103 109q2 -78 74 -78q32 0 72 30t48 76q9 51 8 85q0 13 -18 9
q-91 -25 -131 -42q-53 -24 -53 -80zM344 598q11 0 3 -27q-11 -40 -47 -60t-69 -20q-39 0 -65.5 23t-35.5 52q-9 31 3 34q11 2 21 -14q22 -35 79 -35q23 0 52.5 8.5t41.5 25.5q8 14 17 13z" />
    <glyph glyph-name="Aogonek" unicode="&#x104;" horiz-adv-x="724" 
d="M703 -136q6 -12 -18 -26q-31 -16 -61 -16q-42 0 -66 25.5t-24 64.5q0 32 18 64q8 14 5.5 18t-14.5 4q-6 0 -19 -0.5t-20 -0.5h-6.5h-6.5t-5 0.5t-4 2t-1 4.5q0 10 9 13q23 9 29 21.5t4 35.5q-2 15 -15 53.5t-19 46.5q-1 1 -3.5 4.5t-3 4l-2.5 2.5t-4 2.5t-4.5 1.5t-6.5 1
q-20 3 -106.5 3.5t-101.5 -0.5q-29 -1 -38 -15q-18 -24 -35 -74t-7 -66q2 -3 18 -11.5t16 -17.5q0 -14 -23 -10q-51 9 -150 1q-30 -3 -30 9t25 20q36 11 85 72q40 46 96.5 157t99.5 212q20 48 5 79q-4 8 8 20q9 9 29 19.5t35 14.5q10 1 13 -2t8 -18q8 -22 93 -231t93 -225
q1 -3 7 -15l7.5 -15t7 -13t8.5 -13.5t9 -11.5t11.5 -11t13 -8t16.5 -8t19 -5q10 0 10 -14q0 -18 -23 -15q-26 5 -58 5q-28 0 -36 -27q-10 -42 16 -77q14 -18 35.5 -27.5t36.5 -3.5q19 6 25 -4zM358 471q-8 0 -21 -26q-6 -11 -48.5 -102t-43.5 -101q-5 -24 13 -24
q124 0 198 3q11 2 13.5 6t-2.5 18q-37 101 -94 209q-8 17 -15 17z" />
    <glyph glyph-name="aogonek" unicode="&#x105;" horiz-adv-x="481" 
d="M114 444q8 0 13 -16t34 -16q21 0 67 6.5t68 6.5q36 0 59 -20t21 -48q-6 -206 -6 -226q0 -70 21 -67q8 3 18 15q6 7 15.5 24.5t14.5 22.5q8 8 15 5q9 -2 6 -13q-10 -27 -32 -58.5t-46 -50.5q-27 -21 -30 -38q-10 -44 8 -68q14 -19 38 -25t41 2q20 8 24 2q5 -12 -18 -27
q-37 -24 -66 -24q-41 0 -62 21.5t-21 58.5q0 28 26 60q8 13 7 15.5t-13 9.5q-11 7 -15 51q0 3 -2.5 8t-5.5 5q-4 0 -14 -8q-71 -66 -129 -66q-119 0 -119 112q0 40 30.5 71.5t70.5 42.5q131 39 146 45q17 6 25 16.5t9.5 19.5t1.5 28q0 26 -12.5 37t-44.5 10
q-22 -1 -72.5 -9.5t-77.5 -8.5q-22 0 -26.5 9.5t-0.5 31.5q6 22 19 41q9 12 15 12zM103 109q2 -78 74 -78q32 0 72 30t48 76q9 51 8 85q0 13 -18 9q-91 -25 -131 -42q-53 -24 -53 -80z" />
    <glyph glyph-name="Cacute" unicode="&#x106;" horiz-adv-x="563" 
d="M38 242q0 83 28 152.5t75 114.5t107 70t124 25q62 0 102.5 -23.5t40.5 -67.5q0 -41 -44 -88q-12 -12 -22 -7q-5 2 0 19q15 41 -12.5 85t-81.5 44q-60 0 -107 -24.5t-75 -65t-42.5 -87t-14.5 -94.5q0 -114 59 -181t171 -67q41 0 77 9q29 6 53 26q11 10 25.5 29t20.5 25
q6 8 13 0q7 -5 1 -17q-7 -17 -29.5 -48t-39.5 -48q-11 -13 -28 -17q-53 -12 -136 -12q-115 0 -190 69.5t-75 178.5zM298 639q-2 0 -2.5 2.5t1.5 7t7 9.5q8 10 50 66q16 24 36 30q26 8 63 8q9 -1 8 -10t-7 -13q-41 -25 -133 -94q-15 -11 -23 -6z" />
    <glyph glyph-name="cacute" unicode="&#x107;" horiz-adv-x="423" 
d="M224 -7q-89 0 -141 51t-48 146q2 58 27.5 106t62 76.5t74 44t67.5 15.5q38 0 70.5 -12t38.5 -41q4 -26 -12.5 -51t-42.5 -35q-12 -5 -19 0q-3 8 5 17q6 4 11 15t5 18q0 24 -19 38.5t-56 14.5q-51 0 -97.5 -57.5t-46.5 -140.5q0 -66 37 -111.5t102 -45.5q93 0 128 52
q7 9 14 9q8 -1 6 -17q-2 -11 -43 -56q-25 -25 -53 -31q-27 -5 -70 -5zM195 494q-2 0 -2.5 2.5t1.5 7t7 9.5q8 10 50 66q16 24 36 30q26 8 63 8q9 -1 8 -10t-7 -13q-41 -25 -133 -94q-15 -11 -23 -6z" />
    <glyph glyph-name="Ccircumflex" unicode="&#x108;" horiz-adv-x="563" 
d="M38 242q0 83 28 152.5t75 114.5t107 70t124 25q62 0 102.5 -23.5t40.5 -67.5q0 -41 -44 -88q-12 -12 -22 -7q-5 2 0 19q15 41 -12.5 85t-81.5 44q-60 0 -107 -24.5t-75 -65t-42.5 -87t-14.5 -94.5q0 -114 59 -181t171 -67q41 0 77 9q29 6 53 26q11 10 25.5 29t20.5 25
q6 8 13 0q7 -5 1 -17q-7 -17 -29.5 -48t-39.5 -48q-11 -13 -28 -17q-53 -12 -136 -12q-115 0 -190 69.5t-75 178.5zM241 640q-11 11 10 25q12 8 45.5 37t44.5 37q17 12 33 -2q12 -10 33.5 -32t36.5 -33q20 -18 12 -28q-7 -9 -24 1q-46 30 -59 35q-19 7 -33 3
q-32 -11 -71 -38q-21 -13 -28 -5z" />
    <glyph glyph-name="ccircumflex" unicode="&#x109;" horiz-adv-x="423" 
d="M224 -7q-89 0 -141 51t-48 146q2 58 27.5 106t62 76.5t74 44t67.5 15.5q38 0 70.5 -12t38.5 -41q4 -26 -12.5 -51t-42.5 -35q-12 -5 -19 0q-3 8 5 17q6 4 11 15t5 18q0 24 -19 38.5t-56 14.5q-51 0 -97.5 -57.5t-46.5 -140.5q0 -66 37 -111.5t102 -45.5q93 0 128 52
q7 9 14 9q8 -1 6 -17q-2 -11 -43 -56q-25 -25 -53 -31q-27 -5 -70 -5zM135 492q-11 11 10 25q12 8 45.5 37t44.5 37q17 12 33 -2q12 -10 33.5 -32t36.5 -33q20 -18 12 -28q-7 -9 -24 1q-47 30 -59 35q-19 7 -33 3q-32 -11 -71 -38q-21 -13 -28 -5z" />
    <glyph glyph-name="Cdotaccent" unicode="&#x10a;" horiz-adv-x="563" 
d="M38 242q0 83 28 152.5t75 114.5t107 70t124 25q62 0 102.5 -23.5t40.5 -67.5q0 -41 -44 -88q-12 -12 -22 -7q-5 2 0 19q15 41 -12.5 85t-81.5 44q-60 0 -107 -24.5t-75 -65t-42.5 -87t-14.5 -94.5q0 -114 59 -181t171 -67q41 0 77 9q29 6 53 26q11 10 25.5 29t20.5 25
q6 8 13 0q7 -5 1 -17q-7 -17 -29.5 -48t-39.5 -48q-11 -13 -28 -17q-53 -12 -136 -12q-115 0 -190 69.5t-75 178.5zM360 746q38 0 40 -33q2 -26 -21 -46q-24 -20 -40 -20q-27 0 -27 51q2 17 15.5 32.5t32.5 15.5z" />
    <glyph glyph-name="cdotaccent" unicode="&#x10b;" horiz-adv-x="423" 
d="M224 -7q-89 0 -141 51t-48 146q2 58 27.5 106t62 76.5t74 44t67.5 15.5q38 0 70.5 -12t38.5 -41q4 -26 -12.5 -51t-42.5 -35q-12 -5 -19 0q-3 8 5 17q6 4 11 15t5 18q0 24 -19 38.5t-56 14.5q-51 0 -97.5 -57.5t-46.5 -140.5q0 -66 37 -111.5t102 -45.5q93 0 128 52
q7 9 14 9q8 -1 6 -17q-2 -11 -43 -56q-25 -25 -53 -31q-27 -5 -70 -5zM266 621q38 0 40 -33q2 -26 -21 -46q-24 -20 -40 -20q-27 0 -27 51q2 17 15.5 32.5t32.5 15.5z" />
    <glyph glyph-name="Ccaron" unicode="&#x10c;" horiz-adv-x="563" 
d="M38 242q0 83 28 152.5t75 114.5t107 70t124 25q62 0 102.5 -23.5t40.5 -67.5q0 -41 -44 -88q-12 -12 -22 -7q-5 2 0 19q15 41 -12.5 85t-81.5 44q-60 0 -107 -24.5t-75 -65t-42.5 -87t-14.5 -94.5q0 -114 59 -181t171 -67q41 0 77 9q29 6 53 26q11 10 25.5 29t20.5 25
q6 8 13 0q7 -5 1 -17q-7 -17 -29.5 -48t-39.5 -48q-11 -13 -28 -17q-53 -12 -136 -12q-115 0 -190 69.5t-75 178.5zM454 738q11 -11 -10 -24q-12 -8 -45.5 -37t-44.5 -37q-16 -12 -33 1q-10 9 -32.5 31.5t-37.5 34.5q-20 18 -12 28q7 8 24 -1q49 -32 59 -35q16 -8 33 -3
q30 9 71 37q22 13 28 5z" />
    <glyph glyph-name="ccaron" unicode="&#x10d;" horiz-adv-x="423" 
d="M224 -7q-89 0 -141 51t-48 146q2 58 27.5 106t62 76.5t74 44t67.5 15.5q38 0 70.5 -12t38.5 -41q4 -26 -12.5 -51t-42.5 -35q-12 -5 -19 0q-3 8 5 17q6 4 11 15t5 18q0 24 -19 38.5t-56 14.5q-51 0 -97.5 -57.5t-46.5 -140.5q0 -66 37 -111.5t102 -45.5q93 0 128 52
q7 9 14 9q8 -1 6 -17q-2 -11 -43 -56q-25 -25 -53 -31q-27 -5 -70 -5zM361 595q11 -11 -10 -24q-12 -8 -45.5 -37t-44.5 -37q-16 -12 -33 1q-10 9 -32.5 31.5t-37.5 34.5q-20 18 -12 28q7 8 24 -1q49 -32 59 -35q16 -8 33 -3q30 9 71 37q22 13 28 5z" />
    <glyph glyph-name="Dcaron" unicode="&#x10e;" horiz-adv-x="652" 
d="M26 584q0 15 39 10q28 -2 91 -2q28 0 84.5 2.5t80.5 2.5q146 1 224.5 -52.5t77.5 -158.5q-1 -92 -32 -167.5t-81.5 -122t-112.5 -71.5t-127 -25q-26 -1 -61.5 0.5t-39.5 1.5q-58 0 -128 -5q-18 0 -21 10q-2 8 6 14t15 7.5t17 3.5q18 3 29.5 9t18.5 17.5t9.5 18t6.5 22.5
q6 24 7.5 190.5t0.5 208.5q-1 64 -88 71q-16 1 -16 15zM204 545q-6 -279 0 -472q1 -44 67 -44q65 -2 117.5 25t86 73.5t51.5 105.5t18 124q0 94 -60.5 146.5t-149.5 62.5q-33 2 -97 0q-33 -2 -33 -21zM435 738q11 -11 -10 -24q-12 -8 -45.5 -37t-44.5 -37q-16 -12 -33 1
q-10 9 -32.5 31.5t-37.5 34.5q-20 18 -12 28q7 8 24 -1q49 -32 59 -35q16 -8 33 -3q30 9 71 37q22 13 28 5z" />
    <glyph glyph-name="dcaron" unicode="&#x10f;" horiz-adv-x="569" 
d="M530 503q-5 5 10 26q16 22 22 48t-1 37q-12 20 -33 13q-18 -6 -23 -2q-10 8 10 35q25 32 60 32q15 0 27 -18t12 -46q0 -26 -15.5 -59t-31.5 -50q-24 -27 -37 -16zM439 692q10 2 17.5 -3.5t6.5 -13.5q-3 -30 -3 -34q0 -63 -3 -194t-5.5 -229.5t-0.5 -110.5q4 -32 15 -46
t34 -9q2 1 13 5.5t17 4.5q12 0 14 -8t-12 -16t-62 -27.5t-63 -19.5q-16 0 -24 30.5t-8 57.5q0 30 -5 30q-4 0 -13 -11q-22 -26 -32 -37t-34 -32.5t-47 -31.5t-47 -10q-78 0 -123 53.5t-45 121.5q0 106 67.5 185t164.5 79q41 0 77 -7q30 -9 36.5 -6t9.5 41q4 49 4 130
q0 27 -0.5 35t-5 18t-14.5 11t-30 0q-2 0 -8 -0.5t-10.5 -1t-11 -0.5t-11 0.5t-8.5 1.5t-6 3.5t-1 5.5q3 12 23 14q80 8 134 21zM223 40q47 0 94 53t56 109q11 70 3 124q0 33 -35.5 50t-79.5 17q-76 0 -115 -64t-39 -146q0 -58 29.5 -100.5t86.5 -42.5z" />
    <glyph glyph-name="Dcroat" unicode="&#x110;" horiz-adv-x="652" 
d="M26 583q0 15 39 10q28 -2 91 -2q147 5 165 5q146 2 224 -52t77 -158q-1 -92 -32 -167.5t-81.5 -122t-112.5 -71.5t-127 -25q-25 -1 -60.5 0.5t-40.5 1.5q-57 0 -127 -5q-18 0 -21 10q-3 12 9.5 18t28.5 8q34 5 46.5 21.5t17.5 44.5q8 27 8 181q0 25 -21 26q-26 3 -52 0
q-13 -1 -17 4.5t-1 13.5q6 12 54 17q22 2 29.5 6.5t7.5 22.5v127q0 10 -3.5 19t-8.5 15.5t-12.5 12t-14 9t-15.5 6.5t-13.5 4t-12 3t-8.5 2q-16 4 -16 15zM204 543l-4 -173q0 -16 3.5 -21.5t15.5 -4.5q60 3 160 12q3 0 8 1t8 1.5t7 0.5h6.5h5t4.5 -1t3.5 -2.5t2 -4t0.5 -5.5
q0 -16 -28 -30q-11 -7 -38 -7q-44 -2 -132 -2q-26 0 -26 -28q0 -109 4 -206q1 -42 66 -44q86 -2 149 45t92.5 121t29.5 162q0 94 -59 145.5t-148 61.5q-50 4 -97 0q-33 -2 -33 -21z" />
    <glyph glyph-name="dcroat" unicode="&#x111;" horiz-adv-x="569" 
d="M369 524h-106q-24 0 -17 18q5 17 30 17q17 1 48 1h43q21 0 21 24q0 27 -0.5 35t-5 18t-14.5 11t-30 0q-2 0 -8 -0.5t-10.5 -1t-11 -0.5t-11 0.5t-8.5 1.5t-6 3.5t-1 5.5q3 12 23 14q80 8 134 21q10 2 17.5 -3.5t6.5 -13.5q-3 -30 -3 -34v-57q0 -18 9 -20t28 3q4 0 10 1.5
t9.5 1.5t7 -0.5t5 -3.5t1.5 -8q0 -12 -21 -25q-8 -7 -28 -7q-15 0 -18.5 -2.5t-3.5 -17.5q-9 -389 -8 -399q4 -32 15 -46t34 -9q2 1 13 5.5t17 4.5q12 0 14 -8t-12 -16t-62 -27.5t-63 -19.5q-16 0 -24 30.5t-8 57.5q0 30 -5 30q-4 0 -13 -11q-22 -26 -32 -37t-34 -32.5
t-47 -31.5t-47 -10q-78 0 -123 53.5t-45 121.5q0 106 67.5 185t164.5 79q41 0 77 -7q30 -9 36.5 -6t9.5 41q1 12 2 32.5t1 22.5v4.5t-1.5 4.5t-5.5 5t-11 1zM223 40q47 0 94 53t56 109q11 70 3 124q0 33 -35.5 50t-79.5 17q-76 0 -115 -64t-39 -146q0 -58 29.5 -100.5
t86.5 -42.5z" />
    <glyph glyph-name="Emacron" unicode="&#x112;" horiz-adv-x="594" 
d="M26 585q0 14 39 10q70 -7 108 -7q47 0 180.5 5.5t138.5 5.5q7 0 12.5 -0.5t9 -1.5t6 -1.5t4 -2.5t2 -2.5t2 -3t1.5 -3.5q7 -20 3.5 -68.5t-17.5 -64.5q-13 -13 -22 -6q-5 6 -3 16q9 45 -10.5 73t-63.5 28q-164 0 -190 -6q-13 -3 -15.5 -7t-2.5 -15q0 -17 -0.5 -81.5
t-0.5 -71.5q0 -11 0.5 -14t3.5 -10t12.5 -9.5t25.5 -2.5q58 0 84 3.5t47 15.5q9 4 24.5 24t15.5 32q0 5 5.5 12t11.5 6q15 0 10 -33q-12 -87 -12 -145q0 -19 -15 -20q-4 0 -8.5 5.5t-5.5 13.5q-2 18 -18.5 35t-35.5 18q-77 6 -117 3q-17 -1 -22 -6t-6 -18q-2 -33 -2 -182
q2 -30 7 -39.5t27 -18.5q35 -14 98 -14q56 0 94.5 8.5t60.5 26t33.5 36t19.5 45.5q1 3 2 9t1.5 8.5t2.5 6t5 4.5t8 0q15 -2 10 -51q-3 -25 -26.5 -66t-56.5 -61q-25 -8 -57 -6q-29 2 -57 4.5t-39 2.5q-92 6 -162 4q-24 0 -53.5 -2.5t-54 -5.5t-28.5 -3q-18 0 -20 10
q-1 4 0 7t3.5 5.5t5.5 4.5t7.5 3.5l7.5 2.5t8 2.5t7 1.5q33 5 46 20.5t17 44.5q8 24 9 202.5t-1 196.5q-1 56 -88 71q-16 4 -16 16zM218 660q-13 0 -17.5 4t-0.5 13q5 17 30 17q155 3 213 9q4 0 10.5 1t10 1.5t7 -0.5t5 -4t1.5 -8q0 -12 -21 -25q-9 -7 -28 -7
q-36 -1 -210 -1z" />
    <glyph glyph-name="emacron" unicode="&#x113;" horiz-adv-x="432" 
d="M237 41q83 0 119 30q14 10 28 26q7 8 15 3q7 -4 3 -12q-7 -14 -37 -46.5t-42 -37.5q-39 -14 -105 -14q-89 -1 -140.5 50t-51.5 145q0 103 71 176t150 73q83 0 116.5 -51t21.5 -111q0 -1 -5 -18q-4 -7 -19 -7q-34 0 -119 -1.5t-117 -1.5q-17 0 -21 -1.5t-6 -9.5
q-4 -12 -4 -34q2 -63 43 -110.5t100 -47.5zM139 350q-35 -41 -33 -70q0 -9 13 -9l181 6q13 1 17 4.5t4 15.5q-2 44 -23.5 71t-60.5 27q-60 0 -98 -45zM116 508q-13 0 -17.5 4t-0.5 13q5 17 30 17q155 3 213 9q4 0 10.5 1t10 1.5t7 -0.5t5 -4t1.5 -8q0 -12 -21 -25
q-9 -7 -28 -7q-36 -1 -210 -1z" />
    <glyph glyph-name="Ebreve" unicode="&#x114;" horiz-adv-x="594" 
d="M26 585q0 14 39 10q70 -7 108 -7q47 0 180.5 5.5t138.5 5.5q7 0 12.5 -0.5t9 -1.5t6 -1.5t4 -2.5t2 -2.5t2 -3t1.5 -3.5q7 -20 3.5 -68.5t-17.5 -64.5q-13 -13 -22 -6q-5 6 -3 16q9 45 -10.5 73t-63.5 28q-164 0 -190 -6q-13 -3 -15.5 -7t-2.5 -15q0 -17 -0.5 -81.5
t-0.5 -71.5q0 -11 0.5 -14t3.5 -10t12.5 -9.5t25.5 -2.5q58 0 84 3.5t47 15.5q9 4 24.5 24t15.5 32q0 5 5.5 12t11.5 6q15 0 10 -33q-12 -87 -12 -145q0 -19 -15 -20q-4 0 -8.5 5.5t-5.5 13.5q-2 18 -18.5 35t-35.5 18q-77 6 -117 3q-17 -1 -22 -6t-6 -18q-2 -33 -2 -182
q2 -30 7 -39.5t27 -18.5q35 -14 98 -14q56 0 94.5 8.5t60.5 26t33.5 36t19.5 45.5q1 3 2 9t1.5 8.5t2.5 6t5 4.5t8 0q15 -2 10 -51q-3 -25 -26.5 -66t-56.5 -61q-25 -8 -57 -6q-29 2 -57 4.5t-39 2.5q-92 6 -162 4q-24 0 -53.5 -2.5t-54 -5.5t-28.5 -3q-18 0 -20 10
q-1 4 0 7t3.5 5.5t5.5 4.5t7.5 3.5l7.5 2.5t8 2.5t7 1.5q33 5 46 20.5t17 44.5q8 24 9 202.5t-1 196.5q-1 56 -88 71q-16 4 -16 16zM438 752q11 0 3 -27q-11 -40 -47 -60t-69 -20q-39 0 -65.5 23t-35.5 52q-9 31 3 34q11 2 21 -14q22 -35 79 -35q23 0 52.5 8.5t41.5 25.5
q8 14 17 13z" />
    <glyph glyph-name="ebreve" unicode="&#x115;" horiz-adv-x="432" 
d="M237 41q83 0 119 30q14 10 28 26q7 8 15 3q7 -4 3 -12q-7 -14 -37 -46.5t-42 -37.5q-39 -14 -105 -14q-89 -1 -140.5 50t-51.5 145q0 103 71 176t150 73q83 0 116.5 -51t21.5 -111q0 -1 -5 -18q-4 -7 -19 -7q-34 0 -119 -1.5t-117 -1.5q-17 0 -21 -1.5t-6 -9.5
q-4 -12 -4 -34q2 -63 43 -110.5t100 -47.5zM139 350q-35 -41 -33 -70q0 -9 13 -9l181 6q13 1 17 4.5t4 15.5q-2 44 -23.5 71t-60.5 27q-60 0 -98 -45zM349 598q11 0 3 -27q-11 -40 -47 -60t-69 -20q-39 0 -65.5 23t-35.5 52q-9 31 3 34q11 2 21 -14q22 -35 79 -35
q24 0 53 8.5t41 25.5q8 14 17 13z" />
    <glyph glyph-name="Edotaccent" unicode="&#x116;" horiz-adv-x="594" 
d="M26 585q0 14 39 10q70 -7 108 -7q47 0 180.5 5.5t138.5 5.5q7 0 12.5 -0.5t9 -1.5t6 -1.5t4 -2.5t2 -2.5t2 -3t1.5 -3.5q7 -20 3.5 -68.5t-17.5 -64.5q-13 -13 -22 -6q-5 6 -3 16q9 45 -10.5 73t-63.5 28q-164 0 -190 -6q-13 -3 -15.5 -7t-2.5 -15q0 -17 -0.5 -81.5
t-0.5 -71.5q0 -11 0.5 -14t3.5 -10t12.5 -9.5t25.5 -2.5q58 0 84 3.5t47 15.5q9 4 24.5 24t15.5 32q0 5 5.5 12t11.5 6q15 0 10 -33q-12 -87 -12 -145q0 -19 -15 -20q-4 0 -8.5 5.5t-5.5 13.5q-2 18 -18.5 35t-35.5 18q-77 6 -117 3q-17 -1 -22 -6t-6 -18q-2 -33 -2 -182
q2 -30 7 -39.5t27 -18.5q35 -14 98 -14q56 0 94.5 8.5t60.5 26t33.5 36t19.5 45.5q1 3 2 9t1.5 8.5t2.5 6t5 4.5t8 0q15 -2 10 -51q-3 -25 -26.5 -66t-56.5 -61q-25 -8 -57 -6q-29 2 -57 4.5t-39 2.5q-92 6 -162 4q-24 0 -53.5 -2.5t-54 -5.5t-28.5 -3q-18 0 -20 10
q-1 4 0 7t3.5 5.5t5.5 4.5t7.5 3.5l7.5 2.5t8 2.5t7 1.5q33 5 46 20.5t17 44.5q8 24 9 202.5t-1 196.5q-1 56 -88 71q-16 4 -16 16zM352 736q38 0 40 -33q2 -26 -21 -46q-24 -20 -40 -20q-27 0 -27 51q2 17 15.5 32.5t32.5 15.5z" />
    <glyph glyph-name="edotaccent" unicode="&#x117;" horiz-adv-x="432" 
d="M237 41q83 0 119 30q14 10 28 26q7 8 15 3q7 -4 3 -12q-7 -14 -37 -46.5t-42 -37.5q-39 -14 -105 -14q-89 -1 -140.5 50t-51.5 145q0 103 71 176t150 73q83 0 116.5 -51t21.5 -111q0 -1 -5 -18q-4 -7 -19 -7q-34 0 -119 -1.5t-117 -1.5q-17 0 -21 -1.5t-6 -9.5
q-4 -12 -4 -34q2 -63 43 -110.5t100 -47.5zM139 350q-35 -41 -33 -70q0 -9 13 -9l181 6q13 1 17 4.5t4 15.5q-2 44 -23.5 71t-60.5 27q-60 0 -98 -45zM258 621q38 0 40 -33q2 -26 -21 -46q-24 -20 -40 -20q-27 0 -27 51q2 17 15.5 32.5t32.5 15.5z" />
    <glyph glyph-name="Eogonek" unicode="&#x118;" horiz-adv-x="594" 
d="M583 -136q6 -12 -17 -26q-31 -16 -62 -16q-42 0 -66 25.5t-24 64.5q0 33 22 70q10 13 -8 15q-1 0 -3 0.5t-3 0.5h-7q-9 1 -51.5 4t-64.5 4q-56 3 -109 2h-14q-17 0 -25 -1q-12 0 -17 -1q-4 0 -11 -0.5t-10 -0.5l-34 -4l-19 -2q-18 -2 -20 -2q-18 0 -20 10q-1 2 -1 5l1 1
v2l1 1l1 2q3 5 12 8q4 2 25 8q5 0 13 2q4 2 6 2q22 7 30.5 22t13.5 39q13 41 8 387v16q-5 51 -88 67q-16 4 -16 16v3q6 9 39 7q14 -2 20 -2q1 0 3 -1l37 -3h7q13 -1 41 -1h44l65 2q34 2 51 2l59 3q5 0 14 0.5t13 0.5q9 1 24 1q10 0 22 0.5t18 1t9 0.5h9q2 0 5.5 -0.5
t4.5 -0.5l9 -3q4 -2 7 -7v-1q1 0 1 -1q0 -2 1 -2l3 -16q2 -22 1 -37v-12q0 -2 -0.5 -6t-0.5 -6q-1 -2 -1 -8l-3 -15q0 -4 -2 -10l-6 -15l-2 -4l-3 -4l-4 -4l-4 -3q-5 -3 -10 -2l-4 3l-4 5v7q0 2 1 4q0 3 1 4v4q1 3 1 9q2 21 -2 34q-2 6 -4 9q-4 10 -12 20q-11 11 -30 17
q-3 0 -7 2q-10 2 -17 2h-4q-55 0 -87 -1q-3 0 -9 -0.5t-9 -0.5h-18q-2 0 -5.5 -0.5t-5.5 -0.5q-17 0 -24 -1h-13q-4 0 -8.5 -0.5t-7 -1t-3.5 -0.5h-1q-1 -1 -2 -1q-15 -4 -15 -14v-55q-1 -42 -1 -105l-1 -7q0 -7 1 -7q0 -3 2 -7q1 -5 4 -7l4 -3l4 -2q6 -2 11 -2q5 -1 17 -1
h31q6 0 17 0.5t15 0.5q2 0 4 0.5t3 0.5q23 2 32 5q1 0 2 0.5t2 0.5l10 3q5 2 15 8l11 8l4 4l4 5l6 8l3 3q1 2 2.5 4t1.5 3q2 2 2 4q6 9 6 17v4l2 3q0 2 2 4q5 7 13 7h1h1l1 -1q1 0 3 -2q0 -1 2 -3q0 -1 1 -2v-2q1 -1 1 -2v-3q2 -8 0 -16v-2l-3 -17l-2 -19l-3 -21
q-2 -18 -2 -26q0 -1 -0.5 -3.5t-0.5 -3.5q-1 -11 -1 -35v-23q0 -1 -1 -3v-2q-4 -8 -8 -10q-2 -2 -5 -2h-3q-1 0 -2 1q-1 0 -4 3q-4 4 -6 13v2q-2 8 -4 12q0 1 -0.5 2t-0.5 2q-12 20 -25 28l-3 2l-15 6q-1 0 -3 0.5t-3 0.5h-6q-20 2 -37 2q-53 2 -67 1h-7q-14 -1 -21 -5
l-2 -2q-3 -3 -3 -5q-1 -1 -1 -2q-1 -3 -1 -10q0 -1 -0.5 -4t-0.5 -4q0 -7 -0.5 -24t-0.5 -26v-124q0 -4 0.5 -10t0.5 -9q1 -9 5 -18l2 -4q8 -10 23 -16q1 -1 3 -1l4 -2l12 -4q1 0 3 -0.5t4 -0.5q6 -2 9 -2l18 -3h5q18 -2 29 -2h14q29 0 42 1q4 1 10 1l18 2l9 2q10 1 23 5
l20 6l12 5l6 3l10 6q11 7 21 17l7 7l3 4q14 19 22 43l2 4l3 10v1l2 9q0 2 0.5 4t0.5 3q1 1 1 4q1 1 1 2l2 2q3 3 12 3q3 0 5 -4q2 -2 4 -9l1 -2v-2v-4q0 -1 0.5 -2.5t0.5 -2.5q0 -13 -1 -21v-4q0 -3 -1 -5q-5 -28 -27.5 -66t-54.5 -56q-20 -11 -22.5 -42.5t18.5 -61.5
q14 -18 35.5 -27.5t35.5 -3.5q19 6 25 -4z" />
    <glyph glyph-name="eogonek" unicode="&#x119;" horiz-adv-x="432" 
d="M237 41q83 0 119 30q14 10 28 26q7 8 15 3q7 -4 3 -12q-7 -14 -37 -46.5t-42 -37.5q-29 -10 -78 -12q-17 -1 -19 -18q-7 -41 15 -71q14 -19 34.5 -26t36.5 1q1 0 5.5 2.5t7.5 3.5t6.5 0t5.5 -4q5 -12 -18 -26q-33 -23 -66 -23q-80 0 -80 81q0 28 22 64q3 5 3.5 7.5
t-2 4.5t-8.5 3q-73 7 -117.5 57t-44.5 137q0 103 71 176t150 73q83 0 116.5 -51t21.5 -111q0 -1 -5 -18q-4 -7 -19 -7q-34 0 -119 -1.5t-117 -1.5q-17 0 -21 -1.5t-6 -9.5q-4 -12 -4 -34q2 -63 43 -110.5t100 -47.5zM139 350q-35 -41 -33 -70q0 -9 13 -9l181 6q13 1 17 4.5
t4 15.5q-2 44 -23.5 71t-60.5 27q-60 0 -98 -45z" />
    <glyph glyph-name="Ecaron" unicode="&#x11a;" horiz-adv-x="594" 
d="M26 585q0 14 39 10q70 -7 108 -7q47 0 180.5 5.5t138.5 5.5q7 0 12.5 -0.5t9 -1.5t6 -1.5t4 -2.5t2 -2.5t2 -3t1.5 -3.5q7 -20 3.5 -68.5t-17.5 -64.5q-13 -13 -22 -6q-5 6 -3 16q9 45 -10.5 73t-63.5 28q-164 0 -190 -6q-13 -3 -15.5 -7t-2.5 -15q0 -17 -0.5 -81.5
t-0.5 -71.5q0 -11 0.5 -14t3.5 -10t12.5 -9.5t25.5 -2.5q58 0 84 3.5t47 15.5q9 4 24.5 24t15.5 32q0 5 5.5 12t11.5 6q15 0 10 -33q-12 -87 -12 -145q0 -19 -15 -20q-4 0 -8.5 5.5t-5.5 13.5q-2 18 -18.5 35t-35.5 18q-77 6 -117 3q-17 -1 -22 -6t-6 -18q-2 -33 -2 -182
q2 -30 7 -39.5t27 -18.5q35 -14 98 -14q56 0 94.5 8.5t60.5 26t33.5 36t19.5 45.5q1 3 2 9t1.5 8.5t2.5 6t5 4.5t8 0q15 -2 10 -51q-3 -25 -26.5 -66t-56.5 -61q-25 -8 -57 -6q-29 2 -57 4.5t-39 2.5q-92 6 -162 4q-24 0 -53.5 -2.5t-54 -5.5t-28.5 -3q-18 0 -20 10
q-1 4 0 7t3.5 5.5t5.5 4.5t7.5 3.5l7.5 2.5t8 2.5t7 1.5q33 5 46 20.5t17 44.5q8 24 9 202.5t-1 196.5q-1 56 -88 71q-16 4 -16 16zM428 738q11 -11 -10 -24q-12 -8 -45.5 -37t-44.5 -37q-16 -12 -33 1q-10 9 -32.5 31.5t-37.5 34.5q-20 18 -12 28q7 8 24 -1q49 -32 59 -35
q16 -8 33 -3q30 9 71 37q22 13 28 5z" />
    <glyph glyph-name="ecaron" unicode="&#x11b;" horiz-adv-x="432" 
d="M237 41q83 0 119 30q14 10 28 26q7 8 15 3q7 -4 3 -12q-7 -14 -37 -46.5t-42 -37.5q-39 -14 -105 -14q-89 -1 -140.5 50t-51.5 145q0 103 71 176t150 73q83 0 116.5 -51t21.5 -111q0 -1 -5 -18q-4 -7 -19 -7q-34 0 -119 -1.5t-117 -1.5q-17 0 -21 -1.5t-6 -9.5
q-4 -12 -4 -34q2 -63 43 -110.5t100 -47.5zM139 350q-35 -41 -33 -70q0 -9 13 -9l181 6q13 1 17 4.5t4 15.5q-2 44 -23.5 71t-60.5 27q-60 0 -98 -45zM355 595q11 -11 -10 -24q-12 -8 -45.5 -37t-44.5 -37q-16 -12 -33 1q-10 9 -32.5 31.5t-37.5 34.5q-20 18 -12 28
q7 8 24 -1q49 -32 59 -35q16 -8 33 -3q30 9 71 37q22 13 28 5z" />
    <glyph glyph-name="Gcircumflex" unicode="&#x11c;" horiz-adv-x="632" 
d="M295 -14q-69 0 -122 26t-80.5 66.5t-41 82t-13.5 81.5q0 85 29.5 155t77.5 114.5t107.5 68.5t121.5 24q74 0 116.5 -26t42.5 -71q0 -41 -40 -84q-12 -12 -21 -7q-5 2 0 19q16 46 -18.5 88.5t-94.5 42.5q-59 0 -107.5 -23.5t-77.5 -62t-44.5 -85.5t-15.5 -96
q0 -69 20 -125t50.5 -87.5t63.5 -48t63 -16.5q77 0 123.5 55t46.5 112q0 45 -35 60.5t-112 15.5q-45 0 -45 18q0 13 41 10q37 -2 130.5 -1.5t128.5 3.5q20 -2 21 -8q2 -6 -1.5 -10.5t-9.5 -7t-15 -5.5q-14 -4 -20 -10.5t-5 -20.5q2 -14 2 -32q0 -94 -77.5 -154.5
t-188.5 -60.5zM241 640q-11 11 10 25q12 8 45.5 37t44.5 37q17 12 33 -2q12 -10 33.5 -32t36.5 -33q20 -18 12 -28q-7 -9 -24 1q-46 30 -59 35q-19 7 -33 3q-32 -11 -71 -38q-21 -13 -28 -5z" />
    <glyph glyph-name="gcircumflex" unicode="&#x11d;" horiz-adv-x="462" 
d="M419 464q11 8 20 2q10 -7 -8 -32q-23 -31 -68 -59q-6 -4 -8.5 -7t-2.5 -4.5t3 -6.5t4 -8q9 -18 9 -41q0 -51 -47.5 -89t-109.5 -45q-22 -2 -37 -17t-15 -36q0 -22 5.5 -28.5t29.5 -20.5q14 -8 44.5 -20.5t69 -27.5t50.5 -20q42 -17 63 -38.5t21 -57.5q0 -59 -45 -103
t-103.5 -62.5t-115.5 -18.5q-103 0 -152.5 26.5t-49.5 73.5q0 80 95 128q25 13 33 3t-6 -21q-28 -21 -39 -41t-10 -49q1 -36 33 -62t96 -26q77 0 131 42.5t54 86.5q0 37 -52 60q-27 13 -52.5 23.5t-55.5 22t-48 18.5q-30 13 -44.5 27.5t-14.5 38.5q0 30 23 58q4 5 12 13.5
t10 10.5q6 8 5.5 12t-11.5 4q-44 2 -81.5 29t-37.5 77t35 87t74.5 51t70.5 14q39 0 65 -7q37 -11 54 -11q45 0 104 51zM91 285q0 -37 25 -60t61 -23q49 0 81.5 29.5t32.5 76.5q0 45 -29.5 66.5t-75.5 21.5q-31 0 -63 -29.5t-32 -81.5zM94 492q-11 11 10 25q12 8 45.5 37
t44.5 37q17 12 33 -2q12 -10 33.5 -32t36.5 -33q20 -18 12 -28q-7 -9 -24 1q-46 30 -59 35q-19 7 -33 3q-32 -11 -71 -38q-21 -13 -28 -5z" />
    <glyph glyph-name="Gbreve" unicode="&#x11e;" horiz-adv-x="632" 
d="M295 -14q-69 0 -122 26t-80.5 66.5t-41 82t-13.5 81.5q0 85 29.5 155t77.5 114.5t107.5 68.5t121.5 24q74 0 116.5 -26t42.5 -71q0 -41 -40 -84q-12 -12 -21 -7q-5 2 0 19q16 46 -18.5 88.5t-94.5 42.5q-59 0 -107.5 -23.5t-77.5 -62t-44.5 -85.5t-15.5 -96
q0 -69 20 -125t50.5 -87.5t63.5 -48t63 -16.5q77 0 123.5 55t46.5 112q0 45 -35 60.5t-112 15.5q-45 0 -45 18q0 13 41 10q37 -2 130.5 -1.5t128.5 3.5q20 -2 21 -8q2 -6 -1.5 -10.5t-9.5 -7t-15 -5.5q-14 -4 -20 -10.5t-5 -20.5q2 -14 2 -32q0 -94 -77.5 -154.5
t-188.5 -60.5zM453 760q11 0 3 -27q-11 -40 -47 -60t-69 -20q-39 0 -65.5 23t-35.5 52q-9 31 3 34q11 2 21 -14q22 -35 79 -35q24 0 53 8.5t41 25.5q8 14 17 13z" />
    <glyph glyph-name="gbreve" unicode="&#x11f;" horiz-adv-x="462" 
d="M419 464q11 8 20 2q10 -7 -8 -32q-23 -31 -68 -59q-6 -4 -8.5 -7t-2.5 -4.5t3 -6.5t4 -8q9 -18 9 -41q0 -51 -47.5 -89t-109.5 -45q-22 -2 -37 -17t-15 -36q0 -22 5.5 -28.5t29.5 -20.5q14 -8 44.5 -20.5t69 -27.5t50.5 -20q42 -17 63 -38.5t21 -57.5q0 -59 -45 -103
t-103.5 -62.5t-115.5 -18.5q-103 0 -152.5 26.5t-49.5 73.5q0 80 95 128q25 13 33 3t-6 -21q-28 -21 -39 -41t-10 -49q1 -36 33 -62t96 -26q77 0 131 42.5t54 86.5q0 37 -52 60q-27 13 -52.5 23.5t-55.5 22t-48 18.5q-30 13 -44.5 27.5t-14.5 38.5q0 30 23 58q4 5 12 13.5
t10 10.5q6 8 5.5 12t-11.5 4q-44 2 -81.5 29t-37.5 77t35 87t74.5 51t70.5 14q39 0 65 -7q37 -11 54 -11q45 0 104 51zM91 285q0 -37 25 -60t61 -23q49 0 81.5 29.5t32.5 76.5q0 45 -29.5 66.5t-75.5 21.5q-31 0 -63 -29.5t-32 -81.5zM313 603q11 0 3 -27q-11 -40 -47 -60
t-69 -20q-39 0 -65.5 23t-35.5 52q-9 31 3 34q11 2 21 -14q22 -35 79 -35q24 0 53 8.5t41 25.5q8 14 17 13z" />
    <glyph glyph-name="Gdotaccent" unicode="&#x120;" horiz-adv-x="632" 
d="M295 -14q-69 0 -122 26t-80.5 66.5t-41 82t-13.5 81.5q0 85 29.5 155t77.5 114.5t107.5 68.5t121.5 24q74 0 116.5 -26t42.5 -71q0 -41 -40 -84q-12 -12 -21 -7q-5 2 0 19q16 46 -18.5 88.5t-94.5 42.5q-59 0 -107.5 -23.5t-77.5 -62t-44.5 -85.5t-15.5 -96
q0 -69 20 -125t50.5 -87.5t63.5 -48t63 -16.5q77 0 123.5 55t46.5 112q0 45 -35 60.5t-112 15.5q-45 0 -45 18q0 13 41 10q37 -2 130.5 -1.5t128.5 3.5q20 -2 21 -8q2 -6 -1.5 -10.5t-9.5 -7t-15 -5.5q-14 -4 -20 -10.5t-5 -20.5q2 -14 2 -32q0 -94 -77.5 -154.5
t-188.5 -60.5zM360 746q38 0 40 -33q2 -26 -21 -46q-24 -20 -40 -20q-27 0 -27 51q2 17 15.5 32.5t32.5 15.5z" />
    <glyph glyph-name="gdotaccent" unicode="&#x121;" horiz-adv-x="462" 
d="M419 464q11 8 20 2q10 -7 -8 -32q-23 -31 -68 -59q-6 -4 -8.5 -7t-2.5 -4.5t3 -6.5t4 -8q9 -18 9 -41q0 -51 -47.5 -89t-109.5 -45q-22 -2 -37 -17t-15 -36q0 -22 5.5 -28.5t29.5 -20.5q14 -8 44.5 -20.5t69 -27.5t50.5 -20q42 -17 63 -38.5t21 -57.5q0 -59 -45 -103
t-103.5 -62.5t-115.5 -18.5q-103 0 -152.5 26.5t-49.5 73.5q0 80 95 128q25 13 33 3t-6 -21q-28 -21 -39 -41t-10 -49q1 -36 33 -62t96 -26q77 0 131 42.5t54 86.5q0 37 -52 60q-27 13 -52.5 23.5t-55.5 22t-48 18.5q-30 13 -44.5 27.5t-14.5 38.5q0 30 23 58q4 5 12 13.5
t10 10.5q6 8 5.5 12t-11.5 4q-44 2 -81.5 29t-37.5 77t35 87t74.5 51t70.5 14q39 0 65 -7q37 -11 54 -11q45 0 104 51zM91 285q0 -37 25 -60t61 -23q49 0 81.5 29.5t32.5 76.5q0 45 -29.5 66.5t-75.5 21.5q-31 0 -63 -29.5t-32 -81.5zM218 621q38 0 40 -33q2 -26 -21 -46
q-24 -20 -40 -20q-27 0 -27 51q2 17 15.5 32.5t32.5 15.5z" />
    <glyph glyph-name="Gcommaaccent" unicode="&#x122;" horiz-adv-x="632" 
d="M281 -251q-6 6 9 29q17 23 24 52.5t0 40.5q-12 19 -35 11q-20 -8 -26 -2q-9 9 11 37q27 34 64 34q16 0 29 -19t13 -49q0 -27 -16.5 -62t-32.5 -54q-26 -28 -40 -18zM295 -14q-69 0 -122 26t-80.5 66.5t-41 82t-13.5 81.5q0 85 29.5 155t77.5 114.5t107.5 68.5t121.5 24
q74 0 116.5 -26t42.5 -71q0 -41 -40 -84q-12 -12 -21 -7q-5 2 0 19q16 46 -18.5 88.5t-94.5 42.5q-59 0 -107.5 -23.5t-77.5 -62t-44.5 -85.5t-15.5 -96q0 -69 20 -125t50.5 -87.5t63.5 -48t63 -16.5q77 0 123.5 55t46.5 112q0 45 -35 60.5t-112 15.5q-45 0 -45 18
q0 13 41 10q37 -2 130.5 -1.5t128.5 3.5q20 -2 21 -8q2 -6 -1.5 -10.5t-9.5 -7t-15 -5.5q-14 -4 -20 -10.5t-5 -20.5q2 -14 2 -32q0 -94 -77.5 -154.5t-188.5 -60.5z" />
    <glyph glyph-name="gcommaaccent" unicode="&#x123;" horiz-adv-x="462" 
d="M234 666q6 -8 -9 -26q-16 -23 -22.5 -49t1.5 -37q10 -18 33 -13q17 7 22 3q9 -9 -10 -36q-26 -32 -60 -32q-15 0 -27 18t-12 46q0 26 15.5 59.5t31.5 50.5q23 26 37 16zM419 464q11 8 20 2q10 -7 -8 -32q-23 -31 -68 -59q-6 -4 -8.5 -7t-2.5 -4.5t3 -6.5t4 -8
q9 -18 9 -41q0 -51 -47.5 -89t-109.5 -45q-22 -2 -37 -17t-15 -36q0 -22 5.5 -28.5t29.5 -20.5q14 -8 44.5 -20.5t69 -27.5t50.5 -20q42 -17 63 -38.5t21 -57.5q0 -59 -45 -103t-103.5 -62.5t-115.5 -18.5q-103 0 -152.5 26.5t-49.5 73.5q0 80 95 128q25 13 33 3t-6 -21
q-28 -21 -39 -41t-10 -49q1 -36 33 -62t96 -26q77 0 131 42.5t54 86.5q0 37 -52 60q-27 13 -52.5 23.5t-55.5 22t-48 18.5q-30 13 -44.5 27.5t-14.5 38.5q0 30 23 58q4 5 12 13.5t10 10.5q6 8 5.5 12t-11.5 4q-44 2 -81.5 29t-37.5 77t35 87t74.5 51t70.5 14q39 0 65 -7
q37 -11 54 -11q45 0 104 51zM91 285q0 -37 25 -60t61 -23q49 0 81.5 29.5t32.5 76.5q0 45 -29.5 66.5t-75.5 21.5q-31 0 -63 -29.5t-32 -81.5z" />
    <glyph glyph-name="Hcircumflex" unicode="&#x124;" horiz-adv-x="744" 
d="M557 499q0 9 -3 17t-7.5 14.5t-9.5 11.5t-12.5 9t-13.5 6.5t-14 5t-12 3.5t-10.5 2.5t-7.5 1.5q-15 2 -15 15q0 15 39 10q23 -2 93 -2t111 2q17 1 24 -1t7 -12q-2 -15 -26 -15q-43 -8 -54.5 -22t-15.5 -50q-3 -21 -5 -180t4 -214q4 -27 12 -39t35 -26q6 -3 19 -5.5
t20 -6.5t8 -12t-9 -11.5t-29 -1.5q-45 6 -219 -2q-17 0 -19 10q-1 6 1.5 10.5t10.5 7.5t11.5 4t13.5 3q24 4 38.5 15.5t19.5 22.5t9 30q5 17 7 175q0 31 -26 32q-123 4 -308 0q-18 0 -22.5 -4.5t-4.5 -17.5q-2 -146 4 -184q4 -27 12.5 -39.5t35.5 -24.5q5 -2 18.5 -5.5
t20.5 -7.5t7 -12q1 -8 -8.5 -11.5t-27.5 -1.5q-47 6 -218 -2q-19 0 -21 10q-1 6 2 11t11.5 8t12 4t13.5 3q18 3 29 8.5t18 17t9.5 18t7.5 23.5q6 24 8 202.5t0 196.5q0 9 -2.5 17t-7.5 14.5t-10 11.5t-12 9t-13 6.5t-14 5t-12 3.5t-10.5 2.5t-7.5 1.5q-16 2 -16 15
q0 15 39 10q23 -2 93.5 -2t110.5 2q17 1 23 -1t6 -12q-2 -15 -23 -15q-44 -8 -56 -22t-17 -50q-2 -14 -4 -137q0 -19 29 -20q102 -2 305 0q13 0 19.5 8t6.5 17q0 124 -1 136zM271 640q-11 11 10 25q12 8 45.5 37t44.5 37q17 12 33 -2q12 -10 33.5 -32t36.5 -33
q20 -18 12 -28q-7 -9 -24 1q-47 30 -59 35q-19 7 -33 3q-32 -11 -71 -38q-21 -13 -28 -5z" />
    <glyph glyph-name="hcircumflex" unicode="&#x125;" horiz-adv-x="616" 
d="M43 668q47 4 114 21q24 6 30 -1.5t6 -34.5q-2 -69 -5.5 -164t-3.5 -180q0 -27 20 4q21 34 74.5 77t101.5 42q58 0 92.5 -32t33.5 -91q0 -11 -1.5 -87.5t-0.5 -94.5q2 -57 11.5 -76.5t41.5 -22.5q40 -4 41 -17q0 -9 -4.5 -12t-16.5 -2q-5 0 -43 3t-50 3q-59 0 -87 -5
q-13 -2 -13 11q0 14 18 17q31 7 31 51q3 59 -1 213q-1 41 -24 63.5t-54 22.5q-59 0 -110 -57t-56 -125q-4 -44 1 -111q1 -21 17 -34t32.5 -16.5t40.5 -6.5q20 -2 20 -17q0 -12 -18 -12q-106 11 -240 0q-22 -1 -22 12q0 4 5.5 8t11.5 5q47 7 62 19.5t18 55.5q7 98 7 485
q0 42 -12 55t-53 7q-29 -4 -30 8q-3 16 15 16zM43 715q-11 11 10 25q12 8 45.5 37t44.5 37q17 12 33 -2q12 -10 33.5 -32t36.5 -33q20 -18 12 -28q-7 -9 -24 1q-46 30 -59 35q-19 7 -33 3q-32 -11 -71 -38q-21 -13 -28 -5z" />
    <glyph glyph-name="Hbar" unicode="&#x126;" horiz-adv-x="744" 
d="M110 433h-42q-17 0 -22 3t-1 12q3 7 9.5 10t11 3h19.5h26q10 0 15 4.5t5.5 7.5t0.5 8v11l-1 7q0 9 -2.5 17t-7.5 14.5t-10 11.5t-12 9t-13 6.5t-14 5t-12 3.5t-10.5 2.5t-7.5 1.5q-16 2 -16 15q0 15 39 10q23 -2 93.5 -2t110.5 2q17 1 23 -1t6 -12q-2 -15 -23 -15
q-45 -8 -58.5 -23t-14.5 -49v-6v-6v-5t0.5 -4.5t1.5 -4t2.5 -3.5t4 -2t5.5 -1.5t7 -0.5q63 1 314 6q22 0 20 31q0 10 -3.5 19t-8.5 15.5t-13 12t-14 9t-15.5 6.5t-14 4t-12.5 3l-9 2q-15 2 -15 15q0 15 39 10q23 -2 93 -2t111 2q17 1 24 -1t7 -12q-2 -15 -26 -15
q-44 -8 -57 -23t-13 -49q0 -20 10.5 -22.5t30.5 2.5q5 0 14 1.5t12.5 1.5t8.5 -0.5t7 -3.5t2 -9q0 -9 -27 -23q-11 -7 -37 -7q-9 0 -12.5 -0.5t-7 -2.5t-4.5 -6.5t-1 -13.5q-7 -250 3 -311q4 -27 12 -39t35 -26q6 -3 19 -5.5t20 -6.5t8 -12t-9 -11.5t-29 -1.5q-45 6 -219 -2
q-17 0 -19 10q-1 6 1.5 10.5t10.5 7.5t11.5 4t13.5 3q24 4 38.5 15.5t19.5 22.5t9 30q5 17 7 175q0 31 -26 32q-123 4 -308 0q-18 0 -22.5 -4.5t-4.5 -17.5q-2 -146 4 -184q4 -27 12.5 -39.5t35.5 -24.5q5 -2 18.5 -5.5t20.5 -7.5t7 -12q1 -8 -8.5 -11.5t-27.5 -1.5
q-47 6 -218 -2q-19 0 -21 10q-1 6 2 11t11.5 8t12 4t13.5 3q18 3 29 8.5t18 17t9.5 18t7.5 23.5q9 38 9 307q0 21 -13 25q-4 1 -9 1zM198 358q0 -19 29 -20q102 -2 305 0q13 0 19.5 8t6.5 17v53q0 18 -21 18q-45 0 -155 -0.5t-161 -0.5q-12 0 -17 -4.5t-5 -16.5
q0 -9 -0.5 -26t-0.5 -28z" />
    <glyph glyph-name="hbar" unicode="&#x127;" horiz-adv-x="616" 
d="M103 523h-44q-16 0 -22 4t-2 13q8 17 41 17h27q20 0 20 25q0 42 -12 55t-53 7q-29 -4 -30 8q-3 16 15 16q47 4 114 21q24 6 30 -1.5t6 -34.5l-2 -75q0 -13 4 -15t18 -2q52 2 81 7q19 5 31.5 4.5t12.5 -12.5q0 -15 -26 -28q-13 -8 -38 -8h-59q-17 0 -22 -3t-5 -18
q-4 -83 -4 -194q0 -27 20 4q21 34 74.5 77t101.5 42q58 0 92.5 -32t33.5 -91q0 -11 -1.5 -87.5t-0.5 -94.5q2 -57 11.5 -76.5t41.5 -22.5q40 -4 41 -17q0 -9 -4.5 -12t-16.5 -2q-5 0 -43 3t-50 3q-59 0 -87 -5q-13 -2 -13 11q0 14 18 17q31 7 31 51q3 59 -1 213
q-1 41 -24 63.5t-54 22.5q-59 0 -110 -57t-56 -125q-4 -44 1 -111q1 -21 17 -34t32.5 -16.5t40.5 -6.5q20 -2 20 -17q0 -12 -18 -12q-106 11 -240 0q-22 -1 -22 12q0 4 5.5 8t11.5 5q47 7 62 19.5t18 55.5q4 47 7 397v2q0 27 -20 27z" />
    <glyph glyph-name="Itilde" unicode="&#x128;" horiz-adv-x="317" 
d="M130 500q-3 36 -34.5 53.5t-52.5 16.5q-9 -1 -12.5 4t-3.5 12q0 14 39 10q23 -2 93 -2t110 2q10 1 17 0.5t10 -4t3 -10.5q-1 -12 -23 -14q-44 -3 -55.5 -17.5t-16.5 -54.5q-3 -22 -5 -180.5t4 -214.5q3 -20 6 -30t13 -20t28 -14q2 0 8 -1.5t9 -2t8 -2t8 -3.5t6.5 -4t5 -5
t1.5 -7q1 -8 -8 -11.5t-27 -1.5q-46 6 -220 -2q-19 0 -21 10q-3 12 10.5 18.5t28.5 7.5q33 3 46 20t18 47q8 23 9 202t-2 198zM18 645q-6 5 9 24q47 59 82 59q17 0 60 -19q34 -14 62 -14q33 0 53 22q2 3 5.5 6.5t5 5.5t4 4.5t4 2t4.5 -0.5q12 -4 1 -26q-14 -29 -40.5 -48.5
t-49.5 -19.5q-31 0 -65 13q-46 18 -55 18q-28 0 -56 -22q-15 -13 -24 -5z" />
    <glyph glyph-name="itilde" unicode="&#x129;" horiz-adv-x="304" 
d="M33 390q11 3 52.5 14.5t61.5 15.5q45 10 45 -17q0 -5 -3.5 -124t-2.5 -162q3 -57 9 -65q5 -6 13 -10q11 -6 62 -18q16 0 15 -15q-3 -12 -35 -9q-137 7 -210 -2q-21 -2 -21 9t26 16q43 10 57 22t14 31q0 1 1.5 111t0.5 169q0 24 -27 22q-21 0 -47 -8q-19 -4 -21 6
q-2 11 10 14zM5 508q-6 5 9 24q47 59 82 59q17 0 60 -19q34 -14 62 -14q33 0 53 22q2 3 5.5 6.5t5 5.5t4 4.5t4 2t4.5 -0.5q12 -4 1 -26q-14 -29 -40.5 -48.5t-49.5 -19.5q-31 0 -65 13q-46 18 -55 18q-28 0 -56 -22q-15 -13 -24 -5z" />
    <glyph glyph-name="Imacron" unicode="&#x12a;" horiz-adv-x="317" 
d="M130 500q-3 36 -34.5 53.5t-52.5 16.5q-9 -1 -12.5 4t-3.5 12q0 14 39 10q23 -2 93 -2t110 2q10 1 17 0.5t10 -4t3 -10.5q-1 -12 -23 -14q-44 -3 -55.5 -17.5t-16.5 -54.5q-3 -22 -5 -180.5t4 -214.5q3 -20 6 -30t13 -20t28 -14q2 0 8 -1.5t9 -2t8 -2t8 -3.5t6.5 -4t5 -5
t1.5 -7q1 -8 -8 -11.5t-27 -1.5q-46 6 -220 -2q-19 0 -21 10q-3 12 10.5 18.5t28.5 7.5q33 3 46 20t18 47q8 23 9 202t-2 198zM47 660q-13 0 -17.5 4t-0.5 13q5 17 30 17q155 3 213 9q4 0 10.5 1t10 1.5t7 -0.5t5 -4t1.5 -8q0 -12 -21 -25q-9 -7 -28 -7q-36 -1 -210 -1z" />
    <glyph glyph-name="imacron" unicode="&#x12b;" horiz-adv-x="304" 
d="M30 508q-24 0 -17 17q5 17 30 17q132 3 196 9q4 0 10.5 1t10 1.5t7 -0.5t5 -4t1.5 -8q0 -11 -21 -25q-9 -7 -28 -7q-36 -1 -194 -1zM33 390q11 3 52.5 14.5t61.5 15.5q45 10 45 -17q0 -5 -3.5 -124t-2.5 -162q3 -57 9 -65q5 -6 13 -10q11 -6 62 -18q16 0 15 -15
q-3 -12 -35 -9q-137 7 -210 -2q-21 -2 -21 9t26 16q43 10 57 22t14 31q0 1 1.5 111t0.5 169q0 24 -27 22q-21 0 -47 -8q-19 -4 -21 6q-2 11 10 14z" />
    <glyph glyph-name="Ibreve" unicode="&#x12c;" horiz-adv-x="317" 
d="M130 500q-3 36 -34.5 53.5t-52.5 16.5q-9 -1 -12.5 4t-3.5 12q0 14 39 10q23 -2 93 -2t110 2q10 1 17 0.5t10 -4t3 -10.5q-1 -12 -23 -14q-44 -3 -55.5 -17.5t-16.5 -54.5q-3 -22 -5 -180.5t4 -214.5q3 -20 6 -30t13 -20t28 -14q2 0 8 -1.5t9 -2t8 -2t8 -3.5t6.5 -4t5 -5
t1.5 -7q1 -8 -8 -11.5t-27 -1.5q-46 6 -220 -2q-19 0 -21 10q-3 12 10.5 18.5t28.5 7.5q33 3 46 20t18 47q8 23 9 202t-2 198zM276 753q11 0 3 -27q-11 -40 -47 -60t-69 -20q-39 0 -65.5 23t-35.5 52q-9 31 3 34q11 2 21 -14q22 -35 79 -35q23 0 52.5 8.5t41.5 25.5
q8 14 17 13z" />
    <glyph glyph-name="ibreve" unicode="&#x12d;" horiz-adv-x="304" 
d="M33 390q11 3 52.5 14.5t61.5 15.5q45 10 45 -17q0 -5 -3.5 -124t-2.5 -162q3 -57 9 -65q5 -6 13 -10q11 -6 62 -18q16 0 15 -15q-3 -12 -35 -9q-137 7 -210 -2q-21 -2 -21 9t26 16q43 10 57 22t14 31q0 1 1.5 111t0.5 169q0 24 -27 22q-21 0 -47 -8q-19 -4 -21 6
q-2 11 10 14zM257 598q11 0 3 -27q-11 -40 -47 -60t-69 -20q-39 0 -65.5 23t-35.5 52q-9 31 3 34q11 2 21 -14q22 -35 79 -35q24 0 53 8.5t41 25.5q8 14 17 13z" />
    <glyph glyph-name="Iogonek" unicode="&#x12e;" horiz-adv-x="317" 
d="M279 -136q7 -11 -17 -26q-31 -16 -62 -16q-42 0 -66 25.5t-24 64.5q0 30 22 69q10 19 -16 19q-16 -1 -33 -1.5t-27.5 -1t-14.5 -0.5q-19 0 -21 10q-3 12 10.5 18.5t28.5 7.5q33 3 46 20t18 47q8 23 9 202t-2 198q-3 36 -34.5 53.5t-52.5 16.5q-9 -1 -12.5 4t-3.5 12
q0 14 39 10q23 -2 93 -2t110 2q10 1 17 0.5t10 -4t3 -10.5q-1 -12 -23 -14q-44 -3 -55.5 -17.5t-16.5 -54.5q-3 -22 -5 -180.5t4 -214.5q3 -20 6 -30t13 -20t28 -14q2 0 8 -1.5t9 -2t8 -2t8 -3.5t6.5 -4t5 -5t1.5 -7q1 -8 -8 -11.5t-27 -1.5q-27 3 -64 3q-11 0 -19 -7
t-10 -16q-12 -42 15 -80q14 -18 35.5 -27.5t35.5 -3.5q20 7 25 -4z" />
    <glyph glyph-name="iogonek" unicode="&#x12f;" horiz-adv-x="304" 
d="M267 -136q6 -12 -18 -26q-31 -16 -61 -16q-42 0 -66 25.5t-24 64.5q0 37 22 74q6 12 4 14.5t-13 2.5q-28 0 -71 -5q-21 -2 -21 11q0 9 20 13q4 1 6 1q43 10 57 22t14 31q0 1 1.5 111t0.5 169q0 24 -27 22q-21 0 -47 -8q-17 -3 -21 5q0 13 6 15q13 3 55.5 14.5t62.5 15.5
q45 10 45 -17q0 -5 -3.5 -124t-2.5 -162q3 -57 9 -65q5 -6 13 -10q18 -10 62 -15q15 -2 15 -16q-1 -11 -10.5 -11.5t-37.5 2.5q-18 1 -57 1q-12 1 -17 -4t-8 -18q-12 -43 15 -82q14 -18 35.5 -27.5t36.5 -3.5q18 7 25 -4zM176 656q37 0 39 -31q0 -27 -21 -44
q-22 -20 -37 -20q-26 0 -26 49q2 16 15 31t30 15z" />
    <glyph glyph-name="Idotaccent" unicode="&#x130;" horiz-adv-x="317" 
d="M130 500q-3 36 -34.5 53.5t-52.5 16.5q-9 -1 -12.5 4t-3.5 12q0 14 39 10q23 -2 93 -2t110 2q10 1 17 0.5t10 -4t3 -10.5q-1 -12 -23 -14q-44 -3 -55.5 -17.5t-16.5 -54.5q-3 -22 -5 -180.5t4 -214.5q3 -20 6 -30t13 -20t28 -14q2 0 8 -1.5t9 -2t8 -2t8 -3.5t6.5 -4t5 -5
t1.5 -7q1 -8 -8 -11.5t-27 -1.5q-46 6 -220 -2q-19 0 -21 10q-3 12 10.5 18.5t28.5 7.5q33 3 46 20t18 47q8 23 9 202t-2 198zM178 730q38 0 40 -33q2 -26 -21 -46q-24 -20 -40 -20q-27 0 -27 51q2 17 15.5 32.5t32.5 15.5z" />
    <glyph glyph-name="dotlessi" unicode="&#x131;" horiz-adv-x="304" 
d="M33 390q11 3 52.5 14.5t61.5 15.5q45 10 45 -17q0 -5 -3.5 -124t-2.5 -162q3 -57 9 -65q5 -6 13 -10q11 -6 62 -18q16 0 15 -15q-3 -12 -35 -9q-137 7 -210 -2q-21 -2 -21 9t26 16q43 10 57 22t14 31q0 1 1.5 111t0.5 169q0 24 -27 22q-21 0 -47 -8q-19 -4 -21 6
q-2 11 10 14z" />
    <glyph glyph-name="IJ" unicode="&#x132;" horiz-adv-x="624" 
d="M130 500q-3 36 -34.5 53.5t-52.5 16.5q-9 -1 -12.5 4t-3.5 12q0 14 39 10q23 -2 93 -2t110 2q10 1 17 0.5t10 -4t3 -10.5q-1 -12 -23 -14q-44 -3 -55.5 -17.5t-16.5 -54.5q-3 -22 -5 -180.5t4 -214.5q3 -20 6 -30t13 -20t28 -14q2 0 8 -1.5t9 -2t8 -2t8 -3.5t6.5 -4t5 -5
t1.5 -7q1 -8 -8 -11.5t-27 -1.5q-46 6 -220 -2q-19 0 -21 10q-3 12 10.5 18.5t28.5 7.5q33 3 46 20t18 47q8 23 9 202t-2 198zM383 596q22 -2 92 -2t111 2q9 1 15.5 0.5t9.5 -4t3 -10.5q-2 -15 -23 -15q-43 -8 -54.5 -21.5t-17.5 -49.5q-2 -11 -3.5 -129t-0.5 -197
q0 -171 -62.5 -272t-129.5 -101q-83 0 -83 67q0 22 15.5 47.5t32.5 39.5q15 15 22 12q3 -5 3 -7.5t-4.5 -11.5t-4.5 -10q-13 -34 -1.5 -57t33.5 -23q48 0 80 52.5t34 139.5q9 321 -2 454q0 9 -2.5 17t-7 14t-9.5 11t-12.5 9t-13 6.5t-13.5 5t-12 3.5t-10.5 2.5t-7.5 1.5
q-15 2 -15 16t38 10z" />
    <glyph glyph-name="ij" unicode="&#x133;" horiz-adv-x="561" 
d="M33 390q11 3 52.5 14.5t61.5 15.5q45 10 45 -17q0 -5 -3.5 -124t-2.5 -162q3 -57 9 -65q5 -6 13 -10q11 -6 62 -18q16 0 15 -15q-3 -12 -35 -9q-137 7 -210 -2q-21 -2 -21 9t26 16q43 10 57 22t14 31q0 1 1.5 111t0.5 169q0 24 -27 22q-21 0 -47 -8q-19 -4 -21 6
q-2 11 10 14zM176 656q37 0 39 -31q0 -27 -21 -44q-22 -20 -37 -20q-26 0 -26 49q2 16 15 31t30 15zM325 390q13 3 55.5 14.5t62.5 15.5q45 10 45 -17q-4 -277 -6 -319q-5 -99 -27 -173q-25 -85 -70.5 -135.5t-96.5 -50.5q-28 0 -48 16t-19 45q1 42 55 80q8 6 16 6t10 -5.5
t-3 -14.5q-15 -23 -15 -41q0 -34 39 -34q29 0 49.5 34.5t29.5 78.5q15 75 15 153q0 182 -4 313q0 24 -27 22q-21 0 -47 -8q-17 -3 -21 5q0 13 7 15zM472 656q36 0 38 -31q2 -26 -20 -44q-22 -20 -38 -20q-25 0 -25 49q2 17 14.5 31.5t30.5 14.5z" />
    <glyph glyph-name="Jcircumflex" unicode="&#x134;" horiz-adv-x="306" 
d="M66 596q23 -2 93 -2t110 2q9 1 15.5 0.5t9.5 -4t3 -10.5q-1 -15 -23 -15q-43 -8 -54.5 -21.5t-17.5 -49.5q-2 -11 -3.5 -129t-0.5 -197q0 -171 -62.5 -272t-129.5 -101q-83 0 -83 67q0 22 15.5 47.5t32.5 39.5q15 15 22 12q3 -5 3 -7.5t-4.5 -11.5t-4.5 -10
q-13 -34 -1.5 -57t33.5 -23q48 0 80 52.5t34 139.5q9 321 -2 454q0 9 -2.5 17t-7 14t-9.5 11t-12.5 9t-13 6.5t-13.5 5t-12 3.5t-10.5 2.5t-7.5 1.5q-15 2 -15 16t38 10zM60 628q-11 11 10 25q12 8 45.5 37t44.5 37q17 12 33 -2q12 -10 33.5 -32t36.5 -33q20 -18 12 -28
q-7 -9 -24 1q-46 30 -59 35q-19 7 -33 3q-32 -11 -71 -38q-21 -13 -28 -5z" />
    <glyph glyph-name="jcircumflex" unicode="&#x135;" horiz-adv-x="257" 
d="M21 390q13 3 55.5 14.5t62.5 15.5q45 10 45 -17q-4 -277 -6 -319q-5 -99 -27 -173q-25 -85 -70.5 -135.5t-96.5 -50.5q-28 0 -48 16t-19 45q1 42 55 80q8 6 16 6t10 -5.5t-3 -14.5q-15 -23 -15 -41q0 -34 39 -34q29 0 49.5 34.5t29.5 78.5q15 75 15 153q0 182 -4 313
q0 24 -27 22q-21 0 -47 -8q-17 -3 -21 5q0 13 7 15zM20 492q-11 11 10 25q12 8 45.5 37t44.5 37q17 12 33 -2q12 -10 33.5 -32t36.5 -33q20 -18 12 -28q-7 -9 -24 1q-47 30 -59 35q-18 7 -33 3q-32 -11 -71 -38q-21 -13 -28 -5z" />
    <glyph glyph-name="Kcommaaccent" unicode="&#x136;" horiz-adv-x="675" 
d="M316 -251q-6 6 10 29q17 24 24 52.5t-1 40.5q-12 19 -35 11q-20 -8 -25 -2q-11 10 11 37q26 34 64 34q16 0 29 -19t13 -49q0 -27 -16.5 -62t-33.5 -54q-26 -28 -40 -18zM65 597q22 -3 93.5 -3t111.5 3q10 1 16.5 0.5t10 -4t3.5 -10.5q-3 -15 -24 -15q-43 -8 -55 -21.5
t-17 -49.5q-5 -45 -5 -181q0 -5 4 -7.5t11 2.5q62 66 161 155.5t144 118.5q28 18 51 18q32 0 32 -58q0 -11 -6.5 -33t-16.5 -36q-11 -16 -17 -15q-5 1 -7 3.5t-2.5 4t0 6t0.5 5.5q0 9 -9.5 18.5t-19.5 9.5q-31 0 -64 -23q-83 -54 -136 -110q-14 -14 -2 -34q20 -33 80 -112
t72 -93q32 -38 74 -63.5t80 -23.5h28q8 -1 12 -10q2 -7 -17 -20q-12 -7 -54.5 -16.5t-61.5 -8.5q-29 4 -53 20q-26 18 -112 134t-108 156q-6 11 -21 -1q-17 -13 -31 -30q-12 -16 -12 -52q0 -96 5 -120q4 -26 12 -38t35 -26q6 -3 19 -6t20 -7t7 -12q1 -8 -8 -11.5t-27 -1.5
q-49 6 -220 -2q-19 0 -21 10q-1 6 2 11t11.5 8t12 4t13.5 3q34 6 48 22.5t18 44.5q8 23 9.5 202.5t-1.5 198.5q0 9 -3 17t-7.5 14t-10 11t-13 8.5t-13 6.5t-14 5.5t-12.5 3.5t-11 3l-7 1q-16 2 -16 16t39 10z" />
    <glyph glyph-name="kcommaaccent" unicode="&#x137;" horiz-adv-x="593" 
d="M282 -238q-7 7 9 26q16 22 22.5 48.5t-1.5 37.5q-11 19 -33 12q-16 -7 -22 -2q-10 8 10 35q25 32 60 32q15 0 27 -18t12 -46q0 -26 -15.5 -59t-31.5 -50q-23 -26 -37 -16zM245 -3q-120 9 -202 0q-24 -1 -24 12q0 14 28 18q33 5 51.5 21.5t23.5 52.5q9 65 9 489
q0 28 -5 37q-19 19 -48 14q-13 -2 -29 -2q-12 0 -13 10q-2 9 9 13q14 4 58 14.5t59 15.5q18 4 25 4q5 0 9 -1.5t6 -3.5t3 -6t1 -6v-7v-4q-8 -167 -8 -410q0 -11 5 -11t18 11q112 110 135 125q37 26 62.5 36.5t56.5 10.5q39 0 41 -34q2 -21 -14.5 -49.5t-39.5 -38.5
q-11 -5 -14 2.5t3 18.5q15 30 1 42q-18 14 -47 4q-24 -10 -53.5 -34t-47.5 -46q-10 -12 -3 -26q28 -54 71 -112t86 -91q29 -26 57 -26q15 0 42 10q18 5 21 -4t-9 -18q-13 -9 -49 -22.5t-55 -13.5q-22 0 -34 5.5t-35 25.5q-35 31 -84.5 98.5t-61.5 101.5q-6 17 -23 8
q-12 -7 -18 -13t-7.5 -9.5t-2.5 -10.5q-1 -15 -1 -95q0 -38 11 -57t39 -22q25 -4 25 -16q0 -14 -28 -11z" />
    <glyph glyph-name="kgreenlandic" unicode="&#x138;" horiz-adv-x="597" 
d="M41 390q13 3 54 14.5t61 15.5q44 10 44 -17q0 -4 -1 -49t-1 -96q0 -11 5 -11t18 11q99 97 138 123q37 26 62 36.5t56 10.5q40 0 42 -34q1 -22 -15 -50t-39 -38q-11 -4 -14.5 3t3.5 18q13 29 1 43q-19 15 -48 3q-24 -11 -55.5 -34.5t-47.5 -43.5q-10 -12 -3 -26
q28 -54 71 -112t86 -91q29 -26 57 -26q15 0 42 10q18 5 21 -4t-9 -18q-13 -9 -49 -22.5t-55 -13.5q-22 0 -34 5.5t-35 25.5q-35 31 -84.5 98.5t-61.5 101.5q-6 17 -23 8q-12 -7 -18 -13t-7.5 -9.5t-2.5 -10.5q-1 -15 -1 -103q0 -36 13.5 -52t43.5 -19q24 -3 24 -16
q0 -14 -27 -11q-114 9 -192 0q-24 -1 -24 12q0 14 28 18q31 5 42.5 17t15.5 49q6 51 4 263q0 24 -27 22q-21 0 -47 -8q-18 -3 -21 6q-1 10 10 14z" />
    <glyph glyph-name="Lacute" unicode="&#x139;" horiz-adv-x="586" 
d="M130 500q0 13 -6 24t-13 18t-19 13t-19.5 8t-18.5 5t-12 3q-16 2 -16 15q0 12 39 10q168 -4 217 0h16t9.5 -3.5t3.5 -10.5q0 -15 -24 -15q-44 -8 -58.5 -22.5t-18.5 -47.5q-7 -201 -4 -388q1 -29 6.5 -40t26.5 -19q39 -15 99 -15q44 0 77.5 8t52 18.5t32.5 31t19.5 34
t12.5 38.5q3 13 8 17t15 3q15 -2 11 -44q-3 -32 -22 -75.5t-51 -62.5q-26 -9 -57 -6q-34 2 -96 7q-94 6 -163 4q-24 0 -54 -2.5t-55 -5.5t-28 -3q-18 0 -20 10q-1 6 2 11t11.5 8t12 4t13.5 3q33 5 46 21.5t18 45.5q8 23 8.5 202.5t-1.5 197.5zM141 639q-2 0 -2.5 2.5t1.5 7
t7 9.5q8 10 50 66q16 24 36 30q26 8 63 8q9 -1 8 -10t-7 -13q-41 -25 -133 -94q-15 -11 -23 -6z" />
    <glyph glyph-name="lacute" unicode="&#x13a;" horiz-adv-x="315" 
d="M97 718q-7 7 7 18q24 21 53 53q17 19 37 22q49 5 64 3q11 -2 11.5 -10t-11.5 -13q-95 -42 -138 -69q-17 -10 -23 -4zM43 668q17 2 114 21q24 5 30 -2t6 -34q-9 -448 -4 -570q0 -21 17 -34t32 -16t41 -7q20 -2 20 -17q0 -12 -20 -12q-95 10 -237 0q-23 -2 -23 12
q0 10 15 13q48 8 64.5 20t17.5 55q7 131 7 485q0 44 -11 56t-54 6q-29 -4 -30 8q-1 8 3.5 12t11.5 4z" />
    <glyph glyph-name="Lcommaaccent" unicode="&#x13b;" horiz-adv-x="586" 
d="M278 -251q-7 7 9 29q17 23 24 52.5t0 40.5q-12 18 -36 11q-18 -8 -25 -2q-11 10 11 37q25 34 64 34q16 0 29 -19t13 -49q0 -27 -16.5 -62t-33.5 -54q-25 -28 -39 -18zM130 500q0 13 -6 24t-13 18t-19 13t-19.5 8t-18.5 5t-12 3q-16 2 -16 15q0 12 39 10q168 -4 217 0h16
t9.5 -3.5t3.5 -10.5q0 -15 -24 -15q-44 -8 -58.5 -22.5t-18.5 -47.5q-7 -201 -4 -388q1 -29 6.5 -40t26.5 -19q39 -15 99 -15q44 0 77.5 8t52 18.5t32.5 31t19.5 34t12.5 38.5q3 13 8 17t15 3q15 -2 11 -44q-3 -32 -22 -75.5t-51 -62.5q-26 -9 -57 -6q-34 2 -96 7
q-94 6 -163 4q-24 0 -54 -2.5t-55 -5.5t-28 -3q-18 0 -20 10q-1 6 2 11t11.5 8t12 4t13.5 3q33 5 46 21.5t18 45.5q8 23 8.5 202.5t-1.5 197.5z" />
    <glyph glyph-name="lcommaaccent" unicode="&#x13c;" horiz-adv-x="315" 
d="M120 -238q-7 6 9 26q16 22 22 48.5t-1 37.5q-12 19 -33 12q-18 -6 -23 -2q-9 9 10 35q25 32 60 32q15 0 27.5 -18t12.5 -46q0 -25 -15.5 -58t-31.5 -51q-24 -27 -37 -16zM43 668q17 2 114 21q24 5 30 -2t6 -34q-9 -448 -4 -570q0 -21 17 -34t32 -16t41 -7q20 -2 20 -17
q0 -12 -20 -12q-95 10 -237 0q-23 -2 -23 12q0 10 15 13q48 8 64.5 20t17.5 55q7 131 7 485q0 44 -11 56t-54 6q-29 -4 -30 8q-1 8 3.5 12t11.5 4z" />
    <glyph glyph-name="Lcaron" unicode="&#x13d;" horiz-adv-x="586" 
d="M423 382q-8 6 11 31q19 26 26.5 58.5t-0.5 45.5q-14 20 -40 12q-3 -1 -6.5 -2.5t-5.5 -2t-4.5 -1.5t-4 -0.5t-3.5 1t-4 2.5q-11 13 12 41q30 38 71 38q18 0 32.5 -21t14.5 -55q0 -29 -18.5 -68t-37.5 -59q-29 -32 -43 -20zM130 500q0 13 -6 24t-13 18t-19 13t-19.5 8
t-18.5 5t-12 3q-16 2 -16 15q0 12 39 10q168 -4 217 0h16t9.5 -3.5t3.5 -10.5q0 -15 -24 -15q-44 -8 -58.5 -22.5t-18.5 -47.5q-7 -201 -4 -388q1 -29 6.5 -40t26.5 -19q39 -15 99 -15q44 0 77.5 8t52 18.5t32.5 31t19.5 34t12.5 38.5q3 13 8 17t15 3q15 -2 11 -44
q-3 -32 -22 -75.5t-51 -62.5q-26 -9 -57 -6q-34 2 -96 7q-94 6 -163 4q-24 0 -54 -2.5t-55 -5.5t-28 -3q-18 0 -20 10q-1 6 2 11t11.5 8t12 4t13.5 3q33 5 46 21.5t18 45.5q8 23 8.5 202.5t-1.5 197.5z" />
    <glyph glyph-name="lcaron" unicode="&#x13e;" horiz-adv-x="315" 
d="M256 503q-6 6 9 26q16 22 22 48t-1 37q-11 20 -33 13q-17 -6 -22 -2q-10 8 10 35q25 32 60 32q15 0 27 -18t12 -46q0 -25 -15.5 -58t-31.5 -51q-24 -27 -37 -16zM43 668q17 2 114 21q24 5 30 -2t6 -34q-9 -448 -4 -570q0 -21 17 -34t32 -16t41 -7q20 -2 20 -17
q0 -12 -20 -12q-95 10 -237 0q-23 -2 -23 12q0 10 15 13q48 8 64.5 20t17.5 55q7 131 7 485q0 44 -11 56t-54 6q-29 -4 -30 8q-1 8 3.5 12t11.5 4z" />
    <glyph glyph-name="Ldot" unicode="&#x13f;" horiz-adv-x="586" 
d="M443 283q-44 0 -44 45q0 17 14.5 33t38.5 16q19 0 30.5 -11t11.5 -27q0 -27 -15.5 -41.5t-35.5 -14.5zM130 500q0 13 -6 24t-13 18t-19 13t-19.5 8t-18.5 5t-12 3q-16 2 -16 15q0 12 39 10q168 -4 217 0h16t9.5 -3.5t3.5 -10.5q0 -15 -24 -15q-44 -8 -58.5 -22.5
t-18.5 -47.5q-7 -201 -4 -388q1 -29 6.5 -40t26.5 -19q39 -15 99 -15q44 0 77.5 8t52 18.5t32.5 31t19.5 34t12.5 38.5q3 13 8 17t15 3q15 -2 11 -44q-3 -32 -22 -75.5t-51 -62.5q-26 -9 -57 -6q-34 2 -96 7q-94 6 -163 4q-24 0 -54 -2.5t-55 -5.5t-28 -3q-18 0 -20 10
q-1 6 2 11t11.5 8t12 4t13.5 3q33 5 46 21.5t18 45.5q8 23 8.5 202.5t-1.5 197.5z" />
    <glyph glyph-name="ldot" unicode="&#x140;" horiz-adv-x="315" 
d="M308 274q-43 0 -43 46q0 18 14 33.5t39 15.5q19 0 30.5 -11t11.5 -27q0 -28 -16 -42.5t-36 -14.5zM43 668q17 2 114 21q24 5 30 -2t6 -34q-9 -448 -4 -570q0 -21 17 -34t32 -16t41 -7q20 -2 20 -17q0 -12 -20 -12q-95 10 -237 0q-23 -2 -23 12q0 10 15 13q48 8 64.5 20
t17.5 55q7 131 7 485q0 44 -11 56t-54 6q-29 -4 -30 8q-1 8 3.5 12t11.5 4z" />
    <glyph glyph-name="Lslash" unicode="&#x141;" horiz-adv-x="586" 
d="M69 244q-16 -4 -22.5 -1t-4.5 13q4 18 35 25q33 8 35 9q6 2 9.5 3.5t6 2.5t3 4.5t1 5.5t0 8.5t-0.5 10.5q0 36 -0.5 76.5t-0.5 67.5v31q0 13 -6 24t-13 18t-19 13t-19.5 8t-18.5 5t-12 3q-16 2 -16 15q0 12 39 10q168 -4 217 0h16t9.5 -3.5t3.5 -10.5q0 -15 -24 -15
q-44 -8 -58.5 -22.5t-18.5 -47.5q-5 -97 -5 -154q0 -18 4.5 -21.5t20.5 0.5q56 15 153 48q5 1 13 4t12 4t9 1.5t7.5 -2t3.5 -7.5q4 -15 -20 -36q-12 -10 -34 -14q-4 -1 -57 -13.5t-91 -23.5q-14 -4 -17.5 -13t-3.5 -31q0 -84 1 -130q1 -29 6.5 -40t26.5 -19q39 -15 99 -15
q44 0 77.5 8t52 18.5t32.5 31t19.5 34t12.5 38.5q3 13 8 17t15 3q15 -2 11 -44q-3 -32 -22 -75.5t-51 -62.5q-26 -9 -57 -6q-34 2 -96 7q-94 6 -163 4q-24 0 -54 -2.5t-55 -5.5t-28 -3q-18 0 -20 10q-1 6 2 11t11.5 8t12 4t13.5 3q33 5 46 21.5t18 45.5q8 28 8 137
q0 12 -5.5 15t-21.5 0z" />
    <glyph glyph-name="lslash" unicode="&#x142;" horiz-adv-x="315" 
d="M56 291q-31 -7 -28 12q1 7 5.5 12t10 7.5t18.5 6.5q17 4 38 12q16 6 18.5 9.5t2.5 19.5q2 92 2 212q0 44 -11 56t-54 6q-29 -4 -30 8q-1 8 3.5 12t11.5 4q17 2 114 21q24 5 30 -2t6 -34q-5 -217 -5 -262q0 -13 3 -16.5t16 0.5q3 1 46 21q26 14 30.5 12.5t6.5 -9.5
q3 -14 -18 -35q-13 -12 -35 -20q-27 -6 -34 -9q-8 -3 -10.5 -4.5t-4 -6t-1.5 -14.5q0 -187 2 -227q0 -21 17 -34t32 -16t41 -7q20 -2 20 -17q0 -12 -20 -12q-95 10 -237 0q-23 -2 -23 12q0 10 15 13q48 8 64.5 20t17.5 55q4 93 5 193q0 16 -2.5 18t-17.5 -1q-4 -1 -45 -16z
" />
    <glyph glyph-name="Nacute" unicode="&#x143;" horiz-adv-x="715" 
d="M77 595q109 0 184 -47.5t153 -149.5q39 -52 96 -139.5t78 -144.5q5 -13 13 -6q4 -16 5 74q3 206 0 276q-4 92 -66 109q-2 1 -8.5 2t-11.5 2t-10.5 3t-8 5t-1.5 7q4 12 29 12q108 -6 138 -3q16 3 23 1t7 -12q0 -3 -3 -6.5t-8.5 -8t-6.5 -5.5q-21 -29 -27 -87
q-9 -80 -12.5 -194t-1.5 -176q0 -3 1.5 -34t0.5 -46q-1 -12 -7.5 -20t-13.5 -8q-28 -1 -58 0q-17 0 -21 14q-10 29 -20 52q-26 68 -83.5 161t-88.5 131q-91 112 -169 146q-11 4 -18 -1.5t-7 -16.5q0 -58 3 -194t5 -155q4 -53 22.5 -76.5t52.5 -27.5q15 -2 25 -7.5t7 -16.5
q-2 -11 -18 -10q-90 8 -220 0q-5 0 -8 1.5t-3 4v4.5q2 9 14 16q18 5 23 8q56 24 59 92q4 57 5.5 189.5t-0.5 166.5q-6 86 -83 86q-19 0 -19 16q0 13 58 13zM337 639q-2 0 -2.5 2.5t1.5 7t7 9.5q8 10 50 66q16 24 36 30q26 8 63 8q9 -1 8 -10t-7 -13q-41 -25 -133 -94
q-15 -11 -23 -6z" />
    <glyph glyph-name="nacute" unicode="&#x144;" horiz-adv-x="585" 
d="M483 291l3 -216q0 -19 15.5 -32.5t40.5 -18.5q24 -7 24 -16q0 -11 -23 -11q-10 0 -39 2.5t-53 2.5q-12 0 -35 -2.5t-34 -2.5q-19 0 -21 3q-1 2 -1 6q0 9 15 12q10 2 16.5 5t13 13.5t7.5 27.5q6 107 1 226q-1 47 -18.5 69t-39.5 22q-80 0 -145 -121q-21 -36 -24 -118
q-1 -11 0 -31.5t1 -29.5q0 -20 6.5 -30.5t15 -13.5t25 -6.5t26.5 -8.5q11 -3 16 -7t4 -10q-1 -11 -24 -8q-3 0 -44 3t-57 3q-14 0 -61 -3t-52 -3q-23 0 -23 10q0 17 31 17q25 0 46.5 18t23.5 42q4 78 4 254q0 22 -8 32.5t-33 10.5q-14 0 -34 -5q-17 -2 -18 7q-2 12 16 16
q56 9 91 19q22 8 35 8q23 0 23 -15q0 -19 -1.5 -46.5t-2.5 -39t0 -23.5q2 -8 6 -9.5t9 6.5q81 133 183 133q93 0 93 -141zM272 494q-2 0 -2.5 2.5t1.5 7t7 9.5q8 10 50 66q16 24 36 30q26 8 63 8q9 -1 8 -10t-7 -13q-41 -25 -133 -94q-15 -11 -23 -6z" />
    <glyph glyph-name="Ncommaaccent" unicode="&#x145;" horiz-adv-x="715" 
d="M345 -251q-6 6 9 29q17 23 24 52.5t0 40.5q-12 19 -35 11q-20 -8 -26 -2q-10 10 11 37q27 34 64 34q16 0 29 -19t13 -49q0 -27 -16.5 -62t-32.5 -54q-26 -28 -40 -18zM77 595q109 0 184 -47.5t153 -149.5q39 -52 96 -139.5t78 -144.5q5 -13 13 -6q4 -16 5 74q3 206 0 276
q-4 92 -66 109q-2 1 -8.5 2t-11.5 2t-10.5 3t-8 5t-1.5 7q4 12 29 12q108 -6 138 -3q16 3 23 1t7 -12q0 -3 -3 -6.5t-8.5 -8t-6.5 -5.5q-21 -29 -27 -87q-9 -80 -12.5 -194t-1.5 -176q0 -3 1.5 -34t0.5 -46q-1 -12 -7.5 -20t-13.5 -8q-28 -1 -58 0q-17 0 -21 14
q-10 29 -20 52q-26 68 -83.5 161t-88.5 131q-91 112 -169 146q-11 4 -18 -1.5t-7 -16.5q0 -58 3 -194t5 -155q4 -53 22.5 -76.5t52.5 -27.5q15 -2 25 -7.5t7 -16.5q-2 -11 -18 -10q-90 8 -220 0q-5 0 -8 1.5t-3 4v4.5q2 9 14 16q18 5 23 8q56 24 59 92q4 57 5.5 189.5
t-0.5 166.5q-6 86 -83 86q-19 0 -19 16q0 13 58 13z" />
    <glyph glyph-name="ncommaaccent" unicode="&#x146;" horiz-adv-x="585" 
d="M272 -238q-7 7 9 26q16 22 22 48.5t-1 37.5q-11 19 -33 12q-17 -6 -22 -2q-10 8 10 35q25 32 59 32q15 0 27.5 -18t12.5 -46q0 -25 -15.5 -58t-31.5 -51q-23 -26 -37 -16zM483 291l3 -216q0 -19 15.5 -32.5t40.5 -18.5q24 -7 24 -16q0 -11 -23 -11q-10 0 -39 2.5t-53 2.5
q-12 0 -35 -2.5t-34 -2.5q-19 0 -21 3q-1 2 -1 6q0 9 15 12q10 2 16.5 5t13 13.5t7.5 27.5q6 107 1 226q-1 47 -18.5 69t-39.5 22q-80 0 -145 -121q-21 -36 -24 -118q-1 -11 0 -31.5t1 -29.5q0 -20 6.5 -30.5t15 -13.5t25 -6.5t26.5 -8.5q11 -3 16 -7t4 -10q-1 -11 -24 -8
q-3 0 -44 3t-57 3q-14 0 -61 -3t-52 -3q-23 0 -23 10q0 17 31 17q25 0 46.5 18t23.5 42q4 78 4 254q0 22 -8 32.5t-33 10.5q-14 0 -34 -5q-17 -2 -18 7q-2 12 16 16q56 9 91 19q22 8 35 8q23 0 23 -15q0 -19 -1.5 -46.5t-2.5 -39t0 -23.5q2 -8 6 -9.5t9 6.5q81 133 183 133
q93 0 93 -141z" />
    <glyph glyph-name="Ncaron" unicode="&#x147;" horiz-adv-x="715" 
d="M77 595q109 0 184 -47.5t153 -149.5q39 -52 96 -139.5t78 -144.5q5 -13 13 -6q4 -16 5 74q3 206 0 276q-4 92 -66 109q-2 1 -8.5 2t-11.5 2t-10.5 3t-8 5t-1.5 7q4 12 29 12q108 -6 138 -3q16 3 23 1t7 -12q0 -3 -3 -6.5t-8.5 -8t-6.5 -5.5q-21 -29 -27 -87
q-9 -80 -12.5 -194t-1.5 -176q0 -3 1.5 -34t0.5 -46q-1 -12 -7.5 -20t-13.5 -8q-28 -1 -58 0q-17 0 -21 14q-10 29 -20 52q-26 68 -83.5 161t-88.5 131q-91 112 -169 146q-11 4 -18 -1.5t-7 -16.5q0 -58 3 -194t5 -155q4 -53 22.5 -76.5t52.5 -27.5q15 -2 25 -7.5t7 -16.5
q-2 -11 -18 -10q-90 8 -220 0q-5 0 -8 1.5t-3 4v4.5q2 9 14 16q18 5 23 8q56 24 59 92q4 57 5.5 189.5t-0.5 166.5q-6 86 -83 86q-19 0 -19 16q0 13 58 13zM487 738q11 -11 -10 -24q-12 -8 -45.5 -37t-44.5 -37q-16 -12 -33 1q-10 9 -32.5 31.5t-37.5 34.5q-20 18 -12 28
q7 8 24 -1q49 -32 59 -35q16 -8 33 -3q30 9 71 37q22 13 28 5z" />
    <glyph glyph-name="ncaron" unicode="&#x148;" horiz-adv-x="585" 
d="M483 291l3 -216q0 -19 15.5 -32.5t40.5 -18.5q24 -7 24 -16q0 -11 -23 -11q-10 0 -39 2.5t-53 2.5q-12 0 -35 -2.5t-34 -2.5q-19 0 -21 3q-1 2 -1 6q0 9 15 12q10 2 16.5 5t13 13.5t7.5 27.5q6 107 1 226q-1 47 -18.5 69t-39.5 22q-80 0 -145 -121q-21 -36 -24 -118
q-1 -11 0 -31.5t1 -29.5q0 -20 6.5 -30.5t15 -13.5t25 -6.5t26.5 -8.5q11 -3 16 -7t4 -10q-1 -11 -24 -8q-3 0 -44 3t-57 3q-14 0 -61 -3t-52 -3q-23 0 -23 10q0 17 31 17q25 0 46.5 18t23.5 42q4 78 4 254q0 22 -8 32.5t-33 10.5q-14 0 -34 -5q-17 -2 -18 7q-2 12 16 16
q56 9 91 19q22 8 35 8q23 0 23 -15q0 -19 -1.5 -46.5t-2.5 -39t0 -23.5q2 -8 6 -9.5t9 6.5q81 133 183 133q93 0 93 -141zM429 595q11 -11 -10 -24q-12 -8 -45.5 -37t-44.5 -37q-16 -12 -33 1q-10 9 -32.5 31.5t-37.5 34.5q-20 18 -12 28q7 8 24 -1q49 -32 59 -35
q16 -8 33 -3q30 9 71 37q22 13 28 5z" />
    <glyph glyph-name="napostrophe" unicode="&#x149;" horiz-adv-x="680" 
d="M482 432q51 0 72.5 -41t21.5 -100l2 -217q0 -18 12.5 -30t27.5 -15.5t27.5 -8.5t12.5 -12q0 -12 -22 -12q-17 0 -40 3t-53 3q-13 0 -34 -3t-34 -3q-11 0 -14.5 0.5t-5.5 2.5t-2 7q0 9 14 13q34 0 37 45q4 49 4 112v29.5v31.5t-0.5 30t-2 30t-4 26t-7 23.5t-11 17
t-15.5 12.5t-20 4q-54 0 -101.5 -54.5t-60.5 -110.5q-4 -18 -6 -41t-2 -38.5t0.5 -34.5t0.5 -20q0 -27 10 -36.5t36.5 -15t42.5 -14.5q6 -4 4.5 -10.5t-6.5 -7.5q-4 -2 -25.5 0t-50 4.5t-43.5 2.5q-19 0 -61 -3.5t-51 -3.5q-23 0 -23 10q0 17 30 17q26 0 47.5 17.5
t22.5 42.5q3 37 3 185v69q0 26 -9 34t-30 8q-10 0 -24.5 -2.5t-21 -2t-7.5 7.5t2.5 10.5t12 5.5t18 3t25.5 3.5t30 6.5q46 14 54 14q23 0 23 -15q0 -26 -2 -57.5t-1.5 -44.5t5.5 -17q3 -2 12 11.5t25 34.5t36.5 42.5t52 36.5t66.5 15zM101 691q17 0 32 -20t15 -56
q0 -41 -32 -94t-52 -56q-8 -1 -14 2t-3 11q1 2 10.5 17.5t17.5 31.5t13.5 38.5t-2.5 37.5l-2 3q-3 2 -4 3.5t-5 3.5t-7.5 2.5t-9.5 0.5t-13 -2q-19 -9 -26 -2q-11 9 6 34t37 36q16 9 39 9z" />
    <glyph glyph-name="Eng" unicode="&#x14a;" horiz-adv-x="714" 
d="M460 604q73 0 118 -48.5t52 -133.5q7 -84 -1 -252q-8 -159 -77.5 -266t-134.5 -107q-82 0 -82 67q0 22 16 47.5t33 39.5q15 15 22 12q2 -5 2 -7.5t-4 -11.5t-5 -10q-13 -34 -1.5 -58t34.5 -24q47 0 80 53t39 141q16 211 5 334q-7 83 -38 128.5t-99 45.5
q-91 0 -155.5 -78.5t-69.5 -169.5q-11 -131 0 -205q2 -19 5.5 -29.5t13.5 -20.5t28 -14q2 0 9 -1.5t10.5 -2.5t9 -3t8.5 -4.5t6 -6t3 -7.5q1 -8 -8.5 -11.5t-26.5 -1.5q-48 6 -226 -2q-19 0 -21 10q-3 12 9.5 18t29.5 8q39 4 53.5 29t16.5 75q3 223 2 268l-2 95
q-3 36 -34 53.5t-52 16.5q-9 -1 -12.5 4t-3.5 12q0 14 39 10q34 -4 137 1q7 1 10.5 -7.5t2.5 -19.5l-6 -113q1 -8 7.5 -7t7.5 5q53 68 80 91q69 58 170 58z" />
    <glyph glyph-name="eng" unicode="&#x14b;" horiz-adv-x="552" 
d="M386 432q48 0 71 -40.5t26 -100.5q3 -49 -3 -207q-6 -100 -27 -173q-24 -84 -73 -135t-101 -51q-28 0 -48 16.5t-19 44.5q1 41 56 80q8 6 16 6t9.5 -5.5t-3.5 -14.5q-15 -23 -15 -41q0 -34 39 -34q15 0 28 7t22 20t16.5 28t12.5 36.5t8 38.5t5.5 40.5t3.5 37t2 33.5t1 25
q9 108 -1 247q-7 91 -57 91q-80 0 -145 -121q-21 -36 -24 -118q-1 -11 0 -31.5t1 -29.5q0 -20 6.5 -30.5t15 -13.5t25 -6.5t26.5 -8.5q11 -3 16 -7t4 -10q-1 -11 -24 -8q-3 0 -44 3t-57 3q-14 0 -61 -3t-52 -3q-23 0 -23 10q0 17 31 17q25 0 46.5 18t23.5 42q4 78 4 254
q0 22 -8 32.5t-33 10.5q-14 0 -34 -5q-17 -2 -18 7q-2 12 16 16q56 9 91 19q22 8 35 8q23 0 23 -15q0 -19 -1.5 -46.5t-2.5 -39t0 -23.5q2 -8 6 -9.5t9 6.5q81 133 179 133z" />
    <glyph glyph-name="Omacron" unicode="&#x14c;" horiz-adv-x="677" 
d="M370 614q124 0 197 -73t73 -201q0 -157 -95 -258t-230 -101q-130 0 -203.5 83t-73.5 213q0 49 21 105.5t60 109.5t105 87.5t146 34.5zM561 319q0 111 -63 183t-163 72q-30 0 -64.5 -16t-68.5 -47.5t-56.5 -90.5t-22.5 -135q0 -120 67.5 -192.5t156.5 -72.5q83 0 148.5 77
t65.5 222zM235 671q-13 0 -17.5 4t-0.5 13q5 17 30 17q155 3 213 9q4 0 10.5 1t10 1.5t7 -0.5t5 -4t1.5 -8q0 -12 -21 -25q-9 -7 -28 -7q-36 -1 -210 -1z" />
    <glyph glyph-name="omacron" unicode="&#x14d;" horiz-adv-x="500" 
d="M227 -15q-95 0 -147 57.5t-52 156.5q0 52 26.5 105t85.5 93t136 40q85 0 138 -54.5t53 -130.5q1 -65 -19 -117.5t-55 -84.5t-77.5 -48.5t-88.5 -16.5zM258 400q-73 0 -117 -54.5t-45 -128.5q0 -93 46.5 -145.5t99.5 -52.5q61 0 107 52.5t46 167.5q-4 65 -41 113t-96 48z
M135 520q-13 0 -17.5 4t-0.5 13q5 17 30 17q155 3 213 9q4 0 10.5 1t10 1.5t7 -0.5t5 -4t1.5 -8q0 -12 -21 -25q-9 -7 -28 -7q-36 -1 -210 -1z" />
    <glyph glyph-name="Obreve" unicode="&#x14e;" horiz-adv-x="677" 
d="M370 614q124 0 197 -73t73 -201q0 -157 -95 -258t-230 -101q-130 0 -203.5 83t-73.5 213q0 49 21 105.5t60 109.5t105 87.5t146 34.5zM561 319q0 111 -63 183t-163 72q-30 0 -64.5 -16t-68.5 -47.5t-56.5 -90.5t-22.5 -135q0 -120 67.5 -192.5t156.5 -72.5q83 0 148.5 77
t65.5 222zM462 755q11 0 3 -27q-11 -40 -47 -60t-69 -20q-39 0 -65.5 23t-35.5 52q-9 31 3 34q11 2 21 -14q22 -35 79 -35q23 0 52.5 8.5t41.5 25.5q8 14 17 13z" />
    <glyph glyph-name="obreve" unicode="&#x14f;" horiz-adv-x="500" 
d="M227 -15q-95 0 -147 57.5t-52 156.5q0 52 26.5 105t85.5 93t136 40q85 0 138 -54.5t53 -130.5q1 -65 -19 -117.5t-55 -84.5t-77.5 -48.5t-88.5 -16.5zM258 400q-73 0 -117 -54.5t-45 -128.5q0 -93 46.5 -145.5t99.5 -52.5q61 0 107 52.5t46 167.5q-4 65 -41 113t-96 48z
M364 598q11 0 3 -27q-11 -40 -47 -60t-69 -20q-39 0 -65.5 23t-35.5 52q-9 31 3 34q11 2 21 -14q22 -35 79 -35q23 0 52.5 8.5t41.5 25.5q8 14 17 13z" />
    <glyph glyph-name="Ohungarumlaut" unicode="&#x150;" horiz-adv-x="677" 
d="M265 641q-2 0 -2.5 2t1.5 6.5t7 10.5q6 8 26 34.5t24 31.5q16 23 36 29q26 8 63 8q9 -1 8 -9.5t-7 -12.5q-43 -27 -133 -95q-1 -1 -5.5 -3.5t-6 -3t-5 -0.5t-6.5 2zM400 641q-7 0 1 12q2 3 5 7q5 6 15 19.5t20.5 28t13.5 18.5q11 15 17.5 20t19.5 9q25 8 63 8
q9 -1 8 -9.5t-7 -12.5q-37 -23 -133 -95q-1 -1 -5.5 -3.5t-6 -3t-5 -0.5t-6.5 2zM370 614q124 0 197 -73t73 -201q0 -157 -95 -258t-230 -101q-130 0 -203.5 83t-73.5 213q0 49 21 105.5t60 109.5t105 87.5t146 34.5zM561 319q0 111 -63 183t-163 72q-30 0 -64.5 -16
t-68.5 -47.5t-56.5 -90.5t-22.5 -135q0 -120 67.5 -192.5t156.5 -72.5q83 0 148.5 77t65.5 222z" />
    <glyph glyph-name="ohungarumlaut" unicode="&#x151;" horiz-adv-x="500" 
d="M227 -15q-95 0 -147 57.5t-52 156.5q0 52 26.5 105t85.5 93t136 40q85 0 138 -54.5t53 -130.5q1 -65 -19 -117.5t-55 -84.5t-77.5 -48.5t-88.5 -16.5zM258 400q-73 0 -117 -54.5t-45 -128.5q0 -93 46.5 -145.5t99.5 -52.5q61 0 107 52.5t46 167.5q-4 65 -41 113t-96 48z
M237 678q26 0 12 -32q-6 -12 -19.5 -40t-22 -47.5t-16.5 -42.5q-7 -28 -21 -28q-11 0 -5 28q7 40 9 125q0 13 5 19.5t8.5 8t14.5 4.5q22 5 35 5zM390 678q26 0 12 -32q-6 -12 -19.5 -40t-22 -47.5t-16.5 -42.5q-7 -28 -22 -28q-8 0 -4 28q8 53 8 125q0 13 5 19.5t8.5 8
t14.5 4.5q23 5 36 5z" />
    <glyph glyph-name="OE" unicode="&#x152;" horiz-adv-x="933" 
d="M312 -8q-129 0 -201.5 77.5t-72.5 204.5q0 49 20.5 104t58.5 106t103 84t144 33q23 0 70 -7q36 -4 77 -4q46 0 180 5.5t140 5.5q15 0 23.5 -3t9 -4.5t3.5 -7.5q7 -20 4 -69t-17 -65q-14 -14 -22 -6q-5 5 -4 17q9 44 -10.5 71t-64.5 27q-155 0 -188 -5q-13 -3 -15.5 -7.5
t-2.5 -16.5q0 -16 -0.5 -78t-0.5 -70v-5.5v-6t0.5 -5t1 -4.5l2 -4t3.5 -4t5.5 -3t7.5 -2.5t9.5 -1t12.5 -0.5q58 0 83.5 3.5t47.5 15.5q9 4 24 24t15 32q0 4 5.5 10t11.5 6q13 0 10 -33q-11 -80 -11 -145q0 -19 -16 -20q-4 0 -9 5.5t-6 13.5q-2 18 -18.5 35t-35.5 18
q-35 3 -115 3q-17 -1 -22 -6t-6 -18q-7 -86 -1 -183q1 -21 2.5 -29t8 -15t22.5 -14q36 -14 97 -14q56 0 94.5 8.5t60.5 26.5t33 36.5t19 45.5q1 3 2 9t2 8t3 5.5t5 4.5t8 0q17 -2 10 -51q-3 -25 -26.5 -66t-56.5 -61q-26 -9 -56 -6q-31 2 -59 4.5t-37 2.5q-115 8 -169 6
q-74 -1 -114 -10q-34 -8 -82 -8zM339 561q-31 0 -65.5 -14.5t-69.5 -44.5t-57.5 -87.5t-22.5 -132.5q0 -118 66 -183.5t154 -65.5q108 0 116 64q3 26 6 201.5t2 201.5q0 33 -29 45q-39 16 -100 16z" />
    <glyph glyph-name="oe" unicode="&#x153;" horiz-adv-x="804" 
d="M227 -9q-96 0 -147.5 55t-51.5 153q0 83 67 156t181 73q107 0 163 -77q10 -16 24 0q70 81 157 81q83 0 116 -51t21 -111q-1 -4 -5 -17q-3 -7 -19 -7q-14 0 -106 -2t-130 -2q-17 0 -21 -1.5t-6 -9.5q-19 -67 27 -125.5t112 -58.5q86 0 120 30l28 26q8 8 15 2q7 -4 2 -12
q-6 -14 -36 -46t-42 -37q-39 -14 -105 -14q-123 0 -170 76q-11 17 -25 -1q-57 -80 -169 -80zM258 391q-73 0 -117 -50.5t-45 -124.5q0 -92 46 -142.5t100 -50.5q62 0 107.5 50t45.5 165q-4 64 -40.5 108.5t-96.5 44.5zM508 348q-33 -38 -30 -69q0 -10 13 -10l185 6
q13 1 17 4.5t4 15.5q-2 43 -25.5 70t-62.5 27q-62 0 -101 -44z" />
    <glyph glyph-name="Racute" unicode="&#x154;" horiz-adv-x="666" 
d="M29 588q0 15 39 10q25 -4 78 -4.5t119 1.5t81 2q42 0 70.5 -3t58 -13t44.5 -32.5t15 -56.5q0 -26 -21 -51t-44 -40t-57 -33.5t-43 -24.5q-12 -8 -13 -17.5t4 -22.5q28 -87 109.5 -169t135.5 -82q31 0 47 9q9 5 16 0q10 -10 -5 -23q-40 -42 -112 -42q-36 0 -95.5 49.5
t-111.5 125t-65 139.5q-3 22 3.5 28.5t35.5 16.5q53 21 95 54t42 72q0 36 -36 57.5t-81 24.5q-67 4 -104 -1q-15 -1 -21 -6.5t-7 -20.5q-12 -358 -1 -433q4 -27 12.5 -39t35.5 -26q6 -3 20.5 -6t24 -7t10.5 -12t-8.5 -11.5t-27.5 -1.5q-53 6 -227 -2q-20 0 -21 10q-2 6 1 11
t11.5 8t12 4t13.5 3q33 5 46 22t17 46q8 23 9.5 202t-1.5 199q-2 55 -88 70q-16 4 -16 16zM275 639q-2 0 -2.5 2.5t1.5 7t7 9.5q8 10 50 66q16 24 36 30q26 8 63 8q9 -1 8 -10t-7 -13q-41 -25 -133 -94q-15 -11 -23 -6z" />
    <glyph glyph-name="racute" unicode="&#x155;" horiz-adv-x="401" 
d="M20 7q-1 6 5 10.5t11 4.5q6 1 16.5 2.5t16 2.5t14 3t12.5 4.5t9 6.5t7 9.5t3 12.5q9 80 9 270q0 17 -2 25.5t-9 18t-23 12.5t-42 0q-23 -3 -23 9q0 8 17 12q4 1 6 2q17 1 102 14q25 5 35 -1t11 -27q1 -16 -1.5 -49t-2.5 -37q0 -8 2.5 -11t7 0t8.5 10q13 24 21 36.5
t24 34.5t35 34t40 15q31 2 40.5 -13t9.5 -44q0 -63 -34 -116q-3 -6 -8.5 -7.5t-9.5 2.5q-4 5 0 21q9 24 6 49t-18 31q-31 13 -60.5 -20.5t-47.5 -74.5q-14 -30 -14 -65q-3 -87 -3 -91q2 -47 20.5 -60.5t72.5 -18.5q25 -4 25 -15q0 -13 -25 -11q-119 10 -240 -1q-22 0 -23 10
zM187 494q-2 0 -2.5 2.5t1.5 7t7 9.5q8 10 50 66q16 24 36 30q26 8 63 8q9 -1 8 -10t-7 -13q-41 -25 -133 -94q-15 -11 -23 -6z" />
    <glyph glyph-name="Rcommaaccent" unicode="&#x156;" horiz-adv-x="666" 
d="M313 -251q-6 6 9 29q17 23 24 52.5t0 40.5q-12 19 -35 11q-20 -8 -26 -2q-9 9 11 37q27 34 64 34q16 0 29 -19t13 -49q0 -27 -16.5 -62t-32.5 -54q-26 -28 -40 -18zM29 588q0 15 39 10q25 -4 78 -4.5t119 1.5t81 2q42 0 70.5 -3t58 -13t44.5 -32.5t15 -56.5
q0 -26 -21 -51t-44 -40t-57 -33.5t-43 -24.5q-12 -8 -13 -17.5t4 -22.5q28 -87 109.5 -169t135.5 -82q31 0 47 9q9 5 16 0q10 -10 -5 -23q-40 -42 -112 -42q-36 0 -95.5 49.5t-111.5 125t-65 139.5q-3 22 3.5 28.5t35.5 16.5q53 21 95 54t42 72q0 36 -36 57.5t-81 24.5
q-67 4 -104 -1q-15 -1 -21 -6.5t-7 -20.5q-12 -358 -1 -433q4 -27 12.5 -39t35.5 -26q6 -3 20.5 -6t24 -7t10.5 -12t-8.5 -11.5t-27.5 -1.5q-53 6 -227 -2q-20 0 -21 10q-2 6 1 11t11.5 8t12 4t13.5 3q33 5 46 22t17 46q8 23 9.5 202t-1.5 199q-2 55 -88 70q-16 4 -16 16z
" />
    <glyph glyph-name="rcommaaccent" unicode="&#x157;" horiz-adv-x="401" 
d="M124 -238q-7 6 9 26q16 22 22 48.5t-1 37.5q-11 19 -33 12q-18 -6 -23 -2q-8 8 11 35q23 32 59 32q15 0 27.5 -18t12.5 -46q0 -25 -15.5 -58t-31.5 -51q-24 -27 -37 -16zM20 7q-1 6 5 10.5t11 4.5q6 1 16.5 2.5t16 2.5t14 3t12.5 4.5t9 6.5t7 9.5t3 12.5q9 80 9 270
q0 17 -2 25.5t-9 18t-23 12.5t-42 0q-23 -3 -23 9q0 8 17 12q4 1 6 2q17 1 102 14q25 5 35 -1t11 -27q1 -16 -1.5 -49t-2.5 -37q0 -8 2.5 -11t7 0t8.5 10q13 24 21 36.5t24 34.5t35 34t40 15q31 2 40.5 -13t9.5 -44q0 -63 -34 -116q-3 -6 -8.5 -7.5t-9.5 2.5q-4 5 0 21
q9 24 6 49t-18 31q-31 13 -60.5 -20.5t-47.5 -74.5q-14 -30 -14 -65q-3 -87 -3 -91q2 -47 20.5 -60.5t72.5 -18.5q25 -4 25 -15q0 -13 -25 -11q-119 10 -240 -1q-22 0 -23 10z" />
    <glyph glyph-name="Rcaron" unicode="&#x158;" horiz-adv-x="666" 
d="M29 588q0 15 39 10q25 -4 78 -4.5t119 1.5t81 2q42 0 70.5 -3t58 -13t44.5 -32.5t15 -56.5q0 -26 -21 -51t-44 -40t-57 -33.5t-43 -24.5q-12 -8 -13 -17.5t4 -22.5q28 -87 109.5 -169t135.5 -82q31 0 47 9q9 5 16 0q10 -10 -5 -23q-40 -42 -112 -42q-36 0 -95.5 49.5
t-111.5 125t-65 139.5q-3 22 3.5 28.5t35.5 16.5q53 21 95 54t42 72q0 36 -36 57.5t-81 24.5q-67 4 -104 -1q-15 -1 -21 -6.5t-7 -20.5q-12 -358 -1 -433q4 -27 12.5 -39t35.5 -26q6 -3 20.5 -6t24 -7t10.5 -12t-8.5 -11.5t-27.5 -1.5q-53 6 -227 -2q-20 0 -21 10q-2 6 1 11
t11.5 8t12 4t13.5 3q33 5 46 22t17 46q8 23 9.5 202t-1.5 199q-2 55 -88 70q-16 4 -16 16zM426 738q11 -11 -10 -24q-12 -8 -45.5 -37t-44.5 -37q-16 -12 -33 1q-10 9 -32.5 31.5t-37.5 34.5q-20 18 -12 28q7 8 24 -1q49 -32 59 -35q16 -8 33 -3q30 9 71 37q22 13 28 5z" />
    <glyph glyph-name="rcaron" unicode="&#x159;" horiz-adv-x="401" 
d="M20 7q-1 6 5 10.5t11 4.5q6 1 16.5 2.5t16 2.5t14 3t12.5 4.5t9 6.5t7 9.5t3 12.5q9 80 9 270q0 17 -2 25.5t-9 18t-23 12.5t-42 0q-23 -3 -23 9q0 8 17 12q4 1 6 2q17 1 102 14q25 5 35 -1t11 -27q1 -16 -1.5 -49t-2.5 -37q0 -8 2.5 -11t7 0t8.5 10q13 24 21 36.5
t24 34.5t35 34t40 15q31 2 40.5 -13t9.5 -44q0 -63 -34 -116q-3 -6 -8.5 -7.5t-9.5 2.5q-4 5 0 21q9 24 6 49t-18 31q-31 13 -60.5 -20.5t-47.5 -74.5q-14 -30 -14 -65q-3 -87 -3 -91q2 -47 20.5 -60.5t72.5 -18.5q25 -4 25 -15q0 -13 -25 -11q-119 10 -240 -1q-22 0 -23 10
zM329 595q11 -11 -10 -24q-12 -8 -45.5 -37t-44.5 -37q-16 -12 -33 1q-10 9 -32.5 31.5t-37.5 34.5q-20 18 -12 28q7 8 24 -1q49 -32 59 -35q16 -8 33 -3q30 9 71 37q22 13 28 5z" />
    <glyph glyph-name="Sacute" unicode="&#x15a;" horiz-adv-x="480" 
d="M266 609q142 0 142 -78q0 -39 -31 -72q-22 -25 -32 -18q-13 8 -2 30q5 7 5 26q0 35 -28 55t-66 20q-40 0 -79 -31t-39 -73q0 -20 10 -35.5t15.5 -19.5t26.5 -17q26 -14 86 -41t79 -38q81 -43 81 -119q0 -89 -63 -151t-161 -62q-166 0 -166 83q0 45 51 89q3 4 11.5 8
t12.5 3q6 -1 8 -8t-1 -14q-2 -4 -7 -13.5t-7.5 -16.5t-2.5 -12q0 -31 30.5 -55.5t78.5 -24.5q66 0 107.5 35t39.5 88q0 27 -9 45t-18.5 26.5t-34.5 25.5q-19 12 -81.5 41t-67.5 32q-45 25 -65 51.5t-20 72.5q0 60 58 114t139 54zM210 639q-2 0 -2.5 2.5t1.5 7t7 9.5
q8 10 50 66q16 24 36 30q26 8 63 8q9 -1 8 -10t-7 -13q-41 -25 -133 -94q-15 -11 -23 -6z" />
    <glyph glyph-name="sacute" unicode="&#x15b;" horiz-adv-x="353" 
d="M218 433q84 0 86 -49q1 -26 -33 -56q-13 -9 -19 -5t-2 18q7 25 -8.5 42.5t-47.5 17.5q-37 0 -59.5 -20t-22.5 -43q0 -22 12.5 -36t38.5 -27l64 -27q91 -34 91 -105q0 -79 -50 -116.5t-124 -37.5q-60 0 -89.5 19t-29.5 50q0 21 17 43t38 35q16 10 24 2q6 -9 -4 -19
q-13 -18 -13 -43q0 -23 21.5 -38.5t52.5 -15.5q37 0 72.5 21t34.5 63q-1 26 -16.5 42t-46.5 31q-12 6 -48 21.5t-48 22.5q-28 17 -40.5 34t-12.5 50q0 36 17 62.5t43.5 39.5t52 18.5t49.5 5.5zM129 489q-2 0 -2.5 2.5t1.5 7t7 9.5q8 10 50 66q16 24 36 30q26 8 63 8
q9 -1 8 -10t-7 -13q-41 -25 -133 -94q-15 -11 -23 -6z" />
    <glyph glyph-name="Scircumflex" unicode="&#x15c;" horiz-adv-x="480" 
d="M266 609q142 0 142 -78q0 -39 -31 -72q-22 -25 -32 -18q-13 8 -2 30q5 7 5 26q0 35 -28 55t-66 20q-40 0 -79 -31t-39 -73q0 -20 10 -35.5t15.5 -19.5t26.5 -17q26 -14 86 -41t79 -38q81 -43 81 -119q0 -89 -63 -151t-161 -62q-166 0 -166 83q0 45 51 89q3 4 11.5 8
t12.5 3q6 -1 8 -8t-1 -14q-2 -4 -7 -13.5t-7.5 -16.5t-2.5 -12q0 -31 30.5 -55.5t78.5 -24.5q66 0 107.5 35t39.5 88q0 27 -9 45t-18.5 26.5t-34.5 25.5q-19 12 -81.5 41t-67.5 32q-45 25 -65 51.5t-20 72.5q0 60 58 114t139 54zM146 640q-11 11 10 25q12 8 45.5 37t44.5 37
q17 12 33 -2q12 -10 33.5 -32t36.5 -33q20 -18 12 -28q-7 -9 -24 1q-47 30 -59 35q-19 7 -33 3q-32 -11 -71 -38q-21 -13 -28 -5z" />
    <glyph glyph-name="scircumflex" unicode="&#x15d;" horiz-adv-x="353" 
d="M218 433q84 0 86 -49q1 -26 -33 -56q-13 -9 -19 -5t-2 18q7 25 -8.5 42.5t-47.5 17.5q-37 0 -59.5 -20t-22.5 -43q0 -22 12.5 -36t38.5 -27l64 -27q91 -34 91 -105q0 -79 -50 -116.5t-124 -37.5q-60 0 -89.5 19t-29.5 50q0 21 17 43t38 35q16 10 24 2q6 -9 -4 -19
q-13 -18 -13 -43q0 -23 21.5 -38.5t52.5 -15.5q37 0 72.5 21t34.5 63q-1 26 -16.5 42t-46.5 31q-12 6 -48 21.5t-48 22.5q-28 17 -40.5 34t-12.5 50q0 36 17 62.5t43.5 39.5t52 18.5t49.5 5.5zM77 492q-11 11 10 25q12 8 45.5 37t44.5 37q17 12 33 -2q12 -10 33.5 -32
t36.5 -33q20 -18 12 -28q-7 -9 -24 1q-47 30 -59 35q-19 7 -33 3q-32 -11 -71 -38q-21 -13 -28 -5z" />
    <glyph glyph-name="Scedilla" unicode="&#x15e;" horiz-adv-x="480" 
d="M266 609q142 0 142 -78q0 -39 -31 -72q-22 -25 -32 -18q-13 8 -2 30q5 7 5 26q0 35 -28 55t-66 20q-40 0 -79 -31t-39 -73q0 -20 10 -35.5t15.5 -19.5t26.5 -17q26 -14 86 -41t79 -38q81 -43 81 -119q0 -80 -51 -138.5t-133 -71.5q-10 -1 -13 -2t-5.5 -4.5t-5.5 -13.5
q-7 -16 16 -23q47 -16 47 -63q0 -26 -30 -44.5t-70 -24.5q-21 -3 -21 11q0 10 18 13q54 6 54 28q0 27 -56 44q-18 6 -8 25q2 4 6.5 9.5t8 11t6.5 12.5q7 18 -12 19q-141 8 -141 82q0 45 51 89q3 4 11.5 8t12.5 3q6 -1 8 -8t-1 -14q-2 -4 -7 -13.5t-7.5 -16.5t-2.5 -12
q0 -31 30.5 -55.5t78.5 -24.5q66 0 107.5 35t39.5 88q0 27 -9 45t-18.5 26.5t-34.5 25.5q-19 12 -81.5 41t-67.5 32q-45 25 -65 51.5t-20 72.5q0 60 58 114t139 54z" />
    <glyph glyph-name="scedilla" unicode="&#x15f;" horiz-adv-x="353" 
d="M218 433q84 0 86 -49q1 -26 -33 -56q-13 -9 -19 -5t-2 18q7 25 -8.5 42.5t-47.5 17.5q-37 0 -59.5 -20t-22.5 -43q0 -22 12.5 -36t38.5 -27l64 -27q91 -34 91 -105q0 -66 -34.5 -103.5t-90.5 -46.5q-15 -2 -19 -6t-10 -19q-7 -15 16 -23q47 -15 47 -63q0 -26 -30 -44.5
t-70 -24.5q-20 -3 -20 11q0 10 18 13q21 2 37.5 11.5t16.5 20.5q0 22 -56 40q-18 5 -9 25q14 19 24 38q9 17 -8 17q-53 2 -79 21t-26 48q0 21 17 43t38 35q16 10 24 2q6 -9 -4 -19q-13 -18 -13 -43q0 -23 21.5 -38.5t52.5 -15.5q37 0 72.5 21t34.5 63q-1 26 -16.5 42
t-46.5 31q-12 6 -48 21.5t-48 22.5q-28 17 -40.5 34t-12.5 50q0 36 17 62.5t43.5 39.5t52 18.5t49.5 5.5z" />
    <glyph glyph-name="Scaron" unicode="&#x160;" horiz-adv-x="480" 
d="M367 738q10 -10 -10 -24q-12 -8 -45.5 -37t-44.5 -37q-17 -7 -20 -6t-13 7q-10 9 -32.5 31.5t-37.5 34.5q-20 18 -12 28q8 9 24 -1q45 -29 59 -35q16 -8 34 -3q30 9 70 37q20 16 28 5zM266 609q142 0 142 -78q0 -39 -31 -72q-22 -25 -32 -18q-13 8 -2 30q5 7 5 26
q0 35 -28 55t-66 20q-40 0 -79 -31t-39 -73q0 -20 10 -35.5t15.5 -19.5t26.5 -17q26 -14 86 -41t79 -38q81 -43 81 -119q0 -89 -63 -151t-161 -62q-166 0 -166 83q0 45 51 89q3 4 11.5 8t12.5 3q6 -1 8 -8t-1 -14q-2 -4 -7 -13.5t-7.5 -16.5t-2.5 -12q0 -31 30.5 -55.5
t78.5 -24.5q66 0 107.5 35t39.5 88q0 27 -9 45t-18.5 26.5t-34.5 25.5q-19 12 -81.5 41t-67.5 32q-45 25 -65 51.5t-20 72.5q0 60 58 114t139 54z" />
    <glyph glyph-name="scaron" unicode="&#x161;" horiz-adv-x="353" 
d="M218 433q84 0 86 -49q1 -26 -33 -56q-11 -8 -19 -6q-6 2 -2 19q6 23 -10 41.5t-46 18.5q-37 0 -59.5 -20t-22.5 -43q0 -22 12.5 -36t38.5 -27l64 -27q91 -34 91 -105q0 -79 -50 -116.5t-124 -37.5q-60 0 -89.5 19t-29.5 50q0 21 17 43t38 35q16 10 24 2q6 -9 -4 -19
q-13 -16 -13 -43q0 -23 21.5 -38.5t52.5 -15.5q37 0 72.5 21t34.5 63q-1 26 -16.5 42t-46.5 31q-12 6 -48 21.5t-48 22.5q-28 17 -40.5 34t-12.5 50q0 36 17 62.5t43.5 39.5t52 18.5t49.5 5.5zM306 595q11 -11 -10 -24q-10 -8 -44 -37t-46 -37q-16 -12 -33 1
q-12 10 -33.5 32.5t-35.5 33.5q-21 16 -12 28q7 9 23 -1q48 -31 59 -35q16 -8 34 -3q30 9 71 37q22 13 27 5z" />
    <glyph glyph-name="Tcommaaccent" unicode="&#x162;" horiz-adv-x="572" 
d="M253 536q0 16 -6 20.5t-19 4.5h-49q-111 -6 -138 -119q-2 -13 -6.5 -20t-14.5 -6q-16 2 -10 31q1 6 5.5 35.5t10 60.5t10.5 48q5 15 11 17.5t19 -2.5q59 -18 241 -13q96 1 196 16q16 1 27 -4.5t13 -9t8 -13.5q18 -28 11.5 -81t-38.5 -86q-10 -10 -20 -2q-8 7 0 23
q13 19 13 42q-1 52 -40 69.5t-113 17.5q-23 0 -31 -8.5t-8 -24.5q0 -14 -0.5 -91.5t-0.5 -136.5t1 -121t4 -80q8 -58 65 -68q2 0 9 -1.5t9.5 -2t8 -2t8 -3t6 -3.5t5 -5t1.5 -7q1 -8 -8.5 -11t-28.5 -1q-33 3 -84 3q-18 0 -26 -8t-15 -26q-7 -15 16 -23q48 -15 48 -63
q0 -26 -30.5 -44.5t-70.5 -24.5q-20 -3 -20 11q0 10 18 13q54 6 54 28q0 27 -56 44q-20 6 -8 25q17 24 23 41q5 8 2 17.5t-19 8.5l-71 -4q-19 0 -20 10q-2 8 5.5 14t14.5 8t19 4q34 6 47 22.5t17 46.5q9 27 5 434z" />
    <glyph glyph-name="tcommaaccent" unicode="&#x163;" horiz-adv-x="326" 
d="M153 545q8 0 10 -10q3 -5 1 -51.5t-2 -55.5q0 -11 7 -11q68 0 110 9q16 2 19 -7q4 -15 -8 -34q-9 -15 -24 -14q-41 5 -93 5q-5 0 -8.5 -0.5t-5 -2.5t-2 -3t-0.5 -5.5v-5.5q-1 -33 -2 -123t1 -124q3 -33 15 -47t25 -12.5t28 11.5q1 1 40 31q15 13 23 5q6 -6 -4 -20
q-8 -13 -38.5 -37.5t-59.5 -39.5q-29 -19 -34 -35q-7 -16 16 -23q47 -15 47 -63q0 -26 -30 -44.5t-70 -24.5q-21 -3 -21 11q0 10 18 13q54 6 54 28q0 27 -56 44q-18 6 -8 25l19 31q5 12 3 20.5t-14 24.5q-28 35 -28 113q0 26 2.5 106.5t2.5 134.5q0 14 -12 15q-10 1 -48 1
q-17 1 -3 22q7 12 19 12q34 0 38 1q10 1 16 13q10 17 17.5 32t10 21.5t9 25.5t8.5 26q3 12 12 12z" />
    <glyph glyph-name="Tcaron" unicode="&#x164;" horiz-adv-x="572" 
d="M253 536q0 16 -6 20.5t-19 4.5h-49q-111 -6 -138 -119q-2 -13 -6.5 -20t-14.5 -6q-16 2 -10 31q1 6 5.5 35.5t10 60.5t10.5 48q5 15 11 17.5t19 -2.5q59 -18 241 -13q96 1 196 16q16 1 27 -4.5t13 -9t8 -13.5q18 -28 11.5 -81t-38.5 -86q-10 -10 -20 -2q-8 7 0 23
q13 19 13 42q-1 52 -40 69.5t-113 17.5q-23 0 -31 -8.5t-8 -24.5q0 -14 -0.5 -91.5t-0.5 -136.5t1 -121t4 -80q8 -58 65 -68q2 0 9 -1.5t9.5 -2t8 -2t8 -3t6 -3.5t5 -5t1.5 -7q1 -8 -8.5 -11t-28.5 -1q-51 6 -239 -2q-19 0 -20 10q-2 8 5.5 14t14.5 8t19 4q34 6 47 22.5
t17 46.5q9 27 5 434zM402 738q11 -11 -10 -24q-12 -8 -45.5 -37t-44.5 -37q-16 -12 -33 1q-10 9 -32.5 31.5t-37.5 34.5q-20 18 -12 28q7 8 24 -1q49 -32 59 -35q16 -8 33 -3q30 9 71 37q22 13 28 5z" />
    <glyph glyph-name="tcaron" unicode="&#x165;" horiz-adv-x="326" 
d="M233 492q-5 7 9 27q16 22 22.5 48t-1.5 37q-11 20 -32 13q-19 -7 -23 -3q-9 9 10 36q25 32 60 32q15 0 27 -18t12 -46q0 -26 -15.5 -59t-31.5 -51q-24 -25 -37 -16zM153 545q8 0 10 -10q3 -5 1 -51.5t-2 -55.5q0 -11 7 -11q68 0 110 9q16 2 19 -7q4 -15 -8 -34
q-9 -15 -24 -14q-41 5 -93 5q-5 0 -8.5 -0.5t-5 -2.5t-2 -3t-0.5 -5.5v-5.5q-1 -33 -2 -123t1 -124q3 -33 15 -47t25 -12.5t28 11.5q1 1 40 31q15 13 23 5q6 -6 -4 -20q-13 -20 -63.5 -56.5t-75.5 -36.5q-12 0 -25.5 11.5t-25.5 44t-12 80.5q0 26 2.5 106.5t2.5 134.5
q0 14 -12 15q-10 1 -48 1q-17 1 -3 22q7 12 19 12q34 0 38 1q10 1 16 13q10 17 17.5 32t10 21.5t9 25.5t8.5 26q3 12 12 12z" />
    <glyph glyph-name="Tbar" unicode="&#x166;" horiz-adv-x="572" 
d="M238 279h-102q-33 0 -24 18q8 17 40 17q58 0 83 1q14 0 17 3.5t3 18.5q0 46 -1 115.5t-1 83.5q0 16 -6 20.5t-19 4.5h-49q-111 -6 -138 -119q-2 -13 -6.5 -20t-14.5 -6q-16 2 -10 31q1 6 5.5 35.5t10 60.5t10.5 48q5 15 11 17.5t19 -2.5q59 -18 241 -13q96 1 196 16
q16 1 27 -4.5t13 -9t8 -13.5q18 -28 11.5 -81t-38.5 -86q-10 -10 -20 -2q-8 7 0 23q13 19 13 42q-1 52 -40 69.5t-113 17.5q-23 0 -31 -8.5t-8 -24.5q0 -12 -0.5 -79t-0.5 -112q0 -15 2.5 -17.5t16.5 -2.5q22 1 91 7q4 1 10.5 1.5t10 1t8 1t7 0t5 -2t3.5 -4t1 -6.5
q0 -16 -28 -30q-11 -7 -37 -7q-6 0 -16 -0.5t-26 -1t-28 -0.5q-16 0 -18 -2.5t-2 -18.5q0 -130 5 -156q8 -58 65 -68q2 0 9 -1.5t9.5 -2t8 -2t8 -3t6 -3.5t5 -5t1.5 -7q1 -8 -8.5 -11t-28.5 -1q-51 6 -239 -2q-19 0 -20 10q-2 8 5.5 14t14.5 8t19 4q34 6 47 22.5t17 46.5
q7 17 7 158v2q-2 16 -17 17z" />
    <glyph glyph-name="tbar" unicode="&#x167;" horiz-adv-x="326" 
d="M66 238h-22q-16 0 -22 4t-2 14q8 17 46 17q9 0 13.5 4t5 6.5t0.5 7.5q0 11 0.5 36t0.5 37q0 14 -12 15q-10 1 -48 1q-17 1 -3 22q7 12 19 12q34 0 38 1q10 1 16 13q10 17 17.5 32t10 21.5t9 25.5t8.5 26q3 12 12 12q8 0 10 -10q2 -7 0 -51t-1 -56q0 -11 6 -11q69 0 111 9
q16 2 19 -7q4 -15 -8 -34q-9 -15 -24 -14q-41 5 -93 5q-5 0 -8.5 -0.5t-5 -2.5t-2 -3t-0.5 -5.5v-5.5q0 -2 -0.5 -25.5t-0.5 -39.5q0 -11 3 -15t13 -4q49 0 96 10q13 5 21.5 4t8.5 -14q0 -19 -13 -33q-9 -10 -26 -10q-7 0 -38 3t-47 3q-11 0 -15 -3t-4 -15q-2 -90 1 -108
q3 -33 15 -47t25 -12.5t28 11.5q1 1 40 31q15 13 23 5q6 -6 -4 -20q-13 -20 -63.5 -56.5t-75.5 -36.5q-12 0 -25.5 11.5t-25.5 44t-12 80.5q0 15 2 97q0 18 -17 18z" />
    <glyph glyph-name="Utilde" unicode="&#x168;" horiz-adv-x="766" 
d="M36 574q-17 0 -17 11q-1 6 6 9.5t18 3.5q143 -12 225 0q21 2 23 -2q2 -2 2 -6q1 -4 -4 -9t-13 -7q-83 -27 -83 -87q-3 -169 0 -280q2 -83 30 -127.5t96 -44.5q57 0 105 25.5t76.5 64.5t45 80t18.5 77q4 63 4 225q-2 23 -24.5 42t-63.5 22q-8 1 -16.5 6t-6.5 12q5 11 41 7
q19 -2 93.5 -2t97.5 2q31 3 31 -8q0 -12 -18 -17q-34 -11 -45 -29t-11 -63q0 -4 -2.5 -94.5t-2.5 -149.5t4 -110q9 -50 23.5 -65.5t61.5 -30.5q16 -6 16 -16q0 -11 -20 -13q-27 -3 -97 -3q-62 0 -64 108q0 19 -2 33q0 6 -3.5 7t-6.5 -0.5t-5 -3.5q-26 -33 -46.5 -54.5
t-54 -48t-76 -40t-92.5 -13.5q-76 0 -123 46t-47 129q0 18 10 318q1 53 -19.5 73t-63.5 23zM241 645q-6 5 9 24q47 59 82 59q17 0 60 -19q34 -14 62 -14q33 0 53 22q2 3 5.5 6.5t5 5.5t4 4.5t4 2t4.5 -0.5q12 -4 1 -26q-14 -29 -40.5 -48.5t-49.5 -19.5q-31 0 -65 13
q-46 18 -55 18q-28 0 -56 -22q-15 -13 -24 -5z" />
    <glyph glyph-name="utilde" unicode="&#x169;" horiz-adv-x="569" 
d="M322 405q13 3 40 9.5t48.5 11t32.5 4.5h8t5.5 -1t4.5 -1.5t3 -2t1.5 -2.5t0.5 -4v-4.5v-5.5v-7q0 -39 -5 -142t-4 -154q1 -42 12 -56t39 -10q40 11 42 -4q2 -10 -15 -17q-98 -29 -119 -29q-13 0 -20 5t-8 11t-2 19q-1 10 -1 72q0 16 -13 7l-7 -8q-21 -31 -37 -50t-51 -39
t-77 -20q-115 0 -115 136q0 30 2.5 102t0.5 129q-1 17 -20 28.5t-46 6.5q-30 -9 -30 6q-1 5 3.5 8.5t11.5 3.5q10 1 41 7t57.5 11t34.5 5t11.5 -0.5t7 -5.5t3.5 -15q1 -10 -2 -127t-3 -136q0 -107 71 -107q37 0 76.5 31t59.5 76q26 53 27 110q3 73 0 103q-1 23 -20.5 27.5
t-38.5 -0.5q-20 -2 -23 4q-5 10 13 15zM127 508q-6 5 9 24q47 59 82 59q17 0 60 -19q34 -14 62 -14q33 0 53 22q2 3 5.5 6.5t5 5.5t4 4.5t4 2t4.5 -0.5q12 -4 1 -26q-14 -29 -40.5 -48.5t-49.5 -19.5q-31 0 -65 13q-46 18 -55 18q-28 0 -56 -22q-15 -13 -24 -5z" />
    <glyph glyph-name="Umacron" unicode="&#x16a;" horiz-adv-x="766" 
d="M36 574q-17 0 -17 11q-1 6 6 9.5t18 3.5q143 -12 225 0q21 2 23 -2q2 -2 2 -6q1 -4 -4 -9t-13 -7q-83 -27 -83 -87q-3 -169 0 -280q2 -83 30 -127.5t96 -44.5q57 0 105 25.5t76.5 64.5t45 80t18.5 77q4 63 4 225q-2 23 -24.5 42t-63.5 22q-8 1 -16.5 6t-6.5 12q5 11 41 7
q19 -2 93.5 -2t97.5 2q31 3 31 -8q0 -12 -18 -17q-34 -11 -45 -29t-11 -63q0 -4 -2.5 -94.5t-2.5 -149.5t4 -110q9 -50 23.5 -65.5t61.5 -30.5q16 -6 16 -16q0 -11 -20 -13q-27 -3 -97 -3q-62 0 -64 108q0 19 -2 33q0 6 -3.5 7t-6.5 -0.5t-5 -3.5q-26 -33 -46.5 -54.5
t-54 -48t-76 -40t-92.5 -13.5q-76 0 -123 46t-47 129q0 18 10 318q1 53 -19.5 73t-63.5 23zM261 660q-13 0 -17.5 4t-0.5 13q5 17 30 17q155 3 213 9q4 0 10.5 1t10 1.5t7 -0.5t5 -4t1.5 -8q0 -12 -21 -25q-9 -7 -28 -7q-36 -1 -210 -1z" />
    <glyph glyph-name="umacron" unicode="&#x16b;" horiz-adv-x="569" 
d="M322 405q13 3 40 9.5t48.5 11t32.5 4.5h8t5.5 -1t4.5 -1.5t3 -2t1.5 -2.5t0.5 -4v-4.5v-5.5v-7q0 -39 -5 -142t-4 -154q1 -42 12 -56t39 -10q40 11 42 -4q2 -10 -15 -17q-98 -29 -119 -29q-13 0 -20 5t-8 11t-2 19q-1 10 -1 72q0 16 -13 7l-7 -8q-21 -31 -37 -50t-51 -39
t-77 -20q-115 0 -115 136q0 30 2.5 102t0.5 129q-1 17 -20 28.5t-46 6.5q-30 -9 -30 6q-1 5 3.5 8.5t11.5 3.5q10 1 41 7t57.5 11t34.5 5t11.5 -0.5t7 -5.5t3.5 -15q1 -10 -2 -127t-3 -136q0 -107 71 -107q37 0 76.5 31t59.5 76q26 53 27 110q3 73 0 103q-1 23 -20.5 27.5
t-38.5 -0.5q-20 -2 -23 4q-5 10 13 15zM155 515q-13 0 -17.5 4t-0.5 13q5 17 30 17q155 3 213 9q4 0 10.5 1t10 1.5t7 -0.5t5 -4t1.5 -8q0 -12 -21 -25q-9 -7 -28 -7q-36 -1 -210 -1z" />
    <glyph glyph-name="Ubreve" unicode="&#x16c;" horiz-adv-x="766" 
d="M36 574q-17 0 -17 11q-1 6 6 9.5t18 3.5q143 -12 225 0q21 2 23 -2q2 -2 2 -6q1 -4 -4 -9t-13 -7q-83 -27 -83 -87q-3 -169 0 -280q2 -83 30 -127.5t96 -44.5q57 0 105 25.5t76.5 64.5t45 80t18.5 77q4 63 4 225q-2 23 -24.5 42t-63.5 22q-8 1 -16.5 6t-6.5 12q5 11 41 7
q19 -2 93.5 -2t97.5 2q31 3 31 -8q0 -12 -18 -17q-34 -11 -45 -29t-11 -63q0 -4 -2.5 -94.5t-2.5 -149.5t4 -110q9 -50 23.5 -65.5t61.5 -30.5q16 -6 16 -16q0 -11 -20 -13q-27 -3 -97 -3q-62 0 -64 108q0 19 -2 33q0 6 -3.5 7t-6.5 -0.5t-5 -3.5q-26 -33 -46.5 -54.5
t-54 -48t-76 -40t-92.5 -13.5q-76 0 -123 46t-47 129q0 18 10 318q1 53 -19.5 73t-63.5 23zM481 752q11 0 3 -27q-11 -40 -47 -60t-69 -20q-39 0 -65.5 23t-35.5 52q-9 31 3 34q11 2 21 -14q22 -35 79 -35q24 0 53 8.5t41 25.5q8 14 17 13z" />
    <glyph glyph-name="ubreve" unicode="&#x16d;" horiz-adv-x="569" 
d="M322 405q13 3 40 9.5t48.5 11t32.5 4.5h8t5.5 -1t4.5 -1.5t3 -2t1.5 -2.5t0.5 -4v-4.5v-5.5v-7q0 -39 -5 -142t-4 -154q1 -42 12 -56t39 -10q40 11 42 -4q2 -10 -15 -17q-98 -29 -119 -29q-13 0 -20 5t-8 11t-2 19q-1 10 -1 72q0 16 -13 7l-7 -8q-21 -31 -37 -50t-51 -39
t-77 -20q-115 0 -115 136q0 30 2.5 102t0.5 129q-1 17 -20 28.5t-46 6.5q-30 -9 -30 6q-1 5 3.5 8.5t11.5 3.5q10 1 41 7t57.5 11t34.5 5t11.5 -0.5t7 -5.5t3.5 -15q1 -10 -2 -127t-3 -136q0 -107 71 -107q37 0 76.5 31t59.5 76q26 53 27 110q3 73 0 103q-1 23 -20.5 27.5
t-38.5 -0.5q-20 -2 -23 4q-5 10 13 15zM377 598q11 0 3 -27q-11 -40 -47 -60t-69 -20q-39 0 -65.5 23t-35.5 52q-9 31 3 34q11 2 21 -14q22 -35 79 -35q24 0 53 8.5t41 25.5q8 14 17 13z" />
    <glyph glyph-name="Uring" unicode="&#x16e;" horiz-adv-x="766" 
d="M36 574q-17 0 -17 11q-1 6 6 9.5t18 3.5q143 -12 225 0q21 2 23 -2q2 -2 2 -6q1 -4 -4 -9t-13 -7q-83 -27 -83 -87q-3 -169 0 -280q2 -83 30 -127.5t96 -44.5q57 0 105 25.5t76.5 64.5t45 80t18.5 77q4 63 4 225q-2 23 -24.5 42t-63.5 22q-8 1 -16.5 6t-6.5 12q5 11 41 7
q19 -2 93.5 -2t97.5 2q31 3 31 -8q0 -12 -18 -17q-34 -11 -45 -29t-11 -63q0 -4 -2.5 -94.5t-2.5 -149.5t4 -110q9 -50 23.5 -65.5t61.5 -30.5q16 -6 16 -16q0 -11 -20 -13q-27 -3 -97 -3q-62 0 -64 108q0 19 -2 33q0 6 -3.5 7t-6.5 -0.5t-5 -3.5q-26 -33 -46.5 -54.5
t-54 -48t-76 -40t-92.5 -13.5q-76 0 -123 46t-47 129q0 18 10 318q1 53 -19.5 73t-63.5 23zM387 626q-106 0 -106 73q0 43 39.5 65.5t81.5 22.5t71.5 -16.5t30.5 -54.5q0 -40 -39 -65t-78 -25zM396 761q-25 0 -44.5 -16.5t-19.5 -37.5q0 -22 14 -37.5t45 -15.5q22 0 41 17
t19 44q0 20 -16.5 33t-38.5 13z" />
    <glyph glyph-name="uring" unicode="&#x16f;" horiz-adv-x="569" 
d="M322 405q13 3 40 9.5t48.5 11t32.5 4.5h8t5.5 -1t4.5 -1.5t3 -2t1.5 -2.5t0.5 -4v-4.5v-5.5v-7q0 -39 -5 -142t-4 -154q1 -42 12 -56t39 -10q40 11 42 -4q2 -10 -15 -17q-98 -29 -119 -29q-13 0 -20 5t-8 11t-2 19q-1 10 -1 72q0 16 -13 7l-7 -8q-21 -31 -37 -50t-51 -39
t-77 -20q-115 0 -115 136q0 30 2.5 102t0.5 129q-1 17 -20 28.5t-46 6.5q-30 -9 -30 6q-1 5 3.5 8.5t11.5 3.5q10 1 41 7t57.5 11t34.5 5t11.5 -0.5t7 -5.5t3.5 -15q1 -10 -2 -127t-3 -136q0 -107 71 -107q37 0 76.5 31t59.5 76q26 53 27 110q3 73 0 103q-1 23 -20.5 27.5
t-38.5 -0.5q-20 -2 -23 4q-5 10 13 15zM264 490q-106 0 -106 73q0 43 39.5 65.5t81.5 22.5t71.5 -16.5t30.5 -54.5q0 -40 -39 -65t-78 -25zM273 625q-25 0 -44.5 -16.5t-19.5 -37.5q0 -22 14 -37.5t45 -15.5q22 0 41 17t19 44q0 20 -16.5 33t-38.5 13z" />
    <glyph glyph-name="Uhungarumlaut" unicode="&#x170;" horiz-adv-x="766" 
d="M259 641q-2 0 -2.5 2t1.5 6.5t7 10.5q4 5 50 66q16 23 36 29q26 8 63 8q9 -1 8 -9.5t-7 -12.5q-43 -27 -133 -95q-15 -10 -23 -5zM421 641q-2 0 -2.5 2t1.5 6.5t7 10.5t15 19.5t20.5 28t13.5 18.5q11 15 17.5 20t19.5 9q25 8 63 8q9 -1 8 -9.5t-7 -12.5q-37 -23 -133 -95
q-1 -1 -5.5 -3.5t-6 -3t-5 -0.5t-6.5 2zM36 574q-17 0 -17 11q-1 6 6 9.5t18 3.5q143 -12 225 0q21 2 23 -2q2 -2 2 -6q1 -4 -4 -9t-13 -7q-83 -27 -83 -87q-3 -169 0 -280q2 -83 30 -127.5t96 -44.5q57 0 105 25.5t76.5 64.5t45 80t18.5 77q4 63 4 225q-2 23 -24.5 42
t-63.5 22q-8 1 -16.5 6t-6.5 12q5 11 41 7q19 -2 93.5 -2t97.5 2q31 3 31 -8q0 -12 -18 -17q-34 -11 -45 -29t-11 -63q0 -4 -2.5 -94.5t-2.5 -149.5t4 -110q9 -50 23.5 -65.5t61.5 -30.5q16 -6 16 -16q0 -11 -20 -13q-27 -3 -97 -3q-62 0 -64 108q0 19 -2 33q0 6 -3.5 7
t-6.5 -0.5t-5 -3.5q-26 -33 -46.5 -54.5t-54 -48t-76 -40t-92.5 -13.5q-76 0 -123 46t-47 129q0 18 10 318q1 53 -19.5 73t-63.5 23z" />
    <glyph glyph-name="uhungarumlaut" unicode="&#x171;" horiz-adv-x="569" 
d="M322 405q13 3 40 9.5t48.5 11t32.5 4.5h8t5.5 -1t4.5 -1.5t3 -2t1.5 -2.5t0.5 -4v-4.5v-5.5v-7q0 -39 -5 -142t-4 -154q1 -42 12 -56t39 -10q40 11 42 -4q2 -10 -15 -17q-98 -29 -119 -29q-13 0 -20 5t-8 11t-2 19q-1 10 -1 72q0 16 -13 7l-7 -8q-21 -31 -37 -50t-51 -39
t-77 -20q-115 0 -115 136q0 30 2.5 102t0.5 129q-1 17 -20 28.5t-46 6.5q-30 -9 -30 6q-1 5 3.5 8.5t11.5 3.5q10 1 41 7t57.5 11t34.5 5t11.5 -0.5t7 -5.5t3.5 -15q1 -10 -2 -127t-3 -136q0 -107 71 -107q37 0 76.5 31t59.5 76q26 53 27 110q3 73 0 103q-1 23 -20.5 27.5
t-38.5 -0.5q-20 -2 -23 4q-5 10 13 15zM257 678q26 0 12 -32q-6 -12 -19.5 -40t-22 -47.5t-16.5 -42.5q-7 -28 -21 -28q-11 0 -5 28q7 40 9 125q0 13 5 19.5t8.5 8t14.5 4.5q22 5 35 5zM410 678q26 0 12 -32q-6 -12 -19.5 -40t-22 -47.5t-16.5 -42.5q-7 -28 -22 -28
q-8 0 -4 28q8 53 8 125q0 13 5 19.5t8.5 8t14.5 4.5q23 5 36 5z" />
    <glyph glyph-name="Uogonek" unicode="&#x172;" horiz-adv-x="766" 
d="M727 -140q6 -11 -17 -25q-28 -16 -68 -16q-42 0 -64 24t-22 63q0 42 26 85q9 12 9 13.5t-7 14.5q-19 28 -19 86q0 19 -2 33q0 6 -3.5 7t-6.5 -0.5t-5 -3.5q-26 -33 -46.5 -54.5t-54 -48t-76 -40t-92.5 -13.5q-76 0 -123 46t-47 129q0 18 10 318q1 53 -19.5 73t-63.5 23
q-17 0 -17 11q-1 6 6 9.5t18 3.5q143 -12 225 0q21 2 23 -2q2 -2 2 -6q1 -4 -4 -9t-13 -7q-83 -27 -83 -87q-3 -169 0 -280q2 -83 30 -127.5t96 -44.5q57 0 105 25.5t76.5 64.5t45 80t18.5 77q4 63 4 225q-2 23 -24.5 42t-63.5 22q-8 1 -16.5 6t-6.5 12q5 11 41 7
q19 -2 93.5 -2t97.5 2q31 3 31 -8q0 -12 -18 -17q-34 -11 -45 -29t-11 -63q0 -4 -2.5 -94.5t-2.5 -149.5t4 -110q9 -50 23.5 -65.5t61.5 -30.5q16 -6 16 -16q0 -11 -20 -13q-24 -3 -83 -3q-23 0 -28 -20q-13 -45 14 -81q13 -18 35.5 -27.5t37.5 -4.5q17 9 25 -4z" />
    <glyph glyph-name="uogonek" unicode="&#x173;" horiz-adv-x="569" 
d="M503 -136q6 -12 -17 -26q-31 -16 -62 -16q-42 0 -66 25.5t-24 64.5q0 45 45 83q7 6 7 30q-1 30 -1 72q0 16 -13 7l-7 -8q-21 -31 -37 -50t-51 -39t-77 -20q-115 0 -115 136q0 30 2.5 102t0.5 129q-1 17 -20 28.5t-46 6.5q-30 -9 -30 6q-1 5 3.5 8.5t11.5 3.5q10 1 41 7
t57.5 11t34.5 5t11.5 -0.5t7 -5.5t3.5 -15q1 -10 -2 -127t-3 -136q0 -107 71 -107q37 0 76.5 31t59.5 76q26 53 27 110q3 73 0 103q-1 23 -20.5 27.5t-38.5 -0.5q-20 -2 -23 4q-5 10 13 15q13 3 40 9.5t48.5 11t32.5 4.5h8t5.5 -1t4.5 -1.5t3 -2t1.5 -2.5t0.5 -4v-4.5v-5.5
v-7q0 -39 -5 -142t-4 -154q1 -42 12 -56t39 -10q40 11 42 -4q2 -10 -15 -17q-63 -20 -99 -27q-28 -6 -38.5 -34.5t9.5 -58.5q14 -18 35.5 -27.5t35.5 -3.5q19 6 25 -4z" />
    </font>
</defs>
</svg>
