<?xml version="1.0" standalone="no"?>
<!DOCTYPE svg PUBLIC "-//W3C//DTD SVG 1.1//EN" "http://www.w3.org/Graphics/SVG/1.1/DTD/svg11.dtd" >
<svg xmlns="http://www.w3.org/2000/svg" xmlns:xlink="http://www.w3.org/1999/xlink" version="1.1">
<metadata>
Created by FontForge 20170731 at Thu Mar  7 20:19:13 2013
 By Aleksey,,,
Copyright (c) 2008 by Nathanael Bonnell. All rights reserved.
</metadata>
<defs>
<font id="NewtSerifLight-Italic" horiz-adv-x="477" >
  <font-face 
    font-family="Newt Serif Light"
    font-weight="400"
    font-style="italic"
    font-stretch="normal"
    units-per-em="1000"
    panose-1="2 0 5 3 4 0 0 9 0 4"
    ascent="705"
    descent="-295"
    x-height="426"
    cap-height="604.5"
    bbox="-241.071 -283 975 823.5"
    underline-thickness="35"
    underline-position="-186"
    slope="-13"
    unicode-range="U+0020-FB02"
  />
<missing-glyph horiz-adv-x="582" 
d="M478 293q0 -102 18.5 -177t40.5 -97q9 -10 4 -18t-20 -4l-35 8q-63 14 -162 14q-48 0 -89 -4t-63 -8t-38.5 -7.5t-23 -3t-9.5 6.5q-2 5 3.5 13.5t14.5 27.5t18.5 47t16.5 82.5t7 124.5q0 195 -43 259l-17 25q-7 9 -3 17t21 5q79 -23 201 -23q56 0 108.5 6.5t77 12
t25.5 4.5t4 -3.5t3 -4v-6t-4 -12t-11 -18.5q-21 -31 -33 -114.5t-12 -152.5zM190 418q0 -31 18 -47t37 -16q14 0 32 4.5t30 12t9 14.5q-6 7 -22 0q-24 -4 -40 9t-16 35q0 26 19.5 46.5t56.5 20.5q40 0 60 -23t20 -50q0 -29 -13 -51.5t-43 -50.5q-18 -17 -25.5 -25.5
t-18.5 -32.5t-11 -52q0 -18 10 -18q12 0 13.5 14.5t9 41t29.5 47.5q11 11 47 38q72 56 57 117q-16 68 -124 68q-51 0 -93 -30.5t-42 -71.5zM258 95q0 -31 37 -31q13 0 28 9t15 29q0 12 -10.5 19t-25.5 7q-17 0 -30.5 -9.5t-13.5 -23.5z" />
    <glyph glyph-name=".notdef" horiz-adv-x="582" 
d="M478 293q0 -102 18.5 -177t40.5 -97q9 -10 4 -18t-20 -4l-35 8q-63 14 -162 14q-48 0 -89 -4t-63 -8t-38.5 -7.5t-23 -3t-9.5 6.5q-2 5 3.5 13.5t14.5 27.5t18.5 47t16.5 82.5t7 124.5q0 195 -43 259l-17 25q-7 9 -3 17t21 5q79 -23 201 -23q56 0 108.5 6.5t77 12
t25.5 4.5t4 -3.5t3 -4v-6t-4 -12t-11 -18.5q-21 -31 -33 -114.5t-12 -152.5zM190 418q0 -31 18 -47t37 -16q14 0 32 4.5t30 12t9 14.5q-6 7 -22 0q-24 -4 -40 9t-16 35q0 26 19.5 46.5t56.5 20.5q40 0 60 -23t20 -50q0 -29 -13 -51.5t-43 -50.5q-18 -17 -25.5 -25.5
t-18.5 -32.5t-11 -52q0 -18 10 -18q12 0 13.5 14.5t9 41t29.5 47.5q11 11 47 38q72 56 57 117q-16 68 -124 68q-51 0 -93 -30.5t-42 -71.5zM258 95q0 -31 37 -31q13 0 28 9t15 29q0 12 -10.5 19t-25.5 7q-17 0 -30.5 -9.5t-13.5 -23.5z" />
    <glyph glyph-name=".null" horiz-adv-x="0" 
 />
    <glyph glyph-name="nonmarkingreturn" horiz-adv-x="333" 
 />
    <glyph glyph-name="space" unicode=" " horiz-adv-x="232" 
 />
    <glyph glyph-name="exclam" unicode="!" horiz-adv-x="257" 
d="M114 188l86 367q9 27 16 36q9 11 22.5 17t20.5 2q12 -7 -9 -37q-10 -15 -13 -25q-28 -95 -85 -353q-6 -30 -26 -34q-10 -3 -13 4t1 23zM101 65q16 1 28 -6.5t12 -20.5q0 -37 -43 -44q-20 -2 -31 7.5t-11 23.5q0 17 14 27.5t31 12.5z" />
    <glyph glyph-name="quotedbl" unicode="&#x22;" horiz-adv-x="291" 
d="M80 398q0 2 42 157q6 23 16 36q9 11 22.5 17t20.5 2q12 -7 -9 -37q-10 -14 -14 -25q-26 -92 -39 -142q-4 -16 -9.5 -24t-16.5 -11q-10 -2 -13.5 4.5t0.5 22.5zM215 398q0 1 42 157q6 25 16 36q9 11 22.5 17t20.5 2q11 -7 -10 -37q-10 -15 -13 -25q-34 -118 -40 -142
q-4 -16 -9.5 -24t-16.5 -11q-19 -5 -12 27z" />
    <glyph glyph-name="numbersign" unicode="#" horiz-adv-x="462" 
d="M75 407q11 16 44 16h37q4 0 6.5 1t4 3t2 4t1.5 6.5t2 6.5q6 24 14.5 62.5t11.5 49.5q5 22 25 26q4 1 6.5 -0.5t5 -6.5t-0.5 -17q-7 -22 -27 -109q0 -2 -1.5 -7t-1.5 -6v-4t1 -3.5t2.5 -1.5t4.5 -1h8q11 0 48.5 0.5t54.5 1.5q10 1 13 4.5t7 17.5q5 22 12.5 58.5t10.5 47.5
q3 13 8 18.5t17 7.5q4 1 7 -0.5t5 -6.5t-1 -17q0 -3 -26 -107q0 -2 -1 -5q-3 -15 3 -16q3 -1 8 -1q21 2 32 8q7 4 16 5.5t16 -1.5t5 -12q-1 -6 -11 -15t-23 -15q-13 -7 -39 -7q-13 0 -16.5 -3t-8.5 -17l-37 -173q-4 -11 -2.5 -13t12.5 -2t29 5q31 12 37 7q3 -4 4 -11
q1 -5 -10 -14.5t-24 -15.5q-12 -7 -39 -7q-13 0 -18 -5t-8 -21q-3 -13 -6.5 -28t-5.5 -24t-4 -16q-8 -37 -19 -46q-16 -12 -37 -16q-12 -4 -14 10q0 11 10 21q23 22 31 68q1 4 2.5 11t3 15t2.5 16q2 8 0.5 11t-13.5 3q-26 -1 -95 -1q-12 -1 -16 -4t-6 -16q-10 -49 -17 -72
q-9 -39 -19 -47q-19 -14 -37 -17q-5 -1 -9.5 3t-3.5 11.5t8 15.5q18 18 32 71q5 15 8 37q4 18 -9 18h-47q-16 -1 -20.5 3.5t0.5 13.5q10 17 45 17h23q18 0 23 17q8 27 21.5 87.5t21.5 90.5q1 4 -0.5 9t-8.5 6q-22 1 -52 0q-16 -1 -20.5 2t2.5 15zM189 375l-42 -180
q-2 -11 0 -12.5t13 -1.5q43 0 101 2q12 1 15.5 3.5t5.5 14.5q6 25 19 83t21 88q2 9 2 12.5t-2.5 5t-9.5 1.5q-71 0 -102 -1q-17 0 -21 -15z" />
    <glyph glyph-name="dollar" unicode="$" horiz-adv-x="365" 
d="M184 53q-10 -40 -11 -42q0 -7 -12 -12q-3 -1 -4 -2q-9 -4 -11 -4.5t-6 1.5t0 13q0 6 2 14.5t4.5 19t3.5 15.5q1 8 -4.5 12t-17.5 4q-37 1 -64.5 20.5t-26.5 54.5q2 26 24 50.5t48 35.5q18 8 23 1q5 -6 2 -15.5t-12 -13.5q-42 -24 -43 -51q-1 -26 20 -38t64 -12
q69 0 102.5 28t35.5 64q1 32 -23.5 59t-68.5 56q-33 22 -49.5 35t-33 35.5t-15.5 45.5q1 30 32.5 58.5t71.5 40.5q16 4 18 17q2 8 5.5 25.5l4.5 22.5q2 7 16 12q13 4 16.5 1.5t1.5 -11.5l-8 -48q-1 -10 3 -12t12 -2h2q32 -2 54.5 -15.5t21.5 -39.5q0 -14 -12.5 -32.5
t-27.5 -26.5q-19 -15 -31 -5q-9 12 9 23q16 12 21.5 18.5t4.5 17.5q-2 28 -76 28q-38 0 -68 -23t-30 -48q0 -5 1 -9.5t2.5 -8.5t5 -9t6 -8t8.5 -8t9 -8t11 -9t11.5 -8.5t13.5 -9.5t14 -10q52 -36 79.5 -67t27.5 -66q0 -45 -40 -87t-102 -48q-11 -1 -15 -19z" />
    <glyph glyph-name="percent" unicode="%" horiz-adv-x="717" 
d="M138 248q-31 0 -49 31t-17 76q0 87 61 175t129 88q25 0 39.5 -20.5t17.5 -39.5t3 -39q-3 -93 -61.5 -182t-122.5 -89zM253 584q-44 0 -93.5 -73t-50.5 -152q-1 -41 11 -58.5t29 -17.5q41 0 88.5 76t47.5 159q0 34 -6.5 50t-25.5 16zM124 -33q-13 6 -8.5 16.5t33.5 48.5
q271 356 342 459q28 42 42 91q1 3 3 10.5t3.5 10.5t5.5 5.5t11 0.5q22 -4 1 -71q-10 -32 -35 -64q-35 -46 -166 -221.5t-180 -243.5q-33 -44 -52 -42zM497 -13q-31 0 -49.5 31t-17.5 76q1 87 62 175t128 88q25 0 39.5 -20.5t17.5 -39.5t3 -39q-2 -93 -61 -182t-122 -89z
M611 323q-43 0 -92.5 -73t-51.5 -152q-1 -41 11.5 -58.5t29.5 -17.5q41 0 88 76t48 159q0 35 -7 50.5t-26 15.5z" />
    <glyph glyph-name="ampersand" unicode="&#x26;" horiz-adv-x="472" 
d="M347 612q47 0 75 -17t27 -50q0 -33 -42 -63q-28 -20 -36 -11q-6 4 -4.5 14t8.5 13q15 8 24.5 21.5t9.5 22.5q0 38 -74 38q-57 0 -107.5 -33.5t-51.5 -75.5q-1 -22 13 -38t37 -23.5t45 -10.5t44 -3q21 0 31.5 -3t7.5 -11q-4 -10 -9.5 -13t-27.5 -5q-37 -5 -76 -19
t-77.5 -38t-64.5 -64.5t-28 -90.5q-3 -62 43.5 -95.5t114.5 -33.5q24 0 43 4q12 3 2 13q-45 45 -45 107q0 69 44 111.5t103 42.5q50 0 76 -31.5t24 -86.5q-4 -80 -84 -135.5t-165 -55.5q-105 0 -151 45.5t-43 113.5q1 47 20.5 86.5t49 64.5t54 39t46.5 22q18 6 23 9t0.5 5
t-21.5 5q-27 6 -48 30.5t-20 54.5q5 66 67.5 105.5t142.5 39.5zM436 183q2 41 -18 61t-47 20q-48 0 -76.5 -36t-28.5 -81q0 -52 47 -91q13 -8 26 0q41 19 68 55t29 72z" />
    <glyph glyph-name="quotesingle" unicode="'" horiz-adv-x="157" 
d="M80 398q0 2 42 157q6 23 16 36q9 11 22.5 17t20.5 2q12 -7 -9 -37q-10 -14 -14 -25q-26 -92 -39 -142q-4 -16 -9.5 -24t-16.5 -11q-10 -2 -13.5 4.5t0.5 22.5z" />
    <glyph glyph-name="parenleft" unicode="(" horiz-adv-x="274" 
d="M312 614q5 -10 -26 -41q-61 -61 -106 -128t-75 -164q-24 -86 -10 -167.5t59 -139.5q14 -21 -1 -34q-9 -6 -32 20q-47 56 -61.5 151t13.5 183q32 94 87.5 177t108.5 128q33 31 43 15z" />
    <glyph glyph-name="parenright" unicode=")" horiz-adv-x="274" 
d="M-9 -55q-5 10 26 41q61 61 106 128t75 164q24 86 10 167.5t-59 139.5q-15 21 1 34q9 6 32 -20q47 -56 61.5 -151t-13.5 -183q-32 -94 -87.5 -178t-108.5 -127q-31 -33 -43 -15z" />
    <glyph glyph-name="asterisk" unicode="*" horiz-adv-x="403" 
d="M295 593q7 19 9.5 25t8.5 16t13 13.5t18 5.5q30 6 32 -12q2 -11 -8 -17q-12 -7 -18 -12t-12.5 -15.5t-12.5 -28.5q-3 -7 -5.5 -12.5t-3.5 -7.5t-2.5 -6t-3.5 -11q-3 -14 -0.5 -18t9.5 -3q54 7 87 7h11.5h9.5h7t6.5 -0.5t5 -2t5 -3l4 -4t4.5 -5.5t4 -7q19 -37 -2 -42
q-11 -2 -19 7q-7 8 -10.5 10.5t-12 4t-28.5 2.5t-58 -3q-25 -4 -11 -21q24 -32 36 -64q11 -31 11 -42.5t-15 -26.5q-19 -21 -38 -17q-14 5 -4 24q10 17 10.5 26t-6.5 29q-5 21 -31 58q-6 8 -9 10.5t-6.5 1.5t-10.5 -7q-27 -24 -71 -54q-3 -2 -10.5 -7.5t-9.5 -6.5t-7 -4
t-7 -3t-6 -1t-7.5 0.5t-7.5 2.5t-10 4q-26 12 -26 27q0 13 23 13q4 0 12 -0.5t11 0t11.5 3.5t21.5 10q29 17 60 44q14 14 -5 25l-18 9t-18 9.5t-13.5 9t-13.5 11.5t-14 13.5t-10 10t-7 9.5t-3.5 11t0.5 15q2 27 17 33q13 5 20 -18q1 -3 3.5 -9.5t4 -10t4.5 -9.5t9 -11.5
t14 -12.5q10 -7 23.5 -16t20.5 -14q6 -5 9.5 -7t7 -2.5t5.5 2t3 8.5z" />
    <glyph glyph-name="plus" unicode="+" horiz-adv-x="444" 
d="M76 263q-16 0 -21 4.5t1 14.5q10 16 43 16l112 3q12 0 16 3.5t7 15.5q3 16 11.5 50t12.5 52q8 32 26 40q10 4 13 -2t-1 -21q-2 -8 -10.5 -47t-14.5 -67q-2 -15 0 -19t13 -4q77 -2 101 10q17 11 31 8t11 -18q-5 -14 -34 -29q-13 -7 -39 -7q-7 0 -18 -0.5t-28.5 -1
t-30.5 -0.5q-13 -1 -16.5 -4t-5.5 -16q-17 -78 -18 -83q-5 -25 -16 -38q-8 -12 -21.5 -21t-19.5 -7q-5 1 -6 6.5t1.5 13t6 15.5t7.5 18t6 17q11 38 20 82q3 12 1 14.5t-14 2.5q-54 -1 -126 -1z" />
    <glyph glyph-name="comma" unicode="," horiz-adv-x="235" 
d="M26 3q-9 7 -2 17q61 74 95 74q44 0 44 -52q0 -47 -36.5 -106t-78.5 -101q-18 -18 -29 -10q-10 9 2 25q105 121 105 185q0 21 -13 21q-19 0 -53 -42q-10 -10 -20.5 -13t-13.5 2z" />
    <glyph glyph-name="hyphen" unicode="-" horiz-adv-x="298" 
d="M226 304q16 15 27.5 6t-1.5 -33q-7 -13 -18.5 -19t-21 -7t-33.5 -2q-56 -2 -115 -2q-15 0 -20.5 4.5t-1.5 14.5q8 18 35 18h29.5h27h21.5t19.5 1t15.5 2.5t14.5 3.5t11 5.5t10.5 7.5z" />
    <glyph glyph-name="period" unicode="." horiz-adv-x="213" 
d="M94 65q16 1 28.5 -6.5t12.5 -20.5q0 -36 -43 -44q-21 -2 -31.5 7.5t-10.5 23.5q0 17 13.5 27.5t30.5 12.5z" />
    <glyph glyph-name="slash" unicode="/" horiz-adv-x="370" 
d="M-8 -33q-8 2 -10.5 5.5t2 12t11.5 18.5t22 29q271 356 342 459q28 42 42 91q1 3 3 10.5t3.5 10.5t5.5 5.5t11 0.5q22 -4 1 -71q-10 -32 -35 -64q-35 -46 -166 -221.5t-180 -243.5q-33 -44 -52 -42z" />
    <glyph glyph-name="zero" unicode="0" horiz-adv-x="522" 
d="M370 615q82 0 114 -57t29 -159q-5 -170 -92 -291.5t-193 -121.5q-155 0 -151 234q5 157 93.5 276t199.5 119zM362 579q-60 0 -117 -55t-91.5 -137.5t-36.5 -164.5q-3 -107 31.5 -155t91.5 -48q28 0 65.5 25.5t74.5 71t63.5 121t29.5 162.5q5 180 -111 180z" />
    <glyph glyph-name="one" unicode="1" horiz-adv-x="351" 
d="M98 410q20 19 84.5 75t86.5 76q6 5 17 16.5t14 13.5l10.5 7t14.5 7t18 4q14 2 13 -12q0 -11 -10 -37q-58 -153 -139 -446q-18 -55 -3 -67.5t117 -16.5q27 -1 21 -18q-3 -9 -19.5 -11.5t-27.5 -0.5q-42 5 -138.5 4.5t-139.5 -6.5q-21 -2 -27.5 1.5t-4.5 12.5q2 10 11 14
t34 5q44 3 63 5.5t34.5 11.5t20.5 19.5t14 35.5q6 21 55.5 184t69.5 224q5 13 1.5 16t-14.5 -6q-64 -53 -155 -139q-9 -8 -19 -9t-12 5q-9 13 10 32z" />
    <glyph glyph-name="two" unicode="2" horiz-adv-x="537" 
d="M246 670q6 0 7 -9t-6 -17q-18 -18 -16.5 -39t31.5 -21q32 0 94 15q10 4 37 9t39 5q41 0 63.5 -20t22.5 -58q0 -32 -10 -60.5t-37.5 -63.5t-44 -53t-62.5 -64q-138 -138 -199 -185q-30 -24 -12 -24q4 0 12 1q13 2 46 2q67 0 111 -41q21 -18 40 -18q28 0 65 40t38 79
q0 29 15 30q8 0 12 -5t5 -11t1 -16q0 -45 -43.5 -99.5t-99.5 -54.5q-32 0 -51 16q-45 44 -103 44q-111 0 -156 -38q-32 -30 -49 -12q-10 10 -5 20t21 18q35 18 117 83q48 37 210 194q67 67 102 118.5t35 99.5q0 19 -13.5 29.5t-33.5 10.5q-32 0 -77 -14q-50 -15 -99 -15
q-28 0 -45 14t-17 37q0 27 22 51q27 31 33 22z" />
    <glyph glyph-name="three" unicode="3" 
d="M157 -8q-58 0 -95.5 18.5t-37.5 51.5q0 32 25 60t58 41q18 9 26 -2q9 -12 -5 -21q-61 -39 -61 -68q0 -46 96 -46q105 0 172 58.5t67 130.5q0 55 -33.5 75.5t-92.5 18.5q-80 -2 -80 16q-1 6 4 14q6 9 16.5 14t28 10t28.5 10q63 29 109 70.5t46 77.5q0 29 -18 42.5
t-37 13.5q-35 0 -71 -15q-47 -19 -95 -19q-53 0 -53 49q0 28 23 55q8 10 11.5 13.5t11.5 7t14 -2.5q3 -2 4.5 -5t0.5 -6t-2 -5t-3.5 -6t-3.5 -5q-12 -15 -14.5 -28.5t2 -20.5t12.5 -7q36 0 96 20q40 12 74 12q35 0 55.5 -16.5t25.5 -34.5t5 -39q0 -45 -43.5 -90t-92.5 -68
q-41 -19 -42 -22q-1 -2 6 -2q2 0 10 1h18q53 0 87 -30.5t34 -90.5q0 -93 -86 -161.5t-200 -68.5z" />
    <glyph glyph-name="four" unicode="4" horiz-adv-x="537" 
d="M386 216q-1 -6 6 -7.5t32 -1.5q7 0 13 1.5l10 2.5t9 5.5t7 7t6.5 10t6.5 11t7.5 14.5t7.5 16q6 11 15 13t14.5 -4t3.5 -14q-17 -47 -54 -86q-13 -14 -31 -14q-8 0 -22 1.5t-17 1.5q-19 0 -22.5 -2.5t-6.5 -15.5q-2 -8 -6.5 -31t-8.5 -42.5t-6 -30.5q-6 -35 -41 -70
q-27 -27 -47 -12q-18 12 7 35q31 27 40 56q17 62 23 97q2 12 -1.5 16.5t-16.5 6.5q-30 6 -88 6q-68 0 -140 -17q-34 -7 -40 14q-2 8 0.5 22t11.5 23q16 16 161 158t197 198q11 13 40 22q11 3 13 -13q4 -25 -9 -61q-9 -27 -39 -149.5t-35 -166.5zM419 512q5 20 1 21.5
t-21 -15.5q-53 -49 -160.5 -156.5l-129.5 -129.5q-21 -22 -11 -23q5 0 16 3q38 12 115 12q59 0 87 -7q12 -4 19 -1.5t10 15.5q44 150 74 281z" />
    <glyph glyph-name="five" unicode="5" horiz-adv-x="471" 
d="M461 645q11 -4 0 -40q-4 -20 -11 -31q-15 -23 -36 -28.5t-61 -5.5q-19 0 -57 10.5t-48 11.5q-15 3 -24 1.5t-14 -11.5q-4 -6 -51 -113q-12 -28 21 -32q35 -3 61 -7t60.5 -11t58.5 -18.5t46.5 -27.5t34 -40.5t11.5 -54.5q0 -97 -78.5 -178.5t-203.5 -81.5q-67 0 -103.5 19
t-36.5 55q0 53 71 92q31 18 41 8q8 -7 4.5 -18.5t-19.5 -18.5q-27 -11 -42 -27.5t-15 -28.5q0 -47 111 -47q97 0 165.5 67.5t68.5 149.5q0 40 -28 68t-83 41t-87 17t-87 8q-9 1 -13 1q-13 1 -16.5 10t5.5 23q14 23 43.5 88.5t38.5 83.5q10 20 17 24q8 3 28 3t60.5 -12.5
t61.5 -12.5h23t19 2.5t18.5 7.5t13 15t11.5 25q7 16 21 14z" />
    <glyph glyph-name="six" unicode="6" horiz-adv-x="480" 
d="M434 635q8 -10 -2 -21.5t-45 -33.5q-38 -25 -65 -44t-74 -60t-76.5 -79.5t-53.5 -93t-25 -109.5q-2 -75 33.5 -123t98.5 -48q83 0 151 69.5t69 165.5q1 48 -21.5 80t-62.5 32q-12 0 -23.5 -2.5t-24 -8t-19.5 -9t-20.5 -11.5t-15.5 -9q-10 -6 -23.5 -9t-17.5 2
q-5 8 0.5 15t20.5 19q2 1 3 2q79 49 129 49q46 0 79.5 -36t32.5 -109q-3 -119 -82 -197.5t-181 -78.5q-76 0 -121.5 55.5t-44.5 149.5q1 66 30.5 130.5t78.5 117.5t96.5 92t100.5 72q68 38 75 31z" />
    <glyph glyph-name="seven" unicode="7" horiz-adv-x="446" 
d="M159 -7q-27 1 -41 17.5t-14 44.5q0 16 8.5 40.5t24.5 54.5t33.5 60t43 67t45.5 65t47.5 64t42 55.5t36 47.5t24.5 31q14 17 7 18l-29 -4q-65 -14 -118 -14q-154 0 -154 58q0 23 20 54q14 23 27 18t4 -27q-9 -18 -9 -29q0 -13 10 -21t30.5 -11t34 -3.5t37.5 -0.5
q64 0 192 26q18 4 26.5 0.5t8 -11.5t-9.5 -16q-67 -71 -205 -263t-138 -255q0 -30 35 -30q21 0 42 16q8 8 18 9t13 -3q14 -12 -2 -27q-38 -31 -90 -31z" />
    <glyph glyph-name="eight" unicode="8" horiz-adv-x="499" 
d="M218 -12q-75 0 -122 32.5t-47 96.5q0 68 52 122t104 78q18 8 23 12.5t1 10t-22 14.5q-66 36 -66 86q0 68 70.5 118.5t157.5 50.5q59 0 98.5 -29t39.5 -84q0 -96 -121 -164q-10 -5 -14.5 -7.5t-7.5 -6t-0.5 -7t10.5 -7.5q47 -24 71.5 -52.5t24.5 -71.5q0 -82 -71 -137
t-181 -55zM223 21q84 0 144.5 43t60.5 109q0 44 -35 73.5t-102 57.5q-21 9 -43 -2q-64 -29 -111 -76t-47 -104q0 -39 31.5 -70t101.5 -31zM363 355q106 66 106 137q0 41 -35 62t-75 21q-67 0 -121.5 -41.5t-54.5 -84.5q0 -19 8.5 -33.5t30 -29t34 -21t45.5 -21.5
q21 -8 30.5 -5.5t31.5 16.5z" />
    <glyph glyph-name="nine" unicode="9" horiz-adv-x="480" 
d="M109 -33q-8 10 2 21.5t45 33.5q38 25 65 44t74 60t76.5 79.5t53.5 93t25 109.5q2 75 -31.5 123t-96.5 48q-94 0 -156 -70t-63 -150q-1 -48 21 -78.5t63 -30.5q37 0 103 37q10 6 23.5 9t17.5 -2q5 -8 -0.5 -15t-20.5 -19q-2 -1 -3 -2q-74 -46 -129 -46q-46 0 -79.5 36
t-32.5 109q3 111 84.5 184.5t177.5 73.5q76 0 120 -55.5t42 -149.5q-1 -66 -30.5 -130.5t-78.5 -117.5t-96.5 -92t-100.5 -72q-68 -38 -75 -31z" />
    <glyph glyph-name="colon" unicode=":" horiz-adv-x="234" 
d="M147 354q16 1 28.5 -6.5t12.5 -20.5q0 -39 -43 -44q-21 -3 -31.5 6.5t-10.5 24.5q0 17 13.5 27.5t30.5 12.5zM93 62q15 2 27.5 -5.5t12.5 -21.5q0 -38 -43 -43q-20 -3 -31 7t-11 24q0 16 14 27t31 12z" />
    <glyph glyph-name="semicolon" unicode=";" horiz-adv-x="237" 
d="M26 2q-9 7 -2 17q61 74 95 74q44 0 44 -52q0 -46 -36 -104.5t-79 -102.5q-18 -18 -29 -10q-10 9 2 25q105 123 105 185q0 22 -13 22q-19 0 -53 -43q-10 -10 -20.5 -13t-13.5 2zM148 354q16 1 28.5 -6.5t12.5 -20.5q0 -39 -43 -44q-21 -3 -31.5 6.5t-10.5 24.5
q0 17 13.5 27.5t30.5 12.5z" />
    <glyph glyph-name="less" unicode="&#x3c;" horiz-adv-x="354" 
d="M65 250q27 14 110 51t100 46q7 3 22 15.5t21 20.5q4 5 10 8t10.5 1t4.5 -9q1 -16 -15 -36q-12 -17 -46 -33q-17 -8 -92 -41.5t-100 -46.5q-13 -9 -5 -17q5 -5 169 -108q9 -5 9 -15.5t-5 -13.5q-13 -10 -31 3q-14 10 -86 58t-105 68q-9 5 -1 19q9 20 30 30z" />
    <glyph glyph-name="equal" unicode="=" 
d="M101 289q-17 0 -22 3.5t-1 12.5q9 15 42 15q147 -2 252 1q21 0 31 6q10 4 17.5 6.5t13.5 3.5t9 -1t3 -7q0 -6 -8.5 -15t-19.5 -15q-17 -10 -38 -10q-43 -1 -143 -0.5t-136 0.5zM64 120q-16 0 -21.5 3.5t-1.5 12.5q9 16 41 16q145 -2 253 0q19 0 31 6q44 21 43 3
q0 -15 -29 -31q-18 -10 -37 -10h-88.5h-110h-80.5z" />
    <glyph glyph-name="greater" unicode="&#x3e;" horiz-adv-x="354" 
d="M294 211q-27 -14 -110 -50.5t-101 -46.5q-25 -14 -43 -36q-4 -5 -10 -8t-10.5 -1t-4.5 9q-1 16 15 36q14 19 47 33q8 4 87.5 39.5t104.5 49.5q13 6 5 17q-13 12 -170 107q-8 6 -8.5 16.5t4.5 12.5q15 10 31 -3q154 -103 191 -126q8 -4 2 -18q-10 -21 -30 -31z" />
    <glyph glyph-name="question" unicode="?" horiz-adv-x="379" 
d="M169 169q-9 0 -12 8t0 16q15 70 61 113q41 39 94 74q50 33 68.5 63t18.5 65q0 28 -26.5 48.5t-88.5 20.5t-110 -38t-48 -73q0 -30 26.5 -38.5t63.5 10.5q21 10 29 -4q3 -6 0 -9.5t-15 -12.5q-32 -21 -68 -21q-30 0 -51 17.5t-21 57.5q0 49 58 96t144 47q84 0 116.5 -29.5
t32.5 -66.5q0 -47 -29 -85t-93 -81q-50 -35 -73 -62q-44 -47 -53 -92q-9 -24 -24 -24zM149 65q16 1 28 -6.5t12 -20.5q0 -37 -43 -44q-20 -2 -31 7.5t-11 23.5q0 17 14 27.5t31 12.5z" />
    <glyph glyph-name="at" unicode="@" horiz-adv-x="738" 
d="M439 -8q-22 0 -32.5 23.5t-8.5 51t5 49.5q4 14 -1 17q-7 3 -16 -10q-14 -18 -57.5 -60.5t-62.5 -56.5q-18 -14 -36 -14q-33 0 -33 77q0 100 66 209.5t137 140.5q8 4 22 4t21 -2q16 -6 37 -17q17 -11 33 8q4 4 26 35q13 20 24 15q10 -3 -2 -24q-81 -143 -121 -313
q-8 -29 -4 -59.5t18 -30.5q4 -5 18 4t21 16q56 47 112.5 150t56.5 191q0 100 -48.5 148.5t-127.5 48.5q-70 0 -141.5 -36t-130.5 -97.5t-96 -153t-37 -192.5q0 -148 71.5 -226t179.5 -78q67 0 135 33.5t104 74.5q19 22 31 10q11 -10 -6 -31q-37 -46 -114.5 -84.5
t-151.5 -38.5q-123 0 -204 85.5t-81 251.5q0 125 58.5 243t163.5 194.5t226 76.5q91 0 148.5 -53t57.5 -165q0 -100 -55.5 -204t-141.5 -182q-33 -29 -63 -29zM277 56q66 54 123 135q48 71 69 145q5 19 -2 30.5t-28 19.5q-14 6 -35 0q-21 -8 -45 -36q-49 -56 -85.5 -130.5
t-36.5 -142.5q0 -24 9 -31t31 10z" />
    <glyph glyph-name="A" unicode="A" horiz-adv-x="648" 
d="M448 601q11 -85 39.5 -268t33.5 -208q2 -7 4.5 -21.5t3.5 -19t3.5 -14t4.5 -12.5t5.5 -9t7 -7.5t9 -5t12.5 -4.5t16 -3q17 -3 17 -19q-2 -15 -29 -12q-21 2 -39 2.5t-28.5 0t-31.5 -2t-36 -2.5q-20 0 -20 10q0 11 14 17q20 6 26.5 8t17 8t13 13.5t1.5 19.5
q-11 88 -17 101q-5 12 -20 15q-19 2 -120 2t-125 -1q-35 0 -47 -14l-78 -105q-14 -19 -8 -25q10 -9 66 -12q13 -1 26 -6t12 -14q-1 -7 -12 -11.5t-23 -2.5q-60 7 -118 1q-15 -2 -26 1.5t-11 10.5q0 8 11 20.5t27 27.5t22 23q209 283 337 473q9 13 13.5 27t7 21.5t7.5 9.5
q13 7 21.5 5t10.5 -18zM466 244q-20 141 -38 245q-8 41 -14.5 39.5t-37.5 -47.5q-15 -22 -73.5 -104.5t-91.5 -130.5q-14 -22 5 -23q33 -2 233 -2q21 0 17 23z" />
    <glyph glyph-name="B" unicode="B" horiz-adv-x="575" 
d="M193 491q15 57 8 69t-55 8q-38 -3 -38 12q0 12 32 18q94 10 167 10q126 0 176 -20q63 -27 64 -87q0 -37 -25.5 -71t-66.5 -54q-10 -4 -13 -9t1.5 -8.5t16.5 -4.5q94 -9 94 -103q-1 -55 -36 -114t-103 -102.5t-149 -43.5q-104 0 -161 43q-23 13 -8 78q15 61 47.5 186.5
t48.5 192.5zM138 113q-11 -44 14 -60q40 -29 124 -29q78 0 157.5 67t79.5 159t-190 77q-17 -2 -26.5 -1t-11 5t0.5 10q6 13 13 16.5t31 4.5q55 4 116 43t61 92q0 86 -214 80q-22 -1 -31 -8.5t-15 -27.5q-68 -240 -109 -428z" />
    <glyph glyph-name="C" unicode="C" horiz-adv-x="545" 
d="M256 -8q-51 0 -90.5 20t-61 52t-32.5 67.5t-11 71.5q0 73 23 139t59.5 114t82.5 83.5t92.5 53.5t88.5 18q130 0 130 -64q0 -25 -17.5 -53t-43.5 -45q-28 -17 -36 -8q-6 6 -3 15.5t12 14.5q23 13 34.5 31.5t11.5 32.5q0 41 -92 41q-50 0 -103 -28t-97 -75.5t-72 -119
t-28 -150.5q0 -74 42.5 -124t119.5 -50q113 0 200 90q27 26 41 17q13 -7 -12 -34q-59 -62 -111 -86t-127 -24z" />
    <glyph glyph-name="D" unicode="D" horiz-adv-x="626" 
d="M98 582q0 15 32 18q85 9 192 9q74 0 120 -5q77 -9 126 -58.5t49 -143.5q0 -157 -110 -282.5t-248 -125.5q-99 0 -155 44q-23 14 -8 78q62 243 92 371q16 55 7 71t-59 12q-38 -5 -38 12zM243 543q-79 -297 -105 -427q-6 -25 -3 -36t20 -24q36 -27 113 -27q50 0 105 28.5
t100.5 76t75 118.5t29.5 148q0 151 -158 172q-62 8 -135 5q-22 0 -29 -6.5t-13 -27.5z" />
    <glyph glyph-name="E" unicode="E" horiz-adv-x="478" 
d="M221 -8q-189 0 -189 149q0 72 58 127.5t127 76.5q21 7 20.5 10t-22.5 9q-29 8 -50 30.5t-21 54.5q1 65 71 113.5t166 48.5q24 0 40 -2t33.5 -8t26.5 -20.5t9 -37.5q0 -36 -46 -75q-26 -19 -40 -10q-4 3 -2 11.5t10 13.5q38 25 38 57q0 37 -75 37q-86 0 -138.5 -41
t-52.5 -81q0 -28 27 -46.5t57.5 -25t60.5 -6.5q27 0 39 2q5 1 9 0t7 -5t-2 -13q-9 -19 -34 -20q-60 -3 -122.5 -28t-107 -71t-44.5 -98t34.5 -84.5t112.5 -32.5q65 0 119 38.5t82 78.5q3 7 13.5 11t19.5 0q11 -6 -5 -31q-36 -57 -103.5 -94.5t-125.5 -37.5z" />
    <glyph glyph-name="F" unicode="F" horiz-adv-x="505" 
d="M114 593q2 18 53 7q36 -3 59 -3q60 0 169 5t113 5q30 0 42 -10t14 -35q2 -22 -9.5 -54t-29.5 -48q-15 -13 -22 -5q-8 11 -1 21q27 40 27 69q-1 9 -2.5 14t-9 9t-20.5 4q-26 0 -106.5 -4.5t-118.5 -5.5q-25 0 -30 -22q-13 -47 -37 -174q-1 -10 -2 -17.5t8 -12.5t30 -5
q9 0 40.5 -0.5t38.5 -0.5q42 0 54 9.5t30 60.5q8 18 27 15q13 0 2 -30q-25 -66 -46 -156q-2 -20 -20 -21q-4 0 -8 6t-2 14q9 38 0.5 51.5t-39.5 16.5q-33 3 -97 3q-18 -2 -24.5 -6.5t-10.5 -18.5q-22 -88 -36 -160q-10 -52 0.5 -64t64.5 -18q14 -2 20 -9.5t2 -15.5
q-6 -14 -48 -7q-59 6 -160 -4q-16 -2 -24 0t-8.5 6t0.5 10q4 17 44 20q34 2 45 13.5t23 57.5q56 225 90 401q7 43 1.5 50t-50.5 14q-18 3 -26 7.5t-9 7.5t-1 10z" />
    <glyph glyph-name="G" unicode="G" horiz-adv-x="593" 
d="M423 609q34 0 63 -5t54.5 -22.5t25.5 -46.5t-15 -56.5t-46 -42.5q-25 -12 -35 0q-5 6 -1 12.5t12 11.5q46 23 46 69q0 21 -31 34.5t-78 13.5q-140 0 -238.5 -98.5t-98.5 -252.5q0 -80 51 -141t140 -61q102 0 171 55t69 115q0 27 -9 45.5t-23 28t-35.5 14.5t-40.5 6t-44 2
h-9q-37 0 -37 20q0 13 37 10q96 -6 220 2q30 3 30 -12q0 -16 -26 -18q-45 -2 -48 -8q-2 -6 13 -23q9 -10 12.5 -33.5t0.5 -38.5q-11 -76 -88.5 -136.5t-199.5 -60.5q-59 0 -104.5 22.5t-69.5 58.5t-36 74t-12 76q0 164 110 275t270 111z" />
    <glyph glyph-name="H" unicode="H" horiz-adv-x="742" 
d="M557 591q3 12 15.5 13.5t38.5 -1.5q60 -7 126 -1q54 4 54 -9q0 -20 -33 -21q-44 -1 -55.5 -10.5t-21.5 -50.5q-53 -200 -94 -397q-11 -55 -1.5 -67t65.5 -17q27 -1 21 -18q-3 -9 -19.5 -11.5t-27.5 -0.5q-91 9 -176 -2q-20 -2 -27 2t-5 13t8 11t27 4q6 1 10 1
q43 4 54 15.5t27 58.5q7 22 43 175q4 17 0.5 21t-15.5 4q-205 4 -356 -1q-15 -1 -19 -4.5t-9 -19.5q-11 -39 -38 -164q-11 -55 -1.5 -67t65.5 -17q27 -1 21 -18q-3 -9 -19 -11.5t-28 -0.5q-91 10 -176 -2q-20 -2 -27 2t-5 13t8 11t27 4q6 1 10 1q43 4 54 15.5t27 58.5
q38 114 95 402q9 46 2.5 55t-47.5 15q-33 4 -35 9q-1 3 0 7q2 12 14.5 13.5t38.5 -1.5q60 -7 127 -1q54 4 54 -9q0 -20 -34 -21q-44 -1 -55 -10.5t-22 -50.5q-24 -89 -38 -148q-6 -16 -5 -20t17 -5q186 -4 365 1q16 1 18.5 3t5.5 17q13 55 32 146q9 46 2.5 55t-47.5 15
q-2 0 -6 1q-29 3 -30 9q-1 3 0 6z" />
    <glyph glyph-name="I" unicode="I" horiz-adv-x="292" 
d="M122 591q2 12 15 13.5t39 -1.5q60 -7 126 -1q54 4 54 -9q0 -20 -34 -21q-44 -1 -55 -10.5t-21 -50.5q-53 -200 -94 -397q-12 -55 -2.5 -67t65.5 -17q14 -1 19.5 -5t2.5 -13t-19.5 -11.5t-28.5 -0.5q-91 10 -176 -2q-20 -2 -27 2t-5 13q3 9 8.5 11t27.5 4q6 1 10 1
q43 4 54 15.5t27 58.5q32 100 95 402q8 46 1.5 55t-47.5 15q-33 4 -35 9q-1 3 0 7z" />
    <glyph glyph-name="J" unicode="J" horiz-adv-x="290" 
d="M128 597q3 16 43 11q62 -9 130 -4q58 6 58 -7q2 -17 -32 -20q-11 -1 -19.5 -3t-14.5 -3.5t-11 -6.5t-7.5 -6.5t-5.5 -9.5t-3.5 -9.5t-3 -12.5t-3.5 -13q-14 -56 -31 -129.5t-28 -121t-16 -64.5q-10 -34 -18.5 -58t-25 -66t-32.5 -72t-40 -66t-49 -58t-58 -37.5t-69 -15.5
q-32 0 -51 17.5t-19 45.5q-1 16 12.5 38t30.5 34q24 19 36 7q5 -2 3.5 -11t-10.5 -15q-10 -7 -21 -23t-11 -23q0 -33 34 -33q42 0 81.5 28.5t66 67.5t49 90.5t34 87t19.5 67.5q55 214 69 310q5 37 -4 46.5t-48 17.5q-2 1 -3 1t-3 0.5t-3 0.5q-16 3 -22 7t-4 11z" />
    <glyph glyph-name="K" unicode="K" horiz-adv-x="687" 
d="M114 591q2 12 14.5 13.5t39.5 -1.5q61 -7 132 -1q54 4 54 -9q0 -20 -34 -21q-44 -1 -55 -10.5t-22 -50.5q-24 -90 -49 -195q-4 -17 3 -16q6 2 18 13q138 134 225 210q51 43 90 65.5t78 22.5q68 0 68 -60q0 -15 -9 -35t-20 -31q-27 -29 -43 -21q-6 3 -7 10t7 17
q31 31 30 54q-1 11 -9.5 18.5t-22.5 7.5q-12 0 -25 -3.5t-21.5 -6.5t-23 -13t-20 -13.5t-23.5 -17.5t-22 -17q-69 -53 -163 -155q-12 -14 -3 -37q34 -93 127 -222q23 -29 42.5 -43t46.5 -14q21 0 42 9t31.5 16.5t32.5 26.5q15 13 26 6q13 -10 -3 -29q-22 -25 -62 -45.5
t-79 -20.5q-54 0 -93 51q-49 63 -77 110.5t-68 129.5q-10 19 -23 12q-5 -3 -19 -16l-4 -3q-31 -28 -40 -52q-17 -42 -32 -110q-11 -55 -1.5 -67t65.5 -17q27 -1 21 -18q-3 -9 -19 -11.5t-28 -0.5q-86 9 -167 -2q-20 -2 -27 2t-5 13q3 9 8.5 11t27.5 4q6 1 10 1q31 4 43.5 16
t27.5 58q38 114 95 402q9 44 0.5 54t-51.5 16q-33 4 -35 9q-1 3 0 7z" />
    <glyph glyph-name="L" unicode="L" horiz-adv-x="532" 
d="M199 508q8 41 -2 51t-69 17q-16 1 -13 17q5 12 41 10q118 -5 179 0h15.5t8.5 -3.5t0 -10.5q-2 -15 -26 -17q-52 -2 -67.5 -12.5t-27.5 -54.5q-24 -89 -93 -396q-7 -43 -2.5 -53.5t21.5 -11.5q161 -10 179 -12q45 -5 85 33q39 39 54 97q6 19 28 19q15 -2 2 -43
q-10 -31 -38.5 -73.5t-63.5 -60.5q-25 -9 -58 -8q-24 2 -59 5t-53 4.5t-48.5 2.5t-66.5 0q-23 0 -50.5 -2.5t-50 -5.5t-24.5 -3h-9t-6.5 3t-2.5 8q-1 12 13.5 19t29.5 8q41 5 53 18t25 56q6 21 27.5 111.5t45 188.5t23.5 99z" />
    <glyph glyph-name="M" unicode="M" horiz-adv-x="866" 
d="M144 587q4 15 27 15q80 0 102 -5q52 -11 67 -68q10 -52 24 -192.5t19 -246.5q1 -8 7 -9.5t12 9.5q100 192 228 406q31 54 61.5 78t76.5 27q27 2 62 2q19 0 16 -17q-3 -16 -23 -16q-61 -3 -72.5 -13.5t-13.5 -61.5q-14 -297 -16 -403q-1 -38 7 -46.5t49 -14.5q3 -1 5 -1
t5.5 -1t6.5 -1q21 -5 16 -18q-7 -13 -28 -12q-113 7 -181 2q-35 -4 -35 9q0 17 23 20q27 2 35 3t23 4.5t18 7t9 12.5t7 20t2 30q13 234 16 397q0 9 -4 10.5t-8.5 -2t-8.5 -8.5q-23 -33 -113 -192.5t-138 -260.5q-13 -25 -33 -39.5t-37 -14.5q-6 0 -9.5 5.5t-4.5 15.5
t-1 18.5t1 18.5t1 13q1 76 -12 207t-29 225q-1 7 -4 12.5t-9 3.5t-11 -16q-34 -86 -98.5 -214t-104.5 -187q-29 -43 -28.5 -53t34.5 -9q17 1 77 -1q15 -1 23 -6t3 -16q-5 -18 -33 -14q-71 8 -135 1q-32 -3 -36 9q-2 9 8 26.5t28.5 42t20.5 27.5q49 75 105 184t83 182
q26 67 26 76q0 16 -27 20q-12 2 -63 4q-13 1 -16.5 4t-1.5 12z" />
    <glyph glyph-name="N" unicode="N" horiz-adv-x="670" 
d="M97 593q3 9 39 10q111 1 155 -20q86 -41 150 -175t78 -250q4 -28 7.5 -37t8 -1t10.5 34q28 105 80 349q4 17 5.5 23t1.5 17t-0.5 13t-7 8t-11.5 6.5t-20 2.5t-27.5 2.5t-38.5 1.5q-13 1 -19 6.5t-4 13.5q4 6 8.5 7.5t32.5 -0.5q76 -7 139 0q41 0 42 -10q0 -11 -19 -16
q-17 -4 -25 -18t-18 -52q-24 -96 -109 -470q-7 -31 -12 -37t-22 -7h-15.5t-7.5 5t-3.5 8.5t-0.5 16.5q-1 99 -26 197.5t-61 168t-75 114t-70 46.5q-11 1 -16 -4.5t-8 -20.5q-10 -38 -42.5 -182t-43.5 -206q-15 -70 -6.5 -86t73.5 -20q19 -1 24.5 -5.5t3.5 -12.5
q-4 -19 -45 -14q-42 5 -158 -2q-18 -1 -18 13q1 15 19 19q1 1 3 1q25 4 35 15.5t21 57.5q37 142 97 407q11 42 -1 51t-75 11q-14 0 -23 6t-5 15z" />
    <glyph glyph-name="O" unicode="O" horiz-adv-x="692" 
d="M425 618q120 0 181.5 -69t61.5 -169q0 -96 -43.5 -186.5t-124 -150t-177.5 -59.5q-127 0 -192 75t-65 179q0 93 48 180.5t132 143.5t179 56zM107 242q0 -106 60 -164.5t160 -59.5q48 0 99.5 24.5t96 69t73.5 115t29 151.5q0 97 -58 149.5t-144 52.5q-126 0 -221 -101.5
t-95 -236.5z" />
    <glyph glyph-name="P" unicode="P" horiz-adv-x="503" 
d="M109 593q1 18 54 6q29 -4 118 0q34 5 94 3q64 -1 106 -34.5t42 -95.5q0 -63 -43.5 -111t-101.5 -70t-115 -22q-19 0 -27 2.5t-5 11.5q0 20 31 20q82 0 150.5 43.5t68.5 117.5q0 90 -105 103q-30 5 -77 -1q-6 -1 -18.5 -2.5t-15.5 -2.5t-9.5 -4t-9 -9t-6.5 -16t-8 -26
q-40 -156 -87 -388q-4 -21 -6 -33t0 -22.5t5 -15t14 -9t21.5 -6t33.5 -4.5q14 -2 19.5 -6t3.5 -12q-5 -17 -50 -10q-60 6 -166 -4q-16 -1 -25 2.5t-8 9.5q2 10 10.5 14.5t32.5 6.5q32 2 46 18.5t25 58.5q15 53 46 191t44 211q2 8 2.5 15t1 12t-1.5 9.5t-2 7.5t-4 5.5t-5 3.5
t-7 2.5l-8 2t-10 2t-11 2.5q-26 5 -31.5 8.5t-5.5 14.5z" />
    <glyph glyph-name="Q" unicode="Q" horiz-adv-x="692" 
d="M425 618q120 0 181.5 -69t61.5 -169q0 -96 -43.5 -186.5t-124 -150t-177.5 -59.5q-21 0 -39 3q-17 3 -27 1t-18 -12q-5 -7 -23.5 -22.5t-32.5 -23.5q-16 -9 -8 -12q6 -3 29 -5q57 -4 137 -38q101 -44 149 -44q12 0 25 5.5t22 12.5t22.5 21.5t20 22.5t20.5 26.5t18 23.5
q19 24 29 20q14 -4 -3 -32q-37 -59 -75 -98q-39 -39 -76 -39q-21 0 -46 5t-41 10.5t-44 16t-38 13.5q-101 41 -177 41q-82 0 -132 -15q-65 -18 -67 -4q0 4 2 10q5 13 11 16.5t24 5.5q93 17 153 49q15 8 42.5 27t30.5 24q2 3 2.5 5.5t-1.5 4.5t-4 3t-6 2t-6 2
q-65 32 -97.5 93.5t-32.5 134.5q0 93 48 180.5t132 143.5t179 56zM107 242q0 -150 116 -202q13 -6 17.5 -5t13.5 14q2 3 30.5 41t42.5 58q14 21 28 14q6 -4 7 -12.5t-3 -13.5q-21 -25 -69 -95q-3 -5 -4.5 -8.5t-1 -5.5t1.5 -4t4 -3t5.5 -1.5t7 -0.5t8 0.5t8.5 0.5h8
q48 0 99.5 24.5t96 69t73.5 114.5t29 151q0 97 -58 149.5t-144 52.5q-126 0 -221 -101.5t-95 -236.5z" />
    <glyph glyph-name="R" unicode="R" horiz-adv-x="604" 
d="M115 593q1 17 55 11q75 -7 155 -5q34 4 94 3q63 -1 103 -34t40 -96q0 -64 -56 -104.5t-156 -67.5q-5 -2 -13 -3.5t-11 -2.5t-6 -4.5t-2.5 -11t3.5 -20.5q21 -116 80 -196q39 -53 136 -8q32 15 41 2q8 -11 -10 -21q-22 -12 -29 -15.5t-35 -14.5t-44.5 -11.5t-39.5 6
t-40 24.5q-42 47 -72 130.5t-30 149.5q0 12 4.5 15t18.5 4q28 3 61.5 12t71.5 25.5t63 45.5t25 64q0 43 -29.5 70t-85.5 29q-26 2 -100 -2q-36 -1 -47 -10.5t-22 -47.5q-48 -172 -92 -391q-13 -55 -5 -66.5t67 -21.5q13 -2 18 -7t3 -11q-3 -13 -17 -14.5t-32 2.5
q-78 9 -179 -4q-29 -3 -27 12q1 11 8 13.5t28 4.5q50 4 63.5 18t27.5 64q2 7 3 11q46 161 91 382q11 48 4.5 59t-49.5 16q-16 2 -26 6t-9 11z" />
    <glyph glyph-name="S" unicode="S" horiz-adv-x="436" 
d="M170 -8q-58 0 -103.5 27t-44.5 80q1 35 30 67t63 46q26 9 31 0q8 -16 -8 -24q-73 -38 -74 -84q-1 -39 34.5 -57.5t78.5 -18.5q87 0 138 48t53 97q1 52 -24.5 83t-96.5 73q-37 23 -51 32t-38 29t-33 39.5t-8 42.5q1 51 60 94t128 43q128 0 126 -75q0 -37 -45 -78
q-19 -19 -31 -12q-18 10 4 29q32 31 32 59q0 15 -8 25t-24 13.5t-26.5 4t-28.5 0.5h-5q-51 0 -96.5 -33.5t-45.5 -67.5q0 -31 27.5 -56.5t86.5 -58.5q82 -45 108 -84.5t26 -95.5q0 -67 -64.5 -127t-170.5 -60z" />
    <glyph glyph-name="T" unicode="T" horiz-adv-x="529" 
d="M327 543q4 11 0 16t-7.5 6t-11.5 1q-94 0 -128 7q-23 4 -30 1.5t-14 -15.5t-22 -50.5t-23 -55.5q-4 -11 -13 -19.5t-17 -5.5q-15 5 -3 30q1 2 23 60t33 80q8 14 14.5 16.5t18.5 -1.5q51 -17 229 -15q45 2 111.5 7t73.5 5q19 2 35 -12.5t15 -38.5q-2 -91 -67 -132
q-14 -9 -21 -4q-7 3 -8 10t4 11q53 44 53 101q0 18 -7.5 25t-28.5 5q-64 -8 -123 -8q-39 0 -46 -31q-15 -57 -51 -217.5t-42 -199.5q-12 -59 -4 -69.5t76 -18.5q2 0 6.5 -0.5t6.5 -0.5t6.5 -1t6 -1.5t5.5 -1.5t4.5 -2.5t3 -3.5t1.5 -4.5t0 -5.5q0 -16 -38 -11
q-84 11 -221 -1q-23 -2 -23 13q0 18 35 20q51 4 58 7q12 6 23 45q1 3 7 26q39 140 100 434z" />
    <glyph glyph-name="U" unicode="U" horiz-adv-x="751" 
d="M273 -6q-92 0 -136.5 57t-24.5 158q7 34 30 132.5t27 114.5q5 23 8 37t4 27.5t2 20t-4 13.5t-6.5 9t-13 5t-16.5 3.5t-23 2.5q-32 4 -32 19q0 10 17 11.5t41 -1.5q72 -8 160 1q32 1 32 -12q0 -6 -3.5 -10t-17.5 -7.5t-40 -5.5q-29 -2 -38 -13t-19 -56q-6 -24 -21.5 -83.5
t-28 -109.5t-18.5 -86q-17 -103 20 -149t111 -46q97 0 168.5 70.5t104.5 198.5q37 149 42 175q4 22 6.5 33t2 24t1 17.5t-5 11.5t-7.5 8t-15 4t-18.5 3.5t-26.5 2.5q-7 1 -14 7t-6 11q5 16 67 10q59 -4 139 1q32 2 39.5 -0.5t7.5 -13.5q0 -16 -36 -18q-50 -2 -63.5 -15.5
t-27.5 -74.5q-7 -32 -22.5 -95t-26 -112t-15.5 -85q-8 -58 -7 -93.5t10.5 -48t24 -15.5t32.5 3q6 1 13 3t11 3l8 2t6.5 1t4.5 -0.5t3.5 -2t2.5 -4.5q4 -15 -13 -24q-46 -19 -79 -19q-35 0 -50.5 32.5t-11.5 82.5q2 17 0.5 23t-6 3t-13.5 -15q-91 -126 -240 -126z" />
    <glyph glyph-name="V" unicode="V" horiz-adv-x="588" 
d="M111 593q0 6 11.5 9.5t23.5 1.5q21 -5 64 -5t74 5q10 1 18.5 1t13.5 -3.5t5 -8.5q-2 -19 -23 -20q-43 -3 -51 -19.5t1 -71.5q34 -211 44 -364q2 -42 23 -11l11 19q38 78 136 186q58 65 78.5 90t39.5 63t19 75q0 35 -44 35q-14 0 -31.5 -8t-25.5 -16q-31 -29 -43 -7
q-9 14 26 41q40 30 95 28q30 -1 49 -20t16 -55q-4 -94 -153 -248q-46 -52 -102.5 -133t-65.5 -126q-7 -31 -27 -35q-22 -5 -27.5 7t-7.5 56v5q-8 204 -48 419q-12 65 -23.5 77.5t-56.5 16.5q-8 0 -14 4t-5 12z" />
    <glyph glyph-name="W" unicode="W" horiz-adv-x="835" 
d="M358 593q0 6 11.5 9.5t23.5 1.5q21 -5 64 -5t73 5q39 6 37 -11q-2 -19 -22 -20q-43 -3 -51.5 -19.5t1.5 -71.5q34 -211 44 -364q1 -31 7 -30q7 1 26 38q37 74 137 184q78 87 107.5 132t29.5 98q0 32 -45 32q-14 0 -31 -7.5t-25 -15.5q-30 -27 -44 -5q-9 15 27 41
q39 30 94 28q31 -1 49.5 -20t16.5 -55q-4 -94 -153 -248q-46 -51 -102.5 -132.5t-66.5 -126.5q-5 -30 -26 -35q-22 -5 -27.5 7t-7.5 56v5q-4 88 -13 185q0 3 -2.5 5t-6 1t-6.5 -4q-149 -178 -157 -220q-7 -31 -27 -35q-22 -5 -27.5 7t-7.5 56v5q-8 204 -48 419
q-12 65 -23.5 77.5t-56.5 16.5q-8 0 -14 4t-5 12q0 6 11.5 9.5t23.5 1.5q21 -5 64 -5t74 5q10 1 18.5 1t13.5 -3.5t5 -8.5q-2 -19 -23 -20q-43 -3 -51 -19.5t1 -71.5l14 -77q14 -77 22 -140t12 -137q2 -34 6.5 -35t27.5 27q127 156 140 172q15 19 12 36q-4 36 -25 155
q-6 29 -10.5 44t-8.5 26t-14 15t-18 5.5t-29 3.5q-8 0 -14 4t-5 12z" />
    <glyph glyph-name="X" unicode="X" horiz-adv-x="738" 
d="M26 35q62 5 123 74q10 11 45 49t67 74.5t57 68.5q17 20 12 48q-15 85 -44 180q-9 31 -25 37t-88 4q-36 -1 -47.5 2.5t-11.5 14.5q0 8 11 11.5t50 5.5q83 2 100 0q44 -3 47 -34v-2q4 -20 12 -61.5t14.5 -70.5t16.5 -63q5 -15 9.5 -16.5t23.5 16.5q20 20 139 161q4 4 14 16
t13 15t11 11.5t11.5 11l10.5 7.5t12 6t12 2.5t15 0.5q38 -3 71 0q30 1 30 -14q2 -10 -5.5 -18t-23.5 -7q-44 2 -77.5 -9.5t-65.5 -46.5q-35 -36 -89 -96t-72 -85q-13 -17 -14 -20t1 -23q34 -127 98 -204q38 -46 95 -43q17 1 49 10.5t56 22.5q17 10 23 -8q7 -18 -23 -29
q-1 0 -15.5 -6.5t-18.5 -8t-17.5 -7t-21 -7t-20.5 -4.5t-25 -4t-25 -1q-42 0 -86 53q-65 77 -101 203q-8 25 -27 5q-110 -122 -137 -153q-26 -30 -32.5 -44.5t-1 -19t27.5 -9.5q6 -2 10 -10t0 -15q-7 -9 -58 -7q-107 3 -149 -3q-9 -2 -18 2t-7 11q8 21 59 26z" />
    <glyph glyph-name="Y" unicode="Y" horiz-adv-x="582" 
d="M203 29q11 1 19.5 2.5t15 2.5t12.5 4.5t9.5 5t7.5 7.5t5.5 7.5t4.5 10t3.5 11t3.5 13.5t4 14q20 74 34 140q3 11 3 21t-2 20t-3.5 16t-6 17.5t-5.5 15.5q-59 168 -86 213q-3 6 -5.5 9l-5 6t-6 4l-7 2t-11 0.5t-14 0t-20.5 0t-26 -0.5q-31 0 -29 16q3 12 34 15q20 2 74 2
q29 -1 38.5 -9t18.5 -33q12 -32 43 -116.5t44 -118.5q6 -14 13.5 -13t22.5 18q45 53 95 86q58 38 81.5 63.5t23.5 59.5q0 32 -36 35.5t-55 -14.5q-11 -8 -23.5 -11t-21.5 4q-7 13 20 33q44 28 84 28q36 0 53 -19t17 -47q0 -26 -8.5 -48t-27.5 -41t-34.5 -30.5t-43.5 -30.5
q-128 -85 -150 -173q-5 -18 -13.5 -49.5t-15.5 -58.5q-14 -55 -6.5 -67t66.5 -22q13 -2 18 -8t4 -11q-1 -9 -20.5 -11.5t-28.5 0.5q-75 9 -175 -4q-23 -2 -29 0.5t-4 11.5q4 17 47 21z" />
    <glyph glyph-name="Z" unicode="Z" horiz-adv-x="640" 
d="M-26 -3q-3 12 2.5 18t22.5 13q26 11 83 61q224 201 479 447q16 16 15 22t-22 0q-18 -5 -32 -5q-49 0 -120.5 10.5t-116.5 10.5q-63 0 -91 -16t-28 -65q0 -13 11 -32t25 -31q20 -17 3 -35q-10 -6 -27 2.5t-33 34.5q-24 38 -24 72q0 50 37.5 77.5t127.5 27.5
q52 0 118.5 -9.5t117.5 -9.5q33 0 63 10q9 2 23 7q23 10 32 7t2 -26t-25.5 -44.5t-51.5 -50t-38 -33.5q-44 -43 -110 -106t-151.5 -144.5t-134.5 -127.5q-13 -13 -13 -15.5t18 -2.5q35 5 79 5q75 0 124 -18q11 -3 27.5 -9t25.5 -9t23.5 -5.5t30.5 -2.5q51 0 92.5 37.5
t60.5 73.5q20 36 35 32q18 -2 -4 -45q-23 -52 -75 -94t-111 -42q-25 0 -41.5 3t-38.5 11.5t-26 9.5q-47 18 -105 18q-10 0 -37 0.5t-35.5 0t-26.5 -2t-31 -4.5t-28 -8q-8 -3 -23 -9.5t-28 -11t-27 -6.5q-21 -2 -23 9z" />
    <glyph glyph-name="bracketleft" unicode="[" horiz-adv-x="247" 
d="M274 612q12 0 17.5 -4.5t3.5 -10.5q-3 -16 -25 -18q-6 -1 -36.5 -1.5t-38.5 -0.5q-12 0 -15 -4t-8 -22q-12 -40 -67.5 -261.5t-69.5 -282.5q-2 -8 -2 -11t2.5 -5t9.5 -3q24 -4 82 -4q17 0 15 -15q-2 -14 -23 -14q-4 0 -54.5 1t-58.5 1q-12 0 -15.5 4t-0.5 16
q52 200 153 610q2 13 8 17.5t21 4.5q5 0 51.5 1.5t50.5 1.5z" />
    <glyph glyph-name="backslash" unicode="\" horiz-adv-x="383" 
d="M124 593q10 1 17.5 -6.5t15.5 -32.5q17 -52 72 -245t62 -214q5 -14 11.5 -27.5t9.5 -22t3 -20.5q-5 -29 -17 -40q-11 -12 -20 5q-11 25 -20 70q-16 67 -64.5 242.5t-66.5 228.5q-2 7 -7 20t-6.5 18.5t-2 12t2.5 8.5t10 3z" />
    <glyph glyph-name="bracketright" unicode="]" horiz-adv-x="247" 
d="M8 -46q-11 0 -17 4t-4 11q4 16 26 18q59 0 75 1q11 1 14 5t9 21q12 42 68 263.5t69 281.5q2 7 2 10.5t-2.5 5.5t-9.5 2q-30 5 -82 5q-18 0 -15 15q2 14 23 14q4 0 54.5 -1t58.5 -1q12 0 15.5 -4.5t0.5 -16.5q-56 -217 -153 -609q-2 -13 -8 -17.5t-21 -4.5q-5 0 -52 -1.5
t-51 -1.5z" />
    <glyph glyph-name="asciicircum" unicode="^" 
d="M272 547q-9 -8 -70.5 -85t-79.5 -102q-9 -11 -14.5 -14.5t-19.5 -4.5q-10 -1 -10 5q1 8 17 29q74 87 163 208q13 20 32 22q11 2 14.5 -2t7.5 -20q50 -141 58 -156q1 -2 13.5 -23t11.5 -34q0 -16 -13 -28q-11 -13 -21 2q-6 10 -20 50q-4 10 -21.5 64.5t-29.5 88.5
q-7 15 -18 0z" />
    <glyph glyph-name="underscore" unicode="_" horiz-adv-x="439" 
d="M-8 -65q-16 0 -21.5 4t-0.5 14q11 17 43 17h120t103 1q59 0 84 7q11 4 19.5 5.5t17 2.5t13 -1.5t3.5 -8.5q0 -15 -30 -32q-13 -6 -38 -6q-141 -3 -313 -3z" />
    <glyph glyph-name="grave" unicode="`" 
d="M256 505q-28 46 -46 105q-8 26 11 29q16 3 21 -11q22 -77 39 -109q2 -3 0.5 -9t-4.5 -8q-15 -8 -21 3z" />
    <glyph glyph-name="a" unicode="a" horiz-adv-x="437" 
d="M260 -8q-31 0 -35.5 40t12.5 84q7 19 2 21.5t-17 -13.5q-15 -21 -55 -63.5t-58 -54.5q-32 -25 -53.5 -8t-21.5 71q0 100 64 209t133 141q22 7 44.5 2t40.5 -17q15 -10 33 8q8 9 23 35q12 21 24 15q7 -3 8.5 -5.5t-2.5 -17.5q-87 -190 -129 -312q-11 -32 -13.5 -54.5
t0.5 -31.5t9 -9q11 0 32 19q52 56 79 87q15 19 28 8q13 -9 -1 -25q-45 -53 -96 -102q-27 -27 -51 -27zM113 50q88 78 147 170q32 50 54 116q5 14 2.5 21.5t-14.5 15.5q-42 27 -77 6q-54 -33 -103.5 -125t-49.5 -185q0 -56 41 -19z" />
    <glyph glyph-name="b" unicode="b" horiz-adv-x="402" 
d="M181 568q13 51 9.5 69.5t-24.5 18.5q-9 0 -70 -13q-22 -4 -23 12q-1 10 5.5 14.5t25.5 7.5q19 2 43.5 8t38.5 6q24 0 34.5 -10.5t10.5 -33.5q0 -27 -14 -80q-15 -57 -82 -262q-6 -17 -3.5 -22t17.5 13q106 138 188 138q40 0 40 -67q0 -79 -39.5 -163t-96.5 -143
q-65 -70 -118 -70q-37 0 -54.5 26.5t-17.5 68.5q-3 46 18 113q16 55 40 128.5t41 128.5t31 112zM88 86q0 -30 13.5 -46t33.5 -16q28 0 80 56q55 59 89 134t35 143q0 34 -20 34q-37 0 -87 -48t-86 -98q-58 -81 -58 -159z" />
    <glyph glyph-name="c" unicode="c" horiz-adv-x="336" 
d="M122 -8q-43 0 -64 40.5t-19 98.5q4 73 57 163t138 125q26 13 56 2.5t30 -42.5q0 -39 -40 -73q-16 -15 -27 1q-6 11 8 23q9 8 16.5 20.5t7.5 19.5q0 18 -16.5 20.5t-28.5 -4.5q-71 -29 -117 -107.5t-46 -147.5q-1 -44 12 -73t41 -29q21 0 53 25q47 38 75 66q4 5 12 7
t13 -2q9 -9 -7 -24q-59 -59 -85 -79q-3 -2 -9 -6.5t-9 -6.5t-8.5 -5t-9.5 -5t-9.5 -3.5t-11.5 -2.5t-12 -1z" />
    <glyph glyph-name="d" unicode="d" horiz-adv-x="439" 
d="M277 -8q-31 0 -37.5 40t8.5 84q6 19 0.5 21.5t-17.5 -13.5q-12 -18 -53.5 -61.5t-59.5 -56.5q-32 -25 -54.5 -8t-24.5 71q-4 99 55.5 208.5t127.5 141.5q36 15 82 -14q18 -9 21.5 -6.5t12.5 23.5q19 44 42.5 108t28.5 89q3 10 2.5 16.5t-1.5 10t-7.5 5t-10.5 1.5h-15
q-30 0 -92 -22q-6 -1 -10 4t-4 12q-1 7 4 11t17 7q90 25 129 25q29 1 36.5 -13.5t-1.5 -35.5q-83 -221 -173 -513q-9 -32 -10.5 -54.5t2.5 -31t10 -8.5q12 0 30 18q70 80 76 87q14 19 27 8q14 -10 0 -25q-57 -68 -92 -102q-24 -27 -49 -27zM119 50q103 95 146 170
q24 41 44 116q4 14 1 21.5t-15 15.5q-45 27 -78 6q-53 -33 -98.5 -125t-41.5 -185q2 -57 42 -19z" />
    <glyph glyph-name="e" unicode="e" horiz-adv-x="343" 
d="M121 -7q-38 0 -59.5 34.5t-23.5 84.5q-2 66 35 140.5t94 123.5t109 49q24 0 39 -10.5t15 -28.5q6 -66 -72 -118q-50 -32 -141 -73q-29 -13 -34 -29q-6 -24 -6 -54q0 -29 12 -56t41 -27q30 0 68 29q6 5 60 59q23 21 34 10q11 -8 -6 -25q-51 -53 -81 -76q-42 -33 -84 -33z
M124 233q61 25 110 57q61 39 61 82q-3 19 -26 19q-52 0 -99.5 -54.5t-57.5 -88.5q-5 -14 -2 -16.5t14 1.5z" />
    <glyph glyph-name="f" unicode="f" horiz-adv-x="298" 
d="M-163 -125q5 -3 5 -10.5t-10 -14.5q-11 -9 -22 -25.5t-11 -23.5q3 -32 43 -32q43 0 90 44t73.5 88.5t40.5 79.5q70 177 105 375q0 11 0.5 17t-4.5 9t-7.5 3.5t-8.5 1.5h-36q-21 0 -13 17q12 15 46 15q16 0 21.5 1t11 6t9.5 18q32 114 85 182.5t111 68.5q22 0 38.5 -16
t18.5 -38q0 -39 -28 -76q-18 -23 -29 -17q-5 2 -6 11.5t4 17.5q11 15 15.5 33.5t-2 32t-24.5 13.5q-50 0 -90 -70t-52 -142q-2 -24 18 -25q7 -1 38 0t44 4q58 19 35 -15q-10 -17 -18.5 -20t-32.5 -3q-48 0 -68 1q-17 0 -23 -3.5t-10 -15.5q-25 -109 -35.5 -152t-35.5 -123
t-52 -139q-14 -32 -36.5 -68t-54 -72t-71.5 -59.5t-79 -23.5q-33 0 -52 17.5t-19 45.5q-1 16 12 37t31 36q23 19 35 9z" />
    <glyph glyph-name="g" unicode="g" horiz-adv-x="403" 
d="M239 419q37 15 85 -15q15 -10 33 8q10 12 23 35q11 21 23 15q7 -4 8.5 -6t-2.5 -17q-93 -206 -129 -312q-20 -53 10 -144q41 -121 -81 -202q-80 -52 -157 -52q-85 0 -117.5 28t-32.5 64q0 32 23 60.5t71 70.5q8 7 18.5 8.5t13.5 -2.5q8 -12 -10 -27q-78 -70 -78 -104
q0 -33 33 -49.5t84 -16.5q36 0 76 15t60 30q47 38 59.5 76.5t-1.5 89.5q-9 32 -12.5 49t-3 43t9.5 52q7 19 2 21.5t-17 -13.5q-17 -22 -56.5 -64t-56.5 -54q-33 -25 -54.5 -8t-21.5 71q0 99 64.5 208.5t133.5 141.5zM120 50q34 29 76.5 77t71.5 93q28 45 54 116q4 14 2 21.5
t-14 15.5q-42 27 -78 6q-54 -33 -103.5 -125t-49.5 -185q0 -57 41 -19z" />
    <glyph glyph-name="h" unicode="h" horiz-adv-x="470" 
d="M78 646q-1 7 3.5 11t16.5 7q90 25 128 25q29 1 37.5 -13.5t-0.5 -35.5q-54 -162 -126 -391q-7 -21 -5.5 -25.5t20.5 18.5q75 99 124 145t88 46q23 0 22 -35q0 -14 -4.5 -31.5t-12.5 -43t-11 -36.5q-46 -142 -50 -157q-15 -48 -13 -85q0 -16 10 -16q11 0 33 17
q48 48 73 80q15 19 22 15q20 -13 6 -29q-31 -37 -86 -94q-11 -11 -30 -21.5t-29 -10.5q-36 0 -32 66q0 40 15 85q14 49 50 151q1 4 5.5 17.5t8 25.5t6 25t0.5 20.5t-10 7.5q-25 0 -110 -98q-89 -102 -120 -162q-9 -16 -37 -87q-2 -5 -3.5 -10t-2.5 -8t-2.5 -7t-2.5 -5.5
t-2.5 -3.5t-2.5 -3t-3 -2t-4.5 -1.5t-5.5 -0.5q-13 -1 -15.5 4.5t3.5 23.5q132 407 189 595q2 12 3.5 19t-6 10t-13 3.5t-18.5 0.5q-34 0 -91 -22q-7 -1 -11 4t-4 12z" />
    <glyph glyph-name="i" unicode="i" horiz-adv-x="276" 
d="M243 140q8 -8 0 -21q-10 -16 -41.5 -52.5t-48.5 -52.5q-20 -18 -44 -18q-37 0 -37 46t16 88l79 200q19 50 2 50q-21 0 -102 -81q-10 -10 -22 -4q-9 5 2 22q18 25 68.5 66.5t71.5 41.5q28 0 28.5 -35t-14.5 -63q-48 -120 -79 -202q-4 -11 -7.5 -23.5t-6 -28t1.5 -26
t16 -10.5q11 0 32 24q13 15 35.5 41t26.5 31q13 17 23 7zM297 576q-1 -18 -17 -31.5t-33 -13.5q-16 0 -14 24q1 22 12.5 35.5t28.5 13.5q23 0 23 -28z" />
    <glyph glyph-name="j" unicode="j" horiz-adv-x="226" 
d="M184 265q-59 -198 -99 -300q-35 -95 -109 -176q-57 -59 -114 -59t-57 61q0 18 15 43t36 41q27 24 41 15q14 -8 -14 -31q-40 -33 -40 -65q0 -26 30 -26q46 0 104 71q49 60 78 141q71 195 107 342q13 49 -1 49q-5 0 -13.5 -5t-19 -14.5t-18 -17l-19 -19l-13.5 -13.5
q-18 -18 -30 -9q-11 6 -3 18q8 11 31 34t38 35q47 45 70 45q24 0 24 -47q0 -39 -24 -113zM293 576q-2 -18 -17.5 -31.5t-32.5 -13.5q-16 0 -14 24q2 22 13 35.5t28 13.5q23 0 23 -28z" />
    <glyph glyph-name="k" unicode="k" horiz-adv-x="455" 
d="M415 382q0 -53 -46 -97q-68 -63 -91 -81q-15 -12 -18.5 -17t-4.5 -14q-4 -56 15 -109q8 -21 24 -23q7 0 29 19q8 6 33.5 31t30.5 29q12 11 16.5 12.5t11.5 -3.5q5 -8 3.5 -12t-12.5 -18q-45 -49 -92 -89q-18 -15 -35 -15q-15 0 -26 19q-37 57 -33 166q0 17 17 31
q58 44 106 92q35 35 35 72q0 7 -6.5 14t-17.5 7q-34 0 -127 -109q-88 -101 -120 -163q-9 -16 -37 -87q-2 -5 -3.5 -10t-2.5 -8t-2.5 -7t-2.5 -5.5t-2.5 -3.5t-2.5 -3t-3 -2t-4.5 -1.5t-5.5 -0.5q-13 -1 -15.5 4.5t3.5 23.5q132 407 189 595q2 12 3.5 19t-6 10t-13 3.5
t-18.5 0.5q-34 0 -91 -22q-7 -1 -11 4t-4 12q-1 7 3.5 11t16.5 7q90 25 128 25q29 1 37.5 -13.5t-0.5 -35.5q-54 -162 -126 -391q-7 -21 -5.5 -25.5t20.5 18.5q74 97 123 143t89 46q26 0 38.5 -15.5t12.5 -33.5z" />
    <glyph glyph-name="l" unicode="l" horiz-adv-x="261" 
d="M91 641q0 12 20 14q23 3 58 17q45 15 49 15q24 0 24 -34q0 -37 -24 -102q-52 -139 -114 -362q-6 -23 -11 -47t-8.5 -49.5t-1 -41.5t11.5 -16q12 0 46 34q29 30 58 67q22 24 31 21q16 -10 -4 -36q-54 -63 -65 -74q-55 -55 -79 -55q-33 0 -33 49q0 22 3 46t5.5 37t8 36
t6.5 29q25 106 112 364q9 24 21 61q4 14 1 23t-10 9q-4 0 -35 -9q-24 -8 -44 -11q-26 -3 -26 15z" />
    <glyph glyph-name="m" unicode="m" horiz-adv-x="687" 
d="M37 326q60 57 102 88q27 20 40 20q31 0 27 -59q-2 -21 -6.5 -41.5t-8.5 -32t-12 -32t-11 -27.5q-3 -8 -4 -13t-1.5 -9.5t1 -4.5t6 4.5t12.5 14.5q84 104 133.5 151.5t88.5 47.5q24 0 20 -35q-2 -24 -11 -53.5t-25 -69t-20 -52.5q-3 -9 0 -9q6 4 19 20q84 103 134 151
t88 48q24 0 21 -35q-1 -14 -6.5 -32t-14 -42t-12.5 -37q-7 -20 -29.5 -81t-27.5 -76q-19 -55 -19 -85q0 -18 9 -18q13 0 32 19q48 44 78 81q15 18 22 14q15 -9 3 -24q-43 -54 -88 -99q-11 -11 -30 -21.5t-29 -10.5q-36 0 -31 66q3 33 21 85l58 151q1 3 4.5 11.5t6.5 16.5
t6.5 18.5t5.5 18.5t2.5 15.5t-2 11.5t-8.5 4q-26 0 -115 -98q-3 -3 -15.5 -17t-15.5 -17t-13.5 -15t-13.5 -16t-12 -14.5t-12.5 -16t-10.5 -15t-11.5 -16.5t-10.5 -16.5t-11 -18.5q-16 -26 -40 -87q-2 -6 -5.5 -14.5t-5 -11t-3.5 -6.5t-4 -5.5t-5 -2.5t-8 -1
q-13 -1 -15.5 4.5t4.5 23.5q13 35 37 94t38 99q19 54 33 87q6 13 10 25.5t7.5 25.5t1.5 21t-10 8q-14 0 -53 -36t-61 -62q-9 -11 -29 -33t-29 -32.5t-23 -28.5t-24.5 -34t-20.5 -34q-12 -20 -41 -87q-2 -6 -5.5 -14.5t-4.5 -11t-3 -7t-4 -5.5t-5 -2t-8 -1q-14 -1 -16 4.5
t5 23.5q15 41 41 105t42 109q33 99 33 129q0 27 -21 16q-9 -5 -27.5 -19.5t-40 -33.5t-24.5 -21q-13 -13 -23 -6q-9 7 4 23z" />
    <glyph glyph-name="n" unicode="n" horiz-adv-x="484" 
d="M312 -14q-35 0 -30 66q3 33 21 85q5 15 27 72t30 79q1 2 5 11.5t6.5 17l6 18t5.5 18.5t2.5 15.5t-2 11.5t-8.5 4q-14 0 -50 -33.5t-64 -64.5q-86 -96 -124 -162q-11 -19 -40 -87q-15 -34 -21 -38q-4 -3 -12 -3q-14 -1 -16 4.5t5 23.5q15 41 41 105t42 109q33 99 33 129
q0 27 -21 16q-9 -5 -27.5 -19.5t-40 -33.5t-24.5 -21q-13 -13 -23 -6q-9 7 4 23q60 57 102 88q27 20 40 20q31 0 27 -59q-2 -27 -7 -47t-15 -45.5t-13 -33.5q-8 -21 -7 -25.5t20 18.5q81 100 131 145.5t89 45.5q24 0 20 -35q-1 -14 -5.5 -31t-14.5 -43t-13 -37
q-10 -29 -31.5 -87.5t-25.5 -69.5q-18 -59 -18 -85q0 -16 9 -16q11 0 33 17q49 46 76 80q16 18 23 15q20 -13 5 -29q-26 -31 -91 -94q-10 -11 -29.5 -21.5t-29.5 -10.5z" />
    <glyph glyph-name="o" unicode="o" horiz-adv-x="381" 
d="M129 -7q-42 0 -60 41t-17 95q1 64 32.5 133.5t84 117.5t106.5 48q69 0 69 -117q-1 -108 -70.5 -213t-144.5 -105zM266 392q-59 0 -118 -82.5t-59 -180.5q0 -102 50 -102q52 0 109.5 92t58.5 191q0 82 -41 82z" />
    <glyph glyph-name="p" unicode="p" horiz-adv-x="458" 
d="M32 280q-11 7 7 25q59 64 111 104q30 23 43 23q44 0 12 -96q-2 -9 -9.5 -33.5t-8.5 -29.5q-6 -18 -0.5 -21.5t18.5 13.5q42 55 65 81q73 83 121 83q41 0 36 -96q-4 -54 -36.5 -124t-87 -130.5t-110.5 -79.5q-7 -2 -17.5 -2t-23 1t-17.5 1q-11 0 -15 -4.5t-9 -18.5
q-27 -103 -57 -160q-40 -72 -54 -90q-6 -9 -19 -9q-5 0 -8 5.5t2 15.5q38 67 54 108q28 62 44 126q9 32 46 167t53 197q10 43 -1 43q-10 0 -25 -13q-9 -6 -41 -35.5t-44 -39.5q-17 -17 -29 -11zM374 387q-30 -1 -77 -54q-39 -45 -57.5 -67t-47 -66.5t-40.5 -79.5
q-16 -44 -22 -69q-2 -14 8 -17q8 -3 38 -3q44 0 95 57t83.5 127.5t34.5 117.5q3 23 -1.5 38.5t-13.5 15.5z" />
    <glyph glyph-name="q" unicode="q" horiz-adv-x="391" 
d="M399 462q7 -3 8.5 -5.5t-2.5 -17.5q-123 -265 -180 -495q-6 -22 -11 -48t-9 -55t-2 -48.5t12 -19.5q16 0 71 44q23 17 34 4q5 -11 -6 -20q-6 -4 -23 -18t-25.5 -20t-23 -15t-27 -13t-25.5 -4q-12 0 -19.5 14t-7.5 31q0 63 29 172q2 9 50 168q5 19 0.5 21.5t-16.5 -13.5
q-17 -22 -56.5 -64t-56.5 -54q-33 -25 -54.5 -8t-21.5 71q0 99 64.5 208.5t133.5 141.5q37 15 85 -15q15 -10 33 8q12 14 22 35q12 21 24 15zM116 50q88 78 147 170q35 55 54 116q5 14 3 21.5t-14 15.5q-42 27 -78 6q-54 -33 -103.5 -125t-49.5 -185q0 -57 41 -19z" />
    <glyph glyph-name="r" unicode="r" horiz-adv-x="375" 
d="M35 301q-6 8 17 33q11 13 57 57q41 37 64 37q18 0 21.5 -26t-2.5 -49q-5 -24 -17.5 -67t-13.5 -48q-5 -14 -2 -18q2 -2 10 10q0 2 1 3q107 200 158 200q46 0 46 -51q-1 -55 -36 -103q-21 -24 -32 -20q-14 8 4 31q29 39 29 71q0 6 -1 10t-2.5 6t-4.5 3t-4 1h-5h-5
q-26 0 -100.5 -124.5t-89.5 -177.5q-25 -81 -50 -83q-10 -1 -13 3.5t0 10.5q13 39 26.5 87.5t26.5 100t19 71.5q11 28 21 84q8 33 -2 34q-8 0 -41 -30q-11 -12 -48 -49q-18 -18 -31 -7z" />
    <glyph glyph-name="s" unicode="s" horiz-adv-x="299" 
d="M83 -10q-18 0 -30.5 10.5t-12.5 28.5q0 57 39 91q17 16 27 8q12 -8 -2 -20q-12 -9 -21.5 -26.5t-9.5 -32.5q0 -28 20 -28q37 0 67.5 37t45 83.5t15.5 87.5q0 50 -22 125q-3 6 -4 7t-3 1t-7 -2l-46 -46q-3 -3 -8 -10.5t-9.5 -13t-9.5 -9.5t-11 -3.5t-13 7.5q-5 4 -1 16
t17 24q44 40 99 105l25 34q8 9 17 6q1 -1 4.5 -3.5t4.5 -4t1.5 -5t-2.5 -7.5q-35 -52 -22 -90q22 -54 22 -128q0 -52 -17.5 -105.5t-58 -95t-94.5 -41.5z" />
    <glyph glyph-name="t" unicode="t" horiz-adv-x="285" 
d="M102 -9q-25 0 -37 30t-10.5 61.5t3.5 50.5q7 39 34 126t31 102q3 10 4 15t1 8.5t-1.5 4.5t-4.5 1q-7 1 -45 1q-6 -1 -9 5.5t1 13.5t9 8t33 2q19 0 26 3.5t15 18.5q16 28 41 90q8 25 33 22q8 -2 4 -18q-37 -81 -42 -102q-3 -8 -1.5 -10.5t13.5 -3.5q26 -3 67 0q7 0 16 2
t12.5 2.5t8.5 -0.5q9 -2 2 -13q-11 -17 -19.5 -21.5t-29.5 -4.5q-12 0 -33 0.5t-31 0.5q-20 0 -25 -10q-12 -21 -38.5 -108.5t-34.5 -132.5q-17 -101 24 -101q14 2 43 27q27 26 54 57q14 17 28 6q8 -5 -2 -21q-22 -27 -77 -77q-39 -35 -63 -35z" />
    <glyph glyph-name="u" unicode="u" horiz-adv-x="479" 
d="M40 301q-10 11 26 42q4 3 20.5 18t27 23.5t25.5 20.5t26 17.5t19 5.5q11 0 17.5 -10.5t6.5 -27.5q0 -15 -14 -65q-58 -179 -67 -211q-22 -86 9 -86q12 0 39 24.5t49 51.5q71 82 103 135t70 158q11 30 35 30q5 0 6 -8.5t-4 -19.5q-63 -157 -93 -269q-3 -11 -6 -24
t-6 -30.5t-0.5 -29t10.5 -11.5q10 0 42 31.5t49 51.5q14 14 25 4q10 -12 -9 -31q-49 -50 -89 -82q-17 -15 -35 -15q-32 0 -32 55q0 35 21 87q13 33 1 24q-8 -6 -24 -26q-33 -43 -98 -110q-9 -10 -27.5 -22t-34.5 -12q-70 0 -33 136q11 39 35.5 114.5t31.5 100.5
q10 32 1.5 36t-28.5 -13q-7 -5 -21 -17t-29.5 -25t-18.5 -16q-18 -16 -26 -5z" />
    <glyph glyph-name="v" unicode="v" horiz-adv-x="408" 
d="M117 -10q-20 0 -31 16t-11.5 40.5t1.5 46t7 38.5q6 24 38.5 115t36.5 102q9 29 -1 29q-9 0 -34 -29l-61 -63q-14 -14 -23 -6q-9 9 6 29q54 58 96 96q18 21 46 21q30 0 4 -74q-7 -19 -35.5 -107.5t-35.5 -114.5q-12 -41 -9 -70.5t18 -29.5q30 0 94 80q98 117 118 198
q26 80 -3 80q-3 0 -6.5 -0.5t-7 -2.5t-6 -3.5t-6 -5t-5.5 -5t-5.5 -6t-5 -6.5t-5.5 -7t-5 -6q-11 -14 -18.5 -17t-13.5 1q-5 2 -6 8t2 10q2 2 13 15t19 21.5t20 19.5t23 17t20 6q68 0 36 -108q-33 -114 -156 -255q-21 -24 -53 -48.5t-55 -24.5z" />
    <glyph glyph-name="w" unicode="w" horiz-adv-x="651" 
d="M353 202h1q-11 -21 -19 -61.5t-5.5 -76t20.5 -35.5q23 0 57 24.5t61 55.5q38 43 70.5 101t43.5 101q27 80 -2 80q-3 0 -6.5 -0.5t-7 -2.5t-6 -3.5t-6 -5t-5.5 -5t-5.5 -6t-5 -6.5t-5.5 -7t-5 -6q-11 -14 -18.5 -17t-13.5 1q-5 2 -6.5 8t2.5 10l8 10q8 10 12 14.5t13 14.5
t16 15.5t15.5 12t16 9.5t14.5 3q68 0 36 -108q-41 -135 -134 -238q-12 -15 -28.5 -31.5t-54 -39.5t-69.5 -23q-20 0 -31.5 14t-13.5 36t0 42t6 37q10 37 8 40q-3 4 -21 -20q-46 -64 -88 -106q-43 -43 -71 -43q-67 0 -33 136q11 40 36.5 117.5t31.5 97.5q18 60 -28 23
q-8 -6 -36.5 -30.5t-31.5 -27.5q-20 -15 -27 -5q-10 11 26 42q4 3 20.5 18t27 23.5t25.5 20.5t26 17.5t19 5.5q11 0 17.5 -10.5t6.5 -27.5q0 -23 -14 -65q-58 -179 -67 -211q-19 -86 9 -86q22 0 87 81q22 28 35.5 45t27 38t19 29t17 33.5t15 34t19 48.5t23.5 60q12 30 35 30
q3 0 4.5 -4t1 -10.5t-3.5 -13.5q-10 -26 -32.5 -101.5t-28.5 -95.5z" />
    <glyph glyph-name="x" unicode="x" horiz-adv-x="515" 
d="M88 302q-9 7 5 23q8 10 44.5 46.5t51.5 46.5q21 13 37 0q46 -36 53 -106q4 -30 23 2h1v1q28 47 69 79.5t86 32.5q39 0 42 -52q0 -31 -38 -69q-21 -18 -28 -12q-11 9 6 28q25 25 25 40q0 24 -17 24q-53 0 -106.5 -71.5t-56.5 -112.5q-5 -43 5 -91t29 -66q18 -16 24 -15.5
t25 18.5q15 13 77 79q10 11 22 5q3 -2 3.5 -8.5t-3.5 -13.5q-14 -19 -97 -102q-34 -34 -71 4q-32 32 -41 91q-2 9 -3.5 14t-3 7t-4.5 -0.5t-6.5 -6.5t-8.5 -13q-26 -42 -70 -77.5t-94 -35.5q-42 0 -44 54q0 41 50 85q11 9 17 5q12 -12 -1 -26q-31 -33 -31 -59q0 -24 20 -24
q52 0 108 70.5t63 127.5q6 58 -6 97.5t-31 53.5q-9 8 -16 7.5t-19 -12.5q-6 -6 -30 -29.5t-28 -27.5q-17 -19 -32 -11z" />
    <glyph glyph-name="y" unicode="y" horiz-adv-x="442" 
d="M339 132q-5 -21 -5.5 -51.5t3.5 -47.5q18 -74 18 -96q0 -94 -79.5 -151t-175.5 -57q-87 0 -124 28t-37 67q0 21 13.5 43.5t26 34.5t45.5 41q7 7 11 10q7 7 16 8t12 -3q10 -14 -13 -33q-67 -59 -67 -96q0 -68 122 -68q83 0 146.5 49t63.5 124q0 18 -7 48.5t-8 39.5
q-10 71 8 114q12 28 4 26q-8 -4 -27 -28q-30 -40 -97 -110q-34 -34 -63 -34q-69 0 -32 136q11 41 37.5 123t29.5 92q18 60 -28 23q-8 -6 -36.5 -30.5t-31.5 -27.5q-19 -16 -27 -5q-10 11 26 42q4 3 20.5 18t27 23.5t25.5 20.5t26 17.5t19 5.5q11 0 17.5 -10.5t6.5 -27.5
q0 -23 -14 -65q-56 -171 -66 -211q-22 -86 8 -86q12 0 38.5 24t49.5 52q71 83 104 136t70 157q11 30 34 30q5 0 6.5 -8.5t-3.5 -19.5q-56 -136 -93 -267z" />
    <glyph glyph-name="z" unicode="z" horiz-adv-x="479" 
d="M412 141q11 19 27 11q4 -1 2 -11.5t-5 -13.5q-21 -46 -84 -103q-34 -30 -57 -30q-7 0 -14 2t-14.5 6t-12 6.5t-12.5 9t-10 7.5q-16 13 -21.5 16.5t-21.5 8.5t-37 5q-60 0 -99 -48q-12 -21 -32 -18q-15 3 -15 19.5t13 22.5q9 4 84 66q24 19 63 54t68.5 63.5t74 71.5
t56.5 54q16 15 6 15q-3 1 -9 -1q-20 -5 -47 -5q-25 0 -60 28q-21 17 -42 17q-16 0 -45 -32t-44 -59q-8 -13 -14 -17.5t-17 -1.5q-13 4 0 26q23 39 62 79.5t60 40.5q29 0 54 -19q37 -28 53 -28q75 0 106 31q26 26 37 20q17 -7 5 -25q-31 -48 -62 -74q-12 -11 -115 -108.5
t-129 -118.5q-10 -9 -7 -13t12 -4q45 0 78 -31q26 -25 54 -25q25 0 56.5 34.5t54.5 71.5z" />
    <glyph glyph-name="braceleft" unicode="{" horiz-adv-x="256" 
d="M269 608q10 0 15 -2.5t5.5 -4.5t0.5 -7q-3 -18 -31 -19q-97 -6 -102 -64q-3 -26 28.5 -77t31.5 -71q0 -46 -33 -64q-17 -9 -19 -16q-1 -5 4.5 -8.5t11 -12.5t3.5 -25q-2 -21 -35 -55.5t-64 -72.5t-31 -67q0 -28 15.5 -38.5t46.5 -10.5q16 0 24.5 -4.5t6.5 -12.5
q-3 -14 -40 -14q-90 0 -90 80q0 26 20 56.5t44.5 52.5t44.5 48t20 45q0 26 -53 26q-8 0 -22 -1t-19 -1q-16 0 -11 17q6 16 22 16q5 0 18 -1.5t23 -1.5q76 0 76 56q-1 18 -17.5 45.5t-30.5 58t-10 57.5q6 40 49.5 66.5t97.5 26.5z" />
    <glyph glyph-name="bar" unicode="|" horiz-adv-x="300" 
d="M126 -25q0 428 3 569q0 31 4 37q6 11 15 19.5t15 8.5q19 0 5 -37q-4 -7 -6 -27q-8 -159 -1 -553q0 -32 -17 -41q-10 -4 -14 2t-4 22z" />
    <glyph glyph-name="braceright" unicode="}" horiz-adv-x="256" 
d="M35 -40q-10 0 -15.5 2t-6 4t-0.5 7q6 19 32 19q95 6 102 64q3 26 -28 77.5t-31 71.5q0 47 32 64q17 9 19 16q1 5 -4.5 8.5t-11 12.5t-3.5 26q2 21 35 55.5t64.5 72t31.5 67.5q0 50 -62 50q-35 0 -32 16q4 14 41 14q90 0 90 -80q0 -27 -20.5 -57t-44.5 -52.5t-44.5 -48.5
t-20.5 -45q0 -26 54 -26q7 0 21 1.5t20 1.5q16 0 10 -18q-4 -16 -22 -16q-5 0 -17.5 1.5t-23.5 1.5q-32 0 -54 -13.5t-22 -42.5q1 -18 32.5 -72t26.5 -90q-7 -40 -50.5 -66t-97.5 -26z" />
    <glyph glyph-name="asciitilde" unicode="~" horiz-adv-x="418" 
d="M24 225q-6 9 17 28q29 22 59.5 27.5t52 1t59.5 -18.5q85 -34 142 7q5 3 12.5 10t12 8.5t9.5 0.5q14 -7 -4 -27q-24 -26 -58 -36.5t-66 -7t-65 16.5q-49 17 -74.5 17t-64.5 -21q-25 -16 -32 -6z" />
    <glyph glyph-name="uni00A0" unicode="&#xa0;" horiz-adv-x="232" 
 />
    <glyph glyph-name="exclamdown" unicode="&#xa1;" horiz-adv-x="257" 
d="M162 233q-66 -290 -86 -367q-9 -27 -16 -36q-9 -11 -22.5 -17t-20.5 -2q-13 6 9 37q8 10 14 25q29 101 84 353q6 30 26 34t12 -27zM175 356q-15 -2 -27.5 6t-12.5 21q0 37 43 44q20 2 31 -7.5t11 -23.5q0 -17 -14 -27.5t-31 -12.5z" />
    <glyph glyph-name="cent" unicode="&#xa2;" horiz-adv-x="336" 
d="M39 131q4 73 57 163t138 125q12 4 14.5 6.5t6.5 14.5t11.5 37.5t12.5 39.5q9 30 29 34q10 3 12.5 -4t-1.5 -23l-28 -83q-1 -3 -2 -7q-3 -6 -1.5 -9t8.5 -7q24 -10 24 -39q0 -39 -40 -73q-16 -15 -27 1q-6 11 8 23q9 8 16.5 20.5t7.5 19.5q0 18 -16.5 20.5t-28.5 -4.5
q-71 -29 -117 -107.5t-46 -147.5q-1 -44 12 -73t41 -29q21 0 53 25q47 38 75 66q4 5 12 7t13 -2q9 -9 -7 -24q-59 -59 -85 -79q-30 -21 -36 -23l-5 -2.5t-4 -1.5t-3 -1t-2 -2t-1.5 -3t-2 -3.5t-1.5 -5.5q-21 -72 -26 -86q-9 -30 -29 -35q-10 -2 -12.5 4.5t1.5 22.5q2 7 6 20
t11.5 35.5t12.5 38.5q2 6 3 8t0 4.5t-1.5 2.5t-5 2t-7.5 4q-54 28 -50 130z" />
    <glyph glyph-name="sterling" unicode="&#xa3;" horiz-adv-x="568" 
d="M231 274h-72q-16 0 -21.5 3.5t-1.5 12.5q9 16 42 16q19 -1 43 -1q13 0 15 1.5t-3 12.5q-8 15 -36 43q-46 44 -46 91t42.5 85.5t94 56.5t93.5 18q131 0 131 -62q0 -25 -17.5 -53t-44.5 -45q-25 -18 -33 -9q-5 5 0.5 16.5t12.5 17.5q38 28 38 62q0 37 -93 37
q-59 0 -120 -36.5t-61 -84.5q0 -23 8.5 -38t34.5 -40q27 -27 41 -56q2 -3 3 -7t2 -5.5l2 -3t3 -2t4.5 -0.5h8.5q3 0 95 2q18 0 32 6q20 10 31 11t12 -8q0 -15 -29 -30q-19 -11 -38 -11h-103q-6 0 -9 -0.5t-5 -3t-2.5 -5t-0.5 -8.5q-13 -79 -99 -148q-26 -21 -10 -20h4
q14 2 36 2q64 0 111 -44q21 -18 40 -18q28 0 65.5 40t38.5 79q0 29 14 30q8 0 12.5 -5t5.5 -11t1 -16q0 -45 -44 -99.5t-100 -54.5q-31 0 -51 16q-45 44 -103 44q-112 0 -155 -38q-34 -29 -50 -12q-10 10 -5 20t21 18q92 48 127 80l19 18q19 17 32.5 30.5t28.5 36.5t19 43
q6 26 -11 26z" />
    <glyph glyph-name="currency" unicode="&#xa4;" 
d="M118 433q12 -11 29 -21q9 -5 15 0q46 27 104 27q64 0 101 -25q6 -4 19 0q5 2 14 7.5t15 8.5q27 15 33 2q3 -7 -9 -21q-1 -1 -12.5 -9.5t-18.5 -12.5q-10 -7 -4 -14q25 -32 19 -79q-4 -43 -41 -80q-2 -1 -3 -4t1 -6q5 -5 11 -10.5t13 -11t10 -8.5q11 -13 4 -24
q-4 -5 -15.5 -5t-19.5 8q-16 14 -27 21q-9 6 -18 1q-45 -25 -101 -25q-57 0 -101 24q-7 4 -18 -1q-25 -14 -36 -21q-23 -14 -32 0q-8 15 9 27q3 2 15.5 10t20.5 14q10 7 3 15q-22 32 -18 74q2 36 35 78q8 11 2 17t-15.5 13t-11.5 9q-13 11 -3 23q13 13 31 -1zM116 296
q-5 -44 31.5 -77t94.5 -33q56 0 97.5 32t46.5 80q4 46 -30.5 76.5t-92.5 30.5q-56 0 -99 -33t-48 -76z" />
    <glyph glyph-name="yen" unicode="&#xa5;" horiz-adv-x="582" 
d="M277 141h-110q-16 0 -22 3.5t-1 12.5q9 16 41 16q90 -2 105 -2q6 0 8.5 0.5t5 3t3.5 8.5q12 42 14 50q3 8 1 13.5t-17 5.5h-112q-17 0 -22.5 3.5t-0.5 12.5q9 15 41 15q84 -2 100 -2q8 0 11 2.5t2 6.5t-4 13q-7 19 -28 75.5t-39 102t-31 69.5q-3 6 -5 9t-4.5 5.5t-6.5 4
t-7 2.5t-11 0.5t-14.5 -0.5h-20.5h-26q-31 0 -29 16q3 12 34 15q20 2 74 2q29 -1 38.5 -9t18.5 -33q12 -32 43 -116.5t44 -118.5q6 -14 13.5 -13t22.5 18q45 53 95 86q58 38 81.5 63.5t23.5 59.5q0 32 -36 35.5t-55 -14.5q-11 -8 -23.5 -11t-21.5 4q-7 13 20 33q44 28 84 28
q36 0 53 -19t17 -47q0 -26 -8.5 -48t-27.5 -41t-34.5 -30.5t-43.5 -30.5q-72 -48 -114 -102q-7 -10 -6.5 -13t9.5 -3q15 0 65 2q21 0 31 6q10 4 17.5 6.5t13.5 3.5t9 -1t3 -7q0 -6 -8.5 -15t-20.5 -15q-17 -10 -38 -10q-27 -1 -87 -1q-13 0 -17 -4.5t-8 -19.5l-5.5 -22
t-5.5 -20q-2 -9 0 -12t9 -2q46 2 81 2q18 0 31 6q44 21 43 3q0 -6 -8.5 -15t-20.5 -15q-19 -11 -38 -11h-91q-12 0 -15.5 -3.5t-7.5 -18.5q-14 -55 -6.5 -67t66.5 -22q13 -2 18 -8t4 -11q-1 -9 -20.5 -11.5t-28.5 0.5q-75 9 -175 -4q-23 -2 -29 0.5t-4 11.5q4 17 47 21
q12 1 21 2t16.5 4.5t12.5 4.5t10 7.5t7 7.5t6 10.5t4.5 11t4 15t4.5 15.5q9 34 -12 34z" />
    <glyph glyph-name="brokenbar" unicode="&#xa6;" horiz-adv-x="301" 
d="M126 332l3 212q0 31 4 37q6 11 15 19.5t15 8.5q19 0 5 -37q-6 -12 -6 -27q-5 -110 -3 -197q0 -32 -15 -40q-10 -4 -14 2t-4 22zM126 -22l3 212q0 31 4 37q6 11 15 19.5t15 8.5q19 0 5 -37q-6 -12 -6 -26q-5 -110 -3 -197q0 -34 -15 -40q-10 -4 -14 1.5t-4 21.5z" />
    <glyph glyph-name="section" unicode="&#xa7;" horiz-adv-x="408" 
d="M113 491q1 44 52 81t110 37q103 0 103 -71q0 -37 -35 -69q-16 -17 -31 -8t3 26q26 23 26 44q0 44 -71 44q-44 0 -81 -26.5t-37 -56.5q0 -26 21 -44.5t73 -46.5q33 -18 54 -32q38 -27 45.5 -59.5t-9.5 -54.5q-14 -23 -50 -51q-11 -9 -11 -10.5t10 -10.5q33 -31 31 -76
q0 -44 -51 -81t-110 -37q-73 -1 -99.5 19.5t-25.5 49.5q0 34 36 68q20 19 32 10q14 -5 -4 -24q-23 -27 -23 -48q0 -23 28.5 -32t59.5 -9q45 0 80 26t35 56q0 28 -21.5 50.5t-69.5 49.5q-45 24 -74 48q-32 29 -32 64t16 53q17 22 45 42q10 6 10 8.5t-8 10.5q-28 32 -27 60z
M302 266q21 35 -18 66q-20 14 -59 38q-7 5 -35 19q-14 8 -28 -1q-28 -16 -37 -32q-23 -44 15 -79q16 -15 65 -43q2 -1 9.5 -6t9 -5.5t7.5 -3t9 -2t8 2t10 4.5q34 27 44 42z" />
    <glyph glyph-name="dieresis" unicode="&#xa8;" 
d="M211 594q-1 -17 -17 -31.5t-34 -14.5t-15 24q1 23 13.5 37.5t30.5 14.5q23 0 22 -30zM350 594q-1 -17 -17 -31.5t-33 -14.5q-18 0 -16 24q1 23 13.5 37.5t30.5 14.5q22 0 22 -30z" />
    <glyph glyph-name="copyright" unicode="&#xa9;" horiz-adv-x="657" 
d="M44 279q12 130 114.5 222t224.5 92q120 0 195 -76t63 -216q-12 -129 -109 -221.5t-220 -92.5t-201 77t-67 215zM82 280q-12 -121 54 -189.5t182 -68.5q106 0 190.5 84t95.5 195q9 115 -53 187t-172 72q-108 0 -197.5 -83t-99.5 -197zM294 77q-66 0 -99 44.5t-33 98.5
q0 62 24 116t60 88.5t77 54.5t77 20q86 0 86 -49q0 -39 -43 -65q-19 -10 -26 -1q-9 12 4 20q28 15 28 37q0 24 -52 24q-70 0 -133 -67t-63 -172q0 -114 100 -114q16 0 30 2t26.5 7t21 9t18.5 12t14 11t13 12l9 9q10 10 25 3q14 -8 -1 -25q-39 -41 -75.5 -58t-87.5 -17z" />
    <glyph glyph-name="ordfeminine" unicode="&#xaa;" 
d="M270 238q-27 0 -31 35.5t11 74.5q6 16 2 18t-15 -12q-17 -21 -50 -56.5t-48 -46.5q-29 -22 -48 -7t-19 62q0 87 56.5 182.5t116.5 123.5q32 13 75 -14q10 -6 25 8q4 4 21 30q13 19 23 14q1 -1 4 -2.5t4.5 -3t1.5 -5.5t-3 -10q-74 -161 -108 -260q-9 -28 -11.5 -48
t0.5 -28t8 -8q8 0 27 17q46 49 58 64q14 18 30 8q11 -11 1 -23q-34 -39 -87 -88q-25 -25 -44 -25zM141 298q70 59 124 142q28 43 45 95q6 19 -15 32q-29 20 -58 -1q-41 -28 -82.5 -100.5t-41.5 -147.5q0 -25 4.5 -30t23.5 10zM52 127q-17 0 -22 3.5t-1 12.5q11 19 42 18
q135 -5 190 0q28 4 31 6q10 4 17.5 6.5t13.5 3.5t9 -1t3 -7q0 -6 -8.5 -16t-20.5 -16q-16 -10 -37 -10q-27 0 -107.5 0.5t-109.5 -0.5z" />
    <glyph glyph-name="guillemotleft" unicode="&#xab;" horiz-adv-x="412" 
d="M226 375q2 -2 3 -4t0.5 -4l-1 -4t-2.5 -4.5t-3.5 -4.5t-4 -4.5l-4 -4t-4.5 -4t-4 -3.5q-80 -69 -113 -107q-15 -16 -16.5 -21.5t5.5 -18.5q19 -28 64 -83q20 -28 9 -36q-18 -12 -36 13q-15 19 -42 55t-37 49q-16 22 8 46q40 39 138 128q29 25 40 12zM403 375q2 -2 3 -4
t0.5 -4l-1 -4t-2.5 -4.5t-3.5 -4.5t-4 -4.5l-4 -4t-4.5 -4t-4 -3.5q-77 -66 -114 -107q-15 -16 -16.5 -21.5t6.5 -18.5q17 -25 63 -83q21 -28 10 -36q-18 -11 -37 13q-13 17 -39 52t-39 52q-16 22 8 46q40 39 138 128q29 25 40 12z" />
    <glyph glyph-name="logicalnot" unicode="&#xac;" horiz-adv-x="453" 
d="M73 269q-16 0 -21 4t0 14q9 14 15 16t29 2q192 1 276 5q21 1 30 -4t7 -19q0 -1 -6 -25.5t-12.5 -53.5t-8.5 -44q-2 -22 -25 -25q-10 -2 -15.5 2t-3.5 15q11 36 23 97q3 12 1 15.5t-13 3.5q-36 0 -147.5 -1.5t-128.5 -1.5z" />
    <glyph glyph-name="uni00AD" unicode="&#xad;" horiz-adv-x="0" 
d="M96 304q9 9 19 8.5t12.5 -9.5t-6.5 -26q-10 -18 -24.5 -22.5t-47.5 -5.5q-58 -2 -115 -2q-16 0 -21 4.5t-1 14.5q7 18 35 18h29.5h27h21.5t19.5 1t15.5 2.5t14.5 3.5t11 5.5t10.5 7.5z" />
    <glyph glyph-name="registered" unicode="&#xae;" horiz-adv-x="657" 
d="M44 279q12 130 114.5 222t224.5 92q120 0 195 -76t63 -216q-12 -129 -109 -221.5t-220 -92.5t-201 77t-67 215zM80 280q-11 -122 55.5 -191t182.5 -69q106 0 192.5 85t96.5 196q10 114 -53.5 187.5t-174.5 73.5q-108 0 -198.5 -84t-100.5 -198zM228 478q2 19 35 14
q53 -6 94 -3q18 2 57 2q40 -1 64.5 -22t24.5 -59q0 -77 -117 -109q-2 -1 -8 -2.5t-7 -2t-3.5 -3.5t-2 -8t2.5 -13q10 -64 42 -104q10 -14 24.5 -16.5t24 0.5t28.5 11q16 8 24 -2q7 -12 -5 -20l-10 -5q-9 -5 -12.5 -6.5t-13.5 -5.5t-16.5 -5.5t-16 -2.5t-16.5 1t-15 6t-15 11
q-26 28 -44.5 80t-18.5 92q0 8 3 9.5t12 2.5q20 2 46 10.5t51.5 30t25.5 48.5q0 22 -17 37t-42 16q-6 1 -29 1t-32 -1q-28 -1 -32 -7q-4 -5 -8 -22q-9 -35 -53 -239q-5 -27 -0.5 -33.5t32.5 -11.5q8 -1 11.5 -6t2.5 -11q-4 -14 -30 -10q-55 6 -111 -3q-9 -1 -13 3t-3 8
q0 13 21 16q31 3 38.5 9.5t16.5 39.5q16 51 53 235q5 20 1 26.5t-24 10.5q-10 1 -15.5 4t-4.5 9z" />
    <glyph glyph-name="macron" unicode="&#xaf;" 
d="M195 508q-24 0 -17 17q5 17 30 17q160 0 210 6q4 1 11 2.5t10.5 2t7.5 0t5.5 -3.5t1.5 -8q0 -12 -20 -25q-9 -6 -28 -6q-36 -2 -211 -2z" />
    <glyph glyph-name="degree" unicode="&#xb0;" horiz-adv-x="311" 
d="M89 473q2 51 40.5 85.5t85.5 34.5q50 0 79 -30.5t28 -81.5q-2 -49 -36.5 -84.5t-85.5 -35.5t-81.5 29.5t-29.5 82.5zM127 473q-1 -79 75 -79q35 0 58 25t25 62q0 35 -20.5 57t-54.5 22q-32 0 -57 -25.5t-26 -61.5z" />
    <glyph glyph-name="plusminus" unicode="&#xb1;" horiz-adv-x="455" 
d="M89 274q-16 0 -20.5 4t1.5 14q11 17 44 17q44 2 113 2q11 1 15 4.5t6 15.5q2 5 17 72q8 32 28 41q10 4 13 -2t0 -22q-11 -43 -20 -85q-3 -14 -1 -17t13 -3q83 0 100 6q11 4 19 5.5t14.5 1t9 -3.5t1.5 -10q-7 -17 -35 -30q-12 -7 -38 -7q-7 0 -18.5 -0.5t-29 -1
t-31.5 -0.5q-12 -1 -15.5 -4t-5.5 -16q-12 -52 -12 -58q-5 -24 -15 -36q-28 -34 -38 -26q-7 4 -8 9t2 10t7.5 13.5t6.5 16.5q6 21 10 40.5t8 33.5q4 12 1 14.5t-16 2.5q-31 0 -75.5 -0.5t-50.5 -0.5zM51 65q-16 0 -22 4t-2 13q9 17 41 17q138 2 163 2q101 0 126 11
q38 16 38 -8q0 -5 -8.5 -14.5t-19.5 -15.5q-7 -3 -38 -6q-71 -3 -278 -3z" />
    <glyph glyph-name="twosuperior" unicode="&#xb2;" horiz-adv-x="314" 
d="M191 642q6 -2 6.5 -7.5t-4.5 -8.5q-2 -1 -4.5 -6.5t-4.5 -11.5t0.5 -10.5t9.5 -4.5q17 0 52.5 8t47.5 8q23 0 36.5 -13t13.5 -37q0 -46 -90 -140q-78 -74 -110 -100q-7 -7 -2 -10q2 -1 5 1q16 2 29 2q18 0 40 -15t37 -15q18 0 36 17t20 34q0 5 3.5 11.5t8.5 6.5
q6 0 8.5 -3t2.5 -5.5v-10.5q0 -26 -25.5 -57.5t-63.5 -31.5q-13 0 -37 16.5t-47 16.5q-25 0 -51 -6.5t-36 -14.5q-16 -14 -25 -7q-10 6 -2 26q4 9 11.5 15.5t24 17t26.5 18.5q56 42 129.5 117t73.5 113q0 21 -20 21q-12 0 -45 -7.5t-56 -7.5q-17 0 -27 9t-10 22q0 21 14 35
q16 20 25 15z" />
    <glyph glyph-name="threesuperior" unicode="&#xb3;" horiz-adv-x="285" 
d="M92 252q-68 0 -68 41q0 20 15.5 36.5t34.5 22.5q10 2 15 -5t-3 -15q-1 -1 -8.5 -6t-12.5 -10.5t-5 -11.5q0 -4 0.5 -6.5t2 -4.5t3 -3.5t5 -2.5t5.5 -1.5t6 -0.5h6.5h7.5h8q46 0 90.5 34t44.5 60q0 18 -3.5 27.5t-14 14t-19 5t-29.5 0.5q-46 0 -50 5q-3 5 2 15q6 14 33 21
q33 9 64.5 30t31.5 48q0 32 -24 32q-16 0 -44 -8t-44 -8q-38 0 -38 34q0 21 15 36q6 10 16 8q12 -2 6 -14q-16 -31 5 -31q8 0 42.5 8t49.5 8q20 0 32 -9.5t15 -19.5t3 -21q0 -29 -18 -55.5t-44 -36.5q-27 -10 -27 -13q0 -6 22 -6q53 -1 53 -63q0 -43 -55 -88.5t-127 -45.5z
" />
    <glyph glyph-name="acute" unicode="&#xb4;" 
d="M341 613q7 9 11 13.5t10.5 7.5t9.5 4t15 4q22 5 20 -6q0 -5 -7 -10q-14 -9 -47 -46.5t-48 -59.5q-16 -20 -29 -17q-14 5 -2 23q9 15 36.5 49t30.5 38z" />
    <glyph glyph-name="mu" unicode="&#xb5;" 
d="M423 427q3 0 4.5 -4t1 -10.5t-3.5 -13.5q-63 -157 -93 -269q-3 -11 -6 -24t-6 -30.5t-0.5 -29t10.5 -11.5q14 0 91 83q14 16 24 4q11 -12 -8 -31q-50 -50 -89 -82q-19 -15 -35 -15q-33 0 -33 55q0 19 21 90q7 23 3.5 25t-21.5 -19q-36 -43 -112 -121q-1 0 -8 -7
t-11.5 -10.5t-13 -7.5t-16.5 -4q-17 0 -24 8q-5 5 -9 2t-6 -9l-38 -130q-8 -25 -17 -36q-10 -11 -23.5 -17t-20.5 -2q-11 6 11 37q11 13 14 25q13 37 23.5 72.5t24.5 86t27 94.5q47 153 94 271q11 30 34 30q5 0 6 -8.5t-3 -19.5q-69 -179 -95 -275q-25 -91 10 -91
q5 0 12 4.5t16 13.5t16.5 17t19 20.5t16.5 18.5q80 85 104 125t74 165q12 30 35 30z" />
    <glyph glyph-name="mu" unicode="&#x3bc;" 
d="M423 427q3 0 4.5 -4t1 -10.5t-3.5 -13.5q-63 -157 -93 -269q-3 -11 -6 -24t-6 -30.5t-0.5 -29t10.5 -11.5q14 0 91 83q14 16 24 4q11 -12 -8 -31q-50 -50 -89 -82q-19 -15 -35 -15q-33 0 -33 55q0 19 21 90q7 23 3.5 25t-21.5 -19q-36 -43 -112 -121q-1 0 -8 -7
t-11.5 -10.5t-13 -7.5t-16.5 -4q-17 0 -24 8q-5 5 -9 2t-6 -9l-38 -130q-8 -25 -17 -36q-10 -11 -23.5 -17t-20.5 -2q-11 6 11 37q11 13 14 25q13 37 23.5 72.5t24.5 86t27 94.5q47 153 94 271q11 30 34 30q5 0 6 -8.5t-3 -19.5q-69 -179 -95 -275q-25 -91 10 -91
q5 0 12 4.5t16 13.5t16.5 17t19 20.5t16.5 18.5q80 85 104 125t74 165q12 30 35 30z" />
    <glyph glyph-name="paragraph" unicode="&#xb6;" 
d="M363 580q14 0 49 -1.5t48 -1.5q40 0 69 4q27 2 27 -16t-28 -19q-38 -1 -46.5 -9.5t-21.5 -52.5q-14 -50 -105 -435q-7 -35 -34 -48q-35 -17 -45 4q-6 14 20 36q16 12 24 43q35 131 110 436q5 18 -7 20q-2 1 -8 1l-6 1q-29 3 -33 -14q-114 -435 -125 -479q-10 -36 -35 -48
q-34 -17 -44 4q-3 7 3.5 18.5t16.5 19.5q21 18 28 48q22 87 38 153q4 21 -11 15q-53 -22 -108 -22q-42 0 -68 28t-26 71q0 97 98 170.5t220 73.5z" />
    <glyph glyph-name="periodcentered" unicode="&#xb7;" horiz-adv-x="146" 
d="M99 232q-24 0 -37.5 14.5t-13.5 38.5q0 22 17 40t46 18q22 0 36 -13t14 -31q0 -32 -19 -49.5t-43 -17.5z" />
    <glyph glyph-name="cedilla" unicode="&#xb8;" 
d="M259 16q6 5 13 4.5t10 -3.5q9 -11 -7 -29l-28 -34q-12 -15 -12.5 -22.5t7.5 -20.5q22 -49 1.5 -78.5t-70.5 -40.5q-20 -4 -25 1q-4 4 -3.5 12.5t8.5 10.5q23 7 39 19t22.5 29.5t-9.5 38.5q-13 20 -14 29t9 23z" />
    <glyph glyph-name="onesuperior" unicode="&#xb9;" horiz-adv-x="278" 
d="M107 497q11 11 50 42t53 44q15 15 23 19.5t25 7.5q9 2 12.5 -5t-1.5 -25q-34 -90 -82 -264q-9 -32 0 -38t63 -8q17 -2 13 -17q-6 -17 -29 -15q-29 2 -90.5 2t-86.5 -3q-11 -1 -16 4.5t-3 11.5q4 16 28 17q50 2 61.5 7.5t20.5 31.5q12 39 35.5 117t33.5 110q3 8 0 10
t-9 -4l-85 -71q-6 -5 -13 -4t-10 5q-6 12 7 25z" />
    <glyph glyph-name="ordmasculine" unicode="&#xba;" 
d="M191 237q-36 0 -51 35t-15 82q1 88 61.5 174t131.5 86q60 0 60 -101q-1 -61 -28.5 -125.5t-71.5 -107.5t-87 -43zM306 571q-48 0 -96 -67.5t-48 -148.5q0 -80 39 -80q44 0 90.5 74t46.5 155q0 67 -32 67zM84 127q-17 0 -22 3.5t-1 12.5q10 18 42 16q78 -3 126 0
q27 4 31 6q44 21 43 3q0 -15 -29 -31q-16 -10 -37 -10q-27 0 -75.5 0.5t-77.5 -0.5z" />
    <glyph glyph-name="guillemotright" unicode="&#xbb;" horiz-adv-x="412" 
d="M37 72q-11 11 20 37q88 77 114 108q15 16 16.5 21.5t-6.5 18.5q-16 27 -63 83q-21 27 -9 35q16 12 36 -12q25 -32 78 -105q16 -21 -8 -45q-75 -72 -138 -128q-27 -24 -40 -13zM214 72q-11 11 20 37q80 71 114 108q15 16 16.5 21.5t-6.5 18.5q-17 26 -63 83q-22 28 -10 35
q17 12 37 -12l78 -105q15 -22 -8 -45q-75 -72 -138 -128q-28 -25 -40 -13z" />
    <glyph glyph-name="onequarter" unicode="&#xbc;" horiz-adv-x="756" 
d="M678 370q8 1 11 -2t1.5 -11t-4 -15t-8.5 -20q-5 -9 -20 -79t-19 -100q0 -5 23 -8q9 -1 13.5 1.5t9 10.5t5.5 10q7 10 16 5t6 -14q-20 -51 -44 -51q-17 0 -28 4q-7 1 -11.5 -3.5t-7.5 -17.5q-5 -37 -10 -56q-6 -23 -18 -35q-15 -16 -27 -16q-14 0 -12 15q1 7 11 23.5
t15 33.5q4 14 12 48q1 9 -9 14q-21 7 -58 7q-20 0 -47.5 -5.5t-40.5 -7.5q-25 -4 -25 9q0 33 32 63q76 73 173 159q23 22 33.5 28.5t27.5 9.5zM159 -33q-13 6 -8.5 16.5t33.5 48.5q56 73 182 241t160 218q27 39 42 91q1 3 3 10.5t3.5 10.5t6 5.5t11.5 0.5q21 -4 3 -65
q-1 -4 -2 -6q-12 -35 -36 -64q-215 -285 -346 -465q-32 -44 -52 -42zM107 497q11 11 50 42t53 44q15 15 23 19.5t25 7.5q9 2 12.5 -5t-1.5 -25q-34 -90 -82 -264q-9 -32 0 -38t63 -8q17 -2 13 -17q-6 -17 -29 -15q-29 2 -90.5 2t-86.5 -3q-11 -1 -16 4.5t-3 11.5q4 16 28 17
q50 2 61.5 7.5t20.5 31.5q12 39 35.5 117t33.5 110q3 8 0 10t-9 -4l-85 -71q-6 -5 -13 -4t-10 5q-6 12 7 25zM636 291q1 6 1.5 8.5t-1 4t-5 -1l-10.5 -7.5q-107 -94 -157 -143q-13 -10 -5 -12q2 -1 5 0q29 7 67 7q26 0 56 -6q14 -1 18 13t31 137z" />
    <glyph glyph-name="onehalf" unicode="&#xbd;" horiz-adv-x="763" 
d="M563 396q6 -2 6.5 -7t-4.5 -9q-2 -2 -4.5 -7.5t-4.5 -11.5t0 -11t10 -5q17 0 53.5 9t48.5 9q24 0 38.5 -14t14.5 -38q0 -48 -93 -143q-73 -72 -114 -104q-3 -3 -3 -6t2.5 -4t5.5 1q14 2 29 2q18 0 41 -15.5t38 -15.5q19 0 37.5 18t19.5 35q0 5 3.5 11.5t8.5 6.5
q6 0 8.5 -2.5t3 -5t0.5 -8.5v-4q0 -26 -26 -58t-65 -32q-13 0 -38 16.5t-49 16.5q-60 0 -90 -22q-14 -13 -25 -6q-9 6 -3 26q4 9 12.5 16t25 17.5t26.5 18.5q57 43 133 120.5t76 115.5q0 22 -21 22q-12 0 -46 -8t-57 -8q-17 0 -27.5 9.5t-10.5 22.5q0 22 14 36q16 22 26 16z
M142 -33q-13 6 -8 16.5t34 48.5q274 361 341 459q27 39 42 91q1 2 3 10t3.5 11t6 5.5t11.5 0.5q4 -1 6.5 -2.5t3.5 -5l2 -7t0.5 -8.5t-1 -9t-2.5 -10.5t-3 -10t-2.5 -10t-2.5 -8.5q-12 -35 -36 -64q-215 -285 -346 -465q-32 -44 -52 -42zM107 497q11 11 50 42t53 44
q15 15 23 19.5t25 7.5q9 2 12.5 -5t-1.5 -25q-34 -90 -82 -264q-9 -32 0 -38t63 -8q17 -2 13 -17q-6 -17 -29 -15q-29 2 -90.5 2t-86.5 -3q-11 -1 -16 4.5t-3 11.5q4 16 28 17q50 2 61.5 7.5t20.5 31.5q12 39 35.5 117t33.5 110q3 8 0 10t-9 -4l-85 -71q-6 -5 -13 -4t-10 5
q-6 12 7 25z" />
    <glyph glyph-name="threequarters" unicode="&#xbe;" horiz-adv-x="695" 
d="M82 252q-32 0 -50 11t-18 30q0 20 15.5 36.5t35.5 22.5q10 2 15 -5t-3 -15q-1 -1 -8.5 -6t-12.5 -10.5t-5 -11.5q0 -4 0.5 -6.5t2 -4.5t3 -3.5t4.5 -2.5t5.5 -1.5t6.5 -0.5h6.5h7h7.5q47 0 91.5 34t44.5 60q0 18 -3.5 27.5t-14.5 14t-19.5 5t-29.5 0.5q-45 0 -49 5
q-3 5 1 15q7 14 34 21q33 9 64.5 30t31.5 48q0 32 -24 32q-15 0 -44 -8t-44 -8q-39 0 -39 34q0 19 15 36q6 10 16 8q5 -1 7 -5t-1 -9q-15 -31 6 -31q8 0 42.5 8t49.5 8q20 0 32 -9.5t15 -19.5t3 -21q0 -29 -18.5 -55.5t-44.5 -36.5q-27 -11 -27 -13q2 -6 23 -6q53 -1 53 -63
q0 -43 -55.5 -88.5t-127.5 -45.5zM618 370q14 1 13 -12q-1 -8 -13 -36q-5 -9 -20 -78.5t-19 -99.5q0 -5 24 -8q9 -1 13 1t8.5 10.5t5.5 9.5q6 6 11.5 6t9 -5t1.5 -10q-20 -51 -44 -51q-17 0 -28 4q-7 1 -11 -3.5t-8 -17.5q-6 -43 -10 -56q-6 -22 -17 -35q-15 -16 -28 -16
q-14 0 -12 15q1 7 11 23.5t15 33.5q4 14 12 48q2 8 -8 14q-23 7 -59 7q-20 0 -47 -5.5t-41 -7.5q-24 -3 -24 9q0 34 31 63q118 110 173 159q23 22 33.5 28.5t27.5 9.5zM576 291q1 6 1.5 8.5t-1 4t-5 -1l-10.5 -7.5q-130 -116 -157 -143q-13 -9 -5 -12q2 -1 5 0q29 7 67 7
q31 0 56 -5q14 -1 18 13q4 12 31 136zM106 -33q-13 6 -8.5 16.5t33.5 48.5q56 73 182 241t160 218q28 42 42 91q1 3 3 10.5t3.5 10.5t6 5.5t11.5 0.5q21 -4 3 -65q-1 -4 -2 -6q-12 -35 -36 -64q-215 -285 -346 -465q-32 -44 -52 -42z" />
    <glyph glyph-name="questiondown" unicode="&#xbf;" horiz-adv-x="379" 
d="M238 252q18 0 13 -24q-16 -71 -62 -114q-46 -42 -94 -74q-50 -32 -68.5 -62t-18.5 -66q0 -27 27 -48t89 -21t109.5 38.5t47.5 73.5q0 30 -26.5 38.5t-63.5 -10.5q-20 -10 -29 4q-3 6 0.5 9.5t15.5 11.5q29 22 67 22q30 0 51 -17.5t21 -57.5q0 -49 -57.5 -96t-144.5 -47
q-84 0 -116.5 29.5t-32.5 66.5q0 46 29.5 84.5t92.5 81.5q49 33 74 62q44 47 53 92q9 24 23 24zM258 356q-15 -2 -27.5 6t-12.5 21q0 37 43 44q20 2 31 -7.5t11 -23.5q0 -17 -14 -27.5t-31 -12.5z" />
    <glyph glyph-name="Agrave" unicode="&#xc0;" horiz-adv-x="648" 
d="M448 601q11 -85 39.5 -268t33.5 -208q2 -7 4.5 -21.5t3.5 -19t3.5 -14t4.5 -12.5t5.5 -9t7 -7.5t9 -5t12.5 -4.5t16 -3q17 -3 17 -19q-2 -15 -29 -12q-21 2 -39 2.5t-28.5 0t-31.5 -2t-36 -2.5q-20 0 -20 10q0 11 14 17q20 6 26.5 8t17 8t13 13.5t1.5 19.5
q-11 88 -17 101q-5 12 -20 15q-19 2 -120 2t-125 -1q-35 0 -47 -14l-78 -105q-14 -19 -8 -25q10 -9 66 -12q13 -1 26 -6t12 -14q-1 -7 -12 -11.5t-23 -2.5q-60 7 -118 1q-15 -2 -26 1.5t-11 10.5q0 8 11 20.5t27 27.5t22 23q209 283 337 473q9 13 13.5 27t7 21.5t7.5 9.5
q13 7 21.5 5t10.5 -18zM466 244q-20 141 -38 245q-8 41 -14.5 39.5t-37.5 -47.5q-15 -22 -73.5 -104.5t-91.5 -130.5q-14 -22 5 -23q33 -2 233 -2q21 0 17 23zM425 660q-54 30 -108 73q-20 15 -5 30q14 12 23 3q60 -53 103 -80q4 -2 6 -8t0 -10q-8 -13 -19 -8z" />
    <glyph glyph-name="Aacute" unicode="&#xc1;" horiz-adv-x="648" 
d="M448 601q11 -85 39.5 -268t33.5 -208q2 -7 4.5 -21.5t3.5 -19t3.5 -14t4.5 -12.5t5.5 -9t7 -7.5t9 -5t12.5 -4.5t16 -3q17 -3 17 -19q-2 -15 -29 -12q-21 2 -39 2.5t-28.5 0t-31.5 -2t-36 -2.5q-20 0 -20 10q0 11 14 17q20 6 26.5 8t17 8t13 13.5t1.5 19.5
q-11 88 -17 101q-5 12 -20 15q-19 2 -120 2t-125 -1q-35 0 -47 -14l-78 -105q-14 -19 -8 -25q10 -9 66 -12q13 -1 26 -6t12 -14q-1 -7 -12 -11.5t-23 -2.5q-60 7 -118 1q-15 -2 -26 1.5t-11 10.5q0 8 11 20.5t27 27.5t22 23q209 283 337 473q9 13 13.5 27t7 21.5t7.5 9.5
q13 7 21.5 5t10.5 -18zM466 244q-20 141 -38 245q-8 41 -14.5 39.5t-37.5 -47.5q-15 -22 -73.5 -104.5t-91.5 -130.5q-14 -22 5 -23q33 -2 233 -2q21 0 17 23zM532 744q19 14 53 21q17 4 18 -8t-11 -17q-16 -6 -59.5 -31.5t-65.5 -40.5q-22 -13 -33 -6q-11 9 5 22
q14 12 52 35t41 25z" />
    <glyph glyph-name="Acircumflex" unicode="&#xc2;" horiz-adv-x="648" 
d="M448 601q11 -85 39.5 -268t33.5 -208q2 -7 4.5 -21.5t3.5 -19t3.5 -14t4.5 -12.5t5.5 -9t7 -7.5t9 -5t12.5 -4.5t16 -3q17 -3 17 -19q-2 -15 -29 -12q-21 2 -39 2.5t-28.5 0t-31.5 -2t-36 -2.5q-20 0 -20 10q0 11 14 17q20 6 26.5 8t17 8t13 13.5t1.5 19.5
q-11 88 -17 101q-5 12 -20 15q-19 2 -120 2t-125 -1q-35 0 -47 -14l-78 -105q-14 -19 -8 -25q10 -9 66 -12q13 -1 26 -6t12 -14q-1 -7 -12 -11.5t-23 -2.5q-60 7 -118 1q-15 -2 -26 1.5t-11 10.5q0 8 11 20.5t27 27.5t22 23q209 283 337 473q9 13 13.5 27t7 21.5t7.5 9.5
q13 7 21.5 5t10.5 -18zM466 244q-20 141 -38 245q-8 41 -14.5 39.5t-37.5 -47.5q-15 -22 -73.5 -104.5t-91.5 -130.5q-14 -22 5 -23q33 -2 233 -2q21 0 17 23zM468 769q11 3 15 0t7 -15q6 -21 29 -72q9 -19 -4 -23q-18 -3 -25 11q-8 12 -20 41q-4 9 -7 11t-6 0.5t-13 -9.5
q-20 -15 -43 -38q-22 -19 -39 -13q-7 4 -2.5 11.5t20.5 20.5q8 4 55 52q24 22 33 23z" />
    <glyph glyph-name="Atilde" unicode="&#xc3;" horiz-adv-x="648" 
d="M448 601q11 -85 39.5 -268t33.5 -208q2 -7 4.5 -21.5t3.5 -19t3.5 -14t4.5 -12.5t5.5 -9t7 -7.5t9 -5t12.5 -4.5t16 -3q17 -3 17 -19q-2 -15 -29 -12q-21 2 -39 2.5t-28.5 0t-31.5 -2t-36 -2.5q-20 0 -20 10q0 11 14 17q20 6 26.5 8t17 8t13 13.5t1.5 19.5
q-11 88 -17 101q-5 12 -20 15q-19 2 -120 2t-125 -1q-35 0 -47 -14l-78 -105q-14 -19 -8 -25q10 -9 66 -12q13 -1 26 -6t12 -14q-1 -7 -12 -11.5t-23 -2.5q-60 7 -118 1q-15 -2 -26 1.5t-11 10.5q0 8 11 20.5t27 27.5t22 23q209 283 337 473q9 13 13.5 27t7 21.5t7.5 9.5
q13 7 21.5 5t10.5 -18zM466 244q-20 141 -38 245q-8 41 -14.5 39.5t-37.5 -47.5q-15 -22 -73.5 -104.5t-91.5 -130.5q-14 -22 5 -23q33 -2 233 -2q21 0 17 23zM396 699q-47 -39 -55 -30q-10 12 37 52q31 26 46 25.5t36 -21.5q22 -21 32 -20.5t32 22.5q25 25 35 21
q10 -3 -0.5 -19.5t-25.5 -31.5q-25 -25 -42 -28t-42 20q-17 19 -25.5 21.5t-27.5 -11.5z" />
    <glyph glyph-name="Adieresis" unicode="&#xc4;" horiz-adv-x="648" 
d="M448 601q11 -85 39.5 -268t33.5 -208q2 -7 4.5 -21.5t3.5 -19t3.5 -14t4.5 -12.5t5.5 -9t7 -7.5t9 -5t12.5 -4.5t16 -3q17 -3 17 -19q-2 -15 -29 -12q-21 2 -39 2.5t-28.5 0t-31.5 -2t-36 -2.5q-20 0 -20 10q0 11 14 17q20 6 26.5 8t17 8t13 13.5t1.5 19.5
q-11 88 -17 101q-5 12 -20 15q-19 2 -120 2t-125 -1q-35 0 -47 -14l-78 -105q-14 -19 -8 -25q10 -9 66 -12q13 -1 26 -6t12 -14q-1 -7 -12 -11.5t-23 -2.5q-60 7 -118 1q-15 -2 -26 1.5t-11 10.5q0 8 11 20.5t27 27.5t22 23q209 283 337 473q9 13 13.5 27t7 21.5t7.5 9.5
q13 7 21.5 5t10.5 -18zM466 244q-20 141 -38 245q-8 41 -14.5 39.5t-37.5 -47.5q-15 -22 -73.5 -104.5t-91.5 -130.5q-14 -22 5 -23q33 -2 233 -2q21 0 17 23zM412 715q-1 -17 -17 -30.5t-32 -13.5q-17 0 -15 23q2 21 13.5 34.5t28.5 13.5q22 0 22 -27zM551 715
q0 -17 -15.5 -30.5t-31.5 -13.5q-17 0 -15 23q2 21 13.5 34.5t28.5 13.5q21 0 20 -27z" />
    <glyph glyph-name="Aring" unicode="&#xc5;" horiz-adv-x="648" 
d="M448 601q11 -85 39.5 -268t33.5 -208q2 -7 4.5 -21.5t3.5 -19t3.5 -14t4.5 -12.5t5.5 -9t7 -7.5t9 -5t12.5 -4.5t16 -3q17 -3 17 -19q-2 -15 -29 -12q-21 2 -39 2.5t-28.5 0t-31.5 -2t-36 -2.5q-20 0 -20 10q0 11 14 17q20 6 26.5 8t17 8t13 13.5t1.5 19.5
q-11 88 -17 101q-5 12 -20 15q-19 2 -120 2t-125 -1q-35 0 -47 -14l-78 -105q-14 -19 -8 -25q10 -9 66 -12q13 -1 26 -6t12 -14q-1 -7 -12 -11.5t-23 -2.5q-60 7 -118 1q-15 -2 -26 1.5t-11 10.5q0 8 11 20.5t27 27.5t22 23q209 283 337 473q9 13 13.5 27t7 21.5t7.5 9.5
q13 7 21.5 5t10.5 -18zM466 244q-20 141 -38 245q-8 41 -14.5 39.5t-37.5 -47.5q-15 -22 -73.5 -104.5t-91.5 -130.5q-14 -22 5 -23q33 -2 233 -2q21 0 17 23zM477 795q28 0 46 -17t18 -44q0 -37 -30.5 -65t-69.5 -27q-30 0 -50 16.5t-20 42.5q0 38 32.5 66t73.5 28z
M467 766q-24 0 -42.5 -18t-18.5 -40q0 -16 12 -26.5t30 -10.5q23 0 41 17t18 44q0 17 -12.5 25.5t-27.5 8.5z" />
    <glyph glyph-name="AE" unicode="&#xc6;" horiz-adv-x="875" 
d="M872 562q2 -22 -9.5 -54t-29.5 -48q-15 -13 -22 -5q-8 11 -1 21q29 42 27 69q-1 14 -6.5 20.5t-24.5 6.5t-101 -5t-125 -3q-24 1 -30 -24q-19 -77 -36 -174q-7 -14 -1 -24.5t36 -10.5q10 0 41.5 -0.5t37.5 -0.5q42 0 54 9.5t30 60.5q8 18 27 15q13 0 2 -30
q-25 -66 -46 -156q-2 -20 -20 -21q-4 0 -7.5 6t-2.5 14q9 38 0.5 51.5t-39.5 16.5q-33 3 -97 3q-18 -2 -24.5 -6.5t-10.5 -18.5q-12 -48 -38 -165q-7 -43 -2 -55.5t22 -13.5q129 -3 178 -8q47 -5 85 33q39 38 55 97q6 19 28 19q15 -2 1 -43q-10 -31 -38.5 -73.5t-63.5 -60.5
q-25 -9 -58 -8q-151 11 -226 10q-1 0 -98 -10q-28 -4 -28 15q-1 9 6.5 14.5t20.5 7.5q41 4 55.5 18t25.5 58l15 62q2 10 -3 14t-18 4q-112 4 -176 0q-8 0 -13.5 -0.5t-9 -2.5t-5.5 -3t-4.5 -4t-3.5 -4q-13 -14 -46.5 -51t-50.5 -54q-18 -19 -13 -25q8 -9 63 -12q11 -1 19 -6
t5 -14q-7 -17 -29 -14q-62 8 -127 1q-16 -2 -26 1.5t-9 10.5q2 8 15 20.5t32.5 27.5t27.5 23q228 235 420 450q19 21 16 28.5t-36 9.5q-14 1 -25 5.5t-8 13.5q6 22 51 15q72 -7 128 -7t130 4.5t79 4.5q30 0 41.5 -10t13.5 -35zM472 475q-21 -23 -93.5 -102.5t-114.5 -126.5
q-5 -6 -8 -10t-3.5 -7t1.5 -4.5t7 -1.5q27 -2 165 -2q13 0 17 4t7 17q25 111 51 238q4 19 -4 16q-6 -2 -25 -21z" />
    <glyph glyph-name="Ccedilla" unicode="&#xc7;" horiz-adv-x="545" 
d="M465 119q11 11 23 16t17 1q13 -7 -11 -34q-50 -51 -92.5 -75.5t-94.5 -31.5q-20 -1 -29 -14q-4 -4 -11 -13t-12 -14q-12 -15 -12.5 -22.5t7.5 -20.5q22 -49 1.5 -78.5t-70.5 -40.5q-20 -4 -25 1q-4 4 -3.5 12.5t8.5 10.5q23 7 39 19t22.5 29.5t-9.5 38.5q-13 20 -14 29
t9 23q4 3 23 25q6 6 6 8.5t-1.5 3.5t-9.5 2q-6 1 -9 2q-78 13 -117 74.5t-39 132.5q0 73 23 139t59.5 114t82.5 83.5t92.5 53.5t88.5 18q130 0 130 -64q0 -25 -18 -53t-44 -45q-2 -1 -5.5 -3t-5.5 -3.5t-5 -3t-5.5 -2t-5 -0.5t-4.5 1t-4 3q-7 6 -4 15.5t12 14.5q47 26 47 64
q0 41 -92 41q-50 0 -103 -28t-97 -75.5t-72.5 -119t-28.5 -150.5q0 -74 43 -124t120 -50q40 0 73.5 9t60 27t38 27.5t28.5 26.5z" />
    <glyph glyph-name="Egrave" unicode="&#xc8;" horiz-adv-x="478" 
d="M391 660q-54 30 -108 73q-20 16 -5 30q12 12 23 3q53 -49 102 -80q11 -7 7 -18q-9 -13 -19 -8zM221 -8q-189 0 -189 149q0 72 58 127.5t127 76.5q21 7 20.5 10t-22.5 9q-29 8 -50 30.5t-21 54.5q1 65 71 113.5t166 48.5q24 0 40 -2t33.5 -8t26.5 -20.5t9 -37.5
q0 -36 -46 -75q-26 -19 -40 -10q-4 3 -2 11.5t10 13.5q38 25 38 57q0 37 -75 37q-86 0 -138.5 -41t-52.5 -81q0 -28 27 -46.5t57.5 -25t60.5 -6.5q27 0 39 2q5 1 9 0t7 -5t-2 -13q-9 -19 -34 -20q-60 -3 -122.5 -28t-107 -71t-44.5 -98t34.5 -84.5t112.5 -32.5
q65 0 119 38.5t82 78.5q3 7 13.5 11t19.5 0q11 -6 -5 -31q-36 -57 -103.5 -94.5t-125.5 -37.5z" />
    <glyph glyph-name="Eacute" unicode="&#xc9;" horiz-adv-x="478" 
d="M465 744q19 14 53 21q11 3 15.5 -2t1 -12.5t-10.5 -10.5q-16 -6 -60 -32t-64 -40q-22 -13 -33 -6q-11 9 5 22q10 9 27 20t38 23t28 17zM221 -8q-189 0 -189 149q0 72 58 127.5t127 76.5q21 7 20.5 10t-22.5 9q-29 8 -50 30.5t-21 54.5q1 65 71 113.5t166 48.5q24 0 40 -2
t33.5 -8t26.5 -20.5t9 -37.5q0 -36 -46 -75q-26 -19 -40 -10q-4 3 -2 11.5t10 13.5q38 25 38 57q0 37 -75 37q-86 0 -138.5 -41t-52.5 -81q0 -28 27 -46.5t57.5 -25t60.5 -6.5q27 0 39 2q5 1 9 0t7 -5t-2 -13q-9 -19 -34 -20q-60 -3 -122.5 -28t-107 -71t-44.5 -98
t34.5 -84.5t112.5 -32.5q65 0 119 38.5t82 78.5q3 7 13.5 11t19.5 0q11 -6 -5 -31q-36 -57 -103.5 -94.5t-125.5 -37.5z" />
    <glyph glyph-name="Ecircumflex" unicode="&#xca;" horiz-adv-x="478" 
d="M410 769q11 3 15 0t7 -15q6 -21 29 -72q9 -19 -4 -23q-18 -3 -25 11q-8 12 -20 41q-4 9 -7 11t-6 0.5t-13 -9.5q-20 -15 -43 -38q-22 -19 -39 -13q-7 4 -2.5 11.5t20.5 20.5q8 4 55 52q24 22 33 23zM221 -8q-189 0 -189 149q0 72 58 127.5t127 76.5q21 7 20.5 10t-22.5 9
q-29 8 -50 30.5t-21 54.5q1 65 71 113.5t166 48.5q24 0 40 -2t33.5 -8t26.5 -20.5t9 -37.5q0 -36 -46 -75q-26 -19 -40 -10q-4 3 -2 11.5t10 13.5q38 25 38 57q0 37 -75 37q-86 0 -138.5 -41t-52.5 -81q0 -28 27 -46.5t57.5 -25t60.5 -6.5q27 0 39 2q5 1 9 0t7 -5t-2 -13
q-9 -19 -34 -20q-60 -3 -122.5 -28t-107 -71t-44.5 -98t34.5 -84.5t112.5 -32.5q65 0 119 38.5t82 78.5q3 7 13.5 11t19.5 0q11 -6 -5 -31q-36 -57 -103.5 -94.5t-125.5 -37.5z" />
    <glyph glyph-name="Edieresis" unicode="&#xcb;" horiz-adv-x="478" 
d="M221 -8q-189 0 -189 149q0 72 58 127.5t127 76.5q21 7 20.5 10t-22.5 9q-29 8 -50 30.5t-21 54.5q1 65 71 113.5t166 48.5q24 0 40 -2t33.5 -8t26.5 -20.5t9 -37.5q0 -36 -46 -75q-26 -19 -40 -10q-4 3 -2 11.5t10 13.5q38 25 38 57q0 37 -75 37q-86 0 -138.5 -41
t-52.5 -81q0 -28 27 -46.5t57.5 -25t60.5 -6.5q27 0 39 2q5 1 9 0t7 -5t-2 -13q-9 -19 -34 -20q-60 -3 -122.5 -28t-107 -71t-44.5 -98t34.5 -84.5t112.5 -32.5q65 0 119 38.5t82 78.5q3 7 13.5 11t19.5 0q11 -6 -5 -31q-36 -57 -103.5 -94.5t-125.5 -37.5zM354 715
q-1 -17 -16.5 -30.5t-31.5 -13.5q-17 0 -15 23q2 21 13.5 34.5t27.5 13.5q22 0 22 -27zM494 715q-1 -17 -16 -30.5t-31 -13.5q-17 0 -15 23q2 21 13.5 34.5t28.5 13.5q21 0 20 -27z" />
    <glyph glyph-name="Igrave" unicode="&#xcc;" horiz-adv-x="292" 
d="M122 591q2 12 15 13.5t39 -1.5q60 -7 126 -1q54 4 54 -9q0 -20 -34 -21q-44 -1 -55 -10.5t-21 -50.5q-53 -200 -94 -397q-12 -55 -2.5 -67t65.5 -17q14 -1 19.5 -5t2.5 -13t-19.5 -11.5t-28.5 -0.5q-91 10 -176 -2q-20 -2 -27 2t-5 13q3 9 8.5 11t27.5 4q6 1 10 1
q43 4 54 15.5t27 58.5q32 100 95 402q8 46 1.5 55t-47.5 15q-33 4 -35 9q-1 3 0 7zM280 660q-54 30 -107 73q-21 15 -5 30q12 13 22 3q60 -53 103 -80q9 -6 7 -18q-10 -12 -20 -8z" />
    <glyph glyph-name="Iacute" unicode="&#xcd;" horiz-adv-x="292" 
d="M122 591q2 12 15 13.5t39 -1.5q60 -7 126 -1q54 4 54 -9q0 -20 -34 -21q-44 -1 -55 -10.5t-21 -50.5q-53 -200 -94 -397q-12 -55 -2.5 -67t65.5 -17q14 -1 19.5 -5t2.5 -13t-19.5 -11.5t-28.5 -0.5q-91 10 -176 -2q-20 -2 -27 2t-5 13q3 9 8.5 11t27.5 4q6 1 10 1
q43 4 54 15.5t27 58.5q32 100 95 402q8 46 1.5 55t-47.5 15q-33 4 -35 9q-1 3 0 7zM338 744q7 5 12.5 8t11 5.5t8 3t10.5 2t11 2.5q12 3 16 -2t1 -12.5t-10 -10.5q-16 -6 -60 -32t-64 -40q-23 -13 -33 -6q-11 9 5 22q14 12 52.5 35.5t39.5 24.5z" />
    <glyph glyph-name="Icircumflex" unicode="&#xce;" horiz-adv-x="292" 
d="M122 591q2 12 15 13.5t39 -1.5q60 -7 126 -1q54 4 54 -9q0 -20 -34 -21q-44 -1 -55 -10.5t-21 -50.5q-53 -200 -94 -397q-12 -55 -2.5 -67t65.5 -17q14 -1 19.5 -5t2.5 -13t-19.5 -11.5t-28.5 -0.5q-91 10 -176 -2q-20 -2 -27 2t-5 13q3 9 8.5 11t27.5 4q6 1 10 1
q43 4 54 15.5t27 58.5q32 100 95 402q8 46 1.5 55t-47.5 15q-33 4 -35 9q-1 3 0 7zM282 769q11 3 15 0t7 -15q6 -21 29 -72q9 -19 -4 -23q-18 -3 -25 11q-8 12 -20 41q-4 9 -7 11t-6 0.5t-13 -9.5q-20 -15 -43 -38q-22 -19 -39 -13q-7 4 -2.5 11.5t20.5 20.5q8 4 55 52
q24 22 33 23z" />
    <glyph glyph-name="Idieresis" unicode="&#xcf;" horiz-adv-x="292" 
d="M122 591q2 12 15 13.5t39 -1.5q60 -7 126 -1q54 4 54 -9q0 -20 -34 -21q-44 -1 -55 -10.5t-21 -50.5q-53 -200 -94 -397q-12 -55 -2.5 -67t65.5 -17q14 -1 19.5 -5t2.5 -13t-19.5 -11.5t-28.5 -0.5q-91 10 -176 -2q-20 -2 -27 2t-5 13q3 9 8.5 11t27.5 4q6 1 10 1
q43 4 54 15.5t27 58.5q32 100 95 402q8 46 1.5 55t-47.5 15q-33 4 -35 9q-1 3 0 7zM231 715q-1 -17 -17 -30.5t-32 -13.5q-17 0 -14 23q1 21 12.5 34.5t28.5 13.5q22 0 22 -27zM370 715q0 -17 -15.5 -30.5t-31.5 -13.5q-17 0 -15 23q2 21 13.5 34.5t28.5 13.5q21 0 20 -27z
" />
    <glyph glyph-name="Eth" unicode="&#xd0;" horiz-adv-x="626" 
d="M134 324h-46q-17 0 -22.5 3.5t-0.5 12.5q9 15 41 15q13 -1 36 -1q5 0 8.5 1t5 4t2.5 4.5t2 5.5t1 5q21 86 27 113q16 55 7 71t-59 12q-38 -5 -38 12q0 15 32 18q85 9 193 9q73 0 119 -5q78 -9 126.5 -58.5t48.5 -143.5q0 -157 -109.5 -282.5t-247.5 -125.5
q-100 0 -155 44q-24 14 -9 78q9 38 27 106t22 85q6 17 -11 17zM244 543l-47 -172q-3 -17 16 -17q77 0 137 2q18 0 31 6q20 10 31 11t12 -9q0 -14 -29 -30q-17 -10 -38 -10q-73 -2 -155 0h-9.5t-5.5 -2.5t-3.5 -4.5l-2.5 -10q-24 -96 -43 -191q-6 -24 -3 -35.5t20 -24.5
q36 -27 113 -27q50 0 105 28.5t101 76t75.5 118.5t29.5 148q0 152 -159 172q-60 8 -135 5q-21 0 -28.5 -7t-12.5 -27z" />
    <glyph glyph-name="Ntilde" unicode="&#xd1;" horiz-adv-x="670" 
d="M97 593q3 9 39 10q111 1 155 -20q86 -41 150 -175t78 -250q4 -28 7.5 -37t8 -1t10.5 34q28 105 80 349q4 17 5.5 23t1.5 17t-0.5 13t-7 8t-11.5 6.5t-20 2.5t-27.5 2.5t-38.5 1.5q-13 1 -19 6.5t-4 13.5q4 6 8.5 7.5t32.5 -0.5q76 -7 139 0q41 0 42 -10q0 -11 -19 -16
q-17 -4 -25 -18t-18 -52q-24 -96 -109 -470q-7 -31 -12 -37t-22 -7h-15.5t-7.5 5t-3.5 8.5t-0.5 16.5q-1 99 -26 197.5t-61 168t-75 114t-70 46.5q-11 1 -16 -4.5t-8 -20.5q-10 -38 -42.5 -182t-43.5 -206q-15 -70 -6.5 -86t73.5 -20q19 -1 24.5 -5.5t3.5 -12.5
q-4 -19 -45 -14q-42 5 -158 -2q-18 -1 -18 13q1 15 19 19q1 1 3 1q25 4 35 15.5t21 57.5q37 142 97 407q11 42 -1 51t-75 11q-14 0 -23 6t-5 15zM398 699q-47 -39 -55 -30q-9 12 37 52q31 26 46 25.5t37 -21.5t31.5 -20.5t32.5 22.5q24 26 34 21q11 -3 -0.5 -20.5
t-25.5 -30.5q-25 -25 -42 -28t-41 20q-18 19 -26 21.5t-28 -11.5z" />
    <glyph glyph-name="Ograve" unicode="&#xd2;" horiz-adv-x="692" 
d="M446 660q-54 30 -108 73q-20 15 -5 30q14 12 23 3q60 -53 103 -80q4 -2 6 -8t0 -10q-8 -13 -19 -8zM425 618q120 0 181.5 -69t61.5 -169q0 -96 -43.5 -186.5t-124 -150t-177.5 -59.5q-127 0 -192 75t-65 179q0 93 48 180.5t132 143.5t179 56zM107 242q0 -106 60 -164.5
t160 -59.5q48 0 99.5 24.5t96 69t73.5 115t29 151.5q0 97 -58 149.5t-144 52.5q-126 0 -221 -101.5t-95 -236.5z" />
    <glyph glyph-name="Oacute" unicode="&#xd3;" horiz-adv-x="692" 
d="M515 744q20 14 53 21q12 3 16 -2t1 -12.5t-10 -10.5q-16 -6 -59.5 -31.5t-65.5 -40.5q-22 -13 -32 -6q-12 8 5 22q13 12 52 36t40 24zM425 618q120 0 181.5 -69t61.5 -169q0 -96 -43.5 -186.5t-124 -150t-177.5 -59.5q-127 0 -192 75t-65 179q0 93 48 180.5t132 143.5
t179 56zM107 242q0 -106 60 -164.5t160 -59.5q48 0 99.5 24.5t96 69t73.5 115t29 151.5q0 97 -58 149.5t-144 52.5q-126 0 -221 -101.5t-95 -236.5z" />
    <glyph glyph-name="Ocircumflex" unicode="&#xd4;" horiz-adv-x="692" 
d="M425 618q120 0 181.5 -69t61.5 -169q0 -96 -43.5 -186.5t-124 -150t-177.5 -59.5q-127 0 -192 75t-65 179q0 93 48 180.5t132 143.5t179 56zM107 242q0 -106 60 -164.5t160 -59.5q48 0 99.5 24.5t96 69t73.5 115t29 151.5q0 97 -58 149.5t-144 52.5q-126 0 -221 -101.5
t-95 -236.5zM469 769q11 3 15 0t7 -15q6 -21 29 -72q9 -19 -4 -23q-18 -3 -25 11q-8 12 -20 41q-4 9 -7 11t-6.5 0.5t-13.5 -9.5q-22 -18 -42 -38q-22 -19 -39 -13q-7 4 -2.5 11.5t20.5 20.5q7 4 55 52q24 22 33 23z" />
    <glyph glyph-name="Otilde" unicode="&#xd5;" horiz-adv-x="692" 
d="M425 618q120 0 181.5 -69t61.5 -169q0 -96 -43.5 -186.5t-124 -150t-177.5 -59.5q-127 0 -192 75t-65 179q0 93 48 180.5t132 143.5t179 56zM107 242q0 -106 60 -164.5t160 -59.5q48 0 99.5 24.5t96 69t73.5 115t29 151.5q0 97 -58 149.5t-144 52.5q-126 0 -221 -101.5
t-95 -236.5zM400 699q-47 -39 -55 -30q-9 12 37 52q31 26 46 25.5t37 -21.5q21 -21 31 -20.5t33 22.5q24 26 34 21q11 -3 -0.5 -20.5t-25.5 -30.5q-25 -25 -42 -28t-41 20q-18 19 -26.5 21.5t-27.5 -11.5z" />
    <glyph glyph-name="Odieresis" unicode="&#xd6;" horiz-adv-x="692" 
d="M425 618q120 0 181.5 -69t61.5 -169q0 -96 -43.5 -186.5t-124 -150t-177.5 -59.5q-127 0 -192 75t-65 179q0 93 48 180.5t132 143.5t179 56zM107 242q0 -106 60 -164.5t160 -59.5q48 0 99.5 24.5t96 69t73.5 115t29 151.5q0 97 -58 149.5t-144 52.5q-126 0 -221 -101.5
t-95 -236.5zM414 715q-1 -17 -17 -30.5t-32 -13.5q-17 0 -14 23q2 21 13.5 34.5t27.5 13.5q22 0 22 -27zM554 715q-1 -17 -16 -30.5t-31 -13.5q-17 0 -15 23q1 21 13 34.5t29 13.5q21 0 20 -27z" />
    <glyph glyph-name="multiply" unicode="&#xd7;" 
d="M386 141q11 -11 8 -20t-16 -13q-19 -7 -29 6q-8 10 -41 59t-53 72q-7 10 -21 0q-16 -13 -73.5 -61t-90.5 -74q-11 -8 -20.5 -6.5t-10.5 8.5q0 20 9 27q140 110 163 130q17 15 7 25q-36 40 -109 129q-15 15 2 26q5 3 13.5 3t13.5 -5q8 -10 46 -56.5t62 -74.5q8 -10 23 0
q129 93 143 128q6 14 14.5 17t14.5 -4t5 -16q-4 -33 -20 -45q-25 -19 -65 -52t-71 -55q-16 -10 -4 -22q16 -19 48.5 -63.5t51.5 -62.5z" />
    <glyph glyph-name="Oslash" unicode="&#xd8;" horiz-adv-x="692" 
d="M33 -10q-12 9 -5.5 18t42.5 41l29 25q9 10 9 11.5t-8 14.5q-34 61 -34 138q0 93 48 180.5t132 143.5t179 56q113 0 180 -67q9 -8 11 -7.5t11 10.5q15 19 27 47q14 30 29 23q19 -10 -12 -70q-6 -13 -24 -33q-9 -9 -9.5 -11.5t5.5 -14.5q25 -55 25 -115q0 -96 -43.5 -186.5
t-124 -150t-177.5 -59.5q-110 0 -178 61q-11 9 -12 9.5t-12 -6.5q-7 -6 -16.5 -15t-12.5 -12q-40 -36 -59 -31zM107 242q0 -70 26 -120q7 -12 13 -6q1 1 4 3l3 3q217 191 416 375q11 10 11 13.5t-10 13.5q-58 56 -147 56q-126 0 -221 -101.5t-95 -236.5zM327 18
q48 0 99.5 24.5t96.5 69t74 115t29 151.5q0 49 -15 85l-5.5 11t-4 4t-5 -1.5t-7.5 -6.5l-5 -5q-36 -33 -191 -172t-222 -200q-8 -7 -8.5 -10.5t7.5 -10.5q58 -54 157 -54z" />
    <glyph glyph-name="Ugrave" unicode="&#xd9;" horiz-adv-x="751" 
d="M273 -6q-92 0 -136.5 57t-24.5 158q7 34 30 132.5t27 114.5q5 23 8 37t4 27.5t2 20t-4 13.5t-6.5 9t-13 5t-16.5 3.5t-23 2.5q-32 4 -32 19q0 10 17 11.5t41 -1.5q72 -8 160 1q32 1 32 -12q0 -6 -3.5 -10t-17.5 -7.5t-40 -5.5q-29 -2 -38 -13t-19 -56q-6 -24 -21.5 -83.5
t-28 -109.5t-18.5 -86q-17 -103 20 -149t111 -46q97 0 168.5 70.5t104.5 198.5q37 149 42 175q4 22 6.5 33t2 24t1 17.5t-5 11.5t-7.5 8t-15 4t-18.5 3.5t-26.5 2.5q-7 1 -14 7t-6 11q5 16 67 10q59 -4 139 1q32 2 39.5 -0.5t7.5 -13.5q0 -16 -36 -18q-50 -2 -63.5 -15.5
t-27.5 -74.5q-7 -32 -22.5 -95t-26 -112t-15.5 -85q-8 -58 -7 -93.5t10.5 -48t24 -15.5t32.5 3q6 1 13 3t11 3l8 2t6.5 1t4.5 -0.5t3.5 -2t2.5 -4.5q4 -15 -13 -24q-46 -19 -79 -19q-35 0 -50.5 32.5t-11.5 82.5q2 17 0.5 23t-6 3t-13.5 -15q-91 -126 -240 -126zM450 660
q-54 30 -107 73q-21 15 -5 30q12 13 22 3q60 -53 103 -80q9 -6 7 -18q-10 -12 -20 -8z" />
    <glyph glyph-name="Uacute" unicode="&#xda;" horiz-adv-x="751" 
d="M273 -6q-92 0 -136.5 57t-24.5 158q7 34 30 132.5t27 114.5q5 23 8 37t4 27.5t2 20t-4 13.5t-6.5 9t-13 5t-16.5 3.5t-23 2.5q-32 4 -32 19q0 10 17 11.5t41 -1.5q72 -8 160 1q32 1 32 -12q0 -6 -3.5 -10t-17.5 -7.5t-40 -5.5q-29 -2 -38 -13t-19 -56q-6 -24 -21.5 -83.5
t-28 -109.5t-18.5 -86q-17 -103 20 -149t111 -46q97 0 168.5 70.5t104.5 198.5q37 149 42 175q4 22 6.5 33t2 24t1 17.5t-5 11.5t-7.5 8t-15 4t-18.5 3.5t-26.5 2.5q-7 1 -14 7t-6 11q5 16 67 10q59 -4 139 1q32 2 39.5 -0.5t7.5 -13.5q0 -16 -36 -18q-50 -2 -63.5 -15.5
t-27.5 -74.5q-7 -32 -22.5 -95t-26 -112t-15.5 -85q-8 -58 -7 -93.5t10.5 -48t24 -15.5t32.5 3q6 1 13 3t11 3l8 2t6.5 1t4.5 -0.5t3.5 -2t2.5 -4.5q4 -15 -13 -24q-46 -19 -79 -19q-35 0 -50.5 32.5t-11.5 82.5q2 17 0.5 23t-6 3t-13.5 -15q-91 -126 -240 -126zM526 744
q20 14 53 21q12 3 16 -2t1 -12.5t-10 -10.5q-16 -6 -59.5 -31.5t-65.5 -40.5q-22 -13 -33 -6q-11 9 6 22q13 12 52 36t40 24z" />
    <glyph glyph-name="Ucircumflex" unicode="&#xdb;" horiz-adv-x="751" 
d="M273 -6q-92 0 -136.5 57t-24.5 158q7 34 30 132.5t27 114.5q5 23 8 37t4 27.5t2 20t-4 13.5t-6.5 9t-13 5t-16.5 3.5t-23 2.5q-32 4 -32 19q0 10 17 11.5t41 -1.5q72 -8 160 1q32 1 32 -12q0 -6 -3.5 -10t-17.5 -7.5t-40 -5.5q-29 -2 -38 -13t-19 -56q-6 -24 -21.5 -83.5
t-28 -109.5t-18.5 -86q-17 -103 20 -149t111 -46q97 0 168.5 70.5t104.5 198.5q37 149 42 175q4 22 6.5 33t2 24t1 17.5t-5 11.5t-7.5 8t-15 4t-18.5 3.5t-26.5 2.5q-7 1 -14 7t-6 11q5 16 67 10q59 -4 139 1q32 2 39.5 -0.5t7.5 -13.5q0 -16 -36 -18q-50 -2 -63.5 -15.5
t-27.5 -74.5q-7 -32 -22.5 -95t-26 -112t-15.5 -85q-8 -58 -7 -93.5t10.5 -48t24 -15.5t32.5 3q6 1 13 3t11 3l8 2t6.5 1t4.5 -0.5t3.5 -2t2.5 -4.5q4 -15 -13 -24q-46 -19 -79 -19q-35 0 -50.5 32.5t-11.5 82.5q2 17 0.5 23t-6 3t-13.5 -15q-91 -126 -240 -126zM471 769
q11 3 14.5 0t6.5 -15q12 -36 30 -72q9 -19 -4 -23q-17 -3 -26 11q-2 4 -5.5 10.5t-7.5 16t-7 14.5q-3 7 -4.5 9.5t-4.5 2.5t-6 -2t-11 -8q-5 -4 -14 -12l-18 -16t-11 -10q-20 -19 -39 -13q-7 5 -2 12t21 20q9 6 55 52q24 22 33 23z" />
    <glyph glyph-name="Udieresis" unicode="&#xdc;" horiz-adv-x="751" 
d="M273 -6q-92 0 -136.5 57t-24.5 158q7 34 30 132.5t27 114.5q5 23 8 37t4 27.5t2 20t-4 13.5t-6.5 9t-13 5t-16.5 3.5t-23 2.5q-32 4 -32 19q0 10 17 11.5t41 -1.5q72 -8 160 1q32 1 32 -12q0 -6 -3.5 -10t-17.5 -7.5t-40 -5.5q-29 -2 -38 -13t-19 -56q-6 -24 -21.5 -83.5
t-28 -109.5t-18.5 -86q-17 -103 20 -149t111 -46q97 0 168.5 70.5t104.5 198.5q37 149 42 175q4 22 6.5 33t2 24t1 17.5t-5 11.5t-7.5 8t-15 4t-18.5 3.5t-26.5 2.5q-7 1 -14 7t-6 11q5 16 67 10q59 -4 139 1q32 2 39.5 -0.5t7.5 -13.5q0 -16 -36 -18q-50 -2 -63.5 -15.5
t-27.5 -74.5q-7 -32 -22.5 -95t-26 -112t-15.5 -85q-8 -58 -7 -93.5t10.5 -48t24 -15.5t32.5 3q6 1 13 3t11 3l8 2t6.5 1t4.5 -0.5t3.5 -2t2.5 -4.5q4 -15 -13 -24q-46 -19 -79 -19q-35 0 -50.5 32.5t-11.5 82.5q2 17 0.5 23t-6 3t-13.5 -15q-91 -126 -240 -126zM413 715
q-1 -17 -16.5 -30.5t-32.5 -13.5t-14 23q2 21 13.5 34.5t27.5 13.5q22 0 22 -27zM553 715q-1 -17 -16 -30.5t-31 -13.5q-17 0 -15 23q1 21 13 34.5t29 13.5q21 0 20 -27z" />
    <glyph glyph-name="Yacute" unicode="&#xdd;" horiz-adv-x="582" 
d="M203 29q11 1 19.5 2.5t15 2.5t12.5 4.5t9.5 5t7.5 7.5t5.5 7.5t4.5 10t3.5 11t3.5 13.5t4 14q20 74 34 140q3 11 3 21t-2 20t-3.5 16t-6 17.5t-5.5 15.5q-59 168 -86 213q-3 6 -5.5 9l-5 6t-6 4l-7 2t-11 0.5t-14 0t-20.5 0t-26 -0.5q-31 0 -29 16q3 12 34 15q20 2 74 2
q29 -1 38.5 -9t18.5 -33q12 -32 43 -116.5t44 -118.5q6 -14 13.5 -13t22.5 18q45 53 95 86q58 38 81.5 63.5t23.5 59.5q0 32 -36 35.5t-55 -14.5q-11 -8 -23.5 -11t-21.5 4q-7 13 20 33q44 28 84 28q36 0 53 -19t17 -47q0 -26 -8.5 -48t-27.5 -41t-34.5 -30.5t-43.5 -30.5
q-128 -85 -150 -173q-5 -18 -13.5 -49.5t-15.5 -58.5q-14 -55 -6.5 -67t66.5 -22q13 -2 18 -8t4 -11q-1 -9 -20.5 -11.5t-28.5 0.5q-75 9 -175 -4q-23 -2 -29 0.5t-4 11.5q4 17 47 21zM489 744q19 14 53 21q17 4 18 -8t-11 -17q-16 -6 -59.5 -31.5t-65.5 -40.5
q-22 -13 -33 -6q-11 9 5 22q14 12 52 35t41 25z" />
    <glyph glyph-name="Thorn" unicode="&#xde;" horiz-adv-x="526" 
d="M122 591q2 12 15 13.5t39 -1.5q60 -7 126 -1q54 4 54 -9q0 -20 -34 -21q-44 -1 -55 -10.5t-21 -50.5q-5 -18 -2 -24.5t15 -5.5q47 3 95 2q64 -1 105.5 -34t41.5 -95q0 -63 -43.5 -111.5t-101 -70t-114.5 -21.5q-9 0 -14.5 0.5t-11 1.5t-7 4t-0.5 7q2 20 31 20
q82 0 150.5 44t68.5 117q0 92 -105 104q-29 3 -77 0q-18 -1 -26.5 -2t-16 -5.5t-9.5 -13.5q-44 -170 -73 -314q-12 -55 -2.5 -67t65.5 -17q14 -1 19.5 -5t2.5 -13t-19.5 -11.5t-28.5 -0.5q-91 10 -176 -2q-20 -2 -27 2t-5 13q3 9 8.5 11t27.5 4q6 1 10 1q43 4 54 15.5
t27 58.5q32 100 95 402q8 46 1.5 55t-47.5 15q-33 4 -35 9q-1 3 0 7z" />
    <glyph glyph-name="germandbls" unicode="&#xdf;" horiz-adv-x="465" 
d="M82 404q12 15 46 15q16 0 21.5 1t11 6t9.5 18q51 191 194 247q61 17 89 -10q35 -37 35 -95q0 -102 -122 -194q-17 -13 -18.5 -19t8.5 -21l6 -9q20 -30 30.5 -47.5t20.5 -48.5t10 -63q-1 -72 -52.5 -135.5t-112.5 -63.5q-31 -1 -48.5 15.5t-17.5 42.5q0 39 52 70
q19 11 26 1q4 -8 1.5 -15.5t-6.5 -10.5q-32 -16 -32 -42t34 -26q40 0 77 50.5t37 108.5q0 92 -79 175q-18 18 9 37q29 21 48 37t41.5 41t34.5 55t12 63q0 31 -16 54q-24 31 -72 8q-42 -21 -87 -75.5t-61 -129.5q-42 -191 -71 -297t-69 -194q-14 -32 -36.5 -68t-54 -72
t-71.5 -59.5t-79 -23.5q-33 0 -52 17.5t-19 45.5q-1 16 12 37t31 36q23 19 35 9q5 -3 5 -10.5t-10 -14.5q-11 -9 -22 -25.5t-11 -23.5q3 -32 43 -32q43 0 90 44t73.5 88.5t40.5 79.5q70 177 105 375q0 11 0.5 17t-4.5 9t-7.5 3.5t-8.5 1.5h-36q-21 0 -13 17z" />
    <glyph glyph-name="agrave" unicode="&#xe0;" horiz-adv-x="437" 
d="M290 497q-29 50 -46 105q-4 13 -1.5 19.5t13.5 8.5q16 3 20 -10q25 -83 40 -109q2 -3 0.5 -9.5t-5.5 -8.5q-13 -7 -21 4zM260 -8q-31 0 -35.5 40t12.5 84q7 19 2 21.5t-17 -13.5q-15 -21 -55 -63.5t-58 -54.5q-32 -25 -53.5 -8t-21.5 71q0 100 64 209t133 141
q22 7 44.5 2t40.5 -17q15 -10 33 8q8 9 23 35q12 21 24 15q7 -3 8.5 -5.5t-2.5 -17.5q-87 -190 -129 -312q-11 -32 -13.5 -54.5t0.5 -31.5t9 -9q11 0 32 19q52 56 79 87q15 19 28 8q13 -9 -1 -25q-45 -53 -96 -102q-27 -27 -51 -27zM113 50q88 78 147 170q32 50 54 116
q5 14 2.5 21.5t-14.5 15.5q-42 27 -77 6q-54 -33 -103.5 -125t-49.5 -185q0 -56 41 -19z" />
    <glyph glyph-name="aacute" unicode="&#xe1;" horiz-adv-x="437" 
d="M377 613q7 9 11 13.5t11.5 7.5t9 3.5t14.5 4.5q22 5 20 -6q0 -5 -7 -10q-30 -20 -95 -106q-16 -20 -29 -17q-13 4 -2 23q9 15 36.5 49t30.5 38zM260 -8q-31 0 -35.5 40t12.5 84q7 19 2 21.5t-17 -13.5q-15 -21 -55 -63.5t-58 -54.5q-32 -25 -53.5 -8t-21.5 71
q0 100 64 209t133 141q22 7 44.5 2t40.5 -17q15 -10 33 8q8 9 23 35q12 21 24 15q7 -3 8.5 -5.5t-2.5 -17.5q-87 -190 -129 -312q-11 -32 -13.5 -54.5t0.5 -31.5t9 -9q11 0 32 19q52 56 79 87q15 19 28 8q13 -9 -1 -25q-45 -53 -96 -102q-27 -27 -51 -27zM113 50
q88 78 147 170q32 50 54 116q5 14 2.5 21.5t-14.5 15.5q-42 27 -77 6q-54 -33 -103.5 -125t-49.5 -185q0 -56 41 -19z" />
    <glyph glyph-name="acircumflex" unicode="&#xe2;" horiz-adv-x="437" 
d="M343 638q11 2 15.5 -1.5t6.5 -16.5q5 -34 20 -89q6 -21 -7 -27q-16 -5 -20 12q-1 3 -15 51q-3 19 -6 19.5t-21 -17.5q-6 -6 -20 -22.5t-17 -19.5q-29 -27 -41 -19q-13 7 19 37q33 36 54 64q20 26 32 29zM260 -8q-31 0 -35.5 40t12.5 84q7 19 2 21.5t-17 -13.5
q-15 -21 -55 -63.5t-58 -54.5q-32 -25 -53.5 -8t-21.5 71q0 100 64 209t133 141q22 7 44.5 2t40.5 -17q15 -10 33 8q8 9 23 35q12 21 24 15q7 -3 8.5 -5.5t-2.5 -17.5q-87 -190 -129 -312q-11 -32 -13.5 -54.5t0.5 -31.5t9 -9q11 0 32 19q52 56 79 87q15 19 28 8
q13 -9 -1 -25q-45 -53 -96 -102q-27 -27 -51 -27zM113 50q88 78 147 170q32 50 54 116q5 14 2.5 21.5t-14.5 15.5q-42 27 -77 6q-54 -33 -103.5 -125t-49.5 -185q0 -56 41 -19z" />
    <glyph glyph-name="atilde" unicode="&#xe3;" horiz-adv-x="437" 
d="M281 556q-47 -39 -55 -30q-9 12 37 52q31 26 46 25.5t37 -21.5t31.5 -20.5t32.5 22.5q24 26 34 21q15 -4 -30 -52q-23 -25 -39 -27.5t-40 20.5q-18 19 -26 21.5t-28 -11.5zM260 -8q-31 0 -35.5 40t12.5 84q7 19 2 21.5t-17 -13.5q-15 -21 -55 -63.5t-58 -54.5
q-32 -25 -53.5 -8t-21.5 71q0 100 64 209t133 141q22 7 44.5 2t40.5 -17q15 -10 33 8q8 9 23 35q12 21 24 15q7 -3 8.5 -5.5t-2.5 -17.5q-87 -190 -129 -312q-11 -32 -13.5 -54.5t0.5 -31.5t9 -9q11 0 32 19q52 56 79 87q15 19 28 8q13 -9 -1 -25q-45 -53 -96 -102
q-27 -27 -51 -27zM113 50q88 78 147 170q32 50 54 116q5 14 2.5 21.5t-14.5 15.5q-42 27 -77 6q-54 -33 -103.5 -125t-49.5 -185q0 -56 41 -19z" />
    <glyph glyph-name="adieresis" unicode="&#xe4;" horiz-adv-x="437" 
d="M303 580q-1 -17 -17 -30.5t-32 -13.5q-17 0 -14 23q2 22 13 35.5t28 13.5q22 0 22 -28zM443 580q-1 -17 -16 -30.5t-31 -13.5t-16 23q1 22 13.5 35.5t29.5 13.5q21 0 20 -28zM260 -8q-31 0 -35.5 40t12.5 84q7 19 2 21.5t-17 -13.5q-15 -21 -55 -63.5t-58 -54.5
q-32 -25 -53.5 -8t-21.5 71q0 100 64 209t133 141q22 7 44.5 2t40.5 -17q15 -10 33 8q8 9 23 35q12 21 24 15q7 -3 8.5 -5.5t-2.5 -17.5q-87 -190 -129 -312q-11 -32 -13.5 -54.5t0.5 -31.5t9 -9q11 0 32 19q52 56 79 87q15 19 28 8q13 -9 -1 -25q-45 -53 -96 -102
q-27 -27 -51 -27zM113 50q88 78 147 170q32 50 54 116q5 14 2.5 21.5t-14.5 15.5q-42 27 -77 6q-54 -33 -103.5 -125t-49.5 -185q0 -56 41 -19z" />
    <glyph glyph-name="aring" unicode="&#xe5;" horiz-adv-x="437" 
d="M354 647q29 0 47 -17t18 -44q0 -37 -30.5 -65t-69.5 -27q-30 0 -50 16t-20 43q0 38 32 66t73 28zM344 618q-24 0 -42 -18t-18 -40q0 -16 12 -26.5t30 -10.5q23 0 41 17t18 44q0 17 -13 25.5t-28 8.5zM260 -8q-31 0 -35.5 40t12.5 84q7 19 2 21.5t-17 -13.5
q-15 -21 -55 -63.5t-58 -54.5q-32 -25 -53.5 -8t-21.5 71q0 100 64 209t133 141q22 7 44.5 2t40.5 -17q15 -10 33 8q8 9 23 35q12 21 24 15q7 -3 8.5 -5.5t-2.5 -17.5q-87 -190 -129 -312q-11 -32 -13.5 -54.5t0.5 -31.5t9 -9q11 0 32 19q52 56 79 87q15 19 28 8
q13 -9 -1 -25q-45 -53 -96 -102q-27 -27 -51 -27zM113 50q88 78 147 170q32 50 54 116q5 14 2.5 21.5t-14.5 15.5q-42 27 -77 6q-54 -33 -103.5 -125t-49.5 -185q0 -56 41 -19z" />
    <glyph glyph-name="ae" unicode="&#xe6;" horiz-adv-x="532" 
d="M311 -7q-32 0 -54.5 26t-24.5 61q-1 5 -5 7t-9 -2q-82 -69 -99 -81q-24 -17 -41 -17q-16 0 -30 19.5t-14 56.5q0 110 70 214.5t145 141.5q40 21 66 -2q19 -18 32 -37q4 -5 20 6q51 39 99 39q24 0 39 -11.5t15 -29.5q0 -34 -16.5 -59.5t-55.5 -53.5q-24 -17 -77.5 -58
t-71.5 -54q-24 -17 -29 -24t-5 -27q0 -28 12.5 -54t41.5 -26q32 0 68 30q11 9 61 59q23 20 34 10q11 -8 -6 -25q-48 -49 -81 -76q-42 -33 -84 -33zM294 386q-18 17 -50 -6q-23 -17 -46 -40t-55 -63t-52 -93.5t-20 -110.5q0 -44 14 -46.5t46 25.5q3 3 18 14.5t27 21.5t14 12
q2 1 6 4.5t6 5t5.5 4.5t5 4.5l4.5 4.5t4.5 5.5t3.5 5.5t3.5 5.5t2.5 6t1 6.5q3 38 31 93.5t52 84.5q13 13 1 30t-22 26zM300 195q64 45 126 97q37 30 47.5 44t10.5 35q0 20 -26 20q-51 0 -107.5 -71t-68.5 -109q-6 -17 -3 -22t21 6z" />
    <glyph glyph-name="ccedilla" unicode="&#xe7;" horiz-adv-x="336" 
d="M39 131q4 73 57 163t138 125q27 13 56.5 2.5t29.5 -42.5q0 -39 -40 -73q-10 -7 -16.5 -6t-9.5 7q-7 10 7 23q24 19 24 40q0 18 -16.5 20.5t-28.5 -4.5q-71 -29 -116.5 -107.5t-46.5 -147.5q-1 -44 12 -73t41 -29q21 0 53 25q47 38 75 66q5 5 12.5 7t12.5 -2q9 -9 -7 -24
q-62 -62 -85 -79q-6 -5 -22.5 -16t-22.5 -18q-26 -27 -33 -34q-3 -4 -5 -7t-3.5 -5.5t-1.5 -5.5v-4t1.5 -4.5t2 -4.5t3 -5.5t3.5 -6.5q22 -49 1 -78.5t-71 -40.5q-20 -4 -24 1q-4 4 -3 13t9 10q40 8 57.5 31.5t-2.5 55.5q-13 21 -15 29t8 23l25 26q6 7 7 9.5t0.5 3.5
t-6.5 2.5t-10 3.5q-26 14 -39 50t-11 81z" />
    <glyph glyph-name="egrave" unicode="&#xe8;" horiz-adv-x="343" 
d="M121 -7q-38 0 -59.5 34.5t-23.5 84.5q-2 66 35 140.5t94 123.5t109 49q24 0 39 -10.5t15 -28.5q6 -66 -72 -118q-50 -32 -141 -73q-29 -13 -34 -29q-6 -24 -6 -54q0 -29 12 -56t41 -27q30 0 68 29q6 5 60 59q23 21 34 10q11 -8 -6 -25q-51 -53 -81 -76q-42 -33 -84 -33z
M124 233q61 25 110 57q61 39 61 82q-3 19 -26 19q-52 0 -99.5 -54.5t-57.5 -88.5q-5 -14 -2 -16.5t14 1.5zM271 497q-29 50 -46 105q-4 13 -1.5 19.5t13.5 8.5q15 3 20 -10q21 -76 39 -109q2 -3 0.5 -9.5t-4.5 -8.5q-15 -6 -21 4z" />
    <glyph glyph-name="eacute" unicode="&#xe9;" horiz-adv-x="343" 
d="M121 -7q-38 0 -59.5 34.5t-23.5 84.5q-2 66 35 140.5t94 123.5t109 49q24 0 39 -10.5t15 -28.5q6 -66 -72 -118q-50 -32 -141 -73q-29 -13 -34 -29q-6 -24 -6 -54q0 -29 12 -56t41 -27q30 0 68 29q6 5 60 59q23 21 34 10q11 -8 -6 -25q-51 -53 -81 -76q-42 -33 -84 -33z
M124 233q61 25 110 57q61 39 61 82q-3 19 -26 19q-52 0 -99.5 -54.5t-57.5 -88.5q-5 -14 -2 -16.5t14 1.5zM336 613q7 9 11 13.5t10.5 7.5t9.5 4t15 4q22 5 20 -6q0 -5 -7 -10q-14 -9 -47 -46.5t-48 -59.5q-16 -20 -29 -17q-14 5 -2 23q9 15 36.5 49t30.5 38z" />
    <glyph glyph-name="ecircumflex" unicode="&#xea;" horiz-adv-x="343" 
d="M121 -7q-38 0 -59.5 34.5t-23.5 84.5q-2 66 35 140.5t94 123.5t109 49q24 0 39 -10.5t15 -28.5q6 -66 -72 -118q-50 -32 -141 -73q-29 -13 -34 -29q-6 -24 -6 -54q0 -29 12 -56t41 -27q30 0 68 29q6 5 60 59q23 21 34 10q11 -8 -6 -25q-51 -53 -81 -76q-42 -33 -84 -33z
M124 233q61 25 110 57q61 39 61 82q-3 19 -26 19q-52 0 -99.5 -54.5t-57.5 -88.5q-5 -14 -2 -16.5t14 1.5zM316 638q11 2 15.5 -1.5t6.5 -16.5q5 -34 20 -89q6 -21 -7 -27q-16 -5 -20 12q-1 3 -15 51q-3 19 -6 19.5t-21 -17.5q-6 -6 -20 -22.5t-17 -19.5q-29 -26 -41 -19
q-13 7 19 37l55 64q18 26 31 29z" />
    <glyph glyph-name="edieresis" unicode="&#xeb;" horiz-adv-x="343" 
d="M121 -7q-38 0 -59.5 34.5t-23.5 84.5q-2 66 35 140.5t94 123.5t109 49q24 0 39 -10.5t15 -28.5q6 -66 -72 -118q-50 -32 -141 -73q-29 -13 -34 -29q-6 -24 -6 -54q0 -29 12 -56t41 -27q30 0 68 29q6 5 60 59q23 21 34 10q11 -8 -6 -25q-51 -53 -81 -76q-42 -33 -84 -33z
M124 233q61 25 110 57q61 39 61 82q-3 19 -26 19q-52 0 -99.5 -54.5t-57.5 -88.5q-5 -14 -2 -16.5t14 1.5zM260 580q-1 -17 -17 -30.5t-32 -13.5q-17 0 -14 23q2 22 13 35.5t28 13.5q22 0 22 -28zM400 580q-1 -17 -16 -30.5t-31 -13.5q-17 0 -15 23q1 22 13 35.5t29 13.5
q21 0 20 -28z" />
    <glyph glyph-name="igrave" unicode="&#xec;" horiz-adv-x="276" 
d="M243 140q8 -8 0 -21q-10 -16 -41.5 -52.5t-48.5 -52.5q-20 -18 -44 -18q-37 0 -37 46t16 88l79 200q19 50 2 50q-21 0 -102 -81q-10 -10 -22 -4q-9 5 2 22q18 25 68.5 66.5t71.5 41.5q28 0 28.5 -35t-14.5 -63q-48 -120 -79 -202q-4 -11 -7.5 -23.5t-6 -28t1.5 -26
t16 -10.5q11 0 32 24q13 15 35.5 41t26.5 31q13 17 23 7zM189 497q-29 50 -46 105q-4 13 -1.5 19.5t13.5 8.5q16 3 20 -10q25 -83 40 -109q2 -3 0.5 -9.5t-5.5 -8.5q-13 -7 -21 4z" />
    <glyph glyph-name="iacute" unicode="&#xed;" horiz-adv-x="276" 
d="M243 140q8 -8 0 -21q-10 -16 -41.5 -52.5t-48.5 -52.5q-20 -18 -44 -18q-37 0 -37 46t16 88l79 200q19 50 2 50q-21 0 -102 -81q-10 -10 -22 -4q-9 5 2 22q18 25 68.5 66.5t71.5 41.5q28 0 28.5 -35t-14.5 -63q-48 -120 -79 -202q-4 -11 -7.5 -23.5t-6 -28t1.5 -26
t16 -10.5q11 0 32 24q13 15 35.5 41t26.5 31q13 17 23 7zM286 613q7 9 11 13.5t11.5 7.5t9 3.5t14.5 4.5q22 5 20 -6q0 -5 -7 -10q-30 -20 -95 -106q-16 -20 -29 -17q-13 4 -2 23q8 14 34.5 46t32.5 41z" />
    <glyph glyph-name="icircumflex" unicode="&#xee;" horiz-adv-x="276" 
d="M243 140q8 -8 0 -21q-10 -16 -41.5 -52.5t-48.5 -52.5q-20 -18 -44 -18q-37 0 -37 46t16 88l79 200q19 50 2 50q-21 0 -102 -81q-10 -10 -22 -4q-9 5 2 22q18 25 68.5 66.5t71.5 41.5q28 0 28.5 -35t-14.5 -63q-48 -120 -79 -202q-4 -11 -7.5 -23.5t-6 -28t1.5 -26
t16 -10.5q11 0 32 24q13 15 35.5 41t26.5 31q13 17 23 7zM257 638q11 2 15 -1.5t7 -16.5q6 -41 19 -89q6 -22 -7 -27q-14 -4 -20 12q-6 15 -14 51q-3 19 -6.5 19.5t-21.5 -17.5q-6 -6 -20 -22.5t-17 -19.5q-28 -27 -40 -19q-13 6 18 37q40 44 55 64q20 27 32 29z" />
    <glyph glyph-name="idieresis" unicode="&#xef;" horiz-adv-x="276" 
d="M243 140q8 -8 0 -21q-10 -16 -41.5 -52.5t-48.5 -52.5q-20 -18 -44 -18q-37 0 -37 46t16 88l79 200q19 50 2 50q-21 0 -102 -81q-10 -10 -22 -4q-9 5 2 22q18 25 68.5 66.5t71.5 41.5q28 0 28.5 -35t-14.5 -63q-48 -120 -79 -202q-4 -11 -7.5 -23.5t-6 -28t1.5 -26
t16 -10.5q11 0 32 24q13 15 35.5 41t26.5 31q13 17 23 7zM195 580q-1 -17 -16.5 -30.5t-32.5 -13.5t-14 23q1 22 12.5 35.5t28.5 13.5q22 0 22 -28zM335 580q-1 -17 -16 -30.5t-31 -13.5q-17 0 -15 23q1 22 13 35.5t29 13.5q21 0 20 -28z" />
    <glyph glyph-name="eth" unicode="&#xf0;" horiz-adv-x="402" 
d="M170 504q-30 -11 -27 7q2 12 9.5 17.5t24.5 11.5q71 26 108 41q12 5 14 11t-6 25q-8 13 -12 19t-12.5 11.5t-18.5 5.5q-18 1 -52 -14t-41 -17q-22 -4 -24 8q-3 14 17 20q11 3 54.5 24.5t65.5 15.5q18 -6 35.5 -29.5t27.5 -46.5q6 -7 14 -5t14 8q33 35 39 18
q4 -17 -16 -39q-7 -10 -22 -19q-10 -6 -11 -7.5t1 -13.5q23 -95 23 -166q0 -132 -58 -234t-160 -160q-30 -19 -55 -3q-55 35 -55 120q0 89 52 168.5t134 136.5q20 15 30 5q13 -8 -23 -39q-79 -64 -117.5 -125.5t-40.5 -139.5q0 -53 27 -84q21 -25 66 9q164 119 164 341
q0 72 -18 155q-4 12 -8.5 14t-14.5 -2t-54.5 -20t-73.5 -28z" />
    <glyph glyph-name="ntilde" unicode="&#xf1;" horiz-adv-x="484" 
d="M303 556q-47 -39 -55 -30q-9 12 37 52q31 26 46 25.5t37 -21.5q21 -21 31 -20.5t33 22.5q24 26 34 21q15 -4 -30 -52q-23 -25 -39 -27.5t-40 20.5q-18 19 -26.5 21.5t-27.5 -11.5zM312 -14q-35 0 -30 66q3 33 21 85q5 15 27 72t30 79q1 2 5 11.5t6.5 17l6 18t5.5 18.5
t2.5 15.5t-2 11.5t-8.5 4q-14 0 -50 -33.5t-64 -64.5q-86 -96 -124 -162q-11 -19 -40 -87q-15 -34 -21 -38q-4 -3 -12 -3q-14 -1 -16 4.5t5 23.5q15 41 41 105t42 109q33 99 33 129q0 27 -21 16q-9 -5 -27.5 -19.5t-40 -33.5t-24.5 -21q-13 -13 -23 -6q-9 7 4 23
q60 57 102 88q27 20 40 20q31 0 27 -59q-2 -27 -7 -47t-15 -45.5t-13 -33.5q-8 -21 -7 -25.5t20 18.5q81 100 131 145.5t89 45.5q24 0 20 -35q-1 -14 -5.5 -31t-14.5 -43t-13 -37q-10 -29 -31.5 -87.5t-25.5 -69.5q-18 -59 -18 -85q0 -16 9 -16q11 0 33 17q49 46 76 80
q16 18 23 15q20 -13 5 -29q-26 -31 -91 -94q-10 -11 -29.5 -21.5t-29.5 -10.5z" />
    <glyph glyph-name="ograve" unicode="&#xf2;" horiz-adv-x="381" 
d="M129 -7q-42 0 -60 41t-17 95q1 64 32.5 133.5t84 117.5t106.5 48q69 0 69 -117q-1 -108 -70.5 -213t-144.5 -105zM266 392q-59 0 -118 -82.5t-59 -180.5q0 -102 50 -102q52 0 109.5 92t58.5 191q0 82 -41 82zM270 497q-29 50 -46 105q-4 13 -1.5 19.5t13.5 8.5
q16 3 20 -10q25 -84 39 -109q2 -3 0.5 -9.5t-4.5 -8.5q-15 -7 -21 4z" />
    <glyph glyph-name="oacute" unicode="&#xf3;" horiz-adv-x="381" 
d="M129 -7q-42 0 -60 41t-17 95q1 64 32.5 133.5t84 117.5t106.5 48q69 0 69 -117q-1 -108 -70.5 -213t-144.5 -105zM266 392q-59 0 -118 -82.5t-59 -180.5q0 -102 50 -102q52 0 109.5 92t58.5 191q0 82 -41 82zM343 613q9 11 16 16.5t11.5 7t19.5 5.5q11 3 16 0.5t3.5 -7.5
t-7.5 -9q-30 -20 -95 -106q-14 -20 -28 -17q-14 5 -3 23q8 14 34.5 46t32.5 41z" />
    <glyph glyph-name="ocircumflex" unicode="&#xf4;" horiz-adv-x="381" 
d="M129 -7q-42 0 -60 41t-17 95q1 64 32.5 133.5t84 117.5t106.5 48q69 0 69 -117q-1 -108 -70.5 -213t-144.5 -105zM266 392q-59 0 -118 -82.5t-59 -180.5q0 -102 50 -102q52 0 109.5 92t58.5 191q0 82 -41 82zM332 638q11 2 15.5 -1.5t6.5 -16.5q5 -34 20 -89
q6 -21 -7 -27q-16 -5 -20 12q-1 3 -15 51q-3 19 -6 19.5t-21 -17.5q-6 -6 -20 -22.5t-17 -19.5q-29 -26 -41 -19q-13 7 19 37l55 64q18 26 31 29z" />
    <glyph glyph-name="otilde" unicode="&#xf5;" horiz-adv-x="381" 
d="M129 -7q-42 0 -60 41t-17 95q1 64 32.5 133.5t84 117.5t106.5 48q69 0 69 -117q-1 -108 -70.5 -213t-144.5 -105zM266 392q-59 0 -118 -82.5t-59 -180.5q0 -102 50 -102q52 0 109.5 92t58.5 191q0 82 -41 82zM258 556q-47 -39 -55 -30q-10 12 37 52q31 26 45.5 25.5
t36.5 -21.5t32 -20.5t32 22.5q25 25 35 21q3 -1 4 -3.5t-1 -6.5t-4.5 -8t-7 -9t-7.5 -9t-7.5 -9t-6.5 -7q-24 -25 -40 -27.5t-40 20.5q-17 19 -25.5 21.5t-27.5 -11.5z" />
    <glyph glyph-name="odieresis" unicode="&#xf6;" horiz-adv-x="381" 
d="M129 -7q-42 0 -60 41t-17 95q1 64 32.5 133.5t84 117.5t106.5 48q69 0 69 -117q-1 -108 -70.5 -213t-144.5 -105zM266 392q-59 0 -118 -82.5t-59 -180.5q0 -102 50 -102q52 0 109.5 92t58.5 191q0 82 -41 82zM263 580q-1 -17 -16.5 -30.5t-31.5 -13.5q-17 0 -15 23
q2 22 13.5 35.5t28.5 13.5q21 0 21 -28zM403 580q-1 -17 -16 -30.5t-31 -13.5q-17 0 -15 23q2 22 13.5 35.5t28.5 13.5q21 0 20 -28z" />
    <glyph glyph-name="divide" unicode="&#xf7;" horiz-adv-x="455" 
d="M211 162q16 0 25.5 -7.5t6.5 -20.5q-4 -19 -20.5 -29.5t-34.5 -10.5q-38 0 -31 33q3 16 21.5 25.5t32.5 9.5zM275 460q16 0 25.5 -7t6.5 -19q-4 -19 -20 -29.5t-34 -10.5q-39 0 -32 32q3 15 21.5 24.5t32.5 9.5zM69 263q-32 0 -23 19q9 16 42 16q33 1 86.5 1t80 0.5
t56.5 2t48 4.5q6 1 16 3t15.5 3t12 1t9 -2.5t2.5 -8.5q0 -13 -28 -29q-13 -7 -38 -7q-141 -3 -279 -3z" />
    <glyph glyph-name="oslash" unicode="&#xf8;" horiz-adv-x="381" 
d="M0 -13q-13 7 -7 17.5t38 46.5q10 10 11.5 12t5.5 12t0 18q-3 19 -2 36q1 64 32.5 133.5t84 117.5t106.5 48q30 0 47 -22q6 -9 14 4q9 18 11 24q5 11 8 16t8.5 8.5t13.5 1.5q20 -7 -11 -71q-10 -21 -16 -31t-6 -47q0 -69 -32 -143.5t-82.5 -124.5t-100.5 -50q-33 0 -53 30
q-6 9 -7 9t-7 -8q-38 -40 -56 -37zM260 392q-59 0 -118 -82.5t-59 -180.5q0 -19 12 -7q158 180 195 225q9 9 4 19q-10 26 -34 26zM133 27q49 0 104.5 83.5t63.5 178.5q0 17 -9 6q-103 -114 -192 -218q-6 -8 -7 -10t2 -11q15 -29 38 -29z" />
    <glyph glyph-name="ugrave" unicode="&#xf9;" horiz-adv-x="479" 
d="M306 497q-30 49 -47 105q-4 13 -1.5 19.5t13.5 8.5q16 3 20 -10q25 -83 40 -109q5 -11 -4 -18q-15 -6 -21 4zM40 301q-10 11 26 42q4 3 20.5 18t27 23.5t25.5 20.5t26 17.5t19 5.5q11 0 17.5 -10.5t6.5 -27.5q0 -15 -14 -65q-58 -179 -67 -211q-22 -86 9 -86
q12 0 39 24.5t49 51.5q71 82 103 135t70 158q11 30 35 30q5 0 6 -8.5t-4 -19.5q-63 -157 -93 -269q-3 -11 -6 -24t-6 -30.5t-0.5 -29t10.5 -11.5q10 0 42 31.5t49 51.5q14 14 25 4q10 -12 -9 -31q-49 -50 -89 -82q-17 -15 -35 -15q-32 0 -32 55q0 35 21 87q13 33 1 24
q-8 -6 -24 -26q-33 -43 -98 -110q-9 -10 -27.5 -22t-34.5 -12q-70 0 -33 136q11 39 35.5 114.5t31.5 100.5q10 32 1.5 36t-28.5 -13q-7 -5 -21 -17t-29.5 -25t-18.5 -16q-18 -16 -26 -5z" />
    <glyph glyph-name="uacute" unicode="&#xfa;" horiz-adv-x="479" 
d="M376 613q9 11 16 16.5t11.5 7t19.5 5.5q11 3 16 0.5t3.5 -7.5t-7.5 -9q-30 -20 -95 -106q-16 -20 -29 -17q-13 5 -2 23q8 14 34.5 46t32.5 41zM40 301q-10 11 26 42q4 3 20.5 18t27 23.5t25.5 20.5t26 17.5t19 5.5q11 0 17.5 -10.5t6.5 -27.5q0 -15 -14 -65
q-58 -179 -67 -211q-22 -86 9 -86q12 0 39 24.5t49 51.5q71 82 103 135t70 158q11 30 35 30q5 0 6 -8.5t-4 -19.5q-63 -157 -93 -269q-3 -11 -6 -24t-6 -30.5t-0.5 -29t10.5 -11.5q10 0 42 31.5t49 51.5q14 14 25 4q10 -12 -9 -31q-49 -50 -89 -82q-17 -15 -35 -15
q-32 0 -32 55q0 35 21 87q13 33 1 24q-8 -6 -24 -26q-33 -43 -98 -110q-9 -10 -27.5 -22t-34.5 -12q-70 0 -33 136q11 39 35.5 114.5t31.5 100.5q10 32 1.5 36t-28.5 -13q-7 -5 -21 -17t-29.5 -25t-18.5 -16q-18 -16 -26 -5z" />
    <glyph glyph-name="ucircumflex" unicode="&#xfb;" horiz-adv-x="479" 
d="M361 638q11 2 15.5 -1.5t6.5 -16.5q3 -23 19 -89q6 -22 -6 -27q-15 -4 -21 12q-6 15 -14 51q-3 19 -6 19.5t-22 -17.5q-27 -33 -37 -42q-28 -27 -40 -19q-12 7 18 37q25 25 55 64q20 26 32 29zM40 301q-10 11 26 42q4 3 20.5 18t27 23.5t25.5 20.5t26 17.5t19 5.5
q11 0 17.5 -10.5t6.5 -27.5q0 -15 -14 -65q-58 -179 -67 -211q-22 -86 9 -86q12 0 39 24.5t49 51.5q71 82 103 135t70 158q11 30 35 30q5 0 6 -8.5t-4 -19.5q-63 -157 -93 -269q-3 -11 -6 -24t-6 -30.5t-0.5 -29t10.5 -11.5q10 0 42 31.5t49 51.5q14 14 25 4q10 -12 -9 -31
q-49 -50 -89 -82q-17 -15 -35 -15q-32 0 -32 55q0 35 21 87q13 33 1 24q-8 -6 -24 -26q-33 -43 -98 -110q-9 -10 -27.5 -22t-34.5 -12q-70 0 -33 136q11 39 35.5 114.5t31.5 100.5q10 32 1.5 36t-28.5 -13q-7 -5 -21 -17t-29.5 -25t-18.5 -16q-18 -16 -26 -5z" />
    <glyph glyph-name="udieresis" unicode="&#xfc;" horiz-adv-x="479" 
d="M309 580q-1 -17 -17 -30.5t-32 -13.5q-17 0 -14 23q1 22 12.5 35.5t28.5 13.5q22 0 22 -28zM449 580q-1 -17 -16 -30.5t-31 -13.5t-16 23q1 22 13 35.5t29 13.5q21 0 21 -28zM40 301q-10 11 26 42q4 3 20.5 18t27 23.5t25.5 20.5t26 17.5t19 5.5q11 0 17.5 -10.5
t6.5 -27.5q0 -15 -14 -65q-58 -179 -67 -211q-22 -86 9 -86q12 0 39 24.5t49 51.5q71 82 103 135t70 158q11 30 35 30q5 0 6 -8.5t-4 -19.5q-63 -157 -93 -269q-3 -11 -6 -24t-6 -30.5t-0.5 -29t10.5 -11.5q10 0 42 31.5t49 51.5q14 14 25 4q10 -12 -9 -31q-49 -50 -89 -82
q-17 -15 -35 -15q-32 0 -32 55q0 35 21 87q13 33 1 24q-8 -6 -24 -26q-33 -43 -98 -110q-9 -10 -27.5 -22t-34.5 -12q-70 0 -33 136q11 39 35.5 114.5t31.5 100.5q10 32 1.5 36t-28.5 -13q-7 -5 -21 -17t-29.5 -25t-18.5 -16q-18 -16 -26 -5z" />
    <glyph glyph-name="yacute" unicode="&#xfd;" horiz-adv-x="442" 
d="M380 613q12 16 19 20t27 9q11 3 16 0.5t4 -7.5t-7 -9q-14 -9 -45.5 -45t-50.5 -61q-14 -20 -28 -17q-14 5 -3 23q9 15 36.5 48t31.5 39zM339 132q-5 -21 -5.5 -51.5t3.5 -47.5q18 -74 18 -96q0 -94 -79.5 -151t-175.5 -57q-87 0 -124 28t-37 67q0 21 13.5 43.5t26 34.5
t45.5 41q7 7 11 10q7 7 16 8t12 -3q10 -14 -13 -33q-67 -59 -67 -96q0 -68 122 -68q83 0 146.5 49t63.5 124q0 18 -7 48.5t-8 39.5q-10 71 8 114q12 28 4 26q-8 -4 -27 -28q-30 -40 -97 -110q-34 -34 -63 -34q-69 0 -32 136q11 41 37.5 123t29.5 92q18 60 -28 23
q-8 -6 -36.5 -30.5t-31.5 -27.5q-19 -16 -27 -5q-10 11 26 42q4 3 20.5 18t27 23.5t25.5 20.5t26 17.5t19 5.5q11 0 17.5 -10.5t6.5 -27.5q0 -23 -14 -65q-56 -171 -66 -211q-22 -86 8 -86q12 0 38.5 24t49.5 52q71 83 104 136t70 157q11 30 34 30q5 0 6.5 -8.5t-3.5 -19.5
q-56 -136 -93 -267z" />
    <glyph glyph-name="thorn" unicode="&#xfe;" horiz-adv-x="407" 
d="M337 429q41 0 39 -96q-2 -86 -69.5 -196t-150.5 -138q-7 -2 -17.5 -2t-23 1t-17.5 1q-11 0 -15 -4.5t-8 -18.5q-22 -101 -51 -160q-41 -79 -49 -90q-6 -9 -19 -9q-5 0 -8 5.5t1 15.5q33 61 49 108q23 54 39 126q57 252 155 647q5 23 -3 28t-32 5q-34 0 -91 -22
q-6 -1 -10.5 4t-4.5 12q-1 7 3.5 11t15.5 7q88 25 128 25q29 1 37 -12.5t2 -36.5q-17 -53 -33.5 -113t-37.5 -145t-27 -109q-5 -18 0.5 -21.5t18.5 13.5q30 43 62 81q69 83 117 83zM322 387q-31 -1 -75 -54q-37 -44 -55 -67t-45 -67t-38 -79q-12 -44 -17 -69q-3 -14 8 -17
q8 -3 38 -3q44 0 92.5 57t78 127.5t29.5 117.5q3 23 -2.5 38.5t-13.5 15.5z" />
    <glyph glyph-name="ydieresis" unicode="&#xff;" horiz-adv-x="442" 
d="M307 580q-1 -17 -17 -30.5t-32 -13.5q-17 0 -14 23q1 22 12.5 35.5t28.5 13.5q22 0 22 -28zM447 580q-1 -17 -16 -30.5t-31 -13.5q-17 0 -15 23q1 22 13 35.5t29 13.5q21 0 20 -28zM339 132q-5 -21 -5.5 -51.5t3.5 -47.5q18 -74 18 -96q0 -94 -79.5 -151t-175.5 -57
q-87 0 -124 28t-37 67q0 21 13.5 43.5t26 34.5t45.5 41q7 7 11 10q7 7 16 8t12 -3q10 -14 -13 -33q-67 -59 -67 -96q0 -68 122 -68q83 0 146.5 49t63.5 124q0 18 -7 48.5t-8 39.5q-10 71 8 114q12 28 4 26q-8 -4 -27 -28q-30 -40 -97 -110q-34 -34 -63 -34q-69 0 -32 136
q11 41 37.5 123t29.5 92q18 60 -28 23q-8 -6 -36.5 -30.5t-31.5 -27.5q-19 -16 -27 -5q-10 11 26 42q4 3 20.5 18t27 23.5t25.5 20.5t26 17.5t19 5.5q11 0 17.5 -10.5t6.5 -27.5q0 -23 -14 -65q-56 -171 -66 -211q-22 -86 8 -86q12 0 38.5 24t49.5 52q71 83 104 136t70 157
q11 30 34 30q5 0 6.5 -8.5t-3.5 -19.5q-56 -136 -93 -267z" />
    <glyph glyph-name="Amacron" unicode="&#x100;" horiz-adv-x="648" 
d="M448 601q11 -85 39.5 -268t33.5 -208q2 -7 4.5 -21.5t3.5 -19t3.5 -14t4.5 -12.5t5.5 -9t7 -7.5t9 -5t12.5 -4.5t16 -3q17 -3 17 -19q-2 -15 -29 -12q-21 2 -39 2.5t-28.5 0t-31.5 -2t-36 -2.5q-20 0 -20 10q0 11 14 17q20 6 26.5 8t17 8t13 13.5t1.5 19.5
q-11 88 -17 101q-5 12 -20 15q-19 2 -120 2t-125 -1q-35 0 -47 -14l-78 -105q-14 -19 -8 -25q10 -9 66 -12q13 -1 26 -6t12 -14q-1 -7 -12 -11.5t-23 -2.5q-60 7 -118 1q-15 -2 -26 1.5t-11 10.5q0 8 11 20.5t27 27.5t22 23q209 283 337 473q9 13 13.5 27t7 21.5t7.5 9.5
q13 7 21.5 5t10.5 -18zM466 244q-20 141 -38 245q-8 41 -14.5 39.5t-37.5 -47.5q-15 -22 -73.5 -104.5t-91.5 -130.5q-14 -22 5 -23q33 -2 233 -2q21 0 17 23zM325 658q-25 0 -18 18q5 17 31 17q160 0 210 6q4 0 10.5 1.5t10 2t7.5 0.5t5.5 -3t1.5 -8q0 -13 -20 -25
q-8 -6 -28 -6q-54 -3 -210 -3z" />
    <glyph glyph-name="amacron" unicode="&#x101;" horiz-adv-x="437" 
d="M260 -8q-31 0 -35.5 40t12.5 84q7 19 2 21.5t-17 -13.5q-15 -21 -55 -63.5t-58 -54.5q-32 -25 -53.5 -8t-21.5 71q0 100 64 209t133 141q22 7 44.5 2t40.5 -17q15 -10 33 8q8 9 23 35q12 21 24 15q7 -3 8.5 -5.5t-2.5 -17.5q-87 -190 -129 -312q-11 -32 -13.5 -54.5
t0.5 -31.5t9 -9q11 0 32 19q52 56 79 87q15 19 28 8q13 -9 -1 -25q-45 -53 -96 -102q-27 -27 -51 -27zM113 50q88 78 147 170q32 50 54 116q5 14 2.5 21.5t-14.5 15.5q-42 27 -77 6q-54 -33 -103.5 -125t-49.5 -185q0 -56 41 -19zM199 508q-13 0 -17.5 4t-0.5 13q5 17 30 17
q161 0 211 6q4 1 10.5 2.5t10 2t7.5 0t5.5 -3.5t1.5 -8q0 -12 -20 -25q-9 -6 -28 -6q-36 -2 -210 -2z" />
    <glyph glyph-name="Abreve" unicode="&#x102;" horiz-adv-x="648" 
d="M448 601q11 -85 39.5 -268t33.5 -208q2 -7 4.5 -21.5t3.5 -19t3.5 -14t4.5 -12.5t5.5 -9t7 -7.5t9 -5t12.5 -4.5t16 -3q17 -3 17 -19q-2 -15 -29 -12q-21 2 -39 2.5t-28.5 0t-31.5 -2t-36 -2.5q-20 0 -20 10q0 11 14 17q20 6 26.5 8t17 8t13 13.5t1.5 19.5
q-11 88 -17 101q-5 12 -20 15q-19 2 -120 2t-125 -1q-35 0 -47 -14l-78 -105q-14 -19 -8 -25q10 -9 66 -12q13 -1 26 -6t12 -14q-1 -7 -12 -11.5t-23 -2.5q-60 7 -118 1q-15 -2 -26 1.5t-11 10.5q0 8 11 20.5t27 27.5t22 23q209 283 337 473q9 13 13.5 27t7 21.5t7.5 9.5
q13 7 21.5 5t10.5 -18zM466 244q-20 141 -38 245q-8 41 -14.5 39.5t-37.5 -47.5q-15 -22 -73.5 -104.5t-91.5 -130.5q-14 -22 5 -23q33 -2 233 -2q21 0 17 23zM555 758q10 -5 -3 -28q-20 -42 -51.5 -61t-62.5 -19q-38 0 -55.5 23t-18.5 54q0 31 15 32q8 1 12 -5.5t5 -14.5
q2 -55 46 -55q31 0 48 14t38 46q12 18 27 14z" />
    <glyph glyph-name="abreve" unicode="&#x103;" horiz-adv-x="437" 
d="M260 -8q-31 0 -35.5 40t12.5 84q7 19 2 21.5t-17 -13.5q-15 -21 -55 -63.5t-58 -54.5q-32 -25 -53.5 -8t-21.5 71q0 100 64 209t133 141q22 7 44.5 2t40.5 -17q15 -10 33 8q8 9 23 35q12 21 24 15q7 -3 8.5 -5.5t-2.5 -17.5q-87 -190 -129 -312q-11 -32 -13.5 -54.5
t0.5 -31.5t9 -9q11 0 32 19q52 56 79 87q15 19 28 8q13 -9 -1 -25q-45 -53 -96 -102q-27 -27 -51 -27zM113 50q88 78 147 170q32 50 54 116q5 14 2.5 21.5t-14.5 15.5q-42 27 -77 6q-54 -33 -103.5 -125t-49.5 -185q0 -56 41 -19zM418 606q10 -3 -3 -28q-20 -42 -52 -61
t-62 -19q-38 0 -55.5 23t-18.5 55q0 29 15 32q7 1 11.5 -6t4.5 -14q4 -56 47 -56q30 0 48 14.5t38 46.5q12 19 27 13z" />
    <glyph glyph-name="Aogonek" unicode="&#x104;" horiz-adv-x="648" 
d="M551 -125q6 -11 -18 -32q-35 -29 -69 -29q-63 0 -61 63q0 52 68 106q17 14 3 14q-4 1 -15 0q-12 -1 -19 -1q-20 0 -20 10q0 11 14 17q20 6 26.5 8t17 8t13 13.5t1.5 19.5q-11 88 -17 101q-5 12 -20 15q-19 2 -120 2t-125 -1q-35 0 -47 -14l-78 -105q-14 -19 -8 -25
q10 -9 66 -12q13 -1 26 -6t12 -14q-1 -7 -12 -11.5t-23 -2.5q-60 7 -118 1q-15 -2 -26 1.5t-11 10.5q0 8 11 20.5t27 27.5t22 23q209 283 337 473q9 13 13.5 27t7 21.5t7.5 9.5q13 7 21.5 5t10.5 -18q11 -85 39.5 -268t33.5 -208q2 -7 4.5 -21.5t3.5 -19t3.5 -14t4.5 -12.5
t5.5 -9t7 -7.5t9 -5t12.5 -4.5t16 -3q17 -3 17 -19q-2 -15 -29 -12q-17 3 -25.5 2t-25.5 -13q-82 -60 -82 -108q0 -27 26 -27q22 0 55 23q19 13 28 0zM466 244q-20 141 -38 245q-8 41 -14.5 39.5t-37.5 -47.5q-15 -22 -73.5 -104.5t-91.5 -130.5q-14 -22 5 -23q33 -2 233 -2
q21 0 17 23z" />
    <glyph glyph-name="aogonek" unicode="&#x105;" horiz-adv-x="437" 
d="M297 -125q8 -12 -18 -32q-34 -29 -69 -29q-30 0 -45.5 16.5t-14.5 46.5q0 57 76 115q7 5 8.5 7t-1.5 7.5t-4 9.5q-13 38 8 100q7 19 2 21.5t-17 -13.5q-15 -21 -55 -63.5t-58 -54.5q-32 -25 -53.5 -8t-21.5 71q0 100 64 209t133 141q22 7 44.5 2t40.5 -17q15 -10 33 8
q8 9 23 35q12 21 24 15q7 -3 8.5 -5.5t-2.5 -17.5q-87 -190 -129 -312q-11 -32 -13.5 -54.5t0.5 -31.5t9 -9q11 0 32 19q52 56 79 87q15 19 28 8q13 -9 -1 -25q-45 -53 -96 -102q-8 -8 -23 -18.5t-21 -16.5q-77 -65 -77 -105q0 -26 25 -26q23 0 54 22q19 13 28 0zM113 50
q88 78 147 170q32 50 54 116q5 14 2.5 21.5t-14.5 15.5q-42 27 -77 6q-54 -33 -103.5 -125t-49.5 -185q0 -56 41 -19z" />
    <glyph glyph-name="Cacute" unicode="&#x106;" horiz-adv-x="545" 
d="M255 -8q-51 0 -90 20t-61 52t-32.5 67.5t-10.5 71.5q0 73 23 139t59.5 114t82.5 83.5t92.5 53.5t88.5 18q130 0 130 -64q0 -25 -18 -53t-44 -45q-2 -1 -5.5 -3t-5.5 -3.5t-5 -3t-5.5 -2t-5 -0.5t-4.5 1t-4 3q-7 6 -4 15.5t12 14.5q47 26 47 64q0 41 -92 41
q-50 0 -103 -28t-97 -75.5t-72.5 -119t-28.5 -150.5q0 -74 43 -124t120 -50q40 0 73.5 9t60 27t38 27.5t28.5 26.5q11 11 23 16t17 1q13 -7 -11 -34q-59 -62 -111 -86t-128 -24zM467 744q19 14 53 21q17 4 18 -8t-11 -17q-17 -6 -61 -32t-64 -40q-22 -13 -33 -6q-11 9 5 22
q10 9 27 20t38 23t28 17z" />
    <glyph glyph-name="cacute" unicode="&#x107;" horiz-adv-x="336" 
d="M122 -8q-43 0 -64 40.5t-19 98.5q4 73 57 163t138 125q26 13 56 2.5t30 -42.5q0 -39 -40 -73q-16 -15 -27 1q-6 11 8 23q9 8 16.5 20.5t7.5 19.5q0 18 -16.5 20.5t-28.5 -4.5q-71 -29 -117 -107.5t-46 -147.5q-1 -44 12 -73t41 -29q21 0 53 25q47 38 75 66q4 5 12 7
t13 -2q9 -9 -7 -24q-59 -59 -85 -79q-3 -2 -9 -6.5t-9 -6.5t-8.5 -5t-9.5 -5t-9.5 -3.5t-11.5 -2.5t-12 -1zM337 613q12 16 19 20t27 9q12 3 16.5 0.5t3.5 -7.5t-7 -9q-14 -9 -46.5 -46t-48.5 -60q-16 -20 -29 -17q-14 5 -3 23q9 15 36 47.5t32 39.5z" />
    <glyph glyph-name="Ccircumflex" unicode="&#x108;" horiz-adv-x="545" 
d="M255 -8q-51 0 -90 20t-61 52t-32.5 67.5t-10.5 71.5q0 73 23 139t59.5 114t82.5 83.5t92.5 53.5t88.5 18q130 0 130 -64q0 -25 -18 -53t-44 -45q-2 -1 -5.5 -3t-5.5 -3.5t-5 -3t-5.5 -2t-5 -0.5t-4.5 1t-4 3q-7 6 -4 15.5t12 14.5q47 26 47 64q0 41 -92 41
q-50 0 -103 -28t-97 -75.5t-72.5 -119t-28.5 -150.5q0 -74 43 -124t120 -50q40 0 73.5 9t60 27t38 27.5t28.5 26.5q11 11 23 16t17 1q13 -7 -11 -34q-59 -62 -111 -86t-128 -24zM445 769q11 3 15 0t7 -15q6 -21 29 -72q9 -19 -4 -23q-18 -3 -25 11q-8 12 -20 41q-4 9 -7 11
t-6.5 0.5t-13.5 -9.5q-22 -18 -42 -38q-22 -19 -39 -13q-7 4 -2.5 11.5t20.5 20.5q7 4 55 52q24 22 33 23z" />
    <glyph glyph-name="ccircumflex" unicode="&#x109;" horiz-adv-x="336" 
d="M122 -8q-43 0 -64 40.5t-19 98.5q4 73 57 163t138 125q26 13 56 2.5t30 -42.5q0 -39 -40 -73q-16 -15 -27 1q-6 11 8 23q9 8 16.5 20.5t7.5 19.5q0 18 -16.5 20.5t-28.5 -4.5q-71 -29 -117 -107.5t-46 -147.5q-1 -44 12 -73t41 -29q21 0 53 25q47 38 75 66q4 5 12 7
t13 -2q9 -9 -7 -24q-59 -59 -85 -79q-3 -2 -9 -6.5t-9 -6.5t-8.5 -5t-9.5 -5t-9.5 -3.5t-11.5 -2.5t-12 -1zM306 638q11 2 15.5 -1.5t6.5 -16.5q5 -34 20 -89q6 -21 -7 -27q-16 -5 -20 12q-1 3 -15 51q-3 19 -6 19.5t-21 -17.5l-37 -42q-29 -27 -41 -19q-13 7 19 37
q33 36 54 64q20 26 32 29z" />
    <glyph glyph-name="Cdotaccent" unicode="&#x10a;" horiz-adv-x="545" 
d="M255 -8q-51 0 -90 20t-61 52t-32.5 67.5t-10.5 71.5q0 73 23 139t59.5 114t82.5 83.5t92.5 53.5t88.5 18q130 0 130 -64q0 -25 -18 -53t-44 -45q-2 -1 -5.5 -3t-5.5 -3.5t-5 -3t-5.5 -2t-5 -0.5t-4.5 1t-4 3q-7 6 -4 15.5t12 14.5q47 26 47 64q0 41 -92 41
q-50 0 -103 -28t-97 -75.5t-72.5 -119t-28.5 -150.5q0 -74 43 -124t120 -50q40 0 73.5 9t60 27t38 27.5t28.5 26.5q11 11 23 16t17 1q13 -7 -11 -34q-59 -62 -111 -86t-128 -24zM458 710q-1 -17 -16.5 -30.5t-32.5 -13.5q-15 0 -15 23q1 22 13 35.5t29 13.5q22 0 22 -28z
" />
    <glyph glyph-name="cdotaccent" unicode="&#x10b;" horiz-adv-x="336" 
d="M122 -8q-43 0 -64 40.5t-19 98.5q4 73 57 163t138 125q26 13 56 2.5t30 -42.5q0 -39 -40 -73q-16 -15 -27 1q-6 11 8 23q9 8 16.5 20.5t7.5 19.5q0 18 -16.5 20.5t-28.5 -4.5q-71 -29 -117 -107.5t-46 -147.5q-1 -44 12 -73t41 -29q21 0 53 25q47 38 75 66q4 5 12 7
t13 -2q9 -9 -7 -24q-59 -59 -85 -79q-3 -2 -9 -6.5t-9 -6.5t-8.5 -5t-9.5 -5t-9.5 -3.5t-11.5 -2.5t-12 -1zM332 576q-1 -18 -16.5 -31.5t-32.5 -13.5q-16 0 -14 24q1 22 12.5 35.5t28.5 13.5q22 0 22 -28z" />
    <glyph glyph-name="Ccaron" unicode="&#x10c;" horiz-adv-x="545" 
d="M255 -8q-51 0 -90 20t-61 52t-32.5 67.5t-10.5 71.5q0 73 23 139t59.5 114t82.5 83.5t92.5 53.5t88.5 18q130 0 130 -64q0 -25 -18 -53t-44 -45q-2 -1 -5.5 -3t-5.5 -3.5t-5 -3t-5.5 -2t-5 -0.5t-4.5 1t-4 3q-7 6 -4 15.5t12 14.5q47 26 47 64q0 41 -92 41
q-50 0 -103 -28t-97 -75.5t-72.5 -119t-28.5 -150.5q0 -74 43 -124t120 -50q40 0 73.5 9t60 27t38 27.5t28.5 26.5q11 11 23 16t17 1q13 -7 -11 -34q-59 -62 -111 -86t-128 -24zM415 660q-11 -2 -14.5 1t-6.5 14q-4 12 -32 71q-8 18 5 23q17 3 25 -11q20 -36 22 -40
q3 -7 4.5 -9.5t4.5 -2.5t6 2t11 8q7 6 23.5 22.5t19.5 18.5q22 19 38 12q14 -5 -18 -32q-5 -3 -28.5 -26.5l-26.5 -26.5q-22 -22 -33 -24z" />
    <glyph glyph-name="ccaron" unicode="&#x10d;" horiz-adv-x="336" 
d="M122 -8q-43 0 -64 40.5t-19 98.5q4 73 57 163t138 125q26 13 56 2.5t30 -42.5q0 -39 -40 -73q-16 -15 -27 1q-6 11 8 23q9 8 16.5 20.5t7.5 19.5q0 18 -16.5 20.5t-28.5 -4.5q-71 -29 -117 -107.5t-46 -147.5q-1 -44 12 -73t41 -29q21 0 53 25q47 38 75 66q4 5 12 7
t13 -2q9 -9 -7 -24q-59 -59 -85 -79q-3 -2 -9 -6.5t-9 -6.5t-8.5 -5t-9.5 -5t-9.5 -3.5t-11.5 -2.5t-12 -1zM277 503q-11 -2 -15.5 1.5t-6.5 17.5q-4 27 -19 88q-7 23 6 27q15 5 21 -12q6 -13 14 -51q3 -19 6 -19t22 17q25 32 37 42q29 27 40 20q12 -8 -18 -38
q-10 -9 -55 -63q-18 -25 -32 -30z" />
    <glyph glyph-name="Dcaron" unicode="&#x10e;" horiz-adv-x="626" 
d="M98 582q0 15 32 18q85 9 192 9q74 0 120 -5q77 -9 126 -58.5t49 -143.5q0 -157 -110 -282.5t-248 -125.5q-99 0 -155 44q-23 14 -8 78q62 243 92 371q16 55 7 71t-59 12q-38 -5 -38 12zM243 543q-79 -297 -105 -427q-6 -25 -3 -36t20 -24q36 -27 113 -27q50 0 105 28.5
t100.5 76t75 118.5t29.5 148q0 151 -158 172q-62 8 -135 5q-22 0 -29 -6.5t-13 -27.5zM391 660q-11 -2 -15 1t-7 14q-6 18 -18 43.5t-13 27.5q-9 18 4 23q17 3 25 -11q20 -36 22 -40q3 -7 4.5 -9.5t4.5 -2.5t6 2t11 8q7 6 23.5 22.5t19.5 18.5q22 19 39 12q6 -4 1.5 -11
t-20.5 -21q-5 -3 -28.5 -26.5l-26.5 -26.5q-22 -22 -32 -24z" />
    <glyph glyph-name="dcaron" unicode="&#x10f;" horiz-adv-x="439" 
d="M277 -8q-31 0 -37.5 40t8.5 84q6 19 0.5 21.5t-17.5 -13.5q-12 -18 -53.5 -61.5t-59.5 -56.5q-32 -25 -54.5 -8t-24.5 71q-4 99 55.5 208.5t127.5 141.5q36 15 82 -14q18 -9 21.5 -6.5t12.5 23.5q19 44 42.5 108t28.5 89q3 10 2.5 16.5t-1.5 10t-7.5 5t-10.5 1.5h-15
q-30 0 -92 -22q-6 -1 -10 4t-4 12q-1 7 4 11t17 7q90 25 129 25q29 1 36.5 -13.5t-1.5 -35.5q-83 -221 -173 -513q-9 -32 -10.5 -54.5t2.5 -31t10 -8.5q12 0 30 18q70 80 76 87q14 19 27 8q14 -10 0 -25q-57 -68 -92 -102q-24 -27 -49 -27zM119 50q103 95 146 170
q24 41 44 116q4 14 1 21.5t-15 15.5q-45 27 -78 6q-53 -33 -98.5 -125t-41.5 -185q2 -57 42 -19zM501 612q-12 10 -2 23q44 56 81 56q20 0 31 -13.5t11 -33.5q0 -39 -31 -88.5t-67 -85.5q-4 -5 -14 -9t-15 0q-5 3 -4.5 11.5t6.5 14.5q89 96 89 149q0 15 -12 15
q-17 0 -45 -31q-7 -9 -16 -10.5t-12 2.5z" />
    <glyph glyph-name="Dcroat" unicode="&#x110;" horiz-adv-x="626" 
d="M134 324h-46q-17 0 -22.5 3.5t-0.5 12.5q9 15 41 15q13 -1 36 -1q5 0 8.5 1t5 4t2.5 4.5t2 5.5t1 5q21 86 27 113q16 55 7 71t-59 12q-38 -5 -38 12q0 15 32 18q85 9 193 9q73 0 119 -5q78 -9 126.5 -58.5t48.5 -143.5q0 -157 -109.5 -282.5t-247.5 -125.5
q-100 0 -155 44q-24 14 -9 78q9 38 27 106t22 85q6 17 -11 17zM244 543l-47 -172q-3 -17 16 -17q77 0 137 2q18 0 31 6q20 10 31 11t12 -9q0 -14 -29 -30q-17 -10 -38 -10q-73 -2 -155 0h-9.5t-5.5 -2.5t-3.5 -4.5l-2.5 -10q-24 -96 -43 -191q-6 -24 -3 -35.5t20 -24.5
q36 -27 113 -27q50 0 105 28.5t101 76t75.5 118.5t29.5 148q0 152 -159 172q-60 8 -135 5q-21 0 -28.5 -7t-12.5 -27z" />
    <glyph glyph-name="dcroat" unicode="&#x111;" horiz-adv-x="439" 
d="M250 508q-13 0 -17.5 4t-0.5 13q6 17 31 17h106q7 0 10 0.5t6.5 4t5.5 11.5q17 56 18 61q3 10 2.5 16.5t-1.5 10t-7.5 5t-10.5 1.5h-15q-30 0 -92 -22q-6 -1 -10 4t-4 12q-1 7 4 11t17 7q90 25 129 25q29 1 36.5 -13.5t-1.5 -35.5l-29 -79q-4 -12 -2.5 -14t12.5 -2
q17 0 36 3q4 1 10.5 2.5t10 2t7.5 0t5.5 -3.5t1.5 -8q0 -13 -20 -25q-8 -6 -28 -6q-7 -1 -32 -1q-14 0 -17 -2.5t-9 -16.5q-56 -156 -119 -363q-9 -32 -10.5 -54.5t2.5 -31t10 -8.5q12 0 30 18q70 80 76 87q14 19 27 8q14 -10 0 -25q-57 -68 -92 -102q-24 -27 -49 -27
q-31 0 -37.5 40t8.5 84q6 19 0.5 21.5t-17.5 -13.5q-12 -18 -53.5 -61.5t-59.5 -56.5q-32 -25 -54.5 -8t-24.5 71q-4 99 55.5 208.5t127.5 141.5q36 15 82 -14q18 -9 21.5 -6.5t12.5 23.5q12 28 28 70q2 5 2.5 8t0.5 4.5t-2.5 2.5t-3.5 1h-5.5h-5.5h-102zM119 50
q103 95 146 170q24 41 44 116q4 14 1 21.5t-15 15.5q-45 27 -78 6q-53 -33 -98.5 -125t-41.5 -185q2 -57 42 -19z" />
    <glyph glyph-name="Emacron" unicode="&#x112;" horiz-adv-x="478" 
d="M221 -8q-189 0 -189 149q0 72 58 127.5t127 76.5q21 7 20.5 10t-22.5 9q-29 8 -50 30.5t-21 54.5q1 65 71 113.5t166 48.5q24 0 40 -2t33.5 -8t26.5 -20.5t9 -37.5q0 -36 -46 -75q-26 -19 -40 -10q-4 3 -2 11.5t10 13.5q38 25 38 57q0 37 -75 37q-86 0 -138.5 -41
t-52.5 -81q0 -28 27 -46.5t57.5 -25t60.5 -6.5q27 0 39 2q5 1 9 0t7 -5t-2 -13q-9 -19 -34 -20q-60 -3 -122.5 -28t-107 -71t-44.5 -98t34.5 -84.5t112.5 -32.5q65 0 119 38.5t82 78.5q3 7 13.5 11t19.5 0q11 -6 -5 -31q-36 -57 -103.5 -94.5t-125.5 -37.5zM251 658
q-25 0 -18 18q5 17 30 17q161 0 211 6q4 0 10.5 1.5t10 2t7.5 0.5t5.5 -3t1.5 -8q0 -13 -20 -25q-8 -6 -28 -6q-54 -3 -210 -3z" />
    <glyph glyph-name="emacron" unicode="&#x113;" horiz-adv-x="343" 
d="M121 -7q-38 0 -59.5 34.5t-23.5 84.5q-2 66 35 140.5t94 123.5t109 49q24 0 39 -10.5t15 -28.5q6 -66 -72 -118q-50 -32 -141 -73q-29 -13 -34 -29q-6 -24 -6 -54q0 -29 12 -56t41 -27q30 0 68 29q6 5 60 59q23 21 34 10q11 -8 -6 -25q-51 -53 -81 -76q-42 -33 -84 -33z
M124 233q61 25 110 57q61 39 61 82q-3 19 -26 19q-52 0 -99.5 -54.5t-57.5 -88.5q-5 -14 -2 -16.5t14 1.5zM152 508q-24 0 -17 17q5 17 30 17q144 0 194 6q4 1 11 2.5t10.5 2t7.5 0t5.5 -3.5t1.5 -8q0 -12 -20 -25q-9 -6 -28 -6q-36 -2 -195 -2z" />
    <glyph glyph-name="Ebreve" unicode="&#x114;" horiz-adv-x="478" 
d="M221 -8q-189 0 -189 149q0 72 58 127.5t127 76.5q21 7 20.5 10t-22.5 9q-29 8 -50 30.5t-21 54.5q1 65 71 113.5t166 48.5q24 0 40 -2t33.5 -8t26.5 -20.5t9 -37.5q0 -36 -46 -75q-26 -19 -40 -10q-4 3 -2 11.5t10 13.5q38 25 38 57q0 37 -75 37q-86 0 -138.5 -41
t-52.5 -81q0 -28 27 -46.5t57.5 -25t60.5 -6.5q27 0 39 2q5 1 9 0t7 -5t-2 -13q-9 -19 -34 -20q-60 -3 -122.5 -28t-107 -71t-44.5 -98t34.5 -84.5t112.5 -32.5q65 0 119 38.5t82 78.5q3 7 13.5 11t19.5 0q11 -6 -5 -31q-36 -57 -103.5 -94.5t-125.5 -37.5zM492 758
q10 -4 -2 -28q-39 -80 -115 -80q-37 0 -54.5 23t-18.5 54q0 31 14 32q8 1 12 -5.5t5 -14.5q3 -55 47 -55q30 0 47.5 14.5t37.5 45.5q6 8 14 12t13 2z" />
    <glyph glyph-name="ebreve" unicode="&#x115;" horiz-adv-x="343" 
d="M121 -7q-38 0 -59.5 34.5t-23.5 84.5q-2 66 35 140.5t94 123.5t109 49q24 0 39 -10.5t15 -28.5q6 -66 -72 -118q-50 -32 -141 -73q-29 -13 -34 -29q-6 -24 -6 -54q0 -29 12 -56t41 -27q30 0 68 29q6 5 60 59q23 21 34 10q11 -8 -6 -25q-51 -53 -81 -76q-42 -33 -84 -33z
M124 233q61 25 110 57q61 39 61 82q-3 19 -26 19q-52 0 -99.5 -54.5t-57.5 -88.5q-5 -14 -2 -16.5t14 1.5zM381 606q10 -3 -2 -28q-21 -42 -52.5 -61t-62.5 -19q-38 0 -55 23.5t-18 54.5q0 29 14 32q8 1 12 -5.5t5 -14.5q4 -56 47 -56q30 0 48 14.5t37 46.5q14 19 27 13z
" />
    <glyph glyph-name="Edotaccent" unicode="&#x116;" horiz-adv-x="478" 
d="M221 -8q-189 0 -189 149q0 72 58 127.5t127 76.5q21 7 20.5 10t-22.5 9q-29 8 -50 30.5t-21 54.5q1 65 71 113.5t166 48.5q24 0 40 -2t33.5 -8t26.5 -20.5t9 -37.5q0 -36 -46 -75q-26 -19 -40 -10q-4 3 -2 11.5t10 13.5q38 25 38 57q0 37 -75 37q-86 0 -138.5 -41
t-52.5 -81q0 -28 27 -46.5t57.5 -25t60.5 -6.5q27 0 39 2q5 1 9 0t7 -5t-2 -13q-9 -19 -34 -20q-60 -3 -122.5 -28t-107 -71t-44.5 -98t34.5 -84.5t112.5 -32.5q65 0 119 38.5t82 78.5q3 7 13.5 11t19.5 0q11 -6 -5 -31q-36 -57 -103.5 -94.5t-125.5 -37.5zM422 710
q-2 -17 -17.5 -30.5t-32.5 -13.5q-16 0 -14 23q1 22 12.5 35.5t28.5 13.5q23 0 23 -28z" />
    <glyph glyph-name="edotaccent" unicode="&#x117;" horiz-adv-x="343" 
d="M121 -7q-38 0 -59.5 34.5t-23.5 84.5q-2 66 35 140.5t94 123.5t109 49q24 0 39 -10.5t15 -28.5q6 -66 -72 -118q-50 -32 -141 -73q-29 -13 -34 -29q-6 -24 -6 -54q0 -29 12 -56t41 -27q30 0 68 29q6 5 60 59q23 21 34 10q11 -8 -6 -25q-51 -53 -81 -76q-42 -33 -84 -33z
M124 233q61 25 110 57q61 39 61 82q-3 19 -26 19q-52 0 -99.5 -54.5t-57.5 -88.5q-5 -14 -2 -16.5t14 1.5zM338 576q-2 -18 -17.5 -31.5t-32.5 -13.5q-16 0 -14 24q1 22 12.5 35.5t28.5 13.5q23 0 23 -28z" />
    <glyph glyph-name="Eogonek" unicode="&#x118;" horiz-adv-x="478" 
d="M260 -125q8 -12 -18 -32q-34 -29 -69 -29q-30 0 -45.5 16.5t-14.5 46.5q0 45 62 102q15 14 -8 17q-135 17 -135 145q0 72 58 127.5t127 76.5q21 7 20.5 10t-22.5 9q-29 8 -50 30.5t-21 54.5q1 65 71 113.5t166 48.5q24 0 40 -2t33.5 -8t26.5 -20.5t9 -37.5q0 -36 -46 -75
q-26 -19 -40 -10q-4 3 -2 11.5t10 13.5q38 25 38 57q0 37 -75 37q-86 0 -138.5 -41t-52.5 -81q0 -28 27 -46.5t57.5 -25t60.5 -6.5q27 0 39 2q5 1 9 0t7 -5t-2 -13q-9 -19 -34 -20q-60 -3 -122.5 -28t-107 -71t-44.5 -98t34.5 -84.5t112.5 -32.5q65 0 119 38.5t82 78.5
q3 7 13.5 11t19.5 0q11 -6 -5 -31q-31 -47 -84 -82t-107 -46q-18 -3 -27 -11q-80 -58 -80 -106q0 -27 26 -27q21 0 54 23q19 13 28 0z" />
    <glyph glyph-name="eogonek" unicode="&#x119;" horiz-adv-x="343" 
d="M169 -125q8 -11 -17 -32q-35 -29 -70 -29q-30 0 -45.5 16.5t-14.5 46.5q0 52 68 109q10 7 -7 19q-42 30 -45 107q-2 66 35 140.5t94 123.5t109 49q24 0 39 -10.5t15 -28.5q6 -66 -72 -118q-50 -32 -141 -73q-29 -13 -34 -29q-6 -24 -6 -54q0 -29 12 -56t41 -27
q30 0 68 29q6 5 60 59q23 21 34 10q11 -8 -6 -25q-51 -53 -81 -76q-11 -10 -32 -21t-30 -18q-37 -26 -59 -55.5t-22 -52.5q0 -26 25 -26q23 0 54 22q19 13 28 0zM124 233q61 25 110 57q61 39 61 82q-3 19 -26 19q-52 0 -99.5 -54.5t-57.5 -88.5q-5 -14 -2 -16.5t14 1.5z" />
    <glyph glyph-name="Ecaron" unicode="&#x11a;" horiz-adv-x="478" 
d="M221 -8q-189 0 -189 149q0 72 58 127.5t127 76.5q21 7 20.5 10t-22.5 9q-29 8 -50 30.5t-21 54.5q1 65 71 113.5t166 48.5q24 0 40 -2t33.5 -8t26.5 -20.5t9 -37.5q0 -36 -46 -75q-26 -19 -40 -10q-4 3 -2 11.5t10 13.5q38 25 38 57q0 37 -75 37q-86 0 -138.5 -41
t-52.5 -81q0 -28 27 -46.5t57.5 -25t60.5 -6.5q27 0 39 2q5 1 9 0t7 -5t-2 -13q-9 -19 -34 -20q-60 -3 -122.5 -28t-107 -71t-44.5 -98t34.5 -84.5t112.5 -32.5q65 0 119 38.5t82 78.5q3 7 13.5 11t19.5 0q11 -6 -5 -31q-36 -57 -103.5 -94.5t-125.5 -37.5zM383 660
q-11 -2 -15 1t-7 14q-5 18 -18 44t-13 27q-9 17 4 23q17 3 25 -11q21 -38 22 -40q4 -9 7 -11t6 -0.5t13 9.5q12 10 43 41q24 19 39 12q13 -5 -18 -32q-4 -3 -15.5 -13.5t-23.5 -23.5t-16 -16q-22 -22 -33 -24z" />
    <glyph glyph-name="ecaron" unicode="&#x11b;" horiz-adv-x="343" 
d="M121 -7q-38 0 -59.5 34.5t-23.5 84.5q-2 66 35 140.5t94 123.5t109 49q24 0 39 -10.5t15 -28.5q6 -66 -72 -118q-50 -32 -141 -73q-29 -13 -34 -29q-6 -24 -6 -54q0 -29 12 -56t41 -27q30 0 68 29q6 5 60 59q23 21 34 10q11 -8 -6 -25q-51 -53 -81 -76q-42 -33 -84 -33z
M124 233q61 25 110 57q61 39 61 82q-3 19 -26 19q-52 0 -99.5 -54.5t-57.5 -88.5q-5 -14 -2 -16.5t14 1.5zM277 503q-11 -2 -15.5 1.5t-6.5 17.5q-4 27 -19 88q-7 23 6 27q15 5 21 -12q6 -13 14 -51q3 -19 6 -19t22 17q25 32 37 42q29 27 40 20q12 -8 -18 -38
q-10 -9 -55 -63q-18 -25 -32 -30z" />
    <glyph glyph-name="Gcircumflex" unicode="&#x11c;" horiz-adv-x="593" 
d="M423 609q34 0 63 -5t54.5 -22.5t25.5 -46.5t-15 -56.5t-46 -42.5q-25 -12 -35 0q-5 6 -1 12.5t12 11.5q46 23 46 69q0 21 -31 34.5t-78 13.5q-140 0 -238.5 -98.5t-98.5 -252.5q0 -80 51 -141t140 -61q102 0 171 55t69 115q0 27 -9 45.5t-23 28t-35.5 14.5t-40.5 6t-44 2
h-9q-37 0 -37 20q0 13 37 10q96 -6 220 2q30 3 30 -12q0 -16 -26 -18q-45 -2 -48 -8q-2 -6 13 -23q9 -10 12.5 -33.5t0.5 -38.5q-11 -76 -88.5 -136.5t-199.5 -60.5q-59 0 -104.5 22.5t-69.5 58.5t-36 74t-12 76q0 164 110 275t270 111zM454 769q11 3 14.5 0t7.5 -15
q6 -21 29 -72q9 -19 -4 -23q-18 -3 -25 11q-2 4 -21 41q-3 7 -4.5 9.5t-4.5 2.5t-6 -2t-11 -8q-6 -5 -23.5 -21t-19.5 -17q-20 -19 -38 -13q-7 4 -2.5 11.5t20.5 20.5q9 6 55 52q24 22 33 23z" />
    <glyph glyph-name="gcircumflex" unicode="&#x11d;" horiz-adv-x="403" 
d="M239 419q37 15 85 -15q15 -10 33 8q10 12 23 35q11 21 23 15q7 -4 8.5 -6t-2.5 -17q-93 -206 -129 -312q-20 -53 10 -144q41 -121 -81 -202q-80 -52 -157 -52q-85 0 -117.5 28t-32.5 64q0 32 23 60.5t71 70.5q8 7 18.5 8.5t13.5 -2.5q8 -12 -10 -27q-78 -70 -78 -104
q0 -33 33 -49.5t84 -16.5q36 0 76 15t60 30q47 38 59.5 76.5t-1.5 89.5q-9 32 -12.5 49t-3 43t9.5 52q7 19 2 21.5t-17 -13.5q-17 -22 -56.5 -64t-56.5 -54q-33 -25 -54.5 -8t-21.5 71q0 99 64.5 208.5t133.5 141.5zM120 50q34 29 76.5 77t71.5 93q28 45 54 116q4 14 2 21.5
t-14 15.5q-42 27 -78 6q-54 -33 -103.5 -125t-49.5 -185q0 -57 41 -19zM357 638q11 2 15 -1.5t7 -16.5q6 -41 19 -89q6 -22 -7 -27q-14 -4 -20 12q-6 15 -14 51q-3 19 -6 19.5t-22 -17.5q-6 -6 -20 -22.5t-17 -19.5q-28 -27 -40 -19q-13 6 18 37q40 44 55 64q20 26 32 29z
" />
    <glyph glyph-name="Gbreve" unicode="&#x11e;" horiz-adv-x="593" 
d="M423 609q34 0 63 -5t54.5 -22.5t25.5 -46.5t-15 -56.5t-46 -42.5q-25 -12 -35 0q-5 6 -1 12.5t12 11.5q46 23 46 69q0 21 -31 34.5t-78 13.5q-140 0 -238.5 -98.5t-98.5 -252.5q0 -80 51 -141t140 -61q102 0 171 55t69 115q0 27 -9 45.5t-23 28t-35.5 14.5t-40.5 6t-44 2
h-9q-37 0 -37 20q0 13 37 10q96 -6 220 2q30 3 30 -12q0 -16 -26 -18q-45 -2 -48 -8q-2 -6 13 -23q9 -10 12.5 -33.5t0.5 -38.5q-11 -76 -88.5 -136.5t-199.5 -60.5q-59 0 -104.5 22.5t-69.5 58.5t-36 74t-12 76q0 164 110 275t270 111zM522 758q10 -4 -3 -28
q-20 -42 -51.5 -61t-62.5 -19q-38 0 -55.5 23t-17.5 54t14 32q8 1 12 -5.5t5 -14.5q2 -55 46 -55q31 0 48 14t38 46q13 18 27 14z" />
    <glyph glyph-name="gbreve" unicode="&#x11f;" horiz-adv-x="403" 
d="M239 419q37 15 85 -15q15 -10 33 8q10 12 23 35q11 21 23 15q7 -4 8.5 -6t-2.5 -17q-93 -206 -129 -312q-20 -53 10 -144q41 -121 -81 -202q-80 -52 -157 -52q-85 0 -117.5 28t-32.5 64q0 32 23 60.5t71 70.5q8 7 18.5 8.5t13.5 -2.5q8 -12 -10 -27q-78 -70 -78 -104
q0 -33 33 -49.5t84 -16.5q36 0 76 15t60 30q47 38 59.5 76.5t-1.5 89.5q-9 32 -12.5 49t-3 43t9.5 52q7 19 2 21.5t-17 -13.5q-17 -22 -56.5 -64t-56.5 -54q-33 -25 -54.5 -8t-21.5 71q0 99 64.5 208.5t133.5 141.5zM120 50q34 29 76.5 77t71.5 93q28 45 54 116q4 14 2 21.5
t-14 15.5q-42 27 -78 6q-54 -33 -103.5 -125t-49.5 -185q0 -57 41 -19zM425 606q10 -3 -2 -28q-21 -42 -52.5 -61t-62.5 -19q-38 0 -55 23.5t-18 54.5q0 29 14 32q8 1 12 -5.5t5 -14.5q4 -56 46 -56q31 0 48 14.5t38 46.5q14 19 27 13z" />
    <glyph glyph-name="Gdotaccent" unicode="&#x120;" horiz-adv-x="593" 
d="M423 609q34 0 63 -5t54.5 -22.5t25.5 -46.5t-15 -56.5t-46 -42.5q-25 -12 -35 0q-5 6 -1 12.5t12 11.5q46 23 46 69q0 21 -31 34.5t-78 13.5q-140 0 -238.5 -98.5t-98.5 -252.5q0 -80 51 -141t140 -61q102 0 171 55t69 115q0 27 -9 45.5t-23 28t-35.5 14.5t-40.5 6t-44 2
h-9q-37 0 -37 20q0 13 37 10q96 -6 220 2q30 3 30 -12q0 -16 -26 -18q-45 -2 -48 -8q-2 -6 13 -23q9 -10 12.5 -33.5t0.5 -38.5q-11 -76 -88.5 -136.5t-199.5 -60.5q-59 0 -104.5 22.5t-69.5 58.5t-36 74t-12 76q0 164 110 275t270 111zM459 710q-2 -17 -17.5 -30.5
t-32.5 -13.5q-16 0 -14 23q1 22 12.5 35.5t28.5 13.5q23 0 23 -28z" />
    <glyph glyph-name="gdotaccent" unicode="&#x121;" horiz-adv-x="403" 
d="M239 419q37 15 85 -15q15 -10 33 8q10 12 23 35q11 21 23 15q7 -4 8.5 -6t-2.5 -17q-93 -206 -129 -312q-20 -53 10 -144q41 -121 -81 -202q-80 -52 -157 -52q-85 0 -117.5 28t-32.5 64q0 32 23 60.5t71 70.5q8 7 18.5 8.5t13.5 -2.5q8 -12 -10 -27q-78 -70 -78 -104
q0 -33 33 -49.5t84 -16.5q36 0 76 15t60 30q47 38 59.5 76.5t-1.5 89.5q-9 32 -12.5 49t-3 43t9.5 52q7 19 2 21.5t-17 -13.5q-17 -22 -56.5 -64t-56.5 -54q-33 -25 -54.5 -8t-21.5 71q0 99 64.5 208.5t133.5 141.5zM120 50q34 29 76.5 77t71.5 93q28 45 54 116q4 14 2 21.5
t-14 15.5q-42 27 -78 6q-54 -33 -103.5 -125t-49.5 -185q0 -57 41 -19zM361 576q-1 -18 -17 -31.5t-33 -13.5q-16 0 -14 24q1 22 12.5 35.5t28.5 13.5q23 0 23 -28z" />
    <glyph glyph-name="Gcommaaccent" unicode="&#x122;" horiz-adv-x="593" 
d="M423 609q34 0 63 -5t54.5 -22.5t25.5 -46.5t-15 -56.5t-46 -42.5q-25 -12 -35 0q-5 6 -1 12.5t12 11.5q46 23 46 69q0 21 -31 34.5t-78 13.5q-140 0 -238.5 -98.5t-98.5 -252.5q0 -80 51 -141t140 -61q102 0 171 55t69 115q0 27 -9 45.5t-23 28t-35.5 14.5t-40.5 6t-44 2
h-9q-37 0 -37 20q0 13 37 10q96 -6 220 2q30 3 30 -12q0 -16 -26 -18q-45 -2 -48 -8q-2 -6 13 -23q9 -10 12.5 -33.5t0.5 -38.5q-11 -76 -88.5 -136.5t-199.5 -60.5q-59 0 -104.5 22.5t-69.5 58.5t-36 74t-12 76q0 164 110 275t270 111zM158 -128q-11 9 -1 23q44 56 80 56
q20 0 31 -13.5t11 -33.5q0 -39 -30.5 -88t-66.5 -86q-4 -4 -14.5 -8.5t-15.5 -0.5t-4.5 12t6.5 14q89 96 89 149q0 15 -12 15q-16 0 -44 -31q-16 -19 -29 -8z" />
    <glyph glyph-name="gcommaaccent" unicode="&#x123;" horiz-adv-x="403" 
d="M239 419q37 15 85 -15q15 -10 33 8q10 12 23 35q11 21 23 15q7 -4 8.5 -6t-2.5 -17q-93 -206 -129 -312q-20 -53 10 -144q41 -121 -81 -202q-80 -52 -157 -52q-85 0 -117.5 28t-32.5 64q0 32 23 60.5t71 70.5q8 7 18.5 8.5t13.5 -2.5q8 -12 -10 -27q-78 -70 -78 -104
q0 -33 33 -49.5t84 -16.5q36 0 76 15t60 30q47 38 59.5 76.5t-1.5 89.5q-9 32 -12.5 49t-3 43t9.5 52q7 19 2 21.5t-17 -13.5q-17 -22 -56.5 -64t-56.5 -54q-33 -25 -54.5 -8t-21.5 71q0 99 64.5 208.5t133.5 141.5zM120 50q34 29 76.5 77t71.5 93q28 45 54 116q4 14 2 21.5
t-14 15.5q-42 27 -78 6q-54 -33 -103.5 -125t-49.5 -185q0 -57 41 -19zM389 561q11 -9 2 -22q-45 -56 -81 -56q-41 0 -41 46q0 40 33 90t72 85q4 4 13.5 8t14.5 0t5 -12t-6 -14q-98 -91 -98 -148q0 -19 13 -19q22 0 46 33q15 21 27 9z" />
    <glyph glyph-name="Hcircumflex" unicode="&#x124;" horiz-adv-x="742" 
d="M557 591q3 12 15.5 13.5t38.5 -1.5q60 -7 126 -1q54 4 54 -9q0 -20 -33 -21q-44 -1 -55.5 -10.5t-21.5 -50.5q-53 -200 -94 -397q-11 -55 -1.5 -67t65.5 -17q27 -1 21 -18q-3 -9 -19.5 -11.5t-27.5 -0.5q-91 9 -176 -2q-20 -2 -27 2t-5 13t8 11t27 4q6 1 10 1
q43 4 54 15.5t27 58.5q7 22 43 175q4 17 0.5 21t-15.5 4q-205 4 -356 -1q-15 -1 -19 -4.5t-9 -19.5q-11 -39 -38 -164q-11 -55 -1.5 -67t65.5 -17q27 -1 21 -18q-3 -9 -19 -11.5t-28 -0.5q-91 10 -176 -2q-20 -2 -27 2t-5 13t8 11t27 4q6 1 10 1q43 4 54 15.5t27 58.5
q38 114 95 402q9 46 2.5 55t-47.5 15q-33 4 -35 9q-1 3 0 7q2 12 14.5 13.5t38.5 -1.5q60 -7 127 -1q54 4 54 -9q0 -20 -34 -21q-44 -1 -55 -10.5t-22 -50.5q-24 -89 -38 -148q-6 -16 -5 -20t17 -5q186 -4 365 1q16 1 18.5 3t5.5 17q13 55 32 146q9 46 2.5 55t-47.5 15
q-2 0 -6 1q-29 3 -30 9q-1 3 0 6zM494 769q11 3 15 0t7 -15q6 -21 29 -72q9 -19 -4 -23q-18 -3 -25 11q-2 4 -5.5 10.5t-7.5 16t-7 14.5q-4 9 -7 11t-6 0.5t-13 -9.5q-5 -4 -14 -12l-18 -16t-11 -10q-22 -19 -39 -13q-7 4 -2 12t21 20q6 4 54 52q26 22 33 23z" />
    <glyph glyph-name="hcircumflex" unicode="&#x125;" horiz-adv-x="470" 
d="M78 646q-1 7 3.5 11t16.5 7q90 25 128 25q29 1 37.5 -13.5t-0.5 -35.5q-54 -162 -126 -391q-7 -21 -5.5 -25.5t20.5 18.5q75 99 124 145t88 46q23 0 22 -35q0 -14 -4.5 -31.5t-12.5 -43t-11 -36.5q-46 -142 -50 -157q-15 -48 -13 -85q0 -16 10 -16q11 0 33 17
q48 48 73 80q15 19 22 15q20 -13 6 -29q-31 -37 -86 -94q-11 -11 -30 -21.5t-29 -10.5q-36 0 -32 66q0 40 15 85q14 49 50 151q1 4 5.5 17.5t8 25.5t6 25t0.5 20.5t-10 7.5q-25 0 -110 -98q-89 -102 -120 -162q-9 -16 -37 -87q-2 -5 -3.5 -10t-2.5 -8t-2.5 -7t-2.5 -5.5
t-2.5 -3.5t-2.5 -3t-3 -2t-4.5 -1.5t-5.5 -0.5q-13 -1 -15.5 4.5t3.5 23.5q132 407 189 595q2 12 3.5 19t-6 10t-13 3.5t-18.5 0.5q-34 0 -91 -22q-7 -1 -11 4t-4 12zM283 822q11 3 15 0t7 -15q6 -21 29 -72q9 -19 -4 -23q-18 -3 -25 11q-8 12 -20 41q-4 9 -7 11t-6 0.5
t-13 -9.5q-20 -15 -43 -38q-22 -19 -39 -13q-7 4 -2.5 11.5t20.5 20.5q7 4 55 52q24 22 33 23z" />
    <glyph glyph-name="Hbar" unicode="&#x126;" horiz-adv-x="742" 
d="M172 444h-52q-25 0 -18 18q4 15 30 15h42q22 0 25 25q10 45 3 56t-47 17q-33 4 -35 9q-1 3 0 7q2 12 14.5 13.5t38.5 -1.5q60 -7 127 -1q54 4 54 -9q0 -20 -34 -21q-43 -1 -54.5 -11.5t-23.5 -52.5q-7 -20 -6 -25.5t21 -5.5q244 0 354 2q16 0 19 3t7 20q9 45 2.5 56
t-46.5 17q-2 0 -6 1q-29 3 -30 9q-1 3 0 6q3 12 15.5 13.5t38.5 -1.5q60 -7 126 -1q54 4 54 -9q0 -20 -33 -21q-44 -2 -57.5 -12.5t-20.5 -51.5q-4 -16 -1 -21.5t21 -5.5q24 0 38 2q4 1 11 2.5t10.5 2t7.5 0t5.5 -3.5t1.5 -8q0 -12 -21 -23q-12 -7 -64 -7q-22 0 -26 -6
q-3 -4 -6 -17q-45 -185 -70 -309q-11 -55 -1.5 -67t65.5 -17q27 -1 21 -18q-3 -9 -19.5 -11.5t-27.5 -0.5q-91 9 -176 -2q-20 -2 -27 2t-5 13t8 11t27 4q6 1 10 1q43 4 54 15.5t27 58.5q7 22 43 175q4 17 0.5 21t-15.5 4q-205 4 -356 -1q-15 -1 -19 -4.5t-9 -19.5
q-11 -39 -38 -164q-11 -55 -1.5 -67t65.5 -17q27 -1 21 -18q-3 -9 -19 -11.5t-28 -0.5q-91 10 -176 -2q-20 -2 -27 2t-5 13t8 11t27 4q6 1 10 1q43 4 54 15.5t27 58.5q23 68 79 322q3 19 -12 19zM205 363q-6 -16 -5 -20t17 -5q184 -4 361 1q10 0 12.5 0.5t7 2.5t5.5 5.5
t3 11.5q7 26 14 64q3 12 -0.5 17t-18.5 5q-107 -1 -354 -1q-10 0 -13.5 -0.5t-6.5 -4t-6 -11.5q-9 -34 -16 -65z" />
    <glyph glyph-name="hbar" unicode="&#x127;" horiz-adv-x="470" 
d="M166 512h-78q-24 0 -17 17q5 17 30 17h76q6 0 9.5 0.5t5.5 1t3.5 3t2.5 3.5t2.5 6.5t2.5 8.5l15 50q2 12 3.5 19t-6 10t-13 3.5t-18.5 0.5q-34 0 -91 -22q-7 -1 -11 4t-4 12q-1 7 3.5 11t16.5 7q90 25 128 25q29 1 37.5 -13.5t-0.5 -35.5q-4 -14 -13 -41l-11 -33
q-5 -13 -3 -16t11 -3q11 0 64 5q4 1 11 2.5t10.5 2t7.5 0t5.5 -3.5t1.5 -8q0 -10 -20 -25q-9 -6 -28 -6q-11 -1 -54 -1q-17 0 -21 -2.5t-9 -18.5q-15 -44 -41 -126.5t-37 -116.5q-7 -21 -5.5 -25.5t20.5 18.5q75 99 124 145t88 46q23 0 22 -35q0 -14 -4.5 -31.5t-12.5 -43
t-11 -36.5q-46 -142 -50 -157q-15 -48 -13 -85q0 -16 10 -16q11 0 33 17q48 48 73 80q15 19 22 15q20 -13 6 -29q-31 -37 -86 -94q-11 -11 -30 -21.5t-29 -10.5q-36 0 -32 66q0 40 15 85q14 49 50 151q1 4 5.5 17.5t8 25.5t6 25t0.5 20.5t-10 7.5q-25 0 -110 -98
q-89 -102 -120 -162q-9 -16 -37 -87q-2 -5 -3.5 -10t-2.5 -8t-2.5 -7t-2.5 -5.5t-2.5 -3.5t-2.5 -3t-3 -2t-4.5 -1.5t-5.5 -0.5q-13 -1 -15.5 4.5t3.5 23.5q75 231 149 468q10 20 -12 20z" />
    <glyph glyph-name="Itilde" unicode="&#x128;" horiz-adv-x="292" 
d="M122 591q2 12 15 13.5t39 -1.5q60 -7 126 -1q54 4 54 -9q0 -20 -34 -21q-44 -1 -55 -10.5t-21 -50.5q-53 -200 -94 -397q-12 -55 -2.5 -67t65.5 -17q14 -1 19.5 -5t2.5 -13t-19.5 -11.5t-28.5 -0.5q-91 10 -176 -2q-20 -2 -27 2t-5 13q3 9 8.5 11t27.5 4q6 1 10 1
q43 4 54 15.5t27 58.5q32 100 95 402q8 46 1.5 55t-47.5 15q-33 4 -35 9q-1 3 0 7zM211 695q-43 -40 -54 -26t37 52q30 26 45 25.5t37 -21.5t32 -20.5t32 22.5q24 25 35 21q11 -3 1 -20t-24 -31q-48 -50 -87 -8q-17 19 -26.5 20.5t-27.5 -14.5z" />
    <glyph glyph-name="itilde" unicode="&#x129;" horiz-adv-x="276" 
d="M243 140q8 -8 0 -21q-10 -16 -41.5 -52.5t-48.5 -52.5q-20 -18 -44 -18q-37 0 -37 46t16 88l79 200q19 50 2 50q-21 0 -102 -81q-10 -10 -22 -4q-9 5 2 22q18 25 68.5 66.5t71.5 41.5q28 0 28.5 -35t-14.5 -63q-48 -120 -79 -202q-4 -11 -7.5 -23.5t-6 -28t1.5 -26
t16 -10.5q11 0 32 24q13 15 35.5 41t26.5 31q13 17 23 7zM182 556q-47 -39 -55 -30q-9 12 37 52q31 26 46 25.5t37 -21.5q21 -21 31 -20.5t33 22.5q24 26 34 21q3 -1 4 -3.5t-1 -6.5t-4.5 -8t-7 -9t-7.5 -9t-7.5 -9t-6.5 -7q-24 -25 -39.5 -27.5t-39.5 20.5
q-18 19 -26.5 21.5t-27.5 -11.5z" />
    <glyph glyph-name="Imacron" unicode="&#x12a;" horiz-adv-x="292" 
d="M122 591q2 12 15 13.5t39 -1.5q60 -7 126 -1q54 4 54 -9q0 -20 -34 -21q-44 -1 -55 -10.5t-21 -50.5q-53 -200 -94 -397q-12 -55 -2.5 -67t65.5 -17q14 -1 19.5 -5t2.5 -13t-19.5 -11.5t-28.5 -0.5q-91 10 -176 -2q-20 -2 -27 2t-5 13q3 9 8.5 11t27.5 4q6 1 10 1
q43 4 54 15.5t27 58.5q32 100 95 402q8 46 1.5 55t-47.5 15q-33 4 -35 9q-1 3 0 7zM140 658q-25 0 -18 18q5 17 30 17q172 0 211 4q4 0 10.5 1.5t10 2.5t7.5 0.5t5.5 -3.5t1.5 -8q0 -11 -20 -23q-8 -6 -28 -6q-54 -3 -210 -3z" />
    <glyph glyph-name="imacron" unicode="&#x12b;" horiz-adv-x="276" 
d="M243 140q8 -8 0 -21q-10 -16 -41.5 -52.5t-48.5 -52.5q-20 -18 -44 -18q-37 0 -37 46t16 88l79 200q19 50 2 50q-21 0 -102 -81q-10 -10 -22 -4q-9 5 2 22q18 25 68.5 66.5t71.5 41.5q28 0 28.5 -35t-14.5 -63q-48 -120 -79 -202q-4 -11 -7.5 -23.5t-6 -28t1.5 -26
t16 -10.5q11 0 32 24q13 15 35.5 41t26.5 31q13 17 23 7zM98 508q-13 0 -17.5 4t-0.5 13q5 17 30 17q144 0 194 6q4 1 10.5 2.5t10 2t7.5 0t5.5 -3.5t1.5 -8q0 -13 -20 -25q-8 -6 -28 -6q-36 -2 -193 -2z" />
    <glyph glyph-name="Ibreve" unicode="&#x12c;" horiz-adv-x="292" 
d="M122 591q2 12 15 13.5t39 -1.5q60 -7 126 -1q54 4 54 -9q0 -20 -34 -21q-44 -1 -55 -10.5t-21 -50.5q-53 -200 -94 -397q-12 -55 -2.5 -67t65.5 -17q14 -1 19.5 -5t2.5 -13t-19.5 -11.5t-28.5 -0.5q-91 10 -176 -2q-20 -2 -27 2t-5 13q3 9 8.5 11t27.5 4q6 1 10 1
q43 4 54 15.5t27 58.5q32 100 95 402q8 46 1.5 55t-47.5 15q-33 4 -35 9q-1 3 0 7zM366 758q10 -4 -2 -28q-39 -80 -115 -80q-37 0 -54.5 23t-18.5 54q0 31 14 32q8 1 12 -5.5t5 -14.5q3 -55 46 -55q31 0 48 14t38 46q13 18 27 14z" />
    <glyph glyph-name="ibreve" unicode="&#x12d;" horiz-adv-x="276" 
d="M243 140q8 -8 0 -21q-10 -16 -41.5 -52.5t-48.5 -52.5q-20 -18 -44 -18q-37 0 -37 46t16 88l79 200q19 50 2 50q-21 0 -102 -81q-10 -10 -22 -4q-9 5 2 22q18 25 68.5 66.5t71.5 41.5q28 0 28.5 -35t-14.5 -63q-48 -120 -79 -202q-4 -11 -7.5 -23.5t-6 -28t1.5 -26
t16 -10.5q11 0 32 24q13 15 35.5 41t26.5 31q13 17 23 7zM335 606q10 -3 -3 -28q-20 -42 -51.5 -61t-62.5 -19q-38 0 -55 23t-18 55q0 29 14 32q8 1 12 -5.5t5 -14.5q4 -56 46 -56q31 0 48 14.5t38 46.5q14 19 27 13z" />
    <glyph glyph-name="Iogonek" unicode="&#x12e;" horiz-adv-x="292" 
d="M140 -125q8 -12 -18 -32q-35 -29 -69 -29q-61 0 -61 63q0 53 74 113q6 3 5.5 8t-11.5 5q-9 -1 -47 -5q-20 -2 -27 2t-5 13q3 9 8.5 11t27.5 4q6 1 10 1q43 4 54 15.5t27 58.5q32 100 95 402q8 46 1.5 55t-47.5 15q-33 4 -35 9q-1 3 0 7q2 12 15 13.5t39 -1.5
q60 -7 126 -1q54 4 54 -9q0 -20 -34 -21q-44 -1 -55 -10.5t-21 -50.5q-53 -200 -94 -397q-12 -55 -2.5 -67t65.5 -17q14 -1 19.5 -5t2.5 -13t-19.5 -11.5t-28.5 -0.5q-47 7 -75 -13q-37 -27 -60 -56t-23 -52q0 -27 26 -27q22 0 55 23q19 13 28 0z" />
    <glyph glyph-name="iogonek" unicode="&#x12f;" horiz-adv-x="276" 
d="M151 -125q7 -11 -18 -32q-35 -29 -69 -29q-61 0 -61 63q0 49 75 112q5 4 7 7t1 4.5t-4 5t-5 7.5q-10 27 -5 59t16 58l78 200q3 8 5.5 15t4.5 15.5t0 14t-8 5.5q-21 0 -102 -81q-11 -11 -21 -4q-9 6 1 22q18 25 68.5 66.5t71.5 41.5q28 0 28.5 -35t-14.5 -63
q-48 -120 -79 -202q-4 -10 -7.5 -23t-5.5 -28.5t2 -26t15 -10.5t32 24q39 44 62 72q13 17 23 7q8 -8 0 -21q-16 -25 -54.5 -68.5t-62.5 -63.5q-81 -64 -81 -108q0 -26 24 -26t55 22q19 13 28 0zM296 576q-1 -18 -16.5 -31.5t-32.5 -13.5t-15 24q2 22 13.5 35.5t28.5 13.5
q22 0 22 -28z" />
    <glyph glyph-name="Idotaccent" unicode="&#x130;" horiz-adv-x="292" 
d="M122 591q2 12 15 13.5t39 -1.5q60 -7 126 -1q54 4 54 -9q0 -20 -34 -21q-44 -1 -55 -10.5t-21 -50.5q-53 -200 -94 -397q-12 -55 -2.5 -67t65.5 -17q14 -1 19.5 -5t2.5 -13t-19.5 -11.5t-28.5 -0.5q-91 10 -176 -2q-20 -2 -27 2t-5 13q3 9 8.5 11t27.5 4q6 1 10 1
q43 4 54 15.5t27 58.5q32 100 95 402q8 46 1.5 55t-47.5 15q-33 4 -35 9q-1 3 0 7zM302 710q-1 -17 -17 -30.5t-32 -13.5q-17 0 -15 23q1 22 12.5 35.5t28.5 13.5q23 0 23 -28z" />
    <glyph glyph-name="dotlessi" unicode="&#x131;" horiz-adv-x="276" 
d="M243 140q8 -8 0 -21q-10 -16 -41.5 -52.5t-48.5 -52.5q-20 -18 -44 -18q-37 0 -37 46t16 88l79 200q19 50 2 50q-21 0 -102 -81q-10 -10 -22 -4q-9 5 2 22q18 25 68.5 66.5t71.5 41.5q28 0 28.5 -35t-14.5 -63q-48 -120 -79 -202q-4 -11 -7.5 -23.5t-6 -28t1.5 -26
t16 -10.5q11 0 32 24q13 15 35.5 41t26.5 31q13 17 23 7z" />
    <glyph glyph-name="IJ" unicode="&#x132;" horiz-adv-x="578" 
d="M122 591q2 12 15 13.5t39 -1.5q60 -7 126 -1q54 4 54 -9q0 -20 -34 -21q-44 -1 -55 -10.5t-21 -50.5q-53 -200 -94 -397q-12 -55 -2.5 -67t65.5 -17q14 -1 19.5 -5t2.5 -13t-19.5 -11.5t-28.5 -0.5q-91 10 -176 -2q-20 -2 -27 2t-5 13q3 9 8.5 11t27.5 4q6 1 10 1
q43 4 54 15.5t27 58.5q32 100 95 402q8 46 1.5 55t-47.5 15q-33 4 -35 9q-1 3 0 7zM413 597q4 16 43 11q62 -8 131 -4q58 6 58 -7q2 -17 -32 -20q-10 -1 -18 -2.5t-14 -4t-10 -4t-8 -6.5t-5.5 -6.5t-4 -8.5t-3 -9t-2.5 -11.5t-3 -11.5q-15 -58 -32 -130t-28 -120t-16 -65
q-113 -373 -291 -373q-33 0 -52 17.5t-19 45.5q-1 16 12.5 38t31.5 34q23 19 35 7q5 -2 3.5 -11t-10.5 -15q-10 -7 -21 -23t-11 -23q0 -33 34 -33q43 0 82 28.5t65.5 67.5t49.5 90.5t34.5 87t19.5 67.5q55 224 68 310q5 37 -3.5 46.5t-48.5 17.5q-6 1 -9 2q-16 3 -21.5 7
t-4.5 11z" />
    <glyph glyph-name="ij" unicode="&#x133;" horiz-adv-x="546" 
d="M459 265q-62 -204 -100 -300q-32 -91 -109 -176q-55 -59 -114 -59q-57 0 -57 61q0 18 15 42.5t36 41.5q28 24 42 15t-15 -31q-39 -33 -39 -65q0 -26 29 -26q47 0 105 71q48 62 77 141q68 187 108 342q13 49 -2 49q-17 0 -82 -69q-19 -17 -31 -9q-10 7 -3 18q21 28 69 69
q47 45 70 45q24 0 24 -47q0 -37 -23 -113zM243 140q8 -8 0 -21q-10 -16 -41.5 -52.5t-48.5 -52.5q-20 -18 -44 -18q-37 0 -37 46t16 88l79 200q19 50 2 50q-21 0 -102 -81q-10 -10 -22 -4q-9 5 2 22q18 25 68.5 66.5t71.5 41.5q28 0 28.5 -35t-14.5 -63q-48 -120 -79 -202
q-4 -11 -7.5 -23.5t-6 -28t1.5 -26t16 -10.5q11 0 32 24q13 15 35.5 41t26.5 31q13 17 23 7zM567 576q-1 -18 -16.5 -31.5t-32.5 -13.5q-15 0 -15 24q2 22 13.5 35.5t28.5 13.5q22 0 22 -28zM297 576q-1 -18 -17 -31.5t-33 -13.5q-16 0 -14 24q1 22 12.5 35.5t28.5 13.5
q23 0 23 -28z" />
    <glyph glyph-name="Jcircumflex" unicode="&#x134;" horiz-adv-x="290" 
d="M128 597q3 16 43 11q62 -9 130 -4q58 6 58 -7q2 -17 -32 -20q-11 -1 -19.5 -3t-14.5 -3.5t-11 -6.5t-7.5 -6.5t-5.5 -9.5t-3.5 -9.5t-3 -12.5t-3.5 -13q-14 -56 -31 -129.5t-28 -121t-16 -64.5q-10 -34 -18.5 -58t-25 -66t-32.5 -72t-40 -66t-49 -58t-58 -37.5t-69 -15.5
q-32 0 -51 17.5t-19 45.5q-1 16 12.5 38t30.5 34q24 19 36 7q5 -2 3.5 -11t-10.5 -15q-10 -7 -21 -23t-11 -23q0 -33 34 -33q42 0 81.5 28.5t66 67.5t49 90.5t34 87t19.5 67.5q55 214 69 310q5 37 -4 46.5t-48 17.5q-2 1 -3 1t-3 0.5t-3 0.5q-16 3 -22 7t-4 11zM283 769
q11 3 15 0t7 -15q6 -21 29 -72q9 -19 -4 -23q-18 -3 -25 11q-8 12 -20 41q-4 9 -7 11t-6.5 0.5t-13.5 -9.5q-6 -5 -23.5 -21t-19.5 -17q-20 -19 -38 -13q-7 4 -2.5 11.5t20.5 20.5q7 4 55 52q24 22 33 23z" />
    <glyph glyph-name="jcircumflex" unicode="&#x135;" horiz-adv-x="226" 
d="M184 265q-59 -198 -99 -300q-35 -95 -109 -176q-57 -59 -114 -59t-57 61q0 18 15 43t36 41q27 24 41 15q14 -8 -14 -31q-40 -33 -40 -65q0 -26 30 -26q46 0 104 71q49 60 78 141q71 195 107 342q13 49 -1 49q-5 0 -13.5 -5t-19 -14.5t-18 -17l-19 -19l-13.5 -13.5
q-18 -18 -30 -9q-11 6 -3 18q8 11 31 34t38 35q47 45 70 45q24 0 24 -47q0 -39 -24 -113zM236 638q11 2 15 -1.5t7 -16.5q6 -41 19 -89q6 -21 -7 -27q-14 -4 -20 12q-6 15 -14 51q-4 19 -7 19.5t-21 -17.5q-6 -6 -20 -22.5t-17 -19.5q-28 -27 -41 -19q-12 6 19 37
q40 44 55 64q18 26 32 29z" />
    <glyph glyph-name="Kcommaaccent" unicode="&#x136;" horiz-adv-x="687" 
d="M114 591q2 12 14.5 13.5t39.5 -1.5q61 -7 132 -1q54 4 54 -9q0 -20 -34 -21q-44 -1 -55 -10.5t-22 -50.5q-24 -90 -49 -195q-4 -17 3 -16q6 2 18 13q138 134 225 210q51 43 90 65.5t78 22.5q68 0 68 -60q0 -15 -9 -35t-20 -31q-27 -29 -43 -21q-6 3 -7 10t7 17
q31 31 30 54q-1 11 -9.5 18.5t-22.5 7.5q-12 0 -25 -3.5t-21.5 -6.5t-23 -13t-20 -13.5t-23.5 -17.5t-22 -17q-69 -53 -163 -155q-12 -14 -3 -37q34 -93 127 -222q23 -29 42.5 -43t46.5 -14q21 0 42 9t31.5 16.5t32.5 26.5q15 13 26 6q13 -10 -3 -29q-22 -25 -62 -45.5
t-79 -20.5q-54 0 -93 51q-49 63 -77 110.5t-68 129.5q-10 19 -23 12q-5 -3 -19 -16l-4 -3q-31 -28 -40 -52q-17 -42 -32 -110q-11 -55 -1.5 -67t65.5 -17q27 -1 21 -18q-3 -9 -19 -11.5t-28 -0.5q-86 9 -167 -2q-20 -2 -27 2t-5 13q3 9 8.5 11t27.5 4q6 1 10 1q31 4 43.5 16
t27.5 58q38 114 95 402q9 44 0.5 54t-51.5 16q-33 4 -35 9q-1 3 0 7zM211 -128q-11 9 -1 23q44 56 80 56q20 0 31 -13.5t11 -33.5q0 -39 -30.5 -88t-66.5 -86q-5 -4 -15 -8.5t-15 -0.5t-4.5 12t6.5 14q89 96 89 149q0 15 -11 15q-17 0 -45 -31q-16 -19 -29 -8z" />
    <glyph glyph-name="kcommaaccent" unicode="&#x137;" horiz-adv-x="455" 
d="M415 382q0 -53 -46 -97q-68 -63 -91 -81q-15 -12 -18.5 -17t-4.5 -14q-4 -56 15 -109q8 -21 24 -23q7 0 29 19q8 6 33.5 31t30.5 29q12 11 16.5 12.5t11.5 -3.5q5 -8 3.5 -12t-12.5 -18q-45 -49 -92 -89q-18 -15 -35 -15q-15 0 -26 19q-37 57 -33 166q0 17 17 31
q58 44 106 92q35 35 35 72q0 7 -6.5 14t-17.5 7q-34 0 -127 -109q-88 -101 -120 -163q-9 -16 -37 -87q-2 -5 -3.5 -10t-2.5 -8t-2.5 -7t-2.5 -5.5t-2.5 -3.5t-2.5 -3t-3 -2t-4.5 -1.5t-5.5 -0.5q-13 -1 -15.5 4.5t3.5 23.5q132 407 189 595q2 12 3.5 19t-6 10t-13 3.5
t-18.5 0.5q-34 0 -91 -22q-7 -1 -11 4t-4 12q-1 7 3.5 11t16.5 7q90 25 128 25q29 1 37.5 -13.5t-0.5 -35.5q-54 -162 -126 -391q-7 -21 -5.5 -25.5t20.5 18.5q74 97 123 143t89 46q26 0 38.5 -15.5t12.5 -33.5zM88 -128q-12 10 -2 23q44 56 81 56q20 0 31 -13.5t11 -33.5
q0 -39 -30.5 -87.5t-67.5 -86.5q-4 -4 -14 -8.5t-15 -0.5t-5 12t6 14q90 97 90 149q0 15 -12 15q-17 0 -45 -31q-15 -18 -28 -8z" />
    <glyph glyph-name="kgreenlandic" unicode="&#x138;" horiz-adv-x="481" 
d="M38 317q18 26 68 67t72 41t28.5 -21t-1.5 -45q-13 -49 -37 -110q-4 -12 -5 -20t4.5 -6t18.5 19q74 98 124 143.5t90 45.5q26 0 38.5 -15.5t12.5 -33.5q0 -39 -32 -74q-13 -13 -23 -7q-6 2 -6 9.5t4 11.5q20 24 20 53q0 7 -6 14t-18 7q-21 0 -58.5 -35t-70.5 -76
q-19 -23 -25 -33.5t-5 -23.5q12 -123 48 -170q15 -18 30 -18q13 0 28 12q32 30 63 68q17 21 30 10q5 -7 3.5 -11.5t-12.5 -19.5q-20 -26 -29 -37t-27.5 -31t-35.5 -28t-35 -8q-19 0 -37 24q-38 49 -56 180q-3 18 -16 0q-25 -34 -47 -75q-9 -16 -37 -87q-2 -5 -3.5 -10
t-2.5 -8t-2.5 -7t-2.5 -5.5t-2.5 -3.5t-2.5 -3t-3 -2t-4.5 -1.5t-5.5 -0.5q-13 -1 -15.5 4.5t3.5 23.5l99 304q16 50 -1 50q-21 0 -100 -79q-10 -10 -22 -4q-9 5 2 22z" />
    <glyph glyph-name="Lacute" unicode="&#x139;" horiz-adv-x="532" 
d="M199 508q8 41 -2 51t-69 17q-16 1 -13 17q5 12 41 10q118 -5 179 0h15.5t8.5 -3.5t0 -10.5q-2 -15 -26 -17q-52 -2 -67.5 -12.5t-27.5 -54.5q-24 -89 -93 -396q-7 -43 -2.5 -53.5t21.5 -11.5q161 -10 179 -12q45 -5 85 33q39 39 54 97q6 19 28 19q15 -2 2 -43
q-10 -31 -38.5 -73.5t-63.5 -60.5q-25 -9 -58 -8q-24 2 -59 5t-53 4.5t-48.5 2.5t-66.5 0q-23 0 -50.5 -2.5t-50 -5.5t-24.5 -3h-9t-6.5 3t-2.5 8q-1 12 13.5 19t29.5 8q41 5 53 18t25 56q6 21 27.5 111.5t45 188.5t23.5 99zM338 740q19 14 53 21q11 3 15.5 -2t1 -12.5
t-10.5 -10.5q-17 -7 -61.5 -33t-62.5 -39q-21 -15 -33 -6q-11 9 5 22q10 8 27 19t38 23.5t28 17.5z" />
    <glyph glyph-name="lacute" unicode="&#x13a;" horiz-adv-x="261" 
d="M91 641q0 12 20 14q23 3 58 17q45 15 49 15q24 0 24 -34q0 -37 -24 -102q-52 -139 -114 -362q-6 -23 -11 -47t-8.5 -49.5t-1 -41.5t11.5 -16q12 0 46 34q29 30 58 67q22 24 31 21q16 -10 -4 -36q-54 -63 -65 -74q-55 -55 -79 -55q-33 0 -33 49q0 22 3 46t5.5 37t8 36
t6.5 29q25 106 112 364q9 24 21 61q4 14 1 23t-10 9q-4 0 -35 -9q-24 -8 -44 -11q-26 -3 -26 15zM270 797q23 13 55 14q17 3 17 -9.5t-13 -16.5q-44 -11 -132 -55q-21 -13 -33 -3q-12 9 8 21q11 8 28.5 16.5t39.5 18.5t30 14z" />
    <glyph glyph-name="Lcommaaccent" unicode="&#x13b;" horiz-adv-x="532" 
d="M199 508q8 41 -2 51t-69 17q-16 1 -13 17q5 12 41 10q118 -5 179 0h15.5t8.5 -3.5t0 -10.5q-2 -15 -26 -17q-52 -2 -67.5 -12.5t-27.5 -54.5q-24 -89 -93 -396q-7 -43 -2.5 -53.5t21.5 -11.5q161 -10 179 -12q45 -5 85 33q39 39 54 97q6 19 28 19q15 -2 2 -43
q-10 -31 -38.5 -73.5t-63.5 -60.5q-25 -9 -58 -8q-24 2 -59 5t-53 4.5t-48.5 2.5t-66.5 0q-23 0 -50.5 -2.5t-50 -5.5t-24.5 -3h-9t-6.5 3t-2.5 8q-1 12 13.5 19t29.5 8q41 5 53 18t25 56q6 21 27.5 111.5t45 188.5t23.5 99zM160 -128q-12 10 -2 23q44 56 81 56
q20 0 31 -13.5t11 -33.5q0 -39 -30.5 -87.5t-66.5 -86.5q-20 -16 -30 -9q-5 3 -4.5 11.5t6.5 14.5q89 96 89 149q0 15 -12 15q-18 0 -44 -31q-16 -19 -29 -8z" />
    <glyph glyph-name="lcommaaccent" unicode="&#x13c;" horiz-adv-x="261" 
d="M91 641q0 12 20 14q23 3 58 17q45 15 49 15q24 0 24 -34q0 -37 -24 -102q-52 -139 -114 -362q-6 -23 -11 -47t-8.5 -49.5t-1 -41.5t11.5 -16q12 0 46 34q29 30 58 67q22 24 31 21q16 -10 -4 -36q-54 -63 -65 -74q-55 -55 -79 -55q-33 0 -33 49q0 22 3 46t5.5 37t8 36
t6.5 29q25 106 112 364q9 24 21 61q4 14 1 23t-10 9q-4 0 -35 -9q-24 -8 -44 -11q-26 -3 -26 15zM-2 -128q-11 9 -1 23q44 56 80 56q20 0 31.5 -13.5t11.5 -33.5q0 -39 -30.5 -87.5t-67.5 -86.5q-4 -4 -14.5 -8.5t-15.5 -0.5q-4 3 -4 11.5t6 14.5q89 96 89 149q0 15 -11 15
q-17 0 -45 -31q-16 -19 -29 -8z" />
    <glyph glyph-name="Lcaron" unicode="&#x13d;" horiz-adv-x="532" 
d="M199 508q8 41 -2 51t-69 17q-16 1 -13 17q5 12 41 10q118 -5 179 0h15.5t8.5 -3.5t0 -10.5q-2 -15 -26 -17q-52 -2 -67.5 -12.5t-27.5 -54.5q-24 -89 -93 -396q-7 -43 -2.5 -53.5t21.5 -11.5q161 -10 179 -12q45 -5 85 33q39 39 54 97q6 19 28 19q15 -2 2 -43
q-10 -31 -38.5 -73.5t-63.5 -60.5q-25 -9 -58 -8q-24 2 -59 5t-53 4.5t-48.5 2.5t-66.5 0q-23 0 -50.5 -2.5t-50 -5.5t-24.5 -3h-9t-6.5 3t-2.5 8q-1 12 13.5 19t29.5 8q41 5 53 18t25 56q6 21 27.5 111.5t45 188.5t23.5 99zM439 530q-12 10 -2 23q44 56 81 56
q20 0 31 -13.5t11 -33.5q0 -39 -30.5 -87.5t-67.5 -86.5q-4 -4 -14 -8t-15 0t-5 12t6 14q90 95 90 148q0 15 -12 15q-19 0 -45 -31q-15 -18 -28 -8z" />
    <glyph glyph-name="lcaron" unicode="&#x13e;" horiz-adv-x="261" 
d="M91 641q0 12 20 14q23 3 58 17q45 15 49 15q24 0 24 -34q0 -37 -24 -102q-52 -139 -114 -362q-6 -23 -11 -47t-8.5 -49.5t-1 -41.5t11.5 -16q12 0 46 34q29 30 58 67q22 24 31 21q16 -10 -4 -36q-54 -63 -65 -74q-55 -55 -79 -55q-33 0 -33 49q0 22 3 46t5.5 37t8 36
t6.5 29q25 106 112 364q9 24 21 61q4 14 1 23t-10 9q-4 0 -35 -9q-24 -8 -44 -11q-26 -3 -26 15zM296 612q-11 9 -1 23q44 56 80 56q20 0 31.5 -13.5t11.5 -33.5q0 -39 -31 -88.5t-67 -85.5q-4 -5 -14.5 -9t-15.5 0q-4 3 -4 11.5t6 14.5q89 96 89 149q0 17 -11 17
q-21 0 -47 -31q-16 -19 -27 -10z" />
    <glyph glyph-name="Ldot" unicode="&#x13f;" horiz-adv-x="532" 
d="M199 508q8 41 -2 51t-69 17q-16 1 -13 17q5 12 41 10q118 -5 179 0h15.5t8.5 -3.5t0 -10.5q-2 -15 -26 -17q-52 -2 -67.5 -12.5t-27.5 -54.5q-24 -89 -93 -396q-7 -43 -2.5 -53.5t21.5 -11.5q161 -10 179 -12q45 -5 85 33q39 39 54 97q6 19 28 19q15 -2 2 -43
q-10 -31 -38.5 -73.5t-63.5 -60.5q-25 -9 -58 -8q-24 2 -59 5t-53 4.5t-48.5 2.5t-66.5 0q-23 0 -50.5 -2.5t-50 -5.5t-24.5 -3h-9t-6.5 3t-2.5 8q-1 12 13.5 19t29.5 8q41 5 53 18t25 56q6 21 27.5 111.5t45 188.5t23.5 99zM467 340q-1 -17 -17 -31t-32 -14q-17 0 -15 24
q1 22 12.5 35.5t28.5 13.5q23 0 23 -28z" />
    <glyph glyph-name="ldot" unicode="&#x140;" horiz-adv-x="286" 
d="M91 641q0 12 20 14q23 3 58 17q45 15 49 15q24 0 24 -34q0 -37 -24 -102q-52 -139 -114 -362q-6 -23 -11 -47t-8.5 -49.5t-1 -41.5t11.5 -16q12 0 46 34q29 30 58 67q22 24 31 21q16 -10 -4 -36q-54 -63 -65 -74q-55 -55 -79 -55q-33 0 -33 49q0 22 3 46t5.5 37t8 36
t6.5 29q25 106 112 364q9 24 21 61q4 14 1 23t-10 9q-4 0 -35 -9q-24 -8 -44 -11q-26 -3 -26 15zM317 382q-1 -17 -16.5 -30.5t-32.5 -13.5q-15 0 -15 23q1 22 13 35.5t29 13.5q22 0 22 -28z" />
    <glyph glyph-name="Lslash" unicode="&#x141;" horiz-adv-x="532" 
d="M73 259q-31 -8 -25 12q1 8 6.5 12.5t11 6.5t18.5 5q15 4 47 11q16 4 19 7t7 19q41 174 42 176q8 41 -2 51t-69 17q-16 1 -13 17q5 12 41 10q118 -5 179 0h15.5t8.5 -3.5t0 -10.5q-2 -15 -26 -17q-52 -2 -67.5 -12.5t-27.5 -54.5q0 -2 -41 -167q-2 -9 1 -12t14 -1l118 29
q17 2 29 13q17 14 27.5 17.5t13.5 -4.5q4 -16 -21 -38q-12 -14 -35 -19q-81 -20 -140 -33q-19 -2 -25 -26q-8 -29 -19 -84t-15 -71q-7 -43 -2.5 -53.5t21.5 -11.5q161 -10 179 -12q45 -5 85 33q39 39 54 97q6 19 28 19q15 -2 2 -43q-10 -31 -38.5 -73.5t-63.5 -60.5
q-25 -9 -58 -8q-24 2 -59 5t-53 4.5t-48.5 2.5t-66.5 0q-23 0 -50.5 -2.5t-50 -5.5t-24.5 -3h-9t-6.5 3t-2.5 8q-1 12 13.5 19t29.5 8q41 5 53 18t25 56l36 148q2 10 -1.5 13t-13.5 1z" />
    <glyph glyph-name="lslash" unicode="&#x142;" horiz-adv-x="261" 
d="M29 312q-15 -5 -21.5 -3t-4.5 12q4 19 36 28l63 23q16 6 18.5 8.5t8.5 17.5q15 49 52 155l20 61q3 14 0.5 23t-8.5 9q-2 0 -36 -9q-24 -8 -43 -11q-26 -3 -26 15q0 12 20 14q23 3 58 17q42 15 49 15q24 0 24 -34q0 -37 -24 -102q-20 -52 -48 -140q-5 -15 -0.5 -17.5
t14.5 2.5l15 5t21 7.5t19.5 8.5t16.5 11q9 7 15 11t12 7t9.5 2t4.5 -6q1 -11 -18 -40q-10 -9 -34 -19q-27 -10 -73 -24q-17 -6 -20.5 -10.5t-8.5 -20.5q-9 -28 -39 -139q-6 -23 -11 -47t-8.5 -49.5t-1 -41.5t11.5 -16q13 0 45 34q11 11 59 67q22 24 30 21q17 -10 -4 -36
q-41 -50 -65 -74q-55 -55 -79 -55q-33 0 -33 49q0 29 3.5 55t11 56.5t8.5 36.5q9 41 36 132q2 5 2.5 8t-1 5.5t-7 2t-14.5 -4.5q-9 -3 -27.5 -10t-27.5 -10z" />
    <glyph glyph-name="Nacute" unicode="&#x143;" horiz-adv-x="670" 
d="M97 593q3 9 39 10q111 1 155 -20q86 -41 150 -175t78 -250q4 -28 7.5 -37t8 -1t10.5 34q28 105 80 349q4 17 5.5 23t1.5 17t-0.5 13t-7 8t-11.5 6.5t-20 2.5t-27.5 2.5t-38.5 1.5q-13 1 -19 6.5t-4 13.5q4 6 8.5 7.5t32.5 -0.5q76 -7 139 0q41 0 42 -10q0 -11 -19 -16
q-17 -4 -25 -18t-18 -52q-24 -96 -109 -470q-7 -31 -12 -37t-22 -7h-15.5t-7.5 5t-3.5 8.5t-0.5 16.5q-1 99 -26 197.5t-61 168t-75 114t-70 46.5q-11 1 -16 -4.5t-8 -20.5q-10 -38 -42.5 -182t-43.5 -206q-15 -70 -6.5 -86t73.5 -20q19 -1 24.5 -5.5t3.5 -12.5
q-4 -19 -45 -14q-42 5 -158 -2q-18 -1 -18 13q1 15 19 19q1 1 3 1q25 4 35 15.5t21 57.5q37 142 97 407q11 42 -1 51t-75 11q-14 0 -23 6t-5 15zM534 744q19 14 53 21q11 3 15.5 -2t1 -12.5t-10.5 -10.5q-16 -6 -60 -32t-64 -40q-22 -13 -33 -6q-11 9 5 22q10 9 27 20t38 23
t28 17z" />
    <glyph glyph-name="nacute" unicode="&#x144;" horiz-adv-x="484" 
d="M312 -14q-35 0 -30 66q3 33 21 85q5 15 27 72t30 79q1 2 5 11.5t6.5 17l6 18t5.5 18.5t2.5 15.5t-2 11.5t-8.5 4q-14 0 -50 -33.5t-64 -64.5q-86 -96 -124 -162q-11 -19 -40 -87q-15 -34 -21 -38q-4 -3 -12 -3q-14 -1 -16 4.5t5 23.5q15 41 41 105t42 109q33 99 33 129
q0 27 -21 16q-9 -5 -27.5 -19.5t-40 -33.5t-24.5 -21q-13 -13 -23 -6q-9 7 4 23q60 57 102 88q27 20 40 20q31 0 27 -59q-2 -27 -7 -47t-15 -45.5t-13 -33.5q-8 -21 -7 -25.5t20 18.5q81 100 131 145.5t89 45.5q24 0 20 -35q-1 -14 -5.5 -31t-14.5 -43t-13 -37
q-10 -29 -31.5 -87.5t-25.5 -69.5q-18 -59 -18 -85q0 -16 9 -16q11 0 33 17q49 46 76 80q16 18 23 15q20 -13 5 -29q-26 -31 -91 -94q-10 -11 -29.5 -21.5t-29.5 -10.5zM394 613q7 9 11 13.5t11.5 7.5t9 3.5t14.5 4.5q22 5 20 -6q0 -5 -7 -10q-14 -9 -47 -46.5t-48 -59.5
q-16 -20 -29 -17q-14 5 -2 23q9 15 36.5 49t30.5 38z" />
    <glyph glyph-name="Ncommaaccent" unicode="&#x145;" horiz-adv-x="670" 
d="M97 593q3 9 39 10q111 1 155 -20q86 -41 150 -175t78 -250q4 -28 7.5 -37t8 -1t10.5 34q28 105 80 349q4 17 5.5 23t1.5 17t-0.5 13t-7 8t-11.5 6.5t-20 2.5t-27.5 2.5t-38.5 1.5q-13 1 -19 6.5t-4 13.5q4 6 8.5 7.5t32.5 -0.5q76 -7 139 0q41 0 42 -10q0 -11 -19 -16
q-17 -4 -25 -18t-18 -52q-24 -96 -109 -470q-7 -31 -12 -37t-22 -7h-15.5t-7.5 5t-3.5 8.5t-0.5 16.5q-1 99 -26 197.5t-61 168t-75 114t-70 46.5q-11 1 -16 -4.5t-8 -20.5q-10 -38 -42.5 -182t-43.5 -206q-15 -70 -6.5 -86t73.5 -20q19 -1 24.5 -5.5t3.5 -12.5
q-4 -19 -45 -14q-42 5 -158 -2q-18 -1 -18 13q1 15 19 19q1 1 3 1q25 4 35 15.5t21 57.5q37 142 97 407q11 42 -1 51t-75 11q-14 0 -23 6t-5 15zM247 -128q-10 10 -1 23q44 56 81 56q20 0 31 -13.5t11 -33.5q0 -39 -30.5 -87.5t-67.5 -86.5q-4 -4 -14 -8.5t-15 -0.5t-5 12
t6 14q89 96 89 149q0 15 -11 15q-17 0 -45 -31q-15 -17 -29 -8z" />
    <glyph glyph-name="ncommaaccent" unicode="&#x146;" horiz-adv-x="484" 
d="M312 -14q-35 0 -30 66q3 33 21 85q5 15 27 72t30 79q1 2 5 11.5t6.5 17l6 18t5.5 18.5t2.5 15.5t-2 11.5t-8.5 4q-14 0 -50 -33.5t-64 -64.5q-86 -96 -124 -162q-11 -19 -40 -87q-15 -34 -21 -38q-4 -3 -12 -3q-14 -1 -16 4.5t5 23.5q15 41 41 105t42 109q33 99 33 129
q0 27 -21 16q-9 -5 -27.5 -19.5t-40 -33.5t-24.5 -21q-13 -13 -23 -6q-9 7 4 23q60 57 102 88q27 20 40 20q31 0 27 -59q-2 -27 -7 -47t-15 -45.5t-13 -33.5q-8 -21 -7 -25.5t20 18.5q81 100 131 145.5t89 45.5q24 0 20 -35q-1 -14 -5.5 -31t-14.5 -43t-13 -37
q-10 -29 -31.5 -87.5t-25.5 -69.5q-18 -59 -18 -85q0 -16 9 -16q11 0 33 17q49 46 76 80q16 18 23 15q20 -13 5 -29q-26 -31 -91 -94q-10 -11 -29.5 -21.5t-29.5 -10.5zM96 -128q-12 10 -2 23q44 56 81 56q20 0 31 -13.5t11 -33.5q0 -39 -30.5 -87.5t-66.5 -86.5
q-20 -16 -30 -9q-5 3 -4.5 11.5t6.5 14.5q89 96 89 149q0 15 -12 15q-16 0 -44 -31q-16 -19 -29 -8z" />
    <glyph glyph-name="Ncaron" unicode="&#x147;" horiz-adv-x="670" 
d="M97 593q3 9 39 10q111 1 155 -20q86 -41 150 -175t78 -250q4 -28 7.5 -37t8 -1t10.5 34q28 105 80 349q4 17 5.5 23t1.5 17t-0.5 13t-7 8t-11.5 6.5t-20 2.5t-27.5 2.5t-38.5 1.5q-13 1 -19 6.5t-4 13.5q4 6 8.5 7.5t32.5 -0.5q76 -7 139 0q41 0 42 -10q0 -11 -19 -16
q-17 -4 -25 -18t-18 -52q-24 -96 -109 -470q-7 -31 -12 -37t-22 -7h-15.5t-7.5 5t-3.5 8.5t-0.5 16.5q-1 99 -26 197.5t-61 168t-75 114t-70 46.5q-11 1 -16 -4.5t-8 -20.5q-10 -38 -42.5 -182t-43.5 -206q-15 -70 -6.5 -86t73.5 -20q19 -1 24.5 -5.5t3.5 -12.5
q-4 -19 -45 -14q-42 5 -158 -2q-18 -1 -18 13q1 15 19 19q1 1 3 1q25 4 35 15.5t21 57.5q37 142 97 407q11 42 -1 51t-75 11q-14 0 -23 6t-5 15zM458 660q-11 -2 -15 1t-7 14q-5 18 -18 44t-13 27q-9 17 4 23q17 3 25 -11q20 -36 22 -40q4 -9 7 -11t6 -0.5t13 9.5
q12 10 43 41q24 19 39 12q14 -5 -19 -32q-5 -3 -28 -26.5t-26 -26.5q-24 -22 -33 -24z" />
    <glyph glyph-name="ncaron" unicode="&#x148;" horiz-adv-x="484" 
d="M312 -14q-35 0 -30 66q3 33 21 85q5 15 27 72t30 79q1 2 5 11.5t6.5 17l6 18t5.5 18.5t2.5 15.5t-2 11.5t-8.5 4q-14 0 -50 -33.5t-64 -64.5q-86 -96 -124 -162q-11 -19 -40 -87q-15 -34 -21 -38q-4 -3 -12 -3q-14 -1 -16 4.5t5 23.5q15 41 41 105t42 109q33 99 33 129
q0 27 -21 16q-9 -5 -27.5 -19.5t-40 -33.5t-24.5 -21q-13 -13 -23 -6q-9 7 4 23q60 57 102 88q27 20 40 20q31 0 27 -59q-2 -27 -7 -47t-15 -45.5t-13 -33.5q-8 -21 -7 -25.5t20 18.5q81 100 131 145.5t89 45.5q24 0 20 -35q-1 -14 -5.5 -31t-14.5 -43t-13 -37
q-10 -29 -31.5 -87.5t-25.5 -69.5q-18 -59 -18 -85q0 -16 9 -16q11 0 33 17q49 46 76 80q16 18 23 15q20 -13 5 -29q-26 -31 -91 -94q-10 -11 -29.5 -21.5t-29.5 -10.5zM343 503q-11 -2 -15.5 1.5t-6.5 17.5q-5 37 -20 88q-7 22 7 27q15 6 20 -12q1 -3 15 -51q3 -19 6 -19
t21 17l37 42q30 27 41 20q12 -8 -19 -38q-9 -9 -54 -63q-18 -25 -32 -30z" />
    <glyph glyph-name="napostrophe" unicode="&#x149;" horiz-adv-x="618" 
d="M443 -14q-36 0 -31 66q3 34 22 85q23 63 57 151q1 3 4.5 11.5t6.5 16.5t6.5 18.5t5.5 18.5t2.5 15.5t-2 11.5t-8.5 4q-26 0 -115 -98q-35 -39 -49.5 -56.5t-35.5 -46.5t-38 -59q-12 -20 -41 -87q-6 -16 -8 -21t-6.5 -11t-8 -7.5t-10.5 -1.5q-13 -1 -15.5 4.5t5.5 23.5
q15 42 41 106t41 108q34 102 34 129q0 28 -21 16q-9 -5 -27.5 -19.5t-40 -33t-24.5 -21.5q-14 -12 -24 -6q-9 7 5 23q48 46 101 88q29 20 41 20q13 0 19.5 -9.5t7.5 -20.5t0 -29q-2 -21 -6 -40t-8 -30t-11.5 -29t-10.5 -27q-7 -22 -6 -26t20 19q81 100 131 145.5t89 45.5
q23 0 20 -35q-1 -14 -6 -31t-14.5 -43.5t-12.5 -36.5q-7 -20 -29.5 -81t-27.5 -76q-19 -55 -19 -85q0 -16 9 -16q13 0 33 17q47 44 77 80q15 19 23 15q19 -13 5 -29q-21 -24 -91 -94q-11 -11 -30 -21.5t-29 -10.5zM105 598q-8 8 -2 18q61 74 95 74q44 0 44 -52
q0 -47 -36.5 -106t-78.5 -101q-18 -18 -29 -10q-10 9 2 25q105 118 105 184q0 22 -13 22q-17 0 -53 -42q-21 -22 -34 -12z" />
    <glyph glyph-name="Eng" unicode="&#x14a;" horiz-adv-x="651" 
d="M167 598q35 -3 74 -1q9 1 13 -7.5t2 -13.5q-17 -52 -22 -78q-2 -13 3 -13q6 1 18 17q79 105 222 105q91 0 133.5 -56.5t27.5 -159.5q-22 -151 -54 -246q-13 -38 -24.5 -66.5t-30.5 -69.5t-41 -70.5t-49.5 -57t-62.5 -42t-75 -14.5q-32 0 -51 17.5t-19 45.5q-1 16 12.5 38
t30.5 34q24 19 36 7q5 -2 3.5 -11t-10.5 -15q-10 -7 -21 -23t-11 -23q0 -34 35 -34q145 0 240 287q2 5 3 8q33 100 49 223q24 196 -131 196q-97 0 -168.5 -70.5t-104.5 -198.5q-38 -153 -42 -176q-4 -22 -6.5 -33t-2 -24t-1 -17.5t5 -11.5t7.5 -8t15 -4t18.5 -3.5t26.5 -2.5
q7 -1 14 -7t6 -11q-5 -16 -67 -10q-52 4 -139 -1q-31 -1 -39 1t-8 13q0 8 10 13t26 5q50 2 64 15.5t27 75.5q52 221 85 385q8 42 3.5 49.5t-37.5 9.5q-8 1 -12 1q-21 1 -29 6t-6 15q2 11 14.5 12.5t39.5 -0.5z" />
    <glyph glyph-name="eng" unicode="&#x14b;" horiz-adv-x="444" 
d="M181 434q31 0 27 -59q-2 -27 -7 -47t-15 -45.5t-13 -33.5q-8 -21 -7 -25.5t20 18.5q81 100 131 145.5t89 45.5q23 0 20 -35t-26 -111q-76 -230 -111 -319q-9 -23 -22 -49t-35.5 -61t-46.5 -62.5t-56.5 -46.5t-64.5 -19q-57 0 -57 61q0 18 15 43t36 41q27 24 41 15
q14 -8 -14 -31q-40 -33 -40 -65q0 -26 30 -26q49 0 98 63.5t84 148.5q63 156 108 308q3 9 7 21.5t9 31t4.5 31t-8.5 12.5q-25 0 -114 -98q-89 -99 -124 -162q-12 -20 -41 -87q-14 -35 -21 -39q-4 -2 -11 -2q-14 -1 -16.5 4.5t5.5 23.5q14 37 40 102t42 112q34 91 34 129
q0 28 -21 16q-9 -5 -27.5 -19.5t-40 -33.5t-24.5 -21q-13 -13 -23 -6t4 23q52 51 102 88q27 20 40 20z" />
    <glyph glyph-name="Omacron" unicode="&#x14c;" horiz-adv-x="692" 
d="M425 618q120 0 181.5 -69t61.5 -169q0 -96 -43.5 -186.5t-124 -150t-177.5 -59.5q-127 0 -192 75t-65 179q0 93 48 180.5t132 143.5t179 56zM107 242q0 -106 60 -164.5t160 -59.5q48 0 99.5 24.5t96 69t73.5 115t29 151.5q0 97 -58 149.5t-144 52.5q-126 0 -221 -101.5
t-95 -236.5zM320 660q-25 0 -18 18q5 16 30 16q153 0 211 5q4 0 10.5 1.5t10 2.5t7 0.5t5.5 -3t2 -7.5q0 -13 -20 -25q-8 -6 -28 -6q-72 -2 -210 -2z" />
    <glyph glyph-name="omacron" unicode="&#x14d;" horiz-adv-x="381" 
d="M129 -7q-42 0 -60 41t-17 95q1 64 32.5 133.5t84 117.5t106.5 48q69 0 69 -117q-1 -108 -70.5 -213t-144.5 -105zM266 392q-59 0 -118 -82.5t-59 -180.5q0 -102 50 -102q52 0 109.5 92t58.5 191q0 82 -41 82zM160 508q-13 0 -17.5 4t-0.5 13q5 17 31 17q147 0 197 6
q4 1 11 2.5t10.5 2t7.5 0t5.5 -3.5t1.5 -8q0 -12 -20 -25q-9 -6 -28 -6q-36 -2 -198 -2z" />
    <glyph glyph-name="Obreve" unicode="&#x14e;" horiz-adv-x="692" 
d="M425 618q120 0 181.5 -69t61.5 -169q0 -96 -43.5 -186.5t-124 -150t-177.5 -59.5q-127 0 -192 75t-65 179q0 93 48 180.5t132 143.5t179 56zM107 242q0 -106 60 -164.5t160 -59.5q48 0 99.5 24.5t96 69t73.5 115t29 151.5q0 97 -58 149.5t-144 52.5q-126 0 -221 -101.5
t-95 -236.5zM546 758q10 -4 -2 -28q-39 -80 -115 -80q-37 0 -54.5 23t-18.5 54q0 31 14 32q8 1 12 -5.5t5 -14.5q3 -55 47 -55q30 0 47.5 14.5t37.5 45.5q6 8 14 12t13 2z" />
    <glyph glyph-name="obreve" unicode="&#x14f;" horiz-adv-x="381" 
d="M129 -7q-42 0 -60 41t-17 95q1 64 32.5 133.5t84 117.5t106.5 48q69 0 69 -117q-1 -108 -70.5 -213t-144.5 -105zM266 392q-59 0 -118 -82.5t-59 -180.5q0 -102 50 -102q52 0 109.5 92t58.5 191q0 82 -41 82zM401 606q10 -3 -3 -28q-20 -42 -52 -61t-62 -19
q-38 0 -55.5 23t-18.5 55q0 29 15 32q8 1 12 -5.5t5 -14.5q2 -56 46 -56q30 0 48 14.5t38 46.5q12 19 27 13z" />
    <glyph glyph-name="Ohungarumlaut" unicode="&#x150;" horiz-adv-x="692" 
d="M425 618q120 0 181.5 -69t61.5 -169q0 -96 -43.5 -186.5t-124 -150t-177.5 -59.5q-127 0 -192 75t-65 179q0 93 48 180.5t132 143.5t179 56zM107 242q0 -106 60 -164.5t160 -59.5q48 0 99.5 24.5t96 69t73.5 115t29 151.5q0 97 -58 149.5t-144 52.5q-126 0 -221 -101.5
t-95 -236.5zM594 744q7 5 12.5 8t11 5.5t8 3t10.5 2t11 2.5q12 3 16 -2t1 -12.5t-10 -10.5q-16 -6 -59.5 -31.5t-65.5 -40.5q-22 -13 -32 -6q-11 9 5 22q13 12 52 36t40 24zM456 744q7 5 12.5 8t11 5.5t8 3t10.5 2t11 2.5q12 3 16 -2t1 -12.5t-10 -10.5q-16 -6 -59.5 -31.5
t-65.5 -40.5q-22 -13 -32 -6q-11 9 5 22q13 12 52 36t40 24z" />
    <glyph glyph-name="ohungarumlaut" unicode="&#x151;" horiz-adv-x="381" 
d="M129 -7q-42 0 -60 41t-17 95q1 64 32.5 133.5t84 117.5t106.5 48q69 0 69 -117q-1 -108 -70.5 -213t-144.5 -105zM266 392q-59 0 -118 -82.5t-59 -180.5q0 -102 50 -102q52 0 109.5 92t58.5 191q0 82 -41 82zM303 672q15 2 15 -5q0 -8 -15 -35q-43 -78 -63 -118
q-14 -28 -33 -28q-16 0 -3 28l58 116q12 27 18.5 33t22.5 9zM427 670q16 3 16 -5q-1 -7 -15 -33q-7 -13 -27 -50t-36 -68q-12 -28 -33 -28q-16 0 -3 28q10 19 19 37t20 41t19 38q13 28 18.5 33t21.5 7z" />
    <glyph glyph-name="OE" unicode="&#x152;" horiz-adv-x="896" 
d="M66 242q0 142 108.5 254.5t253.5 112.5q44 0 81 -6t59 -6q60 0 163.5 5t107.5 5q30 0 41.5 -10t14.5 -35q2 -22 -9.5 -54t-29.5 -48q-16 -14 -23 -5q-6 12 -1 21q29 40 27 69q0 14 -6 20.5t-25 6.5q-26 0 -106.5 -4.5t-118.5 -5.5q-24 0 -31 -22q-12 -50 -36 -174
q-1 -10 -2 -17.5t8 -12.5t30 -5q9 0 40.5 -0.5t38.5 -0.5q42 0 54 9.5t30 60.5q2 6 10 11t17 4q7 -2 6.5 -11t-5.5 -19q-24 -68 -45 -156q-4 -20 -20 -21q-4 0 -8 6t-2 14q9 37 0.5 51t-39.5 17q-34 3 -98 3q-17 -2 -23.5 -6.5t-10.5 -18.5q-23 -91 -38 -165
q-8 -43 -3 -55.5t22 -13.5q130 -3 179 -8q47 -5 85 33q39 39 54 97q7 19 28 19q15 -1 2 -43q-10 -31 -38.5 -73.5t-63.5 -60.5q-25 -9 -58 -8q-152 11 -226 10q-15 0 -58 -6t-73 -6q-71 0 -124 21t-82 57.5t-43 79t-14 90.5zM104 245q0 -104 63.5 -161.5t164.5 -57.5
q58 0 77.5 15.5t32.5 67.5q58 238 87 395q7 42 2 49t-46 15q-26 6 -62 6q-127 0 -223 -97t-96 -232z" />
    <glyph glyph-name="oe" unicode="&#x153;" horiz-adv-x="579" 
d="M357 -7q-32 0 -53 24t-29 62q-2 14 -5.5 14.5t-11.5 -11.5q-64 -89 -129 -89q-42 0 -60 41t-17 95q1 64 32.5 133.5t84 117.5t106.5 48q58 0 66 -98q1 -16 3.5 -16t11.5 12q34 46 75.5 72.5t80.5 26.5q24 0 39 -10.5t15 -28.5q6 -66 -72 -118q-30 -20 -150 -73
q-29 -14 -33 -29q-6 -24 -6 -54q0 -27 15.5 -55t44.5 -28q31 0 69 29q7 6 60 59q23 20 34 10q11 -8 -6 -25q-48 -49 -81 -76q-42 -33 -84 -33zM266 392q-59 0 -118 -82.5t-59 -180.5q0 -102 50 -102q37 0 82 53.5t69 126.5q15 46 17 103q0 82 -41 82zM349 233q79 30 121 57
q60 38 60 82q-1 19 -26 19q-52 0 -105 -56t-61 -87q-5 -11 -3.5 -15t14.5 0z" />
    <glyph glyph-name="Racute" unicode="&#x154;" horiz-adv-x="604" 
d="M115 593q1 17 55 11q75 -7 155 -5q34 4 94 3q63 -1 103 -34t40 -96q0 -64 -56 -104.5t-156 -67.5q-5 -2 -13 -3.5t-11 -2.5t-6 -4.5t-2.5 -11t3.5 -20.5q21 -116 80 -196q39 -53 136 -8q32 15 41 2q8 -11 -10 -21q-22 -12 -29 -15.5t-35 -14.5t-44.5 -11.5t-39.5 6
t-40 24.5q-42 47 -72 130.5t-30 149.5q0 12 4.5 15t18.5 4q28 3 61.5 12t71.5 25.5t63 45.5t25 64q0 43 -29.5 70t-85.5 29q-26 2 -100 -2q-36 -1 -47 -10.5t-22 -47.5q-48 -172 -92 -391q-13 -55 -5 -66.5t67 -21.5q13 -2 18 -7t3 -11q-3 -13 -17 -14.5t-32 2.5
q-78 9 -179 -4q-29 -3 -27 12q1 11 8 13.5t28 4.5q50 4 63.5 18t27.5 64q2 7 3 11q46 161 91 382q11 48 4.5 59t-49.5 16q-16 2 -26 6t-9 11zM447 744q19 14 53 21q17 4 18 -8t-11 -17q-16 -6 -59.5 -31.5t-65.5 -40.5q-22 -13 -33 -6q-11 9 5 22q14 12 52 35t41 25z" />
    <glyph glyph-name="racute" unicode="&#x155;" horiz-adv-x="375" 
d="M35 301q-6 8 17 33q11 13 57 57q41 37 64 37q18 0 21.5 -26t-2.5 -49q-5 -24 -17.5 -67t-13.5 -48q-5 -14 -2 -18q2 -2 10 10q0 2 1 3q107 200 158 200q46 0 46 -51q-1 -55 -36 -103q-21 -24 -32 -20q-14 8 4 31q29 39 29 71q0 6 -1 10t-2.5 6t-4.5 3t-4 1h-5h-5
q-26 0 -100.5 -124.5t-89.5 -177.5q-25 -81 -50 -83q-10 -1 -13 3.5t0 10.5q13 39 26.5 87.5t26.5 100t19 71.5q11 28 21 84q8 33 -2 34q-8 0 -41 -30q-11 -12 -48 -49q-18 -18 -31 -7zM343 613q12 16 19 20t27 9q11 3 16 0.5t4 -7.5t-7 -9q-14 -9 -45.5 -45t-50.5 -61
q-14 -20 -28 -17q-14 5 -3 23q9 15 36.5 48t31.5 39z" />
    <glyph glyph-name="Rcommaaccent" unicode="&#x156;" horiz-adv-x="604" 
d="M115 593q1 17 55 11q75 -7 155 -5q34 4 94 3q63 -1 103 -34t40 -96q0 -64 -56 -104.5t-156 -67.5q-5 -2 -13 -3.5t-11 -2.5t-6 -4.5t-2.5 -11t3.5 -20.5q21 -116 80 -196q39 -53 136 -8q32 15 41 2q8 -11 -10 -21q-22 -12 -29 -15.5t-35 -14.5t-44.5 -11.5t-39.5 6
t-40 24.5q-42 47 -72 130.5t-30 149.5q0 12 4.5 15t18.5 4q28 3 61.5 12t71.5 25.5t63 45.5t25 64q0 43 -29.5 70t-85.5 29q-26 2 -100 -2q-36 -1 -47 -10.5t-22 -47.5q-48 -172 -92 -391q-13 -55 -5 -66.5t67 -21.5q13 -2 18 -7t3 -11q-3 -13 -17 -14.5t-32 2.5
q-78 9 -179 -4q-29 -3 -27 12q1 11 8 13.5t28 4.5q50 4 63.5 18t27.5 64q2 7 3 11q46 161 91 382q11 48 4.5 59t-49.5 16q-16 2 -26 6t-9 11zM191 -128q-11 9 -2 23q47 56 81 56q20 0 31 -13.5t11 -33.5q0 -39 -30.5 -88t-66.5 -86q-20 -16 -30 -9q-5 3 -4.5 11.5t6.5 14.5
q89 96 89 149q0 15 -12 15q-16 0 -44 -31q-16 -19 -29 -8z" />
    <glyph glyph-name="rcommaaccent" unicode="&#x157;" horiz-adv-x="375" 
d="M37 301q-6 8 17 33q17 21 57 57q41 37 64 37q31 0 19 -75q-4 -19 -10.5 -42.5t-13 -45t-8.5 -27.5q-4 -12 -2 -17t12 12q107 200 158 200q45 0 45 -51q0 -54 -36 -103q-20 -25 -32 -20q-13 8 4 31q30 40 30 71q0 6 -1 10t-2.5 6t-4.5 3t-4.5 1h-5.5h-4q-27 0 -101 -124.5
t-89 -177.5q-25 -81 -50 -83q-10 -1 -13 3.5t0 10.5q13 39 26.5 87.5t26.5 100t19 71.5q14 45 21 84q8 33 -2 34q-11 0 -41 -30l-49 -49q-18 -19 -30 -7zM-9 -128q-12 10 -2 23q44 56 81 56q20 0 31 -13.5t11 -33.5q0 -39 -30.5 -87.5t-67.5 -86.5q-4 -4 -14 -8.5t-15 -0.5
q-5 3 -4.5 11.5t6.5 14.5q89 96 89 149q0 15 -12 15q-17 0 -45 -31q-15 -18 -28 -8z" />
    <glyph glyph-name="Rcaron" unicode="&#x158;" horiz-adv-x="604" 
d="M115 593q1 17 55 11q75 -7 155 -5q34 4 94 3q63 -1 103 -34t40 -96q0 -64 -56 -104.5t-156 -67.5q-5 -2 -13 -3.5t-11 -2.5t-6 -4.5t-2.5 -11t3.5 -20.5q21 -116 80 -196q39 -53 136 -8q32 15 41 2q8 -11 -10 -21q-22 -12 -29 -15.5t-35 -14.5t-44.5 -11.5t-39.5 6
t-40 24.5q-42 47 -72 130.5t-30 149.5q0 12 4.5 15t18.5 4q28 3 61.5 12t71.5 25.5t63 45.5t25 64q0 43 -29.5 70t-85.5 29q-26 2 -100 -2q-36 -1 -47 -10.5t-22 -47.5q-48 -172 -92 -391q-13 -55 -5 -66.5t67 -21.5q13 -2 18 -7t3 -11q-3 -13 -17 -14.5t-32 2.5
q-78 9 -179 -4q-29 -3 -27 12q1 11 8 13.5t28 4.5q50 4 63.5 18t27.5 64q2 7 3 11q46 161 91 382q11 48 4.5 59t-49.5 16q-16 2 -26 6t-9 11zM388 660q-11 -2 -15 1t-7 14q-5 18 -18 44t-13 27q-9 17 4 23q17 3 25 -11q14 -20 22 -40q4 -9 7 -11t6 -0.5t13 9.5q12 10 43 41
q24 19 39 12q13 -5 -18 -32q-4 -3 -15.5 -13.5t-23.5 -23.5t-16 -16q-22 -22 -33 -24z" />
    <glyph glyph-name="rcaron" unicode="&#x159;" horiz-adv-x="375" 
d="M35 301q-6 8 17 33q11 13 57 57q41 37 64 37q18 0 21.5 -26t-2.5 -49q-5 -24 -17.5 -67t-13.5 -48q-5 -14 -2 -18q2 -2 10 10q0 2 1 3q107 200 158 200q46 0 46 -51q-1 -55 -36 -103q-21 -24 -32 -20q-14 8 4 31q29 39 29 71q0 6 -1 10t-2.5 6t-4.5 3t-4 1h-5h-5
q-26 0 -100.5 -124.5t-89.5 -177.5q-25 -81 -50 -83q-10 -1 -13 3.5t0 10.5q13 39 26.5 87.5t26.5 100t19 71.5q11 28 21 84q8 33 -2 34q-8 0 -41 -30q-11 -12 -48 -49q-18 -18 -31 -7zM275 503q-11 -2 -15 1.5t-7 17.5q-6 44 -19 88q-7 23 7 27q13 5 20 -12q6 -13 14 -51
q3 -19 6.5 -19t21.5 17q33 39 37 42q29 27 40 20q12 -8 -18 -38q-15 -15 -55 -63q-18 -26 -32 -30z" />
    <glyph glyph-name="Sacute" unicode="&#x15a;" horiz-adv-x="436" 
d="M170 -8q-58 0 -103.5 27t-44.5 80q1 35 30 67t63 46q26 9 31 0q8 -16 -8 -24q-73 -38 -74 -84q-1 -39 34.5 -57.5t78.5 -18.5q87 0 138 48t53 97q1 52 -24.5 83t-96.5 73q-37 23 -51 32t-38 29t-33 39.5t-8 42.5q1 51 60 94t128 43q128 0 126 -75q0 -37 -45 -78
q-19 -19 -31 -12q-18 10 4 29q32 31 32 59q0 15 -8 25t-24 13.5t-26.5 4t-28.5 0.5h-5q-51 0 -96.5 -33.5t-45.5 -67.5q0 -31 27.5 -56.5t86.5 -58.5q82 -45 108 -84.5t26 -95.5q0 -67 -64.5 -127t-170.5 -60zM365 744q7 5 12.5 8t11 5.5t8 3t10.5 2t11 2.5q12 3 16 -2
t1 -12.5t-10 -10.5q-16 -6 -60 -32t-64 -40q-23 -13 -33 -6q-11 9 5 22q13 12 52 36t40 24z" />
    <glyph glyph-name="sacute" unicode="&#x15b;" horiz-adv-x="299" 
d="M83 -10q-18 0 -30.5 10.5t-12.5 28.5q0 57 39 91q17 16 27 8q12 -8 -2 -20q-12 -9 -21.5 -26.5t-9.5 -32.5q0 -28 20 -28q37 0 67.5 37t45 83.5t15.5 87.5q0 50 -22 125q-3 6 -4 7t-3 1t-7 -2l-46 -46q-3 -3 -8 -10.5t-9.5 -13t-9.5 -9.5t-11 -3.5t-13 7.5q-5 4 -1 16
t17 24q44 40 99 105l25 34q8 9 17 6q1 -1 4.5 -3.5t4.5 -4t1.5 -5t-2.5 -7.5q-35 -52 -22 -90q22 -54 22 -128q0 -52 -17.5 -105.5t-58 -95t-94.5 -41.5zM324 613q4 5 7 8.5t6 6.5t5 4.5t6 3t6 2t7.5 2t8.5 2.5q22 5 20 -6q0 -5 -7 -10q-26 -17 -89 -106q-16 -20 -29 -17
q-16 5 -2 23q12 15 34 47.5t27 39.5z" />
    <glyph glyph-name="Scircumflex" unicode="&#x15c;" horiz-adv-x="436" 
d="M170 -8q-58 0 -103.5 27t-44.5 80q1 35 30 67t63 46q26 9 31 0q8 -16 -8 -24q-73 -38 -74 -84q-1 -39 34.5 -57.5t78.5 -18.5q87 0 138 48t53 97q1 52 -24.5 83t-96.5 73q-37 23 -51 32t-38 29t-33 39.5t-8 42.5q1 51 60 94t128 43q128 0 126 -75q0 -37 -45 -78
q-19 -19 -31 -12q-18 10 4 29q32 31 32 59q0 15 -8 25t-24 13.5t-26.5 4t-28.5 0.5h-5q-51 0 -96.5 -33.5t-45.5 -67.5q0 -31 27.5 -56.5t86.5 -58.5q82 -45 108 -84.5t26 -95.5q0 -67 -64.5 -127t-170.5 -60zM344 769q11 3 15 0t7 -15q9 -30 30 -72q8 -19 -5 -23
q-18 -3 -25 11q-2 4 -5.5 10.5t-7.5 16t-7 14.5q-4 9 -6.5 11t-6 0.5t-13.5 -9.5q-5 -4 -14 -12l-18 -16t-11 -10q-21 -19 -39 -13q-7 5 -2 12t21 20q17 11 54 52q26 22 33 23z" />
    <glyph glyph-name="scircumflex" unicode="&#x15d;" horiz-adv-x="299" 
d="M83 -10q-18 0 -30.5 10.5t-12.5 28.5q0 57 39 91q17 16 27 8q12 -8 -2 -20q-12 -9 -21.5 -26.5t-9.5 -32.5q0 -28 20 -28q37 0 67.5 37t45 83.5t15.5 87.5q0 50 -22 125q-3 6 -4 7t-3 1t-7 -2l-46 -46q-3 -3 -8 -10.5t-9.5 -13t-9.5 -9.5t-11 -3.5t-13 7.5q-5 4 -1 16
t17 24q44 40 99 105l25 34q8 9 17 6q1 -1 4.5 -3.5t4.5 -4t1.5 -5t-2.5 -7.5q-35 -52 -22 -90q22 -54 22 -128q0 -52 -17.5 -105.5t-58 -95t-94.5 -41.5zM288 638q11 2 15 -1.5t7 -16.5q6 -41 19 -89q6 -22 -7 -27q-14 -4 -20 12q-6 15 -14 51q-3 19 -6 19.5t-22 -17.5
q-6 -6 -20 -22.5t-17 -19.5q-28 -27 -40 -19q-13 6 18 37q40 44 55 64q20 26 32 29z" />
    <glyph glyph-name="Scedilla" unicode="&#x15e;" horiz-adv-x="436" 
d="M22 99q1 35 30 67t63 46q26 9 31 0q8 -16 -8 -24q-73 -38 -74 -84q-1 -39 34.5 -57.5t78.5 -18.5q87 0 138 48t53 97q1 52 -24.5 83t-96.5 73q-37 23 -51 32t-38 29t-33 39.5t-8 42.5q1 51 60 94t128 43q128 0 126 -75q0 -37 -45 -78q-19 -19 -31 -12q-18 10 4 29
q32 31 32 59q0 15 -8 25t-24 13.5t-26.5 4t-28.5 0.5h-5q-51 0 -96.5 -33.5t-45.5 -67.5q0 -31 27.5 -56.5t86.5 -58.5q82 -45 108 -84.5t26 -95.5q0 -59 -53 -115.5t-142 -68.5q-18 -3 -33 -18q-3 -3 -9.5 -11t-10.5 -12q-11 -14 -11.5 -22t7.5 -21q22 -49 1.5 -78.5
t-71.5 -40.5q-20 -4 -24 1q-4 4 -3.5 12.5t8.5 10.5q23 7 39 19t22.5 29.5t-9.5 38.5q-13 20 -14 29t9 23l25 26q9 12 -7 15q-47 8 -77.5 34t-29.5 69z" />
    <glyph glyph-name="scedilla" unicode="&#x15f;" horiz-adv-x="299" 
d="M40 29q0 57 39 91q17 16 27 8q12 -8 -2 -20q-12 -9 -21.5 -26.5t-9.5 -32.5q0 -28 20 -28q37 0 67.5 37t45 83.5t15.5 87.5q0 50 -22 125q-3 6 -4 7t-3 1t-7 -2l-46 -46q-3 -3 -8 -10.5t-9.5 -13t-9.5 -9.5t-11 -3.5t-13 7.5q-5 4 -1 16t17 24q44 40 99 105l25 34
q8 9 17 6q1 -1 4.5 -3.5t4.5 -4t1.5 -5t-2.5 -7.5q-35 -52 -22 -90q22 -54 22 -128q0 -71 -33 -142.5t-90 -90.5q-13 -4 -25 -17q-22 -24 -28 -32q-12 -14 -12.5 -21.5t7.5 -21.5q22 -49 1.5 -78t-70.5 -40q-20 -6 -25 4q-8 16 5 20q37 11 56.5 34.5t-0.5 52.5
q-13 19 -14 28t9 23l26 30q7 10 -4 16q-16 11 -16 32z" />
    <glyph glyph-name="Scaron" unicode="&#x160;" horiz-adv-x="436" 
d="M170 -8q-58 0 -103.5 27t-44.5 80q1 35 30 67t63 46q26 9 31 0q8 -16 -8 -24q-73 -38 -74 -84q-1 -39 34.5 -57.5t78.5 -18.5q87 0 138 48t53 97q1 52 -24.5 83t-96.5 73q-37 23 -51 32t-38 29t-33 39.5t-8 42.5q1 51 60 94t128 43q128 0 126 -75q0 -37 -45 -78
q-19 -19 -31 -12q-18 10 4 29q32 31 32 59q0 15 -8 25t-24 13.5t-26.5 4t-28.5 0.5h-5q-51 0 -96.5 -33.5t-45.5 -67.5q0 -31 27.5 -56.5t86.5 -58.5q82 -45 108 -84.5t26 -95.5q0 -67 -64.5 -127t-170.5 -60zM323 660q-11 -2 -14.5 1t-7.5 14q-5 15 -31 71q-9 17 4 23
q16 3 26 -11q20 -36 22 -40q3 -7 4.5 -9.5t4.5 -2.5t6 2t11 8l43 41q22 19 38 12q13 -5 -18 -32q-5 -3 -28.5 -26.5l-26.5 -26.5q-22 -22 -33 -24z" />
    <glyph glyph-name="scaron" unicode="&#x161;" horiz-adv-x="299" 
d="M83 -10q-18 0 -30.5 10.5t-12.5 28.5q0 57 39 91q17 16 27 8q12 -8 -2 -20q-12 -9 -21.5 -26.5t-9.5 -32.5q0 -28 20 -28q37 0 67.5 37t45 83.5t15.5 87.5q0 50 -22 125q-3 6 -4 7t-3 1t-7 -2l-46 -46q-3 -3 -8 -10.5t-9.5 -13t-9.5 -9.5t-11 -3.5t-13 7.5q-5 4 -1 16
t17 24q44 40 99 105l25 34q8 9 17 6q1 -1 4.5 -3.5t4.5 -4t1.5 -5t-2.5 -7.5q-35 -52 -22 -90q22 -54 22 -128q0 -52 -17.5 -105.5t-58 -95t-94.5 -41.5zM264 503q-11 -2 -15 1.5t-7 17.5q-6 44 -19 88q-7 22 7 27q13 5 20 -12q6 -13 14 -51q4 -19 7 -19t21 17q33 39 37 42
q29 27 41 20q11 -8 -19 -38q-15 -15 -55 -63q-16 -25 -32 -30z" />
    <glyph glyph-name="Tcommaaccent" unicode="&#x162;" horiz-adv-x="529" 
d="M573 545q-1 15 -5 22t-17.5 8t-28.5 -1t-46 -4.5t-62 -2.5q-39 0 -46 -31l-71 -304l-15 -70l-8 -43l-7 -45q-4 -22 10 -29t61 -13q6 -1 9 -1l15 -2q13 -1 19.5 -5.5t5.5 -13.5q0 -4 -2 -6t-6.5 -3.5t-10 -1.5t-15.5 0.5l-20 1t-26 1.5t-32 1t-27.5 -8.5t-39.5 -40.5
q-12 -13 -12 -21.5t8 -21.5q17 -32 10.5 -56.5t-27.5 -40t-53 -22.5q-20 -4 -25 1q-4 4 -3 12.5t8 10.5q23 7 39 19t22.5 29.5t-8.5 38.5q-13 21 -14.5 29t9.5 23q16 18 27 29q5 6 1.5 12t-17.5 5q-38 -4 -53 -2.5t-15 12.5q0 15 18.5 18t44 3.5t34.5 7.5q9 9 26 69l51 213
l35 159q15 77 11 81q-7 4 -16 4q-49 0 -83.5 2t-43.5 4.5t-19.5 3.5t-11.5 -2q-10 -4 -21.5 -29t-20.5 -52.5t-22 -48t-25 -16.5q-6 2 -8 5t-1 8t2.5 10t5.5 14.5t7 16.5l31 80q20 50 30 52q2 1 36 -5t107 -11t216 6q3 0 19.5 2.5t24 3t22.5 1t23 -2.5t17.5 -8.5t13.5 -16
t4 -24.5q0 -87 -67 -132q-16 -9 -21 -4q-7 3 -8 10t4 11q26 21 39.5 43.5t13.5 57.5z" />
    <glyph glyph-name="tcommaaccent" unicode="&#x163;" horiz-adv-x="285" 
d="M256 385q-12 0 -33 0.5t-31 0.5q-12 0 -15.5 -1t-11 -12.5t-15 -34.5t-21.5 -71q-27 -91 -35 -134.5t-2 -71.5q4 -27 26 -27q12 2 43 27l27 27q7 7 13.5 14.5t10.5 11.5t7 7.5t5.5 5t5.5 1.5q7 0 12.5 -3.5t4.5 -10.5q-6 -17 -49 -56.5t-65 -55.5q-37 -37 -46 -48
q-12 -15 -12.5 -22.5t7.5 -20.5q22 -49 1.5 -78.5t-70.5 -40.5q-20 -4 -25 1q-4 4 -3.5 12.5t8.5 10.5q23 7 39 19t22.5 29.5t-9.5 38.5q-13 20 -14 29t9 23l24 26q7 8 7 12.5t-8 26.5q-9 24 -10 61t4 52q8 47 38.5 141t31.5 111q0 9 -50 6q-11 -1 -12 11q0 14 13 16
q12 2 32 2q21 0 32 10t31 55l19 47q9 25 29 22q10 -1 10 -9q0 -3 -1 -5t-1.5 -4t-3 -7.5t-5.5 -13.5l-26 -64q-9 -21 -8.5 -25t13.5 -6q28 -3 49 -1.5t37 4t18 1.5q8 -2 2 -13q-11 -17 -19.5 -21.5t-29.5 -4.5z" />
    <glyph glyph-name="Tcaron" unicode="&#x164;" horiz-adv-x="529" 
d="M327 543q4 11 0 16t-7.5 6t-11.5 1q-94 0 -128 7q-23 4 -30 1.5t-14 -15.5t-22 -50.5t-23 -55.5q-4 -11 -13 -19.5t-17 -5.5q-15 5 -3 30q1 2 23 60t33 80q8 14 14.5 16.5t18.5 -1.5q51 -17 229 -15q45 2 111.5 7t73.5 5q19 2 35 -12.5t15 -38.5q-2 -91 -67 -132
q-14 -9 -21 -4q-7 3 -8 10t4 11q53 44 53 101q0 18 -7.5 25t-28.5 5q-64 -8 -123 -8q-39 0 -46 -31q-15 -57 -51 -217.5t-42 -199.5q-12 -59 -4 -69.5t76 -18.5q2 0 6.5 -0.5t6.5 -0.5t6.5 -1t6 -1.5t5.5 -1.5t4.5 -2.5t3 -3.5t1.5 -4.5t0 -5.5q0 -16 -38 -11
q-84 11 -221 -1q-23 -2 -23 13q0 18 35 20q51 4 58 7q12 6 23 45q1 3 7 26q39 140 100 434zM371 660q-11 -2 -14.5 1t-7.5 14q-5 15 -31 71q-9 17 4 23q16 3 26 -11q20 -36 22 -40q3 -7 4.5 -9.5t4.5 -2.5t6 2t11 8l43 41q22 19 38 12q13 -5 -18 -32q-4 -3 -15.5 -13.5
t-23.5 -23.5t-16 -16q-22 -22 -33 -24z" />
    <glyph glyph-name="tcaron" unicode="&#x165;" horiz-adv-x="285" 
d="M102 -9q-25 0 -37 30t-10.5 61.5t3.5 50.5q7 39 34 126t31 102q3 10 4 15t1 8.5t-1.5 4.5t-4.5 1q-7 1 -45 1q-6 -1 -9 5.5t1 13.5t9 8t33 2q19 0 26 3.5t15 18.5q16 28 41 90q8 25 33 22q8 -2 4 -18q-37 -81 -42 -102q-3 -8 -1.5 -10.5t13.5 -3.5q26 -3 67 0q7 0 16 2
t12.5 2.5t8.5 -0.5q9 -2 2 -13q-11 -17 -19.5 -21.5t-29.5 -4.5q-12 0 -33 0.5t-31 0.5q-20 0 -25 -10q-12 -21 -38.5 -108.5t-34.5 -132.5q-17 -101 24 -101q14 2 43 27q27 26 54 57q14 17 28 6q8 -5 -2 -21q-22 -27 -77 -77q-39 -35 -63 -35zM288 612q-12 10 -2 23
q44 56 81 56q20 0 31 -13.5t11 -33.5q0 -66 -88 -154q-4 -5 -14 -9t-15 0t-5 12t6 14q2 2 11.5 12t11.5 12.5t10.5 11.5t11 12.5t9.5 12t9 13.5t6.5 13t6 14t3 13.5t1.5 14.5q0 17 -12 17q-20 0 -46 -31q-16 -19 -27 -10z" />
    <glyph glyph-name="Tbar" unicode="&#x166;" horiz-adv-x="529" 
d="M245 277h-69q-25 0 -18 18q5 16 31 16h64q13 0 18.5 3.5t7.5 13.5q8 33 48 215q4 11 0 16t-7.5 6t-11.5 1q-94 0 -128 7q-23 4 -30 1.5t-14 -15.5t-22 -50.5t-23 -55.5q-4 -11 -13 -19.5t-17 -5.5q-15 5 -3 30q1 2 23 60t33 80q8 14 14.5 16.5t18.5 -1.5q51 -17 229 -15
q45 2 111.5 7t73.5 5q19 2 35 -12.5t15 -38.5q-2 -91 -67 -132q-14 -9 -21 -4q-7 3 -8 10t4 11q53 44 53 101q0 18 -7.5 25t-28.5 5q-64 -8 -123 -8q-39 0 -46 -31q-11 -43 -48 -202q-3 -14 -0.5 -18t15.5 -4q10 0 65 5q4 1 10.5 2.5t10 2t7.5 0t5.5 -3t1.5 -7.5
q0 -12 -20 -26q-8 -6 -28 -6q-4 0 -23.5 -0.5t-34.5 -0.5q-22 0 -27 -22q-24 -119 -27 -137q-12 -59 -4 -69.5t76 -18.5q2 0 6.5 -0.5t6.5 -0.5t6.5 -1t6 -1.5t5.5 -1.5t4.5 -2.5t3 -3.5t1.5 -4.5t0 -5.5q0 -16 -38 -11q-84 11 -221 -1q-23 -2 -23 13q0 18 35 20q51 4 58 7
q12 6 23 45q1 3 7 26q14 47 36 149q0 3 1 7t-4 8t-15 4z" />
    <glyph glyph-name="tbar" unicode="&#x167;" horiz-adv-x="285" 
d="M193 532q8 25 33 22q8 -2 4 -18q-37 -81 -42 -102q-3 -8 -1.5 -10.5t13.5 -3.5q26 -3 67 0q7 0 16 2t12.5 2.5t8.5 -0.5q9 -2 2 -13q-11 -17 -19.5 -21.5t-29.5 -4.5q-12 0 -33 0.5t-31 0.5q-20 0 -25 -10q-9 -15 -32 -88q-6 -18 16 -19q25 -3 66 0q9 0 21.5 2.5
t15.5 1.5q8 -3 2 -14q-11 -17 -19.5 -21.5t-29.5 -4.5q-24 0 -64 2q-23 2 -29 -17q-11 -41 -20 -83q-17 -101 24 -101q14 2 43 27q27 26 54 57q14 17 28 6q8 -5 -2 -21q-22 -27 -77 -77q-39 -35 -63 -35q-25 0 -37 30t-10.5 61.5t3.5 50.5q2 14 21 87q6 17 -6 18
q-18 3 -44 1q-7 -1 -10 5.5t1 13.5q4 8 9.5 9t32.5 2q31 0 37 17q17 49 26 85q3 12 1.5 15t-8.5 4t-41 1q-6 -1 -9 5.5t1 13.5t9 8t33 2q19 0 26 3.5t15 18.5q16 28 41 90z" />
    <glyph glyph-name="Utilde" unicode="&#x168;" horiz-adv-x="751" 
d="M273 -6q-92 0 -136.5 57t-24.5 158q7 34 30 132.5t27 114.5q5 23 8 37t4 27.5t2 20t-4 13.5t-6.5 9t-13 5t-16.5 3.5t-23 2.5q-32 4 -32 19q0 10 17 11.5t41 -1.5q72 -8 160 1q32 1 32 -12q0 -6 -3.5 -10t-17.5 -7.5t-40 -5.5q-29 -2 -38 -13t-19 -56q-6 -24 -21.5 -83.5
t-28 -109.5t-18.5 -86q-17 -103 20 -149t111 -46q97 0 168.5 70.5t104.5 198.5q37 149 42 175q4 22 6.5 33t2 24t1 17.5t-5 11.5t-7.5 8t-15 4t-18.5 3.5t-26.5 2.5q-7 1 -14 7t-6 11q5 16 67 10q59 -4 139 1q32 2 39.5 -0.5t7.5 -13.5q0 -16 -36 -18q-50 -2 -63.5 -15.5
t-27.5 -74.5q-7 -32 -22.5 -95t-26 -112t-15.5 -85q-8 -58 -7 -93.5t10.5 -48t24 -15.5t32.5 3q6 1 13 3t11 3l8 2t6.5 1t4.5 -0.5t3.5 -2t2.5 -4.5q4 -15 -13 -24q-46 -19 -79 -19q-35 0 -50.5 32.5t-11.5 82.5q2 17 0.5 23t-6 3t-13.5 -15q-91 -126 -240 -126zM397 695
q-43 -40 -54 -26t37 52q30 26 45 25.5t37 -21.5t32 -20.5t32 22.5q24 25 35 21q11 -3 1 -20t-24 -31q-48 -50 -87 -8q-17 19 -26.5 20.5t-27.5 -14.5z" />
    <glyph glyph-name="utilde" unicode="&#x169;" horiz-adv-x="479" 
d="M40 301q-10 11 26 42q4 3 20.5 18t27 23.5t25.5 20.5t26 17.5t19 5.5q11 0 17.5 -10.5t6.5 -27.5q0 -15 -14 -65q-58 -179 -67 -211q-22 -86 9 -86q12 0 39 24.5t49 51.5q71 82 103 135t70 158q11 30 35 30q5 0 6 -8.5t-4 -19.5q-63 -157 -93 -269q-3 -11 -6 -24
t-6 -30.5t-0.5 -29t10.5 -11.5q10 0 42 31.5t49 51.5q14 14 25 4q10 -12 -9 -31q-49 -50 -89 -82q-17 -15 -35 -15q-32 0 -32 55q0 35 21 87q13 33 1 24q-8 -6 -24 -26q-33 -43 -98 -110q-9 -10 -27.5 -22t-34.5 -12q-70 0 -33 136q11 39 35.5 114.5t31.5 100.5
q10 32 1.5 36t-28.5 -13q-7 -5 -21 -17t-29.5 -25t-18.5 -16q-18 -16 -26 -5zM292 556q-47 -39 -55 -30q-9 12 37 52q31 26 46 25.5t37 -21.5t31.5 -20.5t32.5 22.5q24 26 34 21q15 -4 -30 -52q-23 -25 -39 -27.5t-40 20.5q-18 19 -26.5 21.5t-27.5 -11.5z" />
    <glyph glyph-name="Umacron" unicode="&#x16a;" horiz-adv-x="751" 
d="M273 -6q-92 0 -136.5 57t-24.5 158q7 34 30 132.5t27 114.5q5 23 8 37t4 27.5t2 20t-4 13.5t-6.5 9t-13 5t-16.5 3.5t-23 2.5q-32 4 -32 19q0 10 17 11.5t41 -1.5q72 -8 160 1q32 1 32 -12q0 -6 -3.5 -10t-17.5 -7.5t-40 -5.5q-29 -2 -38 -13t-19 -56q-6 -24 -21.5 -83.5
t-28 -109.5t-18.5 -86q-17 -103 20 -149t111 -46q97 0 168.5 70.5t104.5 198.5q37 149 42 175q4 22 6.5 33t2 24t1 17.5t-5 11.5t-7.5 8t-15 4t-18.5 3.5t-26.5 2.5q-7 1 -14 7t-6 11q5 16 67 10q59 -4 139 1q32 2 39.5 -0.5t7.5 -13.5q0 -16 -36 -18q-50 -2 -63.5 -15.5
t-27.5 -74.5q-7 -32 -22.5 -95t-26 -112t-15.5 -85q-8 -58 -7 -93.5t10.5 -48t24 -15.5t32.5 3q6 1 13 3t11 3l8 2t6.5 1t4.5 -0.5t3.5 -2t2.5 -4.5q4 -15 -13 -24q-46 -19 -79 -19q-35 0 -50.5 32.5t-11.5 82.5q2 17 0.5 23t-6 3t-13.5 -15q-91 -126 -240 -126zM324 658
q-25 0 -18 18q6 17 31 17q160 0 210 6q4 0 10.5 1.5t10 2t7.5 0t5.5 -3t1.5 -7.5q0 -13 -20 -25q-8 -6 -27 -6q-55 -3 -211 -3z" />
    <glyph glyph-name="umacron" unicode="&#x16b;" horiz-adv-x="479" 
d="M40 301q-10 11 26 42q4 3 20.5 18t27 23.5t25.5 20.5t26 17.5t19 5.5q11 0 17.5 -10.5t6.5 -27.5q0 -15 -14 -65q-58 -179 -67 -211q-22 -86 9 -86q12 0 39 24.5t49 51.5q71 82 103 135t70 158q11 30 35 30q5 0 6 -8.5t-4 -19.5q-63 -157 -93 -269q-3 -11 -6 -24
t-6 -30.5t-0.5 -29t10.5 -11.5q10 0 42 31.5t49 51.5q14 14 25 4q10 -12 -9 -31q-49 -50 -89 -82q-17 -15 -35 -15q-32 0 -32 55q0 35 21 87q13 33 1 24q-8 -6 -24 -26q-33 -43 -98 -110q-9 -10 -27.5 -22t-34.5 -12q-70 0 -33 136q11 39 35.5 114.5t31.5 100.5
q10 32 1.5 36t-28.5 -13q-7 -5 -21 -17t-29.5 -25t-18.5 -16q-18 -16 -26 -5zM208 508q-13 0 -17.5 4t-0.5 13q5 17 31 17q160 0 210 6q4 1 10.5 2.5t10 2t7.5 0t5.5 -3.5t1.5 -8q0 -13 -20 -25q-8 -6 -28 -6q-36 -2 -210 -2z" />
    <glyph glyph-name="Ubreve" unicode="&#x16c;" horiz-adv-x="751" 
d="M273 -6q-92 0 -136.5 57t-24.5 158q7 34 30 132.5t27 114.5q5 23 8 37t4 27.5t2 20t-4 13.5t-6.5 9t-13 5t-16.5 3.5t-23 2.5q-32 4 -32 19q0 10 17 11.5t41 -1.5q72 -8 160 1q32 1 32 -12q0 -6 -3.5 -10t-17.5 -7.5t-40 -5.5q-29 -2 -38 -13t-19 -56q-6 -24 -21.5 -83.5
t-28 -109.5t-18.5 -86q-17 -103 20 -149t111 -46q97 0 168.5 70.5t104.5 198.5q37 149 42 175q4 22 6.5 33t2 24t1 17.5t-5 11.5t-7.5 8t-15 4t-18.5 3.5t-26.5 2.5q-7 1 -14 7t-6 11q5 16 67 10q59 -4 139 1q32 2 39.5 -0.5t7.5 -13.5q0 -16 -36 -18q-50 -2 -63.5 -15.5
t-27.5 -74.5q-7 -32 -22.5 -95t-26 -112t-15.5 -85q-8 -58 -7 -93.5t10.5 -48t24 -15.5t32.5 3q6 1 13 3t11 3l8 2t6.5 1t4.5 -0.5t3.5 -2t2.5 -4.5q4 -15 -13 -24q-46 -19 -79 -19q-35 0 -50.5 32.5t-11.5 82.5q2 17 0.5 23t-6 3t-13.5 -15q-91 -126 -240 -126zM549 758
q12 -5 -1 -28q-20 -42 -51.5 -61t-62.5 -19q-38 0 -55.5 23t-18.5 54q0 31 15 32q7 1 11.5 -6t4.5 -14q3 -55 47 -55q30 0 46.5 14t37.5 46q12 18 27 14z" />
    <glyph glyph-name="ubreve" unicode="&#x16d;" horiz-adv-x="479" 
d="M40 301q-10 11 26 42q4 3 20.5 18t27 23.5t25.5 20.5t26 17.5t19 5.5q11 0 17.5 -10.5t6.5 -27.5q0 -15 -14 -65q-58 -179 -67 -211q-22 -86 9 -86q12 0 39 24.5t49 51.5q71 82 103 135t70 158q11 30 35 30q5 0 6 -8.5t-4 -19.5q-63 -157 -93 -269q-3 -11 -6 -24
t-6 -30.5t-0.5 -29t10.5 -11.5q10 0 42 31.5t49 51.5q14 14 25 4q10 -12 -9 -31q-49 -50 -89 -82q-17 -15 -35 -15q-32 0 -32 55q0 35 21 87q13 33 1 24q-8 -6 -24 -26q-33 -43 -98 -110q-9 -10 -27.5 -22t-34.5 -12q-70 0 -33 136q11 39 35.5 114.5t31.5 100.5
q10 32 1.5 36t-28.5 -13q-7 -5 -21 -17t-29.5 -25t-18.5 -16q-18 -16 -26 -5zM441 606q10 -3 -2 -28q-21 -42 -52.5 -61t-62.5 -19q-38 0 -55 23.5t-18 54.5q0 29 14 32q8 1 12 -5.5t5 -14.5q4 -56 46 -56q31 0 48 14.5t38 46.5q14 19 27 13z" />
    <glyph glyph-name="Uring" unicode="&#x16e;" horiz-adv-x="751" 
d="M273 -6q-92 0 -136.5 57t-24.5 158q7 34 30 132.5t27 114.5q5 23 8 37t4 27.5t2 20t-4 13.5t-6.5 9t-13 5t-16.5 3.5t-23 2.5q-32 4 -32 19q0 10 17 11.5t41 -1.5q72 -8 160 1q32 1 32 -12q0 -6 -3.5 -10t-17.5 -7.5t-40 -5.5q-29 -2 -38 -13t-19 -56q-6 -24 -21.5 -83.5
t-28 -109.5t-18.5 -86q-17 -103 20 -149t111 -46q97 0 168.5 70.5t104.5 198.5q37 149 42 175q4 22 6.5 33t2 24t1 17.5t-5 11.5t-7.5 8t-15 4t-18.5 3.5t-26.5 2.5q-7 1 -14 7t-6 11q5 16 67 10q59 -4 139 1q32 2 39.5 -0.5t7.5 -13.5q0 -16 -36 -18q-50 -2 -63.5 -15.5
t-27.5 -74.5q-7 -32 -22.5 -95t-26 -112t-15.5 -85q-8 -58 -7 -93.5t10.5 -48t24 -15.5t32.5 3q6 1 13 3t11 3l8 2t6.5 1t4.5 -0.5t3.5 -2t2.5 -4.5q4 -15 -13 -24q-46 -19 -79 -19q-35 0 -50.5 32.5t-11.5 82.5q2 17 0.5 23t-6 3t-13.5 -15q-91 -126 -240 -126zM467 795
q28 0 46.5 -17.5t18.5 -44.5q0 -37 -30.5 -64.5t-69.5 -27.5q-30 0 -50 16t-20 43q0 39 32 67t73 28zM457 765q-24 0 -42.5 -18t-18.5 -40q0 -16 12.5 -26.5t30.5 -10.5q22 0 40 17.5t18 43.5q0 18 -12.5 26t-27.5 8z" />
    <glyph glyph-name="uring" unicode="&#x16f;" horiz-adv-x="479" 
d="M40 301q-10 11 26 42q4 3 20.5 18t27 23.5t25.5 20.5t26 17.5t19 5.5q11 0 17.5 -10.5t6.5 -27.5q0 -15 -14 -65q-58 -179 -67 -211q-22 -86 9 -86q12 0 39 24.5t49 51.5q71 82 103 135t70 158q11 30 35 30q5 0 6 -8.5t-4 -19.5q-63 -157 -93 -269q-3 -11 -6 -24
t-6 -30.5t-0.5 -29t10.5 -11.5q10 0 42 31.5t49 51.5q14 14 25 4q10 -12 -9 -31q-49 -50 -89 -82q-17 -15 -35 -15q-32 0 -32 55q0 35 21 87q13 33 1 24q-8 -6 -24 -26q-33 -43 -98 -110q-9 -10 -27.5 -22t-34.5 -12q-70 0 -33 136q11 39 35.5 114.5t31.5 100.5
q10 32 1.5 36t-28.5 -13q-7 -5 -21 -17t-29.5 -25t-18.5 -16q-18 -16 -26 -5z" />
    <glyph glyph-name="Uhungarumlaut" unicode="&#x170;" horiz-adv-x="751" 
d="M273 -6q-92 0 -136.5 57t-24.5 158q7 34 30 132.5t27 114.5q5 23 8 37t4 27.5t2 20t-4 13.5t-6.5 9t-13 5t-16.5 3.5t-23 2.5q-32 4 -32 19q0 10 17 11.5t41 -1.5q72 -8 160 1q32 1 32 -12q0 -6 -3.5 -10t-17.5 -7.5t-40 -5.5q-29 -2 -38 -13t-19 -56q-6 -24 -21.5 -83.5
t-28 -109.5t-18.5 -86q-17 -103 20 -149t111 -46q97 0 168.5 70.5t104.5 198.5q37 149 42 175q4 22 6.5 33t2 24t1 17.5t-5 11.5t-7.5 8t-15 4t-18.5 3.5t-26.5 2.5q-7 1 -14 7t-6 11q5 16 67 10q59 -4 139 1q32 2 39.5 -0.5t7.5 -13.5q0 -16 -36 -18q-50 -2 -63.5 -15.5
t-27.5 -74.5q-7 -32 -22.5 -95t-26 -112t-15.5 -85q-8 -58 -7 -93.5t10.5 -48t24 -15.5t32.5 3q6 1 13 3t11 3l8 2t6.5 1t4.5 -0.5t3.5 -2t2.5 -4.5q4 -15 -13 -24q-46 -19 -79 -19q-35 0 -50.5 32.5t-11.5 82.5q2 17 0.5 23t-6 3t-13.5 -15q-91 -126 -240 -126zM594 744
q7 5 12.5 8t11 5.5t8 3t10.5 2t11 2.5q12 3 16 -2t1 -12.5t-10 -10.5q-16 -6 -59.5 -31.5t-65.5 -40.5q-22 -13 -32 -6q-11 9 5 22q13 12 52 36t40 24zM456 744q7 5 12.5 8t11 5.5t8 3t10.5 2t11 2.5q12 3 16 -2t1 -12.5t-10 -10.5q-16 -6 -59.5 -31.5t-65.5 -40.5
q-22 -13 -32 -6q-11 9 5 22q13 12 52 36t40 24z" />
    <glyph glyph-name="uhungarumlaut" unicode="&#x171;" horiz-adv-x="479" 
d="M40 301q-10 11 26 42q4 3 20.5 18t27 23.5t25.5 20.5t26 17.5t19 5.5q11 0 17.5 -10.5t6.5 -27.5q0 -15 -14 -65q-58 -179 -67 -211q-22 -86 9 -86q12 0 39 24.5t49 51.5q71 82 103 135t70 158q11 30 35 30q5 0 6 -8.5t-4 -19.5q-63 -157 -93 -269q-3 -11 -6 -24
t-6 -30.5t-0.5 -29t10.5 -11.5q10 0 42 31.5t49 51.5q14 14 25 4q10 -12 -9 -31q-49 -50 -89 -82q-17 -15 -35 -15q-32 0 -32 55q0 35 21 87q13 33 1 24q-8 -6 -24 -26q-33 -43 -98 -110q-9 -10 -27.5 -22t-34.5 -12q-70 0 -33 136q11 39 35.5 114.5t31.5 100.5
q10 32 1.5 36t-28.5 -13q-7 -5 -21 -17t-29.5 -25t-18.5 -16q-18 -16 -26 -5zM348 672q15 2 15 -5q-1 -8 -15 -35q-49 -89 -63 -118q-14 -28 -33 -28q-17 0 -4 28q24 46 58 116q13 27 19 33t23 9zM471 670q17 3 17 -5q-1 -7 -15 -33q-7 -13 -27 -50t-36 -68q-12 -28 -33 -28
q-16 0 -3 28l58 116q12 28 17.5 33t21.5 7z" />
    <glyph glyph-name="Uogonek" unicode="&#x172;" horiz-adv-x="751" 
d="M609 -125q8 -11 -17 -32q-35 -29 -69 -29q-63 0 -61 63q0 61 85 122q11 7 -1 22q-19 33 -14 88q2 17 0.5 23t-6 3t-13.5 -15q-91 -126 -240 -126q-92 0 -136.5 57t-24.5 158q7 34 30 132.5t27 114.5q5 23 8 37t4 27.5t2 20t-4 13.5t-6.5 9t-13 5t-16.5 3.5t-23 2.5
q-32 4 -32 19q0 10 17 11.5t41 -1.5q72 -8 160 1q32 1 32 -12q0 -6 -3.5 -10t-17.5 -7.5t-40 -5.5q-29 -2 -38 -13t-19 -56q-6 -24 -21.5 -83.5t-28 -109.5t-18.5 -86q-17 -103 20 -149t111 -46q97 0 168.5 70.5t104.5 198.5q37 149 42 175q4 22 6.5 33t2 24t1 17.5t-5 11.5
t-7.5 8t-15 4t-18.5 3.5t-26.5 2.5q-7 1 -14 7t-6 11q5 16 67 10q59 -4 139 1q32 2 39.5 -0.5t7.5 -13.5q0 -16 -36 -18q-50 -2 -63.5 -15.5t-27.5 -74.5q-7 -32 -22.5 -95t-26 -112t-15.5 -85q-8 -58 -7 -93.5t10.5 -48t24 -15.5t32.5 3q6 1 13 3t11 3l8 2t6.5 1t4.5 -0.5
t3.5 -2t2.5 -4.5q4 -15 -13 -24q-40 -17 -66 -19q-13 -1 -24 -7q-82 -60 -82 -108q0 -27 26 -27q21 0 55 23q19 13 27 0z" />
    <glyph glyph-name="uogonek" unicode="&#x173;" horiz-adv-x="479" 
d="M354 -125q8 -11 -17 -32q-35 -29 -69 -29q-63 0 -61 63q0 57 80 119q14 10 6 23q-3 5 -3 30q0 35 21 87q13 33 1 24q-8 -6 -24 -26q-33 -43 -98 -110q-9 -10 -27.5 -22t-34.5 -12q-70 0 -33 136q11 39 35.5 114.5t31.5 100.5q10 32 1.5 36t-28.5 -13q-7 -5 -21 -17
t-29.5 -25t-18.5 -16q-18 -16 -26 -5q-10 11 26 42q4 3 20.5 18t27 23.5t25.5 20.5t26 17.5t19 5.5q11 0 17.5 -10.5t6.5 -27.5q0 -15 -14 -65q-58 -179 -67 -211q-22 -86 9 -86q12 0 39 24.5t49 51.5q71 82 103 135t70 158q11 30 35 30q5 0 6 -8.5t-4 -19.5
q-63 -157 -93 -269q-3 -11 -6 -24t-6 -30.5t-0.5 -29t10.5 -11.5q10 0 42 31.5t49 51.5q14 14 25 4q10 -12 -9 -31q-59 -59 -118 -104q-81 -60 -81 -108q0 -26 25 -26q22 0 55 22q5 4 13 5t14 -5z" />
    <glyph glyph-name="Wcircumflex" unicode="&#x174;" horiz-adv-x="835" 
d="M358 593q0 6 11.5 9.5t23.5 1.5q21 -5 64 -5t73 5q39 6 37 -11q-2 -19 -22 -20q-43 -3 -51.5 -19.5t1.5 -71.5q34 -211 44 -364q1 -31 7 -30q7 1 26 38q37 74 137 184q78 87 107.5 132t29.5 98q0 32 -45 32q-14 0 -31 -7.5t-25 -15.5q-30 -27 -44 -5q-9 15 27 41
q39 30 94 28q31 -1 49.5 -20t16.5 -55q-4 -94 -153 -248q-46 -51 -102.5 -132.5t-66.5 -126.5q-5 -30 -26 -35q-22 -5 -27.5 7t-7.5 56v5q-4 88 -13 185q0 3 -2.5 5t-6 1t-6.5 -4q-149 -178 -157 -220q-7 -31 -27 -35q-22 -5 -27.5 7t-7.5 56v5q-8 204 -48 419
q-12 65 -23.5 77.5t-56.5 16.5q-8 0 -14 4t-5 12q0 6 11.5 9.5t23.5 1.5q21 -5 64 -5t74 5q10 1 18.5 1t13.5 -3.5t5 -8.5q-2 -19 -23 -20q-43 -3 -51 -19.5t1 -71.5l14 -77q14 -77 22 -140t12 -137q2 -34 6.5 -35t27.5 27q127 156 140 172q15 19 12 36q-4 36 -25 155
q-6 29 -10.5 44t-8.5 26t-14 15t-18 5.5t-29 3.5q-8 0 -14 4t-5 12zM492 769q11 3 14.5 0t6.5 -15q6 -18 30 -72q9 -19 -4 -23q-17 -3 -26 11q-2 4 -5.5 10.5t-7.5 16t-7 14.5q-3 7 -4.5 9.5t-4.5 2.5t-6 -2t-11 -8q-5 -4 -14 -12l-18 -16t-11 -10q-20 -19 -38 -13
q-7 5 -2.5 12t20.5 20q9 6 55 52q24 22 33 23z" />
    </font>
</defs>
</svg>
