<?xml version="1.0" standalone="no"?>
<!DOCTYPE svg PUBLIC "-//W3C//DTD SVG 1.1//EN" "http://www.w3.org/Graphics/SVG/1.1/DTD/svg11.dtd" >
<svg xmlns="http://www.w3.org/2000/svg" xmlns:xlink="http://www.w3.org/1999/xlink" version="1.1">
<metadata>
Created by FontForge 20170731 at Thu Mar  7 20:22:12 2013
 By Aleksey,,,
Copyright (c) 2008 by Nathanael Bonnell. All rights reserved.
</metadata>
<defs>
<font id="NewtSerifDemi" horiz-adv-x="566" >
  <font-face 
    font-family="Newt Serif Demi"
    font-weight="400"
    font-stretch="normal"
    units-per-em="1000"
    panose-1="2 0 5 3 7 0 0 2 0 4"
    ascent="705"
    descent="-295"
    x-height="433"
    cap-height="596"
    bbox="-172.08 -286.17 1270 829.545"
    underline-thickness="41"
    underline-position="-210"
    unicode-range="U+0020-FB02"
  />
<missing-glyph horiz-adv-x="471" 
d="M394 293q0 -102 18.5 -177t40.5 -97q9 -10 4 -18t-20 -4l-35 8q-64 14 -162 14q-48 0 -89 -4t-63 -8t-38.5 -7.5t-23 -3t-9.5 6.5q-2 5 3.5 13.5t14.5 27.5t18.5 47t16.5 82.5t7 124.5q0 195 -43 259l-17 25q-8 9 -3.5 17t21.5 5q79 -23 201 -23q56 0 108.5 6.5t77 12
t25.5 4.5t4 -3.5t3 -4v-6t-4 -12t-11 -18.5q-22 -31 -33.5 -114t-11.5 -153zM106 418q0 -32 18 -47.5t37 -15.5q14 0 32 4.5t30 12t8 14.5q-5 7 -21 0q-24 -4 -40 9t-16 35q0 26 19.5 46.5t56.5 20.5q40 0 60 -23t20 -50q0 -29 -13.5 -51t-43.5 -51q-17 -16 -25 -25
t-18.5 -33t-10.5 -52q0 -18 10 -18q12 0 13.5 14.5t9 41t29.5 47.5q11 11 47 38q72 56 57 117q-16 68 -124 68q-51 0 -93 -30.5t-42 -71.5zM173 95q0 -31 37 -31q14 0 28.5 9t14.5 29q0 12 -10 19t-25 7q-17 0 -31 -9.5t-14 -23.5z" />
    <glyph glyph-name=".notdef" horiz-adv-x="471" 
d="M394 293q0 -102 18.5 -177t40.5 -97q9 -10 4 -18t-20 -4l-35 8q-64 14 -162 14q-48 0 -89 -4t-63 -8t-38.5 -7.5t-23 -3t-9.5 6.5q-2 5 3.5 13.5t14.5 27.5t18.5 47t16.5 82.5t7 124.5q0 195 -43 259l-17 25q-8 9 -3.5 17t21.5 5q79 -23 201 -23q56 0 108.5 6.5t77 12
t25.5 4.5t4 -3.5t3 -4v-6t-4 -12t-11 -18.5q-22 -31 -33.5 -114t-11.5 -153zM106 418q0 -32 18 -47.5t37 -15.5q14 0 32 4.5t30 12t8 14.5q-5 7 -21 0q-24 -4 -40 9t-16 35q0 26 19.5 46.5t56.5 20.5q40 0 60 -23t20 -50q0 -29 -13.5 -51t-43.5 -51q-17 -16 -25 -25
t-18.5 -33t-10.5 -52q0 -18 10 -18q12 0 13.5 14.5t9 41t29.5 47.5q11 11 47 38q72 56 57 117q-16 68 -124 68q-51 0 -93 -30.5t-42 -71.5zM173 95q0 -31 37 -31q14 0 28.5 9t14.5 29q0 12 -10 19t-25 7q-17 0 -31 -9.5t-14 -23.5z" />
    <glyph glyph-name=".null" horiz-adv-x="0" 
 />
    <glyph glyph-name="nonmarkingreturn" horiz-adv-x="333" 
 />
    <glyph glyph-name="space" unicode=" " horiz-adv-x="227" 
 />
    <glyph glyph-name="exclam" unicode="!" horiz-adv-x="252" 
d="M82 561q0 16 5 23t17 10q31 10 75 10h6.5h6t4.5 -0.5t4 -1.5t2 -3t1.5 -5.5t0.5 -8.5q0 -8 -4 -33t-9 -49t-10 -49t-6 -28q-17 -159 -20 -224q-1 -16 -4.5 -21t-14.5 -9q-8 -3 -12.5 5.5t-3.5 26.5q0 71 -13 214q-1 6 -7.5 40t-12 65t-5.5 38zM136 94q24 0 41 -11t17 -30
q0 -28 -21.5 -44t-47.5 -16q-58 0 -58 48q0 24 23.5 38.5t45.5 14.5z" />
    <glyph glyph-name="quotedbl" unicode="&#x22;" horiz-adv-x="285" 
d="M98 598q30 0 20 -32q-26 -90 -31 -161q-3 -29 -20 -29t-18 29q-5 53 -34 156q-6 13 -1 20t8 8.5t13 3.5q20 5 63 5zM250 598q29 0 19 -32q-26 -100 -31 -161q-2 -29 -19 -29q-18 0 -19 29q-4 46 -33 156q-8 26 17 31q2 1 3 1q19 5 63 5z" />
    <glyph glyph-name="numbersign" unicode="#" horiz-adv-x="428" 
d="M24 428q8 21 41 21h39q4 0 6 0.5t3 3t1.5 4t0.5 5.5v7q1 26 2 66t1 49q0 23 23 26q7 2 13.5 -3t6.5 -21l-1 -16v-41.5v-53.5v-6.5v-6v-4t1 -3.5t2 -2.5t3 -1.5t5 -0.5t7 -0.5q26 1 88 5q9 1 11.5 5t2.5 18l3 106q0 14 5 19t17 7q7 2 13 -3t6 -21q0 -46 -1 -107
q0 -16 4 -17q2 -1 11 -1q1 0 11 1t15 2q36 6 42 0q3 -3 3 -10t-8.5 -20.5t-20.5 -19.5q-10 -7 -37 -7q-15 0 -17.5 -2.5t-2.5 -18.5l-2 -160v-6v-5t0.5 -2.5t2.5 -1.5t4 -0.5t7 -0.5q9 0 29 2q36 6 42 0q3 -3 3 -9q0 -7 -8.5 -18.5t-20.5 -17.5q-14 -10 -37 -10
q-13 0 -17.5 -5t-4.5 -22q1 -54 0 -79q0 -39 -10 -48q-15 -15 -41 -17q-11 -2 -12 9.5t2 14.5q5 23 10 78v13.5v21v18.5q0 9 -2.5 12t-14.5 3l-77 -2q-7 -1 -9 -1.5t-5 -2.5t-3.5 -5.5t-0.5 -10.5v-83q-1 -34 -14 -48q-16 -15 -40 -17q-10 -2 -11 9.5t2 14.5q7 32 9 78
q3 32 1 48q0 16 -11 18q-17 1 -46 0q-16 -1 -22.5 7t-1.5 18q8 19 41 19h25q9 0 13.5 3.5t4.5 5t1 8.5q2 26 2.5 84t1.5 89q0 15 -13 16q-24 1 -53 0q-16 -1 -22.5 5t-0.5 19zM160 388q-2 -60 -2 -175q0 -11 1.5 -12.5t13.5 -1.5q45 1 85 4q12 1 14 4t2 15q2 106 4 164
q0 13 -2.5 17t-12.5 4q-17 0 -46.5 -1.5t-39.5 -1.5q-11 0 -14 -3.5t-3 -12.5z" />
    <glyph glyph-name="dollar" unicode="$" horiz-adv-x="359" 
d="M162 538q2 9 3.5 24t2.5 20q0 10 10 14q14 4 22 4t8 -13q1 -15 1 -47q0 -16 14 -16q74 -8 78 -52q0 -28 -40 -61q-11 -10 -22.5 -5.5t-7.5 18.5q7 26 -3.5 42.5t-36.5 16.5q-38 0 -59 -17t-20 -41q1 -18 12 -28t39 -25q7 -3 34.5 -13t33.5 -13q42 -16 66.5 -47.5
t24.5 -67.5q0 -55 -32.5 -97.5t-72.5 -50.5q-13 -2 -16 -17q0 -32 -2 -52q-1 -9 -14 -14q-7 -4 -22 -4q-8 0 -8 14q0 19 -2 47q-1 15 -19 17q-65 4 -87 20t-22 47q0 22 17.5 45.5t40.5 34.5q18 9 27 2q6 -5 7 -13t-2 -11q-15 -15 -15 -39q0 -22 17 -34t45 -12q37 0 67.5 17
t30.5 56q0 23 -13.5 37.5t-42.5 27.5q-51 26 -83 38q-74 30 -74 103q-1 50 32.5 83.5t66.5 40.5q15 3 16 21z" />
    <glyph glyph-name="percent" unicode="%" horiz-adv-x="895" 
d="M201 256q-76 0 -117.5 44t-41.5 122q0 66 54 125.5t145 59.5q69 0 111.5 -41t42.5 -101q0 -101 -57.5 -155t-136.5 -54zM226 563q-95 0 -95 -128q0 -134 84 -134q43 0 66 33.5t23 119.5q0 109 -78 109zM664 -13q-76 0 -117.5 43.5t-41.5 121.5q0 67 54 126.5t145 59.5
q70 0 112 -41t42 -102q0 -101 -57.5 -154.5t-136.5 -53.5zM689 294q-49 0 -72.5 -35t-23.5 -93q0 -135 85 -135q43 0 66.5 33.5t23.5 119.5q0 110 -79 110zM252 -35q-8 2 -10.5 5.5t0 12t8.5 18.5t18 28q34 56 141.5 247.5t138.5 250.5q5 8 10.5 22t11 31t7.5 23
q4 10 16.5 10t16.5 -7q7 -8 -1 -65q-6 -31 -25 -61q-16 -25 -132.5 -225t-146.5 -249q-28 -43 -53 -41z" />
    <glyph glyph-name="ampersand" unicode="&#x26;" horiz-adv-x="747" 
d="M47 140q0 64 36.5 108t102.5 79q19 11 9 31q-17 47 -17 84q0 71 54 117t111 46q138 0 138 -98q0 -71 -99 -127q-27 -14 -39 -4q-11 10 19 40q24 24 24 85q0 23 -15 40t-34 17q-66 0 -66 -91q1 -120 174 -281q3 -4 5.5 -6t4.5 -4q17 -19 37 1q30 33 44 75.5t-5 68.5
q-10 8 -27 7.5t-30 -7.5q-15 -9 -26 2t5 25q18 19 46.5 35t50.5 16q35 0 55.5 -24.5t20.5 -52.5q0 -31 -24.5 -71.5t-45.5 -64t-40 -40.5q-12 -12 23 -33q63 -40 122 -40q27 0 51 18q19 15 33 7q14 -10 0 -31q-3 -4 -11 -15t-11 -14.5t-10.5 -12.5t-13 -12.5t-14.5 -9.5
t-17.5 -8.5t-20.5 -4.5t-25 -2q-34 0 -83 17t-77 37q-21 15 -36 3q-31 -24 -81 -41t-107 -17q-59 0 -99.5 15.5t-59 41t-25.5 48.5t-7 48zM197 286q-51 -30 -51 -127q0 -51 36.5 -85t99.5 -34q69 0 109 33q18 13 5 24q-98 80 -160 183q-14 22 -39 6z" />
    <glyph glyph-name="quotesingle" unicode="'" horiz-adv-x="133" 
d="M98 598q30 0 20 -32q-26 -90 -31 -161q-3 -29 -20 -29t-18 29q-5 53 -34 156q-6 13 -1 20t8 8.5t13 3.5q20 5 63 5z" />
    <glyph glyph-name="parenleft" unicode="(" horiz-adv-x="286" 
d="M221 628q10 -13 -13 -50q-29 -43 -53.5 -122.5t-24.5 -166.5q0 -189 89 -315q16 -26 4 -38q-11 -12 -43 13q-138 109 -138 340q0 91 46 187t93 141q27 27 40 11z" />
    <glyph glyph-name="parenright" unicode=")" horiz-adv-x="290" 
d="M62 -61q-9 13 14 50q29 42 53 122.5t24 167.5q0 189 -88 314q-16 29 -4 38q10 12 43 -12q138 -110 138 -340q0 -92 -46 -188t-93 -141q-29 -24 -41 -11z" />
    <glyph glyph-name="asterisk" unicode="*" horiz-adv-x="421" 
d="M233 534q-1 -5 -6 -27t-6 -36q-1 -9 3.5 -12t12.5 1q60 24 101 56q24 15 32 4t5 -37q-6 -40 -55 -52q-5 -1 -28 -6.5t-37 -9.5q-15 -6 -6 -19q36 -46 83 -82q17 -12 15.5 -21.5t-12 -15t-25.5 -7.5q-38 -7 -69 38q-14 19 -38 62q-8 12 -22 1q-47 -42 -82 -95
q-17 -24 -30 -16.5t-18 31.5q-10 38 29 67q17 13 63 41q7 6 5.5 11.5t-7.5 8.5q-48 24 -113 33q-50 6 -3 44q35 27 73 7q20 -10 57 -40q6 -4 12.5 0t6.5 14q0 51 -16 107q-8 27 10 29t38 -11q18 -10 23.5 -25.5t3.5 -42.5z" />
    <glyph glyph-name="plus" unicode="+" horiz-adv-x="421" 
d="M48 253q-16 0 -23.5 6t-0.5 17q14 22 41 22l107 3q10 0 13.5 4t3.5 15l3 102q0 33 20 40q28 11 28 -23q0 -7 -0.5 -46t-0.5 -68q0 -14 3 -18t13 -3q17 1 47 4t45 4q4 0 10 1t9.5 1.5t8 1t7 0t5 -2t3.5 -4.5t1 -7q0 -6 -8.5 -20t-19.5 -20q-10 -7 -36 -7q-7 0 -16 -0.5
t-24 -1t-27 -0.5q-14 0 -18 -3.5t-4 -16.5q0 -21 -0.5 -48.5t-0.5 -32.5q0 -27 -6 -38t-21.5 -19.5t-23.5 -8.5q-4 0 -6.5 1t-3.5 3.5t-1.5 5t0 7t1 8t1 9.5t1.5 10q8 98 8 106q1 11 -2 14t-16 3h-120z" />
    <glyph glyph-name="comma" unicode="," horiz-adv-x="218" 
d="M67 -148q-2 2 -3.5 7t0.5 13.5t8 17.5q20 26 29.5 60t0.5 46q-18 23 -40 7q-17 -14 -27 -1q-2 3 -2.5 6t0.5 7.5t2.5 8t5 10.5l5.5 11q11 24 33 39t45 15t38.5 -22t15.5 -55t-18.5 -76.5t-44.5 -73.5q-30 -36 -48 -20z" />
    <glyph glyph-name="hyphen" unicode="-" horiz-adv-x="348" 
d="M79 296q4 1 71 6t92 14q28 11 31 -3.5t-9 -35.5q-16 -38 -70 -39q-28 -1 -123 -1q-18 0 -24 6.5t-1 21.5q7 23 33 31z" />
    <glyph glyph-name="period" unicode="." horiz-adv-x="227" 
d="M119 94q24 0 41 -11t17 -30q0 -28 -21 -44t-47 -16q-58 0 -58 48q0 24 23 38.5t45 14.5z" />
    <glyph glyph-name="slash" unicode="/" horiz-adv-x="449" 
d="M49 -35q-8 2 -10.5 5.5t0 12t8.5 18.5t18 28q34 56 141.5 247.5t138.5 250.5q5 8 10.5 22t11 31t7.5 23q4 10 17 10t16 -7q7 -8 -1 -65q-6 -33 -25 -61q-16 -25 -132.5 -225t-146.5 -249q-28 -43 -53 -41z" />
    <glyph glyph-name="zero" unicode="0" horiz-adv-x="500" 
d="M266 611q185 0 192 -243q3 -168 -55 -277.5t-164 -109.5q-89 0 -141.5 69.5t-53.5 183.5q0 83 15 150t38.5 108t54 69t59 39t55.5 11zM145 291q1 -137 28.5 -196t84.5 -59q51 0 77 66.5t22 223.5q-2 118 -28.5 173t-79.5 55q-50 0 -78.5 -67.5t-25.5 -195.5z" />
    <glyph glyph-name="one" unicode="1" horiz-adv-x="403" 
d="M52 -3q-10 -1 -14 5t-4 14q0 6 7 11.5t14 7.5q63 5 84.5 23.5t24.5 80.5q8 131 4 330q-1 12 -5.5 15t-17.5 -3q-30 -17 -57 -37q-25 -19 -41 -1q-5 4 0 16t15 19q131 92 148 108q21 22 43.5 18.5t20.5 -32.5q-12 -212 -7 -443q1 -52 9 -65q13 -20 73 -26q8 -1 14.5 -7.5
t6.5 -12.5q0 -23 -27 -20q-66 4 -158 3t-133 -4z" />
    <glyph glyph-name="two" unicode="2" horiz-adv-x="514" 
d="M54 48q14 13 48 44.5t52.5 49t46.5 46t52.5 57t47.5 59.5q50 68 50 128q0 17 -2.5 30t-11 20t-12.5 11t-18 5.5t-16 1.5h-18q-21 0 -65 -14q-35 -13 -71 -13q-28 0 -44 19t-12 45q2 36 19 67q10 17 23 17t22 -22q5 -16 44 -16q18 0 49 9t73 9q58 0 86.5 -24t29.5 -85
q1 -87 -50 -164q-14 -21 -37.5 -49t-42 -47.5t-53.5 -56t-51 -52.5q-22 -24 1 -26q27 -3 90 -2.5t80 2.5q65 8 74 71q1 8 6 14.5t11 6.5q5 0 11 -7.5t6 -17.5q0 -39 -13 -81t-33 -64q-25 -25 -52 -23q-127 13 -321 1q-13 1 -11 21.5t12 29.5z" />
    <glyph glyph-name="three" unicode="3" horiz-adv-x="441" 
d="M110 624q12 0 20 -15q11 -26 43 -23q23 0 55 7t52 7q90 -2 90 -71q0 -46 -24.5 -78.5t-67.5 -61.5q-14 -10 -13 -16.5t14 -8.5q19 -3 38.5 -11.5t41 -26.5t35 -52.5t13.5 -80.5q0 -30 -13 -64t-38 -66.5t-69.5 -53.5t-99.5 -21q-148 0 -148 84q0 27 29 52.5t60 37.5
q16 5 23 -8q4 -9 -10 -26q-14 -20 -12.5 -39t25.5 -33.5t62 -14.5q49 0 79.5 33.5t30.5 86.5q0 41 -18 70t-47 43.5t-55.5 20.5t-52.5 6q-11 0 -20 6.5t-9 14.5q0 13 24 24q42 15 86.5 52t44.5 73q0 56 -107 22q-54 -15 -81 3.5t-22 59.5q4 25 17 48q11 20 24 20z" />
    <glyph glyph-name="four" unicode="4" horiz-adv-x="516" 
d="M54 183q-13 0 -17.5 3.5t-3.5 13.5q6 27 22 45q27 30 48.5 55.5t45 57t33 44t39.5 55t37 51.5q25 33 28 62q2 21 28 25q22 5 60 3q11 0 9 -23l-9 -305q0 -5 0.5 -7.5t5 -5t12.5 -2.5q26 0 45 19q15 16 27 9q11 -11 7 -20q-36 -59 -43 -66q-16 -16 -44 -16q-14 0 -14 -39
q0 -35 4 -60q3 -26 9 -49q5 -19 -9 -29q-34 -30 -84 -39q-15 -2 -19 7t-4 32q0 7 4 31l5 30q3 33 3 97q0 27 -20 27q-15 0 -84 -3t-121 -3zM269 257q15 3 16 22q5 108 2 152q-2 22 -10 22q-9 0 -21 -18q-86 -111 -118 -154q-22 -27 11 -27q109 0 120 3z" />
    <glyph glyph-name="five" unicode="5" horiz-adv-x="453" 
d="M407 604q-12 -56 -38 -91q-10 -11 -25 -17.5t-22 -6.5q-34 0 -77 10.5t-72 9.5q-13 0 -25 -19q-13 -31 -14 -36q-3 -13 -3.5 -17.5t2 -10t9.5 -6.5q70 -12 131 -30q65 -21 101 -61.5t37 -116.5q0 -92 -64 -156t-171 -64q-73 0 -103.5 25t-30.5 60q0 32 21.5 58t40.5 36
q34 18 48 6q7 -5 7 -14.5t-7 -14.5q-20 -16 -20 -54q0 -48 83 -48q52 0 84.5 33t32.5 86q0 49 -14.5 75.5t-44.5 41.5q-88 42 -200 56q-13 1 -17 5.5t1 26.5q37 88 76 211q5 13 10.5 16.5t18.5 2.5q72 -11 154 -11q40 0 56 20q17 21 30 12q7 -6 5 -17z" />
    <glyph glyph-name="six" unicode="6" horiz-adv-x="481" 
d="M191 333q0 12 19 23q48 29 94 29q59 0 97 -40t38 -107q-2 -113 -66 -183t-152 -70q-90 0 -134.5 56t-44.5 136q0 134 61 244.5t160 185.5q27 19 38 5q5 -6 1.5 -17t-12.5 -18q-149 -135 -149 -368q0 -176 102 -176q39 0 67.5 45t28.5 127q0 73 -17 100t-55 27
q-27 0 -51 -10q-18 -9 -25 11z" />
    <glyph glyph-name="seven" unicode="7" horiz-adv-x="411" 
d="M83 620q12 0 15 -16q3 -19 16 -24.5t38 -5.5q107 0 195 22q39 10 46 8q6 -1 9.5 -9t-1.5 -16q-22 -23 -46 -65q-21 -38 -49.5 -96t-62.5 -152.5t-35 -151.5q0 -40 5 -70q2 -6 1 -19.5t-4 -18.5q-9 -11 -38 -22t-48 -13q-38 -4 -38 31q-1 56 67.5 208t139.5 269q5 7 7 13
t2 10.5t-4.5 5.5t-12.5 -1q-6 -2 -28 -10t-38 -13t-42.5 -9.5t-51.5 -4.5q-44 0 -67.5 15.5t-20.5 38.5q10 52 27 80q10 16 19 16z" />
    <glyph glyph-name="eight" unicode="8" horiz-adv-x="507" 
d="M236 -17q-93 0 -143.5 36t-50.5 98t30 103.5t86 80.5q11 7 11 15.5t-9 13.5q-90 52 -90 123q0 60 59 106.5t130 46.5q163 0 163 -115q0 -69 -68 -116q-24 -16 2 -28q109 -47 109 -159q0 -78 -62.5 -141.5t-166.5 -63.5zM231 285q-22 6 -41 -11q-50 -46 -50 -126
q0 -110 119 -110q61 0 96.5 29.5t35.5 74.5q0 52 -46.5 89t-113.5 54zM313 389q29 27 29 78q0 89 -105 89q-41 0 -64 -23t-23 -50q1 -35 31 -58.5t91 -47.5q23 -8 41 12z" />
    <glyph glyph-name="nine" unicode="9" horiz-adv-x="461" 
d="M286 263q0 -15 -18 -26q-46 -29 -92 -29q-59 0 -97 39.5t-38 106.5q2 113 66 183.5t152 70.5q90 0 134.5 -55.5t44.5 -136.5q0 -134 -69 -247.5t-170 -182.5q-9 -8 -20 -10t-18 5q-5 5 -1.5 16.5t12.5 18.5q166 133 166 368q0 176 -101 176q-39 0 -67.5 -45t-28.5 -127
q0 -73 17 -100.5t55 -27.5q25 0 48 11q11 5 18 2.5t7 -10.5z" />
    <glyph glyph-name="colon" unicode=":" horiz-adv-x="227" 
d="M119 94q24 0 41 -11t17 -30q0 -28 -21 -44t-47 -16q-58 0 -58 48q0 24 23 38.5t45 14.5zM119 380q24 0 41 -11t17 -30q0 -28 -21 -44t-47 -16q-58 0 -58 48q0 24 23 38.5t45 14.5z" />
    <glyph glyph-name="semicolon" unicode=";" horiz-adv-x="218" 
d="M67 -148q-2 2 -3.5 7t0.5 13.5t8 17.5q20 26 29.5 60t0.5 46q-18 23 -40 7q-17 -14 -27 -1q-2 3 -2.5 6t0.5 7.5t2.5 8t5 10.5l5.5 11q11 24 32.5 38.5t44.5 14.5t39 -21.5t16 -54.5q0 -32 -19.5 -73.5t-46.5 -73.5q-31 -35 -45 -23zM114 380q25 0 42 -11t17 -30
q0 -28 -21.5 -44t-47.5 -16q-58 0 -58 48q0 24 23 38.5t45 14.5z" />
    <glyph glyph-name="less" unicode="&#x3c;" horiz-adv-x="354" 
d="M66 243q155 93 183 112q3 2 18 16t17 16q6 8 13.5 9t11.5 -9q5 -21 -7 -39q-8 -20 -37 -35q-59 -30 -152 -87q-12 -9 0 -17q18 -16 180 -103q30 -17 8 -29q-16 -9 -29 -1q-10 6 -222 118q-10 5 -6 19q4 19 22 30z" />
    <glyph glyph-name="equal" unicode="=" horiz-adv-x="477" 
d="M71 279q-15 0 -22 7t-2 16q11 21 41 21q147 2 282 15q5 0 14 1.5t12.5 1.5t8 -0.5t6.5 -3.5t2 -9q0 -7 -8 -20t-19 -18q-11 -7 -37 -7q-188 -4 -278 -4zM71 118q-15 0 -22 6.5t-2 16.5q11 21 41 21q126 1 282 14q5 0 13.5 1.5t12.5 1.5t8.5 -0.5t6.5 -3.5t2 -8
q0 -7 -8 -20.5t-19 -18.5q-11 -7 -37 -7q-141 -3 -278 -3z" />
    <glyph glyph-name="greater" unicode="&#x3e;" horiz-adv-x="354" 
d="M286 222q-177 -109 -182 -112q-9 -6 -35 -32q-19 -19 -25 0q-3 8 0 21t7 18q9 21 37 35q86 46 152 88q13 7 0 17q-15 14 -180 102q-29 16 -8 30q16 8 29 1q9 -6 52 -28.5t96.5 -51t73.5 -39.5q9 -4 6 -18q-2 -12 -6.5 -18t-16.5 -13z" />
    <glyph glyph-name="question" unicode="?" horiz-adv-x="418" 
d="M184 167q-10 -3 -15.5 6.5t-5.5 18.5q0 68 37 113q32 35 74 86q19 23 25 57t-2 53q-19 67 -90 67q-28 0 -55 -20.5t-27 -61.5q0 -30 16.5 -43t38.5 -7q22 5 29 -3q7 -12 -10 -24q-41 -23 -84 -23q-28 0 -50.5 22t-22.5 62q0 54 55.5 96t125.5 42q143 0 166 -93
q10 -40 -13 -84t-63 -74q-53 -41 -72 -67q-33 -44 -35 -98q-1 -21 -22 -25zM192 94q24 0 41 -11t17 -30q0 -28 -21 -44t-47 -16q-58 0 -58 48q0 24 23 38.5t45 14.5z" />
    <glyph glyph-name="at" unicode="@" horiz-adv-x="774" 
d="M450 -8q-25 0 -33.5 17t-5 44t16.5 68q6 14 0 16q-8 4 -19 -12q-16 -23 -54.5 -64t-59.5 -55q-38 -24 -61.5 -7.5t-23.5 66.5q0 111 52 208.5t140 147.5q36 19 71 10q27 -7 45 -17q15 -9 33 9q27 27 33 34q19 22 31 16q5 -2 5.5 -11t-3.5 -17q-32 -50 -45 -86
q-29 -71 -61 -209q-9 -33 -4.5 -45.5t14.5 -11.5t26 12q62 46 104.5 131t42.5 169q0 101 -53 147t-137 46q-148 0 -261.5 -134.5t-117.5 -313.5q-1 -75 14 -132t39.5 -90t59 -54t67.5 -28.5t70 -7.5q67 0 127.5 24.5t86.5 54.5q21 21 32 10t-6 -32q-46 -56 -118 -94
t-165 -38q-56 0 -107 19.5t-95 58.5t-70 107t-26 156q0 136 67 260.5t178.5 200t233.5 75.5q99 0 163.5 -54t64.5 -169q0 -234 -231 -405q-26 -20 -60 -20zM345 108q28 26 44.5 46.5t43.5 64.5q27 45 46 113q7 27 -10 38q-13 9 -37 14q-32 5 -62 -38q-25 -37 -46.5 -103.5
t-21.5 -106.5q0 -29 10 -37.5t33 9.5z" />
    <glyph glyph-name="A" unicode="A" horiz-adv-x="715" 
d="M322 567q29 31 64 37q15 3 21.5 -3.5t13.5 -26.5q10 -30 89.5 -230.5t87.5 -216.5q12 -25 16.5 -33.5t16.5 -24.5t27.5 -23.5t38.5 -12.5q10 0 10 -17q0 -9 -8 -14t-15 -4q-25 4 -56.5 5t-53 0t-55 -3.5t-45.5 -3.5q-23 0 -23 12q0 16 9 18q25 9 32.5 19t4.5 32
q-1 14 -14 48t-19 43q-10 12 -19 15q-2 0 -5 1q-20 2 -91.5 2.5t-86.5 -0.5q-27 -1 -38 -14q-20 -26 -32.5 -65.5t0.5 -61.5q1 -3 17.5 -13t16.5 -19q0 -8 -6.5 -12t-16.5 -2q-55 10 -165 1q-30 -3 -30 13t25 22q45 17 84 66q71 80 188 354q19 42 8 74q-3 10 0.5 22t8.5 16z
M354 440q-8 0 -21 -26q-76 -153 -80 -172q-2 -13 0.5 -18t13.5 -5q113 0 162 2q11 2 13.5 6t-2.5 18q-33 96 -70 178q-8 17 -16 17z" />
    <glyph glyph-name="B" unicode="B" horiz-adv-x="599" 
d="M23 9q-3 12 10.5 20.5t27.5 10.5q12 2 20.5 6t13.5 7t8.5 12t4 11.5t2.5 15t2 14.5q8 22 9 195.5t-1 191.5q0 14 -5 24.5t-11 16.5t-16 11t-16 7t-16 4t-11 2q-16 3 -16 20q0 4 2.5 8t11.5 7t24 1q30 -2 91 -2q128 4 185 4q97 1 133.5 -21.5t36.5 -75.5
q0 -41 -30.5 -72.5t-65.5 -43.5q-10 -2 -13.5 -7.5t0.5 -10t13 -4.5q64 0 107.5 -36.5t43.5 -88.5q0 -63 -26.5 -111t-68.5 -74.5t-87.5 -39t-90.5 -12.5q-31 0 -73 1.5t-50 1.5q-63 0 -128 -5q-18 -2 -21 12zM220 82q0 -21 13 -31.5t24.5 -12t34.5 -1.5q80 0 123.5 49
t43.5 130q0 50 -26 85t-81 35q-4 0 -17 -0.5t-20.5 0t-17.5 1t-15 3t-6 6.5q-3 11 3 15.5t26 8.5q56 9 79.5 38t23.5 79q0 34 -17 49.5t-59 19.5h-79q-13 -1 -22.5 -9t-9.5 -18q-7 -261 -1 -447z" />
    <glyph glyph-name="C" unicode="C" horiz-adv-x="567" 
d="M38 242q0 111 49.5 195.5t124 125.5t157.5 41q69 0 105 -25t36 -71q0 -38 -50 -91q-11 -13 -23 -8q-12 7 -7 19q16 38 -6 83t-74 45q-103 0 -158.5 -78t-55.5 -184q0 -118 55.5 -177t154.5 -59q33 0 77 11q14 4 25 8.5t21 12.5t15 12.5t16.5 16.5t15.5 16q2 2 9 2.5
t10 -2.5q9 -9 5 -18q-6 -16 -30 -47t-43 -49q-11 -11 -30 -17q-50 -11 -135 -11q-127 0 -195.5 71t-68.5 178z" />
    <glyph glyph-name="D" unicode="D" horiz-adv-x="662" 
d="M24 579q0 20 43 15q30 -2 91 -2q29 0 85 2.5t80 2.5q146 1 224.5 -53.5t78.5 -159.5q-1 -92 -32 -167t-81.5 -121.5t-112 -71t-127.5 -24.5q-26 -1 -61.5 0.5t-39.5 1.5q-63 0 -128 -5q-18 -2 -21 13q-2 8 5.5 14.5t15 9t17.5 4.5q14 2 23.5 6t14 11.5t6.5 13.5t4.5 18
t3.5 17q6 24 7.5 182t0.5 201q-1 64 -76 70q-21 1 -21 22zM219 534q-5 -265 0 -446q2 -45 63 -45q120 -1 178 87t58 227q0 177 -181 197q-43 3 -84 0q-34 -2 -34 -20z" />
    <glyph glyph-name="E" unicode="E" horiz-adv-x="603" 
d="M29 578q0 21 39 16q82 -6 109 -6q47 0 180 5.5t139 5.5q36 0 43 -15q7 -20 3.5 -69t-17.5 -64q-5 -5 -15 -8t-16 1q-6 9 -3 17q9 44 -9 69.5t-63 25.5q-157 0 -177 -5q-13 -4 -15.5 -8t-2.5 -15q0 -17 -0.5 -78.5t-0.5 -69.5v-10.5t2 -8.5t6 -8.5t12.5 -4t21.5 -2.5
q54 0 67.5 2.5t37.5 15.5q9 4 24 24t15 32q0 5 8.5 12t14.5 7q17 0 12 -34q-14 -100 -11 -152q0 -7 -7 -13.5t-17 -6.5q-4 0 -8.5 6t-5.5 14q-2 18 -16 35t-32 18q-72 4 -96 2q-17 -1 -22 -6t-6 -17q-2 -33 -2 -166q2 -30 7 -39.5t26 -18.5q36 -14 86 -14q73 0 116 14.5
t57.5 34.5t26.5 56q3 10 5.5 15.5t8 10t13.5 3.5q17 -2 10 -51q-3 -26 -25.5 -66t-54.5 -60q-26 -10 -64 -8l-92 7q-103 5 -162 4q-24 0 -53.5 -2.5t-54 -5t-27.5 -2.5q-18 -2 -20 15q-3 11 9.5 19.5t26.5 10.5q28 6 39 20.5t15 40.5q7 23 8.5 193t-0.5 189q-2 53 -77 71
q-16 2 -16 22z" />
    <glyph glyph-name="F" unicode="F" horiz-adv-x="545" 
d="M25 580q0 4 3 7.5t12.5 6.5t24.5 2q68 -7 107 -7q47 0 183.5 6t141.5 6q37 0 43 -16q7 -19 1.5 -64.5t-19.5 -67.5q-11 -18 -27 -11q-9 4 -7 21q8 44 -11 68.5t-65 24.5q-147 0 -175 -6q-8 -2 -11.5 -5.5t-4 -7t-0.5 -11.5q0 -16 -1 -79.5t-1 -71.5v-5.5v-5.5t0.5 -5
t1 -5l2 -4t3.5 -4t5 -3t7 -2.5t9.5 -1t12.5 -0.5q54 0 80 2q35 4 49 17.5t20 50.5q1 5 8.5 11.5t13.5 5.5q8 0 11.5 -11t1.5 -22q-11 -91 -11 -144q0 -8 -6.5 -14.5t-14.5 -7.5q-4 0 -9.5 6.5t-6.5 14.5q-6 46 -52 52q-70 4 -97 2q-16 -1 -21 -6t-7 -19q-2 -31 -1.5 -59.5
t2 -63.5t1.5 -38q3 -31 9.5 -44.5t30.5 -21.5q56 -20 56 -36q0 -8 -8.5 -13.5t-20.5 -4.5q-48 7 -110 9q-24 1 -52.5 -0.5t-54.5 -4.5t-27 -3q-18 -2 -20 15q-3 11 10 19t28 10q12 2 21 6t13.5 7.5t8 11.5t4.5 12t2.5 15t2.5 15q7 22 7 172t-2 208t-78 71q-16 4 -16 21z" />
    <glyph glyph-name="G" unicode="G" horiz-adv-x="624" 
d="M295 -14q-69 0 -122 26t-80.5 66.5t-41 82t-13.5 81.5q0 112 50.5 196.5t126 125t160.5 40.5q163 0 163 -96q0 -43 -54 -94q-13 -11 -23 -7q-11 6 -5 19q20 43 -9 87.5t-88 44.5t-104 -22t-70 -60t-37 -82.5t-12 -94.5q0 -134 53.5 -198.5t121.5 -64.5q77 0 115.5 44.5
t38.5 102.5q0 46 -28 59.5t-103 13.5q-46 0 -46 23q0 17 42 14q37 -2 130.5 -1.5t128.5 3.5q19 -2 21 -12q6 -17 -26 -27q-14 -4 -20 -10.5t-4 -20.5q0 -3 1.5 -14t1.5 -18q0 -93 -78 -150t-190 -57z" />
    <glyph glyph-name="H" unicode="H" horiz-adv-x="753" 
d="M547 492q-2 52 -79 69q-2 1 -3 1q-14 4 -14 17q0 17 38 15q161 -7 210 0q30 5 30 -18q-1 -14 -25 -16q-30 -4 -42 -21t-16 -51q-3 -22 -5 -174t4 -208q8 -51 34 -65q6 -3 19 -6t20.5 -7.5t7.5 -12.5q1 -9 -9.5 -13.5t-27.5 -2.5q-49 6 -224 -2q-17 -2 -20 13
q-3 12 9 18.5t28 9.5q9 1 17 4t13 5t9.5 7.5t6.5 8t4.5 10t3.5 9.5t3 12t2 11q5 22 7 167q0 31 -26 32q-112 3 -281 0q-17 0 -22 -5t-5 -17q-3 -133 4 -181q4 -26 12 -37t36 -23q4 -2 13 -5t13 -4.5t8 -6t5 -11.5q0 -20 -37 -15q-51 6 -223 -2q-20 -2 -21 12q-3 12 10 19
t28 9q47 7 52 63q3 27 7 198.5t2 193.5q-1 20 -9.5 34t-25.5 22t-22.5 10t-20.5 5q-16 4 -16 18q0 19 39 13q22 -2 95.5 -2t114.5 2q28 3 28 -17q0 -7 -6.5 -11.5t-15.5 -4.5q-12 -2 -21 -5l-15 -5t-10.5 -7.5t-7 -7.5t-5 -10t-3 -10t-2 -13t-1.5 -14q-4 -28 -4 -125
q0 -19 29 -21h278q12 0 19 9t7 17q0 111 -1 123z" />
    <glyph glyph-name="I" unicode="I" horiz-adv-x="332" 
d="M123 490q-4 53 -77 70q-16 2 -16 21t40 15q22 -2 95 -2t113 2q29 1 29 -19q-1 -14 -22 -19q-32 -6 -45 -22t-18 -50q-3 -41 -4.5 -171t4.5 -206q6 -49 43 -64q2 -1 6.5 -2.5t7 -2t6.5 -2t6 -3t5 -3.5t4.5 -4.5t3 -5.5t1.5 -6q1 -9 -9 -14t-27 -3q-49 6 -224 -2
q-20 -2 -21 14q-3 12 10.5 20.5t27.5 9.5q42 5 54 68q5 25 7 188.5t0 192.5z" />
    <glyph glyph-name="J" unicode="J" horiz-adv-x="325" 
d="M74 596q23 -2 94 -2t111 2q29 1 29 -19q-1 -14 -23 -19q-31 -6 -43 -21.5t-17 -49.5q-1 -7 -2.5 -62t-2 -124t0.5 -130q0 -84 -16 -152t-40.5 -108t-55 -67.5t-57 -37.5t-49.5 -10q-45 0 -66 19t-21 49q0 49 52 87q26 18 35 10q8 -6 0 -27q-11 -34 -4.5 -56.5t27.5 -22.5
q92 0 98 192q8 325 -2 444q0 9 -2 16.5t-6 14t-7.5 11t-9.5 8.5t-10 6.5t-11 5.5t-9.5 3.5t-8.5 2.5l-7 2q-15 3 -15 20q0 19 38 15z" />
    <glyph glyph-name="K" unicode="K" horiz-adv-x="685" 
d="M70 597q23 -3 96.5 -3t113.5 3q30 1 30 -18q-4 -18 -24 -18q-43 -8 -55 -21.5t-17 -49.5q0 -2 -1 -24t-2.5 -60t-1.5 -77q0 -6 4 -8.5t11 3.5q67 77 149 149.5t151 111.5q33 18 58 18q32 0 32 -58q0 -44 -26 -84q-10 -17 -22 -15q-3 1 -5.5 2.5t-3 3.5t-0.5 4v5v4
q0 15 -9 25.5t-19 10.5q-31 0 -67 -20q-73 -41 -119 -95q-14 -16 -4 -35q22 -41 73 -109.5t77 -94.5q30 -29 47 -44t44.5 -30.5t52.5 -15.5q7 0 16.5 -0.5t11.5 -0.5q12 -2 12 -13q0 -18 -17 -25q-15 -6 -56.5 -16t-59.5 -10q-39 3 -59 21q-45 37 -115 133t-97 152
q-4 6 -11 6t-12 -5q-8 -6 -25 -25q-13 -19 -13 -53q0 -91 3 -120q3 -22 11.5 -33.5t30.5 -22.5q5 -2 13.5 -5t12.5 -5t8 -6.5t5 -10.5q1 -9 -9 -15t-26 -4q-46 5 -211 -2q-19 -2 -21 16q-1 22 39 28q36 7 46 59q8 23 9.5 199t-1.5 195q-2 58 -71 70q-16 4 -16 18q0 19 39 15
z" />
    <glyph glyph-name="L" unicode="L" horiz-adv-x="594" 
d="M123 492q0 14 -4.5 24.5t-8 16t-14.5 11.5t-14.5 7.5t-19 5.5t-17.5 5q-16 5 -16 20q0 16 38 14q173 -4 223 0q29 2 29 -18q-1 -7 -7.5 -13t-16.5 -6q-24 -4 -36.5 -8.5t-19.5 -16.5t-8 -17t-4 -29q-8 -225 -3 -379q1 -17 2.5 -24.5t8.5 -15.5t21 -13q32 -13 84 -13
q45 0 77.5 7.5t50.5 16.5t31 28t18 32t12 38q6 22 26 20q19 -2 13 -44q-2 -33 -20 -76t-51 -61q-20 -10 -58 -8q-94 7 -96 7q-109 5 -164 4q-24 0 -53.5 -2.5t-55 -5t-27.5 -2.5q-19 -2 -20 13q-3 12 10 18.5t28 8.5q42 7 54 67q6 28 8 198.5t0 189.5z" />
    <glyph glyph-name="M" unicode="M" horiz-adv-x="950" 
d="M71 582q0 16 24 16q111 1 145 -5q30 -5 46.5 -20.5t34.5 -46.5l59 -148q79 -206 92 -235q4 -6 12.5 -7.5t12.5 7.5q18 49 47.5 134t50.5 144.5t26 71.5q21 53 48 77t74 27q29 1 91 1q20 0 20 -17q0 -6 -6.5 -11.5t-12.5 -7.5q-49 -12 -59.5 -28t-4.5 -52q37 -217 82 -384
q13 -47 70 -61q24 -5 21 -24q-6 -18 -19 -15q-91 12 -233 2q-33 -4 -38 10q-3 17 19 24q68 21 60 77q-26 176 -61 324q-5 13 -13 11.5t-13 -11.5q-16 -36 -61.5 -165.5t-65.5 -207.5q-7 -22 -24 -34q-41 -29 -72 -29q-17 0 -24 20q-8 18 -14 46q-17 69 -57 176t-80 189
q-3 7 -5 9.5t-5.5 6t-7 -0.5t-7.5 -15q-50 -198 -60 -257q-2 -30 -3 -57.5t14 -49.5t47 -29q21 -3 21 -21q-7 -20 -32 -17q-75 8 -148 2q-43 -3 -47 12q-3 13 22 28q30 24 51 73q18 42 55.5 171.5t44.5 182.5q5 39 -19 64t-76 31q-12 2 -17 5.5t-5 13.5z" />
    <glyph glyph-name="N" unicode="N" horiz-adv-x="724" 
d="M81 596q99 0 169 -37q100 -52 178.5 -149t151.5 -248q2 -5 5 -8t6 -3.5t5.5 0.5t4 3.5t1.5 5.5q1 38 1 155t-1 134q-6 92 -67 110q-43 8 -39 22q4 17 29 17q100 -7 146 -4q30 4 30 -15q0 -2 -17 -23q-21 -27 -27 -87q-18 -192 -13 -362q0 -6 1 -33.5t1 -41.5
q-1 -22 -21 -29q-37 -9 -83 -7q-16 0 -20 17l-20 52q-121 278 -281 397q-7 5 -15 10t-17.5 8.5t-16 -1t-6.5 -18.5q0 -261 6 -315q4 -53 22.5 -76.5t52.5 -26.5q13 -3 24 -11t8 -19q-3 -16 -18 -15q-89 8 -217 0q-11 -1 -16.5 6.5t-4.5 12.5q1 6 7.5 11t17 9.5t12.5 5.5
q55 23 59 91q4 58 6 182.5t0 158.5q-8 86 -83 86q-7 0 -12.5 5t-5.5 13q0 17 57 17z" />
    <glyph glyph-name="O" unicode="O" horiz-adv-x="678" 
d="M370 614q124 0 197 -73t73 -201q0 -157 -95 -258t-230 -101q-130 0 -203.5 83t-73.5 213q0 49 21 105.5t60 109.5t105 87.5t146 34.5zM536 319q0 113 -50 178t-148 64q-80 0 -134.5 -67.5t-54.5 -208.5q0 -122 55.5 -186t142.5 -64q81 0 135 68.5t54 215.5z" />
    <glyph glyph-name="P" unicode="P" horiz-adv-x="526" 
d="M29 582q0 4 3 7.5t12 6t24 0.5q24 -4 48 -4.5t65 0.5t62 1q2 0 48 2.5t95 2.5q62 0 92 -29t30 -94q0 -50 -18.5 -89.5t-44.5 -61t-58 -35.5t-54.5 -18.5t-37.5 -4.5q-32 0 -32 19q0 6 4.5 12t14.5 7q55 4 88 40t33 106q0 52 -21 75t-73 27q-10 1 -70 1q-16 -1 -20 -7.5
t-5 -22.5q-15 -334 0 -422q5 -45 33 -56q6 -3 19.5 -6.5t20 -7.5t7.5 -12q1 -9 -9.5 -15.5t-27.5 -4.5q-100 12 -203 -2q-29 -2 -30 12q-3 12 9 19t27 9q25 3 34.5 20t14.5 46q5 25 8 192t1 197q-2 57 -73 70q-16 5 -16 20z" />
    <glyph glyph-name="Q" unicode="Q" horiz-adv-x="702" 
d="M370 614q124 0 197 -73t73 -201q0 -161 -106 -264q-12 -12 1 -38q22 -39 54 -66.5t66 -27.5q33 0 69 13q15 6 18 -6q3 -6 -0.5 -14.5t-12.5 -14.5q-77 -48 -144 -48q-33 0 -70 37t-61 84q-9 17 -26 10q-52 -24 -113 -24q-130 0 -203.5 83t-73.5 213q0 49 21 105.5
t60 109.5t105 87.5t146 34.5zM536 319q0 113 -50 178t-148 64q-81 0 -137.5 -67.5t-56.5 -208.5q0 -52 10 -85q8 -28 19 -10q60 73 135 73q60 0 97.5 -31.5t75.5 -91.5q2 -2 4 -3t4 0l4 2t3.5 4t2.5 4.5l3 4.5t2 4q32 69 32 163zM414 79q-31 54 -65.5 83t-92.5 29
q-16 0 -37.5 -10.5t-29.5 -26.5q-11 -18 2 -37q56 -83 156 -83q32 0 67 19q9 5 0 26z" />
    <glyph glyph-name="R" unicode="R" horiz-adv-x="672" 
d="M29 583q0 4 2.5 8t12 6.5t24.5 0.5q25 -4 78 -4.5t119 1.5t81 2q42 0 70.5 -3t58 -13t44.5 -32.5t15 -56.5q0 -26 -13.5 -48.5t-39 -40.5t-43 -27.5t-44.5 -21.5q-25 -10 -12 -49q25 -79 104.5 -160t132.5 -81q32 0 47 9q11 8 20 -1q9 -8 -7 -26q-19 -20 -58.5 -35
t-76.5 -15q-36 0 -94 49.5t-108 125t-63 140.5q-3 21 3.5 27.5t35.5 16.5q46 18 78 51.5t32 74.5q0 70 -90 75q-65 4 -90 0q-15 -1 -21 -7t-6 -21q-12 -354 -1 -423q6 -47 43 -60q3 -1 11 -3.5t12.5 -4.5t10 -5t8 -7.5t3.5 -9.5q1 -9 -9 -13.5t-27 -2.5q-53 6 -227 -2
q-21 -2 -21 13q-3 12 10.5 20.5t27.5 9.5q44 7 53 64q8 23 9.5 197.5t-1.5 193.5q-2 53 -78 71q-16 3 -16 17z" />
    <glyph glyph-name="S" unicode="S" horiz-adv-x="484" 
d="M270 609q138 0 138 -78q0 -42 -32 -72q-27 -30 -41 -18q-14 8 -1 30q5 6 5 26q0 35 -20.5 48.5t-60.5 13.5q-41 0 -72.5 -23.5t-31.5 -64.5q0 -44 41 -69q27 -14 84 -41.5t76 -38.5q83 -42 83 -119q0 -56 -21.5 -100t-56.5 -68.5t-73.5 -37t-77.5 -12.5q-160 0 -160 83
q0 54 60 99q25 18 38 11q15 -7 1 -27q-14 -23 -14 -54q0 -60 88 -60q69 0 102 30t33 73q0 24 -9.5 43t-19.5 27.5t-30 21.5q-14 9 -42.5 23.5t-60.5 29.5t-42 20q-42 23 -61 54t-19 80q0 60 58.5 115t138.5 55z" />
    <glyph glyph-name="T" unicode="T" horiz-adv-x="582" 
d="M247 528q0 16 -6.5 20.5t-19.5 4.5h-10h-17h-11q-61 -4 -89 -30.5t-41 -80.5q-2 -11 -9 -19t-17 -7q-19 4 -14 31q1 5 9.5 61.5t15.5 78.5q9 27 39 19q52 -18 234 -13q98 1 194 16q34 3 50 -27q18 -28 11 -81t-38 -86q-13 -10 -26 -2q-13 7 -5 23q12 21 12 42
q0 23 -5.5 37.5t-13.5 22.5t-26.5 12t-34 4.5t-46.5 0.5q-40 0 -40 -33q0 -12 -0.5 -88t-0.5 -130t1.5 -113t4.5 -77q3 -21 6.5 -32.5t15.5 -22t32 -14.5q46 -9 47 -29q1 -8 -9.5 -13.5t-27.5 -3.5q-52 6 -244 -2q-17 -2 -20 16q-3 11 10.5 19t28.5 11q12 2 21 6.5t14 7.5
t9 12t5 12t3 15.5t3 15.5q5 27 5 416z" />
    <glyph glyph-name="U" unicode="U" horiz-adv-x="769" 
d="M39 565q-16 0 -18 12q-1 7 6.5 14t17.5 7q144 -12 227 0q9 1 17 -3.5t8 -12.5q0 -12 -17 -17q-39 -13 -53.5 -33t-16.5 -55q-10 -201 -6 -282q5 -145 119 -145q91 0 154.5 71t69.5 176q5 81 5 195q-1 25 -19.5 45t-58.5 23q-7 1 -16 9t-6 15q7 16 40 12q20 -2 102.5 -2
t105.5 2q31 3 31 -13q0 -18 -18 -25q-34 -9 -46 -27.5t-12 -62.5q0 -7 -1.5 -162.5t0.5 -180.5q3 -44 25 -64.5t54 -18.5q16 1 16 -19q0 -13 -20 -18q-41 -9 -101 -9q-38 0 -58 18t-21 68q0 5 2 19t1 19q-2 9 -8 8t-11 -7q-24 -31 -43 -51t-50 -41.5t-71.5 -32.5t-90.5 -11
q-77 0 -128.5 47t-49.5 129q9 269 8 316q-2 45 -17.5 65t-51.5 23z" />
    <glyph glyph-name="V" unicode="V" horiz-adv-x="690" 
d="M18 575q0 14 12.5 20t35.5 1q84 -11 191 0q26 4 35 -1t9 -18q0 -15 -20 -19q-32 -8 -40 -21q-14 -23 -4 -61q67 -212 116 -319q1 -1 3 -5.5t3 -7t3.5 -6t4.5 -5t5 -1.5q13 0 19 21q76 164 110 277q19 62 12.5 93t-39.5 42q-20 8 -20 22q0 5 10 9.5t23 4.5q106 -8 170 -3
q11 1 16.5 -5.5t4.5 -15.5q-9 -15 -24 -26q-52 -41 -85 -110q-122 -257 -139 -315q-12 -34 -13 -75q0 -21 -15 -30q-45 -27 -80 -28q-19 0 -27 15l-20 58q-110 340 -149 410q-35 72 -76 75q-13 1 -22.5 8.5t-9.5 15.5z" />
    <glyph glyph-name="W" unicode="W" horiz-adv-x="994" 
d="M319 573q0 16 12.5 21.5t36.5 -0.5q82 -11 186 0q26 4 35 -0.5t9 -18.5q0 -16 -19 -20q-32 -8 -39 -20q-15 -18 -1 -59q59 -201 112 -319q0 -1 3.5 -9t6 -11.5t7.5 -3.5q13 0 22 20q8 18 26.5 56.5t27 57t22 48.5t23.5 57t19 56q36 113 -30 133q-21 7 -21 20q0 7 9 12.5
t24 4.5q121 -7 172 -2q10 1 15.5 -7.5t3.5 -16.5q0 -12 -19 -26q-58 -45 -90 -107q-115 -237 -141 -312q-3 -9 -9 -26t-9 -28t-3 -20q0 -5 -5 -18t-13 -18q-34 -21 -74 -23q-23 0 -30 19q-49 137 -80 239q-7 24 -21 0q-56 -104 -85 -185q-1 -1 -6 -22t-12 -26
q-30 -23 -80 -25q-18 0 -25 15q-8 14 -19 59q-2 5 -21 66t-38 120.5t-42.5 125.5t-38.5 96q-35 67 -71 79q-31 9 -31 20q0 13 13 19t35 0q69 -10 155 0q46 7 46 -18q0 -15 -23 -20q-21 -5 -23 -32.5t7 -47.5q11 -30 29 -82.5t29 -83t28 -73.5t34 -80l4 -9q5 -8 8.5 -11.5
t7.5 -3.5t7.5 2.5t5 4.5t4.5 8l3 5q32 51 80 175q6 14 0 36q-14 62 -37 112q-21 38 -38.5 55t-42.5 23q-31 6 -31 19z" />
    <glyph glyph-name="X" unicode="X" horiz-adv-x="724" 
d="M81 576q0 8 5 15t12 6q93 -11 192 -3q16 3 21.5 -9t2.5 -31q-2 -10 -1 -25.5t5 -21.5q3 -6 30.5 -52t33.5 -55q17 -25 30 -13q20 21 40 56t28 60q12 37 3 53q-9 17 -7 26q1 5 11.5 9.5t17.5 2.5q47 -5 124 0q13 1 20 -5t7 -12q1 -9 -7 -15t-15 -7q-22 -7 -49.5 -26.5
t-39.5 -32.5q-12 -12 -55 -69.5t-56 -77.5q-2 -3 -3 -6t-0.5 -6.5t1.5 -5t3 -5.5t3 -5q17 -33 40 -69t51.5 -75.5t30.5 -42.5q20 -31 56.5 -60t68.5 -34q17 -4 23.5 -9t6.5 -15q0 -20 -35 -18q-92 9 -179 3q-48 -4 -50 12q-1 7 5 26q10 21 -1 49q-5 13 -34 68t-51 91
q-18 27 -42 0q-81 -103 -107 -166q-9 -27 5 -43q11 -10 13 -13.5t3 -11.5q0 -8 -9 -13t-25 -2q-13 4 -65.5 4t-65.5 -2q-53 -5 -53 13q0 11 9 18t21 9q8 2 17 6.5t20.5 12.5t17 12.5t18.5 15t14 11.5q37 33 87.5 89.5t76.5 91.5q20 28 9 48q-10 23 -54 89.5t-60 83.5
q-31 33 -46 42.5t-45 11.5q-13 1 -20.5 8t-7.5 14z" />
    <glyph glyph-name="Y" unicode="Y" 
d="M18 579q-1 7 7.5 12.5t19.5 4.5q59 -6 161 -2q18 3 24 -6q7 -14 -9 -29q-14 -18 -6 -42q-4 3 17.5 -33t45.5 -74t26 -40q10 -10 26 4q19 17 45 63.5t30 70.5q6 35 -24 54q-16 11 -10 26q2 4 10 6t13 0q55 -7 131 -1q30 6 30 -13q0 -8 -5.5 -12.5t-24.5 -15.5q-2 -1 -3 -2
q-13 -9 -67 -71q-44 -59 -98 -135q-25 -34 -26 -72q-2 -19 -2 -154q1 -35 16.5 -53t51.5 -30q21 -5 21 -19q0 -10 -11.5 -15.5t-20.5 -4.5q-28 5 -101 6.5t-116 -4.5q-12 -2 -24.5 1t-13.5 10q-2 21 23 26q36 6 54.5 25.5t20.5 48.5q5 87 2 173q-2 23 -6 36q-11 29 -52 90.5
t-69 98.5q-36 44 -59 51q-25 8 -27 21z" />
    <glyph glyph-name="Z" unicode="Z" horiz-adv-x="572" 
d="M528 194q17 0 13 -43q-3 -33 -23 -80.5t-53 -66.5q-22 -9 -57 -8q-13 1 -51.5 3.5t-52 3t-45 2t-49.5 1.5t-46 -0.5t-54 -2.5t-54 -5q-23 -2 -34.5 10t1.5 31q190 244 337 491q9 16 7 20t-19 4q-78 2 -123 -1q-21 -1 -36.5 -7.5t-27.5 -21.5t-16.5 -23t-15.5 -30
q-1 -3 -4 -10t-4.5 -10t-4.5 -8t-5 -7t-5.5 -3.5t-7.5 -1.5q-19 1 -17 29q3 36 20 126q5 25 22 25q1 0 22 -7q132 -16 340 -6q22 1 26 -13.5t-3 -21.5q-186 -253 -315 -477q-5 -7 -1.5 -16.5t11.5 -11.5q26 -7 108 -7q55 0 91.5 8.5t56 27.5t27.5 36t16 46q6 27 26 25z" />
    <glyph glyph-name="bracketleft" unicode="[" horiz-adv-x="293" 
d="M215 633q25 0 25 -15q0 -8 -7 -13.5t-15 -6.5q-51 0 -67 -2q-8 -1 -11.5 -3.5t-4 -6.5t-1.5 -15q-1 -38 -2 -266t0 -286q0 -11 2.5 -15t11.5 -4q2 0 37.5 -1.5t42.5 -1.5q16 0 16 -17q0 -5 -6 -10.5t-12 -5.5q-5 0 -74 1t-78 1q-12 0 -16.5 4.5t-4.5 16.5q4 276 3 621
q0 16 4 19t19 3q5 0 69.5 1.5t68.5 1.5z" />
    <glyph glyph-name="backslash" unicode="\" horiz-adv-x="449" 
d="M44 610q24 4 50 -40q25 -41 140 -237t133 -224q4 -6 16.5 -22t20 -29t9.5 -25q3 -14 -2 -29.5t-14 -24.5q-11 -12 -23 5q-5 7 -42 72q-41 78 -140.5 259.5t-130.5 231.5q-12 19 -18 29t-9 18t-0.5 11.5t10.5 4.5z" />
    <glyph glyph-name="bracketright" unicode="]" horiz-adv-x="293" 
d="M77 633q4 0 69 -1.5t70 -1.5q15 0 19 -3t4 -19q-1 -345 3 -621q0 -12 -4.5 -16.5t-16.5 -4.5q-9 0 -78 -1t-74 -1q-6 0 -12 5.5t-6 10.5q0 17 16 17q7 0 42 1.5t37 1.5q10 0 12.5 4t2.5 15q1 58 0 286t-2 266q-1 11 -1.5 15t-4 6.5t-11.5 3.5q-16 2 -67 2q-8 1 -15 6.5
t-7 13.5q0 15 24 15z" />
    <glyph glyph-name="asciicircum" unicode="^" horiz-adv-x="402" 
d="M194 537q-21 -26 -106 -178q-12 -20 -37 -20q-14 0 -8 16q3 7 10 19q11 15 57.5 94t67.5 117q8 15 27 20q13 4 23 -17q2 -3 3 -5q34 -62 90 -146q3 -5 12.5 -18t16 -24t8.5 -20q2 -13 -15 -36q-10 -14 -21 1q-18 27 -31 55q-25 54 -79 142q-8 13 -18 0z" />
    <glyph glyph-name="underscore" unicode="_" horiz-adv-x="441" 
d="M41 -71q-15 0 -21.5 7t-1.5 17q7 17 40 17q165 1 316 14q19 4 31.5 3.5t12.5 -11.5q0 -8 -8 -19.5t-19 -17.5q-12 -7 -37 -7q-144 -3 -313 -3z" />
    <glyph glyph-name="grave" unicode="`" horiz-adv-x="477" 
d="M319 513q5 -5 4 -12t-5 -10q-8 -9 -39 12q-40 22 -122 62q-6 2 -4.5 11t11.5 12q28 10 36 11q21 4 32 2t22 -15q16 -22 65 -73z" />
    <glyph glyph-name="a" unicode="a" horiz-adv-x="498" 
d="M117 454q10 0 16 -16q5 -15 34 -15q21 0 64 6t65 6q43 0 71 -20t27 -50q-6 -208 -6 -224q0 -57 16 -57q8 0 19 11q9 8 26 27q15 12 22 9q11 -2 5 -14q-14 -38 -60 -82.5t-78 -44.5q-22 0 -29.5 14t-7.5 43q0 3 -2.5 8t-5.5 5q-8 0 -14 -8q-25 -29 -60 -47.5t-69 -18.5
q-119 0 -119 112q0 40 30 71.5t70 42.5q83 23 138 46q37 16 37 63q1 26 -10 37t-42 10q-22 -1 -71 -10.5t-75 -9.5q-35 0 -30 37q8 39 22 57q7 12 17 12zM125 109q0 -65 64 -65q28 0 62.5 32.5t42.5 67.5q8 39 7 71q0 16 -17 9l-37.5 -15t-36.5 -13.5t-32 -11.5
q-53 -22 -53 -75z" />
    <glyph glyph-name="b" unicode="b" horiz-adv-x="510" 
d="M71 -80q-13 3 -11 16q12 111 13 134q7 245 7 507q0 41 -8 50q-19 17 -64 9q-21 -3 -21 13q0 14 17 18q40 8 122 22q14 2 36 2q12 0 11 -28q-3 -48 -3.5 -164t-1.5 -152q0 -13 4.5 -17t15.5 8q75 106 143 106q150 0 150 -180q0 -68 -29.5 -130.5t-87 -104.5t-130.5 -42
q-48 0 -80 17q-22 11 -25 9q-3 -1 -6 -7q-4 -7 -10.5 -21.5t-14.5 -31.5t-10 -22q-7 -12 -17 -11zM306 370q-68 0 -116 -100q-19 -42 -23.5 -76.5t-2.5 -90.5q1 -19 3 -25t11 -15q26 -28 69 -28q67 0 103 59.5t36 164.5q0 48 -20 79.5t-60 31.5z" />
    <glyph glyph-name="c" unicode="c" horiz-adv-x="429" 
d="M222 -8q-88 0 -140.5 55t-48.5 151q2 57 28 106t62.5 78.5t73.5 46t67 16.5q103 0 113 -52q4 -25 -17.5 -52.5t-48.5 -38.5q-12 -7 -21 4q-4 7 5 20q9 11 9 35q0 33 -58 33q-50 0 -85.5 -50t-35.5 -139q0 -68 28.5 -111t87.5 -43q90 0 128 42q8 10 15 10q13 -2 10 -17
q-2 -14 -43 -58q-24 -26 -53 -31q-26 -5 -76 -5z" />
    <glyph glyph-name="d" unicode="d" horiz-adv-x="570" 
d="M439 692q11 2 22.5 -2t11.5 -13q0 -5 -1.5 -19.5t-1.5 -18.5q-6 -120 -10 -308.5t-1 -216.5q2 -31 13.5 -45t35.5 -10q20 5 23 5q7 0 11 -5t1.5 -12.5t-11.5 -12.5q-15 -9 -64.5 -28t-69.5 -19q-15 0 -21.5 27t-6.5 55q0 32 -8 33q-5 0 -14 -10l-14 -16
q-13 -16 -15.5 -18.5t-15.5 -16.5t-19 -18t-18.5 -13.5t-21.5 -12.5t-22 -6.5t-25 -3.5q-78 0 -123 57.5t-45 126.5q0 105 70.5 186t166.5 81q19 0 63 -7q30 -9 36.5 -6.5t9.5 40.5q4 48 1 109q-2 43 -10 54.5t-39 9.5h-15t-15.5 0.5t-13 4t-3.5 8.5q4 18 23 20q79 8 136 21
zM226 58q46 0 87.5 48t50.5 104q11 54 4 111q0 34 -32.5 52t-74.5 18q-68 0 -99.5 -58t-31.5 -142q0 -51 23 -92t73 -41z" />
    <glyph glyph-name="e" unicode="e" horiz-adv-x="451" 
d="M245 55q79 0 110 25q14 10 28 24q11 11 19 5q4 -1 6.5 -6t0.5 -8q-7 -15 -36.5 -49.5t-41.5 -38.5q-41 -15 -105 -15q-90 0 -141 49.5t-51 143.5q0 103 71 176t150 73q57 0 92 -29.5t44 -67t1 -74.5q-2 -10 -5 -17q-2 -7 -18 -7q-204 -3 -211 -3q-18 0 -21.5 -1.5
t-6.5 -9.5q-3 -15 -3 -34q2 -64 32 -100t86 -36zM310 299q-3 89 -71 89q-72 0 -98 -90q-5 -10 -3 -18t13 -7l138 6q13 0 17 4t4 16z" />
    <glyph glyph-name="f" unicode="f" horiz-adv-x="365" 
d="M204 96q2 -29 22.5 -44t76.5 -23q3 0 6.5 -4.5t3.5 -8.5q0 -6 -4 -12t-10 -5q-163 9 -260 -1q-8 -1 -13.5 4t-5.5 12q0 14 18 17q30 5 50.5 23.5t20.5 43.5q0 17 1.5 114t0.5 144q0 17 -3 21.5t-12 4.5q-11 0 -27.5 -0.5t-17.5 -0.5q-14 0 -5 21q10 20 18 21q11 5 33 5
q10 0 13 2.5t4 11.5q8 65 29.5 116t50 79.5t57 43t54.5 14.5q43 0 60 -19t17 -59q0 -32 -41 -75q-5 -5 -14 -7.5t-12 -0.5q-15 8 -9 18q15 31 7 55.5t-34 24.5q-79 0 -79 -193q0 -11 15 -11q18 0 56 3.5t67 2.5q6 0 8 -5.5t0 -10.5q-4 -21 -24 -38q-8 -8 -22 -8
q-8 0 -38.5 4.5t-42.5 4.5q-11 0 -15 -5t-4 -18q0 -200 4 -262z" />
    <glyph glyph-name="g" unicode="g" horiz-adv-x="469" 
d="M435 476q12 9 23 3q13 -10 -6 -34q-13 -19 -70 -59q-5 -3 -7.5 -5t-3 -4.5t0 -3.5t3.5 -5.5t5 -6.5q0 -1 2 -10t3.5 -17.5t1.5 -13.5q0 -51 -50 -89t-112 -44q-19 -2 -33.5 -20.5t-14.5 -33.5q0 -13 7.5 -22t27.5 -19q24 -13 79.5 -37t83.5 -40q40 -23 60 -47t20 -60
q0 -59 -45 -103t-103.5 -62.5t-115.5 -18.5q-104 0 -156 27t-52 73q0 12 1.5 22.5t6 19.5t8 15.5t11 13.5t11.5 11t14 10l12.5 7.5t13 7t11.5 5.5q31 14 41 3q9 -11 -8 -24q-30 -23 -29 -67q2 -77 116 -77q79 0 126 27.5t47 67.5q0 41 -47 72q-35 22 -97 47.5t-74 30.5
q-60 29 -60 70q0 32 39 60q26 19 26 32q0 7 -12 7q-44 2 -80.5 29t-36.5 77t37 87t77.5 50.5t71.5 13.5q52 0 74 -7q42 -10 55 -10q41 0 97 51zM123 297q0 -30 18.5 -50.5t48.5 -20.5q97 0 97 94q0 79 -88 79q-30 0 -53 -24.5t-23 -77.5z" />
    <glyph glyph-name="h" unicode="h" horiz-adv-x="634" 
d="M43 668q17 2 65.5 9.5t63.5 11.5q24 6 30 -1.5t6 -34.5q-1 -83 -5 -164.5t-4 -161.5q0 -20 11 -10l11 13q23 37 67 76.5t92 39.5q62 0 103 -32.5t40 -90.5q0 -10 -1.5 -94t-0.5 -102q2 -57 11 -76t42 -23q40 -4 40 -18q0 -8 -4 -11t-16 -3q-70 7 -93 7q-74 2 -112 -5
q-5 -1 -9.5 2.5t-4.5 9.5q0 14 18 21q31 8 31 46q4 53 -1 227q-1 71 -72 71q-55 0 -100.5 -62t-50.5 -123q-3 -63 -1 -97q1 -30 24.5 -42t61.5 -17q19 -4 19 -20q0 -8 -6 -13t-11 -4q-113 12 -246 -1q-22 0 -22 18q0 4 5.5 9.5t11.5 6.5q44 8 54.5 19t13.5 56q7 78 7 467
q0 48 -6 57q-10 12 -47 7q-28 -4 -30 11q-2 8 3 14.5t12 6.5z" />
    <glyph glyph-name="i" unicode="i" horiz-adv-x="308" 
d="M33 403q17 5 70 17.5t59 13.5q45 10 45 -17q0 -6 -3.5 -125.5t-2.5 -161.5q2 -34 3 -44.5t5.5 -20.5t14.5 -14q26 -14 50 -17q6 -1 10.5 -6.5t3.5 -11.5q-4 -19 -34 -16q-127 9 -214 -2q-10 -1 -15.5 3.5t-5.5 11.5q0 13 26 18q22 5 34.5 10.5t17.5 14t5.5 12t1.5 16.5
q12 121 1 275q-1 23 -28 21q-2 0 -6.5 -1t-12.5 -3t-14 -3q-8 -2 -14 1t-7 9t2 12.5t8 7.5zM181 665q49 0 51 -40q2 -33 -26 -57q-29 -25 -50 -25q-15 0 -23.5 19t-8.5 44q1 21 18 40t39 19z" />
    <glyph glyph-name="j" unicode="j" horiz-adv-x="291" 
d="M31 386q-1 5 2.5 12.5t7.5 8.5q8 2 59 13.5t72 16.5q44 10 44 -17q-2 -49 -3.5 -178t-2.5 -158q-3 -93 -25.5 -171t-73.5 -133t-123 -55q-27 0 -47 16.5t-19 44.5q1 50 57 80q14 8 23 4t2 -18q-8 -22 -8 -41q0 -18 9 -22.5t30 -4.5q22 0 38.5 23t24.5 53t12.5 71t5.5 65
t1 47q-3 215 -3 318q0 24 -27 22q-3 0 -35 -8q-8 -2 -13.5 1.5t-7.5 9.5zM193 665q48 0 51 -40q2 -33 -26 -57q-29 -25 -50 -25q-15 0 -23.5 19t-8.5 44q1 21 18 40t39 19z" />
    <glyph glyph-name="k" unicode="k" horiz-adv-x="624" 
d="M249 -4q-117 11 -206 1q-24 -1 -24 18q0 16 28 20q31 4 40 14t14 49q8 63 8 485q0 17 -2 27.5t-11.5 18.5t-26.5 5q-9 -4 -22.5 -3.5t-16.5 13.5q-1 4 3.5 10.5t9.5 7.5q87 25 127 32q22 5 32.5 0.5t10.5 -26.5q-9 -188 -9 -404q0 -7 2.5 -9.5t6.5 0t7.5 5t7.5 6.5
q88 95 130 127q63 49 123 49q25 0 41.5 -9.5t17.5 -26.5q1 -29 -22 -63.5t-49 -44.5q-12 -6 -19 3t-1 20q12 24 0 38q-13 22 -44 9q-45 -18 -73 -53q-12 -17 -4 -36q39 -98 143 -191q31 -31 70 -30q15 0 43 10q14 7 21 -12q2 -10 -9 -20q-13 -10 -57 -27t-63 -17
q-44 0 -80 32q-35 31 -78.5 93t-56.5 99q-9 19 -27 8q-12 -7 -18 -13t-7.5 -10t-2.5 -12q-2 -15 -2 -90q0 -37 9.5 -49t38.5 -15q25 -2 25 -21t-28 -18z" />
    <glyph glyph-name="l" unicode="l" horiz-adv-x="296" 
d="M249 -4q-117 11 -206 1q-24 -1 -24 18q0 17 28 20q32 4 42 14.5t12 48.5q6 112 7.5 279.5t-1.5 205.5q-1 16 -4 26t-12.5 18t-26.5 7q-2 0 -11 -2t-14.5 -2t-10.5 3.5t-5 12.5q-2 17 12 19q104 12 134 29q22 12 33.5 4.5t9.5 -30.5q-15 -202 -10 -569q1 -36 10.5 -48.5
t39.5 -15.5q25 -2 25 -21t-28 -18z" />
    <glyph glyph-name="m" unicode="m" horiz-adv-x="854" 
d="M610 10q0 11 15 14q37 7 38 46q7 100 3 217q-4 72 -57 72q-28 0 -66.5 -40t-54.5 -92q-9 -32 -9 -142q0 -6 1 -11.5t2.5 -10t5 -8.5t5.5 -6.5t6.5 -5.5t7 -4t8 -3t7 -3t7 -2.5t6.5 -1.5q24 -7 24 -16q0 -16 -24 -16q-12 0 -42.5 3.5t-52.5 3.5q-5 0 -37.5 -3t-47.5 -3
q-16 0 -16 14q-1 6 6 12t18 11q18 8 23 57q7 63 0 198q-2 26 -15 47t-36 21q-30 0 -64 -35t-59 -99q-12 -33 -12 -132q0 -34 12.5 -46t48.5 -17q10 -1 16.5 -6.5t4.5 -11.5q-2 -16 -24 -15q-74 7 -103 7q-14 0 -61 -3t-52 -3q-6 0 -14 4.5t-9 10.5q0 15 31 19q52 5 57 61
q5 190 2 263q-1 31 -17 35t-45 -4q-9 -1 -16 4t-7 12q0 4 8 10.5t18 7.5q91 17 133 17q8 0 11.5 -4.5t5.5 -20.5t1 -48q0 -14 -1 -26l-1.5 -18t-0.5 -9q0 -7 3.5 -9t8 -0.5t7.5 6.5q81 135 158 135q44 0 71 -41t25 -87q0 -8 3 -12t8 -1.5t10 10.5q31 52 72 91.5t78 39.5
q58 0 87 -42.5t29 -105.5v-215q0 -40 51 -51q24 -5 24 -16q0 -6 -6.5 -11.5t-16.5 -5.5t-36.5 4t-50.5 4q-12 0 -46 -4t-45 -4q-22 0 -22 14z" />
    <glyph glyph-name="n" unicode="n" horiz-adv-x="602" 
d="M507 81q2 -40 51 -51q24 -5 24 -18q0 -6 -6.5 -11t-16.5 -5t-39.5 3t-54.5 3q-12 0 -45 -3t-44 -3q-22 0 -22 13t15 16q34 6 37 46q7 125 3 219q-2 75 -59 75q-34 0 -75 -34.5t-60 -86.5q-19 -56 -16 -158q1 -17 3 -26.5t9 -14.5t12 -6.5t18.5 -4t22.5 -4.5
q11 -2 16.5 -7.5t4.5 -12.5q-2 -15 -24 -14q-84 8 -97 8q-14 0 -65.5 -3.5t-56.5 -3.5q-6 0 -14.5 4.5t-8.5 10.5q0 10 9.5 16t21.5 6q25 1 40.5 15.5t17.5 39.5q8 99 4 249q-1 55 -63 40q-13 -4 -18 11q-3 17 16 21q23 5 71.5 14t68.5 13q10 2 16.5 -3t5.5 -12
q-6 -87 -5 -91q1 -12 8 -12.5t14 9.5q91 113 160 113q55 0 87 -38.5t31 -100.5q-1 -73 3 -221z" />
    <glyph glyph-name="o" unicode="o" horiz-adv-x="492" 
d="M222 -15q-101 0 -150 58t-49 160q0 86 67.5 163.5t178.5 77.5q94 0 144.5 -56t50.5 -134q0 -130 -72.5 -199.5t-169.5 -69.5zM253 395q-65 0 -99.5 -49.5t-34.5 -124.5q0 -95 33.5 -142t84.5 -47q127 0 127 206q0 69 -26.5 113t-84.5 44z" />
    <glyph glyph-name="p" unicode="p" horiz-adv-x="545" 
d="M210 4q-15 4 -21 2t-7 -13q-2 -18 -2 -30q0 -40 9 -126q1 -9 7.5 -31.5t7.5 -25.5q6 -24 -10 -34q-14 -6 -46 -11.5t-45 -5.5q-17 0 -21 12q-14 29 -5 97q10 91 11 145q7 224 1 343q-2 41 -8 49q-10 12 -56 9q-16 -1 -19 12q-1 6 3.5 13t14.5 9q21 4 70 10t69 11
q25 0 29 -13.5t-1 -37.5q-1 -8 -4 -30t-3 -27q0 -10 3.5 -13t9 0.5t11.5 12.5q32 46 75.5 81.5t86.5 35.5q64 0 98.5 -41.5t34.5 -145.5q0 -109 -71.5 -188.5t-158.5 -79.5q-21 0 -63 11zM339 375q-52 0 -111 -82q-49 -73 -49 -141q0 -15 0.5 -34.5t0.5 -23.5q0 -12 3 -16
t12 -8q4 -2 15 -8t16 -8t14 -5.5t18.5 -4.5t20.5 -1q132 0 132 207q0 71 -19 98t-53 27z" />
    <glyph glyph-name="q" unicode="q" horiz-adv-x="519" 
d="M357 -271q-16 0 -21 10q-9 20 -1 99q15 125 11 222q0 20 -4 20q0 8 -11 -3q-2 -3 -5 -6q-70 -84 -134 -84q-48 0 -82.5 18.5t-51 46.5t-23.5 52.5t-7 45.5q-6 123 74 206.5t183 83.5q37 0 74 -17q17 -4 17.5 -3.5t8.5 12.5q33 51 39 66q9 22 23 22q11 0 11 -20
q0 -5 -5 -27.5t-6 -28.5q-22 -214 -5 -616q0 -8 6 -26.5t7 -21.5q6 -24 -11 -34q-14 -6 -44 -11.5t-43 -5.5zM215 54q37 0 67 31t46 74q13 34 20 94.5t2 96.5q-3 21 -31.5 33t-56.5 11q-60 -2 -99.5 -60.5t-39.5 -157.5q0 -122 92 -122z" />
    <glyph glyph-name="r" unicode="r" horiz-adv-x="408" 
d="M20 14q-1 7 5.5 14t10.5 7q45 8 53.5 16.5t10.5 25.5q9 80 9 257q-2 64 -62 56q-12 -2 -17.5 2.5t-5.5 9.5q0 14 23 19l105 14q53 10 54 -28q0 -14 -4 -38t-4 -36q0 -8 3 -11t8.5 0t10.5 10q15 27 20.5 36t21.5 30.5t33.5 31.5t39.5 13q31 3 41 -12.5t10 -43.5
q0 -66 -32 -116q-4 -6 -11 -7.5t-11 2.5q-6 6 -2 20q13 49 -14 60q-55 20 -100 -81q-11 -24 -15 -72t-2 -80q2 -47 18.5 -58.5t71.5 -17.5q25 -4 25 -20q0 -8 -7.5 -14t-17.5 -5q-122 10 -246 -1q-5 -1 -13.5 4.5t-9.5 12.5z" />
    <glyph glyph-name="s" unicode="s" horiz-adv-x="357" 
d="M211 443q85 0 90 -52q0 -28 -40 -61q-11 -10 -22.5 -5.5t-7.5 18.5q5 24 -6 40t-35 16q-36 0 -53.5 -18.5t-16.5 -36.5q0 -19 9 -30t35 -24q4 -2 31 -12t36 -14q43 -16 67 -47.5t24 -68.5q0 -75 -51 -116.5t-124 -41.5q-61 -1 -91.5 18t-30.5 49q0 23 16.5 44.5
t39.5 33.5q19 9 27 1q6 -4 6 -12t-4 -11q-11 -13 -11 -39q0 -39 63 -39q35 0 64.5 17t29.5 52q0 16 -7.5 27.5t-17 18t-29.5 17.5q-16 9 -46 22t-39 18q-72 38 -72 104q0 45 29.5 76.5t65.5 43.5t71 12z" />
    <glyph glyph-name="t" unicode="t" horiz-adv-x="331" 
d="M162 570q15 0 17 -11t-1 -59t-2 -60q0 -11 7 -11q58 0 100 9q18 3 19 -7q5 -19 -7 -39q-12 -14 -25 -13q-55 5 -79 5q-4 0 -6.5 -0.5t-4.5 -1.5l-3 -1.5t-1.5 -3t-1 -3t-0.5 -4v-4.5q-4 -36 -4 -129t3 -113q5 -42 23 -50t37 6q21 11 41 29q13 8 23 -4q3 -2 2.5 -9.5
t-6.5 -13.5q-86 -95 -150 -95q-12 0 -26 11.5t-27 44t-13 80.5q0 26 2.5 110.5t2.5 138.5q0 14 -12 14q-6 1 -24.5 1.5t-23.5 0.5q-18 0 -3 24q8 14 19 14q22 0 31 1q15 1 22 12q36 61 55 118q6 13 16 13z" />
    <glyph glyph-name="u" unicode="u" 
d="M304 413q124 26 134 26q19 0 25 -5.5t6 -21.5q0 -35 -4.5 -139t-3.5 -156q1 -42 12 -56.5t39 -9.5q8 3 20 1t13 -12q2 -15 -15 -21q-96 -29 -128 -29q-13 0 -19.5 5t-8 10t-3.5 19q-2 22 4 54q1 7 -3.5 11t-10.5 3t-9 -5q-75 -100 -153 -100q-60 0 -92.5 36t-32.5 100
q0 33 3 103t1 126q-1 18 -15.5 28.5t-41.5 5.5q-8 -1 -19 1.5t-11 9.5q-1 7 3.5 12.5t11.5 6.5q11 1 73.5 12t72.5 11q6 0 8.5 -0.5t6 -2t5 -6t1.5 -12.5q1 -11 -3.5 -132.5t-4.5 -139.5q0 -88 77 -88q43 0 81 48t46 102q10 73 4 147q-2 24 -22 29t-39 -1q-15 -3 -22 8
q-2 4 2.5 12.5t11.5 9.5z" />
    <glyph glyph-name="v" unicode="v" horiz-adv-x="500" 
d="M207 -8q-8 0 -13 10t-9.5 30.5t-6.5 25.5q-57 186 -101 280q-4 7 -7 13t-5.5 10.5t-6 8.5t-5.5 6.5t-6.5 5t-6.5 4t-8 3.5t-8.5 3t-10.5 4t-12 4q-20 5 -18 19q2 16 25 14q90 -5 105 -5q14 0 45.5 2t43.5 2q23 0 24 -13q0 -11 -21 -19q-33 -13 -24 -65q4 -18 36 -109
t44 -118q3 -7 11 -7t11 7q71 154 87 246q6 34 -37 44q-28 7 -22 22q4 15 21 14q27 -6 85 -6q20 0 50 5q7 1 13.5 -3.5t6.5 -11.5q0 -12 -16 -25q-22 -18 -43 -55q-60 -108 -117 -269q-10 -26 -8 -39q1 -11 -19.5 -20.5t-42.5 -13.5t-34 -4z" />
    <glyph glyph-name="w" unicode="w" horiz-adv-x="737" 
d="M184 -6q-13 -1 -22 28q-55 243 -96 342q-8 18 -21 25.5t-39 12.5q-10 1 -17 6.5t-6 11.5q0 13 25 12q29 -2 82 -2t63 2q34 5 37 -8q5 -12 -9 -20q-16 -9 -13 -30q2 -14 30 -125.5t33 -128.5q4 -12 9 -12.5t12 8.5q5 7 17 32t23.5 50.5t21.5 47.5l10 23q24 61 23 93
q-1 45 -57 43q-18 0 -18 12q0 6 4 11.5t9 5.5q15 0 89.5 -3t87.5 2q23 1 26 -9q3 -6 -0.5 -12t-10.5 -8q-25 -6 -29.5 -32.5t5.5 -66.5q15 -80 47 -186q2 -8 8.5 -7.5t10.5 8.5q29 61 54 133t31 116q-2 5 0 8t-2 7t-3 5.5t-4 4.5t-5.5 3.5t-6 3t-6.5 2.5t-7 2l-6 2
q-13 2 -13 13q1 6 6.5 10t10.5 3q62 -7 131 0q24 1 24 -14q0 -5 -14 -19q-36 -36 -58 -77q-55 -98 -107 -246q-1 -4 -3 -18t-5.5 -26.5t-8.5 -16.5q-23 -19 -70 -22q-8 -1 -14 6t-9 18q-57 223 -59 229t-9.5 7t-11.5 -5q-23 -43 -80 -183q-2 -4 -5.5 -26t-8.5 -25
q-23 -17 -76 -21z" />
    <glyph glyph-name="x" unicode="x" horiz-adv-x="562" 
d="M32 416q0 17 33 15q87 -6 165 2q7 1 14.5 -2.5t7.5 -9.5q0 -7 -15 -23q-12 -11 6 -38q6 -8 25.5 -37t26.5 -38q8 -10 19 -1q17 15 38 37.5t27 35.5q17 38 -4 46q-20 9 -20 16q0 14 20 13q58 -6 120 -1q8 1 13.5 -2.5t5.5 -8.5q0 -10 -17 -21q-14 -5 -33 -24
q-73 -62 -129 -123q-9 -11 -3 -21q57 -86 117 -155q26 -31 65 -43q18 -6 23.5 -10.5t5.5 -13.5q0 -14 -26 -13q-89 11 -164 0q-25 -2 -25 12q0 7 13 20q10 12 -5 38q-58 90 -69 102q-8 10 -22 1q-34 -28 -63 -76q-18 -25 -18 -37q2 -11 30 -23q7 -1 18 -7t11 -12t-9 -11
t-18 -4q-69 8 -160 -2q-17 0 -17 13q0 17 23 25q7 2 14.5 5t12.5 6t13.5 10t12.5 10.5t15 13.5t15 14q68 72 95 110q11 13 0 28q-6 8 -27.5 41t-40.5 57.5t-37 39.5q-6 6 -17 10.5t-28 9.5t-21 7q-17 6 -17 19z" />
    <glyph glyph-name="y" unicode="y" horiz-adv-x="482" 
d="M69 -274q-28 0 -46.5 21t-18.5 48q0 49 36 83q12 11 24.5 14t16.5 -1t4 -10.5t-6 -12.5q-16 -14 -10.5 -36t23.5 -22q29 0 55 33.5t39 67.5t20 64q5 20 -6 54q-3 18 -55.5 159.5t-66.5 166.5q-23 41 -68 47q-20 4 -20 21q0 16 44 10q25 -4 55.5 -4t64.5 2t47 2
q18 0 6 -19q-5 -10 -16 -18q-16 -15 -6 -52q40 -137 73 -212q4 -11 12.5 -13t12.5 6q49 90 71 202q12 60 -17 69q-34 9 -34 21q0 19 38 14q72 -7 123 0q6 1 10.5 -1t6 -4t1.5 -3q0 -15 -14 -25q-18 -14 -46 -64q-22 -39 -88.5 -189.5t-89.5 -192.5q-5 -11 -23 -51.5
t-34 -73.5t-25 -45q-1 -2 -8.5 -10.5t-10.5 -11.5l-10 -10t-12.5 -10t-14 -7t-17.5 -5.5t-20 -1.5z" />
    <glyph glyph-name="z" unicode="z" horiz-adv-x="476" 
d="M115 464q15 0 20 -18q4 -18 38 -22q33 -2 120 6.5t108 8.5q11 0 10 -15q-6 -23 -20 -49q-14 -21 -110 -126.5t-118 -132.5q-16 -22 -13.5 -26t19.5 -7q73 -10 145 -3q45 3 69 15t40 46q12 24 25 23q8 -1 8 -30q0 -32 -19 -70.5t-43 -56.5q-10 -11 -48 -8q-7 4 -145.5 0.5
t-152.5 -3.5t-14 12q0 16 9 35t19 28q24 23 58.5 60.5t59.5 65.5t66.5 75.5t54.5 62.5q3 4 2 7.5t-7 6t-16 2.5q-70 0 -143 -10q-12 -1 -28.5 -1.5t-30 5.5t-12.5 19q1 28 28 80q11 20 21 20z" />
    <glyph glyph-name="braceleft" unicode="{" horiz-adv-x="279" 
d="M194 631q25 0 25 -18q0 -15 -29 -20q-38 -8 -38 -80q0 -21 27 -72.5t27 -85.5q0 -20 -15 -35.5t-15 -19.5t14.5 -16t14.5 -35t-27 -81.5t-27 -84.5q0 -36 12.5 -55t28.5 -21q27 -7 27 -21q0 -20 -39 -20q-48 0 -83 26t-35 71q0 33 45 97t45 98q0 22 -59 22q-8 0 -24 -4
t-22 -4q-8 0 -11.5 10t-1.5 21q5 26 21 26q5 0 19 -4.5t24 -4.5h7h9.5t9.5 0.5t10.5 1.5t9.5 2.5t9 4.5t6.5 7t5 9t1.5 12q0 20 -25 50t-50 64t-25 65q0 40 43.5 67.5t84.5 27.5z" />
    <glyph glyph-name="bar" unicode="|" horiz-adv-x="302" 
d="M128 -24v100.5v186v182v104.5q0 26 7 37q5 11 19.5 19.5t21.5 8.5q12 0 12.5 -13t-3.5 -32q-5 -64 -12 -577q0 -30 -21 -41q-11 -5 -17.5 1.5t-6.5 23.5z" />
    <glyph glyph-name="braceright" unicode="}" horiz-adv-x="285" 
d="M83 -34q-24 0 -24 19q0 13 29 20q45 11 44 75q0 21 -27 78t-27 90q0 21 15.5 36.5t15.5 19.5q0 5 -7.5 9.5t-14.5 14t-7 26.5q0 24 27 79.5t27 80.5q0 35 -13 54.5t-28 22.5q-27 5 -27 21q0 19 38 19q49 0 83.5 -25.5t34.5 -70.5q0 -34 -48.5 -95t-48.5 -94q0 -23 67 -23
q7 0 23.5 4.5t21.5 4.5q8 0 12 -10.5t2 -20.5q-7 -27 -21 -27q-6 0 -20 5t-24 5h-7h-8t-8 -0.5t-9 -1.5t-8 -2.5t-7.5 -4.5t-5.5 -7t-4 -9t-1 -12q0 -20 23.5 -51.5t47 -67.5t23.5 -67q0 -40 -48 -67.5t-91 -27.5z" />
    <glyph glyph-name="asciitilde" unicode="~" horiz-adv-x="436" 
d="M34 214q-4 3 0 15t11 20q59 60 100 60q26 0 78 -19q33 -11 75 -11q41 0 66 22q2 2 6.5 6t5.5 4.5t5 3t5.5 2t5.5 -0.5q7 -2 8.5 -13.5t-6.5 -23.5q-18 -29 -50.5 -50.5t-58.5 -21.5q-44 0 -81 13q-60 18 -71 18q-33 0 -67 -23q-17 -10 -32 -1z" />
    <glyph glyph-name="uni00A0" unicode="&#xa0;" horiz-adv-x="227" 
 />
    <glyph glyph-name="exclamdown" unicode="&#xa1;" horiz-adv-x="251" 
d="M182 -128q0 -17 -5 -23.5t-18 -10.5q-35 -10 -75 -10h-5h-9t-5.5 2t-3.5 6t-1 12q0 14 14 85.5t14 73.5q14 110 21 224q1 15 4.5 20.5t14.5 9.5q8 3 12.5 -5.5t3.5 -26.5q-2 -53 13 -215q1 -5 7.5 -39.5t12 -65.5t5.5 -37zM128 338q-24 0 -41 11.5t-17 30.5q0 28 21 43.5
t47 15.5q58 0 58 -48q0 -24 -23 -38.5t-45 -14.5z" />
    <glyph glyph-name="cent" unicode="&#xa2;" horiz-adv-x="423" 
d="M377 393q4 -25 -17.5 -52.5t-48.5 -38.5q-12 -7 -21 4q-4 7 5 20q9 11 9 37q0 34 -57 34q-50 0 -86.5 -51.5t-36.5 -140.5q0 -149 117 -149q81 0 123 47q9 9 20 9q13 -2 10 -17q-1 -7 -15 -27t-28 -35q-25 -26 -53 -30q-17 -4 -27 -4q-11 0 -11 -18q0 -7 -0.5 -28.5
t-1.5 -26.5q-1 -10 -11 -14q-10 -5 -29 -5q-8 0 -8 14v63q0 11 -17 15q-167 23 -160 199q3 89 55.5 152t118.5 85q11 5 11 18q0 49 2 59q1 8 11 13q6 4 27 4q8 0 8 -13q1 -14 1 -59q0 -9 5 -12q47 0 73 -11t32 -41z" />
    <glyph glyph-name="sterling" unicode="&#xa3;" 
d="M364 449q-14 14 11 30q18 17 11 49t-40 32q-46 0 -83 -25t-38 -68q0 -34 36 -72q14 -14 34 -58q7 -26 23 -26q66 0 89 9q18 5 21 5q12 0 4 -23q-4 -8 -8 -18.5t-6 -14.5q-11 -12 -27 -12q-3 0 -31 0.5t-38 0.5q-14 -1 -18 -4t-5 -12q-1 -17 -9.5 -34t-16.5 -26t-26 -27.5
t-25 -25.5q-3 -2 -6.5 -6.5t-5.5 -6.5q-3 -8 3 -9t15 2q18 3 44 3q30 0 61 -14q43 -14 76 -14q36 0 58 19.5t26 57.5q4 33 30 33q12 0 12 -29q0 -75 -54 -137q-16 -19 -25.5 -24t-30.5 -8q-13 -3 -39 -3t-86 17q-43 13 -91 12q-60 0 -111 -22q-4 -1 -9.5 -3t-8 -3t-7 -2
t-6.5 -1.5t-5 0t-4.5 2t-3 3.5t-2.5 5.5t-1 8.5q-2 34 13 67q11 20 34 21q21 1 36.5 10.5t36.5 32.5q22 25 30.5 46.5t8.5 54.5q0 12 -16 14q-11 1 -27.5 1h-22.5q-22 0 -13 25q6 15 47 20q38 6 3 46q-47 54 -47 107q0 42 39 77.5t89 53.5t92 18q126 0 126 -59
q0 -25 -23.5 -51.5t-60.5 -39.5q-27 -11 -32 -5z" />
    <glyph glyph-name="currency" unicode="&#xa4;" horiz-adv-x="428" 
d="M66 443q5 -4 18 -11.5t14 -7.5q9 -6 16 0q25 22 97 22q79 0 102 -21q4 -4 19 0q2 0 29 17q25 13 36 -2q7 -10 -7 -24l-31 -23q-10 -5 0 -13q25 -33 25 -73q0 -42 -35 -80q-5 -5 -1 -11q4 -4 18.5 -15t19.5 -16q16 -11 6 -23q-9 -15 -32 0q-2 1 -14.5 9t-19.5 11
q-12 5 -19 1q-36 -22 -96 -22q-66 0 -101 21q-8 4 -18 -1q-8 -3 -33 -19q-11 -6 -20.5 -6t-13.5 6q-4 5 -1.5 13t7.5 12q4 3 34 26q7 6 1 15q-1 1 -6 11t-7 13.5t-5.5 12.5t-4.5 17t-1 17q0 49 24 78q8 11 0 16l-30 23q-14 12 -6 23q4 6 14 7.5t22 -3.5zM92 303
q0 -41 34 -72t86 -31q50 0 86 30.5t36 72.5q0 43 -34 72t-88 29q-50 0 -85 -30t-35 -71z" />
    <glyph glyph-name="yen" unicode="&#xa5;" 
d="M18 579q-1 7 7.5 12.5t19.5 4.5q57 -6 156 -2q17 3 21 -6q10 -15 -6 -29q-14 -18 -6 -42q-4 3 17.5 -33t45.5 -74t26 -40q10 -10 26 4q20 18 48 64.5t32 69.5q6 35 -24 54q-16 11 -10 26q2 4 10 6t13 0q55 -7 131 -1q30 6 30 -13q0 -8 -5.5 -12.5t-24.5 -15.5
q-2 -1 -3 -2q-13 -9 -67 -71q-7 -9 -47 -60t-56 -75l-14 -22q-4 -11 11 -11q17 1 70 5q4 0 10 1t9.5 1.5t8.5 1t7.5 0t5 -2t3.5 -4.5t1 -7q0 -5 -9 -18.5t-20 -19.5q-10 -7 -36 -7q-6 0 -14.5 -0.5t-21.5 -1t-23 -0.5q-15 0 -15 -15q-1 -13 -1 -38q0 -12 14 -12q15 1 42 3
t39 3q4 0 10 1t9.5 1.5t8.5 1t7.5 0t5 -2t3.5 -4.5t1 -7q0 -6 -9 -19t-20 -19q-10 -7 -36 -7q-6 0 -15.5 -0.5t-23.5 -1t-25 -0.5t-11 -25q0 -34 18 -52.5t55 -30.5q21 -5 21 -19q0 -10 -11.5 -15.5t-20.5 -4.5q-28 5 -101 6.5t-116 -4.5q-12 -2 -24.5 1t-13.5 10
q-2 21 23 26q37 6 56 25.5t19 48.5v3q0 11 -0.5 16t-3.5 9.5t-10 4.5h-95q-15 0 -21.5 6.5t-1.5 17.5q10 20 40 20q34 0 80 2q14 0 14 15v41q0 6 -5 10t-10 4h-96q-15 0 -21.5 7t-1.5 17q10 20 40 20q57 0 81 2q12 2 4 18q-14 30 -54.5 92t-63.5 93q-36 44 -59 51
q-25 8 -27 21z" />
    <glyph glyph-name="brokenbar" unicode="&#xa6;" horiz-adv-x="301" 
d="M125 320v45v82v79.5v45.5q0 9 6 16q19 21 36 21q9 0 10.5 -4t-1.5 -17q-5 -25 -11 -255q0 -8 -6.5 -14.5t-16.5 -7.5q-17 -7 -17 9zM125 -38v45v82v80v46q0 11 6 17q17 19 36 19q8 0 9.5 -3.5t-0.5 -16.5q-3 -15 -5 -50t-3 -65t-2 -78t-1 -62q0 -19 -23 -24
q-17 -4 -17 10z" />
    <glyph glyph-name="section" unicode="&#xa7;" horiz-adv-x="367" 
d="M47 476q0 45 29 75t64 41t71 11q85 0 90 -52q0 -28 -40 -61q-11 -10 -22.5 -5.5t-7.5 18.5q7 26 -3.5 42.5t-36.5 16.5q-39 0 -59.5 -15.5t-19.5 -38.5q1 -18 12.5 -29.5t38.5 -25.5q7 -3 38 -15t37 -14q43 -16 67 -46.5t24 -66.5q0 -44 -33 -104q-3 -9 1 -16
q23 -30 23 -69q0 -21 -6.5 -41.5t-22.5 -41.5t-50.5 -34t-83.5 -13q-45 0 -72.5 13.5t-28.5 37.5q-2 35 39 61q13 9 23.5 4.5t6.5 -17.5q-7 -25 9 -42t43 -17t44.5 5.5t24 16t8.5 18t1 18.5q-1 34 -51 60q-10 5 -75 28q-43 16 -67 46.5t-24 66.5q0 47 36 99q2 3 3.5 4.5
t1 3.5t-0.5 2.5t-2.5 3t-3.5 4.5q-25 28 -25 68zM268 268q0 41 -57 67q-33 18 -75 35q-12 6 -17 4t-12 -15q-8 -18 -8 -24q0 -41 57 -67q33 -18 80 -37q9 -5 14 -5.5t6.5 2t3.5 9.5q8 22 8 31z" />
    <glyph glyph-name="dieresis" unicode="&#xa8;" horiz-adv-x="477" 
d="M166 616q40 0 42 -34q2 -27 -23 -47q-22 -22 -41 -22q-13 0 -20.5 16t-7.5 37q2 18 17 34t33 16zM335 616q40 0 42 -34q2 -27 -23 -47q-22 -22 -41 -22q-13 0 -20.5 16t-7.5 37q2 18 16.5 34t33.5 16z" />
    <glyph glyph-name="copyright" unicode="&#xa9;" horiz-adv-x="689" 
d="M152 264q0 65 24 116t61 78.5t73.5 41t69.5 13.5q43 0 71.5 -17t28.5 -48q0 -35 -33 -68q-11 -13 -18 -6q-4 0 -7 5t-1 11q10 31 -1 57.5t-47 26.5q-70 0 -105 -49.5t-35 -121.5q0 -158 136 -158q53 0 81 24q7 4 11.5 9t9 11.5t7.5 10.5q2 3 8.5 3t12 -4.5t2.5 -10.5
q-4 -12 -22 -37.5t-30 -37.5q-20 -20 -112 -20q-80 0 -132.5 48t-52.5 123zM38 287q0 135 97 230t224 95q136 0 214.5 -82.5t78.5 -218.5q0 -132 -89 -228t-215 -96q-142 0 -226 75.5t-84 224.5zM88 289q0 -125 72 -190.5t189 -65.5q104 0 178.5 84t74.5 194q0 112 -68 184
t-176 72q-107 0 -188.5 -82.5t-81.5 -195.5z" />
    <glyph glyph-name="ordfeminine" unicode="&#xaa;" horiz-adv-x="460" 
d="M348 309q6 0 14 8t17 20.5t12 15.5q3 4 10 6.5t10 0.5q2 -1 4 -7.5t1 -10.5q-12 -32 -50 -68t-65 -36q-32 0 -34 48q0 10 -7 10q-3 0 -6.5 -2.5t-5.5 -3.5q-62 -50 -108 -50q-100 0 -100 88q0 66 57 91q13 5 73.5 21.5t73.5 21.5q24 8 24 33q0 30 -8 38t-38 4
q-13 -2 -50 -10t-60 -8q-33 0 -26 40q4 25 14 45q8 13 14 13q16 0 18 -9q6 -19 25 -19q19 -1 54.5 6t52.5 7q79 0 79 -66q0 -24 -2.5 -82t-2.5 -92q0 -53 10 -53zM55 128q-16 0 -22.5 5.5t-1.5 15.5q9 22 41 22q158 2 295 14q19 4 32 3.5t13 -12.5q0 -7 -8.5 -20.5
t-19.5 -19.5t-38 -6q-92 -2 -291 -2zM120 338q0 -24 12.5 -36t33.5 -12q28 0 57.5 19.5t36.5 55.5q5 30 4 58q0 11 -14 7l-25 -7q-8 -3 -22 -7t-19.5 -5.5t-14.5 -6t-18 -10.5q-31 -21 -31 -56z" />
    <glyph glyph-name="guillemotleft" unicode="&#xab;" horiz-adv-x="402" 
d="M182 370q6 -7 2.5 -20t-9.5 -21q-3 -4 -12.5 -19.5t-15.5 -25.5t-13 -23.5t-9 -22.5q-10 -28 1 -54q6 -13 52 -82q12 -25 -3 -34q-11 -6 -27 0t-24 17q-16 20 -46.5 50.5t-45.5 47.5q-6 7 -8.5 11t-2 13.5t7.5 20.5q10 15 50.5 62t52.5 64q26 34 50 16zM350 370
q6 -7 2.5 -20t-9.5 -21q-45 -74 -49 -91q-11 -26 1 -54q6 -15 51 -82q12 -25 -3 -34q-10 -7 -26.5 -0.5t-24.5 17.5q-16 20 -47 51t-45 47q-17 24 -2 45q10 15 51 62.5t52 63.5q24 34 49 16z" />
    <glyph glyph-name="logicalnot" unicode="&#xac;" horiz-adv-x="412" 
d="M44 263q-16 0 -22 6t-2 16q11 22 41 22q146 2 273 13q5 0 14 1.5t13 1.5t9 -0.5t7 -3.5t2 -8l-1 -33q-2 -34 -3 -62.5t0 -51.5q0 -12 -11 -18q-10 -4 -33 -6q-8 -2 -11.5 1t-3.5 15q1 20 1 91q0 19 -11 19q-198 -3 -262 -3z" />
    <glyph glyph-name="uni00AD" unicode="&#xad;" horiz-adv-x="0" 
d="M-90 296q4 1 71 6t91 14q28 11 32 -3t-9 -35q-16 -37 -70 -38q-56 -2 -123 -2q-35 0 -25 28q7 22 33 30z" />
    <glyph glyph-name="registered" unicode="&#xae;" horiz-adv-x="689" 
d="M178 465q0 16 26 13q15 -3 43.5 -3t65 1t46.5 1q27 0 44.5 -2t36 -8t27.5 -19.5t9 -35.5q0 -6 -2 -12.5t-4.5 -12t-8 -11.5t-9.5 -10.5t-11.5 -10t-11.5 -8.5t-12 -8t-11 -6.5t-10.5 -6t-8.5 -4.5q-14 -7 -7 -24q18 -60 46.5 -101.5t58.5 -41.5q11 0 27 8q8 4 9 -8
q-1 -8 -5 -13q-34 -34 -72 -34q-33 0 -75 63t-56 128q-1 16 3.5 22.5t21.5 11.5q67 27 67 74q0 15 -7 23t-15.5 10t-28.5 4h-10h-9.5h-8h-6.5h-6h-4.5h-3h-2.5q-10 -1 -13 -4.5t-3 -15.5q-11 -190 -2 -249q1 -4 1.5 -12.5t3.5 -11.5t14 -10q2 -1 9 -4l10.5 -4.5t7.5 -5
t5 -7.5q1 -5 -6 -9.5t-18 -3.5q-18 2 -47 2t-56.5 -1t-28.5 -1q-10 -2 -12 10q-1 7 7.5 12.5t17.5 7.5q26 5 28 38q4 44 4 238q0 9 -2.5 15.5t-5 10t-8 6.5t-8 4t-8.5 3l-7 1q-9 3 -9 12zM38 287q0 135 97 230t224 95q136 0 214.5 -82.5t78.5 -218.5q0 -132 -89 -228
t-215 -96q-142 0 -226 75.5t-84 224.5zM88 289q0 -125 72 -190.5t189 -65.5q104 0 178.5 84t74.5 194q0 112 -68 184t-176 72q-107 0 -188.5 -82.5t-81.5 -195.5z" />
    <glyph glyph-name="macron" unicode="&#xaf;" horiz-adv-x="477" 
d="M116 508q-15 0 -19 4t1 17q9 20 31 20q157 3 213 8q4 0 10 1t9.5 1.5t7 0t5 -3.5t1.5 -8q0 -19 -21 -32q-8 -6 -27 -6q-37 -2 -211 -2z" />
    <glyph glyph-name="degree" unicode="&#xb0;" horiz-adv-x="323" 
d="M42 479q0 51 38.5 88t86.5 37q53 0 83.5 -32t30.5 -85q0 -52 -34.5 -88t-84.5 -36q-55 0 -87.5 28.5t-32.5 87.5zM92 481q0 -35 20.5 -54t53.5 -19q29 0 50 24t21 55q0 32 -19 53t-50 21q-30 0 -53 -24t-23 -56z" />
    <glyph glyph-name="plusminus" unicode="&#xb1;" horiz-adv-x="421" 
d="M50 274q-16 0 -22.5 6t-1.5 15q10 21 40 21l111 2q12 1 14.5 4.5t3.5 15.5q0 11 1 30t2 42q0 29 28 40q9 4 13 -1.5t4 -21.5q0 -6 -0.5 -31.5t-0.5 -53.5q0 -14 3 -17.5t13 -2.5q18 1 48 4t42 4q5 0 14 1.5t13 1.5t8.5 -0.5t6.5 -3.5t2 -8q0 -7 -8 -19.5t-19 -17.5
q-11 -7 -37 -7q-7 0 -15.5 -0.5t-24 -1t-28.5 -0.5q-13 -1 -15.5 -4t-2.5 -16v-51q0 -32 -4 -36q-5 -12 -19 -21t-20 -9q-13 0 -14.5 13t2.5 33q4 37 6 74q1 11 -2 14t-15 3q-53 -1 -126 -1zM50 56q-15 0 -22 8t-2 18q8 16 40 16q148 2 282 15q5 0 14 1.5t13 1.5t8.5 -0.5
t6.5 -3.5t2 -8q0 -7 -8 -20t-19 -19t-37 -6q-24 0 -140 -1.5t-138 -1.5z" />
    <glyph glyph-name="twosuperior" unicode="&#xb2;" horiz-adv-x="351" 
d="M49 258q71 65 145 160q33 48 33 74q0 46 -42 46q-16 0 -39 -7q-26 -7 -44 -7t-27.5 8.5t-8.5 23.5q0 27 13 49q9 15 19 15t15 -16q4 -14 25 -14q11 0 30 5t40 5q35 0 53 -14.5t18 -50.5q-2 -53 -23 -85q-35 -59 -108 -135q-11 -16 1 -16q15 -2 49 -2t44 2q30 2 36 41
q1 13 14 13q16 0 16 -24q0 -57 -26 -86q-20 -15 -37 -13q-46 6 -197 1q-5 0 -6 5.5t1.5 12t5.5 9.5z" />
    <glyph glyph-name="threesuperior" unicode="&#xb3;" horiz-adv-x="316" 
d="M88 624q9 0 12 -14t8 -17.5t18 -3.5q11 0 31.5 5t32.5 5q56 -2 56 -44q0 -54 -44 -86q-10 -7 -9.5 -13.5t9.5 -8.5q13 -3 22.5 -7t21.5 -14t18.5 -29t6.5 -46q0 -50 -40 -88.5t-99 -38.5q-90 0 -90 51q0 18 14.5 34t30.5 23q19 9 26 0q3 -3 -8 -17q-15 -15 -2.5 -34
t49.5 -19q30 0 49.5 18t19.5 52q0 37 -28.5 57.5t-63.5 22.5q-27 0 -27 10q0 24 14 28q78 28 78 65q0 24 -31 24.5t-43 -5.5q-22 -9 -40.5 -0.5t-18.5 33.5q0 17 10 43q6 14 17 14z" />
    <glyph glyph-name="acute" unicode="&#xb4;" horiz-adv-x="477" 
d="M196 494q-2 0 -3 2t-0.5 6.5t3.5 10.5l43 74q13 21 36 29q29 9 84 9q9 -1 7.5 -10.5t-7.5 -13.5q-83 -54 -132 -103q-15 -15 -31 -4z" />
    <glyph glyph-name="mu" unicode="&#xb5;" horiz-adv-x="576" 
d="M0 397q-1 7 4 12.5t11 6.5q11 1 73.5 12t72.5 11q8 0 11.5 -0.5t7 -5.5t3.5 -15q1 -10 -4 -130.5t-5 -141.5q0 -95 79 -95q35 0 58.5 25.5t47.5 76.5q33 71 22 202q-1 24 -21 29t-39 -1q-15 -3 -22 8q-3 4 1.5 12.5t11.5 9.5q124 26 140 26q5 0 8.5 -0.5t6.5 -0.5t4.5 -2
t2.5 -2.5t1.5 -4t0.5 -4.5v-6.5v-6.5q0 -36 -3 -139.5t-2 -155.5q0 -42 11 -56.5t39 -9.5q31 9 34 -11q2 -15 -15 -21q-98 -29 -130 -29q-13 0 -19.5 5t-8 10.5t-2.5 18.5q-3 22 3 54q1 7 -3 11t-10.5 3t-9.5 -5q-75 -100 -151 -100q-41 0 -70 21q-6 4 -11.5 -5t-5.5 -18
q0 -51 4 -78q1 -7 16 -67t15 -68q0 -26 -23 -33q-34 -10 -70 -12q-8 -1 -13.5 -0.5t-8 5t-2.5 15.5q0 14 12.5 82.5t12.5 69.5q17 133 18 240q0 23 3.5 91t1.5 122q-1 17 -15.5 28.5t-42.5 5.5q-7 -1 -18.5 1.5t-11.5 9.5z" />
    <glyph glyph-name="mu" unicode="&#x3bc;" horiz-adv-x="576" 
d="M0 397q-1 7 4 12.5t11 6.5q11 1 73.5 12t72.5 11q8 0 11.5 -0.5t7 -5.5t3.5 -15q1 -10 -4 -130.5t-5 -141.5q0 -95 79 -95q35 0 58.5 25.5t47.5 76.5q33 71 22 202q-1 24 -21 29t-39 -1q-15 -3 -22 8q-3 4 1.5 12.5t11.5 9.5q124 26 140 26q5 0 8.5 -0.5t6.5 -0.5t4.5 -2
t2.5 -2.5t1.5 -4t0.5 -4.5v-6.5v-6.5q0 -36 -3 -139.5t-2 -155.5q0 -42 11 -56.5t39 -9.5q31 9 34 -11q2 -15 -15 -21q-98 -29 -130 -29q-13 0 -19.5 5t-8 10.5t-2.5 18.5q-3 22 3 54q1 7 -3 11t-10.5 3t-9.5 -5q-75 -100 -151 -100q-41 0 -70 21q-6 4 -11.5 -5t-5.5 -18
q0 -51 4 -78q1 -7 16 -67t15 -68q0 -26 -23 -33q-34 -10 -70 -12q-8 -1 -13.5 -0.5t-8 5t-2.5 15.5q0 14 12.5 82.5t12.5 69.5q17 133 18 240q0 23 3.5 91t1.5 122q-1 17 -15.5 28.5t-42.5 5.5q-7 -1 -18.5 1.5t-11.5 9.5z" />
    <glyph glyph-name="paragraph" unicode="&#xb6;" horiz-adv-x="498" 
d="M294 597q14 0 46.5 -2t45.5 -2q20 0 50 3t39 4q17 0 17 -14q-2 -10 -22 -12q-50 -8 -52 -73q-7 -84 -3 -237.5t24 -239.5q4 -12 2.5 -16t-11.5 -8q-18 -8 -44 -8q-9 0 -11 4t-5 23q-19 91 0 511q0 23 -23 23q-25 0 -28 -14q-13 -99 -12.5 -265t9.5 -239v-6v-6v-5t-1 -5
l-2 -4t-3.5 -4t-5.5 -3q-12 -4 -37 -8q-7 -1 -12 0.5t-7.5 2.5t-3.5 7t-1 9v13q0 61 12 224q2 10 -2 14t-11 0q-54 -22 -92 -22q-50 0 -83 40t-33 93q1 92 77.5 157t182.5 65z" />
    <glyph glyph-name="periodcentered" unicode="&#xb7;" horiz-adv-x="155" 
d="M72 221q-26 0 -40.5 15.5t-14.5 42.5q0 23 18.5 43t49.5 20q25 0 39 -14t14 -34q0 -35 -19.5 -54t-46.5 -19z" />
    <glyph glyph-name="cedilla" unicode="&#xb8;" horiz-adv-x="477" 
d="M185 -174q20 2 36 11.5t16 20.5q0 22 -53 39q-21 7 -10 25q13 19 49 86q13 23 27 16q8 -4 3 -20l-15 -38q-7 -15 16 -23q43 -17 43 -63q0 -69 -109 -87q-11 -2 -16.5 1.5t-3.5 10.5q3 19 17 21z" />
    <glyph glyph-name="onesuperior" unicode="&#xb9;" horiz-adv-x="300" 
d="M55 228q-13 -1 -13 17q0 4 5 8.5t9 4.5q41 3 55 14t15 50q3 111 1 191q-1 15 -15 9q-5 -3 -16.5 -10.5t-18.5 -12.5q-14 -11 -26 -1q-3 3 0 12.5t10 13.5q65 46 88 69q9 8 20.5 10.5t19.5 -2.5t7 -17q-6 -117 -4 -264q0 -31 10 -42.5t42 -14.5q6 -1 10 -6t4 -9
q0 -20 -17 -19q-80 5 -186 -1z" />
    <glyph glyph-name="ordmasculine" unicode="&#xba;" horiz-adv-x="444" 
d="M55 128q-16 0 -22.5 5.5t-1.5 15.5q9 22 41 22q158 2 295 14q19 4 32 3.5t13 -12.5q0 -7 -8.5 -20.5t-19.5 -19.5t-38 -6q-92 -2 -291 -2zM211 239q-80 0 -125.5 47t-45.5 128q0 70 54 130.5t148 60.5q73 0 119.5 -43t46.5 -106q0 -102 -58.5 -159.5t-138.5 -57.5z
M230 565q-50 0 -79 -38t-29 -99q0 -72 29.5 -110t68.5 -38q104 0 104 165q0 56 -24 88t-70 32z" />
    <glyph glyph-name="guillemotright" unicode="&#xbb;" horiz-adv-x="402" 
d="M215 66q-7 7 -3.5 20t9.5 21q45 68 50 91q10 27 -1 55q-4 9 -9.5 18.5t-19 29t-22.5 33.5q-12 25 2 34q11 6 27.5 0t24.5 -17q15 -20 45.5 -50.5t45.5 -47.5q6 -7 8.5 -11t2 -13.5t-7.5 -20.5q-10 -15 -51 -62.5t-52 -63.5q-12 -17 -27 -20.5t-22 4.5zM46 66
q-6 7 -2.5 20t9.5 21q3 4 12.5 19.5t15.5 25.5t13 23.5t9 22.5q10 27 -1 55q-4 9 -51 81q-12 26 2 34q11 6 27 0t24 -17q16 -20 46.5 -50.5t45.5 -47.5q6 -7 8.5 -11t2 -13.5t-7.5 -20.5q-10 -15 -50.5 -62t-52.5 -64q-26 -34 -50 -16z" />
    <glyph glyph-name="onequarter" unicode="&#xbc;" horiz-adv-x="717" 
d="M408 100q-8 0 -10.5 1.5t-1.5 9.5q5 15 13 25q61 69 131 163q16 24 16 37q0 10 16 15q19 4 42 2q6 0 6 -13q-1 -3 -3 -83.5t-2 -101.5q3 -8 11 -9q13 0 27 12q9 9 17 5q9 -3 2 -17q-14 -26 -25 -37q-10 -10 -27 -10q-7 0 -7 -20q0 -5 0.5 -16.5t0.5 -20.5q1 -5 3 -14
t3 -15q3 -12 -5 -18q-13 -12 -53 -23q-9 -2 -12 3.5t-3 19.5q0 4 3 18.5t3 19.5q3 25 3 55q0 16 -13 16q-9 0 -56 -2t-79 -2zM172 -35q-8 2 -10.5 5.5t0 12t8.5 18.5t18 28q34 56 141.5 247.5t138.5 250.5q5 8 10.5 22t11 31t7.5 23q4 10 16.5 10t16.5 -7q7 -8 -1 -65
q-6 -33 -25 -61q-16 -25 -132.5 -225t-146.5 -249q-28 -43 -53 -41zM55 228q-13 -1 -13 17q0 4 5 8.5t9 4.5q41 3 55 14t15 50q3 111 1 191q-1 15 -15 9q-5 -3 -16.5 -10.5t-18.5 -12.5q-14 -11 -26 -1q-3 3 0 12.5t10 13.5q65 46 88 69q9 8 20.5 10.5t19.5 -2.5t7 -17
q-6 -117 -4 -264q0 -31 10 -42.5t42 -14.5q6 -1 10 -6t4 -9q0 -20 -17 -19q-80 5 -186 -1zM545 145q10 2 10 13q2 64 1 85q0 13 -6 13q-2 0 -14 -12q-17 -22 -36.5 -45.5t-30.5 -37.5q-12 -16 7 -16q2 0 18 -1t30.5 -1t20.5 2z" />
    <glyph glyph-name="onehalf" unicode="&#xbd;" horiz-adv-x="770" 
d="M55 228q-13 -1 -13 17q0 4 5 8.5t9 4.5q41 3 55 14t15 50q3 111 1 191q-1 15 -15 9q-5 -3 -16.5 -10.5t-18.5 -12.5q-14 -11 -26 -1q-3 3 0 12.5t10 13.5q65 46 88 69q9 8 20.5 10.5t19.5 -2.5t7 -17q-6 -117 -4 -264q0 -31 10 -42.5t42 -14.5q6 -1 10 -6t4 -9
q0 -20 -17 -19q-80 5 -186 -1zM172 -35q-8 2 -10.5 5.5t0 12t8.5 18.5t18 28q34 56 141.5 247.5t138.5 250.5q5 8 10.5 22t11 31t7.5 23q4 10 16.5 10t16.5 -7q7 -8 -1 -65q-6 -33 -25 -61q-16 -25 -132.5 -225t-146.5 -249q-28 -43 -53 -41zM469 27q75 69 145 160
q33 46 33 74q0 45 -42 45q-19 0 -39 -6q-22 -8 -44 -8q-18 0 -27.5 9t-8.5 24q2 31 13 49q9 15 19 15q9 0 15 -16q4 -14 25 -14q11 0 30 5t40 5q35 0 53 -14.5t18 -50.5q-2 -53 -23 -85q-32 -54 -108 -136q-12 -16 1 -16q15 -1 49 -1t44 1q17 2 25 12t11 30q1 12 14 12
q16 0 16 -23q0 -59 -26 -86q-19 -15 -37 -14q-59 8 -197 1q-5 0 -6 5.5t1 12.5t6 10z" />
    <glyph glyph-name="threequarters" unicode="&#xbe;" horiz-adv-x="717" 
d="M408 100q-8 0 -10.5 1.5t-1.5 9.5q5 15 13 25q61 69 131 163q16 24 16 37q0 10 16 15q19 4 42 2q6 0 6 -13l-5 -185q3 -8 11 -9q13 0 27 12q9 9 17 5q9 -3 2 -17q-14 -26 -25 -37q-10 -10 -27 -10q-7 0 -7 -20q0 -5 0.5 -16.5t0.5 -20.5q1 -5 3 -14t3 -15q3 -12 -5 -18
q-13 -12 -53 -23q-9 -2 -12 3.5t-3 19.5q0 4 3 18.5t3 19.5q3 25 3 55q0 16 -13 16q-9 0 -56 -2t-79 -2zM545 145q10 2 10 13q2 64 1 85q0 13 -6 13q-2 0 -14 -12q-17 -22 -36.5 -45.5t-30.5 -37.5q-12 -16 7 -16q2 0 18 -1t30.5 -1t20.5 2zM172 -35q-8 2 -10.5 5.5t0 12
t8.5 18.5t18 28q34 56 141.5 247.5t138.5 250.5q5 8 10.5 22t11 31t7.5 23q4 10 16.5 10t16.5 -7q7 -8 -1 -65q-6 -33 -25 -61q-16 -25 -132.5 -225t-146.5 -249q-28 -43 -53 -41zM88 624q9 0 12 -14t8 -17.5t18 -3.5q11 0 31.5 5t32.5 5q56 -2 56 -44q0 -54 -44 -86
q-10 -7 -9.5 -13.5t9.5 -8.5q13 -3 22.5 -7t21.5 -14t18.5 -29t6.5 -46q0 -50 -40 -88.5t-99 -38.5q-90 0 -90 51q0 18 14.5 34t30.5 23q19 9 26 0q3 -3 -8 -17q-15 -15 -2.5 -34t49.5 -19q30 0 49.5 18t19.5 52q0 37 -28.5 57.5t-63.5 22.5q-27 0 -27 10q0 24 14 28
q78 28 78 65q0 24 -31 24.5t-43 -5.5q-22 -9 -40.5 -0.5t-18.5 33.5q0 17 10 43q6 14 17 14z" />
    <glyph glyph-name="questiondown" unicode="&#xbf;" horiz-adv-x="418" 
d="M259 269q10 2 15 -7.5t5 -18.5q0 -70 -37 -113q-7 -8 -33.5 -35.5t-45.5 -50.5q-18 -22 -21.5 -57t4.5 -53q22 -67 90 -67q27 0 54 20.5t27 61.5q0 63 -54 50q-22 -5 -29 4q-4 6 0.5 13t9.5 10q43 24 83 24q28 0 51 -22t23 -63q0 -54 -55.5 -96t-125.5 -42
q-144 0 -166 93q-10 40 13 84t63 74q53 41 72 67q33 44 35 98q0 20 22 26zM251 341q-24 0 -41 11t-17 30q0 28 21 44t47 16q58 0 58 -48q0 -24 -23.5 -38.5t-44.5 -14.5z" />
    <glyph glyph-name="Agrave" unicode="&#xc0;" horiz-adv-x="715" 
d="M412 678q4 -6 3 -12.5t-4 -9.5q-7 -9 -39 12q-59 35 -115 56q-4 1 -5 5.5t1.5 10t9.5 8.5q15 6 54 11q21 4 30.5 1.5t20.5 -15.5q5 -6 17.5 -27.5t26.5 -39.5zM322 567q29 31 64 37q15 3 21.5 -3.5t13.5 -26.5q10 -30 89.5 -230.5t87.5 -216.5q12 -25 16.5 -33.5
t16.5 -24.5t27.5 -23.5t38.5 -12.5q10 0 10 -17q0 -9 -8 -14t-15 -4q-25 4 -56.5 5t-53 0t-55 -3.5t-45.5 -3.5q-23 0 -23 12q0 16 9 18q25 9 32.5 19t4.5 32q-1 14 -14 48t-19 43q-10 12 -19 15q-2 0 -5 1q-20 2 -91.5 2.5t-86.5 -0.5q-27 -1 -38 -14q-20 -26 -32.5 -65.5
t0.5 -61.5q1 -3 17.5 -13t16.5 -19q0 -8 -6.5 -12t-16.5 -2q-55 10 -165 1q-30 -3 -30 13t25 22q45 17 84 66q71 80 188 354q19 42 8 74q-3 10 0.5 22t8.5 16zM354 440q-8 0 -21 -26q-76 -153 -80 -172q-2 -13 0.5 -18t13.5 -5q113 0 162 2q11 2 13.5 6t-2.5 18
q-33 96 -70 178q-8 17 -16 17z" />
    <glyph glyph-name="Aacute" unicode="&#xc1;" horiz-adv-x="715" 
d="M348 646q-2 0 -3.5 2t-0.5 7t5 10q9 12 22 34.5t15 24.5q16 23 45 28q58 8 78 8q11 0 11 -11t-11 -16q-77 -39 -129 -83q-16 -14 -32 -4zM322 567q29 31 64 37q15 3 21.5 -3.5t13.5 -26.5q10 -30 89.5 -230.5t87.5 -216.5q12 -25 16.5 -33.5t16.5 -24.5t27.5 -23.5
t38.5 -12.5q10 0 10 -17q0 -9 -8 -14t-15 -4q-25 4 -56.5 5t-53 0t-55 -3.5t-45.5 -3.5q-23 0 -23 12q0 16 9 18q25 9 32.5 19t4.5 32q-1 14 -14 48t-19 43q-10 12 -19 15q-2 0 -5 1q-20 2 -91.5 2.5t-86.5 -0.5q-27 -1 -38 -14q-20 -26 -32.5 -65.5t0.5 -61.5
q1 -3 17.5 -13t16.5 -19q0 -8 -6.5 -12t-16.5 -2q-55 10 -165 1q-30 -3 -30 13t25 22q45 17 84 66q71 80 188 354q19 42 8 74q-3 10 0.5 22t8.5 16zM354 440q-8 0 -21 -26q-76 -153 -80 -172q-2 -13 0.5 -18t13.5 -5q113 0 162 2q11 2 13.5 6t-2.5 18q-33 96 -70 178
q-8 17 -16 17z" />
    <glyph glyph-name="Acircumflex" unicode="&#xc2;" horiz-adv-x="715" 
d="M268 634q-12 10 9 24q13 9 47 38.5t42 35.5q17 12 34 -1q10 -9 32.5 -31.5t37.5 -34.5q19 -17 11 -28q-5 -7 -23 1q-48 31 -59 35q-16 8 -34 2q-27 -6 -70 -36q-22 -13 -27 -5zM322 567q29 31 64 37q15 3 21.5 -3.5t13.5 -26.5q10 -30 89.5 -230.5t87.5 -216.5
q12 -25 16.5 -33.5t16.5 -24.5t27.5 -23.5t38.5 -12.5q10 0 10 -17q0 -9 -8 -14t-15 -4q-25 4 -56.5 5t-53 0t-55 -3.5t-45.5 -3.5q-23 0 -23 12q0 16 9 18q25 9 32.5 19t4.5 32q-1 14 -14 48t-19 43q-10 12 -19 15q-2 0 -5 1q-20 2 -91.5 2.5t-86.5 -0.5q-27 -1 -38 -14
q-20 -26 -32.5 -65.5t0.5 -61.5q1 -3 17.5 -13t16.5 -19q0 -8 -6.5 -12t-16.5 -2q-55 10 -165 1q-30 -3 -30 13t25 22q45 17 84 66q71 80 188 354q19 42 8 74q-3 10 0.5 22t8.5 16zM354 440q-8 0 -21 -26q-76 -153 -80 -172q-2 -13 0.5 -18t13.5 -5q113 0 162 2q11 2 13.5 6
t-2.5 18q-33 96 -70 178q-8 17 -16 17z" />
    <glyph glyph-name="Atilde" unicode="&#xc3;" horiz-adv-x="715" 
d="M253 659q-9 12 6 35q37 51 76 51q35 0 61 -14q27 -13 47 -13q24 0 42 16l6 6l6 6t6 4.5t6 2.5h6q14 -5 4 -27q-11 -29 -37 -49.5t-46 -20.5q-27 0 -56 13q-33 15 -54 15q-25 0 -50 -25q-14 -12 -23 0zM322 567q29 31 64 37q15 3 21.5 -3.5t13.5 -26.5q10 -30 89.5 -230.5
t87.5 -216.5q12 -25 16.5 -33.5t16.5 -24.5t27.5 -23.5t38.5 -12.5q10 0 10 -17q0 -9 -8 -14t-15 -4q-25 4 -56.5 5t-53 0t-55 -3.5t-45.5 -3.5q-23 0 -23 12q0 16 9 18q25 9 32.5 19t4.5 32q-1 14 -14 48t-19 43q-10 12 -19 15q-2 0 -5 1q-20 2 -91.5 2.5t-86.5 -0.5
q-27 -1 -38 -14q-20 -26 -32.5 -65.5t0.5 -61.5q1 -3 17.5 -13t16.5 -19q0 -8 -6.5 -12t-16.5 -2q-55 10 -165 1q-30 -3 -30 13t25 22q45 17 84 66q71 80 188 354q19 42 8 74q-3 10 0.5 22t8.5 16zM354 440q-8 0 -21 -26q-76 -153 -80 -172q-2 -13 0.5 -18t13.5 -5
q113 0 162 2q11 2 13.5 6t-2.5 18q-33 96 -70 178q-8 17 -16 17z" />
    <glyph glyph-name="Adieresis" unicode="&#xc4;" horiz-adv-x="715" 
d="M306 751q42 0 42 -35q2 -27 -22 -47q-24 -22 -41 -22q-28 0 -28 54q2 17 16.5 33.5t32.5 16.5zM476 751q40 0 42 -35q2 -26 -23 -47q-24 -22 -41 -22q-28 0 -28 54q2 17 16.5 33.5t33.5 16.5zM322 567q29 31 64 37q15 3 21.5 -3.5t13.5 -26.5q10 -30 89.5 -230.5
t87.5 -216.5q12 -25 16.5 -33.5t16.5 -24.5t27.5 -23.5t38.5 -12.5q10 0 10 -17q0 -9 -8 -14t-15 -4q-25 4 -56.5 5t-53 0t-55 -3.5t-45.5 -3.5q-23 0 -23 12q0 16 9 18q25 9 32.5 19t4.5 32q-1 14 -14 48t-19 43q-10 12 -19 15q-2 0 -5 1q-20 2 -91.5 2.5t-86.5 -0.5
q-27 -1 -38 -14q-20 -26 -32.5 -65.5t0.5 -61.5q1 -3 17.5 -13t16.5 -19q0 -8 -6.5 -12t-16.5 -2q-55 10 -165 1q-30 -3 -30 13t25 22q45 17 84 66q71 80 188 354q19 42 8 74q-3 10 0.5 22t8.5 16zM354 440q-8 0 -21 -26q-76 -153 -80 -172q-2 -13 0.5 -18t13.5 -5
q113 0 162 2q11 2 13.5 6t-2.5 18q-33 96 -70 178q-8 17 -16 17z" />
    <glyph glyph-name="Aring" unicode="&#xc5;" horiz-adv-x="715" 
d="M375 628q-105 0 -105 71q0 42 39 63t82 21q102 0 102 -68q0 -40 -39 -63.5t-79 -23.5zM385 749q-26 0 -40.5 -12t-14.5 -31q0 -44 49 -44q22 0 36.5 13t14.5 38q0 16 -12.5 26t-32.5 10zM322 567q29 31 64 37q15 3 21.5 -3.5t13.5 -26.5q10 -30 89.5 -230.5t87.5 -216.5
q12 -25 16.5 -33.5t16.5 -24.5t27.5 -23.5t38.5 -12.5q10 0 10 -17q0 -9 -8 -14t-15 -4q-25 4 -56.5 5t-53 0t-55 -3.5t-45.5 -3.5q-23 0 -23 12q0 16 9 18q25 9 32.5 19t4.5 32q-1 14 -14 48t-19 43q-10 12 -19 15q-2 0 -5 1q-20 2 -91.5 2.5t-86.5 -0.5q-27 -1 -38 -14
q-20 -26 -32.5 -65.5t0.5 -61.5q1 -3 17.5 -13t16.5 -19q0 -8 -6.5 -12t-16.5 -2q-55 10 -165 1q-30 -3 -30 13t25 22q45 17 84 66q71 80 188 354q19 42 8 74q-3 10 0.5 22t8.5 16zM354 440q-8 0 -21 -26q-76 -153 -80 -172q-2 -13 0.5 -18t13.5 -5q113 0 162 2q11 2 13.5 6
t-2.5 18q-33 96 -70 178q-8 17 -16 17z" />
    <glyph glyph-name="AE" unicode="&#xc6;" horiz-adv-x="948" 
d="M350 589q0 3 2.5 7t12 7t24.5 1q48 -7 129 -7q47 0 184 6t143 6q16 0 24 -2.5t9 -6t3 -7.5q8 -20 3 -69.5t-19 -65.5q-13 -14 -22 -5l-2.5 2.5t-2.5 2t-2.5 2.5t-1.5 4t1 5q8 44 -11 68.5t-64 24.5q-154 0 -186 -5q-13 -3 -16 -7.5t-3 -16.5q0 -16 -0.5 -76.5t-0.5 -67.5
v-5.5v-5.5t0.5 -5t1 -5t2 -4.5t4 -4.5t5.5 -2.5t7.5 -2.5t10 -1.5t12.5 -0.5q56 0 75.5 3.5t44.5 16.5q9 3 24.5 23.5t15.5 32.5q0 5 6.5 10.5t13.5 5.5t11 -11t2 -22q-11 -93 -11 -156q0 -7 -5.5 -13.5t-13.5 -7.5q-4 0 -10.5 6t-7.5 14q-2 18 -19 35.5t-36 18.5
q-36 3 -105 3q-17 -1 -22 -6.5t-6 -18.5q-3 -34 -3.5 -95t1.5 -70q2 -29 7 -38.5t28 -19.5q35 -14 92 -14q75 0 118 14.5t58.5 35t25.5 57.5q3 14 9.5 21.5t18.5 6.5q8 -1 12 -15.5t1 -36.5q-3 -25 -28.5 -66t-57.5 -62q-25 -9 -57 -8q-29 2 -57.5 5t-40.5 3q-105 7 -165 5
q-24 0 -58 -3t-63 -6t-31 -3q-20 -2 -22 10q-1 4 0 7t3.5 5.5t5.5 4.5t7.5 3.5l7.5 2.5t8 2.5t7 1.5q34 5 47.5 22t17.5 45q3 8 3 58q0 18 -13 20q-39 1 -90.5 1.5t-62.5 -0.5q-24 -1 -42 -13q-62 -72 -62 -98t41 -34q7 -1 11 -7.5t2 -12.5q-4 -21 -25 -16q-56 11 -171 1
q-15 -1 -22.5 3t-5.5 12q1 6 6 10t13.5 8t9.5 5q42 26 82 68q46 48 138.5 179.5t151.5 226.5q16 32 2 42q-10 7 -47 18q-15 5 -15 17zM455 472q0 14 -12 7l-10 -9q-1 -1 -38 -55.5t-73.5 -108.5t-39.5 -62q-4 -12 -3 -17.5t12 -5.5q6 0 75.5 -0.5t72.5 0.5q15 1 15 19
q1 54 1 232z" />
    <glyph glyph-name="Ccedilla" unicode="&#xc7;" horiz-adv-x="567" 
d="M260 -174q20 2 36 11.5t16 20.5q0 23 -54 39q-20 8 -9 25q9 13 35 60q8 15 -5 15q-117 6 -179 75t-62 170q0 111 49.5 195.5t124 125.5t157.5 41q69 0 105 -25t36 -71q0 -38 -50 -91q-11 -13 -23 -8q-12 7 -7 19q16 38 -6 83t-74 45q-103 0 -158.5 -78t-55.5 -184
q0 -118 55.5 -175.5t154.5 -57.5q45 0 77 8q17 5 31.5 13t21.5 14.5t20.5 21t19.5 19.5q2 3 9 3t10 -3q10 -8 5 -17q-7 -17 -31 -48.5t-42 -47.5q-11 -12 -30 -17q-37 -9 -100 -11q-8 0 -11 -2t-7 -12q-4 -8 -6 -16q-7 -15 16 -23q43 -18 43 -63q0 -69 -109 -87
q-11 -2 -16.5 1.5t-4.5 10.5q5 19 18 21z" />
    <glyph glyph-name="Egrave" unicode="&#xc8;" horiz-adv-x="603" 
d="M29 578q0 21 39 16q82 -6 109 -6q47 0 180 5.5t139 5.5q36 0 43 -15q7 -20 3.5 -69t-17.5 -64q-5 -5 -15 -8t-16 1q-6 9 -3 17q9 44 -9 69.5t-63 25.5q-157 0 -177 -5q-13 -4 -15.5 -8t-2.5 -15q0 -17 -0.5 -78.5t-0.5 -69.5v-10.5t2 -8.5t6 -8.5t12.5 -4t21.5 -2.5
q54 0 67.5 2.5t37.5 15.5q9 4 24 24t15 32q0 5 8.5 12t14.5 7q17 0 12 -34q-14 -100 -11 -152q0 -7 -7 -13.5t-17 -6.5q-4 0 -8.5 6t-5.5 14q-2 18 -16 35t-32 18q-72 4 -96 2q-17 -1 -22 -6t-6 -17q-2 -33 -2 -166q2 -30 7 -39.5t26 -18.5q36 -14 86 -14q73 0 116 14.5
t57.5 34.5t26.5 56q3 10 5.5 15.5t8 10t13.5 3.5q17 -2 10 -51q-3 -26 -25.5 -66t-54.5 -60q-26 -10 -64 -8l-92 7q-103 5 -162 4q-24 0 -53.5 -2.5t-54 -5t-27.5 -2.5q-18 -2 -20 15q-3 11 9.5 19.5t26.5 10.5q28 6 39 20.5t15 40.5q7 23 8.5 193t-0.5 189q-2 53 -77 71
q-16 2 -16 22zM386 678q4 -6 3.5 -12.5t-3.5 -9.5q-9 -9 -39 12q-57 34 -116 56q-3 1 -4 5.5t1.5 10t9.5 8.5q16 7 54 11q21 3 30 1t21 -15q5 -8 17 -28.5t26 -38.5z" />
    <glyph glyph-name="Eacute" unicode="&#xc9;" horiz-adv-x="603" 
d="M29 578q0 21 39 16q82 -6 109 -6q47 0 180 5.5t139 5.5q36 0 43 -15q7 -20 3.5 -69t-17.5 -64q-5 -5 -15 -8t-16 1q-6 9 -3 17q9 44 -9 69.5t-63 25.5q-157 0 -177 -5q-13 -4 -15.5 -8t-2.5 -15q0 -17 -0.5 -78.5t-0.5 -69.5v-10.5t2 -8.5t6 -8.5t12.5 -4t21.5 -2.5
q54 0 67.5 2.5t37.5 15.5q9 4 24 24t15 32q0 5 8.5 12t14.5 7q17 0 12 -34q-14 -100 -11 -152q0 -7 -7 -13.5t-17 -6.5q-4 0 -8.5 6t-5.5 14q-2 18 -16 35t-32 18q-72 4 -96 2q-17 -1 -22 -6t-6 -17q-2 -33 -2 -166q2 -30 7 -39.5t26 -18.5q36 -14 86 -14q73 0 116 14.5
t57.5 34.5t26.5 56q3 10 5.5 15.5t8 10t13.5 3.5q17 -2 10 -51q-3 -26 -25.5 -66t-54.5 -60q-26 -10 -64 -8l-92 7q-103 5 -162 4q-24 0 -53.5 -2.5t-54 -5t-27.5 -2.5q-18 -2 -20 15q-3 11 9.5 19.5t26.5 10.5q28 6 39 20.5t15 40.5q7 23 8.5 193t-0.5 189q-2 53 -77 71
q-16 2 -16 22zM286 654q-2 0 -3.5 2.5t-0.5 7t5 9.5q9 12 22 34t15 25q16 25 45 28q63 9 78 9q10 0 10 -11t-10 -16q-77 -41 -130 -84q-16 -14 -31 -4z" />
    <glyph glyph-name="Ecircumflex" unicode="&#xca;" horiz-adv-x="603" 
d="M29 578q0 21 39 16q82 -6 109 -6q47 0 180 5.5t139 5.5q36 0 43 -15q7 -20 3.5 -69t-17.5 -64q-5 -5 -15 -8t-16 1q-6 9 -3 17q9 44 -9 69.5t-63 25.5q-157 0 -177 -5q-13 -4 -15.5 -8t-2.5 -15q0 -17 -0.5 -78.5t-0.5 -69.5v-10.5t2 -8.5t6 -8.5t12.5 -4t21.5 -2.5
q54 0 67.5 2.5t37.5 15.5q9 4 24 24t15 32q0 5 8.5 12t14.5 7q17 0 12 -34q-14 -100 -11 -152q0 -7 -7 -13.5t-17 -6.5q-4 0 -8.5 6t-5.5 14q-2 18 -16 35t-32 18q-72 4 -96 2q-17 -1 -22 -6t-6 -17q-2 -33 -2 -166q2 -30 7 -39.5t26 -18.5q36 -14 86 -14q73 0 116 14.5
t57.5 34.5t26.5 56q3 10 5.5 15.5t8 10t13.5 3.5q17 -2 10 -51q-3 -26 -25.5 -66t-54.5 -60q-26 -10 -64 -8l-92 7q-103 5 -162 4q-24 0 -53.5 -2.5t-54 -5t-27.5 -2.5q-18 -2 -20 15q-3 11 9.5 19.5t26.5 10.5q28 6 39 20.5t15 40.5q7 23 8.5 193t-0.5 189q-2 53 -77 71
q-16 2 -16 22zM221 645q-12 19 11 35q12 8 45.5 37.5t44.5 36.5q16 11 33 -1q10 -9 32.5 -31.5t37.5 -34.5q8 -7 12.5 -19t0.5 -18q-8 -11 -25 -2q-53 34 -59 37q-17 8 -39 1q-8 -2 -65 -36q-23 -15 -29 -5z" />
    <glyph glyph-name="Edieresis" unicode="&#xcb;" horiz-adv-x="603" 
d="M29 578q0 21 39 16q82 -6 109 -6q47 0 180 5.5t139 5.5q36 0 43 -15q7 -20 3.5 -69t-17.5 -64q-5 -5 -15 -8t-16 1q-6 9 -3 17q9 44 -9 69.5t-63 25.5q-157 0 -177 -5q-13 -4 -15.5 -8t-2.5 -15q0 -17 -0.5 -78.5t-0.5 -69.5v-10.5t2 -8.5t6 -8.5t12.5 -4t21.5 -2.5
q54 0 67.5 2.5t37.5 15.5q9 4 24 24t15 32q0 5 8.5 12t14.5 7q17 0 12 -34q-14 -100 -11 -152q0 -7 -7 -13.5t-17 -6.5q-4 0 -8.5 6t-5.5 14q-2 18 -16 35t-32 18q-72 4 -96 2q-17 -1 -22 -6t-6 -17q-2 -33 -2 -166q2 -30 7 -39.5t26 -18.5q36 -14 86 -14q73 0 116 14.5
t57.5 34.5t26.5 56q3 10 5.5 15.5t8 10t13.5 3.5q17 -2 10 -51q-3 -26 -25.5 -66t-54.5 -60q-26 -10 -64 -8l-92 7q-103 5 -162 4q-24 0 -53.5 -2.5t-54 -5t-27.5 -2.5q-18 -2 -20 15q-3 11 9.5 19.5t26.5 10.5q28 6 39 20.5t15 40.5q7 23 8.5 193t-0.5 189q-2 53 -77 71
q-16 2 -16 22zM430 751q40 0 42 -35q2 -27 -23 -47q-22 -22 -41 -22q-13 0 -20.5 16t-7.5 38q2 17 17 33.5t33 16.5zM261 751q40 0 42 -35q2 -26 -23 -47q-24 -22 -41 -22q-13 0 -20.5 16t-7.5 38q2 17 17 33.5t33 16.5z" />
    <glyph glyph-name="Igrave" unicode="&#xcc;" horiz-adv-x="332" 
d="M230 678q4 -6 3 -12.5t-4 -9.5q-7 -9 -39 12q-59 35 -115 56q-4 1 -5 5.5t2 10t10 8.5q14 7 54 11q21 4 30 1.5t20 -15.5q5 -6 17.5 -27.5t26.5 -39.5zM123 490q-4 53 -77 70q-16 2 -16 21t40 15q22 -2 95 -2t113 2q29 1 29 -19q-1 -14 -22 -19q-32 -6 -45 -22t-18 -50
q-3 -41 -4.5 -171t4.5 -206q6 -49 43 -64q2 -1 6.5 -2.5t7 -2t6.5 -2t6 -3t5 -3.5t4.5 -4.5t3 -5.5t1.5 -6q1 -9 -9 -14t-27 -3q-49 6 -224 -2q-20 -2 -21 14q-3 12 10.5 20.5t27.5 9.5q42 5 54 68q5 25 7 188.5t0 192.5z" />
    <glyph glyph-name="Iacute" unicode="&#xcd;" horiz-adv-x="332" 
d="M125 646q-2 0 -3.5 2t-1 6.5t4.5 10.5q9 11 37 59q16 23 45 28q58 8 78 8q11 0 11 -11t-11 -16q-77 -39 -129 -83q-16 -14 -31 -4zM123 490q-4 53 -77 70q-16 2 -16 21t40 15q22 -2 95 -2t113 2q29 1 29 -19q-1 -14 -22 -19q-32 -6 -45 -22t-18 -50q-3 -41 -4.5 -171
t4.5 -206q6 -49 43 -64q2 -1 6.5 -2.5t7 -2t6.5 -2t6 -3t5 -3.5t4.5 -4.5t3 -5.5t1.5 -6q1 -9 -9 -14t-27 -3q-49 6 -224 -2q-20 -2 -21 14q-3 12 10.5 20.5t27.5 9.5q42 5 54 68q5 25 7 188.5t0 192.5z" />
    <glyph glyph-name="Icircumflex" unicode="&#xce;" horiz-adv-x="332" 
d="M60 645q-12 18 12 35q9 7 43.5 36.5t46.5 37.5q15 11 32 -1q10 -9 32.5 -31.5t37.5 -34.5q8 -7 13 -19t0 -18q-9 -12 -24 -2q-12 8 -25.5 16.5t-20.5 13t-13 7.5q-19 8 -40 1q-8 -2 -65 -36q-23 -15 -29 -5zM123 490q-4 53 -77 70q-16 2 -16 21t40 15q22 -2 95 -2t113 2
q29 1 29 -19q-1 -14 -22 -19q-32 -6 -45 -22t-18 -50q-3 -41 -4.5 -171t4.5 -206q6 -49 43 -64q2 -1 6.5 -2.5t7 -2t6.5 -2t6 -3t5 -3.5t4.5 -4.5t3 -5.5t1.5 -6q1 -9 -9 -14t-27 -3q-49 6 -224 -2q-20 -2 -21 14q-3 12 10.5 20.5t27.5 9.5q42 5 54 68q5 25 7 188.5t0 192.5
z" />
    <glyph glyph-name="Idieresis" unicode="&#xcf;" horiz-adv-x="332" 
d="M95 751q40 0 42 -35q2 -27 -23 -47q-22 -22 -41 -22q-13 0 -20.5 16t-7.5 38q2 17 17 33.5t33 16.5zM264 751q42 0 42 -35q2 -27 -22 -47q-24 -22 -42 -22q-13 0 -20 16t-7 38q1 17 16 33.5t33 16.5zM123 490q-4 53 -77 70q-16 2 -16 21t40 15q22 -2 95 -2t113 2
q29 1 29 -19q-1 -14 -22 -19q-32 -6 -45 -22t-18 -50q-3 -41 -4.5 -171t4.5 -206q6 -49 43 -64q2 -1 6.5 -2.5t7 -2t6.5 -2t6 -3t5 -3.5t4.5 -4.5t3 -5.5t1.5 -6q1 -9 -9 -14t-27 -3q-49 6 -224 -2q-20 -2 -21 14q-3 12 10.5 20.5t27.5 9.5q42 5 54 68q5 25 7 188.5t0 192.5
z" />
    <glyph glyph-name="Eth" unicode="&#xd0;" horiz-adv-x="662" 
d="M98 298h-40q-15 0 -21.5 6.5t-1.5 17.5q9 20 40 20h23q22 0 23 22q2 81 0 123q-2 64 -76 70q-21 1 -21 22q0 20 43 15q30 -2 91 -2q29 0 85 2.5t80 2.5q146 1 224.5 -53.5t78.5 -159.5q-1 -92 -32 -167t-81.5 -121.5t-112 -71t-127.5 -24.5q-26 -1 -61.5 0.5t-39.5 1.5
q-63 0 -128 -5q-18 -2 -21 13q-2 8 5.5 14.5t15 9t17.5 4.5q10 1 18 3.5t13 7.5t8.5 7.5t6 11t3.5 11t2.5 13.5t1.5 12q6 34 6 174q0 10 -3 13t-19 7zM220 534l-4 -167q0 -15 3 -18t18 -3q11 1 120 10q3 0 8 1t8 1.5t7 0.5h6.5h5t4.5 -1t3.5 -2.5t2 -4t0.5 -5.5
q0 -6 -9 -19.5t-20 -19.5q-10 -6 -36 -6q-38 -2 -93 -2q-18 0 -23 -4t-5 -21q0 -93 4 -186q1 -45 62 -45q120 -1 180.5 87.5t60.5 226.5q0 176 -186 197q-43 3 -84 0q-13 -1 -23 -6.5t-10 -13.5z" />
    <glyph glyph-name="Ntilde" unicode="&#xd1;" horiz-adv-x="724" 
d="M81 596q99 0 169 -37q100 -52 178 -149.5t152 -248.5q4 -8 9 -11t8.5 -0.5t4.5 8.5q1 38 1 156t-1 135q-6 92 -67 110q-43 8 -39 22q4 17 29 17q100 -7 146 -4q30 4 30 -15q0 -2 -17 -23q-21 -27 -27 -87q-18 -192 -13 -362q0 -6 1 -33.5t1 -41.5q-1 -22 -21 -29
q-36 -9 -79 -7q-14 0 -20 17q-4 12 -20 52q-121 276 -285 400q-7 5 -15 10t-17.5 8.5t-16 -1t-6.5 -18.5q0 -264 6 -318q4 -53 22.5 -76.5t52.5 -26.5q13 -3 24 -11t8 -19q-3 -16 -18 -15q-89 8 -217 0q-11 -1 -16.5 6.5t-4.5 12.5q1 6 7.5 11t17 9.5t12.5 5.5q55 23 59 91
q4 58 6 182.5t0 158.5q-8 86 -83 86q-7 0 -12.5 5t-5.5 13q0 17 57 17zM253 659q-9 12 6 35q37 51 76 51q35 0 61 -14q27 -13 47 -13q24 0 42 16l6 6l6 6t6 4.5t6 2.5h6q14 -5 4 -27q-11 -29 -37 -49.5t-46 -20.5q-27 0 -56 13q-33 15 -54 15q-25 0 -50 -25q-14 -12 -23 0z
" />
    <glyph glyph-name="Ograve" unicode="&#xd2;" horiz-adv-x="678" 
d="M402 678q4 -6 3.5 -12.5t-3.5 -9.5q-9 -9 -39 12q-57 34 -116 56q-3 1 -4 5.5t1.5 10t9.5 8.5q16 7 54 11q21 3 30 1t21 -15q5 -8 17 -28.5t26 -38.5zM370 614q124 0 197 -73t73 -201q0 -157 -95 -258t-230 -101q-130 0 -203.5 83t-73.5 213q0 49 21 105.5t60 109.5
t105 87.5t146 34.5zM536 319q0 113 -50 178t-148 64q-80 0 -134.5 -67.5t-54.5 -208.5q0 -122 55.5 -186t142.5 -64q81 0 135 68.5t54 215.5z" />
    <glyph glyph-name="Oacute" unicode="&#xd3;" horiz-adv-x="678" 
d="M302 646q-2 0 -3.5 2t-0.5 7t5 10q9 12 22 34.5t15 24.5q16 23 45 28q56 8 78 8q10 0 10 -11t-10 -16q-76 -39 -130 -83q-15 -15 -31 -4zM370 614q124 0 197 -73t73 -201q0 -157 -95 -258t-230 -101q-130 0 -203.5 83t-73.5 213q0 49 21 105.5t60 109.5t105 87.5
t146 34.5zM536 319q0 113 -50 178t-148 64q-80 0 -134.5 -67.5t-54.5 -208.5q0 -122 55.5 -186t142.5 -64q81 0 135 68.5t54 215.5z" />
    <glyph glyph-name="Ocircumflex" unicode="&#xd4;" horiz-adv-x="678" 
d="M248 645q-12 18 12 35q11 7 46.5 36.5t47.5 37.5q16 11 33 -1q69 -61 75 -66q8 -7 12.5 -19t0.5 -18q-8 -11 -25 -2q-40 26 -64 37q-17 8 -39 1q-16 -5 -69 -36q-23 -16 -30 -5zM370 614q124 0 197 -73t73 -201q0 -157 -95 -258t-230 -101q-130 0 -203.5 83t-73.5 213
q0 49 21 105.5t60 109.5t105 87.5t146 34.5zM536 319q0 113 -50 178t-148 64q-80 0 -134.5 -67.5t-54.5 -208.5q0 -122 55.5 -186t142.5 -64q81 0 135 68.5t54 215.5z" />
    <glyph glyph-name="Otilde" unicode="&#xd5;" horiz-adv-x="678" 
d="M227 659q-8 12 7 35q37 51 76 51q36 0 60 -14q27 -13 48 -13q24 0 42 16l6 6l6 6t6 4.5t6 2.5h6q14 -5 4 -27q-12 -29 -37.5 -49.5t-45.5 -20.5q-27 0 -56 13q-33 15 -54 15q-25 0 -50 -25q-14 -12 -24 0zM370 614q124 0 197 -73t73 -201q0 -157 -95 -258t-230 -101
q-130 0 -203.5 83t-73.5 213q0 49 21 105.5t60 109.5t105 87.5t146 34.5zM536 319q0 113 -50 178t-148 64q-80 0 -134.5 -67.5t-54.5 -208.5q0 -122 55.5 -186t142.5 -64q81 0 135 68.5t54 215.5z" />
    <glyph glyph-name="Odieresis" unicode="&#xd6;" horiz-adv-x="678" 
d="M290 751q40 0 42 -35q0 -27 -23 -47q-24 -22 -41 -22q-28 0 -28 54q2 17 16.5 33.5t33.5 16.5zM459 751q40 0 42 -35q2 -26 -23 -47q-24 -22 -41 -22q-13 0 -20.5 16t-7.5 38q2 17 17 33.5t33 16.5zM370 614q124 0 197 -73t73 -201q0 -157 -95 -258t-230 -101
q-130 0 -203.5 83t-73.5 213q0 49 21 105.5t60 109.5t105 87.5t146 34.5zM536 319q0 113 -50 178t-148 64q-80 0 -134.5 -67.5t-54.5 -208.5q0 -122 55.5 -186t142.5 -64q81 0 135 68.5t54 215.5z" />
    <glyph glyph-name="multiply" unicode="&#xd7;" horiz-adv-x="424" 
d="M376 146q13 -13 14 -25t-15 -17q-20 -6 -31 5q-15 16 -38 43t-42 48t-38 39q-9 9 -21 0q-26 -25 -77 -74t-63 -60q-11 -9 -19 -8t-11 9q-3 22 4 29q51 48 134 134q11 14 0 25q-41 38 -128 129q-7 8 -8 19.5t5 14.5q17 10 29 -2q3 -3 52.5 -53t79.5 -80q9 -8 23 0
q35 38 115 130q14 17 26.5 15t12.5 -18q0 -42 -12 -53q-90 -82 -114 -106q-13 -11 2 -22q68 -66 120 -122z" />
    <glyph glyph-name="Oslash" unicode="&#xd8;" horiz-adv-x="678" 
d="M31 -12q-17 8 4 30q6 6 28 27q15 15 19.5 27t3 14.5t-5.5 9.5q-48 74 -48 181q0 49 21 105.5t60 109.5t105 87.5t146 34.5q105 0 176 -54q10 -7 13.5 -7t10.5 8q6 7 15.5 23t13.5 21q7 9 19 6t14 -11q3 -11 -7 -38t-21 -43q-1 -3 -3 -6.5t-2.5 -4.5t-0.5 -3.5t1 -4.5
t4 -7q37 -68 37 -153q0 -157 -95 -258t-230 -101q-96 0 -168 51q-5 3 -10 4t-8 1t-8 -3.5t-7 -5t-7.5 -7.5t-7.5 -8q-41 -36 -62 -25zM332 562q-80 -1 -134.5 -68.5t-54.5 -208.5q0 -73 20 -125q6 -15 18 -3q55 55 161 170t136 146q8 8 8 11.5t-7 12.5q-51 65 -147 65z
M529 319q0 60 -11 101q-6 15 -15 6q-33 -33 -139 -144t-159 -164q-12 -11 -1 -25q53 -59 137 -59q81 0 134.5 69t53.5 216z" />
    <glyph glyph-name="Ugrave" unicode="&#xd9;" horiz-adv-x="769" 
d="M437 678q4 -6 3 -12.5t-4 -9.5q-8 -9 -39 12q-59 35 -115 56q-4 1 -5 5.5t2 10t10 8.5q14 7 54 11q21 4 30 1.5t20 -15.5q5 -6 17.5 -27.5t26.5 -39.5zM39 565q-16 0 -18 12q-1 7 6.5 14t17.5 7q144 -12 227 0q9 1 17 -3.5t8 -12.5q0 -12 -17 -17q-39 -13 -53.5 -33
t-16.5 -55q-10 -201 -6 -282q5 -145 119 -145q91 0 154.5 71t69.5 176q5 81 5 195q-1 25 -19.5 45t-58.5 23q-7 1 -16 9t-6 15q7 16 40 12q20 -2 102.5 -2t105.5 2q31 3 31 -13q0 -18 -18 -25q-34 -9 -46 -27.5t-12 -62.5q0 -7 -1.5 -162.5t0.5 -180.5q3 -44 25 -64.5
t54 -18.5q16 1 16 -19q0 -13 -20 -18q-41 -9 -101 -9q-38 0 -58 18t-21 68q0 5 2 19t1 19q-2 9 -8 8t-11 -7q-24 -31 -43 -51t-50 -41.5t-71.5 -32.5t-90.5 -11q-77 0 -128.5 47t-49.5 129q9 269 8 316q-2 45 -17.5 65t-51.5 23z" />
    <glyph glyph-name="Uacute" unicode="&#xda;" horiz-adv-x="769" 
d="M348 646q-2 0 -3.5 2t-0.5 7t5 10q9 12 22 34.5t15 24.5q16 23 45 28q58 8 78 8q11 0 11 -11t-11 -16q-77 -39 -129 -83q-16 -14 -32 -4zM39 565q-16 0 -18 12q-1 7 6.5 14t17.5 7q144 -12 227 0q9 1 17 -3.5t8 -12.5q0 -12 -17 -17q-39 -13 -53.5 -33t-16.5 -55
q-10 -201 -6 -282q5 -145 119 -145q91 0 154.5 71t69.5 176q5 81 5 195q-1 25 -19.5 45t-58.5 23q-7 1 -16 9t-6 15q7 16 40 12q20 -2 102.5 -2t105.5 2q31 3 31 -13q0 -18 -18 -25q-34 -9 -46 -27.5t-12 -62.5q0 -7 -1.5 -162.5t0.5 -180.5q3 -44 25 -64.5t54 -18.5
q16 1 16 -19q0 -13 -20 -18q-41 -9 -101 -9q-38 0 -58 18t-21 68q0 5 2 19t1 19q-2 9 -8 8t-11 -7q-24 -31 -43 -51t-50 -41.5t-71.5 -32.5t-90.5 -11q-77 0 -128.5 47t-49.5 129q9 269 8 316q-2 45 -17.5 65t-51.5 23z" />
    <glyph glyph-name="Ucircumflex" unicode="&#xdb;" horiz-adv-x="769" 
d="M269 645q-12 18 12 35q11 8 44.5 37.5t45.5 36.5q17 7 20 6t13 -7q10 -9 32.5 -31.5t37.5 -34.5q8 -7 12.5 -19t0.5 -18q-8 -11 -25 -2q-53 34 -59 37q-17 8 -39 1q-8 -2 -65 -36q-23 -16 -30 -5zM39 565q-16 0 -18 12q-1 7 6.5 14t17.5 7q144 -12 227 0q9 1 17 -3.5
t8 -12.5q0 -12 -17 -17q-39 -13 -53.5 -33t-16.5 -55q-10 -201 -6 -282q5 -145 119 -145q91 0 154.5 71t69.5 176q5 81 5 195q-1 25 -19.5 45t-58.5 23q-7 1 -16 9t-6 15q7 16 40 12q20 -2 102.5 -2t105.5 2q31 3 31 -13q0 -18 -18 -25q-34 -9 -46 -27.5t-12 -62.5
q0 -7 -1.5 -162.5t0.5 -180.5q3 -44 25 -64.5t54 -18.5q16 1 16 -19q0 -13 -20 -18q-41 -9 -101 -9q-38 0 -58 18t-21 68q0 5 2 19t1 19q-2 9 -8 8t-11 -7q-24 -31 -43 -51t-50 -41.5t-71.5 -32.5t-90.5 -11q-77 0 -128.5 47t-49.5 129q9 269 8 316q-2 45 -17.5 65t-51.5 23
z" />
    <glyph glyph-name="Udieresis" unicode="&#xdc;" horiz-adv-x="769" 
d="M306 751q40 0 42 -35q0 -27 -23 -47q-24 -22 -41 -22q-28 0 -28 54q2 17 16.5 33.5t33.5 16.5zM475 751q40 0 42 -35q2 -26 -23 -47q-24 -22 -41 -22q-13 0 -20.5 16t-7.5 38q2 17 17 33.5t33 16.5zM39 565q-16 0 -18 12q-1 7 6.5 14t17.5 7q144 -12 227 0q9 1 17 -3.5
t8 -12.5q0 -12 -17 -17q-39 -13 -53.5 -33t-16.5 -55q-10 -201 -6 -282q5 -145 119 -145q91 0 154.5 71t69.5 176q5 81 5 195q-1 25 -19.5 45t-58.5 23q-7 1 -16 9t-6 15q7 16 40 12q20 -2 102.5 -2t105.5 2q31 3 31 -13q0 -18 -18 -25q-34 -9 -46 -27.5t-12 -62.5
q0 -7 -1.5 -162.5t0.5 -180.5q3 -44 25 -64.5t54 -18.5q16 1 16 -19q0 -13 -20 -18q-41 -9 -101 -9q-38 0 -58 18t-21 68q0 5 2 19t1 19q-2 9 -8 8t-11 -7q-24 -31 -43 -51t-50 -41.5t-71.5 -32.5t-90.5 -11q-77 0 -128.5 47t-49.5 129q9 269 8 316q-2 45 -17.5 65t-51.5 23
z" />
    <glyph glyph-name="Yacute" unicode="&#xdd;" 
d="M279 646q-2 0 -3.5 2t-1 6.5t4.5 10.5q9 11 37 59q16 23 45 28q58 8 78 8q11 0 11 -11t-11 -16q-77 -39 -129 -83q-16 -14 -31 -4zM18 579q-1 7 7.5 12.5t19.5 4.5q59 -6 161 -2q16 3 21 -6q10 -15 -6 -29q-14 -18 -6 -42q-4 3 17.5 -33t45.5 -74t26 -40q10 -10 26 4
q19 17 45 63.5t30 70.5q6 35 -24 54q-16 11 -10 26q2 4 10 6t13 0q55 -7 131 -1q30 6 30 -13q0 -8 -5.5 -12.5t-24.5 -15.5q-2 -1 -3 -2q-13 -9 -67 -71q-44 -59 -98 -135q-25 -34 -26 -72q-2 -19 -2 -154q1 -35 16.5 -53t51.5 -30q21 -5 21 -19q0 -10 -11.5 -15.5
t-20.5 -4.5q-28 5 -101 6.5t-116 -4.5q-12 -2 -24.5 1t-13.5 10q-2 21 23 26q36 6 54.5 25.5t20.5 48.5q5 87 2 173q-2 23 -6 36q-11 29 -52 90.5t-69 98.5q-36 44 -59 51q-25 8 -27 21z" />
    <glyph glyph-name="Thorn" unicode="&#xde;" horiz-adv-x="530" 
d="M108 481q-2 53 -68 69q-15 2 -15 18q0 4 2.5 8t12 7t23.5 2q22 -2 87.5 -2t105.5 2q29 2 29 -19q-2 -18 -23 -18q-24 -1 -40 -15.5t-17 -40.5q-2 -31 27 -31q140 0 161 -1q120 -7 120 -113q0 -47 -19.5 -84.5t-47.5 -58t-62.5 -33.5t-60 -17.5t-44.5 -4.5h-6h-6h-5
t-5 0.5t-4 1.5t-3 3t-2 4.5t-1 5.5q0 6 5 13t14 8q142 12 142 137q0 47 -27 71.5t-68 26.5q-21 1 -85 -1q-14 -1 -19.5 -6.5t-6.5 -20.5q0 -29 -1.5 -103.5t-1 -120t4.5 -64.5q4 -23 11.5 -34.5t26.5 -23.5q7 -4 18.5 -8.5t16 -8t5.5 -11.5q1 -9 -9 -15t-26 -4
q-46 6 -207 -2q-18 -2 -21 15q-3 11 10.5 19t27.5 10q33 5 43 57q5 23 7 185t1 198z" />
    <glyph glyph-name="germandbls" unicode="&#xdf;" horiz-adv-x="574" 
d="M354 686q29 0 54.5 -9t47 -37.5t21.5 -73.5q0 -44 -26 -82.5t-55 -62.5q-9 -8 -9.5 -11.5t9.5 -12.5q31 -24 49 -41t42.5 -45t36 -60.5t11.5 -69.5q0 -79 -45 -134.5t-106 -55.5q-92 0 -92 65q0 35 41 70q26 19 35 10q4 -3 5.5 -11t-2.5 -13q-14 -14 -6.5 -37.5
t37.5 -23.5q35 0 48.5 16.5t13.5 54.5q0 62 -46 120.5t-119 100.5q-13 6 -14.5 11t11.5 21q43 44 66.5 81t23.5 80q0 38 -17.5 64t-47.5 26q-54 0 -76.5 -41.5t-27.5 -116.5q-7 -108 -2 -370q0 -51 25 -60q12 -4 20 -13t6 -16q-5 -13 -50 -9q-22 3 -72.5 3t-83.5 -4
q-35 -3 -40 13q-2 6 1.5 13t10.5 9q45 11 64.5 28.5t22.5 52.5q3 44 3 244q0 17 -3 21.5t-12 4.5q-11 0 -28 -0.5t-18 -0.5q-13 0 -4 23q8 18 18 21q11 4 39 4q9 0 12 4.5t4 15.5q12 89 74 161.5t150 72.5z" />
    <glyph glyph-name="agrave" unicode="&#xe0;" horiz-adv-x="498" 
d="M311 513q4 -5 3 -12t-4 -10q-8 -9 -39 12q-40 22 -122 62q-6 2 -4.5 10.5t11.5 13.5q16 8 49 13q21 3 30 0t20 -16q3 -4 13 -19.5t19.5 -27.5t23.5 -26zM117 454q10 0 16 -16q5 -15 34 -15q21 0 64 6t65 6q43 0 71 -20t27 -50q-6 -208 -6 -224q0 -57 16 -57q8 0 19 11
q9 8 26 27q15 12 22 9q11 -2 5 -14q-14 -38 -60 -82.5t-78 -44.5q-22 0 -29.5 14t-7.5 43q0 3 -2.5 8t-5.5 5q-8 0 -14 -8q-25 -29 -60 -47.5t-69 -18.5q-119 0 -119 112q0 40 30 71.5t70 42.5q83 23 138 46q37 16 37 63q1 26 -10 37t-42 10q-22 -1 -71 -10.5t-75 -9.5
q-35 0 -30 37q8 39 22 57q7 12 17 12zM125 109q0 -65 64 -65q28 0 62.5 32.5t42.5 67.5q8 39 7 71q0 16 -17 9l-37.5 -15t-36.5 -13.5t-32 -11.5q-53 -22 -53 -75z" />
    <glyph glyph-name="aacute" unicode="&#xe1;" horiz-adv-x="498" 
d="M117 454q10 0 16 -16q5 -15 34 -15q21 0 64 6t65 6q43 0 71 -20t27 -50q-6 -208 -6 -224q0 -57 16 -57q8 0 19 11q9 8 26 27q15 12 22 9q11 -2 5 -14q-14 -38 -60 -82.5t-78 -44.5q-22 0 -29.5 14t-7.5 43q0 3 -2.5 8t-5.5 5q-8 0 -14 -8q-25 -29 -60 -47.5t-69 -18.5
q-119 0 -119 112q0 40 30 71.5t70 42.5q83 23 138 46q37 16 37 63q1 26 -10 37t-42 10q-22 -1 -71 -10.5t-75 -9.5q-35 0 -30 37q8 39 22 57q7 12 17 12zM125 109q0 -65 64 -65q28 0 62.5 32.5t42.5 67.5q8 39 7 71q0 16 -17 9l-37.5 -15t-36.5 -13.5t-32 -11.5
q-53 -22 -53 -75zM197 494q-2 0 -3.5 2t-1 7t4.5 10l43 74q14 22 36 29q29 9 83 9q10 -1 8.5 -10.5t-7.5 -13.5q-83 -54 -132 -103q-15 -15 -31 -4z" />
    <glyph glyph-name="acircumflex" unicode="&#xe2;" horiz-adv-x="498" 
d="M138 508q-11 18 12 36q9 7 43.5 36.5t46.5 37.5q16 11 33 -2q12 -10 33.5 -32t36.5 -33q8 -7 12.5 -19t-0.5 -19q-9 -10 -24 -1q-52 33 -59 37q-18 8 -40 1q-18 -5 -64 -37q-23 -15 -30 -5zM117 454q10 0 16 -16q5 -15 34 -15q21 0 64 6t65 6q43 0 71 -20t27 -50
q-6 -208 -6 -224q0 -57 16 -57q8 0 19 11q9 8 26 27q15 12 22 9q11 -2 5 -14q-14 -38 -60 -82.5t-78 -44.5q-22 0 -29.5 14t-7.5 43q0 3 -2.5 8t-5.5 5q-8 0 -14 -8q-25 -29 -60 -47.5t-69 -18.5q-119 0 -119 112q0 40 30 71.5t70 42.5q83 23 138 46q37 16 37 63
q1 26 -10 37t-42 10q-22 -1 -71 -10.5t-75 -9.5q-35 0 -30 37q8 39 22 57q7 12 17 12zM125 109q0 -65 64 -65q28 0 62.5 32.5t42.5 67.5q8 39 7 71q0 16 -17 9l-37.5 -15t-36.5 -13.5t-32 -11.5q-53 -22 -53 -75z" />
    <glyph glyph-name="atilde" unicode="&#xe3;" horiz-adv-x="498" 
d="M124 516q-8 9 6 35q37 51 76 51q36 0 61 -14q27 -13 47 -13q24 0 42 16q2 2 8 7.5t7 6.5t7 4t8 0q14 -2 5 -27q-12 -28 -38 -48.5t-46 -20.5q-26 0 -55 13q-33 14 -55 14q-26 0 -50 -24q-12 -12 -23 0zM117 454q10 0 16 -16q5 -15 34 -15q21 0 64 6t65 6q43 0 71 -20
t27 -50q-6 -208 -6 -224q0 -57 16 -57q8 0 19 11q9 8 26 27q15 12 22 9q11 -2 5 -14q-14 -38 -60 -82.5t-78 -44.5q-22 0 -29.5 14t-7.5 43q0 3 -2.5 8t-5.5 5q-8 0 -14 -8q-25 -29 -60 -47.5t-69 -18.5q-119 0 -119 112q0 40 30 71.5t70 42.5q83 23 138 46q37 16 37 63
q1 26 -10 37t-42 10q-22 -1 -71 -10.5t-75 -9.5q-35 0 -30 37q8 39 22 57q7 12 17 12zM125 109q0 -65 64 -65q28 0 62.5 32.5t42.5 67.5q8 39 7 71q0 16 -17 9l-37.5 -15t-36.5 -13.5t-32 -11.5q-53 -22 -53 -75z" />
    <glyph glyph-name="adieresis" unicode="&#xe4;" horiz-adv-x="498" 
d="M166 616q40 0 42 -34q2 -27 -23 -47q-22 -22 -41 -22q-13 0 -20.5 16t-7.5 37q2 18 17 34t33 16zM335 616q40 0 42 -34q2 -27 -23 -47q-22 -22 -41 -22q-13 0 -20.5 16t-7.5 37q2 18 16.5 34t33.5 16zM117 454q10 0 16 -16q5 -15 34 -15q21 0 64 6t65 6q43 0 71 -20
t27 -50q-6 -208 -6 -224q0 -57 16 -57q8 0 19 11q9 8 26 27q15 12 22 9q11 -2 5 -14q-14 -38 -60 -82.5t-78 -44.5q-22 0 -29.5 14t-7.5 43q0 3 -2.5 8t-5.5 5q-8 0 -14 -8q-25 -29 -60 -47.5t-69 -18.5q-119 0 -119 112q0 40 30 71.5t70 42.5q83 23 138 46q37 16 37 63
q1 26 -10 37t-42 10q-22 -1 -71 -10.5t-75 -9.5q-35 0 -30 37q8 39 22 57q7 12 17 12zM125 109q0 -65 64 -65q28 0 62.5 32.5t42.5 67.5q8 39 7 71q0 16 -17 9l-37.5 -15t-36.5 -13.5t-32 -11.5q-53 -22 -53 -75z" />
    <glyph glyph-name="aring" unicode="&#xe5;" horiz-adv-x="498" 
d="M238 490q-105 0 -105 73q0 43 39.5 65.5t81.5 22.5t72 -16.5t30 -54.5q0 -40 -39 -65t-79 -25zM248 617q-25 0 -40 -12.5t-15 -33.5t12.5 -34t37.5 -13q22 0 36.5 14t14.5 41q0 17 -13 27.5t-33 10.5zM117 454q10 0 16 -16q5 -15 34 -15q21 0 64 6t65 6q43 0 71 -20
t27 -50q-6 -208 -6 -224q0 -57 16 -57q8 0 19 11q9 8 26 27q15 12 22 9q11 -2 5 -14q-14 -38 -60 -82.5t-78 -44.5q-22 0 -29.5 14t-7.5 43q0 3 -2.5 8t-5.5 5q-8 0 -14 -8q-25 -29 -60 -47.5t-69 -18.5q-119 0 -119 112q0 40 30 71.5t70 42.5q83 23 138 46q37 16 37 63
q1 26 -10 37t-42 10q-22 -1 -71 -10.5t-75 -9.5q-35 0 -30 37q8 39 22 57q7 12 17 12zM125 109q0 -65 64 -65q28 0 62.5 32.5t42.5 67.5q8 39 7 71q0 16 -17 9l-37.5 -15t-36.5 -13.5t-32 -11.5q-53 -22 -53 -75z" />
    <glyph glyph-name="ae" unicode="&#xe6;" horiz-adv-x="723" 
d="M113 444q11 0 17 -16q5 -16 34 -16q21 0 63 6.5t65 6.5q40 0 65 -18t27 -47q1 -6 7.5 -5.5t11.5 5.5q54 69 123 69q84 0 117 -51t21 -110q-4 -29 -24 -29q-204 -3 -221 -3t-20.5 -1.5t-5.5 -9.5q-4 -13 -4 -34q2 -63 35.5 -101.5t91.5 -38.5q81 0 111 26q3 3 13.5 11
t14.5 12q11 11 20 4q11 -6 6 -13q-6 -14 -36 -46.5t-42 -36.5q-37 -15 -105 -15q-116 0 -164 79q-10 14 -21 -2l-8 -8t-11.5 -11t-14.5 -12.5t-19 -14t-22 -12t-26 -10.5t-29 -7t-33 -3q-119 0 -119 107q0 42 25.5 77t65.5 52q64 26 159 33q6 1 9.5 1.5t5 2.5t2 3.5t1 5.5
t0.5 6q1 7 3 31q0 25 -13.5 36.5t-45.5 10.5q-23 -1 -68 -9.5t-72 -8.5q-22 0 -26.5 9.5t-0.5 30.5q8 37 19 53q9 11 18 11zM128 109q0 -29 15 -46.5t43 -17.5q32 0 64 21.5t42 63.5q8 42 6 85q0 12 -21 12q-61 -2 -105 -22q-44 -22 -44 -96zM579 293q-2 41 -20.5 64.5
t-48.5 23.5q-39 0 -74.5 -35t-35.5 -70q0 -8 12 -8l144 5q14 1 18.5 4.5t4.5 15.5z" />
    <glyph glyph-name="ccedilla" unicode="&#xe7;" horiz-adv-x="429" 
d="M239 -12q-1 -3 -4 -10t-5 -12q-7 -15 16 -23q43 -18 43 -63q0 -69 -110 -87q-10 -2 -16 1.5t-4 10.5q5 19 18 21q20 2 36 11.5t16 20.5q0 22 -54 39q-21 8 -9 25q2 4 16.5 28.5t19.5 35.5q5 9 -3 11q-79 7 -124.5 59t-41.5 142q2 57 28 106t62.5 78.5t73.5 46t67 16.5
q103 0 113 -52q4 -25 -17.5 -52.5t-48.5 -38.5q-12 -7 -21 4q-4 7 5 20q9 11 9 37q0 34 -57 34q-51 0 -87.5 -51.5t-36.5 -140.5q0 -149 118 -149q90 0 128 42q7 10 15 10q13 -2 10 -17q-2 -14 -43 -58q-25 -26 -53 -30q-23 -6 -50 -6q-5 -1 -9 -9z" />
    <glyph glyph-name="egrave" unicode="&#xe8;" horiz-adv-x="451" 
d="M311 513q4 -5 3 -12t-4 -10q-8 -9 -39 12q-40 22 -122 62q-6 2 -4.5 10.5t11.5 13.5q16 8 49 13q21 3 30 0t20 -16q3 -4 13 -19.5t19.5 -27.5t23.5 -26zM244 56q80 0 111 25q14 10 28 24q11 11 19 5q4 -1 6.5 -6t0.5 -8q-7 -15 -36.5 -49.5t-41.5 -38.5q-37 -15 -105 -15
q-90 -1 -141 48.5t-51 143.5q0 103 71 176t150 73q57 0 92 -29.5t44 -67t1 -74.5q-2 -10 -5 -17q-2 -7 -18 -7q-204 -3 -213 -3q-18 0 -22 -1.5t-6 -9.5q-3 -10 -3 -34q2 -63 31.5 -99t87.5 -36zM310 299q-3 89 -71 89q-32 0 -60 -22t-41 -68q-4 -10 -2.5 -18t12.5 -7l141 6
q13 0 17 4t4 16z" />
    <glyph glyph-name="eacute" unicode="&#xe9;" horiz-adv-x="451" 
d="M244 56q80 0 111 25q14 10 28 24q11 11 19 5q4 -1 6.5 -6t0.5 -8q-7 -15 -36.5 -49.5t-41.5 -38.5q-37 -15 -105 -15q-90 -1 -141 48.5t-51 143.5q0 103 71 176t150 73q57 0 92 -29.5t44 -67t1 -74.5q-2 -10 -5 -17q-2 -7 -18 -7q-204 -3 -213 -3q-18 0 -22 -1.5t-6 -9.5
q-3 -10 -3 -34q2 -63 31.5 -99t87.5 -36zM310 299q-3 89 -71 89q-32 0 -60 -22t-41 -68q-4 -10 -2.5 -18t12.5 -7l141 6q13 0 17 4t4 16zM196 494q-2 0 -3 2t-0.5 6.5t3.5 10.5l43 74q13 21 36 29q29 9 84 9q9 -1 7.5 -10.5t-7.5 -13.5q-83 -54 -132 -103q-15 -15 -31 -4z
" />
    <glyph glyph-name="ecircumflex" unicode="&#xea;" horiz-adv-x="451" 
d="M135 508q-11 17 11 35q11 8 45 37.5t46 36.5q16 12 32 -2q12 -10 33.5 -32t36.5 -33q8 -7 13 -19t0 -18q-8 -11 -25 -2q-55 36 -58 37q-19 8 -40 1q-8 -2 -65 -36q-6 -5 -15 -7.5t-14 2.5zM244 56q80 0 111 25q14 10 28 24q11 11 19 5q4 -1 6.5 -6t0.5 -8
q-7 -15 -36.5 -49.5t-41.5 -38.5q-37 -15 -105 -15q-90 -1 -141 48.5t-51 143.5q0 103 71 176t150 73q57 0 92 -29.5t44 -67t1 -74.5q-2 -10 -5 -17q-2 -7 -18 -7q-204 -3 -213 -3q-18 0 -22 -1.5t-6 -9.5q-3 -10 -3 -34q2 -63 31.5 -99t87.5 -36zM310 299q-3 89 -71 89
q-32 0 -60 -22t-41 -68q-4 -10 -2.5 -18t12.5 -7l141 6q13 0 17 4t4 16z" />
    <glyph glyph-name="edieresis" unicode="&#xeb;" horiz-adv-x="451" 
d="M171 612q40 0 42 -35q2 -26 -23 -47q-24 -22 -41 -22q-13 0 -20.5 16t-7.5 38q2 17 17 33.5t33 16.5zM340 612q40 0 42 -35q2 -26 -23 -47q-24 -22 -41 -22q-13 0 -20.5 16t-7.5 38q2 17 17 33.5t33 16.5zM244 56q80 0 111 25q14 10 28 24q11 11 19 5q4 -1 6.5 -6t0.5 -8
q-7 -15 -36.5 -49.5t-41.5 -38.5q-37 -15 -105 -15q-90 -1 -141 48.5t-51 143.5q0 103 71 176t150 73q57 0 92 -29.5t44 -67t1 -74.5q-2 -10 -5 -17q-2 -7 -18 -7q-204 -3 -213 -3q-18 0 -22 -1.5t-6 -9.5q-3 -10 -3 -34q2 -63 31.5 -99t87.5 -36zM310 299q-3 89 -71 89
q-32 0 -60 -22t-41 -68q-4 -10 -2.5 -18t12.5 -7l141 6q13 0 17 4t4 16z" />
    <glyph glyph-name="igrave" unicode="&#xec;" horiz-adv-x="308" 
d="M199 513q4 -5 3 -12t-4 -10q-9 -11 -39 12q-70 51 -122 78q-6 2 -4.5 11t11.5 12q26 10 36 11q21 4 32 2t22 -15q4 -5 15.5 -23.5t24 -35t25.5 -30.5zM33 403q17 5 69 17t61 14q45 10 45 -17q0 -6 -3.5 -125.5t-2.5 -161.5q3 -59 9 -69q5 -6 13 -10q26 -14 50 -17
q6 -1 10.5 -6.5t3.5 -11.5q-4 -19 -34 -16q-127 9 -214 -2q-10 -1 -15.5 3.5t-5.5 11.5q0 13 26 18q29 7 42.5 16t15 15.5t1.5 21.5q6 155 0 276q-1 24 -27 22q-2 0 -6.5 -1t-12.5 -3t-14 -3q-8 -3 -14 -0.5t-7 8.5t2 12.5t8 7.5z" />
    <glyph glyph-name="iacute" unicode="&#xed;" horiz-adv-x="308" 
d="M33 403q17 5 69 17t61 14q45 10 45 -17q0 -6 -3.5 -125.5t-2.5 -161.5q3 -59 9 -69q5 -6 13 -10q26 -14 50 -17q6 -1 10.5 -6.5t3.5 -11.5q-4 -19 -34 -16q-127 9 -214 -2q-10 -1 -15.5 3.5t-5.5 11.5q0 13 26 18q29 7 42.5 16t15 15.5t1.5 21.5q6 155 0 276
q-1 24 -27 22q-2 0 -6.5 -1t-12.5 -3t-14 -3q-8 -3 -14 -0.5t-7 8.5t2 12.5t8 7.5zM123 494q-2 0 -3.5 2t-1 7t4.5 10l43 74q14 22 36 29q29 9 83 9q10 -1 8.5 -10.5t-7.5 -13.5q-83 -54 -132 -103q-15 -15 -31 -4z" />
    <glyph glyph-name="icircumflex" unicode="&#xee;" horiz-adv-x="308" 
d="M35 508q-11 17 12 35q11 8 44.5 37.5t45.5 36.5q16 11 33 -2q12 -10 33.5 -32t36.5 -33q8 -7 12.5 -19t0.5 -18q-8 -11 -25 -2q-53 34 -59 37q-17 8 -39 1q-8 -2 -65 -36q-6 -5 -15.5 -7.5t-14.5 2.5zM33 403q17 5 69 17t61 14q45 10 45 -17q0 -6 -3.5 -125.5
t-2.5 -161.5q3 -59 9 -69q5 -6 13 -10q26 -14 50 -17q6 -1 10.5 -6.5t3.5 -11.5q-4 -19 -34 -16q-127 9 -214 -2q-10 -1 -15.5 3.5t-5.5 11.5q0 13 26 18q29 7 42.5 16t15 15.5t1.5 21.5q6 155 0 276q-1 24 -27 22q-2 0 -6.5 -1t-12.5 -3t-14 -3q-8 -3 -14 -0.5t-7 8.5
t2 12.5t8 7.5z" />
    <glyph glyph-name="idieresis" unicode="&#xef;" horiz-adv-x="308" 
d="M76 616q40 0 42 -34q2 -27 -23 -47q-22 -22 -41 -22q-13 0 -20.5 16t-7.5 37q2 18 17 34t33 16zM245 616q40 0 42 -34q2 -27 -23 -47q-22 -22 -41 -22q-13 0 -20.5 16t-7.5 37q2 18 16.5 34t33.5 16zM33 403q17 5 69 17t61 14q45 10 45 -17q0 -6 -3.5 -125.5t-2.5 -161.5
q3 -59 9 -69q5 -6 13 -10q26 -14 50 -17q6 -1 10.5 -6.5t3.5 -11.5q-4 -19 -34 -16q-127 9 -214 -2q-10 -1 -15.5 3.5t-5.5 11.5q0 13 26 18q29 7 42.5 16t15 15.5t1.5 21.5q6 155 0 276q-1 24 -27 22q-2 0 -6.5 -1t-12.5 -3t-14 -3q-8 -3 -14 -0.5t-7 8.5t2 12.5t8 7.5z
" />
    <glyph glyph-name="eth" unicode="&#xf0;" horiz-adv-x="503" 
d="M215 -15q-76 0 -125.5 50.5t-49.5 142.5q-1 99 61 170.5t153 78.5q13 0 20.5 -1.5t10 -4.5t4.5 -9q3 -11 -5 -17.5t-21 -8.5q-70 -9 -97.5 -61.5t-27.5 -146.5q0 -139 97 -139q53 0 94 48.5t41 159.5q0 160 -87 275q-13 17 -39 9q-20 -6 -61 -22.5t-60 -22.5
q-35 -13 -43 2q-2 4 3.5 13t9.5 11q86 31 133 55q5 3 6.5 9.5t-1.5 9.5q-35 43 -88 43q-31 0 -67 -18q-12 -6 -24 6q-2 2 -0.5 9t5.5 10q14 7 36 21t37 21q34 17 56 17q66 0 133 -69q11 -11 16 -12t18 5q25 10 47 29q12 10 18.5 5.5t4.5 -18.5q-3 -39 -39 -52
q-31 -9 -20 -22q90 -114 90 -286q0 -122 -68 -206t-171 -84z" />
    <glyph glyph-name="ntilde" unicode="&#xf1;" horiz-adv-x="602" 
d="M184 518q-10 11 6 35q37 51 76 51q31 0 61 -16q27 -13 47 -13q24 0 42 16q2 2 8 7.5t7 6.5t7 4t8 0q5 -1 7 -8t-3 -19q-12 -28 -37.5 -48.5t-45.5 -20.5q-27 0 -56 13q-36 16 -54 16q-26 0 -50 -24q-14 -12 -23 0zM507 81q2 -40 51 -51q24 -5 24 -18q0 -6 -6.5 -11
t-16.5 -5t-39.5 3t-54.5 3q-12 0 -45 -3t-44 -3q-22 0 -22 13t15 16q34 6 37 46q7 125 3 219q-2 75 -59 75q-34 0 -75 -34.5t-60 -86.5q-19 -56 -16 -158q1 -17 3 -26.5t9 -14.5t12 -6.5t18.5 -4t22.5 -4.5q11 -2 16.5 -7.5t4.5 -12.5q-2 -15 -24 -14q-84 8 -97 8
q-14 0 -65.5 -3.5t-56.5 -3.5q-6 0 -14.5 4.5t-8.5 10.5q0 10 9.5 16t21.5 6q25 1 40.5 15.5t17.5 39.5q8 99 4 249q-1 55 -63 40q-13 -4 -18 11q-3 17 16 21q23 5 71.5 14t68.5 13q10 2 16.5 -3t5.5 -12q-6 -87 -5 -91q1 -12 8 -12.5t14 9.5q91 113 160 113q55 0 87 -38.5
t31 -100.5q-1 -73 3 -221z" />
    <glyph glyph-name="ograve" unicode="&#xf2;" horiz-adv-x="492" 
d="M313 513q5 -5 4 -12t-5 -10q-8 -9 -38 12q-26 14 -122 62q-6 2 -5 10.5t11 13.5q18 8 49 13q22 3 30.5 0.5t20.5 -16.5q3 -5 13 -20t19.5 -27.5t22.5 -25.5zM222 -15q-101 0 -150 58t-49 160q0 86 67.5 163.5t178.5 77.5q94 0 144.5 -56t50.5 -134q0 -130 -72.5 -199.5
t-169.5 -69.5zM253 395q-65 0 -99.5 -49.5t-34.5 -124.5q0 -95 33.5 -142t84.5 -47q127 0 127 206q0 69 -26.5 113t-84.5 44z" />
    <glyph glyph-name="oacute" unicode="&#xf3;" horiz-adv-x="492" 
d="M199 494q-2 0 -3.5 2t-1 6.5t4.5 10.5q21 40 43 74q12 21 36 29q28 9 83 9q10 -1 8.5 -10.5t-7.5 -13.5q-83 -54 -132 -103q-16 -14 -31 -4zM222 -15q-101 0 -150 58t-49 160q0 86 67.5 163.5t178.5 77.5q94 0 144.5 -56t50.5 -134q0 -130 -72.5 -199.5t-169.5 -69.5z
M253 395q-65 0 -99.5 -49.5t-34.5 -124.5q0 -95 33.5 -142t84.5 -47q127 0 127 206q0 69 -26.5 113t-84.5 44z" />
    <glyph glyph-name="ocircumflex" unicode="&#xf4;" horiz-adv-x="492" 
d="M148 508q-11 17 12 35q11 8 44.5 37.5t45.5 36.5q16 11 33 -2q12 -10 33.5 -32t36.5 -33q8 -7 12.5 -19t-0.5 -18q-9 -12 -24 -2q-52 33 -59 37q-18 8 -40 1q-13 -4 -64 -36q-6 -5 -15.5 -7.5t-14.5 2.5zM222 -15q-101 0 -150 58t-49 160q0 86 67.5 163.5t178.5 77.5
q94 0 144.5 -56t50.5 -134q0 -130 -72.5 -199.5t-169.5 -69.5zM253 395q-65 0 -99.5 -49.5t-34.5 -124.5q0 -95 33.5 -142t84.5 -47q127 0 127 206q0 69 -26.5 113t-84.5 44z" />
    <glyph glyph-name="otilde" unicode="&#xf5;" horiz-adv-x="492" 
d="M123 516q-9 11 7 35q36 51 75 51q37 0 61 -14q27 -13 47 -13q24 0 42 16q2 2 6.5 6t6 5.5t6 4.5t6 2.5t6.5 -0.5q13 -3 4 -27q-12 -28 -38 -48.5t-46 -20.5q-26 0 -55 13q-31 14 -55 14t-50 -24q-12 -12 -23 0zM222 -15q-101 0 -150 58t-49 160q0 86 67.5 163.5
t178.5 77.5q94 0 144.5 -56t50.5 -134q0 -130 -72.5 -199.5t-169.5 -69.5zM253 395q-65 0 -99.5 -49.5t-34.5 -124.5q0 -95 33.5 -142t84.5 -47q127 0 127 206q0 69 -26.5 113t-84.5 44z" />
    <glyph glyph-name="odieresis" unicode="&#xf6;" horiz-adv-x="492" 
d="M179 616q42 0 42 -34q2 -28 -22 -47q-22 -22 -42 -22q-27 0 -27 53q2 18 16.5 34t32.5 16zM348 616q41 0 43 -34q0 -28 -23 -47q-22 -22 -41 -22q-28 0 -28 53q2 18 16.5 34t32.5 16zM222 -15q-101 0 -150 58t-49 160q0 86 67.5 163.5t178.5 77.5q94 0 144.5 -56
t50.5 -134q0 -130 -72.5 -199.5t-169.5 -69.5zM253 395q-65 0 -99.5 -49.5t-34.5 -124.5q0 -95 33.5 -142t84.5 -47q127 0 127 206q0 69 -26.5 113t-84.5 44z" />
    <glyph glyph-name="divide" unicode="&#xf7;" horiz-adv-x="421" 
d="M45 258q-16 0 -21.5 4.5t-1.5 14.5q12 24 40 24q148 2 282 15q5 0 14 1.5t13 1.5t8.5 -0.5t6.5 -3.5t2 -9t-8 -19t-19 -19q-11 -7 -37 -7q-141 -3 -279 -3zM210 165q17 0 29 -8t12 -22q0 -21 -15 -32t-35 -11q-42 0 -42 35q0 18 17 28t34 10zM209 467q17 0 29 -7.5
t12 -20.5q0 -21 -15 -32t-35 -11q-41 0 -41 34q0 17 17 27t33 10z" />
    <glyph glyph-name="oslash" unicode="&#xf8;" horiz-adv-x="492" 
d="M215 -15q-80 0 -128 37q-5 4 -9 4t-6.5 -1.5t-7 -6.5t-7.5 -7q-35 -32 -61 -25q-12 9 -6 19t39 39q2 2 5.5 5t5.5 5t4 4.5t1.5 6t-2.5 7.5q-28 53 -28 131q0 86 67.5 163.5t178.5 77.5q74 0 126 -40q3 4 43 60q7 8 18.5 5t15.5 -12q4 -8 -20 -61q-11 -21 -20 -32
q32 -49 32 -110q0 -130 -72 -199.5t-169 -69.5zM246 396q-70 0 -104 -49t-34 -126q0 -49 8 -80q4 -12 14 -2q38 38 108.5 113t85.5 90q8 7 1 17q-31 37 -79 37zM230 32q57 0 94.5 46t37.5 160q0 34 -8 50q-5 8 -12 1q-28 -27 -94.5 -95t-100.5 -101q-8 -8 -3 -15
q33 -46 86 -46z" />
    <glyph glyph-name="ugrave" unicode="&#xf9;" 
d="M310 513q4 -5 3 -12t-4 -10q-8 -9 -39 12q-79 44 -122 65q-6 3 -4.5 11.5t11.5 13.5q19 7 49 9q22 2 30.5 -0.5t19.5 -15.5q3 -4 13 -19.5t19.5 -27.5t23.5 -26zM304 413q124 26 134 26q19 0 24 -5.5t5 -21.5q0 -41 -3.5 -143t-2.5 -152q1 -42 12 -56.5t39 -9.5q8 3 20 1
t13 -12q2 -15 -15 -21q-96 -29 -128 -29q-13 0 -19.5 5t-8 10t-3.5 19q-2 22 4 54q1 7 -3.5 11t-10.5 3t-9 -5q-75 -100 -153 -100q-60 0 -92.5 36t-32.5 100q0 33 3 103t1 126q-1 18 -15.5 28.5t-41.5 5.5q-8 -1 -19 1.5t-11 9.5q-1 7 3.5 12.5t11.5 6.5q11 1 73.5 12
t72.5 11q6 0 8.5 -0.5t6 -2t5 -6t1.5 -12.5q1 -11 -3.5 -132.5t-4.5 -139.5q0 -88 77 -88q43 0 81 48t46 102q10 73 4 147q-2 24 -22 29t-39 -1q-15 -3 -22 8q-2 4 2.5 12.5t11.5 9.5z" />
    <glyph glyph-name="uacute" unicode="&#xfa;" 
d="M304 413q124 26 134 26q19 0 24 -5.5t5 -21.5q0 -41 -3.5 -143t-2.5 -152q1 -42 12 -56.5t39 -9.5q8 3 20 1t13 -12q2 -15 -15 -21q-96 -29 -128 -29q-13 0 -19.5 5t-8 10t-3.5 19q-2 22 4 54q1 7 -3.5 11t-10.5 3t-9 -5q-75 -100 -153 -100q-60 0 -92.5 36t-32.5 100
q0 33 3 103t1 126q-1 18 -15.5 28.5t-41.5 5.5q-8 -1 -19 1.5t-11 9.5q-1 7 3.5 12.5t11.5 6.5q11 1 73.5 12t72.5 11q6 0 8.5 -0.5t6 -2t5 -6t1.5 -12.5q1 -11 -3.5 -132.5t-4.5 -139.5q0 -88 77 -88q43 0 81 48t46 102q10 73 4 147q-2 24 -22 29t-39 -1q-15 -3 -22 8
q-2 4 2.5 12.5t11.5 9.5zM223 494q-2 0 -3.5 2t-1 7t4.5 10l43 74q13 21 36 29q29 9 84 9q9 -1 7.5 -10.5t-7.5 -13.5q-83 -54 -132 -103q-15 -15 -31 -4z" />
    <glyph glyph-name="ucircumflex" unicode="&#xfb;" 
d="M155 508q-11 17 12 35q9 7 43.5 36.5t46.5 37.5q16 11 33 -2q10 -9 32 -31t37 -34q8 -7 13 -19t0 -18q-9 -12 -24 -2q-12 8 -25.5 16.5t-20.5 13t-13 7.5q-19 8 -40 1q-8 -2 -65 -36q-6 -5 -15 -7.5t-14 2.5zM304 413q124 26 134 26q19 0 24 -5.5t5 -21.5
q0 -41 -3.5 -143t-2.5 -152q1 -42 12 -56.5t39 -9.5q8 3 20 1t13 -12q2 -15 -15 -21q-96 -29 -128 -29q-13 0 -19.5 5t-8 10t-3.5 19q-2 22 4 54q1 7 -3.5 11t-10.5 3t-9 -5q-75 -100 -153 -100q-60 0 -92.5 36t-32.5 100q0 33 3 103t1 126q-1 18 -15.5 28.5t-41.5 5.5
q-8 -1 -19 1.5t-11 9.5q-1 7 3.5 12.5t11.5 6.5q11 1 73.5 12t72.5 11q6 0 8.5 -0.5t6 -2t5 -6t1.5 -12.5q1 -11 -3.5 -132.5t-4.5 -139.5q0 -88 77 -88q43 0 81 48t46 102q10 73 4 147q-2 24 -22 29t-39 -1q-15 -3 -22 8q-2 4 2.5 12.5t11.5 9.5z" />
    <glyph glyph-name="udieresis" unicode="&#xfc;" 
d="M193 618q40 0 42 -35q2 -26 -23 -47q-24 -22 -41 -22q-13 0 -20.5 16t-7.5 38q2 17 17 33.5t33 16.5zM362 618q40 0 42 -35q2 -26 -23 -47q-24 -22 -41 -22q-13 0 -20.5 16t-7.5 38q2 17 17 33.5t33 16.5zM304 413q124 26 134 26q19 0 24 -5.5t5 -21.5q0 -41 -3.5 -143
t-2.5 -152q1 -42 12 -56.5t39 -9.5q8 3 20 1t13 -12q2 -15 -15 -21q-96 -29 -128 -29q-13 0 -19.5 5t-8 10t-3.5 19q-2 22 4 54q1 7 -3.5 11t-10.5 3t-9 -5q-75 -100 -153 -100q-60 0 -92.5 36t-32.5 100q0 33 3 103t1 126q-1 18 -15.5 28.5t-41.5 5.5q-8 -1 -19 1.5
t-11 9.5q-1 7 3.5 12.5t11.5 6.5q11 1 73.5 12t72.5 11q6 0 8.5 -0.5t6 -2t5 -6t1.5 -12.5q1 -11 -3.5 -132.5t-4.5 -139.5q0 -88 77 -88q43 0 81 48t46 102q10 73 4 147q-2 24 -22 29t-39 -1q-15 -3 -22 8q-2 4 2.5 12.5t11.5 9.5z" />
    <glyph glyph-name="yacute" unicode="&#xfd;" horiz-adv-x="482" 
d="M69 -274q-28 0 -46.5 21t-18.5 48q0 49 36 83q12 11 24.5 14t16.5 -1t4 -10.5t-6 -12.5q-16 -14 -10.5 -36t23.5 -22q29 0 55 33.5t39 67.5t20 64q5 20 -6 54q-3 18 -55.5 159.5t-66.5 166.5q-23 41 -68 47q-20 4 -20 21q0 16 44 10q25 -4 55.5 -4t64.5 2t47 2
q18 0 6 -19q-5 -10 -16 -18q-16 -15 -6 -52q40 -137 73 -212q4 -11 12.5 -13t12.5 6q49 90 71 202q12 60 -17 69q-34 9 -34 21q0 19 38 14q72 -7 123 0q6 1 10.5 -1t6 -4t1.5 -3q0 -15 -14 -25q-18 -14 -46 -64q-22 -39 -88.5 -189.5t-89.5 -192.5q-5 -11 -23 -51.5
t-34 -73.5t-25 -45q-1 -2 -8.5 -10.5t-10.5 -11.5l-10 -10t-12.5 -10t-14 -7t-17.5 -5.5t-20 -1.5zM241 494q-2 0 -3.5 2t-1 6.5t4.5 10.5l43 74q12 21 36 29q28 9 83 9q10 -1 8.5 -10.5t-7.5 -13.5q-83 -54 -132 -103q-16 -14 -31 -4z" />
    <glyph glyph-name="thorn" unicode="&#xfe;" horiz-adv-x="527" 
d="M191 2q-14 3 -20.5 1t-7.5 -12t-1 -31q0 -37 9 -123q1 -8 7 -29t7 -28q7 -25 -10 -34q-14 -6 -46 -11.5t-45 -5.5q-16 0 -21 12q-12 25 -5 97q9 68 12 145q13 329 1 601q-3 42 -9 49q-10 12 -55 9q-16 -1 -20 13q0 17 18 21q21 4 70 10.5t70 11.5q26 0 30.5 -14t-2.5 -38
q-11 -68 -11 -318q0 -10 4.5 -13t11 1t11.5 12q30 46 73 83t86 37q65 0 100.5 -42t35.5 -145q0 -109 -71.5 -188.5t-158.5 -79.5q-27 0 -63 9zM320 374q-54 0 -110 -83q-49 -69 -49 -139q0 -15 0.5 -36.5t0.5 -25.5q0 -12 3 -16t12 -8q3 -2 11 -6l11 -5.5t10 -4.5t11.5 -4
t11 -2.5t14 -2t15.5 -0.5q130 0 130 209q0 65 -20.5 94.5t-50.5 29.5z" />
    <glyph glyph-name="ydieresis" unicode="&#xff;" horiz-adv-x="482" 
d="M189 616q42 0 42 -34q2 -28 -22 -47q-22 -22 -41 -22q-28 0 -28 53q2 18 16.5 34t32.5 16zM359 616q40 0 42 -34q2 -27 -23 -47q-22 -22 -41 -22q-28 0 -28 53q2 18 16.5 34t33.5 16zM69 -274q-28 0 -46.5 21t-18.5 48q0 49 36 83q12 11 24.5 14t16.5 -1t4 -10.5
t-6 -12.5q-16 -14 -10.5 -36t23.5 -22q29 0 55 33.5t39 67.5t20 64q5 20 -6 54q-3 18 -55.5 159.5t-66.5 166.5q-23 41 -68 47q-20 4 -20 21q0 16 44 10q25 -4 55.5 -4t64.5 2t47 2q18 0 6 -19q-5 -10 -16 -18q-16 -15 -6 -52q40 -137 73 -212q4 -11 12.5 -13t12.5 6
q49 90 71 202q12 60 -17 69q-34 9 -34 21q0 19 38 14q72 -7 123 0q6 1 10.5 -1t6 -4t1.5 -3q0 -15 -14 -25q-18 -14 -46 -64q-22 -39 -88.5 -189.5t-89.5 -192.5q-5 -11 -23 -51.5t-34 -73.5t-25 -45q-1 -2 -8.5 -10.5t-10.5 -11.5l-10 -10t-12.5 -10t-14 -7t-17.5 -5.5
t-20 -1.5z" />
    <glyph glyph-name="Amacron" unicode="&#x100;" horiz-adv-x="715" 
d="M322 567q29 31 64 37q15 3 21.5 -3.5t13.5 -26.5q10 -30 89.5 -230.5t87.5 -216.5q12 -25 16.5 -33.5t16.5 -24.5t27.5 -23.5t38.5 -12.5q10 0 10 -17q0 -9 -8 -14t-15 -4q-25 4 -56.5 5t-53 0t-55 -3.5t-45.5 -3.5q-23 0 -23 12q0 16 9 18q25 9 32.5 19t4.5 32
q-1 14 -14 48t-19 43q-10 12 -19 15q-2 0 -5 1q-20 2 -91.5 2.5t-86.5 -0.5q-27 -1 -38 -14q-20 -26 -32.5 -65.5t0.5 -61.5q1 -3 17.5 -13t16.5 -19q0 -8 -6.5 -12t-16.5 -2q-55 10 -165 1q-30 -3 -30 13t25 22q45 17 84 66q71 80 188 354q19 42 8 74q-3 10 0.5 22t8.5 16z
M354 440q-8 0 -21 -26q-76 -153 -80 -172q-2 -13 0.5 -18t13.5 -5q113 0 162 2q11 2 13.5 6t-2.5 18q-33 96 -70 178q-8 17 -16 17zM259 642q-15 0 -19 4t2 18q7 20 30 20q147 2 213 8q4 0 10 1t9.5 1.5t7.5 0t5.5 -3.5t1.5 -8q0 -18 -22 -32q-8 -6 -27 -6q-54 -3 -211 -3z
" />
    <glyph glyph-name="amacron" unicode="&#x101;" horiz-adv-x="498" 
d="M117 454q10 0 16 -16q5 -15 34 -15q21 0 64 6t65 6q43 0 71 -20t27 -50q-6 -208 -6 -224q0 -57 16 -57q8 0 19 11q9 8 26 27q15 12 22 9q11 -2 5 -14q-14 -38 -60 -82.5t-78 -44.5q-22 0 -29.5 14t-7.5 43q0 3 -2.5 8t-5.5 5q-8 0 -14 -8q-25 -29 -60 -47.5t-69 -18.5
q-119 0 -119 112q0 40 30 71.5t70 42.5q83 23 138 46q37 16 37 63q1 26 -10 37t-42 10q-22 -1 -71 -10.5t-75 -9.5q-35 0 -30 37q8 39 22 57q7 12 17 12zM125 109q0 -65 64 -65q28 0 62.5 32.5t42.5 67.5q8 39 7 71q0 16 -17 9l-37.5 -15t-36.5 -13.5t-32 -11.5
q-53 -22 -53 -75zM131 508q-15 0 -19 4t2 17q9 20 30 20q171 4 206 7q5 0 13 1t11.5 1t6.5 -2.5t3 -9.5q0 -16 -21 -32q-9 -6 -28 -6h-204z" />
    <glyph glyph-name="Abreve" unicode="&#x102;" horiz-adv-x="715" 
d="M322 567q29 31 64 37q15 3 21.5 -3.5t13.5 -26.5q10 -30 89.5 -230.5t87.5 -216.5q12 -25 16.5 -33.5t16.5 -24.5t27.5 -23.5t38.5 -12.5q10 0 10 -17q0 -9 -8 -14t-15 -4q-25 4 -56.5 5t-53 0t-55 -3.5t-45.5 -3.5q-23 0 -23 12q0 16 9 18q25 9 32.5 19t4.5 32
q-1 14 -14 48t-19 43q-10 12 -19 15q-2 0 -5 1q-20 2 -91.5 2.5t-86.5 -0.5q-27 -1 -38 -14q-20 -26 -32.5 -65.5t0.5 -61.5q1 -3 17.5 -13t16.5 -19q0 -8 -6.5 -12t-16.5 -2q-55 10 -165 1q-30 -3 -30 13t25 22q45 17 84 66q71 80 188 354q19 42 8 74q-3 10 0.5 22t8.5 16z
M354 440q-8 0 -21 -26q-76 -153 -80 -172q-2 -13 0.5 -18t13.5 -5q113 0 162 2q11 2 13.5 6t-2.5 18q-33 96 -70 178q-8 17 -16 17zM483 748q12 -2 7 -27q-12 -44 -45.5 -67t-69.5 -23q-44 0 -69.5 24.5t-32.5 58.5q-7 31 8 33q16 3 26 -15q18 -27 69 -27q62 0 81 29
q9 17 26 14z" />
    <glyph glyph-name="abreve" unicode="&#x103;" horiz-adv-x="498" 
d="M117 454q10 0 16 -16q5 -15 34 -15q21 0 64 6t65 6q43 0 71 -20t27 -50q-6 -208 -6 -224q0 -57 16 -57q8 0 19 11q9 8 26 27q15 12 22 9q11 -2 5 -14q-14 -38 -60 -82.5t-78 -44.5q-22 0 -29.5 14t-7.5 43q0 3 -2.5 8t-5.5 5q-8 0 -14 -8q-25 -29 -60 -47.5t-69 -18.5
q-119 0 -119 112q0 40 30 71.5t70 42.5q83 23 138 46q37 16 37 63q1 26 -10 37t-42 10q-22 -1 -71 -10.5t-75 -9.5q-35 0 -30 37q8 39 22 57q7 12 17 12zM125 109q0 -65 64 -65q28 0 62.5 32.5t42.5 67.5q8 39 7 71q0 16 -17 9l-37.5 -15t-36.5 -13.5t-32 -11.5
q-53 -22 -53 -75zM338 605q12 -2 7 -28q-12 -44 -45.5 -66.5t-69.5 -22.5q-43 0 -69 24.5t-33 58.5q-6 31 8 33q16 3 26 -15q18 -28 69 -28q62 0 81 30q9 17 26 14z" />
    <glyph glyph-name="Aogonek" unicode="&#x104;" horiz-adv-x="715" 
d="M674 -130q4 -7 -1.5 -17t-15.5 -15q-39 -22 -78 -22q-92 0 -92 82q0 41 52 89q5 5 2 9.5t-13 3.5q-17 -2 -54 -4q-23 0 -23 12q0 16 9 18q25 9 32.5 19t4.5 32q-1 14 -14 48t-19 43q-10 12 -19 15q-2 0 -5 1q-20 2 -91.5 2.5t-86.5 -0.5q-27 -1 -38 -14
q-20 -26 -32.5 -65.5t0.5 -61.5q1 -3 17.5 -13t16.5 -19q0 -8 -6.5 -12t-16.5 -2q-55 10 -165 1q-30 -3 -30 13t25 22q45 17 84 66q71 80 188 354q19 42 8 74q-3 10 0.5 22t8.5 16q29 31 64 37q15 3 21.5 -3.5t13.5 -26.5q10 -30 89.5 -230.5t87.5 -216.5q12 -25 16.5 -33.5
t16.5 -24.5t27.5 -23.5t38.5 -12.5q10 0 10 -17q0 -9 -8 -14t-15 -4q-12 2 -48 4q-26 0 -35 -11q-29 -37 -28 -72q0 -25 24 -38t52 -3q17 6 25 -8zM354 440q-8 0 -21 -26q-76 -153 -80 -172q-2 -13 0.5 -18t13.5 -5q113 0 162 2q11 2 13.5 6t-2.5 18q-33 96 -70 178
q-8 17 -16 17z" />
    <glyph glyph-name="aogonek" unicode="&#x105;" horiz-adv-x="498" 
d="M430 -130q4 -7 -2 -17t-16 -15q-38 -22 -77 -22q-93 0 -93 82q0 42 61 92q4 3 5.5 4.5t2 3.5t-0.5 3t-2.5 4.5t-2.5 7.5q-4 12 -4 34q0 3 -2.5 8t-5.5 5q-8 0 -14 -8q-25 -29 -60 -47.5t-69 -18.5q-119 0 -119 112q0 40 30 71.5t70 42.5q83 23 138 46q37 16 37 63
q1 26 -10 37t-42 10q-22 -1 -71 -10.5t-75 -9.5q-35 0 -30 37q8 39 22 57q7 12 17 12t16 -16q5 -15 34 -15q21 0 64 6t65 6q43 0 71 -20t27 -50q-6 -208 -6 -224q0 -57 16 -57q8 0 19 11q9 8 26 27q15 12 22 9q11 -2 5 -14q-10 -28 -40.5 -62.5t-61.5 -52.5q-47 -27 -47 -79
q0 -29 26 -40.5t52 -4.5q17 6 25 -8zM125 109q0 -65 64 -65q28 0 62.5 32.5t42.5 67.5q8 39 7 71q0 16 -17 9l-37.5 -15t-36.5 -13.5t-32 -11.5q-53 -22 -53 -75z" />
    <glyph glyph-name="Cacute" unicode="&#x106;" horiz-adv-x="567" 
d="M38 242q0 111 49.5 195.5t124 125.5t157.5 41q69 0 105 -25t36 -71q0 -38 -50 -91q-11 -13 -23 -8q-12 7 -7 19q16 38 -6 83t-74 45q-103 0 -158.5 -78t-55.5 -184q0 -118 55.5 -177t154.5 -59q33 0 77 11q14 4 25 8.5t21 12.5t15 12.5t16.5 16.5t15.5 16q2 2 9 2.5
t10 -2.5q9 -9 5 -18q-6 -16 -30 -47t-43 -49q-11 -11 -30 -17q-50 -11 -135 -11q-127 0 -195.5 71t-68.5 178zM286 646q-2 0 -3.5 2t-0.5 7t5 10q9 12 22 34.5t15 24.5q16 23 45 28q56 8 78 8q10 0 10 -11t-10 -16q-76 -39 -130 -83q-15 -15 -31 -4z" />
    <glyph glyph-name="cacute" unicode="&#x107;" horiz-adv-x="429" 
d="M222 -8q-88 0 -140.5 55t-48.5 151q2 57 28 106t62.5 78.5t73.5 46t67 16.5q103 0 113 -52q4 -25 -17.5 -52.5t-48.5 -38.5q-12 -7 -21 4q-4 7 5 20q9 11 9 35q0 33 -58 33q-50 0 -85.5 -50t-35.5 -139q0 -68 28.5 -111t87.5 -43q90 0 128 42q8 10 15 10q13 -2 10 -17
q-2 -14 -43 -58q-24 -26 -53 -31q-26 -5 -76 -5zM186 494q-2 0 -3.5 2t-1 7t4.5 10l43 74q14 22 36 29q29 9 83 9q10 -1 8.5 -10.5t-7.5 -13.5q-83 -54 -132 -103q-15 -15 -31 -4z" />
    <glyph glyph-name="Ccircumflex" unicode="&#x108;" horiz-adv-x="567" 
d="M38 242q0 111 49.5 195.5t124 125.5t157.5 41q69 0 105 -25t36 -71q0 -38 -50 -91q-11 -13 -23 -8q-12 7 -7 19q16 38 -6 83t-74 45q-103 0 -158.5 -78t-55.5 -184q0 -118 55.5 -177t154.5 -59q33 0 77 11q14 4 25 8.5t21 12.5t15 12.5t16.5 16.5t15.5 16q2 2 9 2.5
t10 -2.5q9 -9 5 -18q-6 -16 -30 -47t-43 -49q-11 -11 -30 -17q-50 -11 -135 -11q-127 0 -195.5 71t-68.5 178zM226 645q-11 19 12 35q11 8 47 37.5t47 36.5q16 11 33 -1q69 -61 75 -66q8 -7 13 -19t0 -18q-8 -11 -25 -2q-40 26 -64 37q-17 8 -39 1q-16 -5 -69 -36
q-23 -16 -30 -5z" />
    <glyph glyph-name="ccircumflex" unicode="&#x109;" horiz-adv-x="429" 
d="M222 -8q-88 0 -140.5 55t-48.5 151q2 57 28 106t62.5 78.5t73.5 46t67 16.5q103 0 113 -52q4 -25 -17.5 -52.5t-48.5 -38.5q-12 -7 -21 4q-4 7 5 20q9 11 9 35q0 33 -58 33q-50 0 -85.5 -50t-35.5 -139q0 -68 28.5 -111t87.5 -43q90 0 128 42q8 10 15 10q13 -2 10 -17
q-2 -14 -43 -58q-24 -26 -53 -31q-26 -5 -76 -5zM130 508q-10 19 12 36q11 8 44.5 37.5t45.5 36.5q17 12 33 -2q12 -10 33.5 -32t36.5 -33q8 -7 12.5 -19t0.5 -19q-9 -10 -25 -1q-53 34 -59 37q-17 8 -39 1q-14 -4 -65 -37q-22 -15 -30 -5z" />
    <glyph glyph-name="Cdotaccent" unicode="&#x10a;" horiz-adv-x="567" 
d="M38 242q0 111 49.5 195.5t124 125.5t157.5 41q69 0 105 -25t36 -71q0 -38 -50 -91q-11 -13 -23 -8q-12 7 -7 19q16 38 -6 83t-74 45q-103 0 -158.5 -78t-55.5 -184q0 -118 55.5 -177t154.5 -59q33 0 77 11q14 4 25 8.5t21 12.5t15 12.5t16.5 16.5t15.5 16q2 2 9 2.5
t10 -2.5q9 -9 5 -18q-6 -16 -30 -47t-43 -49q-11 -11 -30 -17q-50 -11 -135 -11q-127 0 -195.5 71t-68.5 178zM348 760q49 0 52 -40q2 -35 -26 -58q-24 -19 -49 -19q-14 0 -24.5 17t-10.5 41q0 21 17.5 40t40.5 19z" />
    <glyph glyph-name="cdotaccent" unicode="&#x10b;" horiz-adv-x="429" 
d="M222 -8q-88 0 -140.5 55t-48.5 151q2 57 28 106t62.5 78.5t73.5 46t67 16.5q103 0 113 -52q4 -25 -17.5 -52.5t-48.5 -38.5q-12 -7 -21 4q-4 7 5 20q9 11 9 35q0 33 -58 33q-50 0 -85.5 -50t-35.5 -139q0 -68 28.5 -111t87.5 -43q90 0 128 42q8 10 15 10q13 -2 10 -17
q-2 -14 -43 -58q-24 -26 -53 -31q-26 -5 -76 -5zM252 659q48 0 51 -40q2 -35 -26 -58q-22 -19 -49 -19q-14 0 -24 16.5t-10 41.5q0 21 17.5 40t40.5 19z" />
    <glyph glyph-name="Ccaron" unicode="&#x10c;" horiz-adv-x="567" 
d="M38 242q0 111 49.5 195.5t124 125.5t157.5 41q69 0 105 -25t36 -71q0 -38 -50 -91q-11 -13 -23 -8q-12 7 -7 19q16 38 -6 83t-74 45q-103 0 -158.5 -78t-55.5 -184q0 -118 55.5 -177t154.5 -59q33 0 77 11q14 4 25 8.5t21 12.5t15 12.5t16.5 16.5t15.5 16q2 2 9 2.5
t10 -2.5q9 -9 5 -18q-6 -16 -30 -47t-43 -49q-11 -11 -30 -17q-50 -11 -135 -11q-127 0 -195.5 71t-68.5 178zM453 755q12 -18 -12 -35q-9 -7 -43.5 -36.5t-46.5 -37.5q-16 -12 -33 1q-10 9 -32.5 31.5t-37.5 34.5q-8 7 -12.5 19t0.5 18q9 12 24 2q47 -32 59 -37
q16 -9 40 -1q13 4 64 36q23 16 30 5z" />
    <glyph glyph-name="ccaron" unicode="&#x10d;" horiz-adv-x="429" 
d="M222 -8q-88 0 -140.5 55t-48.5 151q2 57 28 106t62.5 78.5t73.5 46t67 16.5q103 0 113 -52q4 -25 -17.5 -52.5t-48.5 -38.5q-12 -7 -21 4q-4 7 5 20q9 11 9 35q0 33 -58 33q-50 0 -85.5 -50t-35.5 -139q0 -68 28.5 -111t87.5 -43q90 0 128 42q8 10 15 10q13 -2 10 -17
q-2 -14 -43 -58q-24 -26 -53 -31q-26 -5 -76 -5zM352 620q11 -17 -12 -35q-11 -8 -44.5 -37.5t-45.5 -36.5q-16 -11 -33 2q-12 10 -33.5 32t-36.5 33q-8 7 -12.5 19t0.5 18q9 12 24 2q52 -33 59 -37q18 -8 40 -1q13 4 64 36q6 5 15.5 7.5t14.5 -2.5z" />
    <glyph glyph-name="Dcaron" unicode="&#x10e;" horiz-adv-x="662" 
d="M24 579q0 20 43 15q30 -2 91 -2q29 0 85 2.5t80 2.5q146 1 224.5 -53.5t78.5 -159.5q-1 -92 -32 -167t-81.5 -121.5t-112 -71t-127.5 -24.5q-26 -1 -61.5 0.5t-39.5 1.5q-63 0 -128 -5q-18 -2 -21 13q-2 8 5.5 14.5t15 9t17.5 4.5q14 2 23.5 6t14 11.5t6.5 13.5t4.5 18
t3.5 17q6 24 7.5 182t0.5 201q-1 64 -76 70q-21 1 -21 22zM219 534q-5 -265 0 -446q2 -45 63 -45q120 -1 178 87t58 227q0 177 -181 197q-43 3 -84 0q-34 -2 -34 -20zM438 755q12 -18 -12 -35q-11 -8 -44.5 -37.5t-45.5 -36.5q-16 -12 -33 1q-10 9 -32.5 31.5t-37.5 34.5
q-8 7 -12.5 19t0.5 18q8 12 24 2q47 -32 59 -37q15 -8 39 -1q8 2 65 36q23 16 30 5z" />
    <glyph glyph-name="dcaron" unicode="&#x10f;" horiz-adv-x="570" 
d="M439 692q11 2 22.5 -2t11.5 -13q0 -5 -1.5 -19.5t-1.5 -18.5q-6 -120 -10 -308.5t-1 -216.5q2 -31 13.5 -45t35.5 -10q20 5 23 5q7 0 11 -5t1.5 -12.5t-11.5 -12.5q-15 -9 -64.5 -28t-69.5 -19q-15 0 -21.5 27t-6.5 55q0 32 -8 33q-5 0 -14 -10l-14 -16
q-13 -16 -15.5 -18.5t-15.5 -16.5t-19 -18t-18.5 -13.5t-21.5 -12.5t-22 -6.5t-25 -3.5q-78 0 -123 57.5t-45 126.5q0 105 70.5 186t166.5 81q19 0 63 -7q30 -9 36.5 -6.5t9.5 40.5q4 48 1 109q-2 43 -10 54.5t-39 9.5h-15t-15.5 0.5t-13 4t-3.5 8.5q4 18 23 20q79 8 136 21
zM226 58q46 0 87.5 48t50.5 104q11 54 4 111q0 34 -32.5 52t-74.5 18q-68 0 -99.5 -58t-31.5 -142q0 -51 23 -92t73 -41zM548 463q-5 3 -5.5 12.5t8.5 22.5q18 25 25.5 54.5t-0.5 41.5q-13 21 -33 9q-17 -11 -27 0q-7 9 7 39q10 23 32.5 37.5t44.5 14.5t39.5 -21t17.5 -52
q0 -30 -19 -70.5t-45 -68.5q-32 -32 -45 -19z" />
    <glyph glyph-name="Dcroat" unicode="&#x110;" horiz-adv-x="662" 
d="M98 298h-40q-15 0 -21.5 6.5t-1.5 17.5q9 20 40 20h23q22 0 23 22q2 81 0 123q-2 64 -76 70q-21 1 -21 22q0 20 43 15q30 -2 91 -2q29 0 85 2.5t80 2.5q146 1 224.5 -53.5t78.5 -159.5q-1 -92 -32 -167t-81.5 -121.5t-112 -71t-127.5 -24.5q-26 -1 -61.5 0.5t-39.5 1.5
q-63 0 -128 -5q-18 -2 -21 13q-2 8 5.5 14.5t15 9t17.5 4.5q10 1 18 3.5t13 7.5t8.5 7.5t6 11t3.5 11t2.5 13.5t1.5 12q6 34 6 174q0 10 -3 13t-19 7zM220 534l-4 -167q0 -15 3 -18t18 -3q11 1 120 10q3 0 8 1t8 1.5t7 0.5h6.5h5t4.5 -1t3.5 -2.5t2 -4t0.5 -5.5
q0 -6 -9 -19.5t-20 -19.5q-10 -6 -36 -6q-38 -2 -93 -2q-18 0 -23 -4t-5 -21q0 -93 4 -186q1 -45 62 -45q120 -1 180.5 87.5t60.5 226.5q0 176 -186 197q-43 3 -84 0q-13 -1 -23 -6.5t-10 -13.5z" />
    <glyph glyph-name="dcroat" unicode="&#x111;" horiz-adv-x="570" 
d="M439 692q11 2 22.5 -2t11.5 -13q0 -5 -1.5 -19.5t-1.5 -18.5q-6 -120 -10 -308.5t-1 -216.5q2 -31 13.5 -45t35.5 -10q20 5 23 5q7 0 11 -5t1.5 -12.5t-11.5 -12.5q-15 -9 -64.5 -28t-69.5 -19q-15 0 -21.5 27t-6.5 55q0 32 -8 33q-5 0 -14 -10l-14 -16
q-13 -16 -15.5 -18.5t-15.5 -16.5t-19 -18t-18.5 -13.5t-21.5 -12.5t-22 -6.5t-25 -3.5q-78 0 -123 57.5t-45 126.5q0 105 70.5 186t166.5 81q19 0 63 -7q30 -9 36.5 -6.5t9.5 40.5q4 48 1 109q-2 43 -10 54.5t-39 9.5h-15t-15.5 0.5t-13 4t-3.5 8.5q4 18 23 20q79 8 136 21
zM226 58q46 0 87.5 48t50.5 104q11 54 4 111q0 34 -32.5 52t-74.5 18q-68 0 -99.5 -58t-31.5 -142q0 -51 23 -92t73 -41z" />
    <glyph glyph-name="Emacron" unicode="&#x112;" horiz-adv-x="603" 
d="M29 578q0 21 39 16q82 -6 109 -6q47 0 180 5.5t139 5.5q36 0 43 -15q7 -20 3.5 -69t-17.5 -64q-5 -5 -15 -8t-16 1q-6 9 -3 17q9 44 -9 69.5t-63 25.5q-157 0 -177 -5q-13 -4 -15.5 -8t-2.5 -15q0 -17 -0.5 -78.5t-0.5 -69.5v-10.5t2 -8.5t6 -8.5t12.5 -4t21.5 -2.5
q54 0 67.5 2.5t37.5 15.5q9 4 24 24t15 32q0 5 8.5 12t14.5 7q17 0 12 -34q-14 -100 -11 -152q0 -7 -7 -13.5t-17 -6.5q-4 0 -8.5 6t-5.5 14q-2 18 -16 35t-32 18q-72 4 -96 2q-17 -1 -22 -6t-6 -17q-2 -33 -2 -166q2 -30 7 -39.5t26 -18.5q36 -14 86 -14q73 0 116 14.5
t57.5 34.5t26.5 56q3 10 5.5 15.5t8 10t13.5 3.5q17 -2 10 -51q-3 -26 -25.5 -66t-54.5 -60q-26 -10 -64 -8l-92 7q-103 5 -162 4q-24 0 -53.5 -2.5t-54 -5t-27.5 -2.5q-18 -2 -20 15q-3 11 9.5 19.5t26.5 10.5q28 6 39 20.5t15 40.5q7 23 8.5 193t-0.5 189q-2 53 -77 71
q-16 2 -16 22zM233 642q-15 0 -19 4t1 18q9 20 31 20q147 2 213 8q4 0 10 1t9.5 1.5t7 0t5 -3.5t1.5 -8q0 -19 -21 -32q-8 -6 -27 -6q-56 -3 -211 -3z" />
    <glyph glyph-name="emacron" unicode="&#x113;" horiz-adv-x="451" 
d="M245 55q79 0 110 25q14 10 28 24q11 11 19 5q4 -1 6.5 -6t0.5 -8q-7 -15 -36.5 -49.5t-41.5 -38.5q-41 -15 -105 -15q-90 0 -141 49.5t-51 143.5q0 103 71 176t150 73q57 0 92 -29.5t44 -67t1 -74.5q-2 -10 -5 -17q-2 -7 -18 -7q-204 -3 -213 -3q-18 0 -22 -1.5t-6 -9.5
q-3 -10 -3 -34q2 -63 32.5 -99.5t87.5 -36.5zM310 299q-3 89 -71 89q-32 0 -60 -22t-41 -68q-4 -10 -2.5 -18t12.5 -7l141 6q13 0 17 4t4 16zM119 508q-15 0 -19 4t1 17q9 20 30 20q158 3 213 8q4 0 10.5 1t10 1.5t7 0t5 -3.5t1.5 -8q0 -19 -21 -32q-9 -6 -28 -6
q-36 -2 -210 -2z" />
    <glyph glyph-name="Ebreve" unicode="&#x114;" horiz-adv-x="603" 
d="M29 578q0 21 39 16q82 -6 109 -6q47 0 180 5.5t139 5.5q36 0 43 -15q7 -20 3.5 -69t-17.5 -64q-5 -5 -15 -8t-16 1q-6 9 -3 17q9 44 -9 69.5t-63 25.5q-157 0 -177 -5q-13 -4 -15.5 -8t-2.5 -15q0 -17 -0.5 -78.5t-0.5 -69.5v-10.5t2 -8.5t6 -8.5t12.5 -4t21.5 -2.5
q54 0 67.5 2.5t37.5 15.5q9 4 24 24t15 32q0 5 8.5 12t14.5 7q17 0 12 -34q-14 -100 -11 -152q0 -7 -7 -13.5t-17 -6.5q-4 0 -8.5 6t-5.5 14q-2 18 -16 35t-32 18q-72 4 -96 2q-17 -1 -22 -6t-6 -17q-2 -33 -2 -166q2 -30 7 -39.5t26 -18.5q36 -14 86 -14q73 0 116 14.5
t57.5 34.5t26.5 56q3 10 5.5 15.5t8 10t13.5 3.5q17 -2 10 -51q-3 -26 -25.5 -66t-54.5 -60q-26 -10 -64 -8l-92 7q-103 5 -162 4q-24 0 -53.5 -2.5t-54 -5t-27.5 -2.5q-18 -2 -20 15q-3 11 9.5 19.5t26.5 10.5q28 6 39 20.5t15 40.5q7 23 8.5 193t-0.5 189q-2 53 -77 71
q-16 2 -16 22zM443 748q5 -1 7 -8.5t-1 -18.5q-11 -44 -44.5 -67t-70.5 -23q-43 0 -68.5 24.5t-33.5 58.5q-6 32 9 33q16 3 26 -15q16 -27 69 -27q62 0 81 29q9 16 26 14z" />
    <glyph glyph-name="ebreve" unicode="&#x115;" horiz-adv-x="451" 
d="M245 55q79 0 110 25q14 10 28 24q11 11 19 5q4 -1 6.5 -6t0.5 -8q-7 -15 -36.5 -49.5t-41.5 -38.5q-41 -15 -105 -15q-90 0 -141 49.5t-51 143.5q0 103 71 176t150 73q57 0 92 -29.5t44 -67t1 -74.5q-2 -10 -5 -17q-2 -7 -18 -7q-204 -3 -213 -3q-18 0 -22 -1.5t-6 -9.5
q-3 -10 -3 -34q2 -63 32.5 -99.5t87.5 -36.5zM310 299q-3 89 -71 89q-32 0 -60 -22t-41 -68q-4 -10 -2.5 -18t12.5 -7l141 6q13 0 17 4t4 16zM340 605q12 -2 7 -28q-12 -44 -45.5 -66.5t-70.5 -22.5q-43 0 -68.5 24.5t-32.5 58.5q-7 31 8 33q16 3 26 -15q18 -28 69 -28
q62 0 81 30q9 17 26 14z" />
    <glyph glyph-name="Edotaccent" unicode="&#x116;" horiz-adv-x="603" 
d="M29 578q0 21 39 16q82 -6 109 -6q47 0 180 5.5t139 5.5q36 0 43 -15q7 -20 3.5 -69t-17.5 -64q-5 -5 -15 -8t-16 1q-6 9 -3 17q9 44 -9 69.5t-63 25.5q-157 0 -177 -5q-13 -4 -15.5 -8t-2.5 -15q0 -17 -0.5 -78.5t-0.5 -69.5v-10.5t2 -8.5t6 -8.5t12.5 -4t21.5 -2.5
q54 0 67.5 2.5t37.5 15.5q9 4 24 24t15 32q0 5 8.5 12t14.5 7q17 0 12 -34q-14 -100 -11 -152q0 -7 -7 -13.5t-17 -6.5q-4 0 -8.5 6t-5.5 14q-2 18 -16 35t-32 18q-72 4 -96 2q-17 -1 -22 -6t-6 -17q-2 -33 -2 -166q2 -30 7 -39.5t26 -18.5q36 -14 86 -14q73 0 116 14.5
t57.5 34.5t26.5 56q3 10 5.5 15.5t8 10t13.5 3.5q17 -2 10 -51q-3 -26 -25.5 -66t-54.5 -60q-26 -10 -64 -8l-92 7q-103 5 -162 4q-24 0 -53.5 -2.5t-54 -5t-27.5 -2.5q-18 -2 -20 15q-3 11 9.5 19.5t26.5 10.5q28 6 39 20.5t15 40.5q7 23 8.5 193t-0.5 189q-2 53 -77 71
q-16 2 -16 22zM346 760q49 0 51 -40q2 -35 -26 -58q-22 -19 -49 -19q-14 0 -24 16.5t-10 41.5q0 21 17.5 40t40.5 19z" />
    <glyph glyph-name="edotaccent" unicode="&#x117;" horiz-adv-x="451" 
d="M245 55q79 0 110 25q14 10 28 24q11 11 19 5q4 -1 6.5 -6t0.5 -8q-7 -15 -36.5 -49.5t-41.5 -38.5q-41 -15 -105 -15q-90 0 -141 49.5t-51 143.5q0 103 71 176t150 73q57 0 92 -29.5t44 -67t1 -74.5q-2 -10 -5 -17q-2 -7 -18 -7q-204 -3 -213 -3q-18 0 -22 -1.5t-6 -9.5
q-3 -10 -3 -34q2 -63 32.5 -99.5t87.5 -36.5zM310 299q-3 89 -71 89q-32 0 -60 -22t-41 -68q-4 -10 -2.5 -18t12.5 -7l141 6q13 0 17 4t4 16zM253 658q49 0 52 -40q2 -35 -26 -58q-24 -19 -49 -19q-15 0 -25 16.5t-10 41.5q0 21 17.5 40t40.5 19z" />
    <glyph glyph-name="Eogonek" unicode="&#x118;" horiz-adv-x="603" 
d="M557 -130q4 -7 -1.5 -17t-15.5 -15q-38 -22 -78 -22q-26 0 -44 4.5t-33.5 23.5t-15.5 53q0 40 50 85q15 15 -9 18q-153 8 -231 7q-24 0 -53.5 -2.5t-54 -5t-27.5 -2.5q-18 -2 -20 15q-3 11 9.5 19.5t26.5 10.5q28 6 39 20.5t15 40.5q7 23 8.5 193t-0.5 189q-2 53 -77 71
q-16 2 -16 22q0 21 39 16q82 -6 109 -6q47 0 180 5.5t139 5.5q36 0 43 -15q7 -20 3.5 -69t-17.5 -64q-5 -5 -15 -8t-16 1q-6 9 -3 17q9 44 -9 69.5t-63 25.5q-157 0 -177 -5q-13 -4 -15.5 -8t-2.5 -15q0 -17 -0.5 -78.5t-0.5 -69.5v-10.5t2 -8.5t6 -8.5t12.5 -4t21.5 -2.5
q54 0 67.5 2.5t37.5 15.5q9 4 24 24t15 32q0 5 8.5 12t14.5 7q17 0 12 -34q-14 -100 -11 -152q0 -7 -7 -13.5t-17 -6.5q-4 0 -8.5 6t-5.5 14q-2 18 -16 35t-32 18q-72 4 -96 2q-17 -1 -22 -6t-6 -17q-2 -33 -2 -166q2 -30 7 -39.5t26 -18.5q36 -14 86 -14q73 0 116 14.5
t57.5 34.5t26.5 56q3 10 5.5 15.5t8 10t13.5 3.5q17 -2 10 -51q-3 -26 -25.5 -66t-54.5 -60q-8 -2 -19 -17q-22 -31 -22 -64q0 -29 25.5 -40.5t50.5 -4.5q17 6 25 -8z" />
    <glyph glyph-name="eogonek" unicode="&#x119;" horiz-adv-x="451" 
d="M329 -130q4 -7 -1.5 -17t-16.5 -15q-39 -22 -77 -22q-93 0 -93 82q0 36 48 80q17 15 -10 18q-68 11 -106.5 60t-38.5 129q0 103 71 176t150 73q57 0 92 -29.5t44 -67t1 -74.5q-2 -10 -5 -17q-2 -7 -18 -7q-204 -3 -213 -3q-18 0 -22 -1.5t-6 -9.5q-3 -10 -3 -34
q2 -63 32.5 -99.5t87.5 -36.5q79 0 110 25q14 10 28 24q11 11 19 5q4 -1 6.5 -6t0.5 -8q-7 -15 -36.5 -49.5t-41.5 -38.5q-22 -9 -56 -12q-21 -4 -33 -18q-14 -21 -14 -54q0 -29 25 -40.5t51 -4.5q17 6 25 -8zM310 299q-3 89 -71 89q-32 0 -60 -22t-41 -68q-4 -10 -2.5 -18
t12.5 -7l141 6q13 0 17 4t4 16z" />
    <glyph glyph-name="Ecaron" unicode="&#x11a;" horiz-adv-x="603" 
d="M29 578q0 21 39 16q82 -6 109 -6q47 0 180 5.5t139 5.5q36 0 43 -15q7 -20 3.5 -69t-17.5 -64q-5 -5 -15 -8t-16 1q-6 9 -3 17q9 44 -9 69.5t-63 25.5q-157 0 -177 -5q-13 -4 -15.5 -8t-2.5 -15q0 -17 -0.5 -78.5t-0.5 -69.5v-10.5t2 -8.5t6 -8.5t12.5 -4t21.5 -2.5
q54 0 67.5 2.5t37.5 15.5q9 4 24 24t15 32q0 5 8.5 12t14.5 7q17 0 12 -34q-14 -100 -11 -152q0 -7 -7 -13.5t-17 -6.5q-4 0 -8.5 6t-5.5 14q-2 18 -16 35t-32 18q-72 4 -96 2q-17 -1 -22 -6t-6 -17q-2 -33 -2 -166q2 -30 7 -39.5t26 -18.5q36 -14 86 -14q73 0 116 14.5
t57.5 34.5t26.5 56q3 10 5.5 15.5t8 10t13.5 3.5q17 -2 10 -51q-3 -26 -25.5 -66t-54.5 -60q-26 -10 -64 -8l-92 7q-103 5 -162 4q-24 0 -53.5 -2.5t-54 -5t-27.5 -2.5q-18 -2 -20 15q-3 11 9.5 19.5t26.5 10.5q28 6 39 20.5t15 40.5q7 23 8.5 193t-0.5 189q-2 53 -77 71
q-16 2 -16 22zM435 755q12 -18 -12 -35q-11 -8 -45 -37t-45 -37q-17 -14 -32 1q-7 6 -30.5 30t-39.5 36q-8 7 -13 19t0 18q9 12 24 2q51 -34 59 -37q17 -8 40 -1q8 2 65 36q23 15 29 5z" />
    <glyph glyph-name="ecaron" unicode="&#x11b;" horiz-adv-x="451" 
d="M245 55q79 0 110 25q14 10 28 24q11 11 19 5q4 -1 6.5 -6t0.5 -8q-7 -15 -36.5 -49.5t-41.5 -38.5q-41 -15 -105 -15q-90 0 -141 49.5t-51 143.5q0 103 71 176t150 73q57 0 92 -29.5t44 -67t1 -74.5q-2 -10 -5 -17q-2 -7 -18 -7q-204 -3 -213 -3q-18 0 -22 -1.5t-6 -9.5
q-3 -10 -3 -34q2 -63 32.5 -99.5t87.5 -36.5zM310 299q-3 89 -71 89q-32 0 -60 -22t-41 -68q-4 -10 -2.5 -18t12.5 -7l141 6q13 0 17 4t4 16zM343 620q11 -17 -11 -35q-12 -8 -45.5 -37.5t-44.5 -36.5q-17 -12 -33 2q-12 10 -33.5 32t-36.5 33q-8 7 -12.5 19t-0.5 18
q8 11 25 2q53 -34 59 -37q17 -8 39 -1q8 2 65 36q6 5 15 7.5t14 -2.5z" />
    <glyph glyph-name="Gcircumflex" unicode="&#x11c;" horiz-adv-x="624" 
d="M295 -14q-69 0 -122 26t-80.5 66.5t-41 82t-13.5 81.5q0 112 50.5 196.5t126 125t160.5 40.5q163 0 163 -96q0 -43 -54 -94q-13 -11 -23 -7q-11 6 -5 19q20 43 -9 87.5t-88 44.5t-104 -22t-70 -60t-37 -82.5t-12 -94.5q0 -134 53.5 -198.5t121.5 -64.5q77 0 115.5 44.5
t38.5 102.5q0 46 -28 59.5t-103 13.5q-46 0 -46 23q0 17 42 14q37 -2 130.5 -1.5t128.5 3.5q19 -2 21 -12q6 -17 -26 -27q-14 -4 -20 -10.5t-4 -20.5q0 -3 1.5 -14t1.5 -18q0 -93 -78 -150t-190 -57zM235 645q-12 18 12 35q8 6 44.5 36t49.5 38q17 7 20 6t13 -7
q69 -61 75 -66q8 -7 12.5 -19t-0.5 -18q-9 -12 -24 -2q-34 22 -64 37q-18 8 -40 1q-16 -5 -69 -36q-23 -15 -29 -5z" />
    <glyph glyph-name="gcircumflex" unicode="&#x11d;" horiz-adv-x="469" 
d="M435 476q12 9 23 3q13 -10 -6 -34q-13 -19 -70 -59q-5 -3 -7.5 -5t-3 -4.5t0 -3.5t3.5 -5.5t5 -6.5q0 -1 2 -10t3.5 -17.5t1.5 -13.5q0 -51 -50 -89t-112 -44q-19 -2 -33.5 -20.5t-14.5 -33.5q0 -13 7.5 -22t27.5 -19q24 -13 79.5 -37t83.5 -40q40 -23 60 -47t20 -60
q0 -59 -45 -103t-103.5 -62.5t-115.5 -18.5q-104 0 -156 27t-52 73q0 12 1.5 22.5t6 19.5t8 15.5t11 13.5t11.5 11t14 10l12.5 7.5t13 7t11.5 5.5q31 14 41 3q9 -11 -8 -24q-30 -23 -29 -67q2 -77 116 -77q79 0 126 27.5t47 67.5q0 41 -47 72q-35 22 -97 47.5t-74 30.5
q-60 29 -60 70q0 32 39 60q26 19 26 32q0 7 -12 7q-44 2 -80.5 29t-36.5 77t37 87t77.5 50.5t71.5 13.5q52 0 74 -7q42 -10 55 -10q41 0 97 51zM123 297q0 -30 18.5 -50.5t48.5 -20.5q97 0 97 94q0 79 -88 79q-30 0 -53 -24.5t-23 -77.5zM99 508q-11 18 12 36
q11 8 44.5 37.5t45.5 36.5q16 11 33 -2q12 -10 33.5 -32t36.5 -33q8 -7 12.5 -19t-0.5 -19q-7 -10 -24 -1q-52 33 -59 37q-17 8 -39 1q-14 -4 -65 -37q-23 -15 -30 -5z" />
    <glyph glyph-name="Gbreve" unicode="&#x11e;" horiz-adv-x="624" 
d="M295 -14q-69 0 -122 26t-80.5 66.5t-41 82t-13.5 81.5q0 112 50.5 196.5t126 125t160.5 40.5q163 0 163 -96q0 -43 -54 -94q-13 -11 -23 -7q-11 6 -5 19q20 43 -9 87.5t-88 44.5t-104 -22t-70 -60t-37 -82.5t-12 -94.5q0 -134 53.5 -198.5t121.5 -64.5q77 0 115.5 44.5
t38.5 102.5q0 46 -28 59.5t-103 13.5q-46 0 -46 23q0 17 42 14q37 -2 130.5 -1.5t128.5 3.5q19 -2 21 -12q6 -17 -26 -27q-14 -4 -20 -10.5t-4 -20.5q0 -3 1.5 -14t1.5 -18q0 -93 -78 -150t-190 -57zM457 750q12 -2 7 -28q-12 -44 -45.5 -66.5t-70.5 -22.5q-43 0 -68.5 24.5
t-32.5 57.5q-7 31 8 34t26 -15q18 -28 69 -28q62 0 81 30q11 16 26 14z" />
    <glyph glyph-name="gbreve" unicode="&#x11f;" horiz-adv-x="469" 
d="M435 476q12 9 23 3q13 -10 -6 -34q-13 -19 -70 -59q-5 -3 -7.5 -5t-3 -4.5t0 -3.5t3.5 -5.5t5 -6.5q0 -1 2 -10t3.5 -17.5t1.5 -13.5q0 -51 -50 -89t-112 -44q-19 -2 -33.5 -20.5t-14.5 -33.5q0 -13 7.5 -22t27.5 -19q24 -13 79.5 -37t83.5 -40q40 -23 60 -47t20 -60
q0 -59 -45 -103t-103.5 -62.5t-115.5 -18.5q-104 0 -156 27t-52 73q0 12 1.5 22.5t6 19.5t8 15.5t11 13.5t11.5 11t14 10l12.5 7.5t13 7t11.5 5.5q31 14 41 3q9 -11 -8 -24q-30 -23 -29 -67q2 -77 116 -77q79 0 126 27.5t47 67.5q0 41 -47 72q-35 22 -97 47.5t-74 30.5
q-60 29 -60 70q0 32 39 60q26 19 26 32q0 7 -12 7q-44 2 -80.5 29t-36.5 77t37 87t77.5 50.5t71.5 13.5q52 0 74 -7q42 -10 55 -10q41 0 97 51zM123 297q0 -30 18.5 -50.5t48.5 -20.5q97 0 97 94q0 79 -88 79q-30 0 -53 -24.5t-23 -77.5zM313 605q12 -2 7 -28
q-12 -44 -45.5 -66.5t-69.5 -22.5q-44 0 -69.5 24.5t-32.5 58.5q-7 31 8 33q16 3 26 -15q18 -28 69 -28q62 0 81 30q9 17 26 14z" />
    <glyph glyph-name="Gdotaccent" unicode="&#x120;" horiz-adv-x="624" 
d="M295 -14q-69 0 -122 26t-80.5 66.5t-41 82t-13.5 81.5q0 112 50.5 196.5t126 125t160.5 40.5q163 0 163 -96q0 -43 -54 -94q-13 -11 -23 -7q-11 6 -5 19q20 43 -9 87.5t-88 44.5t-104 -22t-70 -60t-37 -82.5t-12 -94.5q0 -134 53.5 -198.5t121.5 -64.5q77 0 115.5 44.5
t38.5 102.5q0 46 -28 59.5t-103 13.5q-46 0 -46 23q0 17 42 14q37 -2 130.5 -1.5t128.5 3.5q19 -2 21 -12q6 -17 -26 -27q-14 -4 -20 -10.5t-4 -20.5q0 -3 1.5 -14t1.5 -18q0 -93 -78 -150t-190 -57zM348 760q49 0 52 -40q2 -35 -26 -58q-24 -19 -49 -19q-14 0 -24.5 17
t-10.5 41q0 21 17.5 40t40.5 19z" />
    <glyph glyph-name="gdotaccent" unicode="&#x121;" horiz-adv-x="469" 
d="M435 476q12 9 23 3q13 -10 -6 -34q-13 -19 -70 -59q-5 -3 -7.5 -5t-3 -4.5t0 -3.5t3.5 -5.5t5 -6.5q0 -1 2 -10t3.5 -17.5t1.5 -13.5q0 -51 -50 -89t-112 -44q-19 -2 -33.5 -20.5t-14.5 -33.5q0 -13 7.5 -22t27.5 -19q24 -13 79.5 -37t83.5 -40q40 -23 60 -47t20 -60
q0 -59 -45 -103t-103.5 -62.5t-115.5 -18.5q-104 0 -156 27t-52 73q0 12 1.5 22.5t6 19.5t8 15.5t11 13.5t11.5 11t14 10l12.5 7.5t13 7t11.5 5.5q31 14 41 3q9 -11 -8 -24q-30 -23 -29 -67q2 -77 116 -77q79 0 126 27.5t47 67.5q0 41 -47 72q-35 22 -97 47.5t-74 30.5
q-60 29 -60 70q0 32 39 60q26 19 26 32q0 7 -12 7q-44 2 -80.5 29t-36.5 77t37 87t77.5 50.5t71.5 13.5q52 0 74 -7q42 -10 55 -10q41 0 97 51zM123 297q0 -30 18.5 -50.5t48.5 -20.5q97 0 97 94q0 79 -88 79q-30 0 -53 -24.5t-23 -77.5zM217 665q49 0 52 -40q0 -36 -27 -59
q-23 -18 -48 -18q-15 0 -25 16.5t-10 41.5q0 21 17.5 40t40.5 19z" />
    <glyph glyph-name="Gcommaaccent" unicode="&#x122;" horiz-adv-x="624" 
d="M295 -14q-69 0 -122 26t-80.5 66.5t-41 82t-13.5 81.5q0 112 50.5 196.5t126 125t160.5 40.5q163 0 163 -96q0 -43 -54 -94q-13 -11 -23 -7q-11 6 -5 19q20 43 -9 87.5t-88 44.5t-104 -22t-70 -60t-37 -82.5t-12 -94.5q0 -134 53.5 -198.5t121.5 -64.5q77 0 115.5 44.5
t38.5 102.5q0 46 -28 59.5t-103 13.5q-46 0 -46 23q0 17 42 14q37 -2 130.5 -1.5t128.5 3.5q19 -2 21 -12q6 -17 -26 -27q-14 -4 -20 -10.5t-4 -20.5q0 -3 1.5 -14t1.5 -18q0 -93 -78 -150t-190 -57zM253 -282q-5 3 -5.5 12.5t8.5 22.5q18 25 25.5 54.5t-0.5 41.5
q-12 21 -34 9q-15 -11 -26 0q-7 9 7 39q10 23 32.5 37.5t44.5 14.5t39.5 -21t17.5 -52q0 -30 -19 -70.5t-45 -68.5q-32 -32 -45 -19z" />
    <glyph glyph-name="gcommaaccent" unicode="&#x123;" horiz-adv-x="469" 
d="M435 476q12 9 23 3q13 -10 -6 -34q-13 -19 -70 -59q-5 -3 -7.5 -5t-3 -4.5t0 -3.5t3.5 -5.5t5 -6.5q0 -1 2 -10t3.5 -17.5t1.5 -13.5q0 -51 -50 -89t-112 -44q-19 -2 -33.5 -20.5t-14.5 -33.5q0 -13 7.5 -22t27.5 -19q24 -13 79.5 -37t83.5 -40q40 -23 60 -47t20 -60
q0 -59 -45 -103t-103.5 -62.5t-115.5 -18.5q-104 0 -156 27t-52 73q0 12 1.5 22.5t6 19.5t8 15.5t11 13.5t11.5 11t14 10l12.5 7.5t13 7t11.5 5.5q31 14 41 3q9 -11 -8 -24q-30 -23 -29 -67q2 -77 116 -77q79 0 126 27.5t47 67.5q0 41 -47 72q-35 22 -97 47.5t-74 30.5
q-60 29 -60 70q0 32 39 60q26 19 26 32q0 7 -12 7q-44 2 -80.5 29t-36.5 77t37 87t77.5 50.5t71.5 13.5q52 0 74 -7q42 -10 55 -10q41 0 97 51zM123 297q0 -30 18.5 -50.5t48.5 -20.5q97 0 97 94q0 79 -88 79q-30 0 -53 -24.5t-23 -77.5zM250 703q4 -2 4 -13t-9 -22
q-18 -24 -25 -54t1 -42q14 -22 34 -9q16 10 26 0q9 -10 -7 -39q-10 -23 -32 -37.5t-44 -14.5q-23 0 -40 21t-17 52q0 30 19 69.5t46 66.5q32 32 44 22z" />
    <glyph glyph-name="Hcircumflex" unicode="&#x124;" horiz-adv-x="753" 
d="M547 492q-2 52 -79 69q-2 1 -3 1q-14 4 -14 17q0 17 38 15q161 -7 210 0q30 5 30 -18q-1 -14 -25 -16q-30 -4 -42 -21t-16 -51q-3 -22 -5 -174t4 -208q8 -51 34 -65q6 -3 19 -6t20.5 -7.5t7.5 -12.5q1 -9 -9.5 -13.5t-27.5 -2.5q-49 6 -224 -2q-17 -2 -20 13
q-3 12 9 18.5t28 9.5q9 1 17 4t13 5t9.5 7.5t6.5 8t4.5 10t3.5 9.5t3 12t2 11q5 22 7 167q0 31 -26 32q-112 3 -281 0q-17 0 -22 -5t-5 -17q-3 -133 4 -181q4 -26 12 -37t36 -23q4 -2 13 -5t13 -4.5t8 -6t5 -11.5q0 -20 -37 -15q-51 6 -223 -2q-20 -2 -21 12q-3 12 10 19
t28 9q47 7 52 63q3 27 7 198.5t2 193.5q-1 20 -9.5 34t-25.5 22t-22.5 10t-20.5 5q-16 4 -16 18q0 19 39 13q22 -2 95.5 -2t114.5 2q28 3 28 -17q0 -7 -6.5 -11.5t-15.5 -4.5q-12 -2 -21 -5l-15 -5t-10.5 -7.5t-7 -7.5t-5 -10t-3 -10t-2 -13t-1.5 -14q-4 -28 -4 -125
q0 -19 29 -21h278q12 0 19 9t7 17q0 111 -1 123zM271 645q-12 18 12 35q8 6 45 36t49 38q17 7 20 6t13 -7q69 -61 75 -66q8 -7 12.5 -19t-0.5 -18q-8 -12 -24 -2q-34 22 -64 37q-17 8 -39 1q-22 -6 -69 -36q-23 -16 -30 -5z" />
    <glyph glyph-name="hcircumflex" unicode="&#x125;" horiz-adv-x="634" 
d="M43 668q17 2 65.5 9.5t63.5 11.5q24 6 30 -1.5t6 -34.5q-1 -83 -5 -164.5t-4 -161.5q0 -20 11 -10l11 13q23 37 67 76.5t92 39.5q62 0 103 -32.5t40 -90.5q0 -10 -1.5 -94t-0.5 -102q2 -57 11 -76t42 -23q40 -4 40 -18q0 -8 -4 -11t-16 -3q-70 7 -93 7q-74 2 -112 -5
q-5 -1 -9.5 2.5t-4.5 9.5q0 14 18 21q31 8 31 46q4 53 -1 227q-1 71 -72 71q-55 0 -100.5 -62t-50.5 -123q-3 -63 -1 -97q1 -30 24.5 -42t61.5 -17q19 -4 19 -20q0 -8 -6 -13t-11 -4q-113 12 -246 -1q-22 0 -22 18q0 4 5.5 9.5t11.5 6.5q44 8 54.5 19t13.5 56q7 78 7 467
q0 48 -6 57q-10 12 -47 7q-28 -4 -30 11q-2 8 3 14.5t12 6.5zM41 721q-11 17 11 33q12 8 46 36t44 35q16 10 33 -2q12 -10 33.5 -30.5t36.5 -31.5q8 -7 13 -18t0 -17q-8 -9 -25 -2q-29 18 -59 29q-20 9 -41 1q-39 -14 -63 -28q-6 -5 -15 -7t-14 2z" />
    <glyph glyph-name="Hbar" unicode="&#x126;" horiz-adv-x="753" 
d="M102 434h-46q-16 0 -19.5 3t1.5 17q6 14 30 14q4 0 17 0.5t21 0.5q4 0 7 0.5t6.5 6t3.5 16.5q0 16 -7.5 29t-14 19.5t-23 12.5t-18 6.5t-15.5 3.5q-16 4 -16 18q0 19 39 13q22 -2 95.5 -2t114.5 2q28 3 28 -17q0 -7 -6.5 -11.5t-15.5 -4.5q-12 -2 -21 -5l-15 -5
t-10.5 -7.5t-7 -7.5t-5 -10t-3 -10t-2 -13t-1.5 -14q-4 -20 19 -20h129.5t160.5 2q19 0 19 21q-2 52 -79 69q-2 1 -3 1q-14 4 -14 17q0 17 38 15q161 -7 210 0q30 5 30 -18q-1 -14 -25 -16q-56 -7 -58 -72q0 -14 20 -14q24 2 28 2t10 1t9.5 1.5t7 0t5 -3.5t1.5 -8
q0 -12 -21 -25q-9 -7 -28 -7q-19 -1 -27.5 -4.5t-8.5 -15.5q-3 -274 3 -309q8 -51 34 -65q6 -3 19 -6t20.5 -7.5t7.5 -12.5q1 -9 -9.5 -13.5t-27.5 -2.5q-49 6 -224 -2q-17 -2 -20 13q-3 12 9 18.5t28 9.5q9 1 17 4t13 5t9.5 7.5t6.5 8t4.5 10t3.5 9.5t3 12t2 11q5 22 7 169
q0 31 -26 32q-70 2 -281 0q-17 0 -22 -5t-5 -17q-3 -135 4 -183q4 -26 12 -37t36 -23q4 -2 13 -5t13 -4.5t8 -6t5 -11.5q0 -20 -37 -15q-51 6 -223 -2q-20 -2 -21 12q-3 12 10 19t28 9q47 7 52 63q7 60 9 314q0 11 -4 15.5t-17 4.5zM215 364q0 -18 29 -20q138 -1 278 0
q12 0 19 9t7 17v47q0 17 -20 17h-293q-20 0 -20 -18v-52z" />
    <glyph glyph-name="hbar" unicode="&#x127;" horiz-adv-x="634" 
d="M94 515h-49q-15 0 -19 3.5t1 17.5q8 19 30 19h34q20 0 20 17q0 48 -6 57q-10 12 -47 7q-28 -4 -30 11q-2 8 3 14.5t12 6.5q17 2 65.5 9.5t63.5 11.5q24 6 30 -1.5t6 -34.5l-2 -70q0 -7 0.5 -10t2 -7.5t6 -6t12.5 -0.5q32 2 47 4q4 0 10.5 1t10 1.5t7 0t5 -3.5t1.5 -8
q0 -17 -21 -30q-8 -6 -28 -6q-6 -1 -26 -1h-6h-5.5h-4.5t-4 -0.5t-3 -1t-3 -1.5t-2 -2.5t-1 -4t-0.5 -5t-0.5 -6.5q-4 -63 -4 -169q0 -20 11 -10l11 13q23 37 67 76.5t92 39.5q62 0 103 -32.5t40 -90.5q0 -10 -1.5 -94t-0.5 -102q2 -57 11 -76t42 -23q40 -4 40 -18
q0 -8 -4 -11t-16 -3q-70 7 -93 7q-74 2 -112 -5q-5 -1 -9.5 2.5t-4.5 9.5q0 14 18 21q31 8 31 46q4 53 -1 227q-1 71 -72 71q-55 0 -100.5 -62t-50.5 -123q-3 -63 -1 -97q1 -30 24.5 -42t61.5 -17q19 -4 19 -20q0 -8 -6 -13t-11 -4q-113 12 -246 -1q-22 0 -22 18
q0 4 5.5 9.5t11.5 6.5q44 8 54.5 19t13.5 56q4 47 7 387q0 23 -17 23z" />
    <glyph glyph-name="Itilde" unicode="&#x128;" horiz-adv-x="332" 
d="M123 490q-4 53 -77 70q-16 2 -16 21t40 15q22 -2 95 -2t113 2q29 1 29 -19q-1 -14 -22 -19q-32 -6 -45 -22t-18 -50q-3 -41 -4.5 -171t4.5 -206q6 -49 43 -64q2 -1 6.5 -2.5t7 -2t6.5 -2t6 -3t5 -3.5t4.5 -4.5t3 -5.5t1.5 -6q1 -9 -9 -14t-27 -3q-49 6 -224 -2
q-20 -2 -21 14q-3 12 10.5 20.5t27.5 9.5q42 5 54 68q5 25 7 188.5t0 192.5zM40 659q-9 12 6 35q37 51 76 51q35 0 61 -14q27 -13 47 -13q24 0 42 16l6 6l6 6t6 4.5t6 2.5h6q14 -5 4 -27q-11 -29 -37 -49.5t-46 -20.5q-28 0 -55 13q-35 15 -55 15q-25 0 -50 -25
q-14 -12 -23 0z" />
    <glyph glyph-name="itilde" unicode="&#x129;" horiz-adv-x="308" 
d="M30 403q17 5 68 16.5t62 14.5q45 10 45 -17q0 -6 -3.5 -125.5t-2.5 -161.5q2 -45 5 -59t17 -20q29 -15 50 -17q6 -1 11 -6.5t3 -11.5q-3 -19 -33 -16q-128 9 -214 -2q-10 -1 -15.5 3.5t-5.5 11.5q0 12 25 18q10 2 18 4.5t14 5.5t10.5 5t7.5 6t4.5 5.5t2.5 6.5t1.5 6t1 7
t0.5 7q10 127 1 275q-3 23 -29 21q-2 0 -6.5 -1t-12 -3t-14.5 -3q-17 -5 -21 10q-1 6 2.5 12.5t7.5 7.5zM19 516q-10 11 6 35q37 51 76 51q35 0 61 -14q27 -13 47 -13q24 0 42 16q2 2 8 7.5t7 6.5t7 4t8 0q5 -1 7 -8t-3 -19q-12 -28 -37.5 -48.5t-45.5 -20.5q-27 0 -56 13
q-31 14 -54 14q-26 0 -50 -24q-14 -12 -23 0z" />
    <glyph glyph-name="Imacron" unicode="&#x12a;" horiz-adv-x="332" 
d="M123 490q-4 53 -77 70q-16 2 -16 21t40 15q22 -2 95 -2t113 2q29 1 29 -19q-1 -14 -22 -19q-32 -6 -45 -22t-18 -50q-3 -41 -4.5 -171t4.5 -206q6 -49 43 -64q2 -1 6.5 -2.5t7 -2t6.5 -2t6 -3t5 -3.5t4.5 -4.5t3 -5.5t1.5 -6q1 -9 -9 -14t-27 -3q-49 6 -224 -2
q-20 -2 -21 14q-3 12 10.5 20.5t27.5 9.5q42 5 54 68q5 25 7 188.5t0 192.5zM56 642q-15 0 -19.5 4t1.5 18q9 20 30 20q147 2 213 8q4 0 10.5 1t10 1.5t7 0t5 -3.5t1.5 -8q0 -18 -21 -32q-9 -6 -28 -6q-54 -3 -210 -3z" />
    <glyph glyph-name="imacron" unicode="&#x12b;" horiz-adv-x="308" 
d="M30 403q17 5 68 16.5t62 14.5q45 10 45 -17q0 -6 -3.5 -125.5t-2.5 -161.5q2 -45 5 -59t17 -20q29 -15 50 -17q6 -1 11 -6.5t3 -11.5q-3 -19 -33 -16q-128 9 -214 -2q-10 -1 -15.5 3.5t-5.5 11.5q0 12 25 18q10 2 18 4.5t14 5.5t10.5 5t7.5 6t4.5 5.5t2.5 6.5t1.5 6t1 7
t0.5 7q10 127 1 275q-3 23 -29 21q-2 0 -6.5 -1t-12 -3t-14.5 -3q-17 -5 -21 10q-1 6 2.5 12.5t7.5 7.5zM31 508q-15 0 -19 4t1 17q9 20 31 20q180 4 213 7q5 0 12.5 1t11 1t6.5 -2.5t3 -9.5q0 -17 -21 -32q-8 -6 -27 -6h-211z" />
    <glyph glyph-name="Ibreve" unicode="&#x12c;" horiz-adv-x="332" 
d="M123 490q-4 53 -77 70q-16 2 -16 21t40 15q22 -2 95 -2t113 2q29 1 29 -19q-1 -14 -22 -19q-32 -6 -45 -22t-18 -50q-3 -41 -4.5 -171t4.5 -206q6 -49 43 -64q2 -1 6.5 -2.5t7 -2t6.5 -2t6 -3t5 -3.5t4.5 -4.5t3 -5.5t1.5 -6q1 -9 -9 -14t-27 -3q-49 6 -224 -2
q-20 -2 -21 14q-3 12 10.5 20.5t27.5 9.5q42 5 54 68q5 25 7 188.5t0 192.5zM280 748q12 -2 7 -27q-12 -44 -45.5 -67t-69.5 -23q-44 0 -69.5 24.5t-32.5 58.5q-7 31 8 33q16 3 26 -15q18 -27 69 -27q62 0 81 29q9 17 26 14z" />
    <glyph glyph-name="ibreve" unicode="&#x12d;" horiz-adv-x="308" 
d="M33 403q17 5 70 17.5t59 13.5q45 10 45 -17q0 -6 -3.5 -125.5t-2.5 -161.5q2 -34 3 -44.5t5.5 -20.5t14.5 -14q26 -14 50 -17q6 -1 10.5 -6.5t3.5 -11.5q-4 -19 -34 -16q-127 9 -214 -2q-10 -1 -15.5 3.5t-5.5 11.5q0 13 26 18q22 5 34.5 10.5t17.5 14t5.5 12t1.5 16.5
q12 121 1 275q-1 23 -28 21q-2 0 -6.5 -1t-12.5 -3t-14 -3q-8 -2 -14 1t-7 9t2 12.5t8 7.5zM254 605q12 -2 7 -28q-12 -44 -45.5 -66.5t-69.5 -22.5q-44 0 -69.5 24.5t-32.5 58.5q-7 31 8 33q16 3 26 -15q18 -28 69 -28q62 0 81 30q9 17 26 14z" />
    <glyph glyph-name="Iogonek" unicode="&#x12e;" horiz-adv-x="332" 
d="M263 -130q4 -7 -1.5 -17t-15.5 -15q-39 -22 -78 -22q-93 0 -93 81q0 41 55 89q15 15 -15 15l-70 -4q-20 -2 -21 14q-3 12 10.5 20.5t27.5 9.5q42 5 54 68q5 25 7 188.5t0 192.5q-4 53 -77 70q-16 2 -16 21t40 15q22 -2 95 -2t113 2q29 1 29 -19q-1 -14 -22 -19
q-32 -6 -45 -22t-18 -50q-3 -41 -4.5 -171t4.5 -206q6 -49 43 -64q2 -1 6.5 -2.5t7 -2t6.5 -2t6 -3t5 -3.5t4.5 -4.5t3 -5.5t1.5 -6q1 -9 -9 -14t-27 -3q-22 2 -40 2h-8h-7h-6t-5.5 -1t-4.5 -2t-5 -2.5t-4 -4.5q-27 -30 -27 -68q0 -29 25.5 -40.5t50.5 -4.5q18 6 25 -8z" />
    <glyph glyph-name="iogonek" unicode="&#x12f;" horiz-adv-x="308" 
d="M245 -130q4 -7 -2 -17t-16 -15q-39 -22 -77 -22q-94 0 -94 82q0 39 58 90q7 7 2.5 11t-14.5 4q-27 0 -62 -5q-10 -1 -15.5 3.5t-5.5 11.5q0 13 26 18q22 5 34.5 10.5t17.5 14t5.5 12t1.5 16.5q12 121 1 275q-1 23 -28 21q-2 0 -6.5 -1t-12.5 -3t-14 -3q-8 -2 -14 1t-7 9
t2 12.5t8 7.5q17 5 70 17.5t59 13.5q45 10 45 -17q0 -6 -3.5 -125.5t-2.5 -161.5q2 -34 3 -44.5t5.5 -20.5t14.5 -14q26 -14 50 -17q6 -1 10.5 -6.5t3.5 -11.5q-4 -19 -34 -16q-51 3 -53 3q-17 0 -31 -12q-26 -27 -26 -68q0 -29 25 -40.5t51 -4.5q17 6 25 -8zM181 665
q49 0 51 -40q2 -33 -26 -57q-29 -25 -50 -25q-15 0 -23.5 19t-8.5 44q1 21 18 40t39 19z" />
    <glyph glyph-name="Idotaccent" unicode="&#x130;" horiz-adv-x="332" 
d="M123 490q-4 53 -77 70q-16 2 -16 21t40 15q22 -2 95 -2t113 2q29 1 29 -19q-1 -14 -22 -19q-32 -6 -45 -22t-18 -50q-3 -41 -4.5 -171t4.5 -206q6 -49 43 -64q2 -1 6.5 -2.5t7 -2t6.5 -2t6 -3t5 -3.5t4.5 -4.5t3 -5.5t1.5 -6q1 -9 -9 -14t-27 -3q-49 6 -224 -2
q-20 -2 -21 14q-3 12 10.5 20.5t27.5 9.5q42 5 54 68q5 25 7 188.5t0 192.5zM184 760q48 0 51 -40q2 -35 -26 -58q-24 -19 -49 -19q-14 0 -24.5 17t-10.5 41q0 21 18 40t41 19z" />
    <glyph glyph-name="dotlessi" unicode="&#x131;" horiz-adv-x="308" 
d="M33 403q17 5 70 17.5t59 13.5q45 10 45 -17q0 -6 -3.5 -125.5t-2.5 -161.5q2 -34 3 -44.5t5.5 -20.5t14.5 -14q26 -14 50 -17q6 -1 10.5 -6.5t3.5 -11.5q-4 -19 -34 -16q-127 9 -214 -2q-10 -1 -15.5 3.5t-5.5 11.5q0 13 26 18q22 5 34.5 10.5t17.5 14t5.5 12t1.5 16.5
q12 121 1 275q-1 23 -28 21q-2 0 -6.5 -1t-12.5 -3t-14 -3q-8 -2 -14 1t-7 9t2 12.5t8 7.5z" />
    <glyph glyph-name="IJ" unicode="&#x132;" horiz-adv-x="651" 
d="M123 490q-4 53 -77 70q-16 2 -16 21t40 15q22 -2 95 -2t113 2q29 1 29 -19q-1 -14 -22 -19q-32 -6 -45 -22t-18 -50q-3 -41 -4.5 -171t4.5 -206q6 -49 43 -64q2 -1 6.5 -2.5t7 -2t6.5 -2t6 -3t5 -3.5t4.5 -4.5t3 -5.5t1.5 -6q1 -9 -9 -14t-27 -3q-49 6 -224 -2
q-20 -2 -21 14q-3 12 10.5 20.5t27.5 9.5q42 5 54 68q5 25 7 188.5t0 192.5zM399 596q23 -2 94 -2t111 2q29 1 29 -19q-1 -14 -24 -19q-31 -6 -42.5 -21.5t-16.5 -49.5q-2 -11 -4 -125t-1 -191q0 -84 -16 -151.5t-40.5 -108t-55 -68t-57 -37.5t-49.5 -10q-44 0 -65 19
t-21 49q0 49 52 87q26 18 34 10q9 -6 1 -27q-11 -34 -4.5 -56.5t27.5 -22.5q92 0 98 192q8 325 -2 444q0 9 -2 16.5t-6 14t-7.5 11t-9.5 8.5t-10 6.5t-11 5.5t-9.5 3.5t-9.5 2.5l-6 2q-15 3 -15 20q0 19 38 15z" />
    <glyph glyph-name="ij" unicode="&#x133;" horiz-adv-x="582" 
d="M322 386q-1 5 2 12.5t8 8.5l130 30q45 10 45 -17q-2 -47 -4 -175.5t-3 -160.5q-3 -93 -25.5 -171t-73 -133t-122.5 -55q-28 0 -48 16t-19 45q1 50 57 80q14 8 23 4t3 -18q-9 -25 -9 -41q0 -18 9 -22.5t30 -4.5q22 0 38.5 23t24.5 53t12.5 71t5.5 65t1 47q-3 315 -3 318
q0 24 -27 22q-2 0 -34 -8q-8 -2 -14 1.5t-7 9.5zM33 403q17 5 70 17.5t59 13.5q45 10 45 -17q0 -6 -3.5 -125.5t-2.5 -161.5q2 -34 3 -44.5t5.5 -20.5t14.5 -14q26 -14 50 -17q6 -1 10.5 -6.5t3.5 -11.5q-4 -19 -34 -16q-127 9 -214 -2q-10 -1 -15.5 3.5t-5.5 11.5
q0 13 26 18q22 5 34.5 10.5t17.5 14t5.5 12t1.5 16.5q12 121 1 275q-1 23 -28 21q-2 0 -6.5 -1t-12.5 -3t-14 -3q-8 -2 -14 1t-7 9t2 12.5t8 7.5zM483 665q49 0 52 -40q0 -34 -27 -57q-29 -25 -50 -25q-15 0 -23.5 19t-8.5 44q2 22 18.5 40.5t38.5 18.5zM181 665
q49 0 51 -40q2 -33 -26 -57q-29 -25 -50 -25q-15 0 -23.5 19t-8.5 44q1 21 18 40t39 19z" />
    <glyph glyph-name="Jcircumflex" unicode="&#x134;" horiz-adv-x="325" 
d="M74 596q23 -2 94 -2t111 2q29 1 29 -19q-1 -14 -23 -19q-31 -6 -43 -21.5t-17 -49.5q-1 -7 -2.5 -62t-2 -124t0.5 -130q0 -84 -16 -152t-40.5 -108t-55 -67.5t-57 -37.5t-49.5 -10q-45 0 -66 19t-21 49q0 49 52 87q26 18 35 10q8 -6 0 -27q-11 -34 -4.5 -56.5t27.5 -22.5
q92 0 98 192q8 325 -2 444q0 9 -2 16.5t-6 14t-7.5 11t-9.5 8.5t-10 6.5t-11 5.5t-9.5 3.5t-8.5 2.5l-7 2q-15 3 -15 20q0 19 38 15zM60 645q-12 18 12 35q8 6 45 36t49 38q17 7 20 6t13 -7q69 -61 75 -66q8 -7 12.5 -19t-0.5 -18q-9 -12 -24 -2q-34 22 -64 37q-18 8 -40 1
q-16 -5 -69 -36q-23 -15 -29 -5z" />
    <glyph glyph-name="jcircumflex" unicode="&#x135;" horiz-adv-x="291" 
d="M31 386q-1 5 2.5 12.5t7.5 8.5q8 2 59 13.5t72 16.5q44 10 44 -17q-2 -49 -3.5 -178t-2.5 -158q-3 -93 -25.5 -171t-73.5 -133t-123 -55q-27 0 -47 16.5t-19 44.5q1 50 57 80q14 8 23 4t2 -18q-8 -22 -8 -41q0 -18 9 -22.5t30 -4.5q22 0 38.5 23t24.5 53t12.5 71t5.5 65
t1 47q-3 215 -3 318q0 24 -27 22q-3 0 -35 -8q-8 -2 -13.5 1.5t-7.5 9.5zM40 508q-11 18 11 36q12 8 45.5 37.5t44.5 36.5q17 12 33 -2q12 -10 33.5 -32t36.5 -33q8 -7 12.5 -19t0.5 -19q-9 -10 -25 -1q-53 34 -59 37q-17 8 -39 1q-14 -4 -65 -37q-22 -15 -29 -5z" />
    <glyph glyph-name="Kcommaaccent" unicode="&#x136;" horiz-adv-x="685" 
d="M70 597q23 -3 96.5 -3t113.5 3q30 1 30 -18q-4 -18 -24 -18q-43 -8 -55 -21.5t-17 -49.5q0 -2 -1 -24t-2.5 -60t-1.5 -77q0 -6 4 -8.5t11 3.5q67 77 149 149.5t151 111.5q33 18 58 18q32 0 32 -58q0 -44 -26 -84q-10 -17 -22 -15q-3 1 -5.5 2.5t-3 3.5t-0.5 4v5v4
q0 15 -9 25.5t-19 10.5q-31 0 -67 -20q-73 -41 -119 -95q-14 -16 -4 -35q22 -41 73 -109.5t77 -94.5q30 -29 47 -44t44.5 -30.5t52.5 -15.5q7 0 16.5 -0.5t11.5 -0.5q12 -2 12 -13q0 -18 -17 -25q-15 -6 -56.5 -16t-59.5 -10q-39 3 -59 21q-45 37 -115 133t-97 152
q-4 6 -11 6t-12 -5q-8 -6 -25 -25q-13 -19 -13 -53q0 -91 3 -120q3 -22 11.5 -33.5t30.5 -22.5q5 -2 13.5 -5t12.5 -5t8 -6.5t5 -10.5q1 -9 -9 -15t-26 -4q-46 5 -211 -2q-19 -2 -21 16q-1 22 39 28q36 7 46 59q8 23 9.5 199t-1.5 195q-2 58 -71 70q-16 4 -16 18q0 19 39 15
zM295 -280q-4 3 -4.5 12t8.5 23q18 25 25.5 54.5t-0.5 41.5q-14 21 -34 8q-16 -9 -26 0q-6 10 7 40q10 22 32.5 36.5t44.5 14.5t39.5 -20.5t17.5 -51.5q0 -30 -19 -71t-45 -68q-31 -31 -46 -19z" />
    <glyph glyph-name="kcommaaccent" unicode="&#x137;" horiz-adv-x="624" 
d="M249 -4q-117 11 -206 1q-24 -1 -24 18q0 16 28 20q31 4 40 14t14 49q8 63 8 485q0 17 -2 27.5t-11.5 18.5t-26.5 5q-9 -4 -22.5 -3.5t-16.5 13.5q-1 4 3.5 10.5t9.5 7.5q87 25 127 32q22 5 32.5 0.5t10.5 -26.5q-9 -188 -9 -404q0 -7 2.5 -9.5t6.5 0t7.5 5t7.5 6.5
q88 95 130 127q63 49 123 49q25 0 41.5 -9.5t17.5 -26.5q1 -29 -22 -63.5t-49 -44.5q-12 -6 -19 3t-1 20q12 24 0 38q-13 22 -44 9q-45 -18 -73 -53q-12 -17 -4 -36q39 -98 143 -191q31 -31 70 -30q15 0 43 10q14 7 21 -12q2 -10 -9 -20q-13 -10 -57 -27t-63 -17
q-44 0 -80 32q-35 31 -78.5 93t-56.5 99q-9 19 -27 8q-12 -7 -18 -13t-7.5 -10t-2.5 -12q-2 -15 -2 -90q0 -37 9.5 -49t38.5 -15q25 -2 25 -21t-28 -18zM259 -282q-4 3 -4.5 12.5t8.5 22.5q18 25 25.5 54.5t-0.5 41.5q-12 21 -34 9q-16 -10 -26 0q-9 10 7 39
q10 23 32.5 37.5t43.5 14.5q23 0 40.5 -21t17.5 -52q0 -30 -19 -70.5t-45 -68.5q-31 -31 -46 -19z" />
    <glyph glyph-name="kgreenlandic" unicode="&#x138;" horiz-adv-x="624" 
d="M33 403q17 5 70 17.5t59 13.5q45 10 45 -17q-3 -90 -3 -153q0 -7 2.5 -9.5t6.5 0t7.5 5t7.5 6.5q88 95 130 127q63 49 123 49q57 0 59 -36q2 -30 -21.5 -64t-49.5 -44q-12 -6 -19 3t-1 20q12 24 0 38q-13 22 -44 9q-45 -18 -73 -53q-12 -17 -4 -36q39 -98 143 -191
q31 -31 70 -30q15 0 43 10q14 7 21 -12q2 -10 -9 -20q-13 -10 -57 -27t-63 -17q-44 0 -80 32q-35 31 -78.5 93t-56.5 99q-9 19 -27 8q-12 -7 -18 -13t-7.5 -10t-2.5 -12q-2 -15 -2 -90q0 -37 9.5 -49t38.5 -15q25 -2 25 -21t-28 -18q-117 11 -206 1q-24 -1 -24 18
q0 16 28 20q31 4 40 14t14 49q4 33 5.5 120.5t-1.5 140.5q-1 13 -7 16.5t-20 3.5q-10 0 -34 -6q-8 -2 -14 1t-7 9t2 12.5t8 7.5z" />
    <glyph glyph-name="Lacute" unicode="&#x139;" horiz-adv-x="594" 
d="M123 492q0 14 -4.5 24.5t-8 16t-14.5 11.5t-14.5 7.5t-19 5.5t-17.5 5q-16 5 -16 20q0 16 38 14q173 -4 223 0q29 2 29 -18q-1 -7 -7.5 -13t-16.5 -6q-24 -4 -36.5 -8.5t-19.5 -16.5t-8 -17t-4 -29q-8 -225 -3 -379q1 -17 2.5 -24.5t8.5 -15.5t21 -13q32 -13 84 -13
q45 0 77.5 7.5t50.5 16.5t31 28t18 32t12 38q6 22 26 20q19 -2 13 -44q-2 -33 -20 -76t-51 -61q-20 -10 -58 -8q-94 7 -96 7q-109 5 -164 4q-24 0 -53.5 -2.5t-55 -5t-27.5 -2.5q-19 -2 -20 13q-3 12 10 18.5t28 8.5q42 7 54 67q6 28 8 198.5t0 189.5zM124 646q-2 0 -3.5 2
t-1 6.5t5.5 10.5q9 12 22 34.5t15 24.5q14 23 44 28q58 8 79 8q10 0 10 -11t-10 -16q-74 -37 -130 -83q-16 -14 -31 -4z" />
    <glyph glyph-name="lacute" unicode="&#x13a;" horiz-adv-x="296" 
d="M249 -4q-117 11 -206 1q-24 -1 -24 18q0 17 28 20q32 4 42 14.5t12 48.5q6 112 7.5 279.5t-1.5 205.5q-1 16 -4 26t-12.5 18t-26.5 7q-2 0 -11 -2t-14.5 -2t-10.5 3.5t-5 12.5q-2 17 12 19q104 12 134 29q22 12 33.5 4.5t9.5 -30.5q-15 -202 -10 -569q1 -36 10.5 -48.5
t39.5 -15.5q25 -2 25 -21t-28 -18zM94 722q-2 0 -3 2.5t0 7.5t6 10q10 11 23.5 31.5t16.5 24.5q18 23 47 25q37 4 78 4q10 -1 9.5 -11.5t-11.5 -15.5q-74 -33 -134 -75q-16 -14 -32 -3z" />
    <glyph glyph-name="Lcommaaccent" unicode="&#x13b;" horiz-adv-x="594" 
d="M123 492q0 14 -4.5 24.5t-8 16t-14.5 11.5t-14.5 7.5t-19 5.5t-17.5 5q-16 5 -16 20q0 16 38 14q173 -4 223 0q29 2 29 -18q-1 -7 -7.5 -13t-16.5 -6q-24 -4 -36.5 -8.5t-19.5 -16.5t-8 -17t-4 -29q-8 -225 -3 -379q1 -17 2.5 -24.5t8.5 -15.5t21 -13q32 -13 84 -13
q45 0 77.5 7.5t50.5 16.5t31 28t18 32t12 38q6 22 26 20q19 -2 13 -44q-2 -33 -20 -76t-51 -61q-20 -10 -58 -8q-94 7 -96 7q-109 5 -164 4q-24 0 -53.5 -2.5t-55 -5t-27.5 -2.5q-19 -2 -20 13q-3 12 10 18.5t28 8.5q42 7 54 67q6 28 8 198.5t0 189.5zM242 -280
q-4 3 -4.5 12t8.5 23q18 25 25.5 54.5t-0.5 41.5q-14 21 -34 8q-16 -9 -26 0q-6 10 7 40q10 22 32.5 36.5t44.5 14.5t39.5 -20.5t17.5 -51.5q0 -30 -19 -71t-45 -68q-31 -31 -46 -19z" />
    <glyph glyph-name="lcommaaccent" unicode="&#x13c;" horiz-adv-x="296" 
d="M249 -4q-117 11 -206 1q-24 -1 -24 18q0 17 28 20q32 4 42 14.5t12 48.5q6 112 7.5 279.5t-1.5 205.5q-1 16 -4 26t-12.5 18t-26.5 7q-2 0 -11 -2t-14.5 -2t-10.5 3.5t-5 12.5q-2 17 12 19q104 12 134 29q22 12 33.5 4.5t9.5 -30.5q-15 -202 -10 -569q1 -36 10.5 -48.5
t39.5 -15.5q25 -2 25 -21t-28 -18zM108 -282q-4 3 -4.5 12.5t7.5 22.5q18 24 26 54t-1 42q-12 20 -33 9q-17 -11 -26 0q-8 9 6 39q11 23 33 37.5t44 14.5q23 0 40 -21t17 -52q0 -30 -18.5 -70.5t-45.5 -68.5q-31 -33 -45 -19z" />
    <glyph glyph-name="Lcaron" unicode="&#x13d;" horiz-adv-x="594" 
d="M123 492q0 14 -4.5 24.5t-8 16t-14.5 11.5t-14.5 7.5t-19 5.5t-17.5 5q-16 5 -16 20q0 16 38 14q173 -4 223 0q29 2 29 -18q-1 -7 -7.5 -13t-16.5 -6q-24 -4 -36.5 -8.5t-19.5 -16.5t-8 -17t-4 -29q-8 -225 -3 -379q1 -17 2.5 -24.5t8.5 -15.5t21 -13q32 -13 84 -13
q45 0 77.5 7.5t50.5 16.5t31 28t18 32t12 38q6 22 26 20q19 -2 13 -44q-2 -33 -20 -76t-51 -61q-20 -10 -58 -8q-94 7 -96 7q-109 5 -164 4q-24 0 -53.5 -2.5t-55 -5t-27.5 -2.5q-19 -2 -20 13q-3 12 10 18.5t28 8.5q42 7 54 67q6 28 8 198.5t0 189.5zM425 359q-4 3 -4.5 13
t8.5 24q20 27 29.5 61t1.5 46q-8 10 -19.5 12t-20.5 -6q-17 -12 -28 -1q-2 3 -2.5 6.5t1 8t3 8t5 10t5.5 10.5q11 24 32.5 40t44.5 16t38.5 -22.5t15.5 -55.5t-17.5 -76.5t-42.5 -72.5q-32 -37 -50 -21z" />
    <glyph glyph-name="lcaron" unicode="&#x13e;" horiz-adv-x="296" 
d="M249 -4q-117 11 -206 1q-24 -1 -24 18q0 17 28 20q32 4 42 14.5t12 48.5q6 112 7.5 279.5t-1.5 205.5q-1 16 -4 26t-12.5 18t-26.5 7q-2 0 -11 -2t-14.5 -2t-10.5 3.5t-5 12.5q-2 17 12 19q104 12 134 29q22 12 33.5 4.5t9.5 -30.5q-15 -202 -10 -569q1 -36 10.5 -48.5
t39.5 -15.5q25 -2 25 -21t-28 -18zM282 463q-5 3 -5.5 12.5t8.5 22.5q18 25 25.5 54.5t-0.5 41.5q-13 21 -33 9q-17 -11 -27 0q-7 9 7 39q10 23 32.5 37.5t44.5 14.5t39.5 -21t17.5 -52q0 -30 -19 -70.5t-45 -68.5q-32 -32 -45 -19z" />
    <glyph glyph-name="Ldot" unicode="&#x13f;" horiz-adv-x="594" 
d="M123 492q0 14 -4.5 24.5t-8 16t-14.5 11.5t-14.5 7.5t-19 5.5t-17.5 5q-16 5 -16 20q0 16 38 14q173 -4 223 0q29 2 29 -18q-1 -7 -7.5 -13t-16.5 -6q-24 -4 -36.5 -8.5t-19.5 -16.5t-8 -17t-4 -29q-8 -225 -3 -379q1 -17 2.5 -24.5t8.5 -15.5t21 -13q32 -13 84 -13
q45 0 77.5 7.5t50.5 16.5t31 28t18 32t12 38q6 22 26 20q19 -2 13 -44q-2 -33 -20 -76t-51 -61q-20 -10 -58 -8q-94 7 -96 7q-109 5 -164 4q-24 0 -53.5 -2.5t-55 -5t-27.5 -2.5q-19 -2 -20 13q-3 12 10 18.5t28 8.5q42 7 54 67q6 28 8 198.5t0 189.5zM459 403q48 0 51 -40
q2 -35 -26 -58q-22 -19 -49 -19q-14 0 -24 16.5t-10 41.5q0 21 17.5 40t40.5 19z" />
    <glyph glyph-name="ldot" unicode="&#x140;" horiz-adv-x="343" 
d="M249 -4q-117 11 -206 1q-24 -1 -24 18q0 17 28 20q32 4 42 14.5t12 48.5q6 112 7.5 279.5t-1.5 205.5q-1 16 -4 26t-12.5 18t-26.5 7q-2 0 -11 -2t-14.5 -2t-10.5 3.5t-5 12.5q-2 17 12 19q104 12 134 29q22 12 33.5 4.5t9.5 -30.5q-15 -202 -10 -569q1 -36 10.5 -48.5
t39.5 -15.5q25 -2 25 -21t-28 -18zM326 412q48 0 51 -40q2 -35 -26 -58q-22 -19 -49 -19q-14 0 -24 17t-10 42q0 20 18 39t40 19z" />
    <glyph glyph-name="Lslash" unicode="&#x141;" horiz-adv-x="594" 
d="M65 212q-32 -8 -29 17q4 21 33 30q5 2 15.5 4.5t14.5 3.5t10 4t8 7t4 10.5t2 15.5v80.5v74.5v33q0 14 -4.5 24.5t-8 16t-14.5 11.5t-14.5 7.5t-19 5.5t-17.5 5q-16 5 -16 20q0 16 38 14q173 -4 223 0q29 2 29 -18q-1 -7 -7.5 -13t-16.5 -6q-24 -4 -36.5 -8.5t-19.5 -16.5
t-8 -17t-4 -29q-4 -133 -5 -161q0 -6 1 -10t2 -5.5t4.5 -1t5.5 1.5t8 3.5t10 3.5l95 36q3 1 7.5 3t7.5 3.5t6.5 3t6 2l5 1t4.5 0t3.5 -1.5t2.5 -3t2 -5q2 -5 -2.5 -21t-14.5 -25q-5 -6 -33 -17q-36 -11 -96 -28q-20 -6 -23 -10t-3 -23q0 -59 3 -125q1 -17 2.5 -24.5
t8.5 -15.5t21 -13q32 -13 84 -13q45 0 77.5 7.5t50.5 16.5t31 28t18 32t12 38q6 22 26 20q19 -2 13 -44q-2 -33 -20 -76t-51 -61q-20 -10 -58 -8q-94 7 -96 7q-109 5 -164 4q-24 0 -53.5 -2.5t-55 -5t-27.5 -2.5q-19 -2 -20 13q-3 12 10 18.5t28 8.5q42 7 54 67q4 19 6 99
q0 20 -1 21.5t-19 -1.5q-19 -4 -36 -11z" />
    <glyph glyph-name="lslash" unicode="&#x142;" horiz-adv-x="296" 
d="M41 286q-13 -6 -19 -3t-5 18q1 20 21 28l44 18q15 6 20 15.5t5 32.5q0 161 -2 188q-1 25 -10 38.5t-33 12.5q-2 0 -11 -2t-14 -2t-10 3.5t-6 12.5q-2 17 13 19q103 12 134 29q21 12 33 4.5t9 -30.5q-7 -96 -10 -241q0 -32 21 -20q3 2 12 5.5t14 6.5q4 2 9 5t8 4.5
t6.5 2.5t6 -1t4.5 -7q3 -5 0.5 -17t-8.5 -20q-4 -9 -24 -16q-3 -2 -11 -5.5t-12 -5.5q-20 -8 -23.5 -13.5t-3.5 -26.5q0 -162 1 -220q1 -36 10.5 -48.5t39.5 -15.5q25 -2 25 -21t-28 -18q-117 11 -206 1q-23 -1 -23 18q0 17 27 20q32 4 42.5 14.5t11.5 48.5q4 54 6 192
q0 23 -23 12q-34 -13 -41 -16z" />
    <glyph glyph-name="Nacute" unicode="&#x143;" horiz-adv-x="724" 
d="M81 596q99 0 169 -37q100 -52 178.5 -149t151.5 -248q2 -5 5 -8t6 -3.5t5.5 0.5t4 3.5t1.5 5.5q1 38 1 155t-1 134q-6 92 -67 110q-43 8 -39 22q4 17 29 17q100 -7 146 -4q30 4 30 -15q0 -2 -17 -23q-21 -27 -27 -87q-18 -192 -13 -362q0 -6 1 -33.5t1 -41.5
q-1 -22 -21 -29q-37 -9 -83 -7q-16 0 -20 17l-20 52q-121 278 -281 397q-7 5 -15 10t-17.5 8.5t-16 -1t-6.5 -18.5q0 -261 6 -315q4 -53 22.5 -76.5t52.5 -26.5q13 -3 24 -11t8 -19q-3 -16 -18 -15q-89 8 -217 0q-11 -1 -16.5 6.5t-4.5 12.5q1 6 7.5 11t17 9.5t12.5 5.5
q55 23 59 91q4 58 6 182.5t0 158.5q-8 86 -83 86q-7 0 -12.5 5t-5.5 13q0 17 57 17zM350 646q-2 0 -3.5 2t-0.5 7t5 10q9 12 22 34.5t15 24.5q16 23 45 28q56 8 78 8q10 0 10 -11t-10 -16q-76 -39 -130 -83q-15 -15 -31 -4z" />
    <glyph glyph-name="nacute" unicode="&#x144;" horiz-adv-x="602" 
d="M507 81q2 -40 51 -51q24 -5 24 -18q0 -6 -6.5 -11t-16.5 -5t-39.5 3t-54.5 3q-12 0 -45 -3t-44 -3q-22 0 -22 13t15 16q34 6 37 46q7 125 3 219q-2 75 -59 75q-34 0 -75 -34.5t-60 -86.5q-19 -56 -16 -158q1 -17 3 -26.5t9 -14.5t12 -6.5t18.5 -4t22.5 -4.5
q11 -2 16.5 -7.5t4.5 -12.5q-2 -15 -24 -14q-84 8 -97 8q-14 0 -65.5 -3.5t-56.5 -3.5q-6 0 -14.5 4.5t-8.5 10.5q0 10 9.5 16t21.5 6q25 1 40.5 15.5t17.5 39.5q8 99 4 249q-1 55 -63 40q-13 -4 -18 11q-3 17 16 21q23 5 71.5 14t68.5 13q10 2 16.5 -3t5.5 -12
q-6 -87 -5 -91q1 -12 8 -12.5t14 9.5q91 113 160 113q55 0 87 -38.5t31 -100.5q-1 -73 3 -221zM268 494q-2 0 -3.5 2t-1 6.5t4.5 10.5q4 8 43 74q12 21 36 29q28 9 83 9q10 -1 8.5 -10.5t-7.5 -13.5q-83 -54 -132 -103q-16 -14 -31 -4z" />
    <glyph glyph-name="Ncommaaccent" unicode="&#x145;" horiz-adv-x="724" 
d="M81 596q99 0 169 -37q100 -52 178.5 -149t151.5 -248q2 -5 5 -8t6 -3.5t5.5 0.5t4 3.5t1.5 5.5q1 38 1 155t-1 134q-6 92 -67 110q-43 8 -39 22q4 17 29 17q100 -7 146 -4q30 4 30 -15q0 -2 -17 -23q-21 -27 -27 -87q-18 -192 -13 -362q0 -6 1 -33.5t1 -41.5
q-1 -22 -21 -29q-37 -9 -83 -7q-16 0 -20 17l-20 52q-121 278 -281 397q-7 5 -15 10t-17.5 8.5t-16 -1t-6.5 -18.5q0 -261 6 -315q4 -53 22.5 -76.5t52.5 -26.5q13 -3 24 -11t8 -19q-3 -16 -18 -15q-89 8 -217 0q-11 -1 -16.5 6.5t-4.5 12.5q1 6 7.5 11t17 9.5t12.5 5.5
q55 23 59 91q4 58 6 182.5t0 158.5q-8 86 -83 86q-7 0 -12.5 5t-5.5 13q0 17 57 17zM315 -271q-4 3 -4.5 12t7.5 23q18 24 26 54t-1 42q-12 20 -33 9q-16 -10 -26 0q-8 9 6 39q11 23 33 37.5t44 14.5q23 0 40 -21t17 -52q0 -30 -18.5 -70.5t-45.5 -68.5q-30 -32 -45 -19z
" />
    <glyph glyph-name="ncommaaccent" unicode="&#x146;" horiz-adv-x="602" 
d="M507 81q2 -40 51 -51q24 -5 24 -18q0 -6 -6.5 -11t-16.5 -5t-39.5 3t-54.5 3q-12 0 -45 -3t-44 -3q-22 0 -22 13t15 16q34 6 37 46q7 125 3 219q-2 75 -59 75q-34 0 -75 -34.5t-60 -86.5q-19 -56 -16 -158q1 -17 3 -26.5t9 -14.5t12 -6.5t18.5 -4t22.5 -4.5
q11 -2 16.5 -7.5t4.5 -12.5q-2 -15 -24 -14q-84 8 -97 8q-14 0 -65.5 -3.5t-56.5 -3.5q-6 0 -14.5 4.5t-8.5 10.5q0 10 9.5 16t21.5 6q25 1 40.5 15.5t17.5 39.5q8 99 4 249q-1 55 -63 40q-13 -4 -18 11q-3 17 16 21q23 5 71.5 14t68.5 13q10 2 16.5 -3t5.5 -12
q-6 -87 -5 -91q1 -12 8 -12.5t14 9.5q91 113 160 113q55 0 87 -38.5t31 -100.5q-1 -73 3 -221zM273 -282q-4 3 -4.5 12.5t7.5 22.5q18 24 26 54t-1 42q-12 20 -33 9q-17 -11 -26 0q-8 9 6 39q11 23 33 37.5t44 14.5q23 0 40 -21t17 -52q0 -30 -18.5 -70.5t-45.5 -68.5
q-31 -33 -45 -19z" />
    <glyph glyph-name="Ncaron" unicode="&#x147;" horiz-adv-x="724" 
d="M81 596q99 0 169 -37q100 -52 178.5 -149t151.5 -248q2 -5 5 -8t6 -3.5t5.5 0.5t4 3.5t1.5 5.5q1 38 1 155t-1 134q-6 92 -67 110q-43 8 -39 22q4 17 29 17q100 -7 146 -4q30 4 30 -15q0 -2 -17 -23q-21 -27 -27 -87q-18 -192 -13 -362q0 -6 1 -33.5t1 -41.5
q-1 -22 -21 -29q-37 -9 -83 -7q-16 0 -20 17l-20 52q-121 278 -281 397q-7 5 -15 10t-17.5 8.5t-16 -1t-6.5 -18.5q0 -261 6 -315q4 -53 22.5 -76.5t52.5 -26.5q13 -3 24 -11t8 -19q-3 -16 -18 -15q-89 8 -217 0q-11 -1 -16.5 6.5t-4.5 12.5q1 6 7.5 11t17 9.5t12.5 5.5
q55 23 59 91q4 58 6 182.5t0 158.5q-8 86 -83 86q-7 0 -12.5 5t-5.5 13q0 17 57 17zM492 753q10 -18 -12 -35q-11 -8 -44.5 -37.5t-45.5 -36.5q-17 -12 -33 2q-12 10 -33.5 32t-36.5 33q-8 7 -12.5 19t-0.5 18q8 11 25 2q53 -34 59 -37q17 -8 39 -1q8 2 65 36q6 5 15.5 7.5
t14.5 -2.5z" />
    <glyph glyph-name="ncaron" unicode="&#x148;" horiz-adv-x="602" 
d="M507 81q2 -40 51 -51q24 -5 24 -18q0 -6 -6.5 -11t-16.5 -5t-39.5 3t-54.5 3q-12 0 -45 -3t-44 -3q-22 0 -22 13t15 16q34 6 37 46q7 125 3 219q-2 75 -59 75q-34 0 -75 -34.5t-60 -86.5q-19 -56 -16 -158q1 -17 3 -26.5t9 -14.5t12 -6.5t18.5 -4t22.5 -4.5
q11 -2 16.5 -7.5t4.5 -12.5q-2 -15 -24 -14q-84 8 -97 8q-14 0 -65.5 -3.5t-56.5 -3.5q-6 0 -14.5 4.5t-8.5 10.5q0 10 9.5 16t21.5 6q25 1 40.5 15.5t17.5 39.5q8 99 4 249q-1 55 -63 40q-13 -4 -18 11q-3 17 16 21q23 5 71.5 14t68.5 13q10 2 16.5 -3t5.5 -12
q-6 -87 -5 -91q1 -12 8 -12.5t14 9.5q91 113 160 113q55 0 87 -38.5t31 -100.5q-1 -73 3 -221zM422 620q11 -17 -12 -35q-11 -8 -44.5 -37.5t-45.5 -36.5q-16 -11 -33 2q-12 10 -33.5 32t-36.5 33q-8 7 -12.5 19t0.5 18q8 12 24 2q52 -33 59 -37q17 -8 39 -1q8 2 65 36
q6 5 15.5 7.5t14.5 -2.5z" />
    <glyph glyph-name="napostrophe" unicode="&#x149;" horiz-adv-x="758" 
d="M661 81q2 -40 51 -51q24 -5 24 -18q0 -6 -6.5 -11t-16.5 -5t-39.5 3t-53.5 3q-13 0 -46 -3t-44 -3q-22 0 -22 13t15 16q34 6 37 46q7 125 3 219q-2 75 -59 75q-35 0 -75.5 -34.5t-58.5 -86.5q-20 -55 -16 -158q0 -21 5.5 -31.5t10 -13.5t22.5 -6t26 -5q11 -2 16.5 -7.5
t4.5 -12.5q-2 -15 -24 -14q-84 8 -97 8q-14 0 -65.5 -3.5t-56.5 -3.5q-6 0 -14.5 4.5t-8.5 10.5q0 10 9.5 16t21.5 6q25 1 40.5 15.5t17.5 39.5q8 99 4 249q-1 55 -63 40q-13 -4 -18 11q-2 17 16 21q23 5 71.5 14t68.5 13q10 2 16.5 -3t5.5 -12q-6 -87 -5 -91q1 -12 8 -12.5
t14 9.5q91 113 160 113q55 0 87 -38.5t31 -100.5q-1 -73 3 -221zM59 449q-4 4 -4.5 13.5t8.5 24.5q20 27 29.5 60.5t0.5 45.5q-17 23 -39 7q-17 -12 -28 -1q-2 3 -2.5 6.5t1 8t3 8t5 10t5.5 10.5q11 24 32.5 40t43.5 16q23 0 39 -22t16 -56q0 -33 -17.5 -76.5t-42.5 -72.5
q-32 -37 -50 -22z" />
    <glyph glyph-name="Eng" unicode="&#x14a;" horiz-adv-x="726" 
d="M61 596q28 -4 144 0q16 1 17.5 -26t-3.5 -51q-5 -27 -3 -45q0 -5 2.5 -7t6 -1.5t6.5 2.5t5 4q24 31 43 51t49.5 42t71 33t91.5 11q75 0 124 -46.5t53 -129.5q6 -108 0 -262q-2 -84 -19 -151.5t-41.5 -108t-54.5 -68t-56.5 -37.5t-49.5 -10q-44 0 -65.5 19t-21.5 49
q0 48 52 87q26 18 35 10q3 -2 4 -4.5t1 -6t-0.5 -5.5t-2 -6t-1.5 -5q-11 -34 -4.5 -56.5t27.5 -22.5q89 0 97 192q7 166 -3 351q-7 146 -120 146q-91 0 -154 -71t-70 -177q-8 -140 0 -187q8 -50 43 -64q2 -1 6.5 -2.5t7 -2t6.5 -2t6 -3t5 -3.5t4.5 -4.5t3 -5.5t1.5 -6
q1 -9 -9 -14t-26 -3q-50 6 -225 -2q-20 -2 -21 14q-3 12 11 20.5t27 9.5q19 2 31.5 13.5t18 30.5t7.5 34.5t2 37.5q6 137 -4 333q-2 56 -76 70q-18 3 -18 21q0 19 39 15z" />
    <glyph glyph-name="eng" unicode="&#x14b;" horiz-adv-x="553" 
d="M47 410q23 5 71.5 14t68.5 13q10 2 16.5 -3t5.5 -12q-6 -87 -5 -91q1 -12 8 -12.5t14 9.5q91 113 160 113q54 0 84.5 -38t33.5 -101q3 -60 -1 -218q-2 -92 -24 -170.5t-73.5 -133.5t-123.5 -55q-28 0 -47.5 16t-19.5 45q1 49 58 80q13 8 22 4t3 -18q-8 -22 -8 -41
q0 -27 36 -27q26 0 44.5 32t26.5 80.5t11 83t4 63.5q4 105 -3 247q-4 75 -59 75q-34 0 -75 -34.5t-60 -86.5q-19 -56 -16 -158q1 -17 3 -26.5t9 -14.5t12 -6.5t18.5 -4t22.5 -4.5q11 -2 16.5 -7.5t4.5 -12.5q-2 -15 -24 -14q-84 8 -97 8q-14 0 -65.5 -3.5t-56.5 -3.5
q-6 0 -14.5 4.5t-8.5 10.5q0 10 9.5 16t21.5 6q25 1 40.5 15.5t17.5 39.5q8 99 4 249q-1 55 -63 40q-13 -4 -18 11q-3 17 16 21z" />
    <glyph glyph-name="Omacron" unicode="&#x14c;" horiz-adv-x="678" 
d="M370 614q124 0 197 -73t73 -201q0 -157 -95 -258t-230 -101q-130 0 -203.5 83t-73.5 213q0 49 21 105.5t60 109.5t105 87.5t146 34.5zM536 319q0 113 -50 178t-148 64q-80 0 -134.5 -67.5t-54.5 -208.5q0 -122 55.5 -186t142.5 -64q81 0 135 68.5t54 215.5zM242 654
q-15 0 -19.5 4t1.5 18q9 19 30 19q167 3 213 8q4 0 10.5 1t10 1.5t7 0t5 -3.5t1.5 -8q0 -18 -21 -32q-9 -6 -28 -6q-36 -2 -210 -2z" />
    <glyph glyph-name="omacron" unicode="&#x14d;" horiz-adv-x="492" 
d="M222 -15q-101 0 -150 58t-49 160q0 86 67.5 163.5t178.5 77.5q94 0 144.5 -56t50.5 -134q0 -130 -72.5 -199.5t-169.5 -69.5zM253 395q-65 0 -99.5 -49.5t-34.5 -124.5q0 -95 33.5 -142t84.5 -47q127 0 127 206q0 69 -26.5 113t-84.5 44zM131 508q-15 0 -19 4t2 17
q9 20 30 20q180 4 213 7q5 0 12.5 1t11.5 1t7 -2.5t3 -9.5q0 -16 -21 -32q-9 -6 -28 -6h-211z" />
    <glyph glyph-name="Obreve" unicode="&#x14e;" horiz-adv-x="678" 
d="M370 614q124 0 197 -73t73 -201q0 -157 -95 -258t-230 -101q-130 0 -203.5 83t-73.5 213q0 49 21 105.5t60 109.5t105 87.5t146 34.5zM536 319q0 113 -50 178t-148 64q-80 0 -134.5 -67.5t-54.5 -208.5q0 -122 55.5 -186t142.5 -64q81 0 135 68.5t54 215.5zM462 764
q12 -2 7 -27q-12 -44 -45.5 -67t-69.5 -23q-44 0 -69.5 24.5t-32.5 58.5q-7 31 8 33q16 3 26 -15q18 -27 69 -27q62 0 81 29q9 17 26 14z" />
    <glyph glyph-name="obreve" unicode="&#x14f;" horiz-adv-x="492" 
d="M222 -15q-101 0 -150 58t-49 160q0 86 67.5 163.5t178.5 77.5q94 0 144.5 -56t50.5 -134q0 -130 -72.5 -199.5t-169.5 -69.5zM253 395q-65 0 -99.5 -49.5t-34.5 -124.5q0 -95 33.5 -142t84.5 -47q127 0 127 206q0 69 -26.5 113t-84.5 44zM347 605q12 -2 7 -28
q-12 -44 -45.5 -66.5t-70.5 -22.5q-43 0 -68.5 24.5t-33.5 58.5q-6 31 9 33q16 3 26 -15q18 -28 69 -28q62 0 81 30q9 16 26 14z" />
    <glyph glyph-name="Ohungarumlaut" unicode="&#x150;" horiz-adv-x="678" 
d="M370 614q124 0 197 -73t73 -201q0 -157 -95 -258t-230 -101q-130 0 -203.5 83t-73.5 213q0 49 21 105.5t60 109.5t105 87.5t146 34.5zM536 319q0 113 -50 178t-148 64q-80 0 -134.5 -67.5t-54.5 -208.5q0 -122 55.5 -186t142.5 -64q81 0 135 68.5t54 215.5zM247 644
q-2 0 -3.5 2.5t-1 7t4.5 9.5q9 12 22.5 35t15.5 26q15 23 44 28q58 8 78 8q11 0 11 -11t-11 -16q-71 -36 -129 -85q-17 -14 -31 -4zM407 646q-2 0 -3.5 2t-1 6.5t4.5 10.5q9 11 37 59q16 23 45 28q58 8 78 8q11 0 11 -11t-11 -16q-77 -39 -129 -83q-16 -14 -31 -4z" />
    <glyph glyph-name="ohungarumlaut" unicode="&#x151;" horiz-adv-x="492" 
d="M222 -15q-101 0 -150 58t-49 160q0 86 67.5 163.5t178.5 77.5q94 0 144.5 -56t50.5 -134q0 -130 -72.5 -199.5t-169.5 -69.5zM253 395q-65 0 -99.5 -49.5t-34.5 -124.5q0 -95 33.5 -142t84.5 -47q127 0 127 206q0 69 -26.5 113t-84.5 44zM257 689q27 0 8 -31
q-46 -85 -70 -146q-9 -26 -27 -26q-14 0 -9 26q7 36 10 141q0 6 1.5 11t2.5 7.5t4.5 5t4.5 3t6.5 2t6.5 1.5q23 6 62 6zM395 689q27 0 8 -31q-45 -83 -71 -146q-8 -26 -26 -26q-15 0 -11 26q11 54 11 141q0 5 0.5 9.5t2.5 7.5t3.5 4.5t4.5 3t5 2t5.5 2t5.5 1.5q22 6 62 6z
" />
    <glyph glyph-name="OE" unicode="&#x152;" horiz-adv-x="940" 
d="M313 -8q-130 0 -202.5 77.5t-72.5 205.5q0 39 12 82t39 87t64 79t92.5 57t119.5 22q22 0 69 -7q19 -2 78 -2q46 0 180 4.5t140 4.5q33 0 42 -15q7 -20 3 -69t-18 -63q-12 -16 -21 -6q-1 1 -3.5 3t-3 3l-2 4t0.5 6q8 44 -11 68.5t-64 24.5q-139 0 -177 -5
q-12 -3 -14.5 -7.5t-2.5 -16.5q0 -17 -0.5 -77t-0.5 -67v-4q0 -9 0.5 -13.5t4 -10t13 -7.5t24.5 -2q38 0 57 2t27 5t26 13q9 5 25 24.5t16 31.5q0 4 5 9.5t12 5.5q8 0 13 -11t3 -21q-12 -101 -12 -153q0 -7 -6 -13.5t-14 -7.5q-5 0 -10 6t-6 14q-3 18 -19.5 35t-35.5 18
q-36 4 -95 4q-17 -2 -22 -7t-6 -18q-3 -32 -3 -97.5t1 -72.5q2 -30 7 -38.5t28 -18.5q31 -15 83 -15q56 0 93 7.5t58 24.5t30.5 34t17.5 45q8 30 29 28q17 -2 10 -52q-3 -25 -26.5 -65.5t-56.5 -60.5q-25 -9 -57 -8q-28 2 -56.5 5t-39.5 3q-116 8 -170 6q-83 -2 -113 -10
q-35 -8 -82 -8zM340 552q-31 0 -62 -12.5t-62 -41t-50.5 -84.5t-19.5 -132q0 -119 56 -180.5t142 -61.5q99 0 106 65q3 25 6.5 192.5t2.5 195.5q0 31 -32 45q-33 14 -87 14z" />
    <glyph glyph-name="oe" unicode="&#x153;" horiz-adv-x="814" 
d="M223 -9q-96 0 -148 55t-52 153q0 83 67 156t181 73q107 0 163 -77q10 -16 24 0q68 81 157 81q83 0 116 -51t21 -111q0 -2 -5 -17q-3 -8 -19 -8q-34 0 -112.5 -1.5t-110.5 -1.5q-19 0 -23 -1t-4 -9q-9 -71 27 -124.5t100 -53.5q80 0 113 29q5 6 28 26q10 10 24 2
q6 -3 0 -18q-7 -14 -37 -46t-42 -37q-38 -14 -105 -14q-118 0 -166 76q-11 18 -26 0q-57 -81 -171 -81zM254 380q-72 0 -105 -50t-33 -114q0 -93 34.5 -135t87.5 -42q62 0 101 42.5t39 156.5q0 63 -32 102.5t-92 39.5zM666 296q-3 87 -69 87q-45 0 -77.5 -33t-32.5 -71
q0 -10 12 -10l146 6q14 1 17.5 4.5t3.5 16.5z" />
    <glyph glyph-name="Racute" unicode="&#x154;" horiz-adv-x="672" 
d="M29 583q0 4 2.5 8t12 6.5t24.5 0.5q25 -4 78 -4.5t119 1.5t81 2q42 0 70.5 -3t58 -13t44.5 -32.5t15 -56.5q0 -26 -13.5 -48.5t-39 -40.5t-43 -27.5t-44.5 -21.5q-25 -10 -12 -49q25 -79 104.5 -160t132.5 -81q32 0 47 9q11 8 20 -1q9 -8 -7 -26q-19 -20 -58.5 -35
t-76.5 -15q-36 0 -94 49.5t-108 125t-63 140.5q-3 21 3.5 27.5t35.5 16.5q46 18 78 51.5t32 74.5q0 70 -90 75q-65 4 -90 0q-15 -1 -21 -7t-6 -21q-12 -354 -1 -423q6 -47 43 -60q3 -1 11 -3.5t12.5 -4.5t10 -5t8 -7.5t3.5 -9.5q1 -9 -9 -13.5t-27 -2.5q-53 6 -227 -2
q-21 -2 -21 13q-3 12 10.5 20.5t27.5 9.5q44 7 53 64q8 23 9.5 197.5t-1.5 193.5q-2 53 -78 71q-16 3 -16 17zM261 646q-2 0 -3.5 2t-0.5 7t5 10q9 12 22 34.5t15 24.5q14 23 44 28q58 8 79 8q10 0 10 -11t-10 -16q-74 -37 -130 -83q-15 -15 -31 -4z" />
    <glyph glyph-name="racute" unicode="&#x155;" horiz-adv-x="408" 
d="M20 14q-1 7 5.5 14t10.5 7q45 8 53.5 16.5t10.5 25.5q9 80 9 257q-2 64 -62 56q-12 -2 -17.5 2.5t-5.5 9.5q0 14 23 19l105 14q53 10 54 -28q0 -14 -4 -38t-4 -36q0 -8 3 -11t8.5 0t10.5 10q15 27 20.5 36t21.5 30.5t33.5 31.5t39.5 13q31 3 41 -12.5t10 -43.5
q0 -66 -32 -116q-4 -6 -11 -7.5t-11 2.5q-6 6 -2 20q13 49 -14 60q-55 20 -100 -81q-11 -24 -15 -72t-2 -80q2 -47 18.5 -58.5t71.5 -17.5q25 -4 25 -20q0 -8 -7.5 -14t-17.5 -5q-122 10 -246 -1q-5 -1 -13.5 4.5t-9.5 12.5zM178 494q-2 0 -3 2t-0.5 6.5t3.5 10.5l43 74
q13 21 37 29q28 9 83 9q9 -1 8 -10.5t-7 -13.5q-80 -51 -132 -103q-16 -14 -32 -4z" />
    <glyph glyph-name="Rcommaaccent" unicode="&#x156;" horiz-adv-x="672" 
d="M29 583q0 4 2.5 8t12 6.5t24.5 0.5q25 -4 78 -4.5t119 1.5t81 2q42 0 70.5 -3t58 -13t44.5 -32.5t15 -56.5q0 -26 -13.5 -48.5t-39 -40.5t-43 -27.5t-44.5 -21.5q-25 -10 -12 -49q25 -79 104.5 -160t132.5 -81q32 0 47 9q11 8 20 -1q9 -8 -7 -26q-19 -20 -58.5 -35
t-76.5 -15q-36 0 -94 49.5t-108 125t-63 140.5q-3 21 3.5 27.5t35.5 16.5q46 18 78 51.5t32 74.5q0 70 -90 75q-65 4 -90 0q-15 -1 -21 -7t-6 -21q-12 -354 -1 -423q6 -47 43 -60q3 -1 11 -3.5t12.5 -4.5t10 -5t8 -7.5t3.5 -9.5q1 -9 -9 -13.5t-27 -2.5q-53 6 -227 -2
q-21 -2 -21 13q-3 12 10.5 20.5t27.5 9.5q44 7 53 64q8 23 9.5 197.5t-1.5 193.5q-2 53 -78 71q-16 3 -16 17zM294 -280q-4 3 -4.5 12t7.5 23q18 24 26 54t-1 42q-13 21 -33 8q-16 -9 -26 0q-7 10 6 40q11 22 33.5 36.5t43.5 14.5q23 0 40 -20.5t17 -51.5q0 -30 -18.5 -71
t-45.5 -68q-30 -32 -45 -19z" />
    <glyph glyph-name="rcommaaccent" unicode="&#x157;" horiz-adv-x="408" 
d="M20 14q-1 7 5.5 14t10.5 7q45 8 53.5 16.5t10.5 25.5q9 80 9 257q-2 64 -62 56q-12 -2 -17.5 2.5t-5.5 9.5q0 14 23 19l105 14q53 10 54 -28q0 -14 -4 -38t-4 -36q0 -8 3 -11t8.5 0t10.5 10q15 27 20.5 36t21.5 30.5t33.5 31.5t39.5 13q31 3 41 -12.5t10 -43.5
q0 -66 -32 -116q-4 -6 -11 -7.5t-11 2.5q-6 6 -2 20q13 49 -14 60q-55 20 -100 -81q-11 -24 -15 -72t-2 -80q2 -47 18.5 -58.5t71.5 -17.5q25 -4 25 -20q0 -8 -7.5 -14t-17.5 -5q-122 10 -246 -1q-5 -1 -13.5 4.5t-9.5 12.5zM115 -282q-4 3 -4.5 12.5t8.5 22.5
q18 25 25.5 54.5t-0.5 41.5q-12 21 -34 9q-16 -10 -26 0q-9 10 7 39q10 23 32.5 37.5t44.5 14.5t39.5 -21t17.5 -52q0 -30 -19 -70.5t-45 -68.5q-31 -31 -46 -19z" />
    <glyph glyph-name="Rcaron" unicode="&#x158;" horiz-adv-x="672" 
d="M29 583q0 4 2.5 8t12 6.5t24.5 0.5q25 -4 78 -4.5t119 1.5t81 2q42 0 70.5 -3t58 -13t44.5 -32.5t15 -56.5q0 -26 -13.5 -48.5t-39 -40.5t-43 -27.5t-44.5 -21.5q-25 -10 -12 -49q25 -79 104.5 -160t132.5 -81q32 0 47 9q11 8 20 -1q9 -8 -7 -26q-19 -20 -58.5 -35
t-76.5 -15q-36 0 -94 49.5t-108 125t-63 140.5q-3 21 3.5 27.5t35.5 16.5q46 18 78 51.5t32 74.5q0 70 -90 75q-65 4 -90 0q-15 -1 -21 -7t-6 -21q-12 -354 -1 -423q6 -47 43 -60q3 -1 11 -3.5t12.5 -4.5t10 -5t8 -7.5t3.5 -9.5q1 -9 -9 -13.5t-27 -2.5q-53 6 -227 -2
q-21 -2 -21 13q-3 12 10.5 20.5t27.5 9.5q44 7 53 64q8 23 9.5 197.5t-1.5 193.5q-2 53 -78 71q-16 3 -16 17zM423 753q10 -18 -12 -35q-11 -8 -44.5 -37.5t-45.5 -36.5q-17 -12 -33 2q-12 10 -33.5 32t-36.5 33q-8 7 -12.5 19t-0.5 18q8 11 25 2q53 -34 59 -37q17 -8 39 -1
q8 2 65 36q6 5 15.5 7.5t14.5 -2.5z" />
    <glyph glyph-name="rcaron" unicode="&#x159;" horiz-adv-x="408" 
d="M20 14q-1 7 5.5 14t10.5 7q45 8 53.5 16.5t10.5 25.5q9 80 9 257q-2 64 -62 56q-12 -2 -17.5 2.5t-5.5 9.5q0 14 23 19l105 14q53 10 54 -28q0 -14 -4 -38t-4 -36q0 -8 3 -11t8.5 0t10.5 10q15 27 20.5 36t21.5 30.5t33.5 31.5t39.5 13q31 3 41 -12.5t10 -43.5
q0 -66 -32 -116q-4 -6 -11 -7.5t-11 2.5q-6 6 -2 20q13 49 -14 60q-55 20 -100 -81q-11 -24 -15 -72t-2 -80q2 -47 18.5 -58.5t71.5 -17.5q25 -4 25 -20q0 -8 -7.5 -14t-17.5 -5q-122 10 -246 -1q-5 -1 -13.5 4.5t-9.5 12.5zM328 620q11 -17 -12 -35q-9 -7 -43.5 -36.5
t-46.5 -37.5q-16 -12 -32 2q-12 10 -33.5 32t-36.5 33q-8 7 -13 19t0 18q8 11 25 2q55 -36 58 -37q19 -8 40 -1q8 2 65 36q6 5 15 7.5t14 -2.5z" />
    <glyph glyph-name="Sacute" unicode="&#x15a;" horiz-adv-x="484" 
d="M270 609q138 0 138 -78q0 -42 -32 -72q-27 -30 -41 -18q-14 8 -1 30q5 6 5 26q0 35 -20.5 48.5t-60.5 13.5q-41 0 -72.5 -23.5t-31.5 -64.5q0 -44 41 -69q27 -14 84 -41.5t76 -38.5q83 -42 83 -119q0 -56 -21.5 -100t-56.5 -68.5t-73.5 -37t-77.5 -12.5q-160 0 -160 83
q0 54 60 99q25 18 38 11q15 -7 1 -27q-14 -23 -14 -54q0 -60 88 -60q69 0 102 30t33 73q0 24 -9.5 43t-19.5 27.5t-30 21.5q-14 9 -42.5 23.5t-60.5 29.5t-42 20q-42 23 -61 54t-19 80q0 60 58.5 115t138.5 55zM199 646q-2 0 -3.5 2t-1 6.5t4.5 10.5q7 9 14 19.5t13.5 22.5
t10.5 17q15 23 44 28q58 8 78 8q11 0 11 -11t-11 -16q-73 -37 -129 -83q-16 -14 -31 -4z" />
    <glyph glyph-name="sacute" unicode="&#x15b;" horiz-adv-x="357" 
d="M211 443q85 0 90 -52q0 -28 -40 -61q-11 -10 -22.5 -5.5t-7.5 18.5q5 24 -6 40t-35 16q-36 0 -53.5 -18.5t-16.5 -36.5q0 -19 9 -30t35 -24q4 -2 31 -12t36 -14q43 -16 67 -47.5t24 -68.5q0 -75 -51 -116.5t-124 -41.5q-61 -1 -91.5 18t-30.5 49q0 23 16.5 44.5
t39.5 33.5q19 9 27 1q6 -4 6 -12t-4 -11q-11 -13 -11 -39q0 -39 63 -39q35 0 64.5 17t29.5 52q0 16 -7.5 27.5t-17 18t-29.5 17.5q-16 9 -46 22t-39 18q-72 38 -72 104q0 45 29.5 76.5t65.5 43.5t71 12zM120 494q-2 0 -3 2t-0.5 6.5t3.5 10.5l43 74q13 21 36 29q29 9 84 9
q9 -1 8 -10.5t-7 -13.5q-80 -51 -132 -103q-17 -15 -32 -4z" />
    <glyph glyph-name="Scircumflex" unicode="&#x15c;" horiz-adv-x="484" 
d="M270 609q138 0 138 -78q0 -42 -32 -72q-27 -30 -41 -18q-14 8 -1 30q5 6 5 26q0 35 -20.5 48.5t-60.5 13.5q-41 0 -72.5 -23.5t-31.5 -64.5q0 -44 41 -69q27 -14 84 -41.5t76 -38.5q83 -42 83 -119q0 -56 -21.5 -100t-56.5 -68.5t-73.5 -37t-77.5 -12.5q-160 0 -160 83
q0 54 60 99q25 18 38 11q15 -7 1 -27q-14 -23 -14 -54q0 -60 88 -60q69 0 102 30t33 73q0 24 -9.5 43t-19.5 27.5t-30 21.5q-14 9 -42.5 23.5t-60.5 29.5t-42 20q-42 23 -61 54t-19 80q0 60 58.5 115t138.5 55zM148 645q-12 18 12 35q11 7 46.5 36.5t47.5 37.5q17 7 20 6
t13 -7q69 -61 75 -66q8 -7 12.5 -19t0.5 -18q-8 -11 -25 -2q-40 26 -64 37q-17 8 -39 1q-22 -6 -69 -36q-23 -16 -30 -5z" />
    <glyph glyph-name="scircumflex" unicode="&#x15d;" horiz-adv-x="357" 
d="M67 508q-11 18 12 36q11 8 44.5 37.5t45.5 36.5q16 11 33 -2q12 -10 33.5 -32t36.5 -33q8 -7 12.5 -19t0.5 -19q-9 -10 -25 -1q-52 33 -59 37q-17 8 -39 1q-14 -4 -65 -37q-23 -15 -30 -5zM211 443q85 0 90 -52q0 -28 -40 -61q-11 -10 -22.5 -5.5t-7.5 18.5q5 24 -6 40
t-35 16q-36 0 -53.5 -18.5t-16.5 -36.5q0 -19 9 -30t35 -24q4 -2 31 -12t36 -14q43 -16 67 -47.5t24 -68.5q0 -75 -51 -116.5t-124 -41.5q-61 -1 -91.5 18t-30.5 49q0 23 16.5 44.5t39.5 33.5q19 9 27 1q6 -4 6 -12t-4 -11q-11 -13 -11 -39q0 -39 63 -39q35 0 64.5 17
t29.5 52q0 16 -7.5 27.5t-17 18t-29.5 17.5q-16 9 -46 22t-39 18q-72 38 -72 104q0 45 29.5 76.5t65.5 43.5t71 12z" />
    <glyph glyph-name="Scedilla" unicode="&#x15e;" horiz-adv-x="484" 
d="M174 -174q20 2 36 11.5t16 20.5q0 22 -53 39q-21 7 -10 25q12 17 29 49q4 7 3.5 11t-11.5 4q-135 6 -135 82q0 54 60 99q25 18 38 11q15 -7 1 -27q-14 -23 -14 -54q0 -60 88 -60q69 0 102 30t33 73q0 24 -9.5 43t-19.5 27.5t-30 21.5q-14 9 -42.5 23.5t-60.5 29.5t-42 20
q-42 23 -61 54t-19 80q0 60 58.5 115t138.5 55q138 0 138 -78q0 -42 -32 -72q-27 -30 -41 -18q-14 8 -1 30q5 6 5 26q0 35 -20.5 48.5t-60.5 13.5q-41 0 -72.5 -23.5t-31.5 -64.5q0 -44 41 -69q27 -14 84 -41.5t76 -38.5q83 -42 83 -119q0 -94 -54.5 -147.5t-130.5 -66.5
q-26 -4 -26 -23q-7 -15 16 -23q43 -17 43 -63q0 -69 -109 -87q-11 -2 -16.5 1.5t-3.5 10.5q3 19 17 21z" />
    <glyph glyph-name="scedilla" unicode="&#x15f;" horiz-adv-x="357" 
d="M112 -174q20 2 36 11.5t16 20.5q0 23 -54 39q-20 8 -9 25q15 23 28 48q6 11 6 16t-12 5q-98 6 -98 66q0 23 16.5 44.5t39.5 33.5q19 9 27 1q6 -4 6 -12t-4 -11q-11 -13 -11 -39q0 -39 63 -39q35 0 64.5 17t29.5 52q0 23 -12.5 35.5t-41.5 27.5q-13 7 -41.5 20t-40.5 19
q-75 41 -75 105q0 45 29.5 76.5t65.5 43.5t71 12q85 0 90 -52q0 -28 -40 -61q-11 -10 -22.5 -5.5t-7.5 18.5q5 24 -6 40t-35 16q-36 0 -53.5 -18.5t-16.5 -36.5q0 -19 9 -30t35 -24q6 -3 32 -13t35 -14q91 -33 91 -115q0 -62 -36 -101.5t-92 -51.5q-15 -4 -19 -8.5
t-10 -20.5q-7 -15 16 -23q43 -18 43 -63q0 -69 -110 -87q-10 -2 -15.5 1.5t-4.5 10.5q5 19 18 21z" />
    <glyph glyph-name="Scaron" unicode="&#x160;" horiz-adv-x="484" 
d="M376 764q11 -17 -12 -35q-9 -7 -43.5 -36.5t-46.5 -37.5q-16 -12 -32 2q-12 10 -33.5 32t-36.5 33q-8 7 -13 19t0 18q8 11 25 2q55 -36 58 -37q19 -8 40 -1q8 2 65 36q23 15 29 5zM270 609q138 0 138 -78q0 -42 -32 -72q-27 -30 -41 -18q-14 8 -1 30q5 6 5 26
q0 35 -20.5 48.5t-60.5 13.5q-41 0 -72.5 -23.5t-31.5 -64.5q0 -44 41 -69q27 -14 84 -41.5t76 -38.5q83 -42 83 -119q0 -56 -21.5 -100t-56.5 -68.5t-73.5 -37t-77.5 -12.5q-160 0 -160 83q0 54 60 99q25 18 38 11q15 -7 1 -27q-14 -23 -14 -54q0 -60 88 -60q69 0 102 30
t33 73q0 24 -9.5 43t-19.5 27.5t-30 21.5q-14 9 -42.5 23.5t-60.5 29.5t-42 20q-42 23 -61 54t-19 80q0 60 58.5 115t138.5 55z" />
    <glyph glyph-name="scaron" unicode="&#x161;" horiz-adv-x="357" 
d="M308 620q11 -17 -12 -35q-9 -7 -43.5 -36.5t-46.5 -37.5q-16 -11 -33 2q-13 11 -34 32.5t-35 32.5q-8 7 -13 19t0 18q9 12 24 2q52 -33 59 -37q19 -8 40 -1q8 2 65 36q6 5 15 7.5t14 -2.5zM211 443q85 0 90 -52q0 -28 -40 -61q-11 -10 -22.5 -5.5t-7.5 18.5q5 24 -6 40
t-35 16q-36 0 -53.5 -18.5t-16.5 -36.5q0 -19 9 -30t35 -24q4 -2 31 -12t36 -14q43 -16 67 -47.5t24 -68.5q0 -75 -51 -116.5t-124 -41.5q-61 -1 -91.5 18t-30.5 49q0 23 16.5 44.5t39.5 33.5q19 9 27 1q6 -4 6 -12t-4 -11q-11 -13 -11 -39q0 -39 63 -39q35 0 64.5 17
t29.5 52q0 23 -13 36.5t-41 26.5q-10 4 -39.5 19t-42.5 20q-75 31 -75 105q0 45 29.5 76.5t65.5 43.5t71 12z" />
    <glyph glyph-name="Tcommaaccent" unicode="&#x162;" horiz-adv-x="582" 
d="M243 -174q21 2 36.5 11t15.5 21q0 22 -53 39q-21 7 -10 25q18 27 30 51q14 28 -10 28q-20 0 -40 -1t-31.5 -2t-12.5 -1q-8 -2 -15 4t-6.5 16t12.5 17q9 5 29.5 9.5t32.5 13.5t16 31q0 3 2 16t2.5 19t2 27.5t2 48t1 74.5t0.5 113q0 46 -0.5 81.5t-0.5 60.5t-25 25h-39
q-37 -2 -62.5 -13t-36.5 -26.5t-19 -33t-10.5 -32.5t-9.5 -24t-18 -8q-15 7 -14 27t17 109q5 27 9 39t13.5 15t19 0.5t33 -7.5t46.5 -6q91 -6 201.5 1.5t152.5 14.5q34 3 50 -27q19 -35 11 -85t-38 -82q-8 -5 -14 -5q-19 0 -19 14q0 6 7 23t7 31q0 52 -24.5 64.5
t-101.5 12.5q-19 0 -29 -7t-10 -26q0 -23 -0.5 -55.5t-0.5 -75.5v-85q0 -170 8.5 -211.5t51.5 -49.5q44 -7 47 -29q0 -8 -10.5 -13.5t-26.5 -3.5q-30 3 -65 3q-21 0 -32.5 -7.5t-18.5 -28.5q-7 -15 16 -23q43 -17 43 -63q0 -69 -109 -87q-11 -2 -16.5 1.5t-3.5 10.5
q3 19 17 21z" />
    <glyph glyph-name="tcommaaccent" unicode="&#x163;" horiz-adv-x="331" 
d="M102 -174q20 2 36 11.5t16 20.5q0 23 -54 39q-21 8 -9 25q15 21 27 45q10 21 -14 46q-27 29 -27 110q0 33 2.5 111.5t2.5 137.5q0 7 -3 10.5t-8.5 4.5t-13 1t-16.5 -0.5t-19 0.5q-17 0 -8 19t24 19h17q19 0 24.5 2.5t11.5 10.5l19 34q10 19 18 37t11 28t6.5 18t7 11
t9.5 3q14 0 16.5 -11.5t-0.5 -45.5q-1 -28 -2 -46q-2 -17 0 -27q0 -11 7 -11q28 0 51 2t34 4t19 3t10.5 -0.5t4.5 -6.5q3 -17 -5.5 -35.5t-26.5 -16.5q-55 5 -79 5q-14 0 -16 -8.5t-4 -64.5q-1 -24 -1 -74v-29.5v-31.5t0.5 -27.5t2 -27t4.5 -21t7.5 -17.5t10.5 -9
q26 -11 79 35q10 8 23 -4q9 -7 -4 -23l-23 -24q-35 -38 -78 -58q-27 -12 -37 -34q-7 -15 16 -23q43 -18 43 -63q0 -69 -110 -87q-10 -2 -16 1.5t-4 10.5q5 19 18 21z" />
    <glyph glyph-name="Tcaron" unicode="&#x164;" horiz-adv-x="582" 
d="M247 528q0 16 -6.5 20.5t-19.5 4.5h-10h-17h-11q-61 -4 -89 -30.5t-41 -80.5q-2 -11 -9 -19t-17 -7q-19 4 -14 31q1 5 9.5 61.5t15.5 78.5q9 27 39 19q52 -18 234 -13q98 1 194 16q34 3 50 -27q18 -28 11 -81t-38 -86q-13 -10 -26 -2q-13 7 -5 23q12 21 12 42
q0 23 -5.5 37.5t-13.5 22.5t-26.5 12t-34 4.5t-46.5 0.5q-40 0 -40 -33q0 -12 -0.5 -88t-0.5 -130t1.5 -113t4.5 -77q3 -21 6.5 -32.5t15.5 -22t32 -14.5q46 -9 47 -29q1 -8 -9.5 -13.5t-27.5 -3.5q-52 6 -244 -2q-17 -2 -20 16q-3 11 10.5 19t28.5 11q12 2 21 6.5t14 7.5
t9 12t5 12t3 15.5t3 15.5q5 27 5 416zM410 755q12 -18 -12 -35q-9 -7 -43.5 -36.5t-46.5 -37.5q-16 -12 -33 1q-10 9 -32.5 31.5t-37.5 34.5q-8 7 -12.5 19t0.5 18q9 12 24 2q47 -32 59 -37q16 -9 40 -1q13 4 64 36q23 16 30 5z" />
    <glyph glyph-name="tcaron" unicode="&#x165;" horiz-adv-x="331" 
d="M162 570q15 0 17 -11t-1 -59t-2 -60q0 -11 7 -11q58 0 100 9q18 3 19 -7q5 -19 -7 -39q-12 -14 -25 -13q-55 5 -79 5q-4 0 -6.5 -0.5t-4.5 -1.5l-3 -1.5t-1.5 -3t-1 -3t-0.5 -4v-4.5q-4 -36 -4 -129t3 -113q5 -42 23 -50t37 6q21 11 41 29q13 8 23 -4q3 -2 2.5 -9.5
t-6.5 -13.5q-86 -95 -150 -95q-12 0 -26 11.5t-27 44t-13 80.5q0 26 2.5 110.5t2.5 138.5q0 14 -12 14q-6 1 -24.5 1.5t-23.5 0.5q-18 0 -3 24q8 14 19 14q22 0 31 1q15 1 22 12q36 61 55 118q6 13 16 13zM261 486q-4 3 -4.5 11t9.5 20q18 18 25.5 41.5t-1.5 35.5
q-12 21 -34 9q-16 -10 -26 0q-7 9 7 39q10 23 32.5 37.5t44.5 14.5t39.5 -21t17.5 -52t-18 -66.5t-47 -59.5q-28 -24 -45 -9z" />
    <glyph glyph-name="Tbar" unicode="&#x166;" horiz-adv-x="582" 
d="M162 268q-15 0 -19 4t1 18q9 19 30 19h49q13 0 18.5 6t5.5 21v192q0 16 -6.5 20.5t-19.5 4.5h-10h-17h-11q-61 -4 -89 -30.5t-41 -80.5q-2 -11 -9 -19t-17 -7q-19 4 -14 31q1 5 9.5 61.5t15.5 78.5q9 27 39 19q52 -18 234 -13q98 1 194 16q34 3 50 -27q18 -28 11 -81
t-38 -86q-13 -10 -26 -2q-13 7 -5 23q12 21 12 42q0 23 -5.5 37.5t-13.5 22.5t-26.5 12t-34 4.5t-46.5 0.5q-40 0 -40 -33v-186q0 -14 4 -18.5t20 -4.5l56 4q4 0 10.5 1t10 1.5t7 0t5 -3.5t1.5 -8q0 -17 -21 -32q-8 -6 -28 -6q-7 -1 -40 -1q-14 0 -19.5 -4.5t-5.5 -19.5
q0 -107 5 -131q3 -21 6.5 -32.5t15.5 -22t32 -14.5q46 -9 47 -29q1 -8 -9.5 -13.5t-27.5 -3.5q-52 6 -244 -2q-17 -2 -20 16q-3 11 10.5 19t28.5 11q12 2 21 6.5t14 7.5t9 12t5 12t3 15.5t3 15.5q3 22 5 130q0 20 -3.5 23t-24.5 3h-57z" />
    <glyph glyph-name="tbar" unicode="&#x167;" horiz-adv-x="331" 
d="M146 557q6 13 16 13q15 0 17 -11t-1 -59t-2 -60q0 -11 7 -11q58 0 100 9q18 3 19 -7q5 -19 -7 -39q-12 -14 -25 -13q-55 5 -79 5q-4 0 -6.5 -0.5t-4.5 -1.5l-3 -1.5t-1.5 -3t-1 -3t-0.5 -4v-4.5q-3 -51 -3 -77h1q0 -11 8 -11q57 0 99 8q16 3 19 -7q5 -17 -8 -38
q-9 -15 -24 -14q-41 5 -79 5q-17 0 -17 -11q0 -79 3 -97q5 -42 23 -50t37 6q21 11 41 29q13 8 23 -4q3 -2 2.5 -9.5t-6.5 -13.5q-86 -95 -150 -95q-12 0 -26 11.5t-27 44t-13 80.5q0 56 1 92v2q0 17 -12 18q-5 1 -23 1.5t-25 0.5q-18 0 -4 24q10 13 20 13q22 0 31 1
q15 2 15 14q2 54 2 83q0 14 -12 14q-6 1 -24.5 1.5t-23.5 0.5q-18 0 -3 24q8 14 19 14q22 0 31 1q15 1 22 12q36 61 55 118z" />
    <glyph glyph-name="Utilde" unicode="&#x168;" horiz-adv-x="769" 
d="M39 565q-16 0 -18 12q-1 7 6.5 14t17.5 7q144 -12 227 0q9 1 17 -3.5t8 -12.5q0 -12 -17 -17q-39 -13 -53.5 -33t-16.5 -55q-10 -201 -6 -282q5 -145 119 -145q91 0 154.5 71t69.5 176q5 81 5 195q-1 25 -19.5 45t-58.5 23q-7 1 -16 9t-6 15q7 16 40 12q20 -2 102.5 -2
t105.5 2q31 3 31 -13q0 -18 -18 -25q-34 -9 -46 -27.5t-12 -62.5q0 -7 -1.5 -162.5t0.5 -180.5q3 -44 25 -64.5t54 -18.5q16 1 16 -19q0 -13 -20 -18q-41 -9 -101 -9q-38 0 -58 18t-21 68q0 5 2 19t1 19q-2 9 -8 8t-11 -7q-24 -31 -43 -51t-50 -41.5t-71.5 -32.5t-90.5 -11
q-77 0 -128.5 47t-49.5 129q9 269 8 316q-2 45 -17.5 65t-51.5 23zM247 659q-9 12 6 35q37 51 76 51q35 0 61 -14q27 -13 47 -13q24 0 42 16l6 6l6 6t6 4.5t6 2.5h6q14 -5 4 -27q-11 -29 -37 -49.5t-46 -20.5q-28 0 -55 13q-35 15 -55 15q-25 0 -50 -25q-13 -11 -23 0z" />
    <glyph glyph-name="utilde" unicode="&#x169;" 
d="M304 413q124 26 134 26q19 0 25 -5.5t6 -21.5q0 -35 -4.5 -139t-3.5 -156q1 -42 12 -56.5t39 -9.5q8 3 20 1t13 -12q2 -15 -15 -21q-96 -29 -128 -29q-13 0 -19.5 5t-8 10t-3.5 19q-2 22 4 54q1 7 -3.5 11t-10.5 3t-9 -5q-75 -100 -153 -100q-60 0 -92.5 36t-32.5 100
q0 33 3 103t1 126q-1 18 -15.5 28.5t-41.5 5.5q-8 -1 -19 1.5t-11 9.5q-1 7 3.5 12.5t11.5 6.5q11 1 73.5 12t72.5 11q6 0 8.5 -0.5t6 -2t5 -6t1.5 -12.5q1 -11 -3.5 -132.5t-4.5 -139.5q0 -88 77 -88q43 0 81 48t46 102q10 73 4 147q-2 24 -22 29t-39 -1q-15 -3 -22 8
q-2 4 2.5 12.5t11.5 9.5zM130 516q-9 12 7 35q37 51 76 51q35 0 61 -14q27 -13 47 -13q24 0 42 16q2 2 8 7.5t7 6.5t7 4t8 0q5 -1 7 -8t-3 -19q-12 -28 -37.5 -48.5t-45.5 -20.5q-27 0 -56 13q-31 14 -54 14q-26 0 -50 -24q-14 -12 -24 0z" />
    <glyph glyph-name="Umacron" unicode="&#x16a;" horiz-adv-x="769" 
d="M39 565q-16 0 -18 12q-1 7 6.5 14t17.5 7q144 -12 227 0q9 1 17 -3.5t8 -12.5q0 -12 -17 -17q-39 -13 -53.5 -33t-16.5 -55q-10 -201 -6 -282q5 -145 119 -145q91 0 154.5 71t69.5 176q5 81 5 195q-1 25 -19.5 45t-58.5 23q-7 1 -16 9t-6 15q7 16 40 12q20 -2 102.5 -2
t105.5 2q31 3 31 -13q0 -18 -18 -25q-34 -9 -46 -27.5t-12 -62.5q0 -7 -1.5 -162.5t0.5 -180.5q3 -44 25 -64.5t54 -18.5q16 1 16 -19q0 -13 -20 -18q-41 -9 -101 -9q-38 0 -58 18t-21 68q0 5 2 19t1 19q-2 9 -8 8t-11 -7q-24 -31 -43 -51t-50 -41.5t-71.5 -32.5t-90.5 -11
q-77 0 -128.5 47t-49.5 129q9 269 8 316q-2 45 -17.5 65t-51.5 23zM266 642q-15 0 -19 4t1 18q9 20 31 20q147 2 213 8q4 0 10 1t9.5 1.5t7 0t5 -3.5t1.5 -8q0 -19 -21 -32q-8 -6 -28 -6q-54 -3 -210 -3z" />
    <glyph glyph-name="umacron" unicode="&#x16b;" 
d="M304 413q124 26 134 26q19 0 25 -5.5t6 -21.5q0 -35 -4.5 -139t-3.5 -156q1 -42 12 -56.5t39 -9.5q8 3 20 1t13 -12q2 -15 -15 -21q-96 -29 -128 -29q-13 0 -19.5 5t-8 10t-3.5 19q-2 22 4 54q1 7 -3.5 11t-10.5 3t-9 -5q-75 -100 -153 -100q-60 0 -92.5 36t-32.5 100
q0 33 3 103t1 126q-1 18 -15.5 28.5t-41.5 5.5q-8 -1 -19 1.5t-11 9.5q-1 7 3.5 12.5t11.5 6.5q11 1 73.5 12t72.5 11q6 0 8.5 -0.5t6 -2t5 -6t1.5 -12.5q1 -11 -3.5 -132.5t-4.5 -139.5q0 -88 77 -88q43 0 81 48t46 102q10 73 4 147q-2 24 -22 29t-39 -1q-15 -3 -22 8
q-2 4 2.5 12.5t11.5 9.5zM150 508q-15 0 -19 4t1 17q9 20 30 20q180 4 213 7q5 0 13 1t11.5 1t6.5 -2.5t3 -9.5q0 -17 -21 -32q-8 -6 -28 -6h-210z" />
    <glyph glyph-name="Ubreve" unicode="&#x16c;" horiz-adv-x="769" 
d="M39 565q-16 0 -18 12q-1 7 6.5 14t17.5 7q144 -12 227 0q9 1 17 -3.5t8 -12.5q0 -12 -17 -17q-39 -13 -53.5 -33t-16.5 -55q-10 -201 -6 -282q5 -145 119 -145q91 0 154.5 71t69.5 176q5 81 5 195q-1 25 -19.5 45t-58.5 23q-7 1 -16 9t-6 15q7 16 40 12q20 -2 102.5 -2
t105.5 2q31 3 31 -13q0 -18 -18 -25q-34 -9 -46 -27.5t-12 -62.5q0 -7 -1.5 -162.5t0.5 -180.5q3 -44 25 -64.5t54 -18.5q16 1 16 -19q0 -13 -20 -18q-41 -9 -101 -9q-38 0 -58 18t-21 68q0 5 2 19t1 19q-2 9 -8 8t-11 -7q-24 -31 -43 -51t-50 -41.5t-71.5 -32.5t-90.5 -11
q-77 0 -128.5 47t-49.5 129q9 269 8 316q-2 45 -17.5 65t-51.5 23zM484 748q12 -2 7 -27q-12 -44 -45.5 -67t-70.5 -23q-43 0 -68.5 24.5t-32.5 58.5q-7 31 8 33q16 3 26 -15q18 -27 69 -27q62 0 81 29q9 17 26 14z" />
    <glyph glyph-name="ubreve" unicode="&#x16d;" 
d="M304 413q124 26 134 26q19 0 25 -5.5t6 -21.5q0 -35 -4.5 -139t-3.5 -156q1 -42 12 -56.5t39 -9.5q8 3 20 1t13 -12q2 -15 -15 -21q-96 -29 -128 -29q-13 0 -19.5 5t-8 10t-3.5 19q-2 22 4 54q1 7 -3.5 11t-10.5 3t-9 -5q-75 -100 -153 -100q-60 0 -92.5 36t-32.5 100
q0 33 3 103t1 126q-1 18 -15.5 28.5t-41.5 5.5q-8 -1 -19 1.5t-11 9.5q-1 7 3.5 12.5t11.5 6.5q11 1 73.5 12t72.5 11q6 0 8.5 -0.5t6 -2t5 -6t1.5 -12.5q1 -11 -3.5 -132.5t-4.5 -139.5q0 -88 77 -88q43 0 81 48t46 102q10 73 4 147q-2 24 -22 29t-39 -1q-15 -3 -22 8
q-2 4 2.5 12.5t11.5 9.5zM371 605q12 -2 7 -28q-12 -44 -45.5 -66.5t-69.5 -22.5q-44 0 -69.5 24.5t-32.5 58.5q-7 31 8 33q16 3 26 -15q18 -28 69 -28q62 0 81 30q9 17 26 14z" />
    <glyph glyph-name="Uring" unicode="&#x16e;" horiz-adv-x="769" 
d="M39 565q-16 0 -18 12q-1 7 6.5 14t17.5 7q144 -12 227 0q9 1 17 -3.5t8 -12.5q0 -12 -17 -17q-39 -13 -53.5 -33t-16.5 -55q-10 -201 -6 -282q5 -145 119 -145q91 0 154.5 71t69.5 176q5 81 5 195q-1 25 -19.5 45t-58.5 23q-7 1 -16 9t-6 15q7 16 40 12q20 -2 102.5 -2
t105.5 2q31 3 31 -13q0 -18 -18 -25q-34 -9 -46 -27.5t-12 -62.5q0 -7 -1.5 -162.5t0.5 -180.5q3 -44 25 -64.5t54 -18.5q16 1 16 -19q0 -13 -20 -18q-41 -9 -101 -9q-38 0 -58 18t-21 68q0 5 2 19t1 19q-2 9 -8 8t-11 -7q-24 -31 -43 -51t-50 -41.5t-71.5 -32.5t-90.5 -11
q-77 0 -128.5 47t-49.5 129q9 269 8 316q-2 45 -17.5 65t-51.5 23zM372 628q-105 0 -105 71q0 42 39 63t82 21q102 0 102 -68q0 -40 -39 -63.5t-79 -23.5zM381 749q-25 0 -39.5 -12t-14.5 -31q0 -44 48 -44q22 0 37 13t15 38q0 16 -13 26t-33 10z" />
    <glyph glyph-name="uring" unicode="&#x16f;" 
d="M304 413q124 26 134 26q19 0 25 -5.5t6 -21.5q0 -35 -4.5 -139t-3.5 -156q1 -42 12 -56.5t39 -9.5q8 3 20 1t13 -12q2 -15 -15 -21q-96 -29 -128 -29q-13 0 -19.5 5t-8 10t-3.5 19q-2 22 4 54q1 7 -3.5 11t-10.5 3t-9 -5q-75 -100 -153 -100q-60 0 -92.5 36t-32.5 100
q0 33 3 103t1 126q-1 18 -15.5 28.5t-41.5 5.5q-8 -1 -19 1.5t-11 9.5q-1 7 3.5 12.5t11.5 6.5q11 1 73.5 12t72.5 11q6 0 8.5 -0.5t6 -2t5 -6t1.5 -12.5q1 -11 -3.5 -132.5t-4.5 -139.5q0 -88 77 -88q43 0 81 48t46 102q10 73 4 147q-2 24 -22 29t-39 -1q-15 -3 -22 8
q-2 4 2.5 12.5t11.5 9.5zM261 490q-105 0 -105 73q0 43 39.5 65.5t81.5 22.5t72 -16.5t30 -54.5q0 -40 -39 -65t-79 -25zM271 617q-26 0 -41 -12.5t-15 -33.5t13 -34t38 -13q22 0 36 14t14 41q0 17 -12.5 27.5t-32.5 10.5z" />
    <glyph glyph-name="Uhungarumlaut" unicode="&#x170;" horiz-adv-x="769" 
d="M39 565q-16 0 -18 12q-1 7 6.5 14t17.5 7q144 -12 227 0q9 1 17 -3.5t8 -12.5q0 -12 -17 -17q-39 -13 -53.5 -33t-16.5 -55q-10 -201 -6 -282q5 -145 119 -145q91 0 154.5 71t69.5 176q5 81 5 195q-1 25 -19.5 45t-58.5 23q-7 1 -16 9t-6 15q7 16 40 12q20 -2 102.5 -2
t105.5 2q31 3 31 -13q0 -18 -18 -25q-34 -9 -46 -27.5t-12 -62.5q0 -7 -1.5 -162.5t0.5 -180.5q3 -44 25 -64.5t54 -18.5q16 1 16 -19q0 -13 -20 -18q-41 -9 -101 -9q-38 0 -58 18t-21 68q0 5 2 19t1 19q-2 9 -8 8t-11 -7q-24 -31 -43 -51t-50 -41.5t-71.5 -32.5t-90.5 -11
q-77 0 -128.5 47t-49.5 129q9 269 8 316q-2 45 -17.5 65t-51.5 23zM270 644q-2 0 -3.5 2.5t-0.5 7t5 9.5q9 12 21.5 34t15.5 27q16 23 45 28q56 8 78 8q10 0 10 -11t-10 -16q-70 -35 -130 -85q-16 -14 -31 -4zM430 646q-2 0 -3.5 2t-0.5 7t5 10q9 12 22 34.5t15 24.5
q16 23 45 28q56 8 78 8q10 0 10 -11t-10 -16q-76 -39 -130 -83q-15 -15 -31 -4z" />
    <glyph glyph-name="uhungarumlaut" unicode="&#x171;" 
d="M304 413q124 26 134 26q19 0 25 -5.5t6 -21.5q0 -35 -4.5 -139t-3.5 -156q1 -42 12 -56.5t39 -9.5q8 3 20 1t13 -12q2 -15 -15 -21q-96 -29 -128 -29q-13 0 -19.5 5t-8 10t-3.5 19q-2 22 4 54q1 7 -3.5 11t-10.5 3t-9 -5q-75 -100 -153 -100q-60 0 -92.5 36t-32.5 100
q0 33 3 103t1 126q-1 18 -15.5 28.5t-41.5 5.5q-8 -1 -19 1.5t-11 9.5q-1 7 3.5 12.5t11.5 6.5q11 1 73.5 12t72.5 11q6 0 8.5 -0.5t6 -2t5 -6t1.5 -12.5q1 -11 -3.5 -132.5t-4.5 -139.5q0 -88 77 -88q43 0 81 48t46 102q10 73 4 147q-2 24 -22 29t-39 -1q-15 -3 -22 8
q-2 4 2.5 12.5t11.5 9.5zM272 689q27 0 8 -31q-46 -85 -70 -146q-8 -26 -26 -26q-15 0 -10 26q10 49 10 141q0 6 1.5 11t2.5 7.5t4.5 5t4.5 3t6.5 2t6.5 1.5q24 6 62 6zM410 689q27 0 8 -31q-46 -85 -70 -146q-8 -26 -27 -26q-15 0 -10 26q9 49 11 141q0 6 1.5 11t2.5 7.5
t4.5 5t4.5 3t6.5 2t6.5 1.5q24 6 62 6z" />
    <glyph glyph-name="Uogonek" unicode="&#x172;" horiz-adv-x="769" 
d="M706 -130q4 -7 -1.5 -17t-15.5 -15q-39 -22 -78 -22q-93 0 -93 82q0 35 55 88q13 12 -2 27q-22 20 -22 69q0 5 2 19t1 19q-2 9 -8 8t-11 -7q-24 -31 -43 -51t-50 -41.5t-71.5 -32.5t-90.5 -11q-77 0 -128.5 47t-49.5 129q9 269 8 316q-2 45 -17.5 65t-51.5 23
q-16 0 -18 12q-1 7 6.5 14t17.5 7q144 -12 227 0q9 1 17 -3.5t8 -12.5q0 -12 -17 -17q-39 -13 -53.5 -33t-16.5 -55q-10 -201 -6 -282q5 -145 119 -145q91 0 154.5 71t69.5 176q5 81 5 195q-1 25 -19.5 45t-58.5 23q-7 1 -16 9t-6 15q7 16 40 12q20 -2 102.5 -2t105.5 2
q31 3 31 -13q0 -18 -18 -25q-34 -9 -46 -27.5t-12 -62.5q0 -7 -1.5 -162.5t0.5 -180.5q3 -44 25 -64.5t54 -18.5q16 1 16 -19q0 -13 -20 -18q-31 -7 -67 -8q-3 0 -7.5 -0.5t-6.5 -0.5t-5 -1t-4 -1.5l-3 -1.5t-3.5 -2.5l-3.5 -3.5q-24 -27 -24 -63q0 -29 25.5 -40.5
t50.5 -4.5q17 6 25 -8z" />
    <glyph glyph-name="uogonek" unicode="&#x173;" 
d="M497 -130q4 -7 -2 -17t-16 -15q-38 -22 -77 -22q-94 0 -94 82q0 43 55 91l7.5 7.5t2.5 4.5t0.5 4.5t-1.5 7t-1 11.5q-2 22 4 54q1 7 -3.5 11t-10.5 3t-9 -5q-75 -100 -153 -100q-60 0 -92.5 36t-32.5 100q0 33 3 103t1 126q-1 18 -15.5 28.5t-41.5 5.5q-8 -1 -19 1.5
t-11 9.5q-1 7 3.5 12.5t11.5 6.5q11 1 73.5 12t72.5 11q6 0 8.5 -0.5t6 -2t5 -6t1.5 -12.5q1 -11 -3.5 -132.5t-4.5 -139.5q0 -88 77 -88q43 0 81 48t46 102q10 73 4 147q-2 24 -22 29t-39 -1q-15 -3 -22 8q-2 4 2.5 12.5t11.5 9.5q124 26 134 26q19 0 25 -5.5t6 -21.5
q0 -35 -4.5 -139t-3.5 -156q1 -42 12 -56.5t39 -9.5q8 3 20 1t13 -12q2 -15 -15 -21q-34 -10 -86 -22q-2 0 -5 -1l-4.5 -1.5t-3.5 -1t-3 -1l-3 -1.5l-3 -1.5t-2.5 -2l-3 -3l-3.5 -3.5q-17 -25 -17 -58q0 -29 25 -40.5t50 -4.5q18 6 26 -8z" />
    <glyph glyph-name="Wcircumflex" unicode="&#x174;" horiz-adv-x="994" 
d="M319 573q0 16 12.5 21.5t36.5 -0.5q82 -11 186 0q26 4 35 -0.5t9 -18.5q0 -16 -19 -20q-32 -8 -39 -20q-15 -18 -1 -59q59 -201 112 -319q0 -1 3.5 -9t6 -11.5t7.5 -3.5q13 0 22 20q8 18 26.5 56.5t27 57t22 48.5t23.5 57t19 56q36 113 -30 133q-21 7 -21 20q0 7 9 12.5
t24 4.5q121 -7 172 -2q10 1 15.5 -7.5t3.5 -16.5q0 -12 -19 -26q-58 -45 -90 -107q-115 -237 -141 -312q-3 -9 -9 -26t-9 -28t-3 -20q0 -5 -5 -18t-13 -18q-34 -21 -74 -23q-23 0 -30 19q-49 137 -80 239q-7 24 -21 0q-56 -104 -85 -185q-1 -1 -6 -22t-12 -26
q-30 -23 -80 -25q-18 0 -25 15q-8 14 -19 59q-2 5 -21 66t-38 120.5t-42.5 125.5t-38.5 96q-35 67 -71 79q-31 9 -31 20q0 13 13 19t35 0q69 -10 155 0q46 7 46 -18q0 -15 -23 -20q-21 -5 -23 -32.5t7 -47.5q11 -30 29 -82.5t29 -83t28 -73.5t34 -80l4 -9q5 -8 8.5 -11.5
t7.5 -3.5t7.5 2.5t5 4.5t4.5 8l3 5q32 51 80 175q6 14 0 36q-14 62 -37 112q-21 38 -38.5 55t-42.5 23q-31 6 -31 19zM344 645q-12 18 12 35q11 7 46.5 36.5t47.5 37.5q16 11 33 -1q69 -61 75 -66q8 -7 12.5 -19t0.5 -18q-8 -11 -25 -2q-40 26 -64 37q-17 8 -39 1
q-16 -5 -69 -36q-23 -16 -30 -5z" />
    <glyph glyph-name="wcircumflex" unicode="&#x175;" horiz-adv-x="737" 
d="M184 -6q-13 -1 -22 28q-55 243 -96 342q-8 18 -21 25.5t-39 12.5q-10 1 -17 6.5t-6 11.5q0 13 25 12q29 -2 82 -2t63 2q34 5 37 -8q5 -12 -9 -20q-16 -9 -13 -30q2 -14 30 -125.5t33 -128.5q4 -12 9 -12.5t12 8.5q5 7 17 32t23.5 50.5t21.5 47.5l10 23q24 61 23 93
q-1 45 -57 43q-18 0 -18 12q0 6 4 11.5t9 5.5q15 0 89.5 -3t87.5 2q23 1 26 -9q3 -6 -0.5 -12t-10.5 -8q-25 -6 -29.5 -32.5t5.5 -66.5q15 -80 47 -186q2 -8 8.5 -7.5t10.5 8.5q29 61 54 133t31 116q-2 5 0 8t-2 7t-3 5.5t-4 4.5t-5.5 3.5t-6 3t-6.5 2.5t-7 2l-6 2
q-13 2 -13 13q1 6 6.5 10t10.5 3q62 -7 131 0q24 1 24 -14q0 -5 -14 -19q-36 -36 -58 -77q-55 -98 -107 -246q-1 -4 -3 -18t-5.5 -26.5t-8.5 -16.5q-23 -19 -70 -22q-8 -1 -14 6t-9 18q-57 223 -59 229t-9.5 7t-11.5 -5q-23 -43 -80 -183q-2 -4 -5.5 -26t-8.5 -25
q-23 -17 -76 -21zM272 508q-11 18 12 36q9 7 43.5 36.5t46.5 37.5q16 11 33 -2q12 -10 33 -32t36 -33q8 -7 13 -19t0 -19q-9 -10 -24 -1q-52 33 -59 37q-19 8 -40 1q-14 -4 -65 -37q-22 -15 -29 -5z" />
    <glyph glyph-name="Ycircumflex" unicode="&#x176;" 
d="M18 579q-1 7 7.5 12.5t19.5 4.5q59 -6 161 -2q18 3 24 -6q7 -14 -9 -29q-14 -18 -6 -42q-4 3 17.5 -33t45.5 -74t26 -40q10 -10 26 4q19 17 45 63.5t30 70.5q6 35 -24 54q-16 11 -10 26q2 4 10 6t13 0q55 -7 131 -1q30 6 30 -13q0 -8 -5.5 -12.5t-24.5 -15.5q-2 -1 -3 -2
q-13 -9 -67 -71q-44 -59 -98 -135q-25 -34 -26 -72q-2 -19 -2 -154q1 -35 16.5 -53t51.5 -30q21 -5 21 -19q0 -10 -11.5 -15.5t-20.5 -4.5q-28 5 -101 6.5t-116 -4.5q-12 -2 -24.5 1t-13.5 10q-2 21 23 26q36 6 54.5 25.5t20.5 48.5q5 87 2 173q-2 23 -6 36q-11 29 -52 90.5
t-69 98.5q-36 44 -59 51q-25 8 -27 21zM186 645q-12 18 12 35q8 6 45 36t49 38q17 7 20 6t13 -7q69 -61 75 -66q8 -7 12.5 -19t-0.5 -18q-8 -12 -24 -2q-34 22 -64 37q-17 8 -39 1q-18 -5 -70 -36q-5 -4 -14.5 -7t-14.5 2z" />
    <glyph glyph-name="ycircumflex" unicode="&#x177;" horiz-adv-x="482" 
d="M69 -274q-28 0 -46.5 21t-18.5 48q0 49 36 83q12 11 24.5 14t16.5 -1t4 -10.5t-6 -12.5q-16 -14 -10.5 -36t23.5 -22q29 0 55 33.5t39 67.5t20 64q5 20 -6 54q-3 18 -55.5 159.5t-66.5 166.5q-23 41 -68 47q-20 4 -20 21q0 16 44 10q25 -4 55.5 -4t64.5 2t47 2
q18 0 6 -19q-5 -10 -16 -18q-16 -15 -6 -52q40 -137 73 -212q4 -11 12.5 -13t12.5 6q49 90 71 202q12 60 -17 69q-34 9 -34 21q0 19 38 14q72 -7 123 0q6 1 10.5 -1t6 -4t1.5 -3q0 -15 -14 -25q-18 -14 -46 -64q-22 -39 -88.5 -189.5t-89.5 -192.5q-5 -11 -23 -51.5
t-34 -73.5t-25 -45q-1 -2 -8.5 -10.5t-10.5 -11.5l-10 -10t-12.5 -10t-14 -7t-17.5 -5.5t-20 -1.5zM153 508q-11 18 12 36q11 8 44.5 37.5t45.5 36.5q16 11 33 -2q12 -10 33.5 -32t36.5 -33q8 -7 12.5 -19t-0.5 -19q-9 -10 -24 -1q-52 33 -59 37q-18 8 -40 1q-19 -6 -64 -37
q-23 -15 -30 -5z" />
    </font>
</defs>
</svg>
