<?xml version="1.0" standalone="no"?>
<!DOCTYPE svg PUBLIC "-//W3C//DTD SVG 1.1//EN" "http://www.w3.org/Graphics/SVG/1.1/DTD/svg11.dtd" >
<svg xmlns="http://www.w3.org/2000/svg" xmlns:xlink="http://www.w3.org/1999/xlink" version="1.1">
<metadata>
Created by FontForge 20170731 at Wed Feb  4 13:32:00 2015
 By Aleksey,,,
Copyright (c) 2015 by Cyreal. All rights reserved.
</metadata>
<defs>
<font id="Sumana-Regular" horiz-adv-x="0" >
  <font-face 
    font-family="Sumana"
    font-weight="400"
    font-stretch="normal"
    units-per-em="1000"
    panose-1="0 0 5 0 0 0 0 0 0 0"
    ascent="800"
    descent="-200"
    x-height="461"
    cap-height="700"
    bbox="-463 -493 2088 961"
    underline-thickness="50"
    underline-position="-150"
    unicode-range="U+000D-FB02"
  />
<missing-glyph horiz-adv-x="500" 
d="M474 -24h-447v724h447v-724zM87 641v-605h327v605h-327zM114 433l38 41l98 -97l97 97l39 -41l-96 -96l91 -91l-39 -42l-92 93l-93 -93l-38 42l91 91z" />
    <glyph glyph-name="fi" unicode="fi" horiz-adv-x="600" 
d="M108 396l-81 24l9 44h72q0 73 19.5 129t70.5 90q30 19 64 27.5t85 8.5q34 0 67 -9.5t54 -21.5q38 -21 38 -51q0 -22 -20.5 -43.5t-43.5 -21.5q-14 0 -32 9l-22 83q-14 3 -42 3q-76 0 -113 -50t-38 -153l311 5v-407l87 -24l-8 -38h-246l8 41l72 21v315q-13 13 -31 22.5
t-36 13.5l-157 -16v-335l89 -23l-8 -39h-248l9 42l71 24v330z" />
    <glyph glyph-name="fl" unicode="fl" horiz-adv-x="602" 
d="M581 0h-236l8 41l65 21v520l-21 82q-16 3 -44 3q-91 0 -124 -56.5t-34 -146.5h153l-7 -39l-146 -28v-335l89 -23l-8 -39h-247l8 42l71 24v330l-81 25l10 43h71q0 125 57 190.5t168 65.5q54 0 87 -13l85 12v-657l84 -21z" />
    <glyph glyph-name=".notdef" horiz-adv-x="500" 
d="M474 -24h-447v724h447v-724zM87 641v-605h327v605h-327zM114 433l38 41l98 -97l97 97l39 -41l-96 -96l91 -91l-39 -42l-92 93l-93 -93l-38 42l91 91z" />
    <glyph glyph-name=".null" 
 />
    <glyph glyph-name="nonmarkingreturn" unicode="&#xd;" horiz-adv-x="186" 
 />
    <glyph glyph-name="space" unicode=" " horiz-adv-x="269" 
 />
    <glyph glyph-name="exclam" unicode="!" horiz-adv-x="266" 
d="M182.5 697.5q16.5 -24.5 13.5 -55.5l-40 -418h-45l-40 418q-2 30 15 55t48 25q32 0 48.5 -24.5zM178.5 98q18.5 -21 18.5 -50t-19.5 -49.5t-44.5 -20.5t-44 20.5t-19 49.5t19.5 50t44.5 21q26 0 44.5 -21z" />
    <glyph glyph-name="quotedbl" unicode="&#x22;" horiz-adv-x="346" 
d="M57 485zM65.3799 485l-8.37012 237h87.4189l-8.37012 -237h-70.6787zM208.38 485l-8.37012 237h87.4189l-8.37012 -237h-70.6787z" />
    <glyph glyph-name="numbersign" unicode="#" horiz-adv-x="830" 
d="M801 535v-8l-16 -64h-166l-49 -219h167l-19 -72h-164l-44 -194h-83l45 194h-198l-44 -194h-83l45 194h-166l19 72h164l52 219h-169l19 72h167l44 187h77l-43 -187h202l44 187h77l-43 -187h165zM290 244h199l51 219h-201z" />
    <glyph glyph-name="dollar" unicode="$" horiz-adv-x="529" 
d="M403 674l-4 42h50v-218h-37q-11 180 -159 180q-59 0 -90.5 -35t-31.5 -83q0 -38 21.5 -67t54 -50t87.5 -50q65 -34 104 -60t66.5 -66.5t27.5 -96.5q0 -74 -50.5 -127t-144.5 -59v-137h-52l-1 137q-34 1 -72 13t-66 30l5 -40h-54v211h35q5 -89 52.5 -132t130.5 -43
q58 0 95.5 35t37.5 90q0 41 -22 71t-54.5 51.5t-87.5 49.5q-63 33 -101.5 59t-65.5 66.5t-27 96.5q0 36 19.5 76t62 68.5t107.5 29.5v117h54l-1 -117q64 -7 111 -42z" />
    <glyph glyph-name="percent" unicode="%" horiz-adv-x="870" 
d="M320.5 690q40.5 -26 60.5 -68.5t20 -89.5q0 -51 -25 -96.5t-67 -73t-92 -27.5q-57 0 -98 26t-62 69t-21 92t22 94t64.5 72.5t100.5 27.5q57 0 97.5 -26zM165 -17l-42 35l564 698l45 -40zM145 635q-23 -46 -23 -96q0 -62 22.5 -113t75.5 -51q50 0 72.5 42.5t22.5 98.5
q0 63 -23 114t-74 51q-50 0 -73 -46zM752 339q41 -26 62 -69t21 -92q0 -48 -22 -93t-64 -73t-99 -28q-58 0 -99 26.5t-61.5 69t-20.5 89.5q0 51 25 96t67.5 72.5t92.5 27.5q57 0 98 -26zM578.5 283.5q-22.5 -42.5 -22.5 -98.5q0 -61 24.5 -113t74.5 -52t72 45.5t22 96.5
q0 62 -22.5 113t-75.5 51q-50 0 -72.5 -42.5z" />
    <glyph glyph-name="ampersand" unicode="&#x26;" horiz-adv-x="695" 
d="M389 697.5q38 -18.5 59 -50.5t21 -71q0 -58 -38.5 -106.5t-125.5 -92.5q24 -26 80 -84q43 -45 105 -103q10 34 10 64q0 40 -17.5 69t-58.5 31v33h175v-41l-83 4q31 -27 31 -90q0 -50 -20 -103l20 -18q14 -13 30 -27q43 -39 76 -59t50 -20v-33h-93q-11 0 -44 21t-80 62
q-77 -99 -215 -99q-62 0 -115.5 20.5t-86.5 64.5t-33 111q0 63 41.5 113.5t115.5 82.5q-40 51 -58 93.5t-18 89.5q1 71 52.5 114t132.5 43q49 0 87 -18.5zM228 653q-27 -31 -27 -86q0 -75 82 -166q54 36 82 81t28 91q0 49 -25.5 80t-70.5 31q-42 0 -69 -31zM156 277.5
q-20 -43.5 -20 -82.5q0 -80 46 -120.5t111 -40.5q102 0 161 77q-20 18 -29 27l-15 14q-15 15 -83.5 82.5t-107.5 112.5q-43 -26 -63 -69.5z" />
    <glyph glyph-name="quotesingle" unicode="'" horiz-adv-x="208" 
d="M66 485l-9 237h94l-9 -237h-76z" />
    <glyph glyph-name="parenleft" unicode="(" horiz-adv-x="305" 
d="M31 0zM155 -150q-53 80 -88.5 181.5t-35.5 207.5q0 107 35.5 211t89 186.5t107.5 131.5l32 -30q-77 -101 -115 -227.5t-38 -271.5q0 -143 37.5 -264.5t115.5 -223.5l-32 -30q-55 49 -108 129z" />
    <glyph glyph-name="parenright" unicode=")" horiz-adv-x="305" 
d="M151 639q53 -80 88.5 -181.5t35.5 -207.5q0 -107 -35.5 -211t-89 -186.5t-107.5 -131.5l-32 30q77 101 115 227.5t38 271.5q0 143 -37.5 264.5t-115.5 223.5l32 30q55 -49 108 -129z" />
    <glyph glyph-name="asterisk" unicode="*" horiz-adv-x="520" 
d="M302 663q0 -14 -1 -20q-8 -76 -19 -123q37 23 110 56q24 12 47 12q33 0 42 -27q3 -9 3 -16q0 -36 -64 -51q-9 -2 -49.5 -9t-72.5 -10q26 -21 54 -50.5t33 -34.5q29 -31 29 -60q0 -20 -17 -33q-13 -8 -23 -8q-28 0 -56 46q-45 83 -58 114q-18 -39 -58 -114
q-26 -46 -56 -46q-11 0 -24 8q-16 13 -16 32q0 15 8 32t20 29l17 17q42 45 69 68q-32 2 -122 19q-26 6 -45 18t-19 33q0 7 3 16q9 28 41 28q20 0 48 -13q79 -36 110 -56q-12 49 -19 123q-1 5 -1 17q0 26 10.5 44t33.5 18q42 0 42 -59z" />
    <glyph glyph-name="plus" unicode="+" horiz-adv-x="515" 
d="M480 345v-56l-190 -1v-206h-65v206l-190 -1v60l190 -1v197h65v-197z" />
    <glyph glyph-name="comma" unicode="," horiz-adv-x="253" 
d="M176.5 79q20.5 -28 20.5 -69q0 -43 -23 -104t-56 -92l-35 26q19 21 36 65.5t14 86.5q-9 -4 -21 -4q-22 0 -36.5 15.5t-14.5 39.5q0 29 17.5 46.5t42.5 17.5q35 0 55.5 -28z" />
    <glyph glyph-name="hyphen" unicode="-" horiz-adv-x="489" 
d="M62 279v82h365v-78z" />
    <glyph glyph-name="period" unicode="." horiz-adv-x="246" 
d="M167.5 98q18.5 -21 18.5 -50t-19.5 -49.5t-44.5 -20.5t-44 20.5t-19 49.5t19.5 50t44.5 21q26 0 44.5 -21z" />
    <glyph glyph-name="slash" unicode="/" horiz-adv-x="690" 
d="M81 -279l-67 42l589 1005l74 -47z" />
    <glyph glyph-name="zero" unicode="0" horiz-adv-x="621" 
d="M462 662.5q56 -53.5 80 -135.5t24 -175q0 -90 -26.5 -174t-84 -139t-144.5 -55q-139 0 -197 106t-58 257q0 91 27.5 175.5t85.5 139t146 54.5q91 0 147 -53.5zM196 587q-37 -91 -37 -219q0 -134 35.5 -239.5t122.5 -105.5q78 0 112 89.5t34 218.5q0 144 -34.5 245.5
t-115.5 101.5q-80 0 -117 -91z" />
    <glyph glyph-name="one" unicode="1" horiz-adv-x="364" 
d="M245 40l84 4v-44h-255v33q49 2 68 30t19 84l-1 472h-2l-120 -77l-20 29l195 145h34l1 -607q0 -50 -3 -69z" />
    <glyph glyph-name="two" unicode="2" horiz-adv-x="537" 
d="M409 672.5q60 -43.5 60 -137.5q0 -53 -46.5 -119t-149.5 -150q-70 -58 -112.5 -107t-49.5 -83l177 -5q22 -1 60 -1q55 0 81 14t26 56h30l-6 -140h-433q0 57 20.5 102t50.5 79.5t86 86.5q39 36 40 37q64 61 93.5 114t29.5 103q0 66 -28.5 110.5t-94.5 44.5q-41 0 -73 -20
t-43 -51q18 -19 18 -44q0 -17 -12 -32t-35 -15q-22 0 -35 15.5t-13 39.5q0 31 24.5 65t72 57.5t112.5 23.5q90 0 150 -43.5z" />
    <glyph glyph-name="three" unicode="3" horiz-adv-x="557" 
d="M410 673.5q57 -42.5 57 -131.5q0 -52 -39 -96t-125 -71q95 -11 149.5 -61.5t54.5 -128.5q0 -65 -34.5 -110.5t-92 -68t-125.5 -22.5t-115.5 21t-71.5 52t-24 63q0 24 13 39.5t36 15.5t33.5 -14.5t10.5 -30.5t-11 -40q9 -32 43 -48t79 -16q72 0 114 39.5t42 112.5
q0 77 -37 124t-133 47q-10 0 -44 -2v45h41q49 0 80 22.5t45 55.5t14 64q0 67 -27 105t-92 38q-42 0 -75 -22.5t-42 -49.5q16 -17 16 -41q0 -15 -11 -29t-33 -14q-21 0 -33 14.5t-12 36.5q0 30 23.5 63.5t70 57t110.5 23.5q88 0 145 -42.5z" />
    <glyph glyph-name="four" unicode="4" horiz-adv-x="542" 
d="M508 252v-59h-101v-84q0 -51 -4 -71l77 3v-41h-251v33h7q48 3 64 34t16 92v34h-304v49l362 474h33v-463zM78 258l238 -3v319h-2z" />
    <glyph glyph-name="five" unicode="5" horiz-adv-x="544" 
d="M125 626v-220q28 12 66.5 20t78.5 8q78 0 129.5 -32t76 -83t24.5 -109q0 -71 -33.5 -122.5t-89.5 -77.5t-123 -26q-60 0 -106.5 21t-71 52.5t-24.5 62.5q0 24 13 39.5t36 15.5t33.5 -14.5t10.5 -30.5q0 -17 -11 -39q6 -33 42 -50.5t76 -17.5q71 0 107.5 49t36.5 120
q0 197 -155 197q-28 0 -68 -10t-64 -25l-28 26l-2 320h259q56 0 78 15t22 50h27l-6 -132z" />
    <glyph glyph-name="six" unicode="6" horiz-adv-x="578" 
d="M424 695.5q40 -20.5 60.5 -50t20.5 -56.5q0 -22 -11 -36.5t-32 -15.5q-23 -1 -34 12.5t-11 29.5q0 21 12 42q-6 21 -33.5 39.5t-65.5 18.5q-100 0 -138 -104.5t-42 -221.5q27 37 70 60.5t98 23.5q75 0 122.5 -33t68 -84t20.5 -107q0 -62 -30.5 -114.5t-84 -83.5
t-119.5 -31q-128 0 -183.5 88.5t-55.5 256.5q0 77 23 165.5t84 155t165 66.5q56 0 96 -20.5zM208.5 359q-42.5 -33 -57.5 -77q6 -112 40 -185.5t106 -73.5q66 0 98.5 48t32.5 120q0 77 -28.5 139t-102.5 62q-46 0 -88.5 -33z" />
    <glyph glyph-name="seven" unicode="7" horiz-adv-x="461" 
d="M363.5 450.5q-31.5 -87.5 -53.5 -169.5t-60 -236q-16 -61 -52 -61q-38 0 -38 44q0 24 14 64.5t40 103.5l14 36l13 33q51 128 83.5 207t70.5 159l-264 -1q-85 -2 -85 -78h-24v148h419v-68q-46 -94 -77.5 -181.5z" />
    <glyph glyph-name="eight" unicode="8" horiz-adv-x="562" 
d="M381.5 697q44.5 -19 71.5 -55.5t27 -86.5q0 -56 -37.5 -100.5t-97.5 -74.5q74 -43 120.5 -98.5t46.5 -115.5q0 -89 -67.5 -135.5t-168.5 -46.5q-52 0 -101.5 16.5t-82.5 53.5t-33 96q0 111 152 205q-138 83 -138 180q0 60 30.5 100.5t79.5 60.5t102 20q52 0 96.5 -19z
M197.5 641.5q-31.5 -35.5 -31.5 -84.5q0 -53 40 -94t104 -63q45 31 68.5 70t23.5 78q0 62 -31.5 95.5t-85.5 33.5q-56 0 -87.5 -35.5zM168.5 249q-25.5 -49 -25.5 -92q0 -60 38 -96.5t100 -36.5q63 0 98 32.5t35 90.5q0 120 -165 190q-55 -39 -80.5 -88z" />
    <glyph glyph-name="nine" unicode="9" horiz-adv-x="578" 
d="M467 622q52 -94 52 -263q0 -149 -55.5 -261.5t-206.5 -113.5q-61 0 -102 18.5t-60.5 47t-19.5 57.5q0 22 11.5 37t32.5 16q22 1 33.5 -13t11.5 -30q0 -21 -14 -41q7 -24 32 -39t70 -15q100 0 137 100.5t36 223.5q-27 -37 -70 -60.5t-98 -23.5q-75 0 -122 33t-67 83.5
t-20 106.5q0 65 29 117.5t83 83t124 30.5q131 0 183 -94zM181.5 628q-34.5 -50 -34.5 -121q0 -77 28.5 -138.5t102.5 -61.5q46 0 88.5 33t57.5 77q-6 112 -39.5 186.5t-107.5 74.5q-61 0 -95.5 -50z" />
    <glyph glyph-name="colon" unicode=":" horiz-adv-x="250" 
d="M62 0zM170.5 98q18.5 -21 18.5 -50t-19.5 -49.5t-44.5 -20.5t-44 20.5t-19 49.5t19.5 50t44.5 21q26 0 44.5 -21zM170.5 501q18.5 -21 18.5 -50t-19.5 -49.5t-44.5 -20.5t-44 20.5t-19 49.5t19.5 50t44.5 21q26 0 44.5 -21z" />
    <glyph glyph-name="semicolon" unicode=";" horiz-adv-x="263" 
d="M65 0zM180.5 79q20.5 -28 20.5 -69q0 -43 -23 -104t-56 -92l-35 26q19 21 36 65.5t14 86.5q-9 -4 -21 -4q-22 0 -36.5 15.5t-14.5 39.5q0 29 17.5 46.5t42.5 17.5q35 0 55.5 -28zM173.5 501q18.5 -21 18.5 -50t-19.5 -49.5t-44.5 -20.5t-44 20.5t-19 49.5t19.5 50
t44.5 21q26 0 44.5 -21z" />
    <glyph glyph-name="less" unicode="&#x3c;" horiz-adv-x="542" 
d="M102 316l377 -167v-64l-445 194v67l445 198v-62z" />
    <glyph glyph-name="equal" unicode="=" horiz-adv-x="592" 
d="M519 377l-446 -2v62l446 -2v-58zM519 189l-446 -2v62l446 -2v-58z" />
    <glyph glyph-name="greater" unicode="&#x3e;" horiz-adv-x="541" 
d="M63 85zM440 313l-377 167v64l445 -194v-67l-445 -198v62z" />
    <glyph glyph-name="question" unicode="?" horiz-adv-x="474" 
d="M353.5 697.5q46.5 -24.5 67.5 -63.5t21 -83q0 -41 -21.5 -77t-51 -62.5t-74.5 -60.5q-40 -30 -58.5 -48.5t-18.5 -35.5q0 -12 8.5 -19.5t28.5 -7.5q25 0 40 9l15 -46q-15 -10 -39 -15.5t-45 -5.5q-34 0 -59.5 18t-25.5 55q0 29 20 53t62 60q36 31 59 55t39 56.5t16 71.5
q0 120 -117 120q-38 0 -68.5 -20.5t-36.5 -43.5q12 -19 12 -40q0 -17 -13 -33t-36 -16q-24 0 -37 17t-13 42q0 32 26 66t73.5 56.5t107.5 22.5q72 0 118.5 -24.5zM273.5 88.5q17.5 -19.5 17.5 -45.5q0 -27 -17 -46t-42 -19q-23 0 -41 18t-18 47q0 26 18.5 45.5t40.5 19.5
q24 0 41.5 -19.5z" />
    <glyph glyph-name="at" unicode="@" horiz-adv-x="796" 
d="M602 591q75 -46 113.5 -119.5t38.5 -153.5q0 -89 -31 -146t-75 -82.5t-85 -25.5q-7 0 -19 2q-41 7 -58 32t-17 63q0 26 10 82h-2q-33 -102 -71.5 -137.5t-80.5 -35.5q-46 0 -76 35t-30 104q0 75 27.5 137t80.5 99t127 37q60 0 108 -13l-10 -83q-16 -116 -20 -172
q-1 -11 -1 -32q0 -74 37 -82q4 -1 12 -1q26 0 48.5 21.5t37 60t16.5 89.5q1 7 1 22q0 153 -72 228t-190 75q-20 0 -31 -1q-80 -6 -139.5 -52.5t-91.5 -120t-32 -158.5q0 -107 42.5 -177.5t111 -104t149.5 -33.5q145 0 224 93l24 -25q-49 -56 -118 -83.5t-153 -27.5
q-115 0 -195.5 47.5t-121 127.5t-40.5 177q0 92 41.5 179.5t126 144t205.5 56.5q104 0 179 -46zM353 417q-32 -35 -48 -89.5t-16 -109.5q0 -51 14 -80.5t39 -29.5q34 0 69 53.5t57.5 133t22.5 148.5q-24 9 -62 9q-44 0 -76 -35z" />
    <glyph glyph-name="A" unicode="A" horiz-adv-x="626" 
d="M645 0h-243v37h3q57 0 57 45q0 16 -11 47l-34 91l-251 -6h3q-12 -33 -34 -104q-9 -30 -24 -66l77 4v-48h-201v37h3q23 -1 37.5 9.5t23.5 28.5t22 55q1 4 11 31l207 560h36l224 -568q27 -72 26 -109l68 4v-48zM331 449l-39 108l-36 -98q-35 -96 -70 -198h215z" />
    <glyph glyph-name="B" unicode="B" horiz-adv-x="622" 
d="M533 325q57 -49 57 -127q0 -60 -31.5 -105t-86.5 -69t-125 -24h-299v37h3q30 0 44 11t18 30.5t4 53.5v31v416q0 50 3 77l-72 -4v48h3q148 2 230 2q120 0 186 -42.5t66 -126.5q0 -53 -41.5 -97t-120.5 -60q105 -2 162 -51zM284 387q75 1 109.5 41.5t34.5 102.5
q0 74 -41 102.5t-101 28.5q-30 0 -44 -8.5t-19 -28t-5 -58.5v-182zM435 80q44 38 44 112q0 85 -44.5 119t-120.5 34q-53 0 -99 -3h3v-222q0 -51 -3 -76h-3q19 -2 70 -2h32q77 0 121 38z" />
    <glyph glyph-name="C" unicode="C" horiz-adv-x="699" 
d="M541 17.5q-76 -32.5 -155 -32.5q-101 0 -180 47.5t-123 128.5t-44 178q0 96 40 182t120.5 140t193.5 54q106 0 194 -53l-4 46h68v-236h-50q-10 94 -63 146t-138 52q-69 0 -126 -39t-90 -111.5t-33 -168.5q0 -91 35 -161.5t94.5 -109.5t131.5 -39q67 0 127.5 30t100.5 87
l35 -25q-58 -83 -134 -115.5z" />
    <glyph glyph-name="D" unicode="D" horiz-adv-x="745" 
d="M508.5 663q93.5 -39 145.5 -118.5t52 -197.5q0 -93 -44.5 -172t-132.5 -127t-211 -48h-270v37h3q34 0 48 14.5t16 34.5t2 72v428q0 40 3 70l-72 -4v48l243 1q124 1 217.5 -38zM460.5 82q63.5 40 98.5 110.5t35 158.5q0 147 -78.5 228t-235.5 81q-28 0 -41 -10t-17 -28
t-4 -50v-30v-422q0 -50 -3 -76h-3q34 -2 103 -2q82 0 145.5 40z" />
    <glyph glyph-name="E" unicode="E" horiz-adv-x="622" 
d="M578 0h-530v37h3q34 0 48 14.5t16 34.5t2 72v428q0 40 3 70l-72 -4v48h495l5 -179h-47q1 83 -32.5 112.5t-95.5 27.5l-86 -2q-33 -1 -47.5 -13t-18 -34t-3.5 -70v-156l174 -1l-7 86h58v-214h-47q0 38 -7.5 57t-24 25.5t-48.5 6.5l-32 -1l-66 -3v-225q0 -50 -3 -76l184 3
q68 1 103 35t34 120h48z" />
    <glyph glyph-name="F" unicode="F" horiz-adv-x="548" 
d="M484 521q1 83 -33.5 112.5t-97.5 27.5l-73 -2q-32 -1 -45 -15.5t-15 -35t-2 -70.5v-168l160 -1l-7 87h58v-215h-46q0 38 -7.5 57t-23.5 26t-46 7q-22 0 -35 -1l-53 -3v-206q0 -50 -3 -77l102 4v-48h-269v37h3q34 0 48 14.5t16 34.5t2 72v428q0 40 3 70l-72 -4v48h478
l5 -179h-47z" />
    <glyph glyph-name="G" unicode="G" horiz-adv-x="761" 
d="M747 306h-3q-46 2 -57.5 -33.5t-11.5 -80.5v-155h-34q-39 0 -105 -26q-30 -12 -72 -19t-77 -7q-102 0 -180.5 43t-122.5 122t-44 185q0 96 40.5 183t121 142t193.5 55q51 0 105 -13t95 -36l-4 42h69v-233h-50q-6 93 -63.5 144.5t-144.5 51.5q-68 0 -125.5 -40t-91 -111.5
t-33.5 -161.5q0 -92 33.5 -165.5t92.5 -114.5t135 -41q41 0 84.5 12t80.5 36h-1v214l-70 -4v48h240v-37z" />
    <glyph glyph-name="H" unicode="H" horiz-adv-x="780" 
d="M679 648.5q-15 -14.5 -17 -34.5t-2 -72v-421q0 -51 -3 -77l72 4v-48h-233v37q35 0 50 14.5t17 34.5t2 72v178l-350 -4v-211q0 -51 -3 -77l72 4v-48h-233v37q35 0 50 14.5t17 34.5t2 72v428q0 40 3 70l-72 -4v48h233v-37q-35 0 -50 -14.5t-17 -34.5t-2 -72v-162h350v206
q0 40 3 70l-72 -4v48h233v-37q-35 0 -50 -14.5z" />
    <glyph glyph-name="I" unicode="I" horiz-adv-x="335" 
d="M236 648.5q-14 -14.5 -16 -34.5t-2 -72v-421q0 -50 -3 -77l72 4v-48h-239v37h3q34 0 48 14.5t16 34.5t2 72v428q0 40 3 70l-72 -4v48h239v-37h-3q-34 0 -48 -14.5z" />
    <glyph glyph-name="J" unicode="J" horiz-adv-x="373" 
d="M347 663q-44 1 -59 -23.5t-15 -73.5v-319q0 -140 -39.5 -201t-129.5 -61q-46 0 -79.5 20.5t-33.5 52.5q0 22 13.5 38t40.5 16q24 0 35.5 -14.5t11.5 -31.5q0 -11 -4 -22q5 -8 14.5 -11.5t17.5 -2.5q27 1 39.5 26t12.5 86v514l-102 -4v48h280v-37h-3z" />
    <glyph glyph-name="K" unicode="K" horiz-adv-x="683" 
d="M685 0h-129q-30 0 -107 99l-120 160q-26 34 -42 52.5t-30 27.5l-39 -1v-217v-27t-1.5 -29t-4.5 -21l75 4v-48h-239v37h3q34 0 48 14.5t16 34.5t2 72v428q0 40 3 70l-72 -4v48h239v-37h-3q-34 0 -48 -14.5t-16 -34.5t-2 -72v-160h63l124 194q34 52 68 81l-59 -2v45h229
v-37q-48 -3 -79 -13.5t-60.5 -38.5t-63.5 -82l-98 -153q26 -16 42.5 -34t40.5 -50l112 -147q38 -50 61.5 -73t40.5 -29t43 -6h3v-37z" />
    <glyph glyph-name="L" unicode="L" horiz-adv-x="578" 
d="M558 0h-510v37h3q34 0 48 14.5t16 34.5t2 72v428q0 40 3 70l-72 -4v48h239v-37h-3q-34 0 -48 -14.5t-16 -34.5t-2 -72v-425q0 -50 -3 -76l180 3q62 1 91.5 40t29.5 127h48z" />
    <glyph glyph-name="M" unicode="M" horiz-adv-x="918" 
d="M891 0h-238v37h3q37 0 50.5 20.5t13.5 66.5q0 19 -1 30l-24 396l-2 -5l-225 -549h-42l-75 167q-56 121 -95 209.5t-74 179.5v-9q0 -15 -1 -24q-8 -266 -10 -392q0 -14 -1 -21q0 -33 -3 -62l75 4v-48h-205v37h3q40 -1 52 21.5t14 68.5l22 529l-72 -3v47h166l245 -556
q32 76 45 111q28 72 86 205q69 160 100 240h161v-37h-3q-34 2 -50.5 -17.5t-16.5 -68.5l1 -21l26 -451q2 -22 2 -60l73 3v-48z" />
    <glyph glyph-name="N" unicode="N" horiz-adv-x="762" 
d="M726 663h-3q-41 -1 -52.5 -20.5t-11.5 -63.5v-37l-2 -558h-60l-423 564l3 -407q0 -65 -2 -97l72 4v-48h-197v37h3q38 -1 50.5 21.5t12.5 55.5l1 542l-67 -4v48h131l415 -551l1 437q0 40 3 70l-72 -4v48h198v-37z" />
    <glyph glyph-name="O" unicode="O" horiz-adv-x="794" 
d="M594 661q82 -55 122.5 -139.5t40.5 -171.5t-40 -171.5t-120.5 -139.5t-194.5 -55q-123 0 -204.5 53.5t-120 137t-38.5 175.5q0 88 40 172t120.5 139t194.5 55q118 0 200 -55zM261 628q-54 -44 -82 -114t-28 -146q0 -79 28.5 -157t86 -130t138.5 -52q75 0 129.5 43.5
t82 113t27.5 145.5q0 84 -30.5 162.5t-88 128.5t-133.5 50t-130 -44z" />
    <glyph glyph-name="P" unicode="P" horiz-adv-x="606" 
d="M215 44l92 5v-49h-259v37h3q34 0 48 14.5t16 34.5t2 72v428q0 40 3 70l-72 -4v48q148 2 230 2q151 0 230 -53t79 -154q0 -59 -31 -111.5t-107 -87.5t-202 -35q-18 0 -29 1v-141q0 -50 -3 -77zM228.5 639q-10.5 -20 -10.5 -65v-32v-235h-3q23 -3 61 -3q56 0 101.5 21.5
t72 63t26.5 98.5q0 172 -200 172q-37 0 -47.5 -20z" />
    <glyph glyph-name="Q" unicode="Q" horiz-adv-x="796" 
d="M648 -86q51 -47 72 -64.5t37 -25t36 -7.5v-37h-39q-44 0 -68.5 2.5t-50 15t-55.5 39.5q-32 29 -76 75q-36 38 -56.5 54t-45.5 18h-9h-1v0q-120 2 -199 56t-116.5 136.5t-37.5 173.5q0 88 40 172t120.5 139t194.5 55q118 0 200 -55t122.5 -139.5t40.5 -171.5
q0 -73 -29 -146.5t-87.5 -130t-142.5 -77.5q35 -2 64.5 -16t68.5 -50zM179.5 211q28.5 -78 86 -130t138.5 -52q75 0 129.5 43.5t82 113t27.5 145.5q0 84 -30.5 162.5t-88 128.5t-133.5 50t-130 -44t-82 -114t-28 -146q0 -79 28.5 -157z" />
    <glyph glyph-name="R" unicode="R" horiz-adv-x="628" 
d="M549.5 76q14.5 -18 35 -29t50.5 -10v-37h-137q-28 24 -46.5 48t-44.5 64l-67 105q-2 4 -5.5 9.5t-7.5 12.5q-3 4 -19 29.5t-33 42.5q-8 -1 -24 -1q-22 0 -33 1v-190q0 -50 -3 -77l72 4v-48h-239v37h3q34 0 48 14.5t16 34.5t2 72v428q0 40 3 70l-72 -4v48h3q104 2 160 2
q49 0 73 -1q279 -4 279 -181q1 -68 -41 -122t-147 -77h2q18 -14 31.5 -32.5t35.5 -52.5l68 -105q23 -37 37.5 -55zM401 387.5q51 35.5 51 121.5q0 77 -41.5 113.5t-130.5 36.5q-28 0 -41 -10t-17 -27.5t-4 -49.5v-30v-188h-3q30 -2 41 -2q94 0 145 35.5z" />
    <glyph glyph-name="S" unicode="S" horiz-adv-x="567" 
d="M171.5 488q22.5 -28 56 -46.5t91.5 -43.5q69 -30 110.5 -54.5t71 -65t29.5 -100.5q0 -55 -28.5 -98.5t-83 -68.5t-129.5 -25q-43 0 -89 11.5t-81 31.5l4 -35h-66l-6 217h53q4 -87 56 -133t133 -46q59 0 98 32.5t39 90.5q0 42 -23 71.5t-57 49t-93 45.5q-66 29 -107 53
t-69 63.5t-28 98.5q0 40 19 80.5t66 69t125 28.5q41 0 85 -10t81 -33l-3 35h65v-224h-50q-4 80 -48 134t-123 54q-57 0 -89 -32.5t-32 -82.5q0 -39 22.5 -67z" />
    <glyph glyph-name="T" unicode="T" horiz-adv-x="640" 
d="M572 485q-1 64 -11.5 101.5t-37 55.5t-74.5 18h-78l-1 -539q0 -50 -3 -77l83 4v-48h-249v37h3q41 1 53 22t12 67v32l1 501l-96 -1q-58 0 -83 -41t-25 -132h-51l6 215h597l6 -215h-52z" />
    <glyph glyph-name="U" unicode="U" horiz-adv-x="752" 
d="M729 663h-3q-34 0 -48.5 -14.5t-16.5 -34.5t-2 -72l-2 -227q-1 -145 -66 -237.5t-210 -92.5q-109 0 -172 38t-90 116t-27 205v198q0 60 4 114l-72 -3v47h238v-37h-3q-42 1 -53.5 -21.5t-11.5 -55.5v-247q0 -135 41 -214t159 -79q100 0 149 70.5t51 193.5l3 276q0 40 3 70
l-71 -4v48h200v-37z" />
    <glyph glyph-name="V" unicode="V" horiz-adv-x="653" 
d="M678 663h-3q-44 -2 -66 -21.5t-41 -75.5q-17 -43 -212 -575h-40l-227 528q-37 84 -44 135l-56 -2v48h246v-38q-35 -2 -50.5 -14t-15.5 -35q0 -22 14 -56q23 -57 26 -63q41 -105 69 -168q50 -110 76 -175q12 40 44 125q6 17 12.5 35.5t14.5 37.5l84 236q17 46 28 71
l-76 -4v48h217v-37z" />
    <glyph glyph-name="W" unicode="W" horiz-adv-x="995" 
d="M1017 663q-37 -4 -55 -14t-32 -38t-37 -95l-48 -142q-79 -240 -133 -386h-42l-181 515l-170 -515h-41l-180 531l-14 41q-24 75 -28 94l-56 -2v48h257v-37h-3q-40 -2 -56.5 -12t-16.5 -35q0 -20 11 -59q18 -71 53 -165l23 -66q6 -22 16 -49t15 -43q18 -48 21 -58
q8 29 35 114q47 148 78 238q47 141 56 174h44q16 -58 95 -287l30 -89q11 -37 29 -90l24 -74q16 56 35 113q40 112 87 259q7 27 16 51q4 9 12.5 31t17.5 39l-79 -3v48h217v-37z" />
    <glyph glyph-name="X" unicode="X" horiz-adv-x="649" 
d="M663 0h-259v37h3q57 -3 57 28q0 20 -17 42l-36 47q-52 67 -104 137q-48 -67 -94 -137q-3 -5 -26.5 -40.5t-53.5 -69.5l82 4v-48h-210v36h2q30 6 51.5 21t38.5 36t46 63l129 183l-74 103q-84 116 -105.5 148.5t-34.5 63.5l-56 -2v48h273v-37l-51 -2q-41 -1 -41 -25
q0 -17 24 -53q43 -69 117 -169l91 129q62 88 86 113l-82 -4v48h211v-37h-3q-41 -4 -76 -39.5t-79 -98.5l-112 -157q70 -96 159 -209l16 -21l68 -92l60 2v-48z" />
    <glyph glyph-name="Y" unicode="Y" horiz-adv-x="634" 
d="M651 663h-3q-46 -1 -76.5 -29.5t-68.5 -98.5l-125 -235l-2 -176q1 -50 -2 -80l83 4v-48h-249v37h3q41 1 53 22t12 67v32l1 112l-173 272q-46 73 -54 112l-63 -2v48h272v-37h-3q-76 1 -76 -42q0 -25 25 -64q79 -126 136 -208q5 10 77 145l47 88q2 4 15.5 28.5t30.5 44.5
l-78 -3v48h218v-37z" />
    <glyph glyph-name="Z" unicode="Z" horiz-adv-x="624" 
d="M570 0h-527v48l40 56q77 107 150.5 214t165.5 254q36 57 62 87l-247 -4q-57 -2 -84 -41.5t-27 -124.5h-48l6 211h510v-37l-360 -542q-39 -57 -65 -80l234 4q68 1 108.5 41.5t39.5 122.5h48z" />
    <glyph glyph-name="bracketleft" unicode="[" horiz-adv-x="359" 
d="M160 686l-5 -872l197 -3v-72h-278l1 1022h275v-72z" />
    <glyph glyph-name="backslash" unicode="\" horiz-adv-x="690" 
d="M14 0zM610 -279l67 42l-589 1005l-74 -47z" />
    <glyph glyph-name="bracketright" unicode="]" horiz-adv-x="359" 
d="M7 0zM199 -186l5 872l-197 3v72h278l-1 -1022h-275v72z" />
    <glyph glyph-name="asciicircum" unicode="^" horiz-adv-x="823" 
d="M675 437l-266 244l-267 -240h-82l308 275h89l306 -279h-88z" />
    <glyph glyph-name="underscore" unicode="_" horiz-adv-x="729" 
d="M677 -117h-625v73l625 -4v-69z" />
    <glyph glyph-name="grave" unicode="`" horiz-adv-x="252" 
d="M82 765q22 0 41 -27l84 -135l-28 -23l-112 106q-21 22 -21 43q0 16 12 28q12 8 24 8z" />
    <glyph glyph-name="a" unicode="a" horiz-adv-x="481" 
d="M354.5 431.5q45.5 -44.5 44.5 -130.5l-1 -198q0 -22 -3 -54l65 3v-52h-137q-4 21 -8 50q-67 -65 -142 -65q-68 0 -105.5 32.5t-37.5 83.5q0 55 43 92.5t108.5 56t131.5 18.5v42q0 59 -17 91t-72 32q-26 0 -51.5 -12.5t-37.5 -32.5q7 -7 9 -14t2 -20q0 -16 -11.5 -31
t-33.5 -15q-19 0 -31 15t-12 37q0 50 49 83t128 33q74 0 119.5 -44.5zM176 193q-61 -26 -61 -77q0 -31 23 -48t56 -17q36 0 63.5 12.5t55.5 38.5q-1 14 -1 42q0 5 0.5 22.5t0.5 56.5q-76 -4 -137 -30z" />
    <glyph glyph-name="b" unicode="b" horiz-adv-x="543" 
d="M399.5 445.5q49.5 -29.5 78 -83t28.5 -124.5q0 -76 -34.5 -135t-91 -91.5t-120.5 -32.5q-35 0 -71.5 12.5t-64.5 40.5l-19 -38h-41l2 574q0 32 1 53l-64 -3v50h1q59 0 82 6t35 18h35v-264q26 23 60.5 35t73.5 12q60 0 109.5 -29.5zM362.5 80q38.5 51 38.5 135
q0 94 -35 149t-103 55q-29 0 -58 -13.5t-49 -35.5v-227q0 -64 28 -89t76 -25q64 0 102.5 51z" />
    <glyph glyph-name="c" unicode="c" horiz-adv-x="503" 
d="M375.5 458.5q40.5 -16.5 63 -43.5t22.5 -58q0 -22 -14.5 -38t-36.5 -16t-34 16t-12 31q0 22 13 38q-11 24 -37 32.5t-53 8.5q-64 0 -104.5 -49t-40.5 -138q0 -91 42.5 -147t112.5 -56q42 0 81.5 22.5t61.5 56.5h1l33 -23q-35 -57 -91.5 -86.5t-111.5 -29.5
q-64 0 -117.5 29t-85 83.5t-31.5 127.5q0 64 32 123.5t89 96t127 36.5q50 0 90.5 -16.5z" />
    <glyph glyph-name="d" unicode="d" horiz-adv-x="561" 
d="M536 -6h-142q-6 31 -7 41q-28 -26 -65 -41t-79 -15q-58 0 -105 29t-74 83t-27 124q0 74 31.5 133.5t87.5 93t125 33.5q26 0 54.5 -6.5t48.5 -16.5v116q0 32 2 53l-64 -3v50h1q59 0 81.5 6t34.5 18h35v-596q0 -23 -3 -55l65 3v-50zM383 140l1 258q-40 30 -98 30
q-64 0 -103.5 -52t-39.5 -139q0 -91 34.5 -146t98.5 -55q29 0 58 15.5t50 40.5q-1 15 -1 48z" />
    <glyph glyph-name="e" unicode="e" horiz-adv-x="512" 
d="M383 7q-59 -28 -114 -28q-65 0 -117.5 30.5t-83 87t-30.5 129.5q0 65 30.5 122.5t85 92t122.5 34.5q55 0 99 -24t69.5 -72t24.5 -117h-1l-326 -5h1q1 -105 37 -162t111 -57q44 0 88.5 22t66.5 54h2l30 -24q-36 -55 -95 -83zM191.5 399q-32.5 -29 -44.5 -92h225
q-1 51 -24.5 86t-70.5 35q-53 0 -85.5 -29z" />
    <glyph glyph-name="f" unicode="f" horiz-adv-x="315" 
d="M341 678q34 -19 34 -54q0 -20 -12.5 -33.5t-32.5 -13.5q-21 0 -32 14.5t-11 28.5t4 22q-13 10 -34 10q-37 0 -52.5 -29t-15.5 -73v-89h125v-48h-1l-125 -3h1l1 -314q0 -37 -3 -55l57 2v-49h-199v39h1q26 -1 37.5 10.5t14 31.5t2.5 63l-1 271l-77 -1v53h77v13
q0 107 40.5 165t130.5 58q37 0 71 -19z" />
    <glyph glyph-name="g" unicode="g" horiz-adv-x="514" 
d="M403 415q23 -22 36.5 -50.5t13.5 -59.5q0 -51 -28 -93t-74.5 -65.5t-98.5 -23.5q-17 0 -32 3q-18 2 -30 2q-29 0 -48 -11.5t-19 -28.5q0 -22 32.5 -29.5t110.5 -10.5q116 -6 175 -38t59 -105q0 -49 -34 -84.5t-87.5 -54t-111.5 -18.5q-120 0 -178 37t-58 91q0 36 22 64.5
t53 43.5q-54 23 -54 73q0 31 22.5 58.5t58.5 37.5q-38 21 -60 56.5t-22 79.5q0 54 29 96.5t75.5 66t96.5 23.5q62 0 115 -32q15 38 46.5 62.5t67.5 24.5q25 0 39.5 -14t14.5 -38q0 -14 -11 -28.5t-31 -14.5q-17 0 -28.5 9t-16.5 22q-30 -7 -45 -51zM327.5 200
q24.5 32 24.5 86q0 62 -26.5 103.5t-75.5 41.5q-47 0 -73.5 -33.5t-26.5 -88.5q0 -65 27.5 -103t77.5 -38q48 0 72.5 32zM114 -113q0 -42 41 -67t111 -25q76 0 120 26.5t44 64.5q0 44 -43 59.5t-130 18.5q-56 2 -94 7q-49 -34 -49 -84z" />
    <glyph glyph-name="h" unicode="h" horiz-adv-x="560" 
d="M535 -6h-200v39h1q27 -1 38.5 10.5t13.5 31t2 63.5v127q0 77 -23.5 113.5t-75.5 36.5q-32 0 -65 -15t-52 -38v-266q0 -31 -4 -55l58 2v-49h-200v39h1q27 -1 38.5 10.5t14 31.5t2.5 63v430q0 32 2 53l-65 -3v50h1q58 0 81.5 6t37.5 18h33v-271q32 24 71.5 39t75.5 15
q81 0 119 -51.5t39 -158.5l1 -169q0 -37 -3 -55l58 2v-49z" />
    <glyph glyph-name="i" unicode="i" horiz-adv-x="271" 
d="M97.5 623q-17.5 19 -17.5 45q0 27 18 46t41 19q24 0 41 -19t17 -46q0 -26 -18 -45t-41 -19t-40.5 19zM240 -6h-199v39h1q26 -1 37.5 10.5t13.5 31t2 63.5v207q0 23 3 54l-64 -4v50h1q59 0 82 6.5t34 18.5h35v-374q0 -37 -3 -55l57 2v-49z" />
    <glyph glyph-name="j" unicode="j" horiz-adv-x="242" 
d="M76.5 623q-17.5 19 -17.5 45q0 27 18 46t41 19q24 0 41 -19t17 -46q0 -26 -18 -45t-41 -19t-40.5 19zM97.5 451.5q23.5 6.5 36.5 18.5h33v-473q0 -124 -50 -186.5t-131 -62.5q-38 0 -58 16.5t-20 40.5q0 18 13 33t34 15t32.5 -14.5t11.5 -29.5v-4h-1q9 -4 19 -4
q19 0 33 14q25 24 25 107l2 423q0 32 2 54l-65 -4v50h1q59 0 82.5 6.5z" />
    <glyph glyph-name="k" unicode="k" horiz-adv-x="501" 
d="M499 -6h-89q-17 0 -33.5 12t-34.5 33t-35 43l-34 47q-50 69 -69 88l-31 -2v-119q0 -37 -2 -55l59 2v-49h-200v39h1q27 -1 38 10.5t13 30.5t2 64q0 10 0.5 99.5t0.5 330.5q0 32 2 53l-65 -3v50h1q58 0 80.5 6t36.5 18h33v-430h31l111 115q19 20 39 37l-49 -2v49h180v-40
h-1q-29 -2 -56.5 -17t-44.5 -30t-49 -46l-67 -69q15 -7 25 -17t28 -30l66 -83q27 -36 56.5 -67.5t55.5 -28.5h1v-39z" />
    <glyph glyph-name="l" unicode="l" horiz-adv-x="263" 
d="M231 -6h-200v39h1q27 -1 38.5 10.5t13.5 31t2 63.5v430q0 32 2 53l-65 -3v50h1q58 0 81.5 6t37.5 18h33l1 -596q0 -31 -4 -55l58 2v-49z" />
    <glyph glyph-name="m" unicode="m" horiz-adv-x="829" 
d="M805 -6h-199v39h1q26 -1 37.5 10.5t13.5 31t2 63.5v127q0 77 -23 113.5t-75 36.5q-28 0 -55.5 -11t-48.5 -30q8 -27 8 -64l-1 -214q0 -37 -3 -55l57 2v-49h-199v39h1q26 -1 37.5 10.5t13.5 31t2 63.5l1 127q1 78 -21.5 115t-73.5 37q-28 0 -54.5 -11t-45.5 -30v-46v-234
q0 -37 -2 -55l57 2v-49h-198v39h1q26 -1 37.5 10.5t13.5 31t2 63.5v207q0 35 3 54l-66 -4v50h1q41 0 63 3.5t30.5 8t19.5 13.5h32q3 -12 5 -44q29 22 63.5 35.5t67.5 13.5q44 0 77 -15.5t52 -43.5q33 26 74 42.5t78 16.5q83 0 122.5 -50.5t38.5 -159.5l-1 -169q0 -37 -3 -55
l57 2v-49z" />
    <glyph glyph-name="n" unicode="n" horiz-adv-x="564" 
d="M539 0h-195v41q27 -1 38.5 10.5t13.5 31t2 62.5v120q-1 78 -24 114.5t-77 36.5q-32 0 -64.5 -15.5t-53.5 -40.5q1 -9 1 -32l-1 -225q0 -37 -2 -54l57 2v-51h-195v41q27 -1 38 10.5t13 30t3 63.5l1 200q0 34 3 53l-65 -4v52q58 0 78.5 6t33.5 18v1h30v-2q3 -16 5 -54v2
q32 27 71 43t77 16q80 0 119 -51.5t39 -159.5v-162q0 -37 -3 -54l57 2v-51z" />
    <glyph glyph-name="o" unicode="o" horiz-adv-x="497" 
d="M374.5 445q52.5 -31 82.5 -85.5t30 -121.5q0 -72 -30 -131.5t-82 -94t-117 -34.5q-64 0 -116 30.5t-81.5 85t-29.5 122.5q0 73 29.5 132.5t81.5 93.5t116 34t116.5 -31zM157.5 375q-33.5 -53 -33.5 -132q0 -90 36.5 -152t104.5 -62t99 51.5t31 131.5q0 89 -34.5 152.5
t-102.5 63.5q-67 0 -100.5 -53z" />
    <glyph glyph-name="p" unicode="p" horiz-adv-x="560" 
d="M417 446.5q48 -28.5 77 -81t29 -121.5q0 -77 -33.5 -137.5t-89 -94t-119.5 -33.5q-59 0 -106 26v-140q0 -38 -3 -56l57 2v-49h-199v39h1q26 -1 37.5 10.5t13.5 31t3 63.5l1 439q0 35 3 54l-65 -4v50h1q41 0 63 3.5t30.5 8t17.5 13.5h34q3 -35 4 -44q28 22 65.5 35.5
t74.5 13.5q55 0 103 -28.5zM379.5 83.5q37.5 55.5 37.5 145.5q0 80 -34 135t-103 55q-29 0 -56.5 -13.5t-47.5 -34.5q1 -7 1 -61l-1 -249q46 -33 103 -33q63 0 100.5 55.5z" />
    <glyph glyph-name="q" unicode="q" horiz-adv-x="539" 
d="M529 -238h-199v39h1q26 -1 37.5 10.5t13.5 31t2 63.5v123q-52 -50 -133 -50q-59 0 -108 29.5t-77.5 84t-28.5 124.5q0 75 33 134t88.5 91.5t122.5 32.5q28 0 53 -5.5t29 -6.5t18.5 -4.5t25.5 -3.5q20 0 32 13l3 2h32l1 -605q0 -38 -3 -56l57 2v-49zM339.5 51
q26.5 15 44.5 39v236q0 55 -22 79t-79 24q-65 0 -102 -51.5t-37 -138.5q0 -88 37.5 -145.5t102.5 -57.5q29 0 55.5 15z" />
    <glyph glyph-name="r" unicode="r" horiz-adv-x="408" 
d="M384.5 459q20.5 -16 20.5 -47q0 -16 -13 -33t-36 -17q-21 0 -35.5 15.5t-14.5 35.5q-33 -1 -65.5 -27.5t-54.5 -67.5v-222q0 -37 -3 -55l58 2v-49h-200v39h1q26 -1 37.5 10.5t13.5 31t2 63.5v207q0 35 3 54l-65 -3v49h34q35 0 50 6t29 19h33q4 -32 5 -79q26 34 67 59
t84 25q29 0 49.5 -16z" />
    <glyph glyph-name="s" unicode="s" horiz-adv-x="440" 
d="M160.5 312.5q28.5 -19.5 87.5 -42.5q49 -19 80.5 -36t53 -45.5t21.5 -69.5q0 -46 -24 -77.5t-62 -47t-80 -15.5q-40 0 -75 10t-61 25l4 -26h-50l-6 168h40q0 -37 17.5 -66.5t48 -46t65.5 -16.5q38 0 67.5 17t29.5 49t-27 50t-85 41q-49 18 -80.5 34.5t-53.5 45.5t-22 73
q0 30 15.5 62t52 54t96.5 22t110 -34l-2 30h49v-172h-39q-3 54 -31 92t-83 38q-40 0 -62.5 -18t-22.5 -45q0 -34 28.5 -53.5z" />
    <glyph glyph-name="t" unicode="t" horiz-adv-x="366" 
d="M181 519l-1 -58h156v-48l-155 -2l-2 -246q0 -64 14 -93t51 -29q24 0 47.5 14.5t39.5 41.5h2l33 -26q-63 -94 -147 -94q-133 0 -132 174l2 257l-71 -1v52q46 -2 76.5 37t46.5 90h40v-69z" />
    <glyph glyph-name="u" unicode="u" horiz-adv-x="558" 
d="M534 -6h-142q-5 24 -7 49q-31 -28 -70.5 -46t-76.5 -18q-80 0 -118.5 47t-38.5 158v161q0 35 2 54l-62 -3v49h34q37 0 54.5 6.5t28.5 18.5h35v-284q0 -77 21 -112.5t72 -35.5q33 0 64 19t51 47v231q0 39 4 64l-65 -3v49h33q37 0 55 6.5t29 18.5h35l-1 -350q0 -46 -4 -79
l67 3v-50z" />
    <glyph glyph-name="v" unicode="v" horiz-adv-x="470" 
d="M472 421h-1q-20 1 -33.5 -11t-24.5 -34.5t-31 -72.5l-123 -312h-43l-135 301q-35 79 -39 122l-41 -3v50h182v-40h-1q-40 1 -40 -29q0 -19 19 -64l72 -160l23 -55l17 47l74 199q7 21 23 55l-54 -3v50h156v-40z" />
    <glyph glyph-name="w" unicode="w" horiz-adv-x="739" 
d="M745 421h-1q-31 -1 -48.5 -8.5t-26.5 -21t-18 -38.5l-135 -362h-43l-118 334l-118 -334h-42l-123 353q-19 57 -23 70l-50 -3v50h207v-40h-1q-25 0 -36.5 -9t-11.5 -27t13 -54l67 -201q77 220 114 331h45l120 -338l84 238q10 32 21 52l-47 -2v50h171v-40z" />
    <glyph glyph-name="x" unicode="x" horiz-adv-x="495" 
d="M489 -6h-190v39h1q34 -2 34 13q0 8 -11 22l-93 113l-75 -100q-12 -17 -32 -40l63 2v-49h-166v38q27 6 43 20t45 53l90 114l-89 117q-32 42 -46 77l-46 -2v50h201v-40h-1q-24 -1 -34.5 -5t-10.5 -14q0 -16 28 -53l50 -67l81 95l31 37l-55 -3v50h162v-39q-36 -10 -56 -27
t-64 -69l-68 -80l124 -151q23 -31 39 -54l45 2v-49z" />
    <glyph glyph-name="y" unicode="y" horiz-adv-x="490" 
d="M491 422h-1q-32 -11 -48 -35.5t-37 -79.5l-116 -317q-34 -92 -56 -140t-51 -75t-70 -27q-31 0 -52.5 16t-21.5 45q0 19 13.5 34.5t33.5 15.5q21 0 31 -15t10 -30q0 -5 -1 -9q11 -2 23.5 6t24.5 27q23 40 63 152l-144 302q-35 77 -48 121l-45 -2v50h202v-40h-9
q-20 -2 -29.5 -9t-9.5 -22q0 -20 22 -67l104 -218q14 38 25 70.5t20 57.5l30 89q23 67 38 92l-56 -3v50h155v-39z" />
    <glyph glyph-name="z" unicode="z" horiz-adv-x="482" 
d="M172 84q-3 -4 -13 -16.5t-24 -24.5h-1l164 -2q53 -1 75.5 32.5t31.5 97.5h37l-12 -177h-394v46l259 328q33 40 42 49l-159 -3q-46 -1 -64 -32.5t-27 -95.5h-38l12 175h374v-39z" />
    <glyph glyph-name="braceleft" unicode="{" horiz-adv-x="334" 
d="M247 707.5q-28 -14.5 -38.5 -47t-10.5 -92.5q0 -20 6 -82q7 -56 7 -89q0 -53 -27.5 -87t-69.5 -47q42 -14 69.5 -49t27.5 -89q0 -33 -7 -100q-6 -74 -6 -96q0 -91 27 -130.5t102 -35.5v-40h-33q-101 0 -142 54t-41 166q0 22 2 55.5t3 46.5q5 57 5 91q0 51 -19.5 73
t-71.5 22h-28v64h28q53 0 72 20t19 71q0 32 -5 77q-5 73 -5 91q0 111 41 161.5t142 50.5h33v-46q-52 2 -80 -12.5z" />
    <glyph glyph-name="bar" unicode="|" horiz-adv-x="231" 
d="M82 -271l-3 1031h75l-4 -1031h-68z" />
    <glyph glyph-name="braceright" unicode="}" horiz-adv-x="334" 
d="M7 0zM87 707.5q28 -14.5 38.5 -47t10.5 -92.5q0 -20 -6 -82q-7 -56 -7 -89q0 -53 27.5 -87t69.5 -47q-42 -14 -69.5 -49t-27.5 -89q0 -33 7 -100q6 -74 6 -96q0 -91 -27 -130.5t-102 -35.5v-40h33q101 0 142 54t41 166q0 22 -2 55.5t-3 46.5q-5 57 -5 91q0 51 19.5 73
t71.5 22h28v64h-28q-53 0 -72 20t-19 71q0 32 5 77q5 73 5 91q0 111 -41 161.5t-142 50.5h-33v-46q52 2 80 -12.5z" />
    <glyph glyph-name="asciitilde" unicode="~" horiz-adv-x="580" 
d="M257.5 363.5q24.5 -10.5 53.5 -31.5q24 -17 42 -25.5t44 -8.5q62 0 115 48v-63q-47 -52 -119 -52q-35 0 -59.5 10.5t-53.5 30.5q-27 17 -45.5 25.5t-43.5 8.5q-37 0 -63 -11.5t-60 -36.5v63q35 28 62.5 40.5t64.5 12.5q38 0 62.5 -10.5z" />
    <glyph glyph-name="nbspace" unicode="&#xa0;" horiz-adv-x="269" 
 />
    <glyph glyph-name="exclamdown" unicode="&#xa1;" horiz-adv-x="243" 
d="M58 0zM71.5 -197.5q-16.5 24.5 -13.5 55.5l40 418h45l40 -418q2 -30 -15 -55t-48 -25q-32 0 -48.5 24.5zM75.5 402q-18.5 21 -18.5 50t19.5 49.5t44.5 20.5t44 -20.5t19 -49.5t-19.5 -50t-44.5 -21q-26 0 -44.5 21z" />
    <glyph glyph-name="cent" unicode="&#xa2;" horiz-adv-x="531" 
d="M402 495.5q38 -17.5 59 -44t21 -57.5q0 -23 -13 -38t-35 -15t-33.5 14.5t-11.5 30.5q0 24 15 40q-11 31 -42.5 42.5t-62.5 11.5q-46 0 -82.5 -25t-57.5 -73.5t-21 -115.5t21.5 -119.5t60.5 -82t90 -29.5q45 0 88.5 25t68.5 62l26 -20q-33 -52 -83.5 -82t-101.5 -36
l-1 -118h-58v118q-61 8 -109 41t-76 88.5t-28 127.5q0 62 27 121.5t76 101t111 52.5v106h65l-1 -106q50 -3 88 -20.5z" />
    <glyph glyph-name="sterling" unicode="&#xa3;" horiz-adv-x="548" 
d="M386 697.5q35 -18.5 50.5 -45t15.5 -52.5q0 -19 -11 -31.5t-31 -12.5q-19 0 -28.5 12.5t-9.5 26.5q0 20 13 34q-7 21 -27.5 35t-53.5 14q-54 0 -84 -41t-30 -100q0 -36 4.5 -68.5t13.5 -75.5l6 -33h152v-48h-143q6 -48 6 -74q0 -57 -52 -121q21 4 52 4q33 0 63 -9.5
t68 -27.5q29 -13 42.5 -18t26.5 -5q23 0 37 16t16 47h32q-2 -63 -28.5 -101.5t-73.5 -38.5q-27 0 -53 11.5t-63 35.5q-40 25 -67 37t-58 12q-11 0 -16 -1q-5 -39 -26 -67t-45 -28q-17 0 -27 11t-10 26q0 27 24.5 51.5t62.5 35.5q26 43 26 91q0 29 -4.5 55t-13.5 58h-79v48
h66q-18 68 -18 137q0 65 23.5 115t65.5 77t96 27q55 0 90 -18.5z" />
    <glyph glyph-name="currency" unicode="&#xa4;" horiz-adv-x="535" 
d="M416 139l59 -67l-40 -32l-51 65q-48 -38 -116 -38t-115 37l-51 -64l-41 32l59 67q-36 49 -36 115q0 68 39 120l-62 70l41 33l54 -68q47 39 112 39q64 0 113 -39l54 68l40 -33l-62 -70q39 -53 39 -120q0 -65 -36 -115zM343.5 157.5q22.5 51.5 22.5 113.5q0 29 -9.5 62
t-31.5 56.5t-57 23.5t-57 -23.5t-31.5 -56.5t-9.5 -62q0 -62 22.5 -113.5t75.5 -51.5t75.5 51.5z" />
    <glyph glyph-name="yen" unicode="&#xa5;" horiz-adv-x="705" 
d="M599.5 635q-31.5 -29 -68.5 -97l-118 -223h121v-43l-130 -1q0 -41 -1 -63l131 -1v-43l-131 -1q0 -44 1 -44q0 -53 -3 -79l83 4v-44h-235v33q43 2 55.5 24t12.5 68v31v7l-128 -1v47l128 -1v63l-128 -1v47l99 -1l-144 229q-46 71 -54 113l-62 -2v44h258v-33q-78 0 -78 -44
q0 -26 25 -65l31 -49q64 -104 111 -169h2q35 69 107 204l21 39q29 55 48 76l-79 -3v44h204v-33q-47 -3 -78.5 -32z" />
    <glyph glyph-name="brokenbar" unicode="&#xa6;" horiz-adv-x="243" 
d="M87 385l-3 375h75l-4 -375h-68zM87 -271l-3 372h75l-4 -372h-68z" />
    <glyph glyph-name="section" unicode="&#xa7;" horiz-adv-x="533" 
d="M364 742q41 -18 64 -47t23 -59q0 -20 -11.5 -33.5t-31.5 -13.5t-30 13.5t-10 27.5q0 8 3 18.5t9 15.5q-10 25 -38.5 41.5t-65.5 16.5q-43 0 -70.5 -17t-40 -42t-12.5 -50q0 -32 19.5 -58t48.5 -46.5t79 -49.5q62 -35 101.5 -64t67 -71.5t27.5 -98.5q0 -43 -23.5 -88
t-64.5 -79q41 -48 41 -111q0 -37 -19 -77.5t-61 -69t-108 -28.5q-56 0 -96 19t-61 48.5t-21 60.5q0 20 12.5 35.5t31.5 15.5q21 0 31 -13t10 -32q0 -6 -3 -15.5t-8 -15.5q2 -25 32 -44.5t68 -19.5q63 0 93 32.5t30 72.5q0 32 -19.5 58t-48.5 46.5t-79 49.5q-62 36 -101 64.5
t-66.5 71t-27.5 98.5q0 42 23.5 86.5t64.5 79.5q-42 48 -42 116q0 39 19.5 79t61.5 67.5t107 27.5q51 0 92 -18zM123.5 397q-8.5 -28 -8.5 -56q0 -46 22 -80t54.5 -57t87.5 -53q29 -16 58 -34t49 -36q17 21 25.5 49.5t8.5 57.5q0 46 -22 79.5t-54 56t-88 54.5q-38 21 -62 36
t-45 33q-17 -22 -25.5 -50z" />
    <glyph glyph-name="dieresis" unicode="&#xa8;" horiz-adv-x="387" 
d="M145.5 712.5q14.5 -17.5 14.5 -42.5q0 -24 -15 -41.5t-35 -17.5t-35 17t-15 42q0 24 15 42t35 18q21 0 35.5 -17.5zM312.5 712.5q14.5 -17.5 14.5 -42.5q0 -24 -15 -41.5t-35 -17.5t-35 17t-15 42q0 24 15 42t35 18q21 0 35.5 -17.5z" />
    <glyph glyph-name="copyright" unicode="&#xa9;" horiz-adv-x="877" 
d="M643.5 696q90.5 -54 141 -146t50.5 -202q0 -108 -53 -199.5t-144 -145t-200 -53.5q-116 0 -206 51t-139 142t-49 205q0 110 51 202t141.5 146t203.5 54t203.5 -54zM268.5 652q-74.5 -49 -116 -130t-41.5 -174t40.5 -172.5t115.5 -127.5t174 -48q96 0 171 48t116 127.5
t41 172.5t-42 174t-117.5 130t-171.5 49q-95 0 -169.5 -49zM517 588q34 -11 61 -30l-4 36h50v-168h-40q-8 62 -43 90.5t-90 28.5q-39 0 -75 -22t-58 -64t-22 -101q0 -55 22.5 -99t62.5 -69t92 -25q35 0 76 20.5t68 53.5l30 -35q-40 -55 -95.5 -78.5t-107.5 -23.5
q-68 0 -123.5 32.5t-87 88t-31.5 123.5q0 62 28.5 120t84.5 95.5t132 37.5q36 0 70 -11z" />
    <glyph glyph-name="ordfeminine" unicode="&#xaa;" horiz-adv-x="474" 
d="M116 328q-24 16 -36 40.5t-12 48.5q0 36 14 53.5t48 31.5q45 19 138 19q12 0 14 -1q0 51 -7 80.5t-27 40.5q-13 7 -54 7q-16 0 -22 -2l-11 -59q-23 -10 -32 -10q-15 0 -30 14t-15 31q0 9 9 18t22 16q30 17 71 27t65 10q53 0 78 -30.5t25 -81.5v-188q15 -27 65 -38l-4 -19
q-14 -8 -44 -16t-48 -8q-3 12 -13 32t-18 28q-9 -19 -48 -39.5t-69 -20.5q-35 0 -59 16zM196 371q20 0 46 7t40 16v96q-54 -3 -85.5 -12t-39.5 -18q-7 -6 -7 -23q0 -18 10.5 -38t24.5 -26q6 -2 11 -2zM423 260l-13 -48q-141 -9 -338 -9l12 57h339z" />
    <glyph glyph-name="guillemotleft" unicode="&#xab;" horiz-adv-x="530" 
d="M27 0zM27 270l279 -285l38 38l-198 255l196 240l-39 38l-276 -276v-10zM443 69l39 36l-122 165l120 166l-39 36l-201 -195v-9z" />
    <glyph glyph-name="logicalnot" unicode="&#xac;" horiz-adv-x="592" 
d="M519 157h-52l-3 127l-391 -2v62l446 -2v-185z" />
    <glyph glyph-name="uni00AD" unicode="&#xad;" horiz-adv-x="489" 
d="M62 279zM62 279v82h365v-78z" />
    <glyph glyph-name="registered" unicode="&#xae;" horiz-adv-x="878" 
d="M644.5 696.5q90.5 -53.5 140.5 -145.5t50 -203q0 -109 -53 -200t-144 -144.5t-200 -53.5q-117 0 -206.5 51t-138.5 141.5t-49 205.5q0 110 51 202t141.5 146t203.5 54q114 0 204.5 -53.5zM268.5 652.5q-74.5 -48.5 -115.5 -129.5t-41 -175t40 -173t114.5 -126.5
t174.5 -47.5q97 0 171.5 47.5t115.5 127t41 172.5t-41.5 174.5t-117.5 130t-172 48.5q-95 0 -169.5 -48.5zM574.5 561q46.5 -37 46.5 -93q0 -40 -29 -78.5t-92 -56.5v-1q19 -9 42 -41q37 -56 58.5 -82.5t35 -34.5t29.5 -8v-34h-87q-14 4 -31 23t-44 57q-21 30 -75 111
q-5 -1 -23 -1q-26 0 -32 1v-98q0 -27 -2 -51l48 2l2 -40h-170v34q23 0 33.5 10t12.5 25t2 45v261q0 35 2 48l-50 -5v42q126 5 185 4q92 -2 138.5 -39zM390.5 548q-12.5 -10 -15 -25.5t-2.5 -49.5v-108h1q32 -2 49 -1q45 2 82.5 26.5t37.5 74.5q0 44 -32.5 68.5t-78.5 24.5
q-29 0 -41.5 -10z" />
    <glyph glyph-name="macron" unicode="&#xaf;" horiz-adv-x="355" 
d="M45 640v60h265v-56z" />
    <glyph glyph-name="degree" unicode="&#xb0;" horiz-adv-x="405" 
d="M285 695.5q35 -20.5 54 -56t19 -78.5t-21.5 -79t-57.5 -57t-78 -21q-46 0 -81 21t-54 56.5t-19 79.5q0 42 21.5 77.5t57.5 56.5t78 21q46 0 81 -20.5zM136 635q-26 -32 -26 -74q0 -43 26 -74t67 -31q40 0 66 31t26 74q0 42 -26 74t-67 32q-40 0 -66 -32z" />
    <glyph glyph-name="plusminus" unicode="&#xb1;" horiz-adv-x="576" 
d="M510 358v-56l-191 -1v-166h-64v165h-190v60l190 -1v157h64v-157zM65 3v52l445 4v-56h-445z" />
    <glyph glyph-name="twosuperior" unicode="&#xb2;" horiz-adv-x="385" 
d="M282.5 693q36.5 -29 36.5 -84q0 -35 -24 -72t-95 -88q-61 -46 -75 -81l77 -2l37 -1q30 0 42.5 8t11.5 33h35l-4 -106h-266q-2 60 29 104t90 93q37 30 49.5 57.5t12.5 53.5q0 31 -15 48.5t-43 17.5q-21 0 -36 -9t-20 -23q8 -10 8 -25q0 -12 -9 -24t-26 -11
q-14 0 -23.5 11.5t-9.5 26.5q0 22 15.5 46t45 40t68.5 16q52 0 88.5 -29z" />
    <glyph glyph-name="threesuperior" unicode="&#xb3;" horiz-adv-x="370" 
d="M299.5 492q22.5 -30 22.5 -69q0 -53 -39.5 -88.5t-105.5 -35.5q-39 0 -68 14t-44.5 36t-15.5 46q0 16 9.5 29t25.5 13q18 1 27.5 -11t9.5 -27q0 -13 -8 -24q4 -14 21 -22t38 -8q35 0 54 23t19 55t-17 56t-61 25l-32 -1v44h16q78 0 78 66q0 27 -13 45.5t-43 18.5
q-22 0 -36 -9t-18 -23q8 -10 8 -24q0 -12 -9 -24t-26 -11q-14 0 -23.5 11.5t-9.5 27.5q0 20 15 43t43 38.5t66 15.5q53 0 86 -28.5t33 -74.5q0 -24 -17.5 -48.5t-48.5 -38.5q41 -10 63.5 -40z" />
    <glyph glyph-name="acute" unicode="&#xb4;" horiz-adv-x="252" 
d="M226 729q0 -21 -21 -43l-112 -106l-28 23l84 135q19 27 41 27q12 0 24 -8q12 -12 12 -28z" />
    <glyph glyph-name="uni00B5" unicode="&#xb5;" horiz-adv-x="614" 
d="M501.5 69.5q11.5 -21.5 33.5 -21.5q18 0 42 17l11 -15q-15 -22 -42.5 -39t-58.5 -17q-62 0 -76 62q-30 -31 -72 -51.5t-83 -20.5q-36 0 -64.5 21t-48.5 60q9 -92 18.5 -140.5t20.5 -84.5q9 -27 9 -46q0 -21 -12 -37.5t-33 -16.5q-52 0 -52 87l1 673h84v-264
q0 -96 23 -148.5t84 -52.5q35 0 67 20t53 51v394h85l-1 -359q0 -50 11.5 -71.5z" />
    <glyph glyph-name="paragraph" unicode="&#xb6;" horiz-adv-x="501" 
d="M330 -255l2 914l-87 -3l-3 -911h-70l2 664q-58 4 -99.5 39.5t-41.5 106.5q0 45 20 78t52.5 50t69.5 17h227l-2 -955h-70z" />
    <glyph glyph-name="periodcentered" unicode="&#xb7;" horiz-adv-x="250" 
d="M170.5 378q18.5 -21 18.5 -50t-19.5 -49.5t-44.5 -20.5t-44 20.5t-19 49.5t19.5 50t44.5 21q26 0 44.5 -21z" />
    <glyph glyph-name="cedilla" unicode="&#xb8;" horiz-adv-x="292" 
d="M180 -57q31 0 49 -18t18 -48q0 -53 -60 -80t-136 -38l-6 33q55 10 87.5 29.5t32.5 47.5q0 30 -32 30q-23 0 -45 -15l-34 16l29 108h56l-27 -82q29 17 68 17z" />
    <glyph glyph-name="onesuperior" unicode="&#xb9;" horiz-adv-x="283" 
d="M236 295h-165v40q29 -1 39 16t10 52v233l-61 -37l-21 38l117 85h31l1 -350q0 -23 -1 -33l50 2v-46z" />
    <glyph glyph-name="ordmasculine" unicode="&#xba;" horiz-adv-x="464" 
d="M88 588.5q21 47.5 59 76t85 28.5q71 0 117 -45t46 -132q0 -53 -21.5 -100t-58.5 -75.5t-81 -28.5q-74 0 -120.5 44t-46.5 132q0 53 21 100.5zM304 382q12 10 19 37.5t7 51.5q0 66 -33 116.5t-94 50.5q-30 0 -45 -15q-12 -12 -19 -37.5t-7 -51.5q0 -41 13.5 -79t42 -63
t71.5 -25q29 0 45 15zM398 260l-13 -48q-140 -9 -313 -9l12 57h314z" />
    <glyph glyph-name="guillemotright" unicode="&#xbb;" horiz-adv-x="530" 
d="M503 270l-279 -285l-38 38l198 255l-196 240l39 38l276 -276v-10zM87 69l-39 36l122 165l-120 166l39 36l201 -195v-9z" />
    <glyph glyph-name="onequarter" unicode="&#xbc;" horiz-adv-x="757" 
d="M38 0zM236 289h-165v40q29 -1 39 16t10 52v233l-61 -37l-21 38l117 85h31l1 -350q0 -23 -1 -33l50 2v-46zM166 -24l-47 32l474 716l53 -37zM664 44l41 2v-46h-157v41q30 -1 39.5 13.5t9.5 46.5v4h-169v38l202 280h33l1 -269l56 -1v-48h-56v-61zM597 306l-106 -149l106 -2
v151z" />
    <glyph glyph-name="onehalf" unicode="&#xbd;" horiz-adv-x="785" 
d="M38 0zM236 290h-165v40q29 -1 39 16t10 52v233l-61 -37l-21 38l117 85h31l1 -350q0 -23 -1 -33l50 2v-46zM166 -24l-47 32l474 716l53 -37zM705.5 393q36.5 -29 36.5 -84q0 -35 -24 -72t-95 -88q-61 -46 -75 -81l77 -2l37 -1q30 0 42.5 8t11.5 33h35l-4 -106h-266
q-2 60 29 104t90 93q37 30 49.5 57.5t12.5 53.5q0 31 -15 48.5t-43 17.5q-21 0 -36 -9t-20 -23q8 -10 8 -25q0 -12 -9 -24t-26 -11q-14 0 -23.5 11.5t-9.5 26.5q0 22 15.5 46t45 40t68.5 16q52 0 88.5 -29z" />
    <glyph glyph-name="threequarters" unicode="&#xbe;" horiz-adv-x="796" 
d="M49 0zM299.5 487q22.5 -30 22.5 -69q0 -53 -39.5 -88.5t-105.5 -35.5q-39 0 -68 14t-44.5 36t-15.5 46q0 16 9.5 29t25.5 13q18 1 27.5 -11t9.5 -27q0 -13 -8 -24q4 -14 21 -22t38 -8q35 0 54 23t19 55t-17 56t-61 25l-32 -1v44h16q78 0 78 66q0 27 -13 45.5t-43 18.5
q-22 0 -36 -9t-18 -23q8 -10 8 -24q0 -12 -9 -24t-26 -11q-14 0 -23.5 11.5t-9.5 27.5q0 20 15 43t43 38.5t66 15.5q53 0 86 -28.5t33 -74.5q0 -24 -17.5 -48.5t-48.5 -38.5q41 -10 63.5 -40zM205 -24l-47 32l474 716l53 -37zM703 44l41 2v-46h-157v41q30 -1 39.5 13.5
t9.5 46.5v4h-169v38l202 280h33l1 -269l56 -1v-48h-56v-61zM636 306l-106 -149l106 -2v151z" />
    <glyph glyph-name="questiondown" unicode="&#xbf;" horiz-adv-x="467" 
d="M28 0zM116.5 -197.5q-46.5 24.5 -67.5 63.5t-21 83q0 41 21.5 77t51 62.5t74.5 60.5q40 30 58.5 48.5t18.5 35.5q0 12 -8.5 19.5t-28.5 7.5q-25 0 -40 -9l-15 46q15 10 39 15.5t45 5.5q34 0 59.5 -18t25.5 -55q0 -29 -20 -53t-62 -60q-36 -31 -59 -55t-39 -56.5
t-16 -71.5q0 -120 117 -120q38 0 68.5 20.5t36.5 43.5q-12 19 -12 40q0 17 13 33t36 16q24 0 37 -17t13 -42q0 -32 -26 -66t-73.5 -56.5t-107.5 -22.5q-72 0 -118.5 24.5zM196.5 411.5q-17.5 19.5 -17.5 45.5q0 27 17 46t42 19q23 0 41 -18t18 -47q0 -26 -18.5 -45.5
t-40.5 -19.5q-24 0 -41.5 19.5z" />
    <glyph glyph-name="Agrave" unicode="&#xc0;" horiz-adv-x="626" 
d="M0 0zM645 0h-243v37h3q57 0 57 45q0 16 -11 47l-34 91l-251 -6h3q-12 -33 -34 -104q-9 -30 -24 -66l77 4v-48h-201v37h3q23 -1 37.5 9.5t23.5 28.5t22 55q1 4 11 31l207 560h36l224 -568q27 -72 26 -109l68 4v-48zM331 449l-39 108l-36 -98q-35 -96 -70 -198h215z
M218.5 922.5q7.5 4.5 17.5 4.5q18 0 39 -18l126 -120l-22 -29l-145 89q-32 20 -32 44q0 13 6 21q3 4 10.5 8.5z" />
    <glyph glyph-name="Aacute" unicode="&#xc1;" horiz-adv-x="626" 
d="M0 0zM645 0h-243v37h3q57 0 57 45q0 16 -11 47l-34 91l-251 -6h3q-12 -33 -34 -104q-9 -30 -24 -66l77 4v-48h-201v37h3q23 -1 37.5 9.5t23.5 28.5t22 55q1 4 11 31l207 560h36l224 -568q27 -72 26 -109l68 4v-48zM331 449l-39 108l-36 -98q-35 -96 -70 -198h215z
M407.5 922.5q-7.5 4.5 -17.5 4.5q-18 0 -39 -18l-126 -120l22 -29l145 89q32 20 32 44q0 13 -6 21q-3 4 -10.5 8.5z" />
    <glyph glyph-name="Acircumflex" unicode="&#xc2;" horiz-adv-x="626" 
d="M0 0zM645 0h-243v37h3q57 0 57 45q0 16 -11 47l-34 91l-251 -6h3q-12 -33 -34 -104q-9 -30 -24 -66l77 4v-48h-201v37h3q23 -1 37.5 9.5t23.5 28.5t22 55q1 4 11 31l207 560h36l224 -568q27 -72 26 -109l68 4v-48zM331 449l-39 108l-36 -98q-35 -96 -70 -198h215z
M474 756l-166 88h-2l-170 -87l-20 32l194 142h2l184 -141z" />
    <glyph glyph-name="Atilde" unicode="&#xc3;" horiz-adv-x="626" 
d="M0 0zM645 0h-243v37h3q57 0 57 45q0 16 -11 47l-34 91l-251 -6h3q-12 -33 -34 -104q-9 -30 -24 -66l77 4v-48h-201v37h3q23 -1 37.5 9.5t23.5 28.5t22 55q1 4 11 31l207 560h36l224 -568q27 -72 26 -109l68 4v-48zM331 449l-39 108l-36 -98q-35 -96 -70 -198h215z
M275 900q20 -10 46 -30q19 -15 33 -22.5t30 -7.5q25 0 44.5 17.5t36.5 47.5l32 -16q-20 -58 -51.5 -85t-67.5 -27q-29 0 -50.5 11t-49.5 31q-20 15 -32.5 22t-26.5 7q-20 0 -36.5 -14.5t-37.5 -45.5l-34 19q18 45 51 74t65 29q28 0 48 -10z" />
    <glyph glyph-name="Adieresis" unicode="&#xc4;" horiz-adv-x="626" 
d="M0 0zM645 0h-243v37h3q57 0 57 45q0 16 -11 47l-34 91l-251 -6h3q-12 -33 -34 -104q-9 -30 -24 -66l77 4v-48h-201v37h3q23 -1 37.5 9.5t23.5 28.5t22 55q1 4 11 31l207 560h36l224 -568q27 -72 26 -109l68 4v-48zM331 449l-39 108l-36 -98q-35 -96 -70 -198h215z
M442.773 886.038q17.2051 -20.5791 17.2051 -48.999t-18.1348 -48.5088q-18.1348 -20.0898 -41.3848 -20.0898t-40.9199 20.0898q-17.6699 20.0889 -17.6699 48.5088t18.1357 48.999q18.1348 20.5791 41.3838 20.5791q24.1807 0 41.3848 -20.5791zM262.773 886.038
q17.2051 -20.5791 17.2051 -48.999t-18.1348 -48.5088q-18.1348 -20.0898 -41.3848 -20.0898t-40.9199 20.0898q-17.6699 20.0889 -17.6699 48.5088t18.1357 48.999q18.1348 20.5791 41.3838 20.5791q24.1807 0 41.3848 -20.5791z" />
    <glyph glyph-name="Aring" unicode="&#xc5;" horiz-adv-x="626" 
d="M645 0h-243v37h3q57 0 57 45q0 16 -11 47l-34 91l-251 -6h3q-12 -33 -34 -104q-9 -30 -24 -66l77 4v-48h-201v37h3q23 -1 37.5 9.5t23.5 28.5t22 55q1 4 11 31l195 526q-37 8 -61 34.5t-24 70.5q0 33 16 58.5t42.5 40t54.5 14.5q46 0 80.5 -28t34.5 -80q0 -41 -23.5 -70
t-58.5 -39l211 -535q27 -72 26 -109l68 4v-48zM264 747.5q12 -20.5 32 -26.5h29q17 6 28 23.5t11 42.5q0 40 -15.5 62t-41.5 22q-25 0 -40 -20t-15 -52q0 -31 12 -51.5zM331 449l-39 108l-36 -98q-35 -96 -70 -198h215z" />
    <glyph glyph-name="AE" unicode="&#xc6;" horiz-adv-x="949" 
d="M835 525q0 82 -35.5 112t-99.5 28l-86 -2q-36 -1 -52 -13.5t-20 -35t-4 -70.5v-161h74q48 0 71.5 5.5t35 25.5t11.5 63h33v-218h-33q0 43 -11.5 61.5t-33.5 22.5t-72 4l-75 -4v-225q0 -52 -3 -78l197 -3q67 -1 102.5 36.5t35.5 121.5h34l-6 -195h-516v36h8q37 3 49 24
t12 70v91l-243 -5l-118 -176l76 4v-44h-187v33q24 0 44 13.5t33.5 30.5t34.5 48l361 535l-90 -4v44h501l5 -175h-33zM451 259v323l-215 -323h215z" />
    <glyph glyph-name="Ccedilla" unicode="&#xc7;" horiz-adv-x="699" 
d="M543.5 19q-74.5 -33 -151.5 -34l-20 -62q13 8 31.5 12t33.5 4q37 0 57 -20t20 -51q0 -53 -66.5 -85t-139.5 -43l-6 38q53 9 87.5 31t34.5 50q0 16 -9 24t-23 8q-21 0 -44 -14l-36 17l24 94q-87 12 -155 61t-105 125t-37 165q0 96 40 182t120.5 140t193.5 54
q106 0 194 -53l-4 46h68v-236h-50q-10 94 -63 146t-138 52q-69 0 -126 -39t-90 -111.5t-33 -168.5q0 -91 35 -161.5t94.5 -109.5t131.5 -39q67 0 127.5 30t100.5 87l35 -25q-57 -81 -131.5 -114z" />
    <glyph glyph-name="Egrave" unicode="&#xc8;" horiz-adv-x="622" 
d="M48 0zM578 0h-530v37h3q34 0 48 14.5t16 34.5t2 72v428q0 40 3 70l-72 -4v48h495l5 -179h-47q1 83 -32.5 112.5t-95.5 27.5l-86 -2q-33 -1 -47.5 -13t-18 -34t-3.5 -70v-156l174 -1l-7 86h58v-214h-47q0 38 -7.5 57t-24 25.5t-48.5 6.5l-32 -1l-66 -3v-225q0 -50 -3 -76
l184 3q68 1 103 35t34 120h48zM232.5 922.5q7.5 4.5 17.5 4.5q18 0 39 -18l126 -120l-22 -29l-145 89q-32 20 -32 44q0 13 6 21q3 4 10.5 8.5z" />
    <glyph glyph-name="Eacute" unicode="&#xc9;" horiz-adv-x="622" 
d="M48 0zM578 0h-530v37h3q34 0 48 14.5t16 34.5t2 72v428q0 40 3 70l-72 -4v48h495l5 -179h-47q1 83 -32.5 112.5t-95.5 27.5l-86 -2q-33 -1 -47.5 -13t-18 -34t-3.5 -70v-156l174 -1l-7 86h58v-214h-47q0 38 -7.5 57t-24 25.5t-48.5 6.5l-32 -1l-66 -3v-225q0 -50 -3 -76
l184 3q68 1 103 35t34 120h48zM421.5 922.5q-7.5 4.5 -17.5 4.5q-18 0 -39 -18l-126 -120l22 -29l145 89q32 20 32 44q0 13 -6 21q-3 4 -10.5 8.5z" />
    <glyph glyph-name="Ecircumflex" unicode="&#xca;" horiz-adv-x="622" 
d="M48 0zM578 0h-530v37h3q34 0 48 14.5t16 34.5t2 72v428q0 40 3 70l-72 -4v48h495l5 -179h-47q1 83 -32.5 112.5t-95.5 27.5l-86 -2q-33 -1 -47.5 -13t-18 -34t-3.5 -70v-156l174 -1l-7 86h58v-214h-47q0 38 -7.5 57t-24 25.5t-48.5 6.5l-32 -1l-66 -3v-225q0 -50 -3 -76
l184 3q68 1 103 35t34 120h48zM495 756l-166 88h-2l-170 -87l-20 32l194 142h2l184 -141z" />
    <glyph glyph-name="Edieresis" unicode="&#xcb;" horiz-adv-x="622" 
d="M48 0zM578 0h-530v37h3q34 0 48 14.5t16 34.5t2 72v428q0 40 3 70l-72 -4v48h495l5 -179h-47q1 83 -32.5 112.5t-95.5 27.5l-86 -2q-33 -1 -47.5 -13t-18 -34t-3.5 -70v-156l174 -1l-7 86h58v-214h-47q0 38 -7.5 57t-24 25.5t-48.5 6.5l-32 -1l-66 -3v-225q0 -50 -3 -76
l184 3q68 1 103 35t34 120h48zM458.773 886.038q17.2051 -20.5791 17.2051 -48.999t-18.1348 -48.5088q-18.1348 -20.0898 -41.3848 -20.0898t-40.9199 20.0898q-17.6699 20.0889 -17.6699 48.5088t18.1357 48.999q18.1348 20.5791 41.3838 20.5791
q24.1807 0 41.3848 -20.5791zM279.773 886.038q17.2051 -20.5791 17.2051 -48.999t-18.1348 -48.5088q-18.1348 -20.0898 -41.3848 -20.0898t-40.9199 20.0898q-17.6699 20.0889 -17.6699 48.5088t18.1357 48.999q18.1348 20.5791 41.3838 20.5791
q24.1807 0 41.3848 -20.5791z" />
    <glyph glyph-name="Igrave" unicode="&#xcc;" horiz-adv-x="335" 
d="M48 0zM236 648.5q-14 -14.5 -16 -34.5t-2 -72v-421q0 -50 -3 -77l72 4v-48h-239v37h3q34 0 48 14.5t16 34.5t2 72v428q0 40 3 70l-72 -4v48h239v-37h-3q-34 0 -48 -14.5zM76.5 922.5q7.5 4.5 17.5 4.5q18 0 39 -18l126 -120l-22 -29l-145 89q-32 20 -32 44q0 13 6 21
q3 4 10.5 8.5z" />
    <glyph glyph-name="Iacute" unicode="&#xcd;" horiz-adv-x="335" 
d="M48 0zM236 648.5q-14 -14.5 -16 -34.5t-2 -72v-421q0 -50 -3 -77l72 4v-48h-239v37h3q34 0 48 14.5t16 34.5t2 72v428q0 40 3 70l-72 -4v48h239v-37h-3q-34 0 -48 -14.5zM265.5 922.5q-7.5 4.5 -17.5 4.5q-18 0 -39 -18l-126 -120l22 -29l145 89q32 20 32 44q0 13 -6 21
q-3 4 -10.5 8.5z" />
    <glyph glyph-name="Icircumflex" unicode="&#xce;" horiz-adv-x="335" 
d="M329 756l-156 88h-2l-160 -87l-20 32l184 142h2l174 -141zM287 700v-37h-3q-34 0 -48 -14.5t-16 -34.5t-2 -72v-421q0 -50 -3 -77l72 4v-48h-239v37h3q34 0 48 14.5t16 34.5t2 72v428q0 40 3 70l-72 -4v48h239z" />
    <glyph glyph-name="Idieresis" unicode="&#xcf;" horiz-adv-x="335" 
d="M37 0zM236 648.5q-14 -14.5 -16 -34.5t-2 -72v-421q0 -50 -3 -77l72 4v-48h-239v37h3q34 0 48 14.5t16 34.5t2 72v428q0 40 3 70l-72 -4v48h239v-37h-3q-34 0 -48 -14.5zM297.773 886.038q17.2051 -20.5791 17.2051 -48.999t-18.1348 -48.5088
q-18.1348 -20.0898 -41.3848 -20.0898t-40.9199 20.0898q-17.6699 20.0889 -17.6699 48.5088t18.1357 48.999q18.1348 20.5791 41.3838 20.5791q24.1807 0 41.3848 -20.5791zM137.773 886.038q17.2051 -20.5791 17.2051 -48.999t-18.1348 -48.5088
q-18.1348 -20.0898 -41.3848 -20.0898t-40.9199 20.0898q-17.6699 20.0889 -17.6699 48.5088t18.1357 48.999q18.1348 20.5791 41.3838 20.5791q24.1807 0 41.3848 -20.5791z" />
    <glyph glyph-name="Eth" unicode="&#xd0;" horiz-adv-x="746" 
d="M509.5 663q93.5 -39 145.5 -118.5t52 -197.5q0 -93 -44.5 -172t-132.5 -127t-211 -48h-270v37h3q34 0 48 14.5t16 34.5t2 72v177h-99v42h99v209q0 40 3 70l-72 -4v48l243 1q124 1 217.5 -38zM461.5 82q63.5 40 98.5 110.5t35 158.5q0 147 -78.5 228t-235.5 81
q-28 0 -41 -10t-17 -28t-4 -50v-30v-165h174v-42h-174v-215q0 -50 -3 -76h-3q34 -2 103 -2q82 0 145.5 40z" />
    <glyph glyph-name="Ntilde" unicode="&#xd1;" horiz-adv-x="762" 
d="M50 0zM726 663h-3q-41 -1 -52.5 -20.5t-11.5 -63.5v-37l-2 -558h-60l-423 564l3 -407q0 -65 -2 -97l72 4v-48h-197v37h3q38 -1 50.5 21.5t12.5 55.5l1 542l-67 -4v48h131l415 -551l1 437q0 40 3 70l-72 -4v48h198v-37zM358 900q20 -10 46 -30q19 -15 33 -22.5t30 -7.5
q25 0 44.5 17.5t36.5 47.5l32 -16q-20 -58 -51.5 -85t-67.5 -27q-29 0 -50.5 11t-49.5 31q-20 15 -32.5 22t-26.5 7q-20 0 -36.5 -14.5t-37.5 -45.5l-34 19q18 45 51 74t65 29q28 0 48 -10z" />
    <glyph glyph-name="Ograve" unicode="&#xd2;" horiz-adv-x="794" 
d="M39 0zM594 661q82 -55 122.5 -139.5t40.5 -171.5t-40 -171.5t-120.5 -139.5t-194.5 -55q-123 0 -204.5 53.5t-120 137t-38.5 175.5q0 88 40 172t120.5 139t194.5 55q118 0 200 -55zM261 628q-54 -44 -82 -114t-28 -146q0 -79 28.5 -157t86 -130t138.5 -52
q75 0 129.5 43.5t82 113t27.5 145.5q0 84 -30.5 162.5t-88 128.5t-133.5 50t-130 -44zM294.5 922.5q7.5 4.5 17.5 4.5q18 0 39 -18l126 -120l-22 -29l-145 89q-32 20 -32 44q0 13 6 21q3 4 10.5 8.5z" />
    <glyph glyph-name="Oacute" unicode="&#xd3;" horiz-adv-x="794" 
d="M39 0zM594 661q82 -55 122.5 -139.5t40.5 -171.5t-40 -171.5t-120.5 -139.5t-194.5 -55q-123 0 -204.5 53.5t-120 137t-38.5 175.5q0 88 40 172t120.5 139t194.5 55q118 0 200 -55zM261 628q-54 -44 -82 -114t-28 -146q0 -79 28.5 -157t86 -130t138.5 -52
q75 0 129.5 43.5t82 113t27.5 145.5q0 84 -30.5 162.5t-88 128.5t-133.5 50t-130 -44zM483.5 922.5q-7.5 4.5 -17.5 4.5q-18 0 -39 -18l-126 -120l22 -29l145 89q32 20 32 44q0 13 -6 21q-3 4 -10.5 8.5z" />
    <glyph glyph-name="Ocircumflex" unicode="&#xd4;" horiz-adv-x="794" 
d="M39 0zM594 661q82 -55 122.5 -139.5t40.5 -171.5t-40 -171.5t-120.5 -139.5t-194.5 -55q-123 0 -204.5 53.5t-120 137t-38.5 175.5q0 88 40 172t120.5 139t194.5 55q118 0 200 -55zM261 628q-54 -44 -82 -114t-28 -146q0 -79 28.5 -157t86 -130t138.5 -52
q75 0 129.5 43.5t82 113t27.5 145.5q0 84 -30.5 162.5t-88 128.5t-133.5 50t-130 -44zM569 756l-166 88h-2l-170 -87l-20 32l194 142h2l184 -141z" />
    <glyph glyph-name="Otilde" unicode="&#xd5;" horiz-adv-x="794" 
d="M39 0zM594 661q82 -55 122.5 -139.5t40.5 -171.5t-40 -171.5t-120.5 -139.5t-194.5 -55q-123 0 -204.5 53.5t-120 137t-38.5 175.5q0 88 40 172t120.5 139t194.5 55q118 0 200 -55zM261 628q-54 -44 -82 -114t-28 -146q0 -79 28.5 -157t86 -130t138.5 -52
q75 0 129.5 43.5t82 113t27.5 145.5q0 84 -30.5 162.5t-88 128.5t-133.5 50t-130 -44zM375 900q20 -10 46 -30q19 -15 33 -22.5t30 -7.5q25 0 44.5 17.5t36.5 47.5l32 -16q-20 -58 -51.5 -85t-67.5 -27q-29 0 -50.5 11t-49.5 31q-20 15 -32.5 22t-26.5 7q-20 0 -36.5 -14.5
t-37.5 -45.5l-34 19q18 45 51 74t65 29q28 0 48 -10z" />
    <glyph glyph-name="Odieresis" unicode="&#xd6;" horiz-adv-x="794" 
d="M39 0zM594 661q82 -55 122.5 -139.5t40.5 -171.5t-40 -171.5t-120.5 -139.5t-194.5 -55q-123 0 -204.5 53.5t-120 137t-38.5 175.5q0 88 40 172t120.5 139t194.5 55q118 0 200 -55zM261 628q-54 -44 -82 -114t-28 -146q0 -79 28.5 -157t86 -130t138.5 -52
q75 0 129.5 43.5t82 113t27.5 145.5q0 84 -30.5 162.5t-88 128.5t-133.5 50t-130 -44zM529.773 886.038q17.2051 -20.5791 17.2051 -48.999t-18.1348 -48.5088q-18.1348 -20.0898 -41.3848 -20.0898t-40.9199 20.0898q-17.6699 20.0889 -17.6699 48.5088t18.1357 48.999
q18.1348 20.5791 41.3838 20.5791q24.1807 0 41.3848 -20.5791zM349.773 886.038q17.2051 -20.5791 17.2051 -48.999t-18.1348 -48.5088q-18.1348 -20.0898 -41.3848 -20.0898t-40.9199 20.0898q-17.6699 20.0889 -17.6699 48.5088t18.1357 48.999
q18.1348 20.5791 41.3838 20.5791q24.1807 0 41.3848 -20.5791z" />
    <glyph glyph-name="multiply" unicode="&#xd7;" horiz-adv-x="552" 
d="M319 313l181 -179l-45 -45l-181 179l-177 -175l-43 43l177 174l-175 174l47 45l174 -174l182 179l41 -43z" />
    <glyph glyph-name="Oslash" unicode="&#xd8;" horiz-adv-x="794" 
d="M721 510.5q35 -79.5 35 -160.5q0 -87 -40 -171.5t-120.5 -139.5t-194.5 -55q-86 0 -154 28l-54 -92l-48 30l51 88q-79 50 -118.5 134.5t-39.5 177.5q0 88 40 172t120.5 139t194.5 55q95 0 173 -39l45 78l54 -34l-46 -78q67 -53 102 -132.5zM172.5 229q22.5 -70 64.5 -120
l294 507q-61 56 -141 56q-76 0 -130 -44t-82 -114t-28 -146q0 -69 22.5 -139zM532.5 72.5q54.5 43.5 82 113t27.5 145.5q0 63 -18 125t-51 110l-293 -498q55 -39 123 -39q75 0 129.5 43.5z" />
    <glyph glyph-name="Ugrave" unicode="&#xd9;" horiz-adv-x="752" 
d="M24 0zM729 663h-3q-34 0 -48.5 -14.5t-16.5 -34.5t-2 -72l-2 -227q-1 -145 -66 -237.5t-210 -92.5q-109 0 -172 38t-90 116t-27 205v198q0 60 4 114l-72 -3v47h238v-37h-3q-42 1 -53.5 -21.5t-11.5 -55.5v-247q0 -135 41 -214t159 -79q100 0 149 70.5t51 193.5l3 276
q0 40 3 70l-71 -4v48h200v-37zM293.5 922.5q7.5 4.5 17.5 4.5q18 0 39 -18l126 -120l-22 -29l-145 89q-32 20 -32 44q0 13 6 21q3 4 10.5 8.5z" />
    <glyph glyph-name="Uacute" unicode="&#xda;" horiz-adv-x="752" 
d="M24 0zM729 663h-3q-34 0 -48.5 -14.5t-16.5 -34.5t-2 -72l-2 -227q-1 -145 -66 -237.5t-210 -92.5q-109 0 -172 38t-90 116t-27 205v198q0 60 4 114l-72 -3v47h238v-37h-3q-42 1 -53.5 -21.5t-11.5 -55.5v-247q0 -135 41 -214t159 -79q100 0 149 70.5t51 193.5l3 276
q0 40 3 70l-71 -4v48h200v-37zM482.5 922.5q-7.5 4.5 -17.5 4.5q-18 0 -39 -18l-126 -120l22 -29l145 89q32 20 32 44q0 13 -6 21q-3 4 -10.5 8.5z" />
    <glyph glyph-name="Ucircumflex" unicode="&#xdb;" horiz-adv-x="752" 
d="M24 0zM729 663h-3q-34 0 -48.5 -14.5t-16.5 -34.5t-2 -72l-2 -227q-1 -145 -66 -237.5t-210 -92.5q-109 0 -172 38t-90 116t-27 205v198q0 60 4 114l-72 -3v47h238v-37h-3q-42 1 -53.5 -21.5t-11.5 -55.5v-247q0 -135 41 -214t159 -79q100 0 149 70.5t51 193.5l3 276
q0 40 3 70l-71 -4v48h200v-37zM558 756l-166 88h-2l-170 -87l-20 32l194 142h2l184 -141z" />
    <glyph glyph-name="Udieresis" unicode="&#xdc;" horiz-adv-x="752" 
d="M24 0zM729 663h-3q-34 0 -48.5 -14.5t-16.5 -34.5t-2 -72l-2 -227q-1 -145 -66 -237.5t-210 -92.5q-109 0 -172 38t-90 116t-27 205v198q0 60 4 114l-72 -3v47h238v-37h-3q-42 1 -53.5 -21.5t-11.5 -55.5v-247q0 -135 41 -214t159 -79q100 0 149 70.5t51 193.5l3 276
q0 40 3 70l-71 -4v48h200v-37zM525.773 886.038q17.2051 -20.5791 17.2051 -48.999t-18.1348 -48.5088q-18.1348 -20.0898 -41.3848 -20.0898t-40.9199 20.0898q-17.6699 20.0889 -17.6699 48.5088t18.1357 48.999q18.1348 20.5791 41.3838 20.5791
q24.1807 0 41.3848 -20.5791zM345.773 886.038q17.2051 -20.5791 17.2051 -48.999t-18.1348 -48.5088q-18.1348 -20.0898 -41.3848 -20.0898t-40.9199 20.0898q-17.6699 20.0889 -17.6699 48.5088t18.1357 48.999q18.1348 20.5791 41.3838 20.5791
q24.1807 0 41.3848 -20.5791z" />
    <glyph glyph-name="Yacute" unicode="&#xdd;" horiz-adv-x="634" 
d="M0 0zM651 663h-3q-46 -1 -76.5 -29.5t-68.5 -98.5l-125 -235l-2 -176q1 -50 -2 -80l83 4v-48h-249v37h3q41 1 53 22t12 67v32l1 112l-173 272q-46 73 -54 112l-63 -2v48h272v-37h-3q-76 1 -76 -42q0 -25 25 -64q79 -126 136 -208q5 10 77 145l47 88q2 4 15.5 28.5
t30.5 44.5l-78 -3v48h218v-37zM425.5 922.5q-7.5 4.5 -17.5 4.5q-18 0 -39 -18l-126 -120l22 -29l145 89q32 20 32 44q0 13 -6 21q-3 4 -10.5 8.5z" />
    <glyph glyph-name="Thorn" unicode="&#xde;" horiz-adv-x="596" 
d="M215 44l72 4v-48h-239v37h3q34 0 48 14.5t16 34.5t2 72v428q0 40 3 70l-72 -4v48h239v-37h-3q-41 -1 -53.5 -21t-12.5 -64l47 1q305 0 305 -201q0 -56 -31 -105t-105 -80.5t-197 -31.5h-19v-40q0 -50 -3 -77zM218 540v-338q25 -4 58 -2q97 2 147 50.5t50 126.5
q0 80 -51.5 122t-150.5 42z" />
    <glyph glyph-name="germandbls" unicode="&#xdf;" horiz-adv-x="681" 
d="M451.5 740q53.5 -20 92.5 -76.5t35 -156.5q0 -11 -3 -29q-48 3 -59 3q-127 0 -127 -78q0 -38 30 -62.5t90 -54.5q46 -23 74.5 -42t48.5 -46.5t20 -65.5q0 -73 -45.5 -110.5t-124.5 -37.5q-24 0 -57 8.5t-58 23.5l3 -24h-42l-6 172h31q4 -64 37.5 -102.5t89.5 -38.5
q36 0 62 21.5t26 59.5q0 25 -15 44t-37 32.5t-61 32.5q-47 22 -75.5 40.5t-49 47.5t-20.5 70q0 69 47.5 108t134.5 37q2 122 -41 161.5t-102 39.5q-91 0 -130 -78q-15 -32 -21 -75t-6 -106l1 -352q0 -45 -4 -68l63 3v-41h-204v30q29 0 41.5 14.5t15 37t2.5 70.5l-1 305
l-82 -2v45h82v1q0 75 27.5 133.5t81.5 92t132 33.5q50 0 103.5 -20z" />
    <glyph glyph-name="agrave" unicode="&#xe0;" horiz-adv-x="481" 
d="M30 0zM354.5 431.5q45.5 -44.5 44.5 -130.5l-1 -198q0 -22 -3 -54l65 3v-52h-137q-4 21 -8 50q-67 -65 -142 -65q-68 0 -105.5 32.5t-37.5 83.5q0 55 43 92.5t108.5 56t131.5 18.5v42q0 59 -17 91t-72 32q-26 0 -51.5 -12.5t-37.5 -32.5q7 -7 9 -14t2 -20
q0 -16 -11.5 -31t-33.5 -15q-19 0 -31 15t-12 37q0 50 49 83t128 33q74 0 119.5 -44.5zM176 193q-61 -26 -61 -77q0 -31 23 -48t56 -17q36 0 63.5 12.5t55.5 38.5q-1 14 -1 42q0 5 0.5 22.5t0.5 56.5q-76 -4 -137 -30zM191 720q22 0 41 -27l84 -135l-28 -23l-112 106
q-21 22 -21 43q0 16 12 28q12 8 24 8z" />
    <glyph glyph-name="aacute" unicode="&#xe1;" horiz-adv-x="481" 
d="M30 0zM354.5 431.5q45.5 -44.5 44.5 -130.5l-1 -198q0 -22 -3 -54l65 3v-52h-137q-4 21 -8 50q-67 -65 -142 -65q-68 0 -105.5 32.5t-37.5 83.5q0 55 43 92.5t108.5 56t131.5 18.5v42q0 59 -17 91t-72 32q-26 0 -51.5 -12.5t-37.5 -32.5q7 -7 9 -14t2 -20
q0 -16 -11.5 -31t-33.5 -15q-19 0 -31 15t-12 37q0 50 49 83t128 33q74 0 119.5 -44.5zM176 193q-61 -26 -61 -77q0 -31 23 -48t56 -17q36 0 63.5 12.5t55.5 38.5q-1 14 -1 42q0 5 0.5 22.5t0.5 56.5q-76 -4 -137 -30zM279 720q-22 0 -41 -27l-84 -135l28 -23l112 106
q21 22 21 43q0 16 -12 28q-12 8 -24 8z" />
    <glyph glyph-name="acircumflex" unicode="&#xe2;" horiz-adv-x="481" 
d="M30 0zM354.5 431.5q45.5 -44.5 44.5 -130.5l-1 -198q0 -22 -3 -54l65 3v-52h-137q-4 21 -8 50q-67 -65 -142 -65q-68 0 -105.5 32.5t-37.5 83.5q0 55 43 92.5t108.5 56t131.5 18.5v42q0 59 -17 91t-72 32q-26 0 -51.5 -12.5t-37.5 -32.5q7 -7 9 -14t2 -20
q0 -16 -11.5 -31t-33.5 -15q-19 0 -31 15t-12 37q0 50 49 83t128 33q74 0 119.5 -44.5zM176 193q-61 -26 -61 -77q0 -31 23 -48t56 -17q36 0 63.5 12.5t55.5 38.5q-1 14 -1 42q0 5 0.5 22.5t0.5 56.5q-76 -4 -137 -30zM363 538l-127 109h-2l-129 -102l-25 29l159 159h2
l149 -163z" />
    <glyph glyph-name="atilde" unicode="&#xe3;" horiz-adv-x="481" 
d="M30 0zM354.5 431.5q45.5 -44.5 44.5 -130.5l-1 -198q0 -22 -3 -54l65 3v-52h-137q-4 21 -8 50q-67 -65 -142 -65q-68 0 -105.5 32.5t-37.5 83.5q0 55 43 92.5t108.5 56t131.5 18.5v42q0 59 -17 91t-72 32q-26 0 -51.5 -12.5t-37.5 -32.5q7 -7 9 -14t2 -20
q0 -16 -11.5 -31t-33.5 -15q-19 0 -31 15t-12 37q0 50 49 83t128 33q74 0 119.5 -44.5zM176 193q-61 -26 -61 -77q0 -31 23 -48t56 -17q36 0 63.5 12.5t55.5 38.5q-1 14 -1 42q0 5 0.5 22.5t0.5 56.5q-76 -4 -137 -30zM210.5 674q16.5 -8 37.5 -22q16 -12 28 -17.5t25 -5.5
q22 0 41.5 13t31.5 35l29 -15q-15 -46 -44 -70.5t-58 -24.5q-23 0 -41 8t-42 24q-16 11 -26.5 16.5t-21.5 5.5q-20 0 -40 -10.5t-33 -31.5l-30 17q13 36 44.5 61t60.5 25q22 0 38.5 -8z" />
    <glyph glyph-name="adieresis" unicode="&#xe4;" horiz-adv-x="481" 
d="M30 0zM354.5 431.5q45.5 -44.5 44.5 -130.5l-1 -198q0 -22 -3 -54l65 3v-52h-137q-4 21 -8 50q-67 -65 -142 -65q-68 0 -105.5 32.5t-37.5 83.5q0 55 43 92.5t108.5 56t131.5 18.5v42q0 59 -17 91t-72 32q-26 0 -51.5 -12.5t-37.5 -32.5q7 -7 9 -14t2 -20
q0 -16 -11.5 -31t-33.5 -15q-19 0 -31 15t-12 37q0 50 49 83t128 33q74 0 119.5 -44.5zM176 193q-61 -26 -61 -77q0 -31 23 -48t56 -17q36 0 63.5 12.5t55.5 38.5q-1 14 -1 42q0 5 0.5 22.5t0.5 56.5q-76 -4 -137 -30zM198.371 714.158q15.7246 -19.3193 15.7246 -45.999
t-16.5752 -45.5391q-16.5742 -18.8594 -37.8232 -18.8594q-21.25 0 -37.3994 18.8594t-16.1494 45.5391t16.5742 45.999q16.5752 19.3193 37.8242 19.3193q22.0996 0 37.8242 -19.3193zM365.371 714.158q15.7246 -19.3193 15.7246 -45.999t-16.5752 -45.5391
q-16.5742 -18.8594 -37.8232 -18.8594q-21.25 0 -37.3994 18.8594t-16.1494 45.5391t16.5742 45.999q16.5752 19.3193 37.8242 19.3193q22.0996 0 37.8242 -19.3193z" />
    <glyph glyph-name="aring" unicode="&#xe5;" horiz-adv-x="481" 
d="M30 0zM354.5 431.5q45.5 -44.5 44.5 -130.5l-1 -198q0 -22 -3 -54l65 3v-52h-137q-4 21 -8 50q-67 -65 -142 -65q-68 0 -105.5 32.5t-37.5 83.5q0 55 43 92.5t108.5 56t131.5 18.5v42q0 59 -17 91t-72 32q-26 0 -51.5 -12.5t-37.5 -32.5q7 -7 9 -14t2 -20
q0 -16 -11.5 -31t-33.5 -15q-19 0 -31 15t-12 37q0 50 49 83t128 33q74 0 119.5 -44.5zM176 193q-61 -26 -61 -77q0 -31 23 -48t56 -17q36 0 63.5 12.5t55.5 38.5q-1 14 -1 42q0 5 0.5 22.5t0.5 56.5q-76 -4 -137 -30zM303.5 692q29.5 -24 29.5 -70q0 -42 -30 -69.5
t-67 -27.5q-40 0 -69.5 24t-29.5 70q0 42 29.5 69.5t67.5 27.5q40 0 69.5 -24zM202.5 668.5q-12.5 -16.5 -12.5 -43.5q0 -30 13 -49.5t35 -19.5q18 0 30 16t12 43q0 32 -12 51t-33 19q-20 0 -32.5 -16.5z" />
    <glyph glyph-name="ae" unicode="&#xe6;" horiz-adv-x="777" 
d="M681.5 462.5q47.5 -53.5 48.5 -167.5l-305 -6q-1 -13 -1 -37q0 -102 41.5 -159.5t107.5 -57.5q80 0 138 83l25 -20q-76 -114 -187 -114q-126 0 -178 95h-1q-69 -95 -190 -95q-67 0 -106.5 32.5t-39.5 83.5q0 58 46 98t115.5 59t140.5 18v61q0 67 -19 105t-80 38
q-33 0 -61 -16t-38 -43q6 -5 9.5 -15.5t3.5 -17.5q0 -14 -10.5 -28t-30.5 -14t-32 12.5t-12 35.5q0 31 23 59t65.5 46t97.5 18q49 0 84.5 -22.5t53.5 -63.5q29 40 70.5 63t92.5 23q81 0 128.5 -53.5zM432 331h208q0 65 -19 105.5t-72 40.5q-100 0 -117 -146zM191 207
q-62 -30 -62 -92q0 -35 21 -53.5t49 -20.5q83 -6 146 66q-9 77 -10 134q-82 -4 -144 -34z" />
    <glyph glyph-name="ccedilla" unicode="&#xe7;" horiz-adv-x="503" 
d="M399 18.5q-45 -28.5 -94 -36.5l-18 -56q29 17 68 17q31 0 49 -18t18 -48q0 -53 -60 -80t-136 -38l-6 33q55 10 87.5 29.5t32.5 47.5q0 30 -32 30q-23 0 -45 -15l-34 16l21 80q-59 5 -107.5 35t-77 82.5t-28.5 121.5q0 64 32 123.5t89 96t127 36.5q50 0 90.5 -16.5
t63 -43.5t22.5 -58q0 -22 -14.5 -38t-36.5 -16t-34 16t-12 31q0 22 13 38q-11 24 -37 32.5t-53 8.5q-64 0 -104.5 -49t-40.5 -138q0 -91 42.5 -147t112.5 -56q42 0 81.5 22.5t61.5 56.5h1l33 -23q-30 -48 -75 -76.5z" />
    <glyph glyph-name="egrave" unicode="&#xe8;" horiz-adv-x="512" 
d="M38 0zM383 7q-59 -28 -114 -28q-65 0 -117.5 30.5t-83 87t-30.5 129.5q0 65 30.5 122.5t85 92t122.5 34.5q55 0 99 -24t69.5 -72t24.5 -117h-1l-326 -5h1q1 -105 37 -162t111 -57q44 0 88.5 22t66.5 54h2l30 -24q-36 -55 -95 -83zM191.5 399q-32.5 -29 -44.5 -92h225
q-1 51 -24.5 86t-70.5 35q-53 0 -85.5 -29zM219 720q22 0 41 -27l84 -135l-28 -23l-112 106q-21 22 -21 43q0 16 12 28q12 8 24 8z" />
    <glyph glyph-name="eacute" unicode="&#xe9;" horiz-adv-x="512" 
d="M38 0zM383 7q-59 -28 -114 -28q-65 0 -117.5 30.5t-83 87t-30.5 129.5q0 65 30.5 122.5t85 92t122.5 34.5q55 0 99 -24t69.5 -72t24.5 -117h-1l-326 -5h1q1 -105 37 -162t111 -57q44 0 88.5 22t66.5 54h2l30 -24q-36 -55 -95 -83zM191.5 399q-32.5 -29 -44.5 -92h225
q-1 51 -24.5 86t-70.5 35q-53 0 -85.5 -29zM307 720q-22 0 -41 -27l-84 -135l28 -23l112 106q21 22 21 43q0 16 -12 28q-12 8 -24 8z" />
    <glyph glyph-name="ecircumflex" unicode="&#xea;" horiz-adv-x="512" 
d="M38 0zM383 7q-59 -28 -114 -28q-65 0 -117.5 30.5t-83 87t-30.5 129.5q0 65 30.5 122.5t85 92t122.5 34.5q55 0 99 -24t69.5 -72t24.5 -117h-1l-326 -5h1q1 -105 37 -162t111 -57q44 0 88.5 22t66.5 54h2l30 -24q-36 -55 -95 -83zM191.5 399q-32.5 -29 -44.5 -92h225
q-1 51 -24.5 86t-70.5 35q-53 0 -85.5 -29zM391 538l-127 109h-2l-129 -102l-25 29l159 159h2l149 -163z" />
    <glyph glyph-name="edieresis" unicode="&#xeb;" horiz-adv-x="512" 
d="M38 0zM383 7q-59 -28 -114 -28q-65 0 -117.5 30.5t-83 87t-30.5 129.5q0 65 30.5 122.5t85 92t122.5 34.5q55 0 99 -24t69.5 -72t24.5 -117h-1l-326 -5h1q1 -105 37 -162t111 -57q44 0 88.5 22t66.5 54h2l30 -24q-36 -55 -95 -83zM191.5 399q-32.5 -29 -44.5 -92h225
q-1 51 -24.5 86t-70.5 35q-53 0 -85.5 -29zM238.371 714.158q15.7246 -19.3193 15.7246 -45.999t-16.5752 -45.5391q-16.5742 -18.8594 -37.8232 -18.8594q-21.25 0 -37.3994 18.8594t-16.1494 45.5391t16.5742 45.999q16.5752 19.3193 37.8242 19.3193
q22.0996 0 37.8242 -19.3193zM405.371 714.158q15.7246 -19.3193 15.7246 -45.999t-16.5752 -45.5391q-16.5742 -18.8594 -37.8232 -18.8594q-21.25 0 -37.3994 18.8594t-16.1494 45.5391t16.5742 45.999q16.5752 19.3193 37.8242 19.3193q22.0996 0 37.8242 -19.3193z" />
    <glyph glyph-name="igrave" unicode="&#xec;" horiz-adv-x="281" 
d="M5 0zM185 38l63 3v-41h-204v30q29 0 41.5 14.5t15 37t2.5 70.5v228q0 29 4 65l-71 -4v42q59 0 84.5 7t39.5 20h29v-404q0 -45 -4 -68zM41 765q22 0 41 -27l84 -135l-28 -23l-112 106q-21 22 -21 43q0 16 12 28q12 8 24 8z" />
    <glyph glyph-name="iacute" unicode="&#xed;" horiz-adv-x="281" 
d="M36 0zM185 38l63 3v-41h-204v30q29 0 41.5 14.5t15 37t2.5 70.5v228q0 29 4 65l-71 -4v42q59 0 84.5 7t39.5 20h29v-404q0 -45 -4 -68zM226 765q-22 0 -41 -27l-84 -135l28 -23l112 106q21 22 21 43q0 16 -12 28q-12 8 -24 8z" />
    <glyph glyph-name="icircumflex" unicode="&#xee;" horiz-adv-x="281" 
d="M253 583l-112 104h-2l-114 -97l-25 29l144 159h2l134 -163zM185 38l63 3v-41h-204v30q29 0 41.5 14.5t15 37t2.5 70.5v228q0 29 4 65l-71 -4v42q59 0 84.5 7t39.5 20h29v-404q0 -45 -4 -68z" />
    <glyph glyph-name="idieresis" unicode="&#xef;" horiz-adv-x="281" 
d="M14 0zM185 38l63 3v-41h-204v30q29 0 41.5 14.5t15 37t2.5 70.5v228q0 29 4 65l-71 -4v42q59 0 84.5 7t39.5 20h29v-404q0 -45 -4 -68zM106.371 714.158q15.7246 -19.3193 15.7246 -45.999t-16.5752 -45.5391q-16.5742 -18.8594 -37.8232 -18.8594
q-21.25 0 -37.3994 18.8594t-16.1494 45.5391t16.5742 45.999q16.5752 19.3193 37.8242 19.3193q22.0996 0 37.8242 -19.3193zM246.371 714.158q15.7246 -19.3193 15.7246 -45.999t-16.5752 -45.5391q-16.5742 -18.8594 -37.8232 -18.8594q-21.25 0 -37.3994 18.8594
t-16.1494 45.5391t16.5742 45.999q16.5752 19.3193 37.8242 19.3193q22.0996 0 37.8242 -19.3193z" />
    <glyph glyph-name="eth" unicode="&#xf0;" horiz-adv-x="559" 
d="M276 710q106 -61 166 -180t60 -261q0 -126 -61 -205.5t-182 -79.5q-60 0 -109.5 29t-78 83t-28.5 126q0 73 27 136t77.5 100.5t117.5 37.5q41 0 79 -16t59 -50h2q-17 67 -58 132.5t-104 106.5l-61 -77l-36 30l58 69q-49 23 -101 27l4 42q67 -4 130 -31l54 64l29 -27z
M179 394q-36 -61 -36 -151q0 -103 37 -161t95 -58q38 0 69.5 24t50 71t18.5 114q0 86 -32.5 154t-102.5 68q-63 0 -99 -61z" />
    <glyph glyph-name="ntilde" unicode="&#xf1;" horiz-adv-x="564" 
d="M32 0zM539 0h-195v41q27 -1 38.5 10.5t13.5 31t2 62.5v120q-1 78 -24 114.5t-77 36.5q-32 0 -64.5 -15.5t-53.5 -40.5q1 -9 1 -32l-1 -225q0 -37 -2 -54l57 2v-51h-195v41q27 -1 38 10.5t13 30t3 63.5l1 200q0 34 3 53l-65 -4v52q58 0 78.5 6t33.5 18v1h30v-2
q3 -16 5 -54v2q32 27 71 43t77 16q80 0 119 -51.5t39 -159.5v-162q0 -37 -3 -54l57 2v-51zM272.5 674q16.5 -8 37.5 -22q16 -12 28 -17.5t25 -5.5q22 0 41.5 13t31.5 35l29 -15q-15 -46 -44 -70.5t-58 -24.5q-23 0 -41 8t-42 24q-16 11 -26.5 16.5t-21.5 5.5
q-20 0 -40 -10.5t-33 -31.5l-30 17q13 36 44.5 61t60.5 25q22 0 38.5 -8z" />
    <glyph glyph-name="ograve" unicode="&#xf2;" horiz-adv-x="497" 
d="M31 0zM374.5 445q52.5 -31 82.5 -85.5t30 -121.5q0 -72 -30 -131.5t-82 -94t-117 -34.5q-64 0 -116 30.5t-81.5 85t-29.5 122.5q0 73 29.5 132.5t81.5 93.5t116 34t116.5 -31zM157.5 375q-33.5 -53 -33.5 -132q0 -90 36.5 -152t104.5 -62t99 51.5t31 131.5
q0 89 -34.5 152.5t-102.5 63.5q-67 0 -100.5 -53zM217 720q22 0 41 -27l84 -135l-28 -23l-112 106q-21 22 -21 43q0 16 12 28q12 8 24 8z" />
    <glyph glyph-name="oacute" unicode="&#xf3;" horiz-adv-x="497" 
d="M31 0zM374.5 445q52.5 -31 82.5 -85.5t30 -121.5q0 -72 -30 -131.5t-82 -94t-117 -34.5q-64 0 -116 30.5t-81.5 85t-29.5 122.5q0 73 29.5 132.5t81.5 93.5t116 34t116.5 -31zM157.5 375q-33.5 -53 -33.5 -132q0 -90 36.5 -152t104.5 -62t99 51.5t31 131.5
q0 89 -34.5 152.5t-102.5 63.5q-67 0 -100.5 -53zM305 720q-22 0 -41 -27l-84 -135l28 -23l112 106q21 22 21 43q0 16 -12 28q-12 8 -24 8z" />
    <glyph glyph-name="ocircumflex" unicode="&#xf4;" horiz-adv-x="497" 
d="M31 0zM374.5 445q52.5 -31 82.5 -85.5t30 -121.5q0 -72 -30 -131.5t-82 -94t-117 -34.5q-64 0 -116 30.5t-81.5 85t-29.5 122.5q0 73 29.5 132.5t81.5 93.5t116 34t116.5 -31zM157.5 375q-33.5 -53 -33.5 -132q0 -90 36.5 -152t104.5 -62t99 51.5t31 131.5
q0 89 -34.5 152.5t-102.5 63.5q-67 0 -100.5 -53zM389 538l-127 109h-2l-129 -102l-25 29l159 159h2l149 -163z" />
    <glyph glyph-name="otilde" unicode="&#xf5;" horiz-adv-x="497" 
d="M31 0zM374.5 445q52.5 -31 82.5 -85.5t30 -121.5q0 -72 -30 -131.5t-82 -94t-117 -34.5q-64 0 -116 30.5t-81.5 85t-29.5 122.5q0 73 29.5 132.5t81.5 93.5t116 34t116.5 -31zM157.5 375q-33.5 -53 -33.5 -132q0 -90 36.5 -152t104.5 -62t99 51.5t31 131.5
q0 89 -34.5 152.5t-102.5 63.5q-67 0 -100.5 -53zM236.5 674q16.5 -8 37.5 -22q16 -12 28 -17.5t25 -5.5q22 0 41.5 13t31.5 35l29 -15q-15 -46 -44 -70.5t-58 -24.5q-23 0 -41 8t-42 24q-16 11 -26.5 16.5t-21.5 5.5q-20 0 -40 -10.5t-33 -31.5l-30 17q13 36 44.5 61
t60.5 25q22 0 38.5 -8z" />
    <glyph glyph-name="odieresis" unicode="&#xf6;" horiz-adv-x="497" 
d="M31 0zM374.5 445q52.5 -31 82.5 -85.5t30 -121.5q0 -72 -30 -131.5t-82 -94t-117 -34.5q-64 0 -116 30.5t-81.5 85t-29.5 122.5q0 73 29.5 132.5t81.5 93.5t116 34t116.5 -31zM157.5 375q-33.5 -53 -33.5 -132q0 -90 36.5 -152t104.5 -62t99 51.5t31 131.5
q0 89 -34.5 152.5t-102.5 63.5q-67 0 -100.5 -53zM243.371 714.158q15.7246 -19.3193 15.7246 -45.999t-16.5752 -45.5391q-16.5742 -18.8594 -37.8232 -18.8594q-21.25 0 -37.3994 18.8594t-16.1494 45.5391t16.5742 45.999q16.5752 19.3193 37.8242 19.3193
q22.0996 0 37.8242 -19.3193zM410.371 714.158q15.7246 -19.3193 15.7246 -45.999t-16.5752 -45.5391q-16.5742 -18.8594 -37.8232 -18.8594q-21.25 0 -37.3994 18.8594t-16.1494 45.5391t16.5742 45.999q16.5752 19.3193 37.8242 19.3193q22.0996 0 37.8242 -19.3193z" />
    <glyph glyph-name="divide" unicode="&#xf7;" horiz-adv-x="264" 
d="M69 38zM177.5 158q18.5 -21 18.5 -50t-19.5 -49.5t-44.5 -20.5t-44 20.5t-19 49.5t19.5 50t44.5 21q26 0 44.5 -21zM177.5 501q18.5 -21 18.5 -50t-19.5 -49.5t-44.5 -20.5t-44 20.5t-19 49.5t19.5 50t44.5 21q26 0 44.5 -21z" />
    <glyph glyph-name="oslash" unicode="&#xf8;" horiz-adv-x="585" 
d="M471.5 328q15.5 -42 15.5 -90q0 -72 -30 -131.5t-82 -94t-117 -34.5q-51 0 -94 20l-47 -73l-37 27l44 69q-44 32 -68.5 83t-24.5 112q0 73 29.5 132.5t81.5 93.5t116 34q71 0 128 -38l80 127l47 -31l-86 -132q29 -32 44.5 -74zM134 156q10 -41 30 -70l186 295
q-36 47 -92 47q-67 0 -100.5 -53t-33.5 -132q0 -46 10 -87zM378 326l-180 -276q31 -21 67 -21q68 0 99 51.5t31 131.5q0 66 -17 114z" />
    <glyph glyph-name="ugrave" unicode="&#xf9;" horiz-adv-x="558" 
d="M21 0zM534 -6h-142q-5 24 -7 49q-31 -28 -70.5 -46t-76.5 -18q-80 0 -118.5 47t-38.5 158v161q0 35 2 54l-62 -3v49h34q37 0 54.5 6.5t28.5 18.5h35v-284q0 -77 21 -112.5t72 -35.5q33 0 64 19t51 47v231q0 39 4 64l-65 -3v49h33q37 0 55 6.5t29 18.5h35l-1 -350
q0 -46 -4 -79l67 3v-50zM223 720q22 0 41 -27l84 -135l-28 -23l-112 106q-21 22 -21 43q0 16 12 28q12 8 24 8z" />
    <glyph glyph-name="uacute" unicode="&#xfa;" horiz-adv-x="558" 
d="M21 0zM534 -6h-142q-5 24 -7 49q-31 -28 -70.5 -46t-76.5 -18q-80 0 -118.5 47t-38.5 158v161q0 35 2 54l-62 -3v49h34q37 0 54.5 6.5t28.5 18.5h35v-284q0 -77 21 -112.5t72 -35.5q33 0 64 19t51 47v231q0 39 4 64l-65 -3v49h33q37 0 55 6.5t29 18.5h35l-1 -350
q0 -46 -4 -79l67 3v-50zM311 720q-22 0 -41 -27l-84 -135l28 -23l112 106q21 22 21 43q0 16 -12 28q-12 8 -24 8z" />
    <glyph glyph-name="ucircumflex" unicode="&#xfb;" horiz-adv-x="558" 
d="M21 0zM534 -6h-142q-5 24 -7 49q-31 -28 -70.5 -46t-76.5 -18q-80 0 -118.5 47t-38.5 158v161q0 35 2 54l-62 -3v49h34q37 0 54.5 6.5t28.5 18.5h35v-284q0 -77 21 -112.5t72 -35.5q33 0 64 19t51 47v231q0 39 4 64l-65 -3v49h33q37 0 55 6.5t29 18.5h35l-1 -350
q0 -46 -4 -79l67 3v-50zM395 538l-127 109h-2l-129 -102l-25 29l159 159h2l149 -163z" />
    <glyph glyph-name="udieresis" unicode="&#xfc;" horiz-adv-x="558" 
d="M21 0zM534 -6h-142q-5 24 -7 49q-31 -28 -70.5 -46t-76.5 -18q-80 0 -118.5 47t-38.5 158v161q0 35 2 54l-62 -3v49h34q37 0 54.5 6.5t28.5 18.5h35v-284q0 -77 21 -112.5t72 -35.5q33 0 64 19t51 47v231q0 39 4 64l-65 -3v49h33q37 0 55 6.5t29 18.5h35l-1 -350
q0 -46 -4 -79l67 3v-50zM259.371 714.158q15.7246 -19.3193 15.7246 -45.999t-16.5752 -45.5391q-16.5742 -18.8594 -37.8232 -18.8594q-21.25 0 -37.3994 18.8594t-16.1494 45.5391t16.5742 45.999q16.5752 19.3193 37.8242 19.3193q22.0996 0 37.8242 -19.3193z
M426.371 714.158q15.7246 -19.3193 15.7246 -45.999t-16.5752 -45.5391q-16.5742 -18.8594 -37.8232 -18.8594q-21.25 0 -37.3994 18.8594t-16.1494 45.5391t16.5742 45.999q16.5752 19.3193 37.8242 19.3193q22.0996 0 37.8242 -19.3193z" />
    <glyph glyph-name="yacute" unicode="&#xfd;" horiz-adv-x="490" 
d="M0 0zM491 422h-1q-32 -11 -48 -35.5t-37 -79.5l-116 -317q-34 -92 -56 -140t-51 -75t-70 -27q-31 0 -52.5 16t-21.5 45q0 19 13.5 34.5t33.5 15.5q21 0 31 -15t10 -30q0 -5 -1 -9q11 -2 23.5 6t24.5 27q23 40 63 152l-144 302q-35 77 -48 121l-45 -2v50h202v-40h-9
q-20 -2 -29.5 -9t-9.5 -22q0 -20 22 -67l104 -218q14 38 25 70.5t20 57.5l30 89q23 67 38 92l-56 -3v50h155v-39zM310 720q-22 0 -41 -27l-84 -135l28 -23l112 106q21 22 21 43q0 16 -12 28q-12 8 -24 8z" />
    <glyph glyph-name="thorn" unicode="&#xfe;" horiz-adv-x="577" 
d="M230.5 501.5q39.5 14.5 80.5 14.5q61 0 112 -31t81 -88.5t30 -132.5q0 -83 -34.5 -146.5t-92.5 -98.5t-128 -35t-119 31v-164q0 -45 -4 -68l63 3v-41h-204v30q29 0 41.5 14.5t14.5 36t3 71.5l2 728q0 42 4 65l-71 -4v42q59 0 84 7t39 20h29l-1 -293q31 25 70.5 39.5z
M213.5 453q-30.5 -14 -53.5 -37v-354q50 -38 117 -38q70 0 112 62.5t42 162.5q0 90 -39 154t-115 64q-33 0 -63.5 -14z" />
    <glyph glyph-name="ydieresis" unicode="&#xff;" horiz-adv-x="490" 
d="M0 0zM491 422h-1q-32 -11 -48 -35.5t-37 -79.5l-116 -317q-34 -92 -56 -140t-51 -75t-70 -27q-31 0 -52.5 16t-21.5 45q0 19 13.5 34.5t33.5 15.5q21 0 31 -15t10 -30q0 -5 -1 -9q11 -2 23.5 6t24.5 27q23 40 63 152l-144 302q-35 77 -48 121l-45 -2v50h202v-40h-9
q-20 -2 -29.5 -9t-9.5 -22q0 -20 22 -67l104 -218q14 38 25 70.5t20 57.5l30 89q23 67 38 92l-56 -3v50h155v-39zM244.371 714.158q15.7246 -19.3193 15.7246 -45.999t-16.5752 -45.5391q-16.5742 -18.8594 -37.8232 -18.8594q-21.25 0 -37.3994 18.8594t-16.1494 45.5391
t16.5742 45.999q16.5752 19.3193 37.8242 19.3193q22.0996 0 37.8242 -19.3193zM411.371 714.158q15.7246 -19.3193 15.7246 -45.999t-16.5752 -45.5391q-16.5742 -18.8594 -37.8232 -18.8594q-21.25 0 -37.3994 18.8594t-16.1494 45.5391t16.5742 45.999
q16.5752 19.3193 37.8242 19.3193q22.0996 0 37.8242 -19.3193z" />
    <glyph glyph-name="Amacron" unicode="&#x100;" horiz-adv-x="626" 
d="M0 0zM645 0h-243v37h3q57 0 57 45q0 16 -11 47l-34 91l-251 -6h3q-12 -33 -34 -104q-9 -30 -24 -66l77 4v-48h-201v37h3q23 -1 37.5 9.5t23.5 28.5t22 55q1 4 11 31l207 560h36l224 -568q27 -72 26 -109l68 4v-48zM331 449l-39 108l-36 -98q-35 -96 -70 -198h215z
M180 840v60h265v-56z" />
    <glyph glyph-name="amacron" unicode="&#x101;" horiz-adv-x="481" 
d="M30 0zM354.5 431.5q45.5 -44.5 44.5 -130.5l-1 -198q0 -22 -3 -54l65 3v-52h-137q-4 21 -8 50q-67 -65 -142 -65q-68 0 -105.5 32.5t-37.5 83.5q0 55 43 92.5t108.5 56t131.5 18.5v42q0 59 -17 91t-72 32q-26 0 -51.5 -12.5t-37.5 -32.5q7 -7 9 -14t2 -20
q0 -16 -11.5 -31t-33.5 -15q-19 0 -31 15t-12 37q0 50 49 83t128 33q74 0 119.5 -44.5zM176 193q-61 -26 -61 -77q0 -31 23 -48t56 -17q36 0 63.5 12.5t55.5 38.5q-1 14 -1 42q0 5 0.5 22.5t0.5 56.5q-76 -4 -137 -30zM102 595v60h265v-56z" />
    <glyph glyph-name="Abreve" unicode="&#x102;" horiz-adv-x="626" 
d="M0 0zM645 0h-243v37h3q57 0 57 45q0 16 -11 47l-34 91l-251 -6h3q-12 -33 -34 -104q-9 -30 -24 -66l77 4v-48h-201v37h3q23 -1 37.5 9.5t23.5 28.5t22 55q1 4 11 31l207 560h36l224 -568q27 -72 26 -109l68 4v-48zM331 449l-39 108l-36 -98q-35 -96 -70 -198h215z
M398 835.5q-39 -26.5 -85 -26.5t-85 26.5t-61 76.5l26 12q17 -22 50 -38t70 -16t70 16t50 38l27 -12q-23 -50 -62 -76.5z" />
    <glyph glyph-name="abreve" unicode="&#x103;" horiz-adv-x="481" 
d="M30 0zM354.5 431.5q45.5 -44.5 44.5 -130.5l-1 -198q0 -22 -3 -54l65 3v-52h-137q-4 21 -8 50q-67 -65 -142 -65q-68 0 -105.5 32.5t-37.5 83.5q0 55 43 92.5t108.5 56t131.5 18.5v42q0 59 -17 91t-72 32q-26 0 -51.5 -12.5t-37.5 -32.5q7 -7 9 -14t2 -20
q0 -16 -11.5 -31t-33.5 -15q-19 0 -31 15t-12 37q0 50 49 83t128 33q74 0 119.5 -44.5zM176 193q-61 -26 -61 -77q0 -31 23 -48t56 -17q36 0 63.5 12.5t55.5 38.5q-1 14 -1 42q0 5 0.5 22.5t0.5 56.5q-76 -4 -137 -30zM233 559q-42 0 -79.5 30t-55.5 86l29 15
q16 -29 46 -49.5t63 -20.5t63 21t45 51l27 -12q-44 -121 -138 -121z" />
    <glyph glyph-name="Aogonek" unicode="&#x104;" horiz-adv-x="626" 
d="M469 -55q-37 -35 -37 -82q0 -31 18 -50t44 -19q32 0 65 28l17 -18q-21 -26 -53 -44.5t-66 -18.5q-48 0 -77 28.5t-29 73.5q0 47 40 87.5t103 69.5h-92v37h3q57 0 57 45q0 16 -11 47l-34 91l-251 -6h3q-12 -33 -34 -104q-9 -30 -24 -66l77 4v-48h-201v37h3q23 -1 37.5 9.5
t23.5 28.5t22 55q1 4 11 31l207 560h36l224 -568q27 -72 26 -109l68 4v-48h-81q-58 -20 -95 -55zM331 449l-39 108l-36 -98q-35 -96 -70 -198h215z" />
    <glyph glyph-name="aogonek" unicode="&#x105;" horiz-adv-x="481" 
d="M343 -55q-37 -35 -37 -82q0 -31 18 -50t44 -19q32 0 65 28l17 -18q-21 -26 -53 -44.5t-66 -18.5q-48 0 -77 28.5t-29 73.5q0 47 40 87.5t103 69.5h-45q-4 21 -8 50q-67 -65 -142 -65q-68 0 -105.5 32.5t-37.5 83.5q0 55 43 92.5t108.5 56t131.5 18.5v42q0 59 -17 91
t-72 32q-26 0 -51.5 -12.5t-37.5 -32.5q7 -7 9 -14t2 -20q0 -16 -11.5 -31t-33.5 -15q-19 0 -31 15t-12 37q0 50 49 83t128 33q74 0 119.5 -44.5t44.5 -130.5l-1 -198q0 -22 -3 -54l65 3v-52h-22q-58 -20 -95 -55zM312 144q0 5 0.5 22.5t0.5 56.5q-76 -4 -137 -30t-61 -77
q0 -31 23 -48t56 -17q36 0 63.5 12.5t55.5 38.5q-1 14 -1 42z" />
    <glyph glyph-name="Cacute" unicode="&#x106;" horiz-adv-x="699" 
d="M39 0zM541 17.5q-76 -32.5 -155 -32.5q-101 0 -180 47.5t-123 128.5t-44 178q0 96 40 182t120.5 140t193.5 54q106 0 194 -53l-4 46h68v-236h-50q-10 94 -63 146t-138 52q-69 0 -126 -39t-90 -111.5t-33 -168.5q0 -91 35 -161.5t94.5 -109.5t131.5 -39q67 0 127.5 30
t100.5 87l35 -25q-58 -83 -134 -115.5zM511 893q0 -24 -32 -44l-145 -89l-22 29l126 120q21 18 39 18q10 0 17.5 -4.5t10.5 -8.5q6 -8 6 -21z" />
    <glyph glyph-name="cacute" unicode="&#x107;" horiz-adv-x="503" 
d="M37 0zM375.5 458.5q40.5 -16.5 63 -43.5t22.5 -58q0 -22 -14.5 -38t-36.5 -16t-34 16t-12 31q0 22 13 38q-11 24 -37 32.5t-53 8.5q-64 0 -104.5 -49t-40.5 -138q0 -91 42.5 -147t112.5 -56q42 0 81.5 22.5t61.5 56.5h1l33 -23q-35 -57 -91.5 -86.5t-111.5 -29.5
q-64 0 -117.5 29t-85 83.5t-31.5 127.5q0 64 32 123.5t89 96t127 36.5q50 0 90.5 -16.5zM376 684q0 -21 -21 -43l-112 -106l-28 23l84 135q19 27 41 27q12 0 24 -8q12 -12 12 -28z" />
    <glyph glyph-name="Ccaron" unicode="&#x10c;" horiz-adv-x="699" 
d="M39 0zM541 17.5q-76 -32.5 -155 -32.5q-101 0 -180 47.5t-123 128.5t-44 178q0 96 40 182t120.5 140t193.5 54q106 0 194 -53l-4 46h68v-236h-50q-10 94 -63 146t-138 52q-69 0 -126 -39t-90 -111.5t-33 -168.5q0 -91 35 -161.5t94.5 -109.5t131.5 -39q67 0 127.5 30
t100.5 87l35 -25q-58 -83 -134 -115.5zM397 780h-2l-184 141l22 34l168 -88l170 90l20 -32z" />
    <glyph glyph-name="ccaron" unicode="&#x10d;" horiz-adv-x="503" 
d="M37 0zM375.5 458.5q40.5 -16.5 63 -43.5t22.5 -58q0 -22 -14.5 -38t-36.5 -16t-34 16t-12 31q0 22 13 38q-11 24 -37 32.5t-53 8.5q-64 0 -104.5 -49t-40.5 -138q0 -91 42.5 -147t112.5 -56q42 0 81.5 22.5t61.5 56.5h1l33 -23q-35 -57 -91.5 -86.5t-111.5 -29.5
q-64 0 -117.5 29t-85 83.5t-31.5 127.5q0 64 32 123.5t89 96t127 36.5q50 0 90.5 -16.5zM271 528h-2l-149 163l27 32l127 -109h2l129 111l25 -29z" />
    <glyph glyph-name="Dcaron" unicode="&#x10e;" horiz-adv-x="745" 
d="M48 0zM508.5 663q93.5 -39 145.5 -118.5t52 -197.5q0 -93 -44.5 -172t-132.5 -127t-211 -48h-270v37h3q34 0 48 14.5t16 34.5t2 72v428q0 40 3 70l-72 -4v48l243 1q124 1 217.5 -38zM460.5 82q63.5 40 98.5 110.5t35 158.5q0 147 -78.5 228t-235.5 81q-28 0 -41 -10
t-17 -28t-4 -50v-30v-422q0 -50 -3 -76h-3q34 -2 103 -2q82 0 145.5 40zM362 780h-2l-184 141l22 34l168 -88l170 90l20 -32z" />
    <glyph glyph-name="dcaron" unicode="&#x10f;" horiz-adv-x="663" 
d="M673 718q0 -42 -23 -84.5t-60 -79.5l-26 20q37 71 37 133q0 35 -9 68l69 -13q12 -25 12 -44zM471 41l65 3v-50h-142q-6 31 -7 41q-28 -26 -65 -41t-79 -15q-58 0 -105 29t-74 83t-27 124q0 74 31.5 133.5t87.5 93t125 33.5q26 0 54.5 -6.5t48.5 -16.5v116q0 32 2 53
l-64 -3v50h1q59 0 81.5 6t34.5 18h35v-596q0 -23 -3 -55zM383 140l1 258q-40 30 -98 30q-64 0 -103.5 -52t-39.5 -139q0 -91 34.5 -146t98.5 -55q29 0 58 15.5t50 40.5q-1 15 -1 48z" />
    <glyph glyph-name="Dcroat" unicode="&#x110;" horiz-adv-x="746" 
d="M19 0zM509.5 663q93.5 -39 145.5 -118.5t52 -197.5q0 -93 -44.5 -172t-132.5 -127t-211 -48h-270v37h3q34 0 48 14.5t16 34.5t2 72v177h-99v42h99v209q0 40 3 70l-72 -4v48l243 1q124 1 217.5 -38zM461.5 82q63.5 40 98.5 110.5t35 158.5q0 147 -78.5 228t-235.5 81
q-28 0 -41 -10t-17 -28t-4 -50v-30v-165h174v-42h-174v-215q0 -50 -3 -76h-3q34 -2 103 -2q82 0 145.5 40z" />
    <glyph glyph-name="dcroat" unicode="&#x111;" horiz-adv-x="598" 
d="M471 41l65 3v-50h-142q-6 31 -7 41q-28 -26 -65 -41t-79 -15q-58 0 -105 29t-74 83t-27 124q0 74 31.5 133.5t87.5 93t125 33.5q26 0 54.5 -6.5t48.5 -16.5v116v16l-129 -1v45h67v40h1q59 0 81.5 6t34.5 18h35v-64h105v-42l-105 -1v-489q0 -23 -3 -55zM383 140l1 258
q-40 30 -98 30q-64 0 -103.5 -52t-39.5 -139q0 -91 34.5 -146t98.5 -55q29 0 58 15.5t50 40.5q-1 15 -1 48z" />
    <glyph glyph-name="Emacron" unicode="&#x112;" horiz-adv-x="622" 
d="M48 0zM578 0h-530v37h3q34 0 48 14.5t16 34.5t2 72v428q0 40 3 70l-72 -4v48h495l5 -179h-47q1 83 -32.5 112.5t-95.5 27.5l-86 -2q-33 -1 -47.5 -13t-18 -34t-3.5 -70v-156l174 -1l-7 86h58v-214h-47q0 38 -7.5 57t-24 25.5t-48.5 6.5l-32 -1l-66 -3v-225q0 -50 -3 -76
l184 3q68 1 103 35t34 120h48zM194 840v60h265v-56z" />
    <glyph glyph-name="emacron" unicode="&#x113;" horiz-adv-x="512" 
d="M38 0zM383 7q-59 -28 -114 -28q-65 0 -117.5 30.5t-83 87t-30.5 129.5q0 65 30.5 122.5t85 92t122.5 34.5q55 0 99 -24t69.5 -72t24.5 -117h-1l-326 -5h1q1 -105 37 -162t111 -57q44 0 88.5 22t66.5 54h2l30 -24q-36 -55 -95 -83zM191.5 399q-32.5 -29 -44.5 -92h225
q-1 51 -24.5 86t-70.5 35q-53 0 -85.5 -29zM130 595v60h265v-56z" />
    <glyph glyph-name="Edotaccent" unicode="&#x116;" horiz-adv-x="622" 
d="M48 0zM578 0h-530v37h3q34 0 48 14.5t16 34.5t2 72v428q0 40 3 70l-72 -4v48h495l5 -179h-47q1 83 -32.5 112.5t-95.5 27.5l-86 -2q-33 -1 -47.5 -13t-18 -34t-3.5 -70v-156l174 -1l-7 86h58v-214h-47q0 38 -7.5 57t-24 25.5t-48.5 6.5l-32 -1l-66 -3v-225q0 -50 -3 -76
l184 3q68 1 103 35t34 120h48zM369 914q17 -19 17 -46q0 -26 -18 -45t-41 -19t-40.5 19t-17.5 45q0 27 18 46t41 19q24 0 41 -19z" />
    <glyph glyph-name="edotaccent" unicode="&#x117;" horiz-adv-x="512" 
d="M38 0zM383 7q-59 -28 -114 -28q-65 0 -117.5 30.5t-83 87t-30.5 129.5q0 65 30.5 122.5t85 92t122.5 34.5q55 0 99 -24t69.5 -72t24.5 -117h-1l-326 -5h1q1 -105 37 -162t111 -57q44 0 88.5 22t66.5 54h2l30 -24q-36 -55 -95 -83zM191.5 399q-32.5 -29 -44.5 -92h225
q-1 51 -24.5 86t-70.5 35q-53 0 -85.5 -29zM305 669q17 -19 17 -46q0 -26 -18 -45t-41 -19t-40.5 19t-17.5 45q0 27 18 46t41 19q24 0 41 -19z" />
    <glyph glyph-name="Eogonek" unicode="&#x118;" horiz-adv-x="622" 
d="M462 -54.5q-33 -33.5 -33 -77.5q0 -31 18 -50t44 -19q32 0 65 28l17 -18q-21 -26 -53 -44.5t-66 -18.5q-48 0 -77 28.5t-29 73.5t37 84.5t95 67.5h-432v37h3q34 0 48 14.5t16 34.5t2 72v428q0 40 3 70l-72 -4v48h495l5 -179h-47q1 83 -32.5 112.5t-95.5 27.5l-86 -2
q-33 -1 -47.5 -13t-18 -34t-3.5 -70v-156l174 -1l-7 86h58v-214h-47q0 38 -7.5 57t-24 25.5t-48.5 6.5l-32 -1l-66 -3v-225q0 -50 -3 -76l184 3q68 1 103 35t34 120h48l-6 -199h-30q-53 -21 -86 -54.5z" />
    <glyph glyph-name="eogonek" unicode="&#x119;" horiz-adv-x="512" 
d="M256 -66.5q-23 -29.5 -23 -65.5q0 -31 18 -50t44 -19q32 0 65 28l17 -18q-21 -26 -53 -44.5t-66 -18.5q-48 0 -77 28.5t-29 73.5q0 37 26 71t70 61q-60 5 -108 36.5t-75 86t-27 123.5q0 65 30.5 122.5t85 92t122.5 34.5q55 0 99 -24t69.5 -72t24.5 -117h-1l-326 -5h1
q1 -105 37 -162t111 -57q44 0 88.5 22t66.5 54h2l30 -24q-28 -43 -70.5 -69.5t-89.5 -36.5q-39 -21 -62 -50.5zM191.5 399q-32.5 -29 -44.5 -92h225q-1 51 -24.5 86t-70.5 35q-53 0 -85.5 -29z" />
    <glyph glyph-name="Ecaron" unicode="&#x11a;" horiz-adv-x="622" 
d="M48 0zM578 0h-530v37h3q34 0 48 14.5t16 34.5t2 72v428q0 40 3 70l-72 -4v48h495l5 -179h-47q1 83 -32.5 112.5t-95.5 27.5l-86 -2q-33 -1 -47.5 -13t-18 -34t-3.5 -70v-156l174 -1l-7 86h58v-214h-47q0 38 -7.5 57t-24 25.5t-48.5 6.5l-32 -1l-66 -3v-225q0 -50 -3 -76
l184 3q68 1 103 35t34 120h48zM333 780h-2l-184 141l22 34l168 -88l170 90l20 -32z" />
    <glyph glyph-name="ecaron" unicode="&#x11b;" horiz-adv-x="512" 
d="M38 0zM383 7q-59 -28 -114 -28q-65 0 -117.5 30.5t-83 87t-30.5 129.5q0 65 30.5 122.5t85 92t122.5 34.5q55 0 99 -24t69.5 -72t24.5 -117h-1l-326 -5h1q1 -105 37 -162t111 -57q44 0 88.5 22t66.5 54h2l30 -24q-36 -55 -95 -83zM191.5 399q-32.5 -29 -44.5 -92h225
q-1 51 -24.5 86t-70.5 35q-53 0 -85.5 -29zM259 528h-2l-149 163l27 32l127 -109h2l129 111l25 -29z" />
    <glyph glyph-name="Gbreve" unicode="&#x11e;" horiz-adv-x="761" 
d="M40 0zM747 306h-3q-46 2 -57.5 -33.5t-11.5 -80.5v-155h-34q-39 0 -105 -26q-30 -12 -72 -19t-77 -7q-102 0 -180.5 43t-122.5 122t-44 185q0 96 40.5 183t121 142t193.5 55q51 0 105 -13t95 -36l-4 42h69v-233h-50q-6 93 -63.5 144.5t-144.5 51.5q-68 0 -125.5 -40
t-91 -111.5t-33.5 -161.5q0 -92 33.5 -165.5t92.5 -114.5t135 -41q41 0 84.5 12t80.5 36h-1v214l-70 -4v48h240v-37zM481 835.5q-39 -26.5 -85 -26.5t-85 26.5t-61 76.5l26 12q17 -22 50 -38t70 -16t70 16t50 38l27 -12q-23 -50 -62 -76.5z" />
    <glyph glyph-name="gbreve" unicode="&#x11f;" horiz-adv-x="514" 
d="M31 0zM403 415q23 -22 36.5 -50.5t13.5 -59.5q0 -51 -28 -93t-74.5 -65.5t-98.5 -23.5q-17 0 -32 3q-18 2 -30 2q-29 0 -48 -11.5t-19 -28.5q0 -22 32.5 -29.5t110.5 -10.5q116 -6 175 -38t59 -105q0 -49 -34 -84.5t-87.5 -54t-111.5 -18.5q-120 0 -178 37t-58 91
q0 36 22 64.5t53 43.5q-54 23 -54 73q0 31 22.5 58.5t58.5 37.5q-38 21 -60 56.5t-22 79.5q0 54 29 96.5t75.5 66t96.5 23.5q62 0 115 -32q15 38 46.5 62.5t67.5 24.5q25 0 39.5 -14t14.5 -38q0 -14 -11 -28.5t-31 -14.5q-17 0 -28.5 9t-16.5 22q-30 -7 -45 -51zM327.5 200
q24.5 32 24.5 86q0 62 -26.5 103.5t-75.5 41.5q-47 0 -73.5 -33.5t-26.5 -88.5q0 -65 27.5 -103t77.5 -38q48 0 72.5 32zM114 -113q0 -42 41 -67t111 -25q76 0 120 26.5t44 64.5q0 44 -43 59.5t-130 18.5q-56 2 -94 7q-49 -34 -49 -84zM246 559q-42 0 -79.5 30t-55.5 86
l29 15q16 -29 46 -49.5t63 -20.5t63 21t45 51l27 -12q-44 -121 -138 -121z" />
    <glyph glyph-name="Gcommaaccent" unicode="&#x122;" horiz-adv-x="761" 
d="M40 0zM747 306h-3q-46 2 -57.5 -33.5t-11.5 -80.5v-155h-34q-39 0 -105 -26q-30 -12 -72 -19t-77 -7q-102 0 -180.5 43t-122.5 122t-44 185q0 96 40.5 183t121 142t193.5 55q51 0 105 -13t95 -36l-4 42h69v-233h-50q-6 93 -63.5 144.5t-144.5 51.5q-68 0 -125.5 -40
t-91 -111.5t-33.5 -161.5q0 -92 33.5 -165.5t92.5 -114.5t135 -41q41 0 84.5 12t80.5 36h-1v214l-70 -4v48h240v-37zM471 -104q0 -74 -81 -155l-26 19q34 63 34 112q0 33 -12 68l69 20q16 -31 16 -64z" />
    <glyph glyph-name="gcommaaccent" unicode="&#x123;" horiz-adv-x="553" 
d="M31 0zM403 415q23 -22 36.5 -50.5t13.5 -59.5q0 -51 -28 -93t-74.5 -65.5t-98.5 -23.5q-17 0 -32 3q-18 2 -30 2q-29 0 -48 -11.5t-19 -28.5q0 -22 32.5 -29.5t110.5 -10.5q116 -6 175 -38t59 -105q0 -49 -34 -84.5t-87.5 -54t-111.5 -18.5q-120 0 -178 37t-58 91
q0 36 22 64.5t53 43.5q-54 23 -54 73q0 31 22.5 58.5t58.5 37.5q-38 21 -60 56.5t-22 79.5q0 54 29 96.5t75.5 66t96.5 23.5q62 0 115 -32q15 38 46.5 62.5t67.5 24.5q25 0 39.5 -14t14.5 -38q0 -14 -11 -28.5t-31 -14.5q-17 0 -28.5 9t-16.5 22q-30 -7 -45 -51zM327.5 200
q24.5 32 24.5 86q0 62 -26.5 103.5t-75.5 41.5q-47 0 -73.5 -33.5t-26.5 -88.5q0 -65 27.5 -103t77.5 -38q48 0 72.5 32zM114 -113q0 -42 41 -67t111 -25q76 0 120 26.5t44 64.5q0 44 -43 59.5t-130 18.5q-56 2 -94 7q-49 -34 -49 -84zM212 631q0 74 81 155l26 -19
q-34 -63 -34 -112q0 -33 12 -68l-69 -20q-16 31 -16 64z" />
    <glyph glyph-name="Imacron" unicode="&#x12a;" horiz-adv-x="335" 
d="M38 0zM236 648.5q-14 -14.5 -16 -34.5t-2 -72v-421q0 -50 -3 -77l72 4v-48h-239v37h3q34 0 48 14.5t16 34.5t2 72v428q0 40 3 70l-72 -4v48h239v-37h-3q-34 0 -48 -14.5zM38 840v60h265v-56z" />
    <glyph glyph-name="imacron" unicode="&#x12b;" horiz-adv-x="281" 
d="M3 0zM185 38l63 3v-41h-204v30q29 0 41.5 14.5t15 37t2.5 70.5v228q0 29 4 65l-71 -4v42q59 0 84.5 7t39.5 20h29v-404q0 -45 -4 -68zM3 640v60h265v-56z" />
    <glyph glyph-name="Iogonek" unicode="&#x12e;" horiz-adv-x="335" 
d="M236 648.5q-14 -14.5 -16 -34.5t-2 -72v-421q0 -50 -3 -77l72 4v-48h-12q-58 -20 -95 -55t-37 -82q0 -31 18 -50t44 -19q32 0 65 28l17 -18q-21 -26 -53 -44.5t-66 -18.5q-48 0 -77 28.5t-29 73.5q0 47 40 87.5t103 69.5h-157v37h3q34 0 48 14.5t16 34.5t2 72v428
q0 40 3 70l-72 -4v48h239v-37h-3q-34 0 -48 -14.5z" />
    <glyph glyph-name="iogonek" unicode="&#x12f;" horiz-adv-x="281" 
d="M97.5 623q-17.5 19 -17.5 45q0 27 18 46t41 19q24 0 41 -19t17 -46q0 -26 -18 -45t-41 -19t-40.5 19zM207 -240.5q-32 -18.5 -66 -18.5q-48 0 -77 28.5t-29 73.5t36 84t94 67h-124v39h1q26 -1 37.5 10.5t13.5 31t2 63.5v207q0 23 3 54l-64 -4v50h1q59 0 82 6.5t34 18.5
h35v-374q0 -37 -3 -55l57 2v-19l8 2v-26l-8 -3v-3h-8q-52 -21 -84 -54.5t-32 -76.5q0 -31 18 -50t44 -19q32 0 65 28l17 -18q-21 -26 -53 -44.5z" />
    <glyph glyph-name="Idotaccent" unicode="&#x130;" horiz-adv-x="335" 
d="M48 0zM236 648.5q-14 -14.5 -16 -34.5t-2 -72v-421q0 -50 -3 -77l72 4v-48h-239v37h3q34 0 48 14.5t16 34.5t2 72v428q0 40 3 70l-72 -4v48h239v-37h-3q-34 0 -48 -14.5zM213 914q17 -19 17 -46q0 -26 -18 -45t-41 -19t-40.5 19t-17.5 45q0 27 18 46t41 19q24 0 41 -19z
" />
    <glyph glyph-name="dotlessi" unicode="&#x131;" horiz-adv-x="281" 
d="M185 38l63 3v-41h-204v30q29 0 41.5 14.5t15 37t2.5 70.5v228q0 29 4 65l-71 -4v42q59 0 84.5 7t39.5 20h29v-404q0 -45 -4 -68z" />
    <glyph glyph-name="Kcommaaccent" unicode="&#x136;" horiz-adv-x="683" 
d="M48 0zM685 0h-129q-30 0 -107 99l-120 160q-26 34 -42 52.5t-30 27.5l-39 -1v-217v-27t-1.5 -29t-4.5 -21l75 4v-48h-239v37h3q34 0 48 14.5t16 34.5t2 72v428q0 40 3 70l-72 -4v48h239v-37h-3q-34 0 -48 -14.5t-16 -34.5t-2 -72v-160h63l124 194q34 52 68 81l-59 -2v45
h229v-37q-48 -3 -79 -13.5t-60.5 -38.5t-63.5 -82l-98 -153q26 -16 42.5 -34t40.5 -50l112 -147q38 -50 61.5 -73t40.5 -29t43 -6h3v-37zM422 -104q0 -74 -81 -155l-26 19q34 63 34 112q0 33 -12 68l69 20q16 -31 16 -64z" />
    <glyph glyph-name="kcommaaccent" unicode="&#x137;" horiz-adv-x="501" 
d="M22 0zM499 -6h-89q-17 0 -33.5 12t-34.5 33t-35 43l-34 47q-50 69 -69 88l-31 -2v-119q0 -37 -2 -55l59 2v-49h-200v39h1q27 -1 38 10.5t13 30.5t2 64q0 10 0.5 99.5t0.5 330.5q0 32 2 53l-65 -3v50h1q58 0 80.5 6t36.5 18h33v-430h31l111 115q19 20 39 37l-49 -2v49h180
v-40h-1q-29 -2 -56.5 -17t-44.5 -30t-49 -46l-67 -69q15 -7 25 -17t28 -30l66 -83q27 -36 56.5 -67.5t55.5 -28.5h1v-39zM296 -104q0 -74 -81 -155l-26 19q34 63 34 112q0 33 -12 68l69 20q16 -31 16 -64z" />
    <glyph glyph-name="Lacute" unicode="&#x139;" horiz-adv-x="578" 
d="M48 0zM558 0h-510v37h3q34 0 48 14.5t16 34.5t2 72v428q0 40 3 70l-72 -4v48h239v-37h-3q-34 0 -48 -14.5t-16 -34.5t-2 -72v-425q0 -50 -3 -76l180 3q62 1 91.5 40t29.5 127h48zM303 893q0 -24 -32 -44l-145 -89l-22 29l126 120q21 18 39 18q10 0 17.5 -4.5t10.5 -8.5
q6 -8 6 -21z" />
    <glyph glyph-name="lacute" unicode="&#x13a;" horiz-adv-x="263" 
d="M23 0zM231 -6h-200v39h1q27 -1 38.5 10.5t13.5 31t2 63.5v430q0 32 2 53l-65 -3v50h1q58 0 81.5 6t37.5 18h33l1 -596q0 -31 -4 -55l58 2v-49zM232 867q0 -21 -21 -43l-112 -106l-28 23l84 135q19 27 41 27q12 0 24 -8q12 -12 12 -28z" />
    <glyph glyph-name="Lcommaaccent" unicode="&#x13b;" horiz-adv-x="578" 
d="M48 0zM558 0h-510v37h3q34 0 48 14.5t16 34.5t2 72v428q0 40 3 70l-72 -4v48h239v-37h-3q-34 0 -48 -14.5t-16 -34.5t-2 -72v-425q0 -50 -3 -76l180 3q62 1 91.5 40t29.5 127h48zM363 -104q0 -74 -81 -155l-26 19q34 63 34 112q0 33 -12 68l69 20q16 -31 16 -64z" />
    <glyph glyph-name="lcommaaccent" unicode="&#x13c;" horiz-adv-x="263" 
d="M23 0zM231 -6h-200v39h1q27 -1 38.5 10.5t13.5 31t2 63.5v430q0 32 2 53l-65 -3v50h1q58 0 81.5 6t37.5 18h33l1 -596q0 -31 -4 -55l58 2v-49zM175 -104q0 -74 -81 -155l-26 19q34 63 34 112q0 33 -12 68l69 20q16 -31 16 -64z" />
    <glyph glyph-name="Lcaron" unicode="&#x13d;" horiz-adv-x="578" 
d="M426 641q0 35 -9 68l69 -13q12 -25 12 -44q0 -42 -23 -84.5t-60 -79.5l-26 20q37 71 37 133zM558 0h-510v37h3q34 0 48 14.5t16 34.5t2 72v428q0 40 3 70l-72 -4v48h239v-37h-3q-34 0 -48 -14.5t-16 -34.5t-2 -72v-425q0 -50 -3 -76l180 3q62 1 91.5 40t29.5 127h48z" />
    <glyph glyph-name="lcaron" unicode="&#x13e;" horiz-adv-x="341" 
d="M350 718q0 -42 -23 -84.5t-60 -79.5l-26 20q37 71 37 133q0 35 -9 68l69 -13q12 -25 12 -44zM173 41l58 2v-49h-200v39h1q27 -1 38.5 10.5t13.5 31t2 63.5v430q0 32 2 53l-65 -3v50h1q58 0 81.5 6t37.5 18h33l1 -596q0 -31 -4 -55z" />
    <glyph glyph-name="Lslash" unicode="&#x141;" horiz-adv-x="578" 
d="M558 0h-510v37h3q34 0 48 14.5t16 34.5t2 72v121l-69 -51v56l69 51v251q0 40 3 70l-72 -4v48h239v-37h-3q-34 0 -48 -14.5t-16 -34.5t-2 -72v-133l172 127v-55l-172 -127v-237q0 -50 -3 -76l180 3q62 1 91.5 40t29.5 127h48z" />
    <glyph glyph-name="lslash" unicode="&#x142;" horiz-adv-x="293" 
d="M197 350v-254q0 -31 -4 -55l58 2v-49h-200v39h1q27 -1 38.5 10.5t13.5 31t2 63.5v146l-80 -58v59l80 58v225q0 32 2 53l-65 -3v50h1q58 0 81.5 6t37.5 18h33v-284l80 57v-57z" />
    <glyph glyph-name="Nacute" unicode="&#x143;" horiz-adv-x="762" 
d="M50 0zM726 663h-3q-41 -1 -52.5 -20.5t-11.5 -63.5v-37l-2 -558h-60l-423 564l3 -407q0 -65 -2 -97l72 4v-48h-197v37h3q38 -1 50.5 21.5t12.5 55.5l1 542l-67 -4v48h131l415 -551l1 437q0 40 3 70l-72 -4v48h198v-37zM517 893q0 -24 -32 -44l-145 -89l-22 29l126 120
q21 18 39 18q10 0 17.5 -4.5t10.5 -8.5q6 -8 6 -21z" />
    <glyph glyph-name="nacute" unicode="&#x144;" horiz-adv-x="564" 
d="M32 0zM539 0h-195v41q27 -1 38.5 10.5t13.5 31t2 62.5v120q-1 78 -24 114.5t-77 36.5q-32 0 -64.5 -15.5t-53.5 -40.5q1 -9 1 -32l-1 -225q0 -37 -2 -54l57 2v-51h-195v41q27 -1 38 10.5t13 30t3 63.5l1 200q0 34 3 53l-65 -4v52q58 0 78.5 6t33.5 18v1h30v-2
q3 -16 5 -54v2q32 27 71 43t77 16q80 0 119 -51.5t39 -159.5v-162q0 -37 -3 -54l57 2v-51zM398 684q0 -21 -21 -43l-112 -106l-28 23l84 135q19 27 41 27q12 0 24 -8q12 -12 12 -28z" />
    <glyph glyph-name="Ncommaaccent" unicode="&#x145;" horiz-adv-x="762" 
d="M50 0zM726 663h-3q-41 -1 -52.5 -20.5t-11.5 -63.5v-37l-2 -558h-60l-423 564l3 -407q0 -65 -2 -97l72 4v-48h-197v37h3q38 -1 50.5 21.5t12.5 55.5l1 542l-67 -4v48h131l415 -551l1 437q0 40 3 70l-72 -4v48h198v-37zM425 -104q0 -74 -81 -155l-26 19q34 63 34 112
q0 33 -12 68l69 20q16 -31 16 -64z" />
    <glyph glyph-name="ncommaaccent" unicode="&#x146;" horiz-adv-x="564" 
d="M32 0zM539 0h-195v41q27 -1 38.5 10.5t13.5 31t2 62.5v120q-1 78 -24 114.5t-77 36.5q-32 0 -64.5 -15.5t-53.5 -40.5q1 -9 1 -32l-1 -225q0 -37 -2 -54l57 2v-51h-195v41q27 -1 38 10.5t13 30t3 63.5l1 200q0 34 3 53l-65 -4v52q58 0 78.5 6t33.5 18v1h30v-2
q3 -16 5 -54v2q32 27 71 43t77 16q80 0 119 -51.5t39 -159.5v-162q0 -37 -3 -54l57 2v-51zM327 -104q0 -74 -81 -155l-26 19q34 63 34 112q0 33 -12 68l69 20q16 -31 16 -64z" />
    <glyph glyph-name="Ncaron" unicode="&#x147;" horiz-adv-x="762" 
d="M50 0zM726 663h-3q-41 -1 -52.5 -20.5t-11.5 -63.5v-37l-2 -558h-60l-423 564l3 -407q0 -65 -2 -97l72 4v-48h-197v37h3q38 -1 50.5 21.5t12.5 55.5l1 542l-67 -4v48h131l415 -551l1 437q0 40 3 70l-72 -4v48h198v-37zM387 780h-2l-184 141l22 34l168 -88l170 90l20 -32z
" />
    <glyph glyph-name="ncaron" unicode="&#x148;" horiz-adv-x="564" 
d="M32 0zM539 0h-195v41q27 -1 38.5 10.5t13.5 31t2 62.5v120q-1 78 -24 114.5t-77 36.5q-32 0 -64.5 -15.5t-53.5 -40.5q1 -9 1 -32l-1 -225q0 -37 -2 -54l57 2v-51h-195v41q27 -1 38 10.5t13 30t3 63.5l1 200q0 34 3 53l-65 -4v52q58 0 78.5 6t33.5 18v1h30v-2
q3 -16 5 -54v2q32 27 71 43t77 16q80 0 119 -51.5t39 -159.5v-162q0 -37 -3 -54l57 2v-51zM293 528h-2l-149 163l27 32l127 -109h2l129 111l25 -29z" />
    <glyph glyph-name="Omacron" unicode="&#x14c;" horiz-adv-x="794" 
d="M39 0zM594 661q82 -55 122.5 -139.5t40.5 -171.5t-40 -171.5t-120.5 -139.5t-194.5 -55q-123 0 -204.5 53.5t-120 137t-38.5 175.5q0 88 40 172t120.5 139t194.5 55q118 0 200 -55zM261 628q-54 -44 -82 -114t-28 -146q0 -79 28.5 -157t86 -130t138.5 -52
q75 0 129.5 43.5t82 113t27.5 145.5q0 84 -30.5 162.5t-88 128.5t-133.5 50t-130 -44zM256 840v60h265v-56z" />
    <glyph glyph-name="omacron" unicode="&#x14d;" horiz-adv-x="497" 
d="M31 0zM374.5 445q52.5 -31 82.5 -85.5t30 -121.5q0 -72 -30 -131.5t-82 -94t-117 -34.5q-64 0 -116 30.5t-81.5 85t-29.5 122.5q0 73 29.5 132.5t81.5 93.5t116 34t116.5 -31zM157.5 375q-33.5 -53 -33.5 -132q0 -90 36.5 -152t104.5 -62t99 51.5t31 131.5
q0 89 -34.5 152.5t-102.5 63.5q-67 0 -100.5 -53zM128 595v60h265v-56z" />
    <glyph glyph-name="Ohungarumlaut" unicode="&#x150;" horiz-adv-x="794" 
d="M39 0zM594 661q82 -55 122.5 -139.5t40.5 -171.5t-40 -171.5t-120.5 -139.5t-194.5 -55q-123 0 -204.5 53.5t-120 137t-38.5 175.5q0 88 40 172t120.5 139t194.5 55q118 0 200 -55zM261 628q-54 -44 -82 -114t-28 -146q0 -79 28.5 -157t86 -130t138.5 -52
q75 0 129.5 43.5t82 113t27.5 145.5q0 84 -30.5 162.5t-88 128.5t-133.5 50t-130 -44zM414 888q0 -19 -17 -33l-92 -83l-26 19l61 107q16 27 39 27q13 0 23 -10q12 -12 12 -27zM538 912q19 0 31 -19q5 -10 5 -20q0 -12 -6.5 -22.5t-16.5 -14.5l-137 -64l-14 26l110 102
q12 12 28 12z" />
    <glyph glyph-name="ohungarumlaut" unicode="&#x151;" horiz-adv-x="497" 
d="M31 0zM374.5 445q52.5 -31 82.5 -85.5t30 -121.5q0 -72 -30 -131.5t-82 -94t-117 -34.5q-64 0 -116 30.5t-81.5 85t-29.5 122.5q0 73 29.5 132.5t81.5 93.5t116 34t116.5 -31zM157.5 375q-33.5 -53 -33.5 -132q0 -90 36.5 -152t104.5 -62t99 51.5t31 131.5
q0 89 -34.5 152.5t-102.5 63.5q-67 0 -100.5 -53zM284 696q0 -17 -16 -39l-87 -107l-29 18l56 128q16 34 41 34q10 0 21 -7q14 -10 14 -27zM443 684q0 -25 -23 -41l-146 -100l-19 26l121 132q16 16 34 16q16 0 27 -14q6 -9 6 -19z" />
    <glyph glyph-name="OE" unicode="&#x152;" horiz-adv-x="1022" 
d="M524 700h412l5 -175h-33q0 82 -35.5 112t-99.5 28l-86 -2q-36 -1 -52 -13.5t-20 -35t-4 -70.5v-161h190l-8 86h45v-210h-33q0 37 -9 56.5t-27.5 26t-51.5 6.5l-31 -1l-75 -4v-222q0 -52 -3 -78l192 -6q143 -5 143 158h34l-6 -195h-447q-77 -16 -139 -16q-103 0 -180 44.5
t-118 122.5t-41 178q0 99 38.5 186t118 142.5t194.5 58.5q56 0 127 -16zM270.5 634.5q-58.5 -39.5 -92.5 -113t-34 -172.5q0 -95 34 -166.5t95.5 -111t140.5 -39.5q52 0 110 16v603q-51 23 -124 23q-71 0 -129.5 -39.5z" />
    <glyph glyph-name="oe" unicode="&#x153;" horiz-adv-x="883" 
d="M781 459q52 -57 52 -165l-326 -6q0 -253 155 -253q45 0 88.5 23.5t68.5 59.5l25 -20q-39 -58 -94.5 -86t-111.5 -28q-60 0 -109 26.5t-76 75.5h-1q-30 -48 -75 -75t-100 -27q-69 0 -122.5 32.5t-83.5 90.5t-30 131q0 79 29.5 142t83 99.5t123.5 36.5q117 0 182 -106h1
q30 48 78 77t105 29q86 0 138 -57zM175.5 418q-32.5 -60 -32.5 -151q0 -103 35 -173t106 -70q130 0 130 224q-4 102 -37 166t-99 64q-70 0 -102.5 -60zM510 330h229q-2 65 -26 106t-79 41q-102 0 -124 -147z" />
    <glyph glyph-name="Racute" unicode="&#x154;" horiz-adv-x="628" 
d="M48 0zM549.5 76q14.5 -18 35 -29t50.5 -10v-37h-137q-28 24 -46.5 48t-44.5 64l-67 105q-2 4 -5.5 9.5t-7.5 12.5q-3 4 -19 29.5t-33 42.5q-8 -1 -24 -1q-22 0 -33 1v-190q0 -50 -3 -77l72 4v-48h-239v37h3q34 0 48 14.5t16 34.5t2 72v428q0 40 3 70l-72 -4v48h3
q104 2 160 2q49 0 73 -1q279 -4 279 -181q1 -68 -41 -122t-147 -77h2q18 -14 31.5 -32.5t35.5 -52.5l68 -105q23 -37 37.5 -55zM401 387.5q51 35.5 51 121.5q0 77 -41.5 113.5t-130.5 36.5q-28 0 -41 -10t-17 -27.5t-4 -49.5v-30v-188h-3q30 -2 41 -2q94 0 145 35.5z
M436 893q0 -24 -32 -44l-145 -89l-22 29l126 120q21 18 39 18q10 0 17.5 -4.5t10.5 -8.5q6 -8 6 -21z" />
    <glyph glyph-name="racute" unicode="&#x155;" horiz-adv-x="408" 
d="M33 0zM384.5 459q20.5 -16 20.5 -47q0 -16 -13 -33t-36 -17q-21 0 -35.5 15.5t-14.5 35.5q-33 -1 -65.5 -27.5t-54.5 -67.5v-222q0 -37 -3 -55l58 2v-49h-200v39h1q26 -1 37.5 10.5t13.5 31t2 63.5v207q0 35 3 54l-65 -3v49h34q35 0 50 6t29 19h33q4 -32 5 -79
q26 34 67 59t84 25q29 0 49.5 -16zM342 684q0 -21 -21 -43l-112 -106l-28 23l84 135q19 27 41 27q12 0 24 -8q12 -12 12 -28z" />
    <glyph glyph-name="Rcommaaccent" unicode="&#x156;" horiz-adv-x="628" 
d="M48 0zM549.5 76q14.5 -18 35 -29t50.5 -10v-37h-137q-28 24 -46.5 48t-44.5 64l-67 105q-2 4 -5.5 9.5t-7.5 12.5q-3 4 -19 29.5t-33 42.5q-8 -1 -24 -1q-22 0 -33 1v-190q0 -50 -3 -77l72 4v-48h-239v37h3q34 0 48 14.5t16 34.5t2 72v428q0 40 3 70l-72 -4v48h3
q104 2 160 2q49 0 73 -1q279 -4 279 -181q1 -68 -41 -122t-147 -77h2q18 -14 31.5 -32.5t35.5 -52.5l68 -105q23 -37 37.5 -55zM401 387.5q51 35.5 51 121.5q0 77 -41.5 113.5t-130.5 36.5q-28 0 -41 -10t-17 -27.5t-4 -49.5v-30v-188h-3q30 -2 41 -2q94 0 145 35.5z
M378 -104q0 -74 -81 -155l-26 19q34 63 34 112q0 33 -12 68l69 20q16 -31 16 -64z" />
    <glyph glyph-name="rcommaaccent" unicode="&#x157;" horiz-adv-x="408" 
d="M33 0zM384.5 459q20.5 -16 20.5 -47q0 -16 -13 -33t-36 -17q-21 0 -35.5 15.5t-14.5 35.5q-33 -1 -65.5 -27.5t-54.5 -67.5v-222q0 -37 -3 -55l58 2v-49h-200v39h1q26 -1 37.5 10.5t13.5 31t2 63.5v207q0 35 3 54l-65 -3v49h34q35 0 50 6t29 19h33q4 -32 5 -79
q26 34 67 59t84 25q29 0 49.5 -16zM250 -104q0 -74 -81 -155l-26 19q34 63 34 112q0 33 -12 68l69 20q16 -31 16 -64z" />
    <glyph glyph-name="Rcaron" unicode="&#x158;" horiz-adv-x="628" 
d="M48 0zM549.5 76q14.5 -18 35 -29t50.5 -10v-37h-137q-28 24 -46.5 48t-44.5 64l-67 105q-2 4 -5.5 9.5t-7.5 12.5q-3 4 -19 29.5t-33 42.5q-8 -1 -24 -1q-22 0 -33 1v-190q0 -50 -3 -77l72 4v-48h-239v37h3q34 0 48 14.5t16 34.5t2 72v428q0 40 3 70l-72 -4v48h3
q104 2 160 2q49 0 73 -1q279 -4 279 -181q1 -68 -41 -122t-147 -77h2q18 -14 31.5 -32.5t35.5 -52.5l68 -105q23 -37 37.5 -55zM401 387.5q51 35.5 51 121.5q0 77 -41.5 113.5t-130.5 36.5q-28 0 -41 -10t-17 -27.5t-4 -49.5v-30v-188h-3q30 -2 41 -2q94 0 145 35.5z
M314 780h-2l-184 141l22 34l168 -88l170 90l20 -32z" />
    <glyph glyph-name="rcaron" unicode="&#x159;" horiz-adv-x="408" 
d="M33 0zM384.5 459q20.5 -16 20.5 -47q0 -16 -13 -33t-36 -17q-21 0 -35.5 15.5t-14.5 35.5q-33 -1 -65.5 -27.5t-54.5 -67.5v-222q0 -37 -3 -55l58 2v-49h-200v39h1q26 -1 37.5 10.5t13.5 31t2 63.5v207q0 35 3 54l-65 -3v49h34q35 0 50 6t29 19h33q4 -32 5 -79
q26 34 67 59t84 25q29 0 49.5 -16zM237 528h-2l-149 163l27 32l127 -109h2l129 111l25 -29z" />
    <glyph glyph-name="Sacute" unicode="&#x15a;" horiz-adv-x="567" 
d="M51 0zM171.5 488q22.5 -28 56 -46.5t91.5 -43.5q69 -30 110.5 -54.5t71 -65t29.5 -100.5q0 -55 -28.5 -98.5t-83 -68.5t-129.5 -25q-43 0 -89 11.5t-81 31.5l4 -35h-66l-6 217h53q4 -87 56 -133t133 -46q59 0 98 32.5t39 90.5q0 42 -23 71.5t-57 49t-93 45.5
q-66 29 -107 53t-69 63.5t-28 98.5q0 40 19 80.5t66 69t125 28.5q41 0 85 -10t81 -33l-3 35h65v-224h-50q-4 80 -48 134t-123 54q-57 0 -89 -32.5t-32 -82.5q0 -39 22.5 -67zM394 893q0 -24 -32 -44l-145 -89l-22 29l126 120q21 18 39 18q10 0 17.5 -4.5t10.5 -8.5
q6 -8 6 -21z" />
    <glyph glyph-name="sacute" unicode="&#x15b;" horiz-adv-x="440" 
d="M49 0zM160.5 312.5q28.5 -19.5 87.5 -42.5q49 -19 80.5 -36t53 -45.5t21.5 -69.5q0 -46 -24 -77.5t-62 -47t-80 -15.5q-40 0 -75 10t-61 25l4 -26h-50l-6 168h40q0 -37 17.5 -66.5t48 -46t65.5 -16.5q38 0 67.5 17t29.5 49t-27 50t-85 41q-49 18 -80.5 34.5t-53.5 45.5
t-22 73q0 30 15.5 62t52 54t96.5 22t110 -34l-2 30h49v-172h-39q-3 54 -31 92t-83 38q-40 0 -62.5 -18t-22.5 -45q0 -34 28.5 -53.5zM329 684q0 -21 -21 -43l-112 -106l-28 23l84 135q19 27 41 27q12 0 24 -8q12 -12 12 -28z" />
    <glyph glyph-name="Scedilla" unicode="&#x15e;" horiz-adv-x="567" 
d="M501.5 79.5q-28.5 -43.5 -83 -68.5t-128.5 -25l-20 -60q29 17 68 17q31 0 49 -18t18 -48q0 -53 -60 -80t-136 -38l-6 33q55 10 87.5 29.5t32.5 47.5q0 30 -32 30q-23 0 -45 -15l-34 16l24 90q-66 10 -117 39l4 -35h-66l-6 217h53q4 -87 56 -133t133 -46q59 0 98 32.5
t39 90.5q0 42 -23 71.5t-57 49t-93 45.5q-66 29 -107 53t-69 63.5t-28 98.5q0 40 19 80.5t66 69t125 28.5q41 0 85 -10t81 -33l-3 35h65v-224h-50q-4 80 -48 134t-123 54q-57 0 -89 -32.5t-32 -82.5q0 -39 22.5 -67t56 -46.5t91.5 -43.5q69 -30 110.5 -54.5t71 -65
t29.5 -100.5q0 -55 -28.5 -98.5z" />
    <glyph glyph-name="scedilla" unicode="&#x15f;" horiz-adv-x="440" 
d="M357 18.5q-46 -36.5 -109 -39.5l-18 -53q29 17 68 17q31 0 49 -18t18 -48q0 -53 -60 -80t-136 -38l-6 33q55 10 87.5 29.5t32.5 47.5q0 30 -32 30q-23 0 -45 -15l-34 16l22 82q-50 8 -93 32l4 -26h-50l-6 168h40q0 -37 17.5 -66.5t48 -46t65.5 -16.5q38 0 67.5 17
t29.5 49t-27 50t-85 41q-49 18 -80.5 34.5t-53.5 45.5t-22 73q0 30 15.5 62t52 54t96.5 22t110 -34l-2 30h49v-172h-39q-3 54 -31 92t-83 38q-40 0 -62.5 -18t-22.5 -45q0 -34 28.5 -53.5t87.5 -42.5q49 -19 80.5 -36t53 -45.5t21.5 -69.5q0 -64 -46 -100.5z" />
    <glyph glyph-name="Scaron" unicode="&#x160;" horiz-adv-x="567" 
d="M51 0zM171.5 488q22.5 -28 56 -46.5t91.5 -43.5q69 -30 110.5 -54.5t71 -65t29.5 -100.5q0 -55 -28.5 -98.5t-83 -68.5t-129.5 -25q-43 0 -89 11.5t-81 31.5l4 -35h-66l-6 217h53q4 -87 56 -133t133 -46q59 0 98 32.5t39 90.5q0 42 -23 71.5t-57 49t-93 45.5
q-66 29 -107 53t-69 63.5t-28 98.5q0 40 19 80.5t66 69t125 28.5q41 0 85 -10t81 -33l-3 35h65v-224h-50q-4 80 -48 134t-123 54q-57 0 -89 -32.5t-32 -82.5q0 -39 22.5 -67zM286 780h-2l-184 141l22 34l168 -88l170 90l20 -32z" />
    <glyph glyph-name="scaron" unicode="&#x161;" horiz-adv-x="440" 
d="M49 0zM160.5 312.5q28.5 -19.5 87.5 -42.5q49 -19 80.5 -36t53 -45.5t21.5 -69.5q0 -46 -24 -77.5t-62 -47t-80 -15.5q-40 0 -75 10t-61 25l4 -26h-50l-6 168h40q0 -37 17.5 -66.5t48 -46t65.5 -16.5q38 0 67.5 17t29.5 49t-27 50t-85 41q-49 18 -80.5 34.5t-53.5 45.5
t-22 73q0 30 15.5 62t52 54t96.5 22t110 -34l-2 30h49v-172h-39q-3 54 -31 92t-83 38q-40 0 -62.5 -18t-22.5 -45q0 -34 28.5 -53.5zM224 528h-2l-149 163l27 32l127 -109h2l129 111l25 -29z" />
    <glyph glyph-name="Tcaron" unicode="&#x164;" horiz-adv-x="640" 
d="M15 0zM572 485q-1 64 -11.5 101.5t-37 55.5t-74.5 18h-78l-1 -539q0 -50 -3 -77l83 4v-48h-249v37h3q41 1 53 22t12 67v32l1 501l-96 -1q-58 0 -83 -41t-25 -132h-51l6 215h597l6 -215h-52zM318 780h-2l-184 141l22 34l168 -88l170 90l20 -32z" />
    <glyph glyph-name="tcaron" unicode="&#x165;" horiz-adv-x="366" 
d="M382 729q0 -42 -23 -84.5t-60 -79.5l-26 20q37 71 37 133q0 35 -9 68l69 -13q12 -25 12 -44zM181 519l-1 -58h156v-48l-155 -2l-2 -246q0 -64 14 -93t51 -29q24 0 47.5 14.5t39.5 41.5h2l33 -26q-63 -94 -147 -94q-133 0 -132 174l2 257l-71 -1v52q46 -2 76.5 37t46.5 90
h40v-69z" />
    <glyph glyph-name="Umacron" unicode="&#x16a;" horiz-adv-x="752" 
d="M24 0zM729 663h-3q-34 0 -48.5 -14.5t-16.5 -34.5t-2 -72l-2 -227q-1 -145 -66 -237.5t-210 -92.5q-109 0 -172 38t-90 116t-27 205v198q0 60 4 114l-72 -3v47h238v-37h-3q-42 1 -53.5 -21.5t-11.5 -55.5v-247q0 -135 41 -214t159 -79q100 0 149 70.5t51 193.5l3 276
q0 40 3 70l-71 -4v48h200v-37zM255 840v60h265v-56z" />
    <glyph glyph-name="umacron" unicode="&#x16b;" horiz-adv-x="558" 
d="M21 0zM534 -6h-142q-5 24 -7 49q-31 -28 -70.5 -46t-76.5 -18q-80 0 -118.5 47t-38.5 158v161q0 35 2 54l-62 -3v49h34q37 0 54.5 6.5t28.5 18.5h35v-284q0 -77 21 -112.5t72 -35.5q33 0 64 19t51 47v231q0 39 4 64l-65 -3v49h33q37 0 55 6.5t29 18.5h35l-1 -350
q0 -46 -4 -79l67 3v-50zM134 595v60h265v-56z" />
    <glyph glyph-name="Uring" unicode="&#x16e;" horiz-adv-x="752" 
d="M24 0zM729 663h-3q-34 0 -48.5 -14.5t-16.5 -34.5t-2 -72l-2 -227q-1 -145 -66 -237.5t-210 -92.5q-109 0 -172 38t-90 116t-27 205v198q0 60 4 114l-72 -3v47h238v-37h-3q-42 1 -53.5 -21.5t-11.5 -55.5v-247q0 -135 41 -214t159 -79q100 0 149 70.5t51 193.5l3 276
q0 40 3 70l-71 -4v48h200v-37zM456.5 937q29.5 -24 29.5 -70q0 -42 -30 -69.5t-67 -27.5q-40 0 -69.5 24t-29.5 70q0 42 29.5 69.5t67.5 27.5q40 0 69.5 -24zM355.5 913.5q-12.5 -16.5 -12.5 -43.5q0 -30 13 -49.5t35 -19.5q18 0 30 16t12 43q0 32 -12 51t-33 19
q-20 0 -32.5 -16.5z" />
    <glyph glyph-name="uring" unicode="&#x16f;" horiz-adv-x="558" 
d="M21 0zM534 -6h-142q-5 24 -7 49q-31 -28 -70.5 -46t-76.5 -18q-80 0 -118.5 47t-38.5 158v161q0 35 2 54l-62 -3v49h34q37 0 54.5 6.5t28.5 18.5h35v-284q0 -77 21 -112.5t72 -35.5q33 0 64 19t51 47v231q0 39 4 64l-65 -3v49h33q37 0 55 6.5t29 18.5h35l-1 -350
q0 -46 -4 -79l67 3v-50zM335.5 692q29.5 -24 29.5 -70q0 -42 -30 -69.5t-67 -27.5q-40 0 -69.5 24t-29.5 70q0 42 29.5 69.5t67.5 27.5q40 0 69.5 -24zM234.5 668.5q-12.5 -16.5 -12.5 -43.5q0 -30 13 -49.5t35 -19.5q18 0 30 16t12 43q0 32 -12 51t-33 19
q-20 0 -32.5 -16.5z" />
    <glyph glyph-name="Uhungarumlaut" unicode="&#x170;" horiz-adv-x="752" 
d="M24 0zM729 663h-3q-34 0 -48.5 -14.5t-16.5 -34.5t-2 -72l-2 -227q-1 -145 -66 -237.5t-210 -92.5q-109 0 -172 38t-90 116t-27 205v198q0 60 4 114l-72 -3v47h238v-37h-3q-42 1 -53.5 -21.5t-11.5 -55.5v-247q0 -135 41 -214t159 -79q100 0 149 70.5t51 193.5l3 276
q0 40 3 70l-71 -4v48h200v-37zM413 888q0 -19 -17 -33l-92 -83l-26 19l61 107q16 27 39 27q13 0 23 -10q12 -12 12 -27zM537 912q19 0 31 -19q5 -10 5 -20q0 -12 -6.5 -22.5t-16.5 -14.5l-137 -64l-14 26l110 102q12 12 28 12z" />
    <glyph glyph-name="uhungarumlaut" unicode="&#x171;" horiz-adv-x="558" 
d="M21 0zM534 -6h-142q-5 24 -7 49q-31 -28 -70.5 -46t-76.5 -18q-80 0 -118.5 47t-38.5 158v161q0 35 2 54l-62 -3v49h34q37 0 54.5 6.5t28.5 18.5h35v-284q0 -77 21 -112.5t72 -35.5q33 0 64 19t51 47v231q0 39 4 64l-65 -3v49h33q37 0 55 6.5t29 18.5h35l-1 -350
q0 -46 -4 -79l67 3v-50zM290 696q0 -17 -16 -39l-87 -107l-29 18l56 128q16 34 41 34q10 0 21 -7q14 -10 14 -27zM449 684q0 -25 -23 -41l-146 -100l-19 26l121 132q16 16 34 16q16 0 27 -14q6 -9 6 -19z" />
    <glyph glyph-name="Uogonek" unicode="&#x172;" horiz-adv-x="752" 
d="M729 663h-3q-34 0 -48.5 -14.5t-16.5 -34.5t-2 -72l-2 -227q-1 -110 -38.5 -192t-120.5 -117v-1q-58 -20 -95 -55t-37 -82q0 -31 18 -50t44 -19q32 0 65 28l17 -18q-21 -26 -53 -44.5t-66 -18.5q-48 0 -77 28.5t-29 73.5q0 39 28 74t76 63h-8q-109 0 -172 38t-90 116
t-27 205v198q0 60 4 114l-72 -3v47h238v-37h-3q-42 1 -53.5 -21.5t-11.5 -55.5v-247q0 -135 41 -214t159 -79q100 0 149 70.5t51 193.5l3 276q0 40 3 70l-71 -4v48h200v-37z" />
    <glyph glyph-name="uogonek" unicode="&#x173;" horiz-adv-x="558" 
d="M487 -240.5q-32 -18.5 -66 -18.5q-48 0 -77 28.5t-29 73.5t36 84t94 67h-53q-5 24 -7 49q-31 -28 -70.5 -46t-76.5 -18q-80 0 -118.5 47t-38.5 158v161q0 35 2 54l-62 -3v49h34q37 0 54.5 6.5t28.5 18.5h35v-284q0 -77 21 -112.5t72 -35.5q33 0 64 19t51 47v231
q0 39 4 64l-65 -3v49h33q37 0 55 6.5t29 18.5h35l-1 -350q0 -46 -4 -79l67 3v-50h-22q-52 -21 -84 -54.5t-32 -76.5q0 -31 18 -50t44 -19q32 0 65 28l17 -18q-21 -26 -53 -44.5z" />
    <glyph glyph-name="Ydieresis" unicode="&#x178;" horiz-adv-x="634" 
d="M0 0zM651 663h-3q-46 -1 -76.5 -29.5t-68.5 -98.5l-125 -235l-2 -176q1 -50 -2 -80l83 4v-48h-249v37h3q41 1 53 22t12 67v32l1 112l-173 272q-46 73 -54 112l-63 -2v48h272v-37h-3q-76 1 -76 -42q0 -25 25 -64q79 -126 136 -208q5 10 77 145l47 88q2 4 15.5 28.5
t30.5 44.5l-78 -3v48h218v-37zM283.5 912.5q14.5 -17.5 14.5 -42.5q0 -24 -15 -41.5t-35 -17.5t-35 17t-15 42q0 24 15 42t35 18q21 0 35.5 -17.5zM450.5 912.5q14.5 -17.5 14.5 -42.5q0 -24 -15 -41.5t-35 -17.5t-35 17t-15 42q0 24 15 42t35 18q21 0 35.5 -17.5z" />
    <glyph glyph-name="Zacute" unicode="&#x179;" horiz-adv-x="624" 
d="M43 0zM570 0h-527v48l40 56q77 107 150.5 214t165.5 254q36 57 62 87l-247 -4q-57 -2 -84 -41.5t-27 -124.5h-48l6 211h510v-37l-360 -542q-39 -57 -65 -80l234 4q68 1 108.5 41.5t39.5 122.5h48zM434 893q0 -24 -32 -44l-145 -89l-22 29l126 120q21 18 39 18
q10 0 17.5 -4.5t10.5 -8.5q6 -8 6 -21z" />
    <glyph glyph-name="zacute" unicode="&#x17a;" horiz-adv-x="482" 
d="M36 0zM172 84q-3 -4 -13 -16.5t-24 -24.5h-1l164 -2q53 -1 75.5 32.5t31.5 97.5h37l-12 -177h-394v46l259 328q33 40 42 49l-159 -3q-46 -1 -64 -32.5t-27 -95.5h-38l12 175h374v-39zM351 684q0 -21 -21 -43l-112 -106l-28 23l84 135q19 27 41 27q12 0 24 -8
q12 -12 12 -28z" />
    <glyph glyph-name="Zdotaccent" unicode="&#x17b;" horiz-adv-x="624" 
d="M43 0zM570 0h-527v48l40 56q77 107 150.5 214t165.5 254q36 57 62 87l-247 -4q-57 -2 -84 -41.5t-27 -124.5h-48l6 211h510v-37l-360 -542q-39 -57 -65 -80l234 4q68 1 108.5 41.5t39.5 122.5h48zM354 914q17 -19 17 -46q0 -26 -18 -45t-41 -19t-40.5 19t-17.5 45
q0 27 18 46t41 19q24 0 41 -19z" />
    <glyph glyph-name="zdotaccent" unicode="&#x17c;" horiz-adv-x="482" 
d="M36 0zM172 84q-3 -4 -13 -16.5t-24 -24.5h-1l164 -2q53 -1 75.5 32.5t31.5 97.5h37l-12 -177h-394v46l259 328q33 40 42 49l-159 -3q-46 -1 -64 -32.5t-27 -95.5h-38l12 175h374v-39zM292 669q17 -19 17 -46q0 -26 -18 -45t-41 -19t-40.5 19t-17.5 45q0 27 18 46t41 19
q24 0 41 -19z" />
    <glyph glyph-name="Zcaron" unicode="&#x17d;" horiz-adv-x="624" 
d="M43 0zM570 0h-527v48l40 56q77 107 150.5 214t165.5 254q36 57 62 87l-247 -4q-57 -2 -84 -41.5t-27 -124.5h-48l6 211h510v-37l-360 -542q-39 -57 -65 -80l234 4q68 1 108.5 41.5t39.5 122.5h48zM320 780h-2l-184 141l22 34l168 -88l170 90l20 -32z" />
    <glyph glyph-name="zcaron" unicode="&#x17e;" horiz-adv-x="482" 
d="M36 0zM172 84q-3 -4 -13 -16.5t-24 -24.5h-1l164 -2q53 -1 75.5 32.5t31.5 97.5h37l-12 -177h-394v46l259 328q33 40 42 49l-159 -3q-46 -1 -64 -32.5t-27 -95.5h-38l12 175h374v-39zM246 528h-2l-149 163l27 32l127 -109h2l129 111l25 -29z" />
    <glyph glyph-name="florin" unicode="&#x192;" horiz-adv-x="343" 
d="M374 746.5q23 -13.5 23 -39.5q0 -18 -10.5 -30t-29.5 -12q-18 0 -29.5 12t-11.5 30q0 7 1 10q-7 4 -22 4q-48 0 -69.5 -55.5t-29.5 -164.5h144l-3 -39l-144 -2q-2 -46 -4 -69q-3 -76 -9 -155l-5 -64q-10 -147 -25.5 -235t-60.5 -148t-133 -60q-33 0 -55 14.5t-22 37.5
q0 21 11 33.5t32 12.5q20 0 31 -15t8 -37q11 -7 29 -7q37 0 56.5 45t27.5 114.5t16 194.5q2 37 8 123l6 81q6 90 11 133l-87 -1l5 43h88q18 123 63.5 191t138.5 68q28 0 51 -13.5z" />
    <glyph glyph-name="Scommaaccent" unicode="&#x218;" horiz-adv-x="567" 
d="M51 0zM171.5 488q22.5 -28 56 -46.5t91.5 -43.5q69 -30 110.5 -54.5t71 -65t29.5 -100.5q0 -55 -28.5 -98.5t-83 -68.5t-129.5 -25q-43 0 -89 11.5t-81 31.5l4 -35h-66l-6 217h53q4 -87 56 -133t133 -46q59 0 98 32.5t39 90.5q0 42 -23 71.5t-57 49t-93 45.5
q-66 29 -107 53t-69 63.5t-28 98.5q0 40 19 80.5t66 69t125 28.5q41 0 85 -10t81 -33l-3 35h65v-224h-50q-4 80 -48 134t-123 54q-57 0 -89 -32.5t-32 -82.5q0 -39 22.5 -67zM348 -104q0 -74 -81 -155l-26 19q34 63 34 112q0 33 -12 68l69 20q16 -31 16 -64z" />
    <glyph glyph-name="scommaaccent" unicode="&#x219;" horiz-adv-x="440" 
d="M49 0zM160.5 312.5q28.5 -19.5 87.5 -42.5q49 -19 80.5 -36t53 -45.5t21.5 -69.5q0 -46 -24 -77.5t-62 -47t-80 -15.5q-40 0 -75 10t-61 25l4 -26h-50l-6 168h40q0 -37 17.5 -66.5t48 -46t65.5 -16.5q38 0 67.5 17t29.5 49t-27 50t-85 41q-49 18 -80.5 34.5t-53.5 45.5
t-22 73q0 30 15.5 62t52 54t96.5 22t110 -34l-2 30h49v-172h-39q-3 54 -31 92t-83 38q-40 0 -62.5 -18t-22.5 -45q0 -34 28.5 -53.5zM308 -104q0 -74 -81 -155l-26 19q34 63 34 112q0 33 -12 68l69 20q16 -31 16 -64z" />
    <glyph glyph-name="Tcommaaccent" unicode="&#x21a;" horiz-adv-x="640" 
d="M15 0zM572 485q-1 64 -11.5 101.5t-37 55.5t-74.5 18h-78l-1 -539q0 -50 -3 -77l83 4v-48h-249v37h3q41 1 53 22t12 67v32l1 501l-96 -1q-58 0 -83 -41t-25 -132h-51l6 215h597l6 -215h-52zM365 -104q0 -74 -81 -155l-26 19q34 63 34 112q0 33 -12 68l69 20
q16 -31 16 -64z" />
    <glyph glyph-name="circumflex" unicode="&#x2c6;" horiz-adv-x="400" 
d="M328 583l-127 109h-2l-129 -102l-25 29l159 159h2l149 -163z" />
    <glyph glyph-name="caron" unicode="&#x2c7;" horiz-adv-x="400" 
d="M196 573h-2l-149 163l27 32l127 -109h2l129 111l25 -29z" />
    <glyph glyph-name="uni02C9" unicode="&#x2c9;" horiz-adv-x="293" 
d="M11 598zM11 598v60h265v-56z" />
    <glyph glyph-name="breve" unicode="&#x2d8;" horiz-adv-x="363" 
d="M180 604q-42 0 -79.5 30t-55.5 86l29 15q16 -29 46 -49.5t63 -20.5t63 21t45 51l27 -12q-44 -121 -138 -121z" />
    <glyph glyph-name="dotaccent" unicode="&#x2d9;" horiz-adv-x="198" 
d="M141 714q17 -19 17 -46q0 -26 -18 -45t-41 -19t-40.5 19t-17.5 45q0 27 18 46t41 19q24 0 41 -19z" />
    <glyph glyph-name="ring" unicode="&#x2da;" horiz-adv-x="318" 
d="M227.5 737q29.5 -24 29.5 -70q0 -42 -30 -69.5t-67 -27.5q-40 0 -69.5 24t-29.5 70q0 42 29.5 69.5t67.5 27.5q40 0 69.5 -24zM126.5 713.5q-12.5 -16.5 -12.5 -43.5q0 -30 13 -49.5t35 -19.5q18 0 30 16t12 43q0 32 -12 51t-33 19q-20 0 -32.5 -16.5z" />
    <glyph glyph-name="ogonek" unicode="&#x2db;" horiz-adv-x="315" 
d="M163 -55q-37 -35 -37 -82q0 -31 18 -50t44 -19q32 0 65 28l17 -18q-21 -26 -53 -44.5t-66 -18.5q-48 0 -77 28.5t-29 73.5q0 60 63.5 109.5t149.5 73.5v-26q-58 -20 -95 -55z" />
    <glyph glyph-name="tilde" unicode="&#x2dc;" horiz-adv-x="406" 
d="M178.5 719q16.5 -8 37.5 -22q16 -12 28 -17.5t25 -5.5q22 0 41.5 13t31.5 35l29 -15q-15 -46 -44 -70.5t-58 -24.5q-23 0 -41 8t-42 24q-16 11 -26.5 16.5t-21.5 5.5q-20 0 -40 -10.5t-33 -31.5l-30 17q13 36 44.5 61t60.5 25q22 0 38.5 -8z" />
    <glyph glyph-name="hungarumlaut" unicode="&#x2dd;" horiz-adv-x="389" 
d="M204 741q0 -17 -16 -39l-87 -107l-29 18l56 128q16 34 41 34q10 0 21 -7q14 -10 14 -27zM363 729q0 -25 -23 -41l-146 -100l-19 26l121 132q16 16 34 16q16 0 27 -14q6 -9 6 -19z" />
    <glyph glyph-name="commaaccent" unicode="&#x326;" 
d="M201 -104q0 -74 -81 -155l-26 19q34 63 34 112q0 33 -12 68l69 20q16 -31 16 -64z" />
    <glyph glyph-name="pi" unicode="&#x3c0;" horiz-adv-x="644" 
d="M452 98q0 -22 10 -33t33.5 -14.5t71.5 -3.5l-4 -26q-97 -31 -141 -31q-58 0 -58 99q2 47 8 140t11 164h-158l-19 -384l-101 -19l48 403h-120l28 71h541l-25 -71h-125v-295z" />
    <glyph glyph-name="candraBindu-deva" unicode="&#x901;" 
d="M50 647zM196 718q58 2 109 73l54 -52q-25 -46 -60 -69t-74 -23q-48 0 -95 32t-80 87l34 28q52 -76 112 -76zM247 828q0 -22 -16 -38q-15 -15 -37 -15q-25 0 -43 18t-18 43q0 22 15 37t38 15q24 0 42 -18q19 -19 19 -42z" />
    <glyph glyph-name="anusvara-deva" unicode="&#x902;" 
d="M174 711q0 -22 -16 -38q-15 -15 -37 -15q-25 0 -43 18t-18 43q0 22 15 37t38 15q24 0 42 -18q19 -19 19 -42z" />
    <glyph glyph-name="visarga-deva" unicode="&#x903;" horiz-adv-x="286" 
d="M46 94zM160 377q0 -22 -16 -38q-15 -15 -37 -15q-25 0 -43 18t-18 43q0 22 15 37t38 15q24 0 42 -18q19 -19 19 -42zM160 147q0 -22 -16 -38q-15 -15 -37 -15q-25 0 -43 18t-18 43q0 22 15 37t38 15q24 0 42 -18q19 -19 19 -42z" />
    <glyph glyph-name="a-deva" unicode="&#x905;" horiz-adv-x="725" 
d="M673 506q-25 0 -37 -18t-12 -47v-495l-79 34v267q-38 -16 -75 -16q-43 0 -97 21q19 -24 29.5 -51.5t10.5 -54.5q0 -37 -18 -68.5t-53 -50.5t-83 -19q-149 0 -249 203l34 17q36 -68 84 -111.5t104 -43.5q44 0 70.5 26t26.5 70q0 37 -19 71t-52 54q-25 -8 -47 -11l-52 -7
l-17 63l68 12q61 11 93 31.5t32 68.5q0 69 -76 69q-68 0 -142 -52l-36 69q35 25 76 38.5t77 13.5q63 0 105.5 -40.5t42.5 -108.5q0 -42 -21 -74t-58 -53q80 -21 135 -21q93 0 107 58v76q0 35 7 80h-109l-28 64h312l28 -64h-82z" />
    <glyph glyph-name="aa-deva" unicode="&#x906;" horiz-adv-x="937" 
d="M885 506q-25 0 -37 -18t-12 -47v-495l-79 34v446q0 34 7 80h-91q-25 0 -37 -18t-12 -47v-495l-79 34v267q-38 -16 -75 -16q-43 0 -97 21q19 -24 29.5 -51.5t10.5 -54.5q0 -37 -18 -68.5t-53 -50.5t-83 -19q-149 0 -249 203l34 17q36 -68 84 -111.5t104 -43.5
q44 0 70.5 26t26.5 70q0 37 -19 71t-52 54q-25 -8 -47 -11l-52 -7l-17 63l68 12q61 11 93 31.5t32 68.5q0 69 -76 69q-68 0 -142 -52l-36 69q35 25 76 38.5t77 13.5q63 0 105.5 -40.5t42.5 -108.5q0 -42 -21 -74t-58 -53q80 -21 135 -21q93 0 107 58v76q0 35 7 80h-109
l-28 64h524l28 -64h-82z" />
    <glyph glyph-name="i-deva" unicode="&#x907;" horiz-adv-x="499" 
d="M170.5 363q-21.5 -17 -21.5 -47q0 -25 12 -40.5t32 -15.5q19 0 54 13q28 9 43.5 12.5t34.5 3.5q55 0 91.5 -43t36.5 -109q0 -59 -25 -101.5t-67 -65t-92 -22.5q-70 0 -132 42l-2 -1q22 -37 48 -65t67 -62l-63 -54q-62 91 -94 150.5t-32 105.5q0 29 15.5 46t39.5 17
q28 0 45 -17t17 -48q0 -7 -2 -19q44 -23 92 -23q58 0 96.5 35t38.5 101q0 29 -13 46.5t-37 17.5q-23 0 -66 -13q-48 -14 -72 -14q-35 0 -71 30.5t-48 79.5q-5 22 -5 42q0 102 157 102q37 0 85 -6q0 36 7 65h-342l-28 64h531l28 -64h-68q-25 0 -37 -18t-12 -47v-54l-178 -6
q-42 -1 -63.5 -18z" />
    <glyph glyph-name="ii-deva" unicode="&#x908;" horiz-adv-x="499" 
d="M170.5 363q-21.5 -17 -21.5 -47q0 -25 12 -40.5t32 -15.5q19 0 54 13q28 9 43.5 12.5t34.5 3.5q55 0 91.5 -43t36.5 -109q0 -59 -25 -101.5t-67 -65t-92 -22.5q-70 0 -132 42l-2 -1q22 -37 48 -65t67 -62l-63 -54q-62 91 -94 150.5t-32 105.5q0 29 15.5 46t39.5 17
q28 0 45 -17t17 -48q0 -7 -2 -19q44 -23 92 -23q58 0 96.5 35t38.5 101q0 29 -13 46.5t-37 17.5q-23 0 -66 -13q-48 -14 -72 -14q-35 0 -71 30.5t-48 79.5q-5 22 -5 42q0 102 157 102q37 0 85 -6q0 36 7 65h-342l-28 64h369q-90 65 -90 152q0 57 38.5 90t97.5 33
q55 0 112 -30l6 -63q-49 25 -92 25q-40 0 -64 -20.5t-24 -56.5q0 -32 18 -62.5t57 -67.5h103l28 -64h-68q-25 0 -37 -18t-12 -47v-54l-178 -6q-42 -1 -63.5 -18z" />
    <glyph glyph-name="u-deva" unicode="&#x909;" horiz-adv-x="439" 
d="M376.5 241q31.5 -47 31.5 -95q0 -37 -18 -68.5t-53 -50.5t-83 -19q-149 0 -249 203l34 17q36 -68 84 -111.5t104 -43.5q44 0 70.5 26t26.5 70q0 37 -19.5 72t-53.5 54q-23 -8 -49 -12l-57 -9l-18 63q92 7 135 35t43 70q0 30 -20 64h-287l-28 64h471l28 -64h-137
q25 -38 25 -80q0 -33 -17 -62t-49 -50q54 -26 85.5 -73z" />
    <glyph glyph-name="uu-deva" unicode="&#x90a;" horiz-adv-x="565" 
d="M576 239q0 -32 -16 -67.5t-50 -70.5l-52 53q33 33 49.5 61t16.5 48q0 15 -10 25q-11 8 -26 8q-22 0 -49.5 -17.5t-52.5 -53.5q22 -39 22 -79q0 -37 -18 -68.5t-53 -50.5t-83 -19q-149 0 -249 203l34 17q36 -68 84 -111.5t104 -43.5q44 0 70.5 26t26.5 70q0 37 -19.5 72
t-53.5 54q-23 -8 -49 -12l-57 -9l-18 63q92 7 135 35t43 70q0 30 -20 64h-287l-28 64h597l28 -64h-263q25 -38 25 -80q0 -33 -17 -62t-49 -50q25 -12 44 -28q64 58 132 58q39 0 74 -23q35 -30 35 -82z" />
    <glyph glyph-name="rVocalic-deva" unicode="&#x90b;" horiz-adv-x="757" 
d="M660 281q68 -101 68 -167q0 -92 -122 -118l-27 70q44 11 66 34t22 56q0 44 -37 100q-37 -26 -86 -42t-101 -18v-250l-79 34v194l-224 -180l-58 61l282 189v3q-139 101 -227 101q-57 0 -106 -23l-33 71q56 34 114 34q50 0 110 -32t142 -97v125q0 35 7 80h-373l-28 64h789
l28 -64h-295q-25 0 -37 -18t-12 -47v-192q92 3 161 46q-19 28 -27 46t-8 33q0 26 17 42t45 16q31 0 51 -19.5t20 -49.5q0 -40 -42 -82z" />
    <glyph glyph-name="lVocalic-deva" unicode="&#x90c;" horiz-adv-x="685" 
d="M549 -25q23 0 51.5 18t60.5 55l45 -50q-29 -33 -63 -49.5t-68 -16.5q-54 0 -93 36q-38 35 -38 83q0 50 42 121q39 65 39 117q0 35 -18 54t-46 19q-40 0 -78.5 -39t-55.5 -112l-78 14q7 60 37 108q-46 26 -90 26q-30 0 -51 -26.5t-21 -66.5q0 -142 122 -225l-21 -39
q-84 45 -139.5 120.5t-55.5 153.5q0 67 34 105t101 38q40 0 74.5 -14.5t69.5 -40.5q47 52 111 56v6q0 51 7 80h-429l-28 64h712l28 -64h-162q-25 0 -37 -18t-12 -47v-32q50 -17 75.5 -57t25.5 -92q0 -69 -40 -129q-52 -77 -52 -116q0 -20 13 -30q12 -10 28 -10z" />
    <glyph glyph-name="eCandra-deva" unicode="&#x90d;" horiz-adv-x="527" 
d="M0 0zM502 506q-25 0 -37 -18t-12 -47v-113q0 -61 -26 -99t-79 -70l-31 40q33 20 45 44t12 72v111q0 51 7 80h-177q-25 0 -37 -18t-12 -47v-181q0 -33 13.5 -51.5t48.5 -41.5l174 -115q42 -28 42 -71q0 -56 -68 -134l-70 51q57 61 57 96q0 23 -25 40l-179 120
q-38 25 -55 56.5t-17 80.5v135q0 51 7 80h-85l-28 64h559l28 -64h-55zM394 713q58 2 109 73l54 -52q-25 -46 -60 -69t-74 -23q-48 0 -95 32t-80 87l34 28q52 -76 112 -76z" />
    <glyph glyph-name="eShort-deva" unicode="&#x90e;" horiz-adv-x="527" 
d="M502 506q-25 0 -37 -18t-12 -47v-113q0 -61 -26 -99t-79 -70l-31 40q33 20 45 44t12 72v111q0 51 7 80h-177q-25 0 -37 -18t-12 -47v-181q0 -33 13.5 -51.5t48.5 -41.5l174 -115q42 -28 42 -71q0 -56 -68 -134l-70 51q57 61 57 96q0 23 -25 40l-179 120q-38 25 -55 56.5
t-17 80.5v135q0 51 7 80h-85l-28 64h425q-12 70 -45 97t-97 27q-20 0 -31 -1l-17 -1q-54 0 -88.5 31t-61.5 104l26 13q24 -46 48.5 -63t58.5 -17q8 0 30 2q27 3 55 3q73 0 117 -40.5t44 -154.5h95l28 -64h-55z" />
    <glyph glyph-name="e-deva" unicode="&#x90f;" horiz-adv-x="527" 
d="M502 506q-25 0 -37 -18t-12 -47v-113q0 -61 -26 -99t-79 -70l-31 40q33 20 45 44t12 72v111q0 51 7 80h-177q-25 0 -37 -18t-12 -47v-181q0 -33 13.5 -51.5t48.5 -41.5l174 -115q42 -28 42 -71q0 -56 -68 -134l-70 51q57 61 57 96q0 23 -25 40l-179 120q-38 25 -55 56.5
t-17 80.5v135q0 51 7 80h-85l-28 64h559l28 -64h-55z" />
    <glyph glyph-name="ai-deva" unicode="&#x910;" horiz-adv-x="527" 
d="M0 0zM502 506q-25 0 -37 -18t-12 -47v-113q0 -61 -26 -99t-79 -70l-31 40q33 20 45 44t12 72v111q0 51 7 80h-177q-25 0 -37 -18t-12 -47v-181q0 -33 13.5 -51.5t48.5 -41.5l174 -115q42 -28 42 -71q0 -56 -68 -134l-70 51q57 61 57 96q0 23 -25 40l-179 120
q-38 25 -55 56.5t-17 80.5v135q0 51 7 80h-85l-28 64h559l28 -64h-55zM268 720.5q-65 47.5 -132 47.5q-31 0 -58 -9q-8 -2 -13 -2q-18 0 -31.5 12.5t-13.5 31.5q0 24 21 37.5t56 13.5q53 0 119.5 -33.5t125.5 -97.5t91 -151h-46q-54 103 -119 150.5z" />
    <glyph glyph-name="oCandra-deva" unicode="&#x911;" horiz-adv-x="937" 
d="M10 0zM885 506q-25 0 -37 -18t-12 -47v-495l-79 34v446q0 34 7 80h-91q-25 0 -37 -18t-12 -47v-495l-79 34v267q-38 -16 -75 -16q-43 0 -97 21q19 -24 29.5 -51.5t10.5 -54.5q0 -37 -18 -68.5t-53 -50.5t-83 -19q-149 0 -249 203l34 17q36 -68 84 -111.5t104 -43.5
q44 0 70.5 26t26.5 70q0 37 -19 71t-52 54q-25 -8 -47 -11l-52 -7l-17 63l68 12q61 11 93 31.5t32 68.5q0 69 -76 69q-68 0 -142 -52l-36 69q35 25 76 38.5t77 13.5q63 0 105.5 -40.5t42.5 -108.5q0 -42 -21 -74t-58 -53q80 -21 135 -21q93 0 107 58v76q0 35 7 80h-109
l-28 64h524l28 -64h-82zM778 713q58 2 109 73l54 -52q-25 -46 -60 -69t-74 -23q-48 0 -95 32t-80 87l34 28q52 -76 112 -76z" />
    <glyph glyph-name="oShort-deva" unicode="&#x912;" horiz-adv-x="937" 
d="M10 0zM885 506q-25 0 -37 -18t-12 -47v-495l-79 34v446q0 34 7 80h-91q-25 0 -37 -18t-12 -47v-495l-79 34v267q-38 -16 -75 -16q-43 0 -97 21q19 -24 29.5 -51.5t10.5 -54.5q0 -37 -18 -68.5t-53 -50.5t-83 -19q-149 0 -249 203l34 17q36 -68 84 -111.5t104 -43.5
q44 0 70.5 26t26.5 70q0 37 -19 71t-52 54q-25 -8 -47 -11l-52 -7l-17 63l68 12q61 11 93 31.5t32 68.5q0 69 -76 69q-68 0 -142 -52l-36 69q35 25 76 38.5t77 13.5q63 0 105.5 -40.5t42.5 -108.5q0 -42 -21 -74t-58 -53q80 -21 135 -21q93 0 107 58v76q0 35 7 80h-109
l-28 64h524l28 -64h-82zM734 666.5q-33 27.5 -97 27.5q-20 0 -31 -1l-17 -1q-54 0 -88.5 31t-61.5 104l26 13q24 -46 48.5 -63t58.5 -17q8 0 30 2q27 3 55 3q73 0 117 -41t44 -155h-39q-12 70 -45 97.5z" />
    <glyph glyph-name="o-deva" unicode="&#x913;" horiz-adv-x="937" 
d="M10 0zM885 506q-25 0 -37 -18t-12 -47v-495l-79 34v446q0 34 7 80h-91q-25 0 -37 -18t-12 -47v-495l-79 34v267q-38 -16 -75 -16q-43 0 -97 21q19 -24 29.5 -51.5t10.5 -54.5q0 -37 -18 -68.5t-53 -50.5t-83 -19q-149 0 -249 203l34 17q36 -68 84 -111.5t104 -43.5
q44 0 70.5 26t26.5 70q0 37 -19 71t-52 54q-25 -8 -47 -11l-52 -7l-17 63l68 12q61 11 93 31.5t32 68.5q0 69 -76 69q-68 0 -142 -52l-36 69q35 25 76 38.5t77 13.5q63 0 105.5 -40.5t42.5 -108.5q0 -42 -21 -74t-58 -53q80 -21 135 -21q93 0 107 58v76q0 35 7 80h-109
l-28 64h524l28 -64h-82zM662 705.5q-65 47.5 -132 47.5q-31 0 -58 -9q-8 -2 -13 -2q-18 0 -31.5 12.5t-13.5 31.5q0 24 21 37.5t56 13.5q53 0 119.5 -33.5t125.5 -97.5t91 -151h-46q-54 103 -119 150.5z" />
    <glyph glyph-name="au-deva" unicode="&#x914;" horiz-adv-x="937" 
d="M10 0zM885 506q-25 0 -37 -18t-12 -47v-495l-79 34v446q0 34 7 80h-91q-25 0 -37 -18t-12 -47v-495l-79 34v267q-38 -16 -75 -16q-43 0 -97 21q19 -24 29.5 -51.5t10.5 -54.5q0 -37 -18 -68.5t-53 -50.5t-83 -19q-149 0 -249 203l34 17q36 -68 84 -111.5t104 -43.5
q44 0 70.5 26t26.5 70q0 37 -19 71t-52 54q-25 -8 -47 -11l-52 -7l-17 63l68 12q61 11 93 31.5t32 68.5q0 69 -76 69q-68 0 -142 -52l-36 69q35 25 76 38.5t77 13.5q63 0 105.5 -40.5t42.5 -108.5q0 -42 -21 -74t-58 -53q80 -21 135 -21q93 0 107 58v76q0 35 7 80h-109
l-28 64h524l28 -64h-82zM659.5 819.5q61.5 -37.5 105 -106.5t48.5 -158h-41q-35 47 -70.5 68t-74.5 21q-35 0 -75 -15q-15 -5 -26 -5q-21 0 -34 13t-13 32q0 17 12.5 30.5t34.5 17.5q18 3 37 3q50 0 100 -23t93 -73q-25 75 -70.5 109.5t-93.5 34.5q-25 0 -42 -7
q-9 -4 -23 -4q-22 0 -38 13.5t-16 34.5q0 24 18.5 38t51.5 14q55 0 116.5 -37.5z" />
    <glyph glyph-name="ka-deva" unicode="&#x915;" horiz-adv-x="728" 
d="M664 384q37 -41 37 -120q0 -64 -28.5 -119.5t-79.5 -88.5l-48 71q50 30 76.5 77.5t26.5 85.5q0 37 -16 56t-44 19q-35 0 -77 -23t-84 -71v-325l-79 34v199q-34 -32 -72.5 -48t-76.5 -16q-42 0 -77.5 23.5t-56.5 64t-21 88.5q0 76 44 114t116 38q77 0 144 -41v24
q0 34 7 80h-357l-28 64h760l28 -64h-282q-25 0 -37 -18t-12 -47v-87q31 34 69 52.5t75 18.5q56 0 93 -41zM269.5 202q42.5 21 78.5 58v72q-65 36 -140 36q-48 0 -80 -26t-32 -76q0 -46 24.5 -65.5t69.5 -19.5q37 0 79.5 21z" />
    <glyph glyph-name="kha-deva" unicode="&#x916;" horiz-adv-x="728" 
d="M676 506q-25 0 -37 -18t-12 -47v-495l-79 34v90q-109 -55 -219 -55q-99 0 -166.5 38t-100 94.5t-32.5 111.5q0 33 16.5 50t40.5 17q16 0 31.5 -8t26.5 -23q11 25 11 59q0 64 -35 152h-123l-28 64h760l28 -64h-82zM555 506h-375q14 -37 22.5 -81t8.5 -85
q0 -67 -24.5 -111.5t-75.5 -47.5q25 -59 72.5 -82.5t121.5 -23.5q119 0 243 69v45q-54 -28 -93 -28q-49 0 -90.5 24.5t-66.5 64t-25 82.5q0 58 37 92t98 34q37 0 71 -13.5t69 -34.5v16q0 35 7 80zM442 391q-45 0 -73.5 -26t-28.5 -77q0 -26 16.5 -46.5t50.5 -20.5
q35 0 74 16t67 42v81q-54 31 -106 31z" />
    <glyph glyph-name="ga-deva" unicode="&#x917;" horiz-adv-x="524" 
d="M476 506q-25 0 -37 -18t-12 -47v-495l-79 34v446q0 35 7 80h-173q21 -42 33 -98.5t12 -114.5q0 -91 -25.5 -151t-78.5 -60q-37 0 -61.5 27t-24.5 65q0 41 59 41q14 0 22 -1q40 29 40 109q0 48 -15 98.5t-39 84.5h-106l-28 64h556l28 -64h-78z" />
    <glyph glyph-name="gha-deva" unicode="&#x918;" horiz-adv-x="574" 
d="M555 506q-25 0 -37 -18t-12 -47v-495l-79 34v156q-75 -65 -163 -65q-50 0 -87 21.5t-57 55.5t-20 72q0 49 34 91q-65 43 -65 113q0 49 31 82h-102l-28 64h606l28 -64h-49zM434 506h-149q-77 -1 -114 -29.5t-37 -76.5q0 -32 29 -61q47 36 107 48l22 -67
q-53 -11 -84.5 -50.5t-31.5 -80.5q0 -31 19.5 -51t57.5 -20q99 0 174 143v165q0 35 7 80z" />
    <glyph glyph-name="nga-deva" unicode="&#x919;" horiz-adv-x="594" 
d="M415 387l-178 -5q-45 -1 -64.5 -15.5t-19.5 -42.5q0 -24 12 -42t30 -18q12 0 29 4.5t35 9.5q31 9 50.5 13t38.5 4q30 0 54.5 -22.5t38 -59t13.5 -76.5q0 -36 -14 -71t-45.5 -58.5t-80.5 -23.5q-82 0 -159.5 53t-122.5 125l32 22q50 -62 105.5 -93t105.5 -31
q44 0 73.5 18.5t43 44.5t13.5 48q0 35 -26 40q-4 1 -12 1q-13 0 -53 -8q-48 -10 -76 -10q-30 0 -54 10q-36 15 -63 58.5t-27 90.5t31 70.5t83 21.5l128 -3q0 35 7 64h-345l-28 64h626l28 -64h-160q-25 0 -37 -18t-12 -47l-1 -53zM529 399q20 0 42 -22q23 -23 23 -42
q0 -20 -20 -38q-19 -19 -38 -19q-20 0 -42 22t-22 42q0 19 19 38t38 19z" />
    <glyph glyph-name="ca-deva" unicode="&#x91a;" horiz-adv-x="594" 
d="M546 506q-25 0 -37 -18t-12 -47v-495l-79 34v150q-39 -25 -67 -36.5t-66 -11.5q-48 0 -88 18t-63 49.5t-23 69.5q0 37 23.5 69t66.5 52l-118 -2l-28 64h289l27 -58q-60 -3 -102.5 -26t-64 -56t-21.5 -65q0 -30 18 -49t52 -19q46 0 91.5 30.5t73.5 93.5v173q0 35 7 80
h-427l-28 64h626l28 -64h-78z" />
    <glyph glyph-name="cha-deva" unicode="&#x91b;" horiz-adv-x="644" 
d="M606 344.5q27 -41.5 27 -100.5q0 -76 -45.5 -138t-118.5 -97t-151 -35q-67 0 -115.5 25t-73 64t-24.5 81q0 38 18 65q-41 25 -62 59t-21 69q0 33 18 61.5t53 45.5t83 17q39 0 76 -11l19 -62q-39 13 -75 13q-54 0 -87 -25t-33 -59q0 -27 14 -45.5t46 -32.5q35 22 90 22
q28 0 59 -6l9 -58q-22 3 -41 3q-53 0 -83 -22t-30 -58q0 -39 33.5 -61.5t96.5 -22.5t129.5 29.5t105.5 80.5q-70 25 -115 67.5t-45 100.5q0 43 26 68.5t69 30.5v13q0 51 7 80h-467l-28 64h676l28 -64h-91q-25 0 -37 -18t-12 -47v-37q45 -18 72 -59.5zM545 179q19 40 19 81
q0 52 -21 80.5t-51 28.5q-21 0 -33.5 -14.5t-12.5 -43.5q0 -75 99 -132z" />
    <glyph glyph-name="ja-deva" unicode="&#x91c;" horiz-adv-x="667" 
d="M622 506q-25 0 -37 -18t-12 -47v-495l-79 34v279l-167 9q53 -35 80.5 -86t27.5 -95q0 -52 -39.5 -82t-112.5 -30q-46 0 -97 26.5t-97.5 75.5t-78.5 116l33 22q49 -79 108 -120.5t114 -41.5q36 0 49 14.5t13 43.5q0 43 -41 92.5t-107 79.5l-7 43h322v100q0 35 7 80h-503
l-28 64h699l28 -64h-75z" />
    <glyph glyph-name="jha-deva" unicode="&#x91d;" horiz-adv-x="736" 
d="M685 506q-25 0 -37 -18t-12 -47v-495l-79 34v267l-121 -9q28 -40 28 -88q0 -94 -52.5 -144t-132.5 -50q-41 0 -83 13.5t-80 38.5l-8 -5q22 -44 46.5 -72.5t65.5 -62.5l-63 -54q-63 92 -96 153t-33 107q0 30 16.5 44.5t41.5 14.5t43.5 -17.5t18.5 -47.5q0 -18 -6 -32
q30 -25 78 -25q69 0 115 40.5t46 103.5q0 26 -18 38t-48 12q-37 0 -83 -16q-14 -5 -33 -5q-31 0 -59 16.5t-45.5 46t-17.5 65.5q0 48 38.5 78t92.5 28l135 -6v14q0 51 7 80h-352l-28 64h768l28 -64h-81zM564 506h-93q-25 0 -37 -18t-12 -47v-82l-201 -8q-37 -1 -58 -19.5
t-21 -40.5q0 -15 9.5 -23.5t28.5 -8.5q15 0 27.5 4t33.5 12q25 10 43 15.5t41 5.5h232v130q0 35 7 80z" />
    <glyph glyph-name="nya-deva" unicode="&#x91e;" horiz-adv-x="687" 
d="M652 506q-25 0 -37 -18t-12 -47v-495l-79 34v287l-82 -4q1 -85 -45 -131t-117 -46q-74 0 -145.5 48t-112.5 134l32 22q37 -54 97 -83.5t120 -29.5q56 0 92 25.5t36 72.5q0 39 -22.5 58.5t-59.5 19.5q-54 0 -107 -35l-44 65q30 25 64.5 38.5t67.5 13.5q48 0 85 -28t51 -81
h90v100q0 35 7 80h-533l-28 64h719l28 -64h-65z" />
    <glyph glyph-name="tta-deva" unicode="&#x91f;" horiz-adv-x="529" 
d="M341 75.5q39 19.5 86 71.5l55 -68q-47 -45 -89.5 -65t-91.5 -20q-71 0 -126.5 33t-86 86t-30.5 111q0 55 28 94.5t75 59.5t104 18l71 -2v32q0 51 7 80h-345l-28 64h561l28 -64h-95q-25 0 -37 -18t-12 -47v-108l-151 -10q-63 -4 -99 -38.5t-36 -97.5q0 -61 35.5 -96
t96.5 -35q41 0 80 19.5z" />
    <glyph glyph-name="ttha-deva" unicode="&#x920;" horiz-adv-x="529" 
d="M488 282.5q21 -41.5 21 -102.5q0 -60 -32.5 -101.5t-82.5 -62t-102 -20.5q-69 0 -122.5 32.5t-82.5 84.5t-29 107q0 47 22.5 87t67 64t106.5 24h82v31q0 51 7 80h-345l-28 64h561l28 -64h-95q-25 0 -37 -18t-12 -47v-82q52 -35 73 -76.5zM348 76q41 20 64.5 56.5
t23.5 83.5q0 40 -20.5 66.5t-59.5 46.5l-94 -7q-64 -5 -99 -43.5t-35 -91.5q0 -63 35 -97t94 -34q50 0 91 20z" />
    <glyph glyph-name="dda-deva" unicode="&#x921;" horiz-adv-x="509" 
d="M169.5 357.5q-20.5 -22.5 -20.5 -49.5q0 -21 12.5 -34.5t34.5 -13.5q19 0 54 13q28 9 43.5 12.5t34.5 3.5q32 0 61 -19.5t47 -54.5t18 -77q0 -66 -36 -109.5t-118 -43.5q-93 0 -157.5 56.5t-110.5 151.5l32 22q48 -87 98.5 -120.5t110.5 -33.5q66 0 100.5 28.5t34.5 66.5
q0 29 -14 46.5t-38 17.5q-23 0 -66 -13q-48 -14 -72 -14q-27 0 -56 21.5t-48.5 58t-19.5 80.5q0 42 29.5 67t74.5 25h139q2 40 7 61h-346l-28 64h541l28 -64h-74q-25 0 -37 -18t-12 -47v-54l-189 -6q-37 -1 -57.5 -23.5z" />
    <glyph glyph-name="ddha-deva" unicode="&#x922;" horiz-adv-x="529" 
d="M401.5 255q33.5 -23 51.5 -60t18 -77q0 -59 -47 -92t-119 -33q-77 0 -133 34t-85 86.5t-29 104.5t25.5 92.5t69.5 62.5t98 22h85v32q0 35 7 79h-345l-28 64h561l28 -64h-106q-38 -7 -38 -64v-105l-125 -6q-81 -4 -121.5 -44.5t-40.5 -101.5q0 -68 44 -101.5t113 -34.5
q-37 25 -57 58t-20 66q0 45 30.5 75t86.5 30q43 0 76.5 -23zM394.5 90q19.5 25 19.5 59q0 27 -18.5 46t-49.5 19q-28 0 -45.5 -20t-17.5 -47q0 -28 14 -49t42 -43q36 10 55.5 35z" />
    <glyph glyph-name="nna-deva" unicode="&#x923;" horiz-adv-x="622" 
d="M577 506q-25 0 -37 -18t-12 -47v-495l-79 34v446q0 35 7 80h-88v-214q0 -82 -34 -124t-94 -42q-54 0 -98 32t-68.5 88.5t-24.5 128.5v131h-51l-28 64h654l28 -64h-75zM128 506v-223q0 -48 21 -71t56 -23q37 0 60.5 24t23.5 89v204h-161z" />
    <glyph glyph-name="ta-deva" unicode="&#x924;" horiz-adv-x="507" 
d="M462 506q-25 0 -37 -18t-12 -47v-495l-79 34v353h-113q-122 0 -122 -98q0 -59 31.5 -113t87.5 -91l-21 -39q-91 50 -142 123t-51 141q0 63 45 102t131 39h154v29q0 35 7 80h-343l-28 64h539l28 -64h-75z" />
    <glyph glyph-name="tha-deva" unicode="&#x925;" horiz-adv-x="613" 
d="M568 506q-25 0 -37 -18t-12 -47v-495l-79 34v146q-59 -23 -115 -23q-82 0 -145.5 43.5t-95.5 106.5l10 40q54 16 84 32q-53 30 -83 73t-30 90q0 44 30.5 70t78.5 26t82.5 -23.5t52.5 -62t18 -83.5q0 -59 -47 -102.5t-123 -66.5q17 -30 50 -45t75 -15q40 0 82.5 13
t75.5 35v192q0 35 7 80h-88l-28 64h284l28 -64h-75zM160 404.5q15 -31.5 47 -60.5q23 19 34 45.5t11 65.5q0 41 -17 63t-40 22q-21 0 -35.5 -17.5t-14.5 -48.5q0 -38 15 -69.5z" />
    <glyph glyph-name="da-deva" unicode="&#x926;" horiz-adv-x="540" 
d="M422 38l115 -127l-63 -54q-22 52 -81 151l-12 20q-39 -14 -79 -14q-71 0 -124 32.5t-81 83t-28 104.5q0 78 53 121.5t139 40.5l76 -3v33q0 35 7 80h-345l-29 64h562l28 -64h-95q-25 0 -37 -18t-12 -47v-112l-151 -6q-135 -5 -135 -117q0 -60 35.5 -94.5t96.5 -35.5
q44 0 85 23q-2 12 -2 18q0 27 18 43t40 16q26 0 44 -17t18 -48q0 -44 -43 -73z" />
    <glyph glyph-name="dha-deva" unicode="&#x927;" horiz-adv-x="623" 
d="M578 506q-25 0 -37 -18t-12 -47v-495l-79 34v123q-31 -27 -60.5 -39t-69.5 -12q-61 0 -106 25t-69 66t-24 86q0 51 30 87q-45 27 -70.5 72t-25.5 90q0 50 31 84.5t88 34.5q40 0 69.5 -17.5t45.5 -45.5t16 -58q0 -41 -30 -63l-49 50q19 19 19 44q0 19 -12 31.5t-33 12.5
q-30 0 -53 -26.5t-23 -69.5q0 -32 13.5 -62t39.5 -52q41 27 93 27q13 0 19 -1l23 -60q-69 -4 -101 -33t-32 -72t23.5 -65t65.5 -22q54 0 102 34.5t80 97.5v179q0 35 7 80h-103l-28 64h299l28 -64h-75z" />
    <glyph glyph-name="na-deva" unicode="&#x928;" horiz-adv-x="517" 
d="M476 506q-25 0 -37 -18t-12 -47v-495l-79 34v289l-154 -5v-53q0 -29 -7.5 -42.5t-25.5 -13.5q-20 0 -50 23.5t-52 56.5t-22 60q0 16 10.5 23.5t35.5 7.5h265v100q0 35 7 80h-357l-28 64h549l28 -64h-71z" />
    <glyph glyph-name="nnna-deva" unicode="&#x929;" horiz-adv-x="517" 
d="M0 0zM476 506q-25 0 -37 -18t-12 -47v-495l-79 34v289l-154 -5v-53q0 -29 -7.5 -42.5t-25.5 -13.5q-20 0 -50 23.5t-52 56.5t-22 60q0 16 10.5 23.5t35.5 7.5h265v100q0 35 7 80h-357l-28 64h549l28 -64h-71zM180 -4q0 -22 -16 -38q-15 -15 -37 -15q-25 0 -43 18t-18 43
q0 22 15 37t38 15q24 0 42 -18q19 -19 19 -42z" />
    <glyph glyph-name="pa-deva" unicode="&#x92a;" horiz-adv-x="521" 
d="M494 506q-25 0 -37 -18t-12 -47v-495l-79 34v199q-50 -32 -111 -32q-85 0 -131 59t-49 164v56q0 35 7 80h-84l-28 64h553l28 -64h-57zM373 506h-170q-25 0 -37 -18t-12 -47v-166q0 -35 18 -55.5t47 -20.5q43 0 81 23t66 68v136q0 34 7 80z" />
    <glyph glyph-name="pha-deva" unicode="&#x92b;" horiz-adv-x="770" 
d="M710 366.5q34 -43.5 34 -108.5q0 -68 -35.5 -133t-98.5 -99l-48 72q61 41 96 93t35 93q0 28 -16.5 44t-47.5 16q-40 0 -89.5 -28t-95.5 -77v-293l-79 34v198q-55 -37 -110 -37q-87 0 -133.5 66t-46.5 178v41q0 35 7 80h-84l-28 64h802l28 -64h-307q-25 0 -37 -18t-12 -47
v-110q46 44 87 61.5t82 17.5q63 0 97 -43.5zM365 263v163q0 35 7 80h-169q-25 0 -37 -18t-12 -47v-166q0 -40 21 -58t54 -18q70 0 136 64z" />
    <glyph glyph-name="ba-deva" unicode="&#x92c;" horiz-adv-x="555" 
d="M503 506q-25 0 -37 -18t-12 -47v-495l-79 34v139q-40 -24 -74 -34t-69 -10q-55 0 -97.5 24.5t-66.5 67t-24 95.5q0 73 43.5 112t117.5 39q46 0 83.5 -13t86.5 -48v74q0 35 7 80h-384l-28 64h587l28 -64h-82zM375 195v92q-91 51 -167 51l-15 -1l122 -173q30 11 60 31z
M274 151l-125 176q-27 -12 -40.5 -36.5t-13.5 -56.5q0 -46 29.5 -69t73.5 -23q39 0 76 9z" />
    <glyph glyph-name="bha-deva" unicode="&#x92d;" horiz-adv-x="615" 
d="M590 506q-25 0 -37 -18t-12 -47v-495l-79 34v288l-188 -4l-2 -27q-2 -32 -7.5 -45.5t-20.5 -13.5q-21 0 -49.5 19t-48.5 46t-20 47q0 36 44 36h27l3 47q-64 10 -109.5 48t-45.5 90q0 37 23 59t61 22q75 0 112 -49t37 -164q0 -15 -2 -53h186v100q0 35 7 80h-113l-28 64
h289l28 -64h-55zM140.5 452.5q22.5 -23.5 62.5 -34.5q2 66 -8 97.5t-40 31.5q-37 0 -37 -43q0 -28 22.5 -51.5z" />
    <glyph glyph-name="ma-deva" unicode="&#x92e;" horiz-adv-x="527" 
d="M502 506q-25 0 -37 -18t-12 -47v-495l-79 34v288l-211 -4v-53q0 -29 -7.5 -42.5t-25.5 -13.5q-20 0 -50 23.5t-52 56.5t-22 60q0 16 10.5 23.5t35.5 7.5h32v100q0 35 7 80h-93l-28 64h559l28 -64h-55zM381 506h-169q-25 0 -37 -18t-12 -47v-115h211v100q0 35 7 80z" />
    <glyph glyph-name="ya-deva" unicode="&#x92f;" horiz-adv-x="527" 
d="M502 506q-25 0 -37 -18t-12 -47v-495l-79 34v148q-51 -18 -103 -18q-72 0 -133.5 37t-103.5 112l10 41q120 36 120 116q0 38 -29 90h-137l-28 64h559l28 -64h-55zM381 506h-192q36 -59 36 -109q0 -49 -31 -85t-86 -58q17 -30 50 -45.5t75 -15.5q36 0 73 10t68 29v194
q0 35 7 80z" />
    <glyph glyph-name="ra-deva" unicode="&#x930;" horiz-adv-x="378" 
d="M199 92q57 -40 127 -40q23 0 43 4l-21 -83q-97 0 -167 52.5t-106.5 125t-36.5 127.5q0 26 16.5 42.5t42.5 16.5q25 0 40 -10t31 -32q37 40 37 103q0 49 -22 108h-185l-28 64h410l28 -64h-165q20 -63 20 -123q0 -56 -18 -99t-51 -65.5t-75 -20.5q23 -66 80 -106z" />
    <glyph glyph-name="rra-deva" unicode="&#x931;" horiz-adv-x="378" 
d="M0 0zM199 92q57 -40 127 -40q23 0 43 4l-21 -83q-97 0 -167 52.5t-106.5 125t-36.5 127.5q0 26 16.5 42.5t42.5 16.5q25 0 40 -10t31 -32q37 40 37 103q0 49 -22 108h-185l-28 64h410l28 -64h-165q20 -63 20 -123q0 -56 -18 -99t-51 -65.5t-75 -20.5q23 -66 80 -106z
M108 -24q0 -22 -16 -38q-15 -15 -37 -15q-25 0 -43 18t-18 43q0 22 15 37t38 15q24 0 42 -18q19 -19 19 -42z" />
    <glyph glyph-name="la-deva" unicode="&#x932;" horiz-adv-x="687" 
d="M634 506q-25 0 -37 -18t-12 -47v-495l-79 34v359q-34 20 -63 20q-42 0 -72 -34t-52 -114l-78 14q6 56 37 107q-49 27 -93 27q-30 0 -51 -26.5t-21 -66.5q0 -142 122 -225l-21 -39q-84 45 -139.5 120.5t-55.5 153.5q0 67 34 105t101 38q41 0 76 -14.5t70 -41.5
q24 26 53.5 41t60.5 15q50 0 92 -33v40q0 35 7 80h-515l-28 64h719l28 -64h-83z" />
    <glyph glyph-name="lla-deva" unicode="&#x933;" horiz-adv-x="706" 
d="M631 320q25 -44 25 -101q0 -51 -22.5 -84.5t-57 -48.5t-71.5 -15q-42 0 -81.5 20.5t-83.5 62.5q-35 -45 -70.5 -63t-81.5 -18q-52 0 -91.5 26.5t-61 70t-21.5 93.5q0 68 42.5 107.5t105.5 39.5q49 0 92.5 -25.5t90.5 -72.5q32 47 68.5 70.5t72.5 24.5v19q0 35 7 80h-495
l-28 64h738l28 -64h-122q-25 0 -37 -18t-12 -47v-54q41 -23 66 -67zM244.5 167q37.5 27 74.5 100l5 9q-48 36 -80 47.5t-71 11.5q-50 0 -78.5 -30t-28.5 -72q0 -46 29 -69.5t67 -23.5q45 0 82.5 27zM574 173.5q29 26.5 29 74.5q0 40 -21 62.5t-55 22.5q-40 0 -78.5 -29.5
t-69.5 -87.5l-15 -25q35 -25 66.5 -34.5t62.5 -9.5q52 0 81 26.5z" />
    <glyph glyph-name="llla-deva" unicode="&#x934;" horiz-adv-x="706" 
d="M0 0zM631 320q25 -44 25 -101q0 -51 -22.5 -84.5t-57 -48.5t-71.5 -15q-42 0 -81.5 20.5t-83.5 62.5q-35 -45 -70.5 -63t-81.5 -18q-52 0 -91.5 26.5t-61 70t-21.5 93.5q0 68 42.5 107.5t105.5 39.5q49 0 92.5 -25.5t90.5 -72.5q32 47 68.5 70.5t72.5 24.5v19q0 35 7 80
h-495l-28 64h738l28 -64h-122q-25 0 -37 -18t-12 -47v-54q41 -23 66 -67zM244.5 167q37.5 27 74.5 100l5 9q-48 36 -80 47.5t-71 11.5q-50 0 -78.5 -30t-28.5 -72q0 -46 29 -69.5t67 -23.5q45 0 82.5 27zM574 173.5q29 26.5 29 74.5q0 40 -21 62.5t-55 22.5
q-40 0 -78.5 -29.5t-69.5 -87.5l-15 -25q35 -25 66.5 -34.5t62.5 -9.5q52 0 81 26.5zM441 -63q0 -22 -16 -38q-15 -15 -37 -15q-25 0 -43 18t-18 43q0 22 15 37t38 15q24 0 42 -18q19 -19 19 -42z" />
    <glyph glyph-name="va-deva" unicode="&#x935;" horiz-adv-x="555" 
d="M503 506q-25 0 -37 -18t-12 -47v-495l-79 34v139q-40 -24 -74 -34t-69 -10q-55 0 -97.5 24.5t-66.5 67t-24 95.5q0 73 43.5 112t117.5 39q46 0 83.5 -13t86.5 -48v74q0 35 7 80h-384l-28 64h587l28 -64h-82zM291.5 155.5q46.5 13.5 83.5 39.5v92q-91 51 -167 51
q-56 0 -84.5 -28.5t-28.5 -75.5q0 -46 29.5 -69t73.5 -23q47 0 93.5 13.5z" />
    <glyph glyph-name="sha-deva" unicode="&#x936;" horiz-adv-x="678" 
d="M228 86.5q32 -27.5 62 -44.5t85 -44l-69 -68q-62 46 -108.5 100.5t-88.5 136.5q-26 13 -42.5 36t-16.5 49q0 25 14.5 41t36.5 16q33 0 49 -19.5t16 -44.5q0 -21 -9 -30q10 -7 22 -7q24 0 49 25.5t41 66.5q-70 20 -120.5 65t-50.5 104q0 46 30 73.5t86 27.5
q67 0 111.5 -44t44.5 -117q0 -69 -31.5 -126t-78 -91t-89.5 -38q25 -40 57 -67.5zM631 506q-25 0 -37 -18t-12 -47v-495l-79 34v446q0 35 7 80h-102l-28 64h300l28 -64h-77zM204 390q24 -31 77 -52q9 36 9 75q0 59 -19 90t-44 31q-20 0 -33.5 -18.5t-13.5 -52.5
q0 -42 24 -73z" />
    <glyph glyph-name="ssa-deva" unicode="&#x937;" horiz-adv-x="521" 
d="M494 506q-25 0 -37 -18t-12 -47v-495l-79 34v199q-50 -32 -111 -32q-85 0 -131 59t-49 164v56q0 35 7 80h-84l-28 64h553l28 -64h-57zM373 506h-170q-6 0 -14 -2l173 -222l4 8v136q0 34 7 80zM339 254l-178 225q-7 -15 -7 -38v-166q0 -35 18 -55.5t47 -20.5q68 0 120 55z
" />
    <glyph glyph-name="sa-deva" unicode="&#x938;" horiz-adv-x="627" 
d="M582 506q-25 0 -37 -18t-12 -47v-495l-79 34v203q-69 -21 -129 -21q-91 0 -151 44q-30 -19 -69 -27q48 -56 102.5 -87t143.5 -48l-31 -93q-137 56 -222.5 136t-85.5 167q0 30 17.5 48.5t44.5 18.5q45 0 65 -41q52 29 52 98q0 49 -27 128h-166l-28 64h659l28 -64h-75z
M461 506h-236q29 -78 29 -139q0 -71 -36 -121q33 -13 75 -13q76 0 161 40v153q0 34 7 80z" />
    <glyph glyph-name="ha-deva" unicode="&#x939;" horiz-adv-x="509" 
d="M168 347.5q-17 -13.5 -17 -36.5q0 -24 18 -51q45 22 101 22q50 0 94.5 -18.5t72 -54.5t27.5 -86q0 -64 -63 -104l-44 49q25 11 38.5 28t13.5 36q0 28 -29 48.5t-82 20.5q-58 0 -96 -27.5t-38 -83.5q0 -62 52.5 -111t177.5 -73l-11 -38q-98 13 -167 52t-103.5 91.5
t-34.5 106.5q0 68 45 111q-31 25 -46.5 53t-15.5 55q0 39 33 64t94 25h151q0 51 7 80h-348l-28 64h541l28 -64h-75q-25 0 -37 -18t-12 -47v-74l-198 -5q-32 -1 -49 -14.5z" />
    <glyph glyph-name="oeMatra-deva" unicode="&#x93a;" 
d="M38 588q12 18 12 47v105l79 -34v-56q0 -34 -7 -80h-121q25 0 37 18z" />
    <glyph glyph-name="uni093B" unicode="&#x93b;" horiz-adv-x="280" 
d="M0 0zM108 588q12 18 12 47v105l79 -34v-56q0 -34 -7 -80h-121q25 0 37 18zM228 506q-25 0 -37 -18t-12 -47v-495l-79 34v446q0 35 7 80h-109l-28 64h312l28 -64h-82z" />
    <glyph glyph-name="nukta-deva" unicode="&#x93c;" 
d="M182 -150q0 -22 -16 -38q-15 -15 -37 -15q-25 0 -43 18t-18 43q0 22 15 37t38 15q24 0 42 -18q19 -19 19 -42z" />
    <glyph glyph-name="avagraha-deva" unicode="&#x93d;" horiz-adv-x="506" 
d="M159 87.5q52 -33.5 117 -33.5q91 0 91 85q0 30 -12 50.5t-31.5 33.5t-56.5 32q-74 38 -112 63t-58 54.5t-20 71.5q0 64 38 95t96 31h159l28 -64h-160q-37 0 -57.5 -21.5t-20.5 -53.5q0 -41 24.5 -65.5t75.5 -47.5q104 -43 150 -84.5t46 -101.5q0 -68 -46 -106t-126 -38
q-82 0 -142.5 45.5t-116.5 157.5l34 18q48 -88 100 -121.5z" />
    <glyph glyph-name="aaMatra-deva" unicode="&#x93e;" horiz-adv-x="280" 
d="M228 506q-25 0 -37 -18t-12 -47v-495l-79 34v446q0 35 7 80h-109l-28 64h312l28 -64h-82z" />
    <glyph glyph-name="iMatra-deva" unicode="&#x93f;" horiz-adv-x="299" 
d="M339.5 814q70.5 -26 135 -74.5t106.5 -113.5l-36 -12q-32 46 -85.5 83t-113 57.5t-110.5 20.5q-52 0 -82.5 -23.5t-30.5 -72.5q0 -46 33 -109h126l28 -64h-82q-25 0 -37 -18t-12 -47v-495l-79 34v446q0 35 7 80h-109l-28 64h128q-55 79 -55 143q0 62 45.5 95t117.5 33
q63 -1 133.5 -27z" />
    <glyph glyph-name="iiMatra-deva" unicode="&#x940;" horiz-adv-x="272" 
d="M220 506q-25 0 -37 -18t-12 -47v-495l-79 34v446q0 35 7 80h-109l-28 64h142q-36 95 -86 147.5t-104 52.5q-35 0 -59.5 -18t-24.5 -49q0 -28 22 -62l-22 -24q-31 28 -46.5 57t-15.5 56q0 45 37.5 75t94.5 30q62 0 113.5 -37t87.5 -97t54 -131h119l28 -64h-82z" />
    <glyph glyph-name="uMatra-deva" unicode="&#x941;" 
d="M127 -1q53 0 88.5 -34.5t35.5 -100.5q0 -64 -37.5 -101t-105.5 -37q-58 0 -105 29t-86 81l32 28q28 -31 69 -49t77 -18q47 0 78 24t31 56q0 9 -3 18q-6 19 -23 30t-40 11q-38 0 -80 -27l-34 57q48 33 103 33z" />
    <glyph glyph-name="uuMatra-deva" unicode="&#x942;" 
d="M115 -264q-40 0 -72.5 22t-49.5 64q-11 28 -11 53q0 52 39.5 88t108.5 36q133 0 231 -180l-32 -26q-32 65 -84.5 100t-101.5 35q-48 0 -78.5 -20t-30.5 -50q0 -9 3 -18q6 -19 23 -30t40 -11q38 0 80 27l34 -57q-48 -33 -99 -33z" />
    <glyph glyph-name="rVocalicMatra-deva" unicode="&#x943;" 
d="M169 -53q-51 0 -79 -25.5t-26 -57.5q0 -15 10 -30q17 -24 49 -24q42 0 115 42l35 -62q-58 -39 -115 -39q-33 0 -62 14t-50 39q-32 39 -34 88v4q0 50 35.5 84t106.5 34q14 0 22 -1l20 -68q-20 2 -27 2z" />
    <glyph glyph-name="rrVocalicMatra-deva" unicode="&#x944;" 
d="M219 -431q-64 0 -105 49q-40 48 -40 102q0 27 12 50q-22 13 -40 34q-32 39 -34 88v4q0 50 35.5 84t106.5 34q14 0 22 -1l20 -68q-20 2 -27 2q-51 0 -79 -25.5t-26 -57.5q0 -15 10 -30q17 -24 49 -24q41 0 115 42l35 -62q-31 -20 -60 -29l2 -1q-43 -15 -64 -37t-21 -46
q0 -16 9 -29q14 -20 43 -20q42 0 118 43l35 -62q-60 -40 -116 -40z" />
    <glyph glyph-name="eCandraMatra-deva" unicode="&#x945;" 
d="M196 713q58 2 109 73l54 -52q-25 -46 -60 -69t-74 -23q-48 0 -95 32t-80 87l34 28q52 -76 112 -76z" />
    <glyph glyph-name="eShortMatra-deva" unicode="&#x946;" 
d="M345 652.5q-33 27.5 -97 27.5q-20 0 -31 -1l-17 -1q-54 0 -88.5 31t-61.5 104l26 13q24 -46 48.5 -63t58.5 -17q8 0 30 2q27 3 55 3q73 0 117 -41t44 -155h-39q-12 70 -45 97.5z" />
    <glyph glyph-name="eMatra-deva" unicode="&#x947;" 
d="M283 705.5q-65 47.5 -132 47.5q-31 0 -58 -9q-8 -2 -13 -2q-18 0 -31.5 12.5t-13.5 31.5q0 24 21 37.5t56 13.5q53 0 119.5 -33.5t125.5 -97.5t91 -151h-46q-54 103 -119 150.5z" />
    <glyph glyph-name="aiMatra-deva" unicode="&#x948;" 
d="M240.5 819.5q61.5 -37.5 105 -106.5t48.5 -158h-41q-35 47 -70.5 68t-74.5 21q-35 0 -75 -15q-15 -5 -26 -5q-21 0 -34 13t-13 32q0 17 12.5 30.5t34.5 17.5q18 3 37 3q50 0 100 -23t93 -73q-25 75 -70.5 109.5t-93.5 34.5q-25 0 -42 -7q-9 -4 -23 -4q-22 0 -38 13.5
t-16 34.5q0 24 18.5 38t51.5 14q55 0 116.5 -37.5z" />
    <glyph glyph-name="oCandraMatra-deva" unicode="&#x949;" horiz-adv-x="280" 
d="M0 0zM228 506q-25 0 -37 -18t-12 -47v-495l-79 34v446q0 35 7 80h-109l-28 64h312l28 -64h-82zM121 712q58 2 109 73l54 -52q-25 -46 -60 -69t-74 -23q-48 0 -95 32t-80 87l34 28q52 -76 112 -76z" />
    <glyph glyph-name="oShortMatra-deva" unicode="&#x94a;" horiz-adv-x="280" 
d="M228 506q-25 0 -37 -18t-12 -47v-495l-79 34v446q0 34 7 80h-109l-28 64h152q-12 69 -45.5 96t-96.5 27q-20 0 -31 -1l-17 -1q-54 0 -88.5 31t-61.5 104l26 13q24 -46 48.5 -63t58.5 -17q8 0 30 2q27 3 55 3q72 0 116 -40.5t45 -153.5h121l28 -64h-82z" />
    <glyph glyph-name="oMatra-deva" unicode="&#x94b;" horiz-adv-x="280" 
d="M228 506q-25 0 -37 -18t-12 -47v-495l-79 34v446q0 35 7 80h-109l-28 64h141q-53 95 -116 138.5t-127 43.5q-29 0 -58 -8q-8 -2 -13 -2q-18 0 -31.5 12.5t-13.5 31.5q0 24 21 37.5t56 13.5q51 0 115.5 -31.5t123 -92.5t91.5 -143h123l28 -64h-82z" />
    <glyph glyph-name="auMatra-deva" unicode="&#x94c;" horiz-adv-x="280" 
d="M0 0zM228 506q-25 0 -37 -18t-12 -47v-495l-79 34v446q0 35 7 80h-109l-28 64h312l28 -64h-82zM14.5 834.5q61.5 -37.5 105 -106.5t48.5 -158h-41q-35 47 -70.5 68t-74.5 21q-35 0 -75 -15q-15 -5 -26 -5q-21 0 -34 13t-13 32q0 17 12.5 30.5t34.5 17.5q18 3 37 3
q50 0 100 -23t93 -73q-25 75 -70.5 109.5t-93.5 34.5q-25 0 -42 -7q-9 -4 -23 -4q-22 0 -38 13.5t-16 34.5q0 24 18.5 38t51.5 14q55 0 116.5 -37.5z" />
    <glyph glyph-name="halant-deva" unicode="&#x94d;" 
d="M189.5 -176.5q-52.5 34.5 -108.5 37.5q-18 1 -30.5 13t-12.5 31t14 32t38 13q35 0 76 -26.5t79.5 -73t64.5 -105.5l-35 -21q-33 65 -85.5 99.5z" />
    <glyph glyph-name="prishthaMatraE-deva" unicode="&#x94e;" horiz-adv-x="289" 
d="M188 -54l-79 34v510q0 46 5 80h177l28 -64h-131v-560z" />
    <glyph glyph-name="awVowel-deva" unicode="&#x94f;" horiz-adv-x="280" 
d="M228 506q-25 0 -37 -18t-12 -47v-495l-79 34v446q0 34 7 80h-109l-28 64h139q-14 32 -34 45.5t-50 13.5q-26 0 -59 -9q-26 -6 -48 -6q-41 0 -71.5 24t-56.5 77l24 17q23 -35 43 -49.5t45 -14.5q20 0 57 10q36 9 61 9q96 0 118 -103q2 12 2 34v2q0 106 -90 106
q-10 0 -16 -1q-30 -2 -42 -2q-63 0 -102 26.5t-60 91.5l29 14q18 -42 43.5 -57.5t65.5 -15.5q31 0 60 4q18 2 26 2h7q58 0 92 -28.5t34 -89.5q0 -41 -18 -100h113l28 -64h-82z" />
    <glyph glyph-name="om-deva" unicode="&#x950;" horiz-adv-x="942" 
d="M659 584q-25 0 -43 18t-18 43q0 22 15 37t38 15q24 0 42 -18q19 -19 19 -42q0 -22 -16 -38q-15 -15 -37 -15zM595 488q-47 32 -80 87l34 28q52 -76 112 -76q58 2 109 73l54 -52q-25 -46 -60 -69t-74 -23q-48 0 -95 32zM874.5 75.5q-27.5 -40.5 -69.5 -61t-84 -20.5
q-60 0 -108.5 26.5t-90.5 87.5l51 40q23 -46 57.5 -70t72.5 -24q35 0 65.5 20.5t49 59.5t18.5 91q0 48 -34.5 77.5t-88.5 29.5q-41 0 -77 -18.5t-75 -60.5q-49 -53 -100 -53q-29 0 -59 13q16 -32 16 -67q0 -37 -18 -68.5t-53 -50.5t-83 -19q-149 0 -249 203l34 17
q36 -68 84 -111.5t104 -43.5q44 0 70.5 26t26.5 70q0 37 -19 71t-52 54q-25 -8 -47 -11l-52 -7l-17 63l68 12q63 11 97.5 31.5t34.5 68.5q0 37 -23.5 53t-59.5 16q-68 0 -142 -52l-36 69q35 25 76 38.5t77 13.5q63 0 105.5 -40.5t42.5 -108.5q0 -42 -22 -74.5t-59 -53.5
q17 -9 36 -23q50 -32 91 -32q25 0 47.5 12t46.5 34q54 50 88 71t81 21q57 0 104 -30t74.5 -81t27.5 -110q0 -58 -27.5 -98.5z" />
    <glyph glyph-name="udatta-deva" unicode="&#x951;" 
d="M91 901h55v-295h-55v295z" />
    <glyph glyph-name="anudatta-deva" unicode="&#x952;" 
d="M-341 -177v54h275v-54h-275z" />
    <glyph glyph-name="grave-deva" unicode="&#x953;" 
d="M-354 865l196 -195l-37 -39l-210 194z" />
    <glyph glyph-name="acute-deva" unicode="&#x954;" 
d="M-208 865l50 -40l-210 -194l-37 39z" />
    <glyph glyph-name="ueMatra-deva" unicode="&#x956;" 
d="M146.5 -111.5q36.5 -18.5 73.5 -18.5q77 0 136 74q13 16 35 16q17 0 30 -11q13 -10 13 -30q0 -24 -15 -39q-28 -30 -72.5 -50t-90.5 -20q-52 0 -106.5 26.5t-99.5 80.5l28 25q32 -35 68.5 -53.5z" />
    <glyph glyph-name="uueMatra-deva" unicode="&#x957;" 
d="M50 -40zM146.5 -111.5q36.5 -18.5 73.5 -18.5q77 0 136 74q13 16 35 16q17 0 30 -11q13 -10 13 -30q0 -24 -15 -39q-28 -30 -72.5 -50t-90.5 -20q-52 0 -106.5 26.5t-99.5 80.5l28 25q32 -35 68.5 -53.5zM166.5 -253.5q36.5 -18.5 73.5 -18.5q77 0 136 74q13 16 35 16
q17 0 30 -11q13 -10 13 -30q0 -24 -15 -39q-28 -30 -72.5 -50t-90.5 -20q-52 0 -106.5 26.5t-99.5 80.5l28 25q32 -35 68.5 -53.5z" />
    <glyph glyph-name="qa-deva" unicode="&#x958;" horiz-adv-x="728" 
d="M0 0zM664 384q37 -41 37 -120q0 -64 -28.5 -119.5t-79.5 -88.5l-48 71q50 30 76.5 77.5t26.5 85.5q0 37 -16 56t-44 19q-35 0 -77 -23t-84 -71v-325l-79 34v199q-34 -32 -72.5 -48t-76.5 -16q-42 0 -77.5 23.5t-56.5 64t-21 88.5q0 76 44 114t116 38q77 0 144 -41v24
q0 34 7 80h-357l-28 64h760l28 -64h-282q-25 0 -37 -18t-12 -47v-87q31 34 69 52.5t75 18.5q56 0 93 -41zM269.5 202q42.5 21 78.5 58v72q-65 36 -140 36q-48 0 -80 -26t-32 -76q0 -46 24.5 -65.5t69.5 -19.5q37 0 79.5 21zM132 -4q0 -22 -16 -38q-15 -15 -37 -15
q-25 0 -43 18t-18 43q0 22 15 37t38 15q24 0 42 -18q19 -19 19 -42z" />
    <glyph glyph-name="khha-deva" unicode="&#x959;" horiz-adv-x="728" 
d="M0 0zM676 506q-25 0 -37 -18t-12 -47v-495l-79 34v90q-109 -55 -219 -55q-99 0 -166.5 38t-100 94.5t-32.5 111.5q0 33 16.5 50t40.5 17q16 0 31.5 -8t26.5 -23q11 25 11 59q0 64 -35 152h-123l-28 64h760l28 -64h-82zM555 506h-375q14 -37 22.5 -81t8.5 -85
q0 -67 -24.5 -111.5t-75.5 -47.5q25 -59 72.5 -82.5t121.5 -23.5q119 0 243 69v45q-54 -28 -93 -28q-49 0 -90.5 24.5t-66.5 64t-25 82.5q0 58 37 92t98 34q37 0 71 -13.5t69 -34.5v16q0 35 7 80zM442 391q-45 0 -73.5 -26t-28.5 -77q0 -26 16.5 -46.5t50.5 -20.5
q35 0 74 16t67 42v81q-54 31 -106 31zM90 -4q0 -22 -16 -38q-15 -15 -37 -15q-25 0 -43 18t-18 43q0 22 15 37t38 15q24 0 42 -18q19 -19 19 -42z" />
    <glyph glyph-name="ghha-deva" unicode="&#x95a;" horiz-adv-x="524" 
d="M0 0zM476 506q-25 0 -37 -18t-12 -47v-495l-79 34v446q0 35 7 80h-173q21 -42 33 -98.5t12 -114.5q0 -91 -25.5 -151t-78.5 -60q-37 0 -61.5 27t-24.5 65q0 41 59 41q14 0 22 -1q40 29 40 109q0 48 -15 98.5t-39 84.5h-106l-28 64h556l28 -64h-78zM182 -4q0 -22 -16 -38
q-15 -15 -37 -15q-25 0 -43 18t-18 43q0 22 15 37t38 15q24 0 42 -18q19 -19 19 -42z" />
    <glyph glyph-name="za-deva" unicode="&#x95b;" horiz-adv-x="667" 
d="M622 506q-25 0 -37 -18t-12 -47v-495l-79 34v279l-167 9q53 -35 80.5 -86t27.5 -95q0 -42 -25 -68q13 -5 23 -15q19 -19 19 -42q0 -22 -16 -38q-15 -15 -37 -15q-25 0 -43 18t-18 43q0 7 1 11q-25 -6 -56 -6q-46 0 -97 26.5t-97.5 75.5t-78.5 116l33 22
q49 -79 108 -120.5t114 -41.5q36 0 49 14.5t13 43.5q0 43 -41 92.5t-107 79.5l-7 43h322v100q0 35 7 80h-503l-28 64h699l28 -64h-75z" />
    <glyph glyph-name="dddha-deva" unicode="&#x95c;" horiz-adv-x="509" 
d="M0 0zM169.5 357.5q-20.5 -22.5 -20.5 -49.5q0 -21 12.5 -34.5t34.5 -13.5q19 0 54 13q28 9 43.5 12.5t34.5 3.5q32 0 61 -19.5t47 -54.5t18 -77q0 -66 -36 -109.5t-118 -43.5q-93 0 -157.5 56.5t-110.5 151.5l32 22q48 -87 98.5 -120.5t110.5 -33.5q66 0 100.5 28.5
t34.5 66.5q0 29 -14 46.5t-38 17.5q-23 0 -66 -13q-48 -14 -72 -14q-27 0 -56 21.5t-48.5 58t-19.5 80.5q0 42 29.5 67t74.5 25h139q2 40 7 61h-346l-28 64h541l28 -64h-74q-25 0 -37 -18t-12 -47v-54l-189 -6q-37 -1 -57.5 -23.5zM393 -117q0 -22 -16 -38q-15 -15 -37 -15
q-25 0 -43 18t-18 43q0 22 15 37t38 15q24 0 42 -18q19 -19 19 -42z" />
    <glyph glyph-name="rha-deva" unicode="&#x95d;" horiz-adv-x="529" 
d="M0 0zM401.5 255q33.5 -23 51.5 -60t18 -77q0 -59 -47 -92t-119 -33q-77 0 -133 34t-85 86.5t-29 104.5t25.5 92.5t69.5 62.5t98 22h85v32q0 35 7 79h-345l-28 64h561l28 -64h-106q-38 -7 -38 -64v-105l-125 -6q-81 -4 -121.5 -44.5t-40.5 -101.5q0 -68 44 -101.5
t113 -34.5q-37 25 -57 58t-20 66q0 45 30.5 75t86.5 30q43 0 76.5 -23zM394.5 90q19.5 25 19.5 59q0 27 -18.5 46t-49.5 19q-28 0 -45.5 -20t-17.5 -47q0 -28 14 -49t42 -43q36 10 55.5 35zM377 -101q0 -22 -16 -38q-15 -15 -37 -15q-25 0 -43 18t-18 43q0 22 15 37t38 15
q24 0 42 -18q19 -19 19 -42z" />
    <glyph glyph-name="fa-deva" unicode="&#x95e;" horiz-adv-x="770" 
d="M0 0zM710 366.5q34 -43.5 34 -108.5q0 -68 -35.5 -133t-98.5 -99l-48 72q61 41 96 93t35 93q0 28 -16.5 44t-47.5 16q-40 0 -89.5 -28t-95.5 -77v-293l-79 34v198q-55 -37 -110 -37q-87 0 -133.5 66t-46.5 178v41q0 35 7 80h-84l-28 64h802l28 -64h-307q-25 0 -37 -18
t-12 -47v-110q46 44 87 61.5t82 17.5q63 0 97 -43.5zM365 263v163q0 35 7 80h-169q-25 0 -37 -18t-12 -47v-166q0 -40 21 -58t54 -18q70 0 136 64zM166 100q0 -22 -16 -38q-15 -15 -37 -15q-25 0 -43 18t-18 43q0 22 15 37t38 15q24 0 42 -18q19 -19 19 -42z" />
    <glyph glyph-name="yya-deva" unicode="&#x95f;" horiz-adv-x="527" 
d="M0 0zM502 506q-25 0 -37 -18t-12 -47v-495l-79 34v148q-51 -18 -103 -18q-72 0 -133.5 37t-103.5 112l10 41q120 36 120 116q0 38 -29 90h-137l-28 64h559l28 -64h-55zM381 506h-192q36 -59 36 -109q0 -49 -31 -85t-86 -58q17 -30 50 -45.5t75 -15.5q36 0 73 10t68 29
v194q0 35 7 80zM103 30q0 -22 -16 -38q-15 -15 -37 -15q-25 0 -43 18t-18 43q0 22 15 37t38 15q24 0 42 -18q19 -19 19 -42z" />
    <glyph glyph-name="rrVocalic-deva" unicode="&#x960;" horiz-adv-x="816" 
d="M776.5 8q-40.5 -17 -83.5 -17q-34 0 -62 11t-44 32q-25 33 -25 71q0 33 21 61q-49 7 -72 42q-12 20 -12 39q0 12 4 23q-36 -15 -70 -16v-308l-79 34v206l-244 -202l-38 71l282 200v1l-32 21q-60 39 -94 55t-71 16q-57 0 -106 -23l-33 71q56 34 114 34q48 0 98.5 -28.5
t123.5 -88.5v113q0 35 7 80h-363l-28 64h839l28 -64h-355q-25 0 -37 -18t-12 -47v-131q65 0 112 38q5 36 24.5 57t48.5 21q26 0 43 -16.5t17 -45.5q0 -24 -17 -40t-46 -16q-11 0 -23 3q-19 -10 -28.5 -24t-9.5 -28q0 -11 7 -22q7 -12 30 -12t53 12.5t59 36.5l47 -71
q-65 -23 -95.5 -52t-30.5 -57q0 -15 10 -30q14 -17 42 -17q30 0 64 20t61 61l45 -69q-29 -34 -69.5 -51z" />
    <glyph glyph-name="llVocalic-deva" unicode="&#x961;" horiz-adv-x="677" 
d="M641 -201q-27 0 -50.5 11t-38.5 29q-25 28 -25 64q0 17 8 35q-31 9 -53 30q-38 35 -38 83q0 50 42 121q39 65 39 117q0 35 -18 54t-46 19q-40 0 -78.5 -39t-55.5 -112l-78 14q7 60 37 108q-46 26 -90 26q-43 0 -62 -24t-19 -71q0 -66 45.5 -125t113.5 -108l-21 -38
q-52 26 -104 72.5t-85.5 102.5t-33.5 108q0 67 34 105t101 38q40 0 74.5 -14.5t69.5 -40.5q47 52 111 56v6q0 51 7 80h-429l-28 64h712l28 -64h-162q-25 0 -37 -18t-12 -47v-32q50 -17 75.5 -57t25.5 -92q0 -69 -40 -129q-52 -77 -52 -116q0 -20 13 -30q12 -10 28 -10
q23 0 51.5 18t60.5 55l45 -50q-50 -57 -114 -65q-18 -18 -18 -42q0 -16 10 -29q9 -12 31 -12q23 0 50.5 16t50.5 48l51 -57q-62 -58 -126 -58z" />
    <glyph glyph-name="lVocalicMatra-deva" unicode="&#x962;" 
d="M337 -371q-40 0 -70 27q-29 28 -29 63q0 36 32 93q30 50 30 87q0 25 -15 39t-41 14q-61 0 -85 -101l-55 20q6 26 18 49q-35 23 -69 23q-31 0 -52 -21t-21 -61q0 -45 27.5 -73.5t81.5 -52.5l-15 -24q-72 23 -116 68t-44 108q0 50 28.5 76t72.5 26q30 0 61.5 -12t59.5 -34
q38 48 96 48q59 0 91.5 -34.5t32.5 -84.5q0 -48 -29 -92q-40 -58 -40 -88q0 -14 10 -23q10 -8 22 -8q17 0 39 14t46 42l34 -38q-44 -50 -101 -50z" />
    <glyph glyph-name="llVocalicMatra-deva" unicode="&#x963;" 
d="M378 -493q-43 0 -69 31q-20 25 -20 55q0 14 4 25q-18 8 -30 19q-29 26 -29 64q0 36 32 93q31 53 31 89q0 26 -15.5 39.5t-42.5 13.5q-62 0 -85 -102l-56 20q6 29 19 50q-37 23 -70 23q-32 0 -53 -21t-21 -62q0 -45 27.5 -73.5t82.5 -53.5l-15 -24q-73 23 -117.5 68.5
t-44.5 108.5q0 50 28.5 76.5t73.5 26.5q30 0 62.5 -12t60.5 -35q38 50 97 50q60 0 92 -34.5t32 -85.5q0 -49 -29 -93q-40 -59 -40 -89q0 -15 10 -24q10 -8 22 -8q38 0 86 57l35 -39q-42 -47 -96 -50q-14 -16 -14 -32q0 -12 8 -22q8 -9 23 -9q18 0 39.5 12t39.5 37l39 -44
q-46 -45 -97 -45z" />
    <glyph glyph-name="danda-deva" unicode="&#x964;" horiz-adv-x="279" 
d="M179 566v-566h-79v566h79z" />
    <glyph glyph-name="dbldanda-deva" unicode="&#x965;" horiz-adv-x="479" 
d="M100 0zM179 566v-566h-79v566h79zM379 566v-566h-79v566h79z" />
    <glyph glyph-name="zero-deva" unicode="&#x966;" horiz-adv-x="491" 
d="M158.5 187q-40.5 24 -64.5 64.5t-24 87.5t24 87t64.5 64t87.5 24t87 -24t64 -64t24 -87t-24 -87.5t-64 -64.5t-87 -24t-87.5 24zM340 263.5q15 26.5 15 59.5q0 30 -14 61q-16 35 -46.5 56t-62.5 21q-21 0 -39 -9q-27 -12 -42 -38.5t-15 -59.5q0 -29 14 -60
q16 -36 46.5 -57t63.5 -21q21 0 39 9q26 12 41 38.5z" />
    <glyph glyph-name="one-deva" unicode="&#x967;" horiz-adv-x="413" 
d="M316 78q0 -28 -19 -59.5t-55 -62.5l-65 44q65 68 65 102q0 17 -16 27l-155 97q48 34 81.5 61.5t57.5 55.5q-73 36 -115.5 76.5t-42.5 95.5q0 51 36.5 79.5t102.5 28.5q65 0 110.5 -37.5t45.5 -115.5q0 -68 -43.5 -128.5t-136.5 -128.5l107 -66q42 -26 42 -69zM164 444
q25 -32 76 -62q29 48 29 99q0 41 -22.5 72t-51.5 31q-25 0 -40.5 -18t-15.5 -48q0 -42 25 -74z" />
    <glyph glyph-name="two-deva" unicode="&#x968;" horiz-adv-x="434" 
d="M360.5 321.5q-49.5 -63.5 -127.5 -91.5q-31 -12 -70 -17q24 -64 52.5 -118t55.5 -88l-73 -47q-55 109 -89 254q-40 5 -63.5 25.5t-23.5 51.5q0 26 16 41.5t41 15.5q22 0 37 -13t27 -43q50 5 99 42.5t80.5 89t31.5 91.5q0 32 -23.5 52t-66.5 20q-68 0 -155 -55l-47 73
q69 47 150 47q54 0 99 -22t72 -64.5t27 -101.5q0 -79 -49.5 -142.5z" />
    <glyph glyph-name="three-deva" unicode="&#x969;" horiz-adv-x="442" 
d="M381 195q-34 -34 -87.5 -51t-112.5 -17q18 -36 31.5 -55t44.5 -55l-65 -37q-24 31 -42.5 74t-22.5 79q-91 17 -91 83q0 23 14.5 35.5t37.5 12.5q31 0 49.5 -19t26.5 -60q175 3 175 125q0 55 -81 55q-39 0 -86 -10l-24 68l114 26q35 8 54 33t19 54q0 54 -64 54
q-38 0 -86.5 -19t-90.5 -50l-37 84q38 20 81.5 31t84.5 11q68 0 110.5 -31.5t42.5 -96.5q0 -40 -16.5 -70.5t-44.5 -49.5q49 -12 74.5 -46.5t25.5 -75.5q0 -48 -34 -82z" />
    <glyph glyph-name="four-deva" unicode="&#x96a;" horiz-adv-x="517" 
d="M320 418q103 -130 103 -229q0 -59 -26.5 -100.5t-69.5 -62.5t-91 -21q-61 0 -109 30q-71 45 -71 127q0 67 42 132t116 134l-18 17q-103 111 -145 189l73 45q25 -49 55.5 -91t77.5 -96l12 -13q113 103 166 187l62 -67q-58 -77 -177 -181zM280 64.5q28 16.5 45.5 49.5
t17.5 79q0 86 -77 178q-65 -57 -101 -112t-36 -110q0 -52 33 -80q25 -21 60 -21q30 0 58 16.5z" />
    <glyph glyph-name="five-deva" unicode="&#x96b;" horiz-adv-x="530" 
d="M360 187q-47 -34 -112 -34q-64 0 -110 27t-69.5 73.5t-23.5 105.5q0 69 25 144.5t73 144.5l67 -58q-42 -56 -68 -131.5t-26 -139.5q0 -117 97 -117q41 0 74 20t51 58q-37 24 -37 64q0 23 16 38t43 15q30 0 49 -20t19 -49q0 -57 -27 -98q24 -70 54.5 -128.5t59.5 -94.5
l-73 -47q-49 97 -82 227z" />
    <glyph glyph-name="six-deva" unicode="&#x96c;" horiz-adv-x="465" 
d="M297 93q-22 -5 -51 -5q-58 0 -101 25.5t-66 66t-23 81.5q0 65 57 111q-41 23 -62 59t-21 72t20.5 67.5t59 51t89.5 19.5q66 0 113 -30l-7 -48q-40 17 -85 17q-36 0 -63.5 -15t-42 -38.5t-14.5 -48.5q0 -24 14.5 -46.5t40.5 -33.5q61 30 141 30l22 -63q-196 -19 -196 -135
q0 -42 23.5 -65t60.5 -23q36 0 71 19q-1 7 -1 21q0 30 17 47t43 17t42 -16t16 -45q0 -42 -41 -69q33 -66 86 -107l-62 -43q-53 61 -80 127z" />
    <glyph glyph-name="seven-deva" unicode="&#x96d;" horiz-adv-x="562" 
d="M445.5 532q44.5 -42 66.5 -109t22 -140q0 -69 -24.5 -129.5t-71.5 -97.5t-112 -37q-89 0 -153 44t-98.5 128t-34.5 202q0 78 15 168l93 -17q-27 -131 -27 -220q0 -123 42.5 -182.5t113.5 -59.5q44 0 81 27t60 74.5t26 106.5q-16 -2 -25 -2q-50 0 -97.5 23t-77.5 64
t-30 92q0 50 36.5 78.5t88.5 28.5q62 0 106.5 -42zM338 379q32 -30 85 -30q13 0 20 1q-3 76 -22 123t-57 47q-27 0 -42.5 -18.5t-14.5 -45.5q-1 -47 31 -77z" />
    <glyph glyph-name="eight-deva" unicode="&#x96e;" horiz-adv-x="463" 
d="M393 506q-139 -88 -216 -180.5t-77 -162.5q0 -30 15 -53q14 -21 37 -32t51 -11q48 0 96.5 28t75.5 75l48 -72q-34 -48 -83 -73t-101 -25q-46 0 -88 19.5t-72 55.5q-41 50 -41 113q0 86 77.5 189t232.5 215z" />
    <glyph glyph-name="nine-deva" unicode="&#x96f;" horiz-adv-x="426" 
d="M319 201q35 -38 51 -63.5t16 -46.5q0 -27 -20 -54t-66 -72l-69 58q37 37 52 57.5t15 42.5q0 15 -10.5 32t-34 42t-82.5 83l-60 59q-41 40 -61.5 85t-20.5 87q0 60 39 98.5t108 38.5q57 0 104.5 -28t75.5 -72t28 -89q0 -57 -43 -93.5t-105 -36.5q-20 0 -43 5
q91 -95 126 -133zM210 576q-29 0 -48.5 -3t-22 -3t13.5 6q-26 -10 -40.5 -32t-14.5 -52q0 -25 11 -51.5t32 -51.5q11 -2 33 -2q56 0 94 26.5t38 76.5q0 17 -16 42t-16 28q0 1 1 2t-12 8q-23 6 -53 6z" />
    <glyph glyph-name="abbreviation-deva" unicode="&#x970;" horiz-adv-x="547" 
d="M186.5 339q-40.5 24 -64.5 64.5t-24 87.5t24 87t64.5 64t87.5 24t87 -24t64 -64t24 -87t-24 -87.5t-64 -64.5t-87 -24t-87.5 24zM368 415.5q15 26.5 15 59.5q0 30 -14 61q-16 35 -46.5 56t-62.5 21q-21 0 -39 -9q-27 -12 -42 -38.5t-15 -59.5q0 -29 14 -60
q16 -36 46.5 -57t63.5 -21q21 0 39 9q26 12 41 38.5z" />
    <glyph glyph-name="aCandra-deva" unicode="&#x972;" horiz-adv-x="725" 
d="M10 0zM673 506q-25 0 -37 -18t-12 -47v-495l-79 34v267q-38 -16 -75 -16q-43 0 -97 21q19 -24 29.5 -51.5t10.5 -54.5q0 -37 -18 -68.5t-53 -50.5t-83 -19q-149 0 -249 203l34 17q36 -68 84 -111.5t104 -43.5q44 0 70.5 26t26.5 70q0 37 -19 71t-52 54q-25 -8 -47 -11
l-52 -7l-17 63l68 12q61 11 93 31.5t32 68.5q0 69 -76 69q-68 0 -142 -52l-36 69q35 25 76 38.5t77 13.5q63 0 105.5 -40.5t42.5 -108.5q0 -42 -21 -74t-58 -53q80 -21 135 -21q93 0 107 58v76q0 35 7 80h-109l-28 64h312l28 -64h-82zM580 713q58 2 109 73l54 -52
q-25 -46 -60 -69t-74 -23q-48 0 -95 32t-80 87l34 28q52 -76 112 -76z" />
    <glyph glyph-name="oe-deva" unicode="&#x973;" horiz-adv-x="725" 
d="M10 0zM673 506q-25 0 -37 -18t-12 -47v-495l-79 34v267q-38 -16 -75 -16q-43 0 -97 21q19 -24 29.5 -51.5t10.5 -54.5q0 -37 -18 -68.5t-53 -50.5t-83 -19q-149 0 -249 203l34 17q36 -68 84 -111.5t104 -43.5q44 0 70.5 26t26.5 70q0 37 -19 71t-52 54q-25 -8 -47 -11
l-52 -7l-17 63l68 12q61 11 93 31.5t32 68.5q0 69 -76 69q-68 0 -142 -52l-36 69q35 25 76 38.5t77 13.5q63 0 105.5 -40.5t42.5 -108.5q0 -42 -21 -74t-58 -53q80 -21 135 -21q93 0 107 58v76q0 35 7 80h-109l-28 64h312l28 -64h-82zM533 588q12 18 12 47v105l79 -34v-56
q0 -34 -7 -80h-121q25 0 37 18z" />
    <glyph glyph-name="ooe-deva" unicode="&#x974;" horiz-adv-x="937" 
d="M885 506q-25 0 -37 -18t-12 -47v-495l-79 34v446q0 34 7 80h-91q-25 0 -37 -18t-12 -47v-495l-79 34v267q-38 -16 -75 -16q-43 0 -97 21q19 -24 29.5 -51.5t10.5 -54.5q0 -37 -18 -68.5t-53 -50.5t-83 -19q-149 0 -249 203l34 17q36 -68 84 -111.5t104 -43.5
q44 0 70.5 26t26.5 70q0 37 -19 71t-52 54q-25 -8 -47 -11l-52 -7l-17 63l68 12q61 11 93 31.5t32 68.5q0 69 -76 69q-68 0 -142 -52l-36 69q35 25 76 38.5t77 13.5q63 0 105.5 -40.5t42.5 -108.5q0 -42 -21 -74t-58 -53q80 -21 135 -21q93 0 107 58v76q0 35 7 80h-109
l-28 64h303q25 0 37 18t12 47v105l79 -34v-56q0 -34 -7 -80h100l28 -64h-82z" />
    <glyph glyph-name="aw-deva" unicode="&#x975;" horiz-adv-x="937" 
d="M885 506q-25 0 -37 -18t-12 -47v-495l-79 34v446q0 34 7 80h-91q-25 0 -37 -18t-12 -47v-495l-79 34v267q-38 -16 -75 -16q-43 0 -97 21q19 -24 29.5 -51.5t10.5 -54.5q0 -37 -18 -68.5t-53 -50.5t-83 -19q-149 0 -249 203l34 17q36 -68 84 -111.5t104 -43.5
q44 0 70.5 26t26.5 70q0 37 -19 71t-52 54q-25 -8 -47 -11l-52 -7l-17 63l68 12q61 11 93 31.5t32 68.5q0 69 -76 69q-68 0 -142 -52l-36 69q35 25 76 38.5t77 13.5q63 0 105.5 -40.5t42.5 -108.5q0 -42 -21 -74t-58 -53q80 -21 135 -21q93 0 107 58v76q0 34 7 80h-109
l-28 64h358q-14 32 -34 45.5t-50 13.5q-26 0 -59 -9q-26 -6 -48 -6q-41 0 -71.5 24t-56.5 77l24 17q23 -35 43 -49.5t45 -14.5q20 0 57 10q36 9 61 9q96 0 118 -103q2 12 2 34v2q0 106 -90 106q-10 0 -16 -1q-30 -2 -42 -2q-63 0 -102 26.5t-60 91.5l29 14
q18 -42 43.5 -57.5t65.5 -15.5q31 0 60 4q18 2 26 2h7q58 0 92 -28.5t34 -89.5q0 -41 -18 -100h106l28 -64h-82z" />
    <glyph glyph-name="ue-deva" unicode="&#x976;" horiz-adv-x="725" 
d="M10 0zM673 506q-25 0 -37 -18t-12 -47v-495l-79 34v267q-38 -16 -75 -16q-43 0 -97 21q19 -24 29.5 -51.5t10.5 -54.5q0 -37 -18 -68.5t-53 -50.5t-83 -19q-149 0 -249 203l34 17q36 -68 84 -111.5t104 -43.5q44 0 70.5 26t26.5 70q0 37 -19 71t-52 54q-25 -8 -47 -11
l-52 -7l-17 63l68 12q61 11 93 31.5t32 68.5q0 69 -76 69q-68 0 -142 -52l-36 69q35 25 76 38.5t77 13.5q63 0 105.5 -40.5t42.5 -108.5q0 -42 -21 -74t-58 -53q80 -21 135 -21q93 0 107 58v76q0 35 7 80h-109l-28 64h312l28 -64h-82zM278.5 -87.5q36.5 -18.5 73.5 -18.5
q77 0 136 74q13 16 35 16q17 0 30 -11q13 -10 13 -30q0 -24 -15 -39q-28 -30 -72.5 -50t-90.5 -20q-52 0 -106.5 26.5t-99.5 80.5l28 25q32 -35 68.5 -53.5z" />
    <glyph glyph-name="uue-deva" unicode="&#x977;" horiz-adv-x="725" 
d="M673 506q-25 0 -37 -18t-12 -47v-495l-79 34v267q-38 -16 -75 -16q-43 0 -97 21q19 -24 29.5 -51.5t10.5 -54.5q0 -37 -18 -68.5t-53 -50.5t-83 -19q-149 0 -249 203l34 17q36 -68 84 -111.5t104 -43.5q44 0 70.5 26t26.5 70q0 37 -19 71t-52 54q-25 -8 -47 -11l-52 -7
l-17 63l68 12q61 11 93 31.5t32 68.5q0 69 -76 69q-68 0 -142 -52l-36 69q35 25 76 38.5t77 13.5q63 0 105.5 -40.5t42.5 -108.5q0 -42 -21 -74t-58 -53q80 -21 135 -21q93 0 107 58v76q0 35 7 80h-109l-28 64h312l28 -64h-82zM276.5 -148.5q-54.5 26.5 -99.5 80.5l28 25
q32 -35 68.5 -53.5t73.5 -18.5q77 0 136 74q13 16 35 16q17 0 30 -11q13 -10 13 -30q0 -24 -15 -39q-28 -30 -72.5 -50t-90.5 -20q-52 0 -106.5 26.5zM581 -208q0 -24 -15 -39q-28 -30 -72.5 -50t-90.5 -20q-52 0 -106.5 26.5t-99.5 80.5l28 25q32 -35 68.5 -53.5
t73.5 -18.5q77 0 136 74q13 16 35 16q17 0 30 -11q13 -10 13 -30z" />
    <glyph glyph-name="zha-deva" unicode="&#x979;" horiz-adv-x="667" 
d="M622 506q-25 0 -37 -18t-12 -47v-495l-79 34v279l-167 9q53 -35 80.5 -86t27.5 -95t-27 -71q13 -5 22 -14q16 -16 16 -37t-14 -35t-33 -14q-22 0 -39 17q-16 16 -16 38q0 7 1 11q-25 -7 -62 -7h-11q1 -4 1 -11q0 -20 -14 -34t-33 -14q-22 0 -39 17q-16 16 -16 38
q0 18 12 32q-51 26 -96.5 75.5t-76.5 114.5l33 22q49 -79 108 -120.5t114 -41.5q36 0 49 14.5t13 43.5q0 43 -41 92.5t-107 79.5l-7 43h322v100q0 35 7 80h-503l-28 64h699l28 -64h-75zM306 -74q21 0 38 -17q16 -16 16 -37t-14 -35t-33 -14q-22 0 -39 17q-16 16 -16 38
q0 20 14 34t34 14z" />
    <glyph glyph-name="jjya-deva" unicode="&#x97a;" horiz-adv-x="527" 
d="M502 506q-25 0 -37 -18t-12 -47v-495l-79 34v148q-51 -18 -103 -18q-72 0 -133.5 37t-103.5 112l10 41q120 36 120 116q0 38 -29 90h-137l-28 64h559l28 -64h-55zM381 506h-175l168 -230v150q0 35 7 80zM158 208.5q33 -15.5 75 -15.5q66 0 126 31l-134 179
q3 -50 -28.5 -88t-88.5 -61q17 -30 50 -45.5z" />
    <glyph glyph-name="gga-deva" unicode="&#x97b;" horiz-adv-x="524" 
d="M476 506q-25 0 -37 -18t-12 -47v-505h-386l-28 64l335 -8v434q0 35 7 80h-173q21 -42 33 -98.5t12 -114.5q0 -91 -25.5 -151t-78.5 -60q-37 0 -61.5 27t-24.5 65q0 41 59 41q14 0 22 -1q40 29 40 109q0 48 -15 98.5t-39 84.5h-106l-28 64h556l28 -64h-78z" />
    <glyph glyph-name="jja-deva" unicode="&#x97c;" horiz-adv-x="667" 
d="M622 506q-25 0 -37 -18t-12 -47v-505h-512l-28 64l161 -3q-54 26 -102 76.5t-82 119.5l33 22q49 -79 108 -120.5t114 -41.5q36 0 49 14.5t13 43.5q0 43 -41 92.5t-107 79.5l-7 43h322v100q0 35 7 80h-503l-28 64h699l28 -64h-75zM494 259l-167 9q53 -35 80.5 -86
t27.5 -95q0 -64 -58 -93l117 -3v268z" />
    <glyph glyph-name="glottalstop-deva" unicode="&#x97d;" horiz-adv-x="541" 
d="M378 299.5q-43 -47.5 -118 -64.5v-235h-79v289q83 7 128 43.5t45 108.5q0 42 -20.5 62.5t-55.5 20.5q-38 0 -87 -23t-95 -63l-36 69q38 37 86.5 56.5t96.5 19.5q43 0 84.5 -22t67.5 -61.5t26 -89.5q0 -63 -43 -110.5z" />
    <glyph glyph-name="ddda-deva" unicode="&#x97e;" horiz-adv-x="509" 
d="M343 506h-345l-28 64h541l28 -64h-75q-25 0 -37 -18t-12 -47v-55l-3 1l-175 -5q-45 -1 -64.5 -15.5t-19.5 -42.5q0 -23 11.5 -35.5t30.5 -12.5t64 13q58 16 89 16q47 0 76.5 -41.5t29.5 -105.5q0 -55 -34 -94t-106 -39q-82 0 -159.5 53t-122.5 125l32 22q50 -62 106 -93
t106 -31q44 0 73 14t42.5 35t13.5 42q0 36 -26 41q-4 1 -13 1q-17 0 -50 -7q-50 -9 -73 -9q-33 0 -59 11q-38 15 -64 47t-26 77q0 47 31 70.5t83 21.5l128 -3q1 18 7 64zM511 -10v-54h-472l-28 64z" />
    <glyph glyph-name="bba-deva" unicode="&#x97f;" horiz-adv-x="555" 
d="M503 506q-25 0 -37 -18t-12 -47v-505h-395l-28 64l344 -8v127q-40 -24 -74 -34t-69 -10q-55 0 -97.5 24.5t-66.5 67t-24 95.5q0 73 43.5 112t117.5 39q46 0 83.5 -13t86.5 -48v74q0 35 7 80h-384l-28 64h587l28 -64h-82zM375 195v92q-47 26 -90 38.5t-77 12.5h-8
l147 -160zM306 161l-156 166q-27 -12 -41 -36.5t-14 -56.5q0 -46 29.5 -69t73.5 -23q57 0 108 19z" />
    <glyph glyph-name="endash" unicode="&#x2013;" horiz-adv-x="590" 
d="M61 279v82h465v-78z" />
    <glyph glyph-name="emdash" unicode="&#x2014;" horiz-adv-x="700" 
d="M61 279v82h575v-78z" />
    <glyph glyph-name="quoteleft" unicode="&#x2018;" horiz-adv-x="224" 
d="M41 474zM61.5 502q-20.5 28 -20.5 69q0 43 23 104t56 92l35 -26q-19 -21 -36 -65.5t-14 -86.5q9 4 21 4q22 0 36.5 -15.5t14.5 -39.5q0 -29 -17.5 -46.5t-42.5 -17.5q-35 0 -55.5 28z" />
    <glyph glyph-name="quoteright" unicode="&#x2019;" horiz-adv-x="174" 
d="M20 473zM135.5 738q20.5 -28 20.5 -69q0 -43 -23 -104t-56 -92l-35 26q19 21 36 65.5t14 86.5q-9 -4 -21 -4q-22 0 -36.5 15.5t-14.5 39.5q0 29 17.5 46.5t42.5 17.5q35 0 55.5 -28z" />
    <glyph glyph-name="quotesinglbase" unicode="&#x201a;" horiz-adv-x="253" 
d="M61 0zM176.5 79q20.5 -28 20.5 -69q0 -43 -23 -104t-56 -92l-35 26q19 21 36 65.5t14 86.5q-9 -4 -21 -4q-22 0 -36.5 15.5t-14.5 39.5q0 29 17.5 46.5t42.5 17.5q35 0 55.5 -28z" />
    <glyph glyph-name="quotedblleft" unicode="&#x201c;" horiz-adv-x="400" 
d="M41 474zM61.5 502q-20.5 28 -20.5 69q0 43 23 104t56 92l35 -26q-19 -21 -36 -65.5t-14 -86.5q9 4 21 4q22 0 36.5 -15.5t14.5 -39.5q0 -29 -17.5 -46.5t-42.5 -17.5q-35 0 -55.5 28zM237.5 502q-20.5 28 -20.5 69q0 43 23 104t56 92l35 -26q-19 -21 -36 -65.5t-14 -86.5
q9 4 21 4q22 0 36.5 -15.5t14.5 -39.5q0 -29 -17.5 -46.5t-42.5 -17.5q-35 0 -55.5 28z" />
    <glyph glyph-name="quotedblright" unicode="&#x201d;" horiz-adv-x="349" 
d="M20 473zM135.5 738q20.5 -28 20.5 -69q0 -43 -23 -104t-56 -92l-35 26q19 21 36 65.5t14 86.5q-9 -4 -21 -4q-22 0 -36.5 15.5t-14.5 39.5q0 29 17.5 46.5t42.5 17.5q35 0 55.5 -28zM311.5 738q20.5 -28 20.5 -69q0 -43 -23 -104t-56 -92l-35 26q19 21 36 65.5t14 86.5
q-9 -4 -21 -4q-22 0 -36.5 15.5t-14.5 39.5q0 29 17.5 46.5t42.5 17.5q35 0 55.5 -28z" />
    <glyph glyph-name="quotedblbase" unicode="&#x201e;" horiz-adv-x="429" 
d="M61 0zM176.5 79q20.5 -28 20.5 -69q0 -43 -23 -104t-56 -92l-35 26q19 21 36 65.5t14 86.5q-9 -4 -21 -4q-22 0 -36.5 15.5t-14.5 39.5q0 29 17.5 46.5t42.5 17.5q35 0 55.5 -28zM352.5 79q20.5 -28 20.5 -69q0 -43 -23 -104t-56 -92l-35 26q19 21 36 65.5t14 86.5
q-9 -4 -21 -4q-22 0 -36.5 15.5t-14.5 39.5q0 29 17.5 46.5t42.5 17.5q35 0 55.5 -28z" />
    <glyph glyph-name="dagger" unicode="&#x2020;" horiz-adv-x="512" 
d="M293 737.5q11 -22.5 8 -50.5q-6 -62 -32 -203l-4 -23q96 20 148 27q7 1 22 1q51 0 51 -36t-51 -36q-15 0 -22 1q-36 4 -105 18l-42 8q25 -120 43 -164q-11 -88 -17.5 -179.5t-13.5 -231.5l-8 -140h-28l-8 140q-7 140 -13.5 231.5t-17.5 179.5q19 45 43 165l-22 -4
q-84 -18 -125 -23q-7 -1 -22 -1q-51 0 -51 36t51 36q15 0 22 -1q52 -7 148 -27l-4 23q-26 141 -32 203q-3 28 8.5 50.5t37.5 22.5q25 0 36 -22.5z" />
    <glyph glyph-name="daggerdbl" unicode="&#x2021;" horiz-adv-x="531" 
d="M302.5 737.5q10.5 -22.5 8.5 -50.5q-11 -102 -37 -232q100 20 148 26q16 2 25 2q49 0 49 -36t-52 -36q-15 0 -22 1q-51 6 -147 26q4 -17 13 -65q3 -14 12.5 -60t17.5 -68q-7 -17 -14.5 -52.5t-14.5 -73.5l-14 -69q95 19 147 27q7 1 22 1q52 0 52 -36q0 -37 -51 -37
q-7 0 -23 2q-59 7 -148 27q26 -130 37 -232q2 -27 -10 -50t-37 -23t-36 23t-8 50q7 74 36 232q-87 -20 -148 -27q-14 -2 -23 -2q-50 0 -50 37q0 36 51 36q15 0 22 -1q55 -8 147 -27l-11 56q-8 42 -16.5 81t-15.5 58q8 18 16.5 58t16.5 82l10 53q-93 -19 -147 -26
q-7 -1 -22 -1q-51 0 -51 36t49 36q8 0 24 -2q51 -6 148 -26q-29 158 -36 232q-3 28 9 50.5t38 22.5q25 0 35.5 -22.5z" />
    <glyph glyph-name="bullet" unicode="&#x2022;" horiz-adv-x="401" 
d="M275.5 502.5q34.5 -19.5 55 -53.5t20.5 -75t-20.5 -75t-55 -53.5t-75.5 -19.5t-75.5 19.5t-54.5 53.5t-20 75t20 75t54.5 53.5t75.5 19.5t75.5 -19.5z" />
    <glyph glyph-name="ellipsis" unicode="&#x2026;" horiz-adv-x="786" 
d="M59 0zM167.5 98q18.5 -21 18.5 -50t-19.5 -49.5t-44.5 -20.5t-44 20.5t-19 49.5t19.5 50t44.5 21q26 0 44.5 -21zM437.5 98q18.5 -21 18.5 -50t-19.5 -49.5t-44.5 -20.5t-44 20.5t-19 49.5t19.5 50t44.5 21q26 0 44.5 -21zM707.5 98q18.5 -21 18.5 -50t-19.5 -49.5
t-44.5 -20.5t-44 20.5t-19 49.5t19.5 50t44.5 21q26 0 44.5 -21z" />
    <glyph glyph-name="perthousand" unicode="&#x2030;" horiz-adv-x="1291" 
d="M323.5 690q40.5 -26 60.5 -68.5t20 -89.5q0 -51 -25 -96.5t-67 -73t-92 -27.5q-57 0 -98 26t-62 69t-21 92t22 94t64.5 72.5t100.5 27.5q57 0 97.5 -26zM168 -17l-42 35l564 698l45 -40zM148 635q-23 -46 -23 -96q0 -62 22.5 -113t75.5 -51q50 0 72.5 42.5t22.5 98.5
q0 63 -23 114t-74 51q-50 0 -73 -46zM755 339q41 -26 62 -69t21 -92q0 -48 -22 -93t-64 -73t-99 -28q-58 0 -99 26.5t-61.5 69t-20.5 89.5q0 51 25 96t67.5 72.5t92.5 27.5q57 0 98 -26zM1175 339q41 -26 62 -69t21 -92q0 -48 -22 -93t-64 -73t-99 -28q-58 0 -99 26.5
t-61.5 69t-20.5 89.5q0 51 25 96t67.5 72.5t92.5 27.5q57 0 98 -26zM1002 283.5q-23 -42.5 -23 -98.5q0 -62 24 -113.5t75 -51.5q50 0 72 45.5t22 96.5q0 62 -22.5 113t-74.5 51q-50 0 -73 -42.5zM581.5 283.5q-22.5 -42.5 -22.5 -98.5q0 -61 24.5 -113t74.5 -52t72 45.5
t22 96.5q0 62 -22.5 113t-75.5 51q-50 0 -72.5 -42.5z" />
    <glyph glyph-name="guilsinglleft" unicode="&#x2039;" horiz-adv-x="383" 
d="M26 0zM26 271l279 -286l38 40l-198 254l196 238l-39 40l-276 -276v-10z" />
    <glyph glyph-name="guilsinglright" unicode="&#x203a;" horiz-adv-x="383" 
d="M356 271l-279 -286l-38 40l198 254l-196 238l39 40l276 -276v-10z" />
    <glyph glyph-name="fraction" unicode="&#x2044;" horiz-adv-x="476" 
d="M21 -24l-47 32l474 716l53 -37z" />
    <glyph glyph-name="uni2074" unicode="&#x2074;" horiz-adv-x="403" 
d="M272 343l41 2v-46h-157v41q30 -1 39.5 13.5t9.5 46.5v4h-169v38l202 280h33l1 -269l56 -1v-48h-56v-61zM205 605l-106 -149l106 -2v151z" />
    <glyph glyph-name="Euro" unicode="&#x20ac;" horiz-adv-x="760" 
d="M549 702q44 -14 89 -43l1 49h54l-20 -202h-36q-11 77 -54 122.5t-124 45.5q-84 0 -147.5 -58t-84.5 -162l336 -2l-27 -56l-317 -1q-1 -14 -1 -44t1 -44l276 -1l-28 -56l-238 -1q24 -97 89 -153.5t153 -56.5q67 0 124 28t97 83l26 -21q-105 -145 -273 -145q-123 0 -205 73
t-106 192l-99 -1l14 60h78q-1 13 -1 39q0 32 2 47h-93l14 60h91q30 114 111 188t201 74q53 0 97 -14z" />
    <glyph glyph-name="uni20BA" unicode="&#x20ba;" horiz-adv-x="538" 
d="M470.5 148.5q-35.5 -65.5 -105 -107t-165.5 -41.5h-130v33q35 1 50 16t17 35.5t2 71.5v200l-134 -48v48l134 48v40l-134 -48v48l134 48v96q0 42 3 72l-72 -4v44h225v-33q-35 -1 -50 -16t-17 -35.5t-2 -71.5v-21l194 70v-48l-194 -69v-41l194 70v-48l-194 -70v-272
q0 -52 -3 -78q64 0 113.5 29.5t76.5 82t26 119.5q-21 2 -35.5 15t-14.5 33q0 21 14 35t38 14q32 0 48.5 -22t16.5 -60q0 -69 -35.5 -134.5z" />
    <glyph glyph-name="uni20BD" unicode="&#x20bd;" horiz-adv-x="586" 
d="M211 264v-67h196v-41l-196 -1v-36q0 -53 -3 -79l92 5v-45h-245v33q35 1 50 16t17 35t2 71h-77v42h77v66h-77v42h77v283q0 42 3 72l-72 -4v44q140 2 223 2q120 0 192 -50t72 -144q0 -60 -27 -115t-92.5 -92.5t-175.5 -37.5q-23 0 -36 1zM228.5 649q-13.5 -14 -15.5 -33.5
t-2 -71.5v-239q25 -3 65 -3q46 0 84.5 22.5t61.5 65t23 99.5q0 81 -48 127.5t-121 46.5q-34 0 -47.5 -14z" />
    <glyph glyph-name="uni2113" unicode="&#x2113;" horiz-adv-x="443" 
d="M368 31q-45 -47 -110 -47q-48 0 -87 26.5t-56 72.5q-13 32 -13 115v51l-91 -90l-21 20l112 112v251q0 107 44 162.5t114 55.5q50 0 79.5 -29.5t29.5 -77.5q0 -56 -36 -122q-31 -62 -145 -190v-177q0 -142 94 -142q37 0 68.5 33t54.5 105l28 -6q-20 -76 -65 -123zM188 581
v-195q142 159 142 247q0 47 -18.5 69t-47.5 22q-76 0 -76 -143z" />
    <glyph glyph-name="uni2116" unicode="&#x2116;" horiz-adv-x="1158" 
d="M50 0zM726 663h-3q-41 -1 -52.5 -20.5t-11.5 -63.5v-37l-2 -558h-60l-423 564l3 -407q0 -65 -2 -97l72 4v-48h-197v37h3q38 -1 50.5 21.5t12.5 55.5l1 542l-67 -4v48h131l415 -551l1 437q0 40 3 70l-72 -4v48h198v-37zM795 588.5q21 47.5 59 76t85 28.5q71 0 117 -45
t46 -132q0 -53 -21.5 -100t-58.5 -75.5t-81 -28.5q-74 0 -120.5 44t-46.5 132q0 53 21 100.5zM1011 382q12 10 19 37.5t7 51.5q0 66 -33 116.5t-94 50.5q-30 0 -45 -15q-12 -12 -19 -37.5t-7 -51.5q0 -41 13.5 -79t42 -63t71.5 -25q29 0 45 15zM1105 260l-13 -48
q-140 -9 -313 -9l12 57h314z" />
    <glyph glyph-name="trademark" unicode="&#x2122;" horiz-adv-x="1068" 
d="M403 568q-2 51 -17.5 73.5t-57.5 21.5h-44v-285q0 -30 -1 -41l46 2v-36h-163v28q27 0 36.5 16t9.5 46v269h-64q-29 -1 -42 -24.5t-13 -69.5h-30l3 132h363l4 -132h-30zM946.5 648.5q-8.5 -17.5 -6.5 -52.5l15 -210q2 -33 1 -49l49 2v-35h-165v28h6q25 3 33.5 21.5
t6.5 51.5l-13 205h-1l-127 -311h-47q-59 129 -112 255q-17 40 -29 77h-1q0 -24 -1 -35l-8 -218q-2 -30 -5 -42l49 3v-34h-141v28q28 1 38 18t12 52l9 192q2 65 3 68l-43 -3v40h129l89 -214q33 -81 45 -108h1q9 18 31 74l41 100l60 148h117v-33q-27 -1 -35.5 -18.5z" />
    <glyph glyph-name="uni2126" unicode="&#x2126;" horiz-adv-x="781" 
d="M575.5 666.5q74.5 -49.5 110 -126.5t35.5 -161q0 -71 -35.5 -134.5t-91 -109.5t-115.5 -69v-1h84q67 0 95 14t28 56h29l-6 -135h-265v75q44 12 84.5 51.5t66 101t25.5 134.5q0 82 -27 154t-79 116t-125 44t-126 -42.5t-80.5 -111.5t-27.5 -145q0 -89 28 -155.5
t71.5 -103.5t89.5 -43v-75h-261l-7 135h30q0 -42 28 -56t95 -14h71v1q-67 19 -122.5 64.5t-88 110.5t-32.5 138q0 83 38 160.5t113 127t182 49.5q111 0 185.5 -49.5z" />
    <glyph glyph-name="estimated" unicode="&#x212e;" horiz-adv-x="576" 
d="M419 473.5q55 -34.5 84 -93.5t32 -132h-386v-171q61 -56 139 -56q117 0 184 113l33 -20q-84 -127 -217 -127q-74 0 -130 34t-86.5 93.5t-30.5 133.5t31 133t87 93t129 34q76 0 131 -34.5zM149 418v-136h278v136q-59 58 -140 58t-138 -58z" />
    <glyph glyph-name="partialdiff" unicode="&#x2202;" horiz-adv-x="509" 
d="M160 759q154 0 224 -113t70 -298q0 -189 -69.5 -276.5t-177.5 -87.5q-46 0 -85 25.5t-62 75t-23 119.5q0 87 31.5 155.5t83.5 106t113 37.5q30 0 57 -11t48 -32q-10 122 -63 195t-181 70v33q12 1 34 1zM200.5 433.5q-34.5 -29.5 -56 -86t-21.5 -132.5q0 -91 28.5 -142
t73.5 -51q53 0 86.5 53.5t47.5 129t14 147.5v49q-34 62 -102 62q-36 0 -70.5 -29.5z" />
    <glyph glyph-name="uni2206" unicode="&#x2206;" horiz-adv-x="698" 
d="M28 0l273 716h80l290 -716h-643zM560 58l-231 593l-219 -590z" />
    <glyph glyph-name="product" unicode="&#x220f;" horiz-adv-x="795" 
d="M690 651q-15 -15 -17 -35.5t-2 -71.5v-680q0 -54 -3 -79l72 4v-44h-225v33q35 1 50 16t17 35.5t2 71.5v760l-373 -5v-792q0 -54 -3 -79l72 4v-44h-225v33q35 1 50 16t17 35.5t2 71.5v687q0 42 3 72l-72 -4v44h685v-33q-35 -1 -50 -16z" />
    <glyph glyph-name="summation" unicode="&#x2211;" horiz-adv-x="637" 
d="M531 525q0 82 -35.5 112t-99.5 28l-229 -5q12 -17 26 -43l191 -372l-215 -382q-24 -42 -50 -78l295 -3q69 -2 105.5 35.5t36.5 122.5h34l-6 -195h-546v44q17 -1 35 19t34 46l202 353l-207 392q-22 39 -25 59l-46 -2v44h528l5 -175h-33z" />
    <glyph glyph-name="minus" unicode="&#x2212;" horiz-adv-x="592" 
d="M519 257l-446 -2v65l446 -2v-61z" />
    <glyph glyph-name="uni2215" unicode="&#x2215;" horiz-adv-x="375" 
d="M25 -54l-41 19l337 777l49 -24z" />
    <glyph glyph-name="uni2219" unicode="&#x2219;" horiz-adv-x="293" 
d="M85 255zM193.5 375q18.5 -21 18.5 -50t-19.5 -49.5t-44.5 -20.5t-44 20.5t-19 49.5t19.5 50t44.5 21q26 0 44.5 -21z" />
    <glyph glyph-name="radical" unicode="&#x221a;" horiz-adv-x="843" 
d="M601 824l-244 -827h-50l-156 384q-25 61 -29 81l-120 3v35h196l147 -376l216 738h305v-41z" />
    <glyph glyph-name="infinity" unicode="&#x221e;" horiz-adv-x="875" 
d="M760.5 501.5q40.5 -59.5 40.5 -156.5q0 -57 -21 -105t-59 -76.5t-88 -28.5q-55 0 -101.5 31t-97.5 110q-31 -61 -78 -99t-103 -38q-61 0 -101 31.5t-58.5 80t-18.5 102.5q0 57 21.5 103.5t60.5 73t91 26.5q58 0 102.5 -34t89.5 -105q31 63 84 103.5t111 40.5
q85 0 125.5 -59.5zM548.5 465.5q-44.5 -26.5 -85.5 -88.5q29 -54 50 -87t50 -56t65 -23q61 0 95.5 41t34.5 102q0 60 -32.5 99t-84.5 39q-48 0 -92.5 -26.5zM153 442q-36 -35 -36 -96q0 -59 37.5 -97t95.5 -38q47 0 88 26t73 77q-2 2 -4 6l-12 21q-24 43 -43 70t-47 46.5
t-65 19.5q-51 0 -87 -35z" />
    <glyph glyph-name="integral" unicode="&#x222b;" horiz-adv-x="399" 
d="M378 740.5q30 -19.5 30 -52.5q0 -17 -10 -29t-28 -13q-19 0 -29 13t-10 26q0 11 5 23q-5 8 -15.5 12t-21.5 4q-31 0 -47.5 -26t-15.5 -93l12 -647q2 -105 -38 -167t-126 -62q-40 0 -67 19t-27 52q0 19 11 31t30 12q18 0 27.5 -13t9.5 -26q0 -11 -5 -21q10 -14 38 -14
q29 0 45.5 30t15.5 90l-12 642q-2 102 38 165.5t125 63.5q35 0 65 -19.5z" />
    <glyph glyph-name="approxequal" unicode="&#x2248;" horiz-adv-x="592" 
d="M74 151zM263.5 435.69q24.5 -9.86914 53.5 -29.6094q24 -15.9805 42 -23.9707q18 -7.98926 44 -7.98926q62 0 115 45.1201v-59.2207q-47 -48.8799 -119 -48.8799q-35 0 -59.5 9.87012t-53.5 28.6699q-27 15.9805 -45.5 23.9697q-18.5 7.99023 -43.5 7.99023
q-37 0 -63 -10.8096q-26 -10.8105 -60 -34.3105v59.2207q35 26.3193 62.5 38.0693t64.5 11.75q38 0 62.5 -9.87012zM263.5 275.69q24.5 -9.86914 53.5 -29.6094q24 -15.9805 42 -23.9707q18 -7.98926 44 -7.98926q62 0 115 45.1201v-59.2207q-47 -48.8799 -119 -48.8799
q-35 0 -59.5 9.87012t-53.5 28.6699q-27 15.9805 -45.5 23.9697q-18.5 7.99023 -43.5 7.99023q-37 0 -63 -10.8096q-26 -10.8105 -60 -34.3105v59.2207q35 26.3193 62.5 38.0693t64.5 11.75q38 0 62.5 -9.87012z" />
    <glyph glyph-name="notequal" unicode="&#x2260;" horiz-adv-x="559" 
d="M401 428l100 -1v-58l-139 -1l-86 -128l225 -1v-58l-265 -1l-94 -140l-44 32l72 108l-114 -1v62l154 -1l85 128l-239 -1v62l279 -1l82 124l46 -32z" />
    <glyph glyph-name="lessequal" unicode="&#x2264;" horiz-adv-x="579" 
d="M126 334l377 -167v-64l-445 194v67l445 198v-62zM503 0h-445v56l445 -4v-52z" />
    <glyph glyph-name="greaterequal" unicode="&#x2265;" horiz-adv-x="579" 
d="M454 333l-377 167v64l445 -194v-67l-445 -198v62zM77 0v52l445 4v-56h-445z" />
    <glyph glyph-name="lozenge" unicode="&#x25ca;" horiz-adv-x="487" 
d="M450 359l-194 -376h-26l-194 369v26l199 382h26l189 -375v-26zM99 372l149 -289h2l144 288l-146 295h-3z" />
    <glyph glyph-name="dottedCircle" unicode="&#x25cc;" horiz-adv-x="563" 
d="M255.5 459.5q-16.5 16.5 -16.5 25.5q0 10 16.5 26t25.5 16t25.5 -16t16.5 -26q0 -9 -16.5 -25.5t-25.5 -16.5t-25.5 16.5zM104.5 396.5q-16.5 16.5 -16.5 25.5t16.5 25.5t25.5 16.5t25 -16.5t16 -25.5t-16 -25.5t-25 -16.5t-25.5 16.5zM407.5 447.5q16.5 16.5 25.5 16.5
t25.5 -16.5t16.5 -25.5t-16.5 -25.5t-25.5 -16.5t-25.5 16.5t-16.5 25.5t16.5 25.5zM40.5 245.5q-16.5 16.5 -16.5 25.5t17 25.5t25 16.5q10 0 26.5 -16.5t16.5 -25.5q0 -10 -16.5 -26t-26.5 -16q-9 0 -25.5 16.5zM470.5 296.5q16.5 16.5 25.5 16.5t25.5 -16.5t16.5 -25.5
q0 -10 -16.5 -26t-25.5 -16t-25.5 16t-16.5 26q0 9 16.5 25.5zM104.5 144.5q16.5 16.5 25.5 16.5t25 -16.5t16 -26.5q0 -9 -16 -25t-25 -16t-25.5 16t-16.5 25q0 10 16.5 26.5zM407.5 144.5q16.5 16.5 25.5 16.5t25.5 -16.5t16.5 -26.5q0 -9 -16.5 -25t-25.5 -16t-25.5 16
t-16.5 25q0 10 16.5 26.5zM255.5 81.5q16.5 16.5 25.5 16.5t25.5 -16.5t16.5 -25.5q0 -10 -16.5 -26t-25.5 -16t-25.5 16t-16.5 26q0 9 16.5 25.5z" />
    <glyph glyph-name="Acute" unicode="&#xf6c9;" horiz-adv-x="290" 
d="M232 893q0 -24 -32 -44l-145 -89l-22 29l126 120q21 18 39 18q10 0 17.5 -4.5t10.5 -8.5q6 -8 6 -21z" />
    <glyph glyph-name="Caron" unicode="&#xf6ca;" horiz-adv-x="470" 
d="M231 780h-2l-184 141l22 34l168 -88l170 90l20 -32z" />
    <glyph glyph-name="Dieresis" unicode="&#xf6cb;" horiz-adv-x="379" 
d="M138.5 884.5q15.5 -18.5 15.5 -45.5q0 -26 -16.5 -44.5t-38.5 -18.5t-38 18.5t-16 44.5q0 27 16.5 45.5t38.5 18.5q23 0 38.5 -18.5zM317.5 884.5q15.5 -18.5 15.5 -45.5q0 -26 -16 -44.5t-38 -18.5t-38 18.5t-16 44.5q0 27 16 45.5t39 18.5q22 0 37.5 -18.5z" />
    <glyph glyph-name="Grave" unicode="&#xf6ce;" horiz-adv-x="290" 
d="M62.5 922.5q7.5 4.5 17.5 4.5q18 0 39 -18l126 -120l-22 -29l-145 89q-32 20 -32 44q0 13 6 21q3 4 10.5 8.5z" />
    <glyph glyph-name="la-deva.loclMAR" horiz-adv-x="607" 
d="M550.5 342q26.5 -48 26.5 -110q0 -71 -35.5 -141t-104.5 -119l-58 59q60 48 99.5 119t39.5 127q0 37 -19.5 58.5t-59.5 21.5q-39 0 -67.5 -38t-45.5 -108l-79 14q7 57 34 105q-50 29 -96 29q-40 0 -57 -20.5t-17 -59.5q0 -70 43 -133t109 -115l-21 -38q-51 28 -101 77
t-82.5 107.5t-32.5 113.5q0 52 30.5 90t97.5 38q41 0 77 -15t72 -43q39 47 93 56v9q0 35 7 80h-405l-28 64h639l28 -64h-113q-25 0 -37 -18t-12 -47v-32q49 -19 75.5 -67z" />
    <glyph glyph-name="sha-deva.loclMAR" horiz-adv-x="591" 
d="M556 506q-25 0 -37 -18t-12 -47v-495l-79 34v446q0 34 7 80h-145q-25 0 -37 -18t-12 -47v-12q45 -13 74.5 -53.5t29.5 -97.5q0 -55 -28.5 -96t-74 -62.5t-93.5 -21.5q-17 0 -32 3q29 -32 60 -55t77 -48l-50 -64q-80 67 -127.5 123t-47.5 113q0 35 18 49t38 14
q22 0 38 -13.5t22 -39.5q7 -1 21 -1q63 0 97.5 31.5t34.5 88.5q0 32 -19 50t-50 18q-33 0 -68.5 -13t-66.5 -36l-44 65q53 39 112 48q0 31 7 75h-171l-28 64h623l28 -64h-65z" />
    <glyph glyph-name="jha-deva.loclNEP" horiz-adv-x="786" 
d="M774 361q35 -49 35 -119q0 -66 -33 -122.5t-100 -93.5l-48 72q43 17 73.5 48t45.5 66.5t15 66.5q0 59 -61 59q-39 0 -91 -28.5t-99 -73.5v-290l-79 34v268l-155 -5l-1 -28q-1 -28 -14 -43.5t-34 -15.5q-15 0 -39 17t-41.5 41t-17.5 46q0 21 13 32.5t37 11.5h17l4 69
q-64 10 -110 48t-46 90q0 37 23 59t61 22q76 0 117.5 -63t37.5 -173l-3 -52h151v122q0 34 7 80h-113l-28 64h490l28 -64h-256q-25 0 -37 -18t-12 -47v-119q92 88 168 88q60 0 95 -49zM140.5 452.5q22.5 -23.5 62.5 -34.5q2 63 -8.5 96t-39.5 33q-37 0 -37 -43
q0 -28 22.5 -51.5z" />
    <glyph glyph-name="zha-deva.loclNEP" horiz-adv-x="528" 
d="M468.5 76q-24.5 -34 -63.5 -55l90 -104l-63 -48l-72 134q-24 -6 -45 -6q-30 0 -51 17.5t-21 46.5q0 28 18 44.5t43 16.5q17 0 32.5 -8.5t24.5 -24.5q26 9 41.5 38t15.5 58q0 28 -16 47.5t-46 19.5q-19 0 -43 -9q-8 -12 -13 -18q-30 -36 -72 -55.5t-88 -19.5q-40 0 -77 21
t-63 62l48 72q20 -41 56 -64.5t72 -23.5q28 0 51 11t37 32q15 23 15 53q0 40 -26.5 89.5t-77.5 103.5h-177l-28 64h560l28 -64h-279q62 -90 62 -168q0 -25 -6 -48q17 4 36 4q60 0 91 -41t31 -98q0 -45 -24.5 -79z" />
    <glyph glyph-name="na-deva.post2" 
d="M-317 54q43 -24 43 -63q0 -24 -18 -38t-44 -14q-29 0 -50 18.5t-21 46.5t18.5 54t70 64t155.5 101l32 -37z" />
    <glyph glyph-name="ra-deva.post2" 
d="M-463 4l282 190l50 -39l-274 -212z" />
    <glyph glyph-name="k_ka-deva" horiz-adv-x="688" 
d="M671 413.5q35 -46.5 35 -111.5q0 -51 -31 -94q31 -45 31 -106q0 -36 -16.5 -61.5t-51 -47t-95.5 -47.5l-48 72q86 27 125 54.5t39 66.5q0 51 -71 51q-36 0 -85.5 -26.5t-95.5 -68.5v-269l-79 34v146q-31 -29 -68 -45t-76 -16q-49 0 -88 23.5t-61 62.5t-22 84q0 50 46 87
q-46 56 -46 143q0 62 32.5 94t95.5 32q47 0 95.5 -20.5t91.5 -64.5v40q0 37 5 80h-335l-28 64h720l28 -64h-262q-25 0 -37 -18t-12 -47v-70q92 89 169 89q60 0 95 -46.5zM98 362q-24 -26 -24 -70q0 -37 18 -60t55 -23q42 0 92 22t89 58v33q-40 34 -77 50t-66 16
q-63 0 -87 -26zM614 254q27 20 36 39.5t9 45.5q0 49 -61 49q-39 0 -91 -28.5t-100 -74.5v-105q91 80 169 80q20 0 38 -6zM239 31q50 22 89 58v117q-31 -29 -68 -45t-76 -16q-19 0 -42 5q-30 -9 -45.5 -29t-15.5 -44q0 -28 17.5 -48t48.5 -20q42 0 92 22z" />
    <glyph glyph-name="k_t_ta-deva" horiz-adv-x="747" 
d="M711 370q35 -49 35 -119q0 -66 -33 -122.5t-100 -93.5l-48 72q43 17 73.5 48t45.5 66.5t15 66.5q0 59 -61 59q-39 0 -91 -28.5t-100 -74.5v-298l-79 34v353h-137q-46 0 -68.5 -25.5t-22.5 -70.5q0 -54 32.5 -114t89.5 -105l-27 -25q-88 62 -134.5 134t-46.5 134
q0 43 22 72h-78l-28 64h398v29q0 34 7 80h-377l-28 64h779l28 -64h-281q-25 0 -37 -18t-12 -47v-111q92 89 169 89q60 0 95 -49z" />
    <glyph glyph-name="k_ra-deva" horiz-adv-x="728" 
d="M664 384q37 -41 37 -120q0 -64 -28.5 -119.5t-79.5 -88.5l-48 71q50 30 76.5 77.5t26.5 85.5q0 37 -16 56t-44 19q-35 0 -77 -23t-84 -71v-325l-79 34v199l-244 -226l-47 51l135 111q-40 2 -74 26t-54 63.5t-20 86.5q0 76 44 114t116 38q77 0 144 -41v24q0 34 7 80h-357
l-28 64h760l28 -64h-282q-25 0 -37 -18t-12 -47v-87q31 34 69 52.5t75 18.5q56 0 93 -41zM120.5 200.5q24.5 -19.5 69.5 -19.5q37 0 79.5 21t78.5 58v72q-65 36 -140 36q-48 0 -80 -26t-32 -76q0 -46 24.5 -65.5z" />
    <glyph glyph-name="k_va-deva" horiz-adv-x="688" 
d="M671 413.5q35 -46.5 35 -111.5q0 -50 -32 -96t-92 -83l-52 63q62 30 93 69.5t31 75.5q0 25 -15 41t-41 16q-39 0 -91 -28.5t-99 -73.5v-460l-79 34v147q-31 -29 -68.5 -45.5t-76.5 -16.5q-49 0 -88 20.5t-61 55t-22 74.5q0 35 15 62t39 41q-54 51 -54 139q0 134 128 134
q48 0 96 -21t92 -65v41q0 37 5 80h-336l-28 64h720l28 -64h-261q-25 0 -37 -18t-12 -47v-69q92 88 168 88q60 0 95 -46.5zM100.5 363.5q-26.5 -24.5 -26.5 -71.5q0 -37 18 -60t55 -23q43 0 93 22.5t89 58.5v31q-41 34 -83 50.5t-76 16.5q-43 0 -69.5 -24.5zM244 31
q45 22 85 59v117q-56 -52 -145 -52q-18 0 -34 3q-33 -9 -51 -36.5t-18 -54.5t19 -42.5t57 -15.5q42 0 87 22z" />
    <glyph glyph-name="k_ssa-deva" horiz-adv-x="739" 
d="M688 506q-25 0 -37 -18t-12 -47v-495l-79 34v284q-60 -11 -99 -11q-54 0 -98 16t-98 50q-57 -32 -102 -73.5t-45 -87.5q0 -19 10 -38q12 -22 35.5 -32.5t54.5 -10.5q50 0 102 25q-4 18 -4 25q0 25 15.5 38.5t37.5 13.5q25 0 43.5 -17.5t18.5 -47.5q0 -24 -10.5 -39
t-29.5 -26q22 -44 46.5 -72.5t65.5 -62.5l-63 -54q-65 96 -98 167q-39 -13 -76 -13q-64 0 -115.5 33t-77.5 78q-23 40 -23 76q0 89 143 157q-44 29 -68.5 62t-24.5 75q0 50 35 79t94 29q41 0 79 -15t62.5 -47.5t24.5 -80.5q0 -33 -20 -59t-57 -50q68 -32 129 -32
q51 0 113 24v83q0 35 7 80h-116l-28 64h318l28 -64h-81zM206.5 545.5q-19.5 -18.5 -19.5 -47.5q0 -63 62 -111q39 23 53.5 46t14.5 58q0 33 -17.5 53t-46.5 20q-27 0 -46.5 -18.5z" />
    <glyph glyph-name="k_ss_ma-deva" horiz-adv-x="935" 
d="M910 506q-25 0 -37 -18t-12 -47v-495l-79 34v288l-211 -4v-53q0 -29 -7.5 -42.5t-25.5 -13.5q-20 0 -50.5 24t-51.5 56q-54 1 -101 19.5t-99 53.5q-61 -36 -95.5 -77t-34.5 -78q0 -22 12 -41q11 -17 33 -26t50 -9q53 0 105 25q-4 18 -4 25q0 25 15.5 38.5t37.5 13.5
q25 0 43.5 -17.5t18.5 -47.5q0 -24 -10.5 -39t-29.5 -26q22 -44 46.5 -72.5t65.5 -62.5l-63 -54q-65 96 -98 167q-51 -18 -99 -18q-94 0 -151 76q-33 45 -33 91q0 51 35.5 98.5t99.5 83.5q-94 60 -94 137q0 50 35 79t94 29q48 0 85.5 -18.5t58 -48.5t20.5 -64q0 -41 -22 -72
t-69 -61q62 -33 127 -33q3 11 13.5 15.5t31.5 4.5h32v100q0 35 7 80h-93l-28 64h559l28 -64h-55zM192.5 545.5q-19.5 -18.5 -19.5 -47.5q0 -63 61 -110q40 24 54.5 46.5t14.5 56.5q0 33 -17.5 53t-46.5 20q-27 0 -46.5 -18.5zM789 506h-169q-25 0 -37 -18t-12 -47v-115h211
v100q0 35 7 80z" />
    <glyph glyph-name="k_ss_ya-deva" horiz-adv-x="927" 
d="M902 506q-25 0 -37 -18t-12 -47v-495l-79 34v149q-60 -23 -115 -23q-74 0 -138 39t-105 113q-38 6 -72 21t-74 41q-70 -39 -110 -83t-40 -84q0 -22 12 -41q11 -17 33 -26t50 -9q53 0 105 25q-4 18 -4 25q0 25 15.5 38.5t37.5 13.5q25 0 43.5 -17.5t18.5 -47.5
q0 -24 -10.5 -39t-29.5 -26q22 -44 46.5 -72.5t65.5 -62.5l-63 -54q-65 96 -98 167q-51 -18 -99 -18q-94 0 -151 76q-33 45 -33 91q0 51 35.5 98.5t99.5 83.5q-94 60 -94 137q0 50 35 79t94 29q48 0 85.5 -18.5t58 -48.5t20.5 -64q0 -36 -17 -64.5t-54 -55.5q84 -43 145 -44
q48 22 72 48.5t24 61.5q0 39 -29 88h-106l-28 64h529l28 -64h-55zM206.5 545.5q-19.5 -18.5 -19.5 -47.5q0 -63 61 -110q40 24 54.5 46.5t14.5 56.5q0 33 -17.5 53t-46.5 20q-27 0 -46.5 -18.5zM781 506h-192q36 -59 36 -109q0 -49 -31 -85t-86 -58q13 -30 46 -52t75 -22
q80 0 145 46v200q0 35 7 80z" />
    <glyph glyph-name="k_ss_ra-deva" horiz-adv-x="759" 
d="M729 506q-25 0 -37 -18t-12 -47v-495l-79 34v182l-105 -154l-58 41l163 209v6q-82 -11 -128 -11q-60 0 -105 13.5t-111 45.5q-64 -38 -100.5 -80t-36.5 -80q0 -21 12 -40q11 -17 33 -26t50 -9q53 0 105 25q-4 18 -4 25q0 25 15.5 38.5t37.5 13.5q25 0 43.5 -17.5
t18.5 -47.5q0 -24 -10.5 -39t-29.5 -26q22 -44 46.5 -72.5t65.5 -62.5l-63 -54q-65 96 -98 167q-51 -18 -99 -18q-94 0 -151 76q-33 45 -33 91q0 51 35.5 98.5t99.5 83.5q-94 60 -94 137q0 50 35 79t94 29q48 0 85.5 -18.5t58 -48.5t20.5 -64q0 -38 -19.5 -68.5t-61.5 -58.5
q80 -29 141 -29q38 0 66.5 8.5t81.5 29.5v72q0 35 7 80h-117l-28 64h298l28 -64h-60zM206.5 545.5q-19.5 -18.5 -19.5 -47.5q0 -63 61 -110q40 24 54.5 46.5t14.5 56.5q0 33 -17.5 53t-46.5 20q-27 0 -46.5 -18.5z" />
    <glyph glyph-name="kh_na-deva" horiz-adv-x="814" 
d="M762 506q-25 0 -37 -18t-12 -47v-495l-79 34v139q-22 -12 -26 -14l-126 -90q43 -24 43 -63q0 -24 -18 -38t-44 -14q-29 0 -50 18.5t-21 46.5q0 27 16.5 51.5t62.5 59.5q-75 7 -121.5 59t-46.5 127q0 73 43.5 112t117.5 39q46 0 83.5 -13t86.5 -48v74q0 34 7 80h-398
q20 -63 20 -123q0 -56 -18 -99t-51 -65.5t-75 -20.5q23 -66 80 -106t127 -40q23 0 43 4l-21 -83q-97 0 -167 52.5t-106.5 125t-36.5 127.5q0 26 16.5 42.5t42.5 16.5q25 0 40 -10t31 -32q37 40 37 103q0 49 -22 108h-185l-28 64h846l28 -64h-82zM383.5 165
q29.5 -23 73.5 -23q47 0 93.5 13.5t83.5 39.5v92q-91 51 -167 51q-56 0 -84.5 -28.5t-28.5 -75.5q0 -46 29.5 -69z" />
    <glyph glyph-name="kh_ra-deva" horiz-adv-x="844" 
d="M792 506q-25 0 -37 -18t-12 -47v-495l-79 34v118l-120 -160l-68 41l88 100q-19 -4 -43 -4q-55 0 -97.5 24.5t-66.5 67t-24 95.5q0 73 43.5 112t117.5 39q46 0 83.5 -13t86.5 -48v74q0 34 7 80h-428q20 -63 20 -123q0 -56 -18 -99t-51 -65.5t-75 -20.5q23 -66 80 -106
t127 -40q23 0 43 4l-21 -83q-97 0 -167 52.5t-106.5 125t-36.5 127.5q0 26 16.5 42.5t42.5 16.5q25 0 40 -10t31 -32q37 40 37 103q0 49 -22 108h-185l-28 64h876l28 -64h-82zM580.5 155.5q46.5 13.5 83.5 39.5v92q-91 51 -167 51q-56 0 -84.5 -28.5t-28.5 -75.5
q0 -46 29.5 -69t73.5 -23q47 0 93.5 13.5z" />
    <glyph glyph-name="g_na-deva" horiz-adv-x="544" 
d="M496 506q-25 0 -37 -18t-12 -47v-495l-79 34v232l-148 -105q43 -24 43 -63q0 -24 -18 -38t-44 -14q-29 0 -50 18.5t-21 46.5t18 53.5t68.5 63t151.5 98.5v154q0 35 7 80h-204q17 -81 17 -144q0 -65 -19.5 -106t-63.5 -41q-31 0 -53 18.5t-22 48.5q0 27 18.5 42.5
t40.5 15.5q19 0 40 -10q6 33 6 67q0 51 -13 109h-124l-28 64h576l28 -64h-78z" />
    <glyph glyph-name="g_n_ya-deva" horiz-adv-x="789" 
d="M764 506q-25 0 -37 -18t-12 -47v-495l-79 34v148q-51 -18 -102 -18q-75 0 -135 38l-134 -94q43 -24 43 -63q0 -24 -18 -38t-44 -14q-29 0 -50 18.5t-21 46.5q0 26 13 47.5t51.5 51.5t116.5 78q-36 35 -60 78l10 41q120 36 120 116q0 38 -29 90h-213q11 -113 11 -184
q0 -84 -15.5 -125.5t-50.5 -41.5q-23 0 -45.5 13t-36.5 34t-14 45q0 41 59 41q15 0 36 -3q0 49 -5 99t-15 122h-110l-28 64h821l28 -64h-55zM643 506h-192q36 -59 36 -109q0 -49 -31 -85t-86 -58q17 -30 50 -45.5t75 -15.5q36 0 73 10t68 29v194q0 35 7 80z" />
    <glyph glyph-name="g_ra-deva" horiz-adv-x="524" 
d="M476 506q-25 0 -37 -18t-12 -47v-495l-79 34v117l-170 -145l-48 61l218 158v255q0 35 7 80h-173q21 -42 33 -98.5t12 -114.5q0 -91 -25.5 -151t-78.5 -60q-37 0 -61.5 27t-24.5 65q0 41 59 41q14 0 22 -1q40 29 40 109q0 48 -15 98.5t-39 84.5h-106l-28 64h556l28 -64
h-78z" />
    <glyph glyph-name="g_r_ya-deva" horiz-adv-x="760" 
d="M735 506q-25 0 -37 -18t-12 -47v-495l-79 34v148q-53 -17 -103 -17q-68 0 -122 30l-255 -198l-58 61l260 175q-35 32 -62 80l10 41q120 36 120 116q0 38 -29 90h-184q11 -113 11 -184q0 -84 -15.5 -125.5t-50.5 -41.5q-23 0 -45.5 13t-36.5 34t-14 45q0 41 59 41
q15 0 36 -3q0 49 -5 99t-15 122h-110l-28 64h792l28 -64h-55zM614 506h-192q36 -59 36 -109q0 -49 -31 -85t-86 -58q17 -30 50 -45.5t75 -15.5q36 0 73 10t68 29v194q0 35 7 80z" />
    <glyph glyph-name="gh_na-deva" horiz-adv-x="596" 
d="M544 506q-25 0 -37 -18t-12 -47v-495l-79 34v146q-29 -22 -54 -34l-109 -77q43 -24 43 -63q0 -24 -18 -38t-44 -14q-29 0 -50 18.5t-21 46.5q0 26 16 50t60 58q-42 8 -74 34.5t-48.5 62t-16.5 70.5q0 43 27 76q-58 42 -58 108q0 49 31 82h-102l-28 64h628l28 -64h-82z
M242 138q103 0 174 106v182q0 35 7 80h-138q-74 -1 -112.5 -32.5t-38.5 -73.5q0 -29 24 -56q43 30 112 43l22 -72q-69 -15 -100.5 -42t-31.5 -68q0 -67 82 -67z" />
    </font>
</defs>
</svg>
